G04 #@! TF.GenerationSoftware,KiCad,Pcbnew,(5.1.7)-1*
G04 #@! TF.CreationDate,2020-11-03T10:40:30+01:00*
G04 #@! TF.ProjectId,Timer,54696d65-722e-46b6-9963-61645f706362,rev?*
G04 #@! TF.SameCoordinates,Original*
G04 #@! TF.FileFunction,Legend,Bot*
G04 #@! TF.FilePolarity,Positive*
%FSLAX46Y46*%
G04 Gerber Fmt 4.6, Leading zero omitted, Abs format (unit mm)*
G04 Created by KiCad (PCBNEW (5.1.7)-1) date 2020-11-03 10:40:30*
%MOMM*%
%LPD*%
G01*
G04 APERTURE LIST*
%ADD10C,0.150000*%
%ADD11C,0.100000*%
G04 APERTURE END LIST*
D10*
X127333333Y-92500000D02*
X127428571Y-92452380D01*
X127571428Y-92452380D01*
X127714285Y-92500000D01*
X127809523Y-92595238D01*
X127857142Y-92690476D01*
X127904761Y-92880952D01*
X127904761Y-93023809D01*
X127857142Y-93214285D01*
X127809523Y-93309523D01*
X127714285Y-93404761D01*
X127571428Y-93452380D01*
X127476190Y-93452380D01*
X127333333Y-93404761D01*
X127285714Y-93357142D01*
X127285714Y-93023809D01*
X127476190Y-93023809D01*
X126476190Y-93404761D02*
X126571428Y-93452380D01*
X126761904Y-93452380D01*
X126857142Y-93404761D01*
X126904761Y-93309523D01*
X126904761Y-92928571D01*
X126857142Y-92833333D01*
X126761904Y-92785714D01*
X126571428Y-92785714D01*
X126476190Y-92833333D01*
X126428571Y-92928571D01*
X126428571Y-93023809D01*
X126904761Y-93119047D01*
X126000000Y-92785714D02*
X126000000Y-93452380D01*
X126000000Y-92880952D02*
X125952380Y-92833333D01*
X125857142Y-92785714D01*
X125714285Y-92785714D01*
X125619047Y-92833333D01*
X125571428Y-92928571D01*
X125571428Y-93452380D01*
X124714285Y-93404761D02*
X124809523Y-93452380D01*
X125000000Y-93452380D01*
X125095238Y-93404761D01*
X125142857Y-93309523D01*
X125142857Y-92928571D01*
X125095238Y-92833333D01*
X125000000Y-92785714D01*
X124809523Y-92785714D01*
X124714285Y-92833333D01*
X124666666Y-92928571D01*
X124666666Y-93023809D01*
X125142857Y-93119047D01*
X124238095Y-93452380D02*
X124238095Y-92785714D01*
X124238095Y-92976190D02*
X124190476Y-92880952D01*
X124142857Y-92833333D01*
X124047619Y-92785714D01*
X123952380Y-92785714D01*
X123619047Y-93452380D02*
X123619047Y-92785714D01*
X123619047Y-92452380D02*
X123666666Y-92500000D01*
X123619047Y-92547619D01*
X123571428Y-92500000D01*
X123619047Y-92452380D01*
X123619047Y-92547619D01*
X122714285Y-93404761D02*
X122809523Y-93452380D01*
X123000000Y-93452380D01*
X123095238Y-93404761D01*
X123142857Y-93357142D01*
X123190476Y-93261904D01*
X123190476Y-92976190D01*
X123142857Y-92880952D01*
X123095238Y-92833333D01*
X123000000Y-92785714D01*
X122809523Y-92785714D01*
X122714285Y-92833333D01*
X121666666Y-92785714D02*
X121285714Y-92785714D01*
X121523809Y-92452380D02*
X121523809Y-93309523D01*
X121476190Y-93404761D01*
X121380952Y-93452380D01*
X121285714Y-93452380D01*
X120952380Y-93452380D02*
X120952380Y-92785714D01*
X120952380Y-92452380D02*
X121000000Y-92500000D01*
X120952380Y-92547619D01*
X120904761Y-92500000D01*
X120952380Y-92452380D01*
X120952380Y-92547619D01*
X120476190Y-93452380D02*
X120476190Y-92785714D01*
X120476190Y-92880952D02*
X120428571Y-92833333D01*
X120333333Y-92785714D01*
X120190476Y-92785714D01*
X120095238Y-92833333D01*
X120047619Y-92928571D01*
X120047619Y-93452380D01*
X120047619Y-92928571D02*
X120000000Y-92833333D01*
X119904761Y-92785714D01*
X119761904Y-92785714D01*
X119666666Y-92833333D01*
X119619047Y-92928571D01*
X119619047Y-93452380D01*
X118761904Y-93404761D02*
X118857142Y-93452380D01*
X119047619Y-93452380D01*
X119142857Y-93404761D01*
X119190476Y-93309523D01*
X119190476Y-92928571D01*
X119142857Y-92833333D01*
X119047619Y-92785714D01*
X118857142Y-92785714D01*
X118761904Y-92833333D01*
X118714285Y-92928571D01*
X118714285Y-93023809D01*
X119190476Y-93119047D01*
X118285714Y-93452380D02*
X118285714Y-92785714D01*
X118285714Y-92976190D02*
X118238095Y-92880952D01*
X118190476Y-92833333D01*
X118095238Y-92785714D01*
X118000000Y-92785714D01*
X127380952Y-94197619D02*
X127333333Y-94150000D01*
X127238095Y-94102380D01*
X127000000Y-94102380D01*
X126904761Y-94150000D01*
X126857142Y-94197619D01*
X126809523Y-94292857D01*
X126809523Y-94388095D01*
X126857142Y-94530952D01*
X127428571Y-95102380D01*
X126809523Y-95102380D01*
X126190476Y-94102380D02*
X126095238Y-94102380D01*
X126000000Y-94150000D01*
X125952380Y-94197619D01*
X125904761Y-94292857D01*
X125857142Y-94483333D01*
X125857142Y-94721428D01*
X125904761Y-94911904D01*
X125952380Y-95007142D01*
X126000000Y-95054761D01*
X126095238Y-95102380D01*
X126190476Y-95102380D01*
X126285714Y-95054761D01*
X126333333Y-95007142D01*
X126380952Y-94911904D01*
X126428571Y-94721428D01*
X126428571Y-94483333D01*
X126380952Y-94292857D01*
X126333333Y-94197619D01*
X126285714Y-94150000D01*
X126190476Y-94102380D01*
X125666666Y-95197619D02*
X124904761Y-95197619D01*
X124238095Y-94435714D02*
X124238095Y-95102380D01*
X124476190Y-94054761D02*
X124714285Y-94769047D01*
X124095238Y-94769047D01*
X123238095Y-94102380D02*
X123714285Y-94102380D01*
X123761904Y-94578571D01*
X123714285Y-94530952D01*
X123619047Y-94483333D01*
X123380952Y-94483333D01*
X123285714Y-94530952D01*
X123238095Y-94578571D01*
X123190476Y-94673809D01*
X123190476Y-94911904D01*
X123238095Y-95007142D01*
X123285714Y-95054761D01*
X123380952Y-95102380D01*
X123619047Y-95102380D01*
X123714285Y-95054761D01*
X123761904Y-95007142D01*
X123000000Y-95197619D02*
X122238095Y-95197619D01*
X121809523Y-94102380D02*
X121714285Y-94102380D01*
X121619047Y-94150000D01*
X121571428Y-94197619D01*
X121523809Y-94292857D01*
X121476190Y-94483333D01*
X121476190Y-94721428D01*
X121523809Y-94911904D01*
X121571428Y-95007142D01*
X121619047Y-95054761D01*
X121714285Y-95102380D01*
X121809523Y-95102380D01*
X121904761Y-95054761D01*
X121952380Y-95007142D01*
X122000000Y-94911904D01*
X122047619Y-94721428D01*
X122047619Y-94483333D01*
X122000000Y-94292857D01*
X121952380Y-94197619D01*
X121904761Y-94150000D01*
X121809523Y-94102380D01*
X120857142Y-94102380D02*
X120761904Y-94102380D01*
X120666666Y-94150000D01*
X120619047Y-94197619D01*
X120571428Y-94292857D01*
X120523809Y-94483333D01*
X120523809Y-94721428D01*
X120571428Y-94911904D01*
X120619047Y-95007142D01*
X120666666Y-95054761D01*
X120761904Y-95102380D01*
X120857142Y-95102380D01*
X120952380Y-95054761D01*
X121000000Y-95007142D01*
X121047619Y-94911904D01*
X121095238Y-94721428D01*
X121095238Y-94483333D01*
X121047619Y-94292857D01*
X121000000Y-94197619D01*
X120952380Y-94150000D01*
X120857142Y-94102380D01*
X119666666Y-94435714D02*
X119666666Y-95102380D01*
X119904761Y-94054761D02*
X120142857Y-94769047D01*
X119523809Y-94769047D01*
X119238095Y-94102380D02*
X118619047Y-94102380D01*
X118952380Y-94483333D01*
X118809523Y-94483333D01*
X118714285Y-94530952D01*
X118666666Y-94578571D01*
X118619047Y-94673809D01*
X118619047Y-94911904D01*
X118666666Y-95007142D01*
X118714285Y-95054761D01*
X118809523Y-95102380D01*
X119095238Y-95102380D01*
X119190476Y-95054761D01*
X119238095Y-95007142D01*
X128452380Y-96228571D02*
X128309523Y-96276190D01*
X128261904Y-96323809D01*
X128214285Y-96419047D01*
X128214285Y-96561904D01*
X128261904Y-96657142D01*
X128309523Y-96704761D01*
X128404761Y-96752380D01*
X128785714Y-96752380D01*
X128785714Y-95752380D01*
X128452380Y-95752380D01*
X128357142Y-95800000D01*
X128309523Y-95847619D01*
X128261904Y-95942857D01*
X128261904Y-96038095D01*
X128309523Y-96133333D01*
X128357142Y-96180952D01*
X128452380Y-96228571D01*
X128785714Y-96228571D01*
X127785714Y-96085714D02*
X127785714Y-96942857D01*
X127833333Y-97038095D01*
X127928571Y-97085714D01*
X127976190Y-97085714D01*
X127785714Y-95752380D02*
X127833333Y-95800000D01*
X127785714Y-95847619D01*
X127738095Y-95800000D01*
X127785714Y-95752380D01*
X127785714Y-95847619D01*
X126785714Y-96085714D02*
X127404761Y-96752380D01*
X127166666Y-96752380D02*
X127261904Y-96704761D01*
X127309523Y-96657142D01*
X127357142Y-96561904D01*
X127357142Y-96276190D01*
X127309523Y-96180952D01*
X127261904Y-96133333D01*
X127166666Y-96085714D01*
X127023809Y-96085714D01*
X126928571Y-96133333D01*
X126880952Y-96180952D01*
X126833333Y-96276190D01*
X126833333Y-96561904D01*
X126880952Y-96657142D01*
X126928571Y-96704761D01*
X127023809Y-96752380D01*
X127166666Y-96752380D01*
X126404761Y-96752380D02*
X126404761Y-96085714D01*
X126404761Y-96276190D02*
X126357142Y-96180952D01*
X126309523Y-96133333D01*
X126214285Y-96085714D01*
X126119047Y-96085714D01*
X125785714Y-96085714D02*
X125785714Y-96752380D01*
X125785714Y-96180952D02*
X125738095Y-96133333D01*
X125642857Y-96085714D01*
X125500000Y-96085714D01*
X125404761Y-96133333D01*
X125357142Y-96228571D01*
X125357142Y-96752380D01*
X124500000Y-96704761D02*
X124595238Y-96752380D01*
X124785714Y-96752380D01*
X124880952Y-96704761D01*
X124928571Y-96609523D01*
X124928571Y-96228571D01*
X124880952Y-96133333D01*
X124785714Y-96085714D01*
X124595238Y-96085714D01*
X124500000Y-96133333D01*
X124452380Y-96228571D01*
X124452380Y-96323809D01*
X124928571Y-96419047D01*
X124023809Y-96752380D02*
X124023809Y-96085714D01*
X124023809Y-96276190D02*
X123976190Y-96180952D01*
X123928571Y-96133333D01*
X123833333Y-96085714D01*
X123738095Y-96085714D01*
X122690476Y-96704761D02*
X122547619Y-96752380D01*
X122309523Y-96752380D01*
X122214285Y-96704761D01*
X122166666Y-96657142D01*
X122119047Y-96561904D01*
X122119047Y-96466666D01*
X122166666Y-96371428D01*
X122214285Y-96323809D01*
X122309523Y-96276190D01*
X122500000Y-96228571D01*
X122595238Y-96180952D01*
X122642857Y-96133333D01*
X122690476Y-96038095D01*
X122690476Y-95942857D01*
X122642857Y-95847619D01*
X122595238Y-95800000D01*
X122500000Y-95752380D01*
X122261904Y-95752380D01*
X122119047Y-95800000D01*
X121261904Y-96752380D02*
X121261904Y-96228571D01*
X121309523Y-96133333D01*
X121404761Y-96085714D01*
X121595238Y-96085714D01*
X121690476Y-96133333D01*
X121261904Y-96704761D02*
X121357142Y-96752380D01*
X121595238Y-96752380D01*
X121690476Y-96704761D01*
X121738095Y-96609523D01*
X121738095Y-96514285D01*
X121690476Y-96419047D01*
X121595238Y-96371428D01*
X121357142Y-96371428D01*
X121261904Y-96323809D01*
X120785714Y-96085714D02*
X120785714Y-96752380D01*
X120785714Y-96180952D02*
X120738095Y-96133333D01*
X120642857Y-96085714D01*
X120500000Y-96085714D01*
X120404761Y-96133333D01*
X120357142Y-96228571D01*
X120357142Y-96752380D01*
X119452380Y-96752380D02*
X119452380Y-95752380D01*
X119452380Y-96704761D02*
X119547619Y-96752380D01*
X119738095Y-96752380D01*
X119833333Y-96704761D01*
X119880952Y-96657142D01*
X119928571Y-96561904D01*
X119928571Y-96276190D01*
X119880952Y-96180952D01*
X119833333Y-96133333D01*
X119738095Y-96085714D01*
X119547619Y-96085714D01*
X119452380Y-96133333D01*
X118833333Y-96752380D02*
X118928571Y-96704761D01*
X118976190Y-96657142D01*
X119023809Y-96561904D01*
X119023809Y-96276190D01*
X118976190Y-96180952D01*
X118928571Y-96133333D01*
X118833333Y-96085714D01*
X118690476Y-96085714D01*
X118595238Y-96133333D01*
X118547619Y-96180952D01*
X118500000Y-96276190D01*
X118500000Y-96561904D01*
X118547619Y-96657142D01*
X118595238Y-96704761D01*
X118690476Y-96752380D01*
X118833333Y-96752380D01*
X118071428Y-96752380D02*
X118071428Y-96085714D01*
X118071428Y-96180952D02*
X118023809Y-96133333D01*
X117928571Y-96085714D01*
X117785714Y-96085714D01*
X117690476Y-96133333D01*
X117642857Y-96228571D01*
X117642857Y-96752380D01*
X117642857Y-96228571D02*
X117595238Y-96133333D01*
X117500000Y-96085714D01*
X117357142Y-96085714D01*
X117261904Y-96133333D01*
X117214285Y-96228571D01*
X117214285Y-96752380D01*
X175011904Y-95550000D02*
X175107142Y-95502380D01*
X175250000Y-95502380D01*
X175392857Y-95550000D01*
X175488095Y-95645238D01*
X175535714Y-95740476D01*
X175583333Y-95930952D01*
X175583333Y-96073809D01*
X175535714Y-96264285D01*
X175488095Y-96359523D01*
X175392857Y-96454761D01*
X175250000Y-96502380D01*
X175154761Y-96502380D01*
X175011904Y-96454761D01*
X174964285Y-96407142D01*
X174964285Y-96073809D01*
X175154761Y-96073809D01*
X174535714Y-96502380D02*
X174535714Y-95502380D01*
X173964285Y-96502380D01*
X173964285Y-95502380D01*
X173488095Y-96502380D02*
X173488095Y-95502380D01*
X173250000Y-95502380D01*
X173107142Y-95550000D01*
X173011904Y-95645238D01*
X172964285Y-95740476D01*
X172916666Y-95930952D01*
X172916666Y-96073809D01*
X172964285Y-96264285D01*
X173011904Y-96359523D01*
X173107142Y-96454761D01*
X173250000Y-96502380D01*
X173488095Y-96502380D01*
X175685714Y-93721428D02*
X174923809Y-93721428D01*
X175304761Y-94102380D02*
X175304761Y-93340476D01*
X173971428Y-93102380D02*
X174447619Y-93102380D01*
X174495238Y-93578571D01*
X174447619Y-93530952D01*
X174352380Y-93483333D01*
X174114285Y-93483333D01*
X174019047Y-93530952D01*
X173971428Y-93578571D01*
X173923809Y-93673809D01*
X173923809Y-93911904D01*
X173971428Y-94007142D01*
X174019047Y-94054761D01*
X174114285Y-94102380D01*
X174352380Y-94102380D01*
X174447619Y-94054761D01*
X174495238Y-94007142D01*
X173638095Y-93102380D02*
X173304761Y-94102380D01*
X172971428Y-93102380D01*
X169433333Y-66059523D02*
X170433333Y-66059523D01*
X169719047Y-65726190D01*
X170433333Y-65392857D01*
X169433333Y-65392857D01*
X169528571Y-64345238D02*
X169480952Y-64392857D01*
X169433333Y-64535714D01*
X169433333Y-64630952D01*
X169480952Y-64773809D01*
X169576190Y-64869047D01*
X169671428Y-64916666D01*
X169861904Y-64964285D01*
X170004761Y-64964285D01*
X170195237Y-64916666D01*
X170290475Y-64869047D01*
X170385714Y-64773809D01*
X170433333Y-64630952D01*
X170433333Y-64535714D01*
X170385714Y-64392857D01*
X170338094Y-64345238D01*
X169433333Y-63916666D02*
X170433333Y-63916666D01*
X170433333Y-63535714D01*
X170385714Y-63440476D01*
X170338094Y-63392857D01*
X170242856Y-63345238D01*
X170099999Y-63345238D01*
X170004761Y-63392857D01*
X169957142Y-63440476D01*
X169909523Y-63535714D01*
X169909523Y-63916666D01*
X170433333Y-62440476D02*
X170433333Y-62916666D01*
X169957142Y-62964285D01*
X170004761Y-62916666D01*
X170052380Y-62821428D01*
X170052380Y-62583333D01*
X170004761Y-62488095D01*
X169957142Y-62440476D01*
X169861904Y-62392857D01*
X169623809Y-62392857D01*
X169528571Y-62440476D01*
X169480952Y-62488095D01*
X169433333Y-62583333D01*
X169433333Y-62821428D01*
X169480952Y-62916666D01*
X169528571Y-62964285D01*
X166890476Y-66059523D02*
X167890476Y-66059523D01*
X167176190Y-65726190D01*
X167890476Y-65392857D01*
X166890476Y-65392857D01*
X166985714Y-64345238D02*
X166938095Y-64392857D01*
X166890476Y-64535714D01*
X166890476Y-64630952D01*
X166938095Y-64773809D01*
X167033333Y-64869047D01*
X167128571Y-64916666D01*
X167319047Y-64964285D01*
X167461904Y-64964285D01*
X167652380Y-64916666D01*
X167747618Y-64869047D01*
X167842857Y-64773809D01*
X167890476Y-64630952D01*
X167890476Y-64535714D01*
X167842857Y-64392857D01*
X167795237Y-64345238D01*
X166890476Y-63916666D02*
X167890476Y-63916666D01*
X167890476Y-63535714D01*
X167842857Y-63440476D01*
X167795237Y-63392857D01*
X167699999Y-63345238D01*
X167557142Y-63345238D01*
X167461904Y-63392857D01*
X167414285Y-63440476D01*
X167366666Y-63535714D01*
X167366666Y-63916666D01*
X167890476Y-62488095D02*
X167890476Y-62678571D01*
X167842857Y-62773809D01*
X167795237Y-62821428D01*
X167652380Y-62916666D01*
X167461904Y-62964285D01*
X167080952Y-62964285D01*
X166985714Y-62916666D01*
X166938095Y-62869047D01*
X166890476Y-62773809D01*
X166890476Y-62583333D01*
X166938095Y-62488095D01*
X166985714Y-62440476D01*
X167080952Y-62392857D01*
X167319047Y-62392857D01*
X167414285Y-62440476D01*
X167461904Y-62488095D01*
X167509523Y-62583333D01*
X167509523Y-62773809D01*
X167461904Y-62869047D01*
X167414285Y-62916666D01*
X167319047Y-62964285D01*
X164347619Y-66059523D02*
X165347619Y-66059523D01*
X164633333Y-65726190D01*
X165347619Y-65392857D01*
X164347619Y-65392857D01*
X164442857Y-64345238D02*
X164395238Y-64392857D01*
X164347619Y-64535714D01*
X164347619Y-64630952D01*
X164395238Y-64773809D01*
X164490476Y-64869047D01*
X164585714Y-64916666D01*
X164776190Y-64964285D01*
X164919047Y-64964285D01*
X165109523Y-64916666D01*
X165204761Y-64869047D01*
X165300000Y-64773809D01*
X165347619Y-64630952D01*
X165347619Y-64535714D01*
X165300000Y-64392857D01*
X165252380Y-64345238D01*
X164347619Y-63916666D02*
X165347619Y-63916666D01*
X165347619Y-63535714D01*
X165300000Y-63440476D01*
X165252380Y-63392857D01*
X165157142Y-63345238D01*
X165014285Y-63345238D01*
X164919047Y-63392857D01*
X164871428Y-63440476D01*
X164823809Y-63535714D01*
X164823809Y-63916666D01*
X165347619Y-63011904D02*
X165347619Y-62345238D01*
X164347619Y-62773809D01*
X179604761Y-66059523D02*
X180604761Y-66059523D01*
X179890475Y-65726190D01*
X180604761Y-65392857D01*
X179604761Y-65392857D01*
X179699999Y-64345238D02*
X179652380Y-64392857D01*
X179604761Y-64535714D01*
X179604761Y-64630952D01*
X179652380Y-64773809D01*
X179747618Y-64869047D01*
X179842856Y-64916666D01*
X180033332Y-64964285D01*
X180176189Y-64964285D01*
X180366665Y-64916666D01*
X180461903Y-64869047D01*
X180557142Y-64773809D01*
X180604761Y-64630952D01*
X180604761Y-64535714D01*
X180557142Y-64392857D01*
X180509522Y-64345238D01*
X179604761Y-63916666D02*
X180604761Y-63916666D01*
X180604761Y-63535714D01*
X180557142Y-63440476D01*
X180509522Y-63392857D01*
X180414284Y-63345238D01*
X180271427Y-63345238D01*
X180176189Y-63392857D01*
X180128570Y-63440476D01*
X180080951Y-63535714D01*
X180080951Y-63916666D01*
X179604761Y-62392857D02*
X179604761Y-62964285D01*
X179604761Y-62678571D02*
X180604761Y-62678571D01*
X180461903Y-62773809D01*
X180366665Y-62869047D01*
X180319046Y-62964285D01*
X171976190Y-66059523D02*
X172976190Y-66059523D01*
X172261904Y-65726190D01*
X172976190Y-65392857D01*
X171976190Y-65392857D01*
X172071428Y-64345238D02*
X172023809Y-64392857D01*
X171976190Y-64535714D01*
X171976190Y-64630952D01*
X172023809Y-64773809D01*
X172119047Y-64869047D01*
X172214285Y-64916666D01*
X172404761Y-64964285D01*
X172547618Y-64964285D01*
X172738094Y-64916666D01*
X172833332Y-64869047D01*
X172928571Y-64773809D01*
X172976190Y-64630952D01*
X172976190Y-64535714D01*
X172928571Y-64392857D01*
X172880951Y-64345238D01*
X171976190Y-63916666D02*
X172976190Y-63916666D01*
X172976190Y-63535714D01*
X172928571Y-63440476D01*
X172880951Y-63392857D01*
X172785713Y-63345238D01*
X172642856Y-63345238D01*
X172547618Y-63392857D01*
X172499999Y-63440476D01*
X172452380Y-63535714D01*
X172452380Y-63916666D01*
X172642856Y-62488095D02*
X171976190Y-62488095D01*
X173023809Y-62726190D02*
X172309523Y-62964285D01*
X172309523Y-62345238D01*
X177061904Y-66059523D02*
X178061904Y-66059523D01*
X177347618Y-65726190D01*
X178061904Y-65392857D01*
X177061904Y-65392857D01*
X177157142Y-64345238D02*
X177109523Y-64392857D01*
X177061904Y-64535714D01*
X177061904Y-64630952D01*
X177109523Y-64773809D01*
X177204761Y-64869047D01*
X177299999Y-64916666D01*
X177490475Y-64964285D01*
X177633332Y-64964285D01*
X177823808Y-64916666D01*
X177919046Y-64869047D01*
X178014285Y-64773809D01*
X178061904Y-64630952D01*
X178061904Y-64535714D01*
X178014285Y-64392857D01*
X177966665Y-64345238D01*
X177061904Y-63916666D02*
X178061904Y-63916666D01*
X178061904Y-63535714D01*
X178014285Y-63440476D01*
X177966665Y-63392857D01*
X177871427Y-63345238D01*
X177728570Y-63345238D01*
X177633332Y-63392857D01*
X177585713Y-63440476D01*
X177538094Y-63535714D01*
X177538094Y-63916666D01*
X177966665Y-62964285D02*
X178014285Y-62916666D01*
X178061904Y-62821428D01*
X178061904Y-62583333D01*
X178014285Y-62488095D01*
X177966665Y-62440476D01*
X177871427Y-62392857D01*
X177776189Y-62392857D01*
X177633332Y-62440476D01*
X177061904Y-63011904D01*
X177061904Y-62392857D01*
X174519047Y-66059523D02*
X175519047Y-66059523D01*
X174804761Y-65726190D01*
X175519047Y-65392857D01*
X174519047Y-65392857D01*
X174614285Y-64345238D02*
X174566666Y-64392857D01*
X174519047Y-64535714D01*
X174519047Y-64630952D01*
X174566666Y-64773809D01*
X174661904Y-64869047D01*
X174757142Y-64916666D01*
X174947618Y-64964285D01*
X175090475Y-64964285D01*
X175280951Y-64916666D01*
X175376189Y-64869047D01*
X175471428Y-64773809D01*
X175519047Y-64630952D01*
X175519047Y-64535714D01*
X175471428Y-64392857D01*
X175423808Y-64345238D01*
X174519047Y-63916666D02*
X175519047Y-63916666D01*
X175519047Y-63535714D01*
X175471428Y-63440476D01*
X175423808Y-63392857D01*
X175328570Y-63345238D01*
X175185713Y-63345238D01*
X175090475Y-63392857D01*
X175042856Y-63440476D01*
X174995237Y-63535714D01*
X174995237Y-63916666D01*
X175519047Y-63011904D02*
X175519047Y-62392857D01*
X175138094Y-62726190D01*
X175138094Y-62583333D01*
X175090475Y-62488095D01*
X175042856Y-62440476D01*
X174947618Y-62392857D01*
X174709523Y-62392857D01*
X174614285Y-62440476D01*
X174566666Y-62488095D01*
X174519047Y-62583333D01*
X174519047Y-62869047D01*
X174566666Y-62964285D01*
X174614285Y-63011904D01*
X182147619Y-66059523D02*
X183147619Y-66059523D01*
X182433333Y-65726190D01*
X183147619Y-65392857D01*
X182147619Y-65392857D01*
X182242857Y-64345238D02*
X182195238Y-64392857D01*
X182147619Y-64535714D01*
X182147619Y-64630952D01*
X182195238Y-64773809D01*
X182290476Y-64869047D01*
X182385714Y-64916666D01*
X182576190Y-64964285D01*
X182719047Y-64964285D01*
X182909523Y-64916666D01*
X183004761Y-64869047D01*
X183100000Y-64773809D01*
X183147619Y-64630952D01*
X183147619Y-64535714D01*
X183100000Y-64392857D01*
X183052380Y-64345238D01*
X182147619Y-63916666D02*
X183147619Y-63916666D01*
X183147619Y-63535714D01*
X183100000Y-63440476D01*
X183052380Y-63392857D01*
X182957142Y-63345238D01*
X182814285Y-63345238D01*
X182719047Y-63392857D01*
X182671428Y-63440476D01*
X182623809Y-63535714D01*
X182623809Y-63916666D01*
X183147619Y-62726190D02*
X183147619Y-62630952D01*
X183100000Y-62535714D01*
X183052380Y-62488095D01*
X182957142Y-62440476D01*
X182766666Y-62392857D01*
X182528571Y-62392857D01*
X182338095Y-62440476D01*
X182242857Y-62488095D01*
X182195238Y-62535714D01*
X182147619Y-62630952D01*
X182147619Y-62726190D01*
X182195238Y-62821428D01*
X182242857Y-62869047D01*
X182338095Y-62916666D01*
X182528571Y-62964285D01*
X182766666Y-62964285D01*
X182957142Y-62916666D01*
X183052380Y-62869047D01*
X183100000Y-62821428D01*
X183147619Y-62726190D01*
X160307738Y-64864285D02*
X160260119Y-64721428D01*
X160260119Y-64483333D01*
X160307738Y-64388095D01*
X160355357Y-64340476D01*
X160450595Y-64292857D01*
X160545833Y-64292857D01*
X160641071Y-64340476D01*
X160688690Y-64388095D01*
X160736309Y-64483333D01*
X160783928Y-64673809D01*
X160831547Y-64769047D01*
X160879166Y-64816666D01*
X160974404Y-64864285D01*
X161069642Y-64864285D01*
X161164880Y-64816666D01*
X161212500Y-64769047D01*
X161260119Y-64673809D01*
X161260119Y-64435714D01*
X161212500Y-64292857D01*
X160260119Y-63864285D02*
X161260119Y-63864285D01*
X161260119Y-63626190D01*
X161212500Y-63483333D01*
X161117261Y-63388095D01*
X161022023Y-63340476D01*
X160831547Y-63292857D01*
X160688690Y-63292857D01*
X160498214Y-63340476D01*
X160402976Y-63388095D01*
X160307738Y-63483333D01*
X160260119Y-63626190D01*
X160260119Y-63864285D01*
X160545833Y-62911904D02*
X160545833Y-62435714D01*
X160260119Y-63007142D02*
X161260119Y-62673809D01*
X160260119Y-62340476D01*
X153600000Y-64530951D02*
X153647619Y-64626189D01*
X153647619Y-64769047D01*
X153600000Y-64911904D01*
X153504761Y-65007142D01*
X153409523Y-65054761D01*
X153219047Y-65102380D01*
X153076190Y-65102380D01*
X152885714Y-65054761D01*
X152790476Y-65007142D01*
X152695238Y-64911904D01*
X152647619Y-64769047D01*
X152647619Y-64673808D01*
X152695238Y-64530951D01*
X152742857Y-64483332D01*
X153076190Y-64483332D01*
X153076190Y-64673808D01*
X152647619Y-64054761D02*
X153647619Y-64054761D01*
X152647619Y-63483332D01*
X153647619Y-63483332D01*
X152647619Y-63007142D02*
X153647619Y-63007142D01*
X153647619Y-62769047D01*
X153600000Y-62626189D01*
X153504761Y-62530951D01*
X153409523Y-62483332D01*
X153219047Y-62435713D01*
X153076190Y-62435713D01*
X152885714Y-62483332D01*
X152790476Y-62530951D01*
X152695238Y-62626189D01*
X152647619Y-62769047D01*
X152647619Y-63007142D01*
X157770238Y-64816666D02*
X157722619Y-64673809D01*
X157722619Y-64435713D01*
X157770238Y-64340475D01*
X157817857Y-64292856D01*
X157913095Y-64245237D01*
X158008333Y-64245237D01*
X158103571Y-64292856D01*
X158151190Y-64340475D01*
X158198809Y-64435713D01*
X158246428Y-64626190D01*
X158294047Y-64721428D01*
X158341666Y-64769047D01*
X158436904Y-64816666D01*
X158532142Y-64816666D01*
X158627380Y-64769047D01*
X158675000Y-64721428D01*
X158722619Y-64626190D01*
X158722619Y-64388094D01*
X158675000Y-64245237D01*
X157817857Y-63245237D02*
X157770238Y-63292856D01*
X157722619Y-63435713D01*
X157722619Y-63530951D01*
X157770238Y-63673809D01*
X157865476Y-63769047D01*
X157960714Y-63816666D01*
X158151190Y-63864285D01*
X158294047Y-63864285D01*
X158484523Y-63816666D01*
X158579761Y-63769047D01*
X158675000Y-63673809D01*
X158722619Y-63530951D01*
X158722619Y-63435713D01*
X158675000Y-63292856D01*
X158627380Y-63245237D01*
X157722619Y-62340475D02*
X157722619Y-62816666D01*
X158722619Y-62816666D01*
X155566071Y-65054761D02*
X155566071Y-64292856D01*
X155185119Y-64673808D02*
X155947023Y-64673808D01*
X156185119Y-63340475D02*
X156185119Y-63816666D01*
X155708928Y-63864285D01*
X155756547Y-63816666D01*
X155804166Y-63721427D01*
X155804166Y-63483332D01*
X155756547Y-63388094D01*
X155708928Y-63340475D01*
X155613690Y-63292856D01*
X155375595Y-63292856D01*
X155280357Y-63340475D01*
X155232738Y-63388094D01*
X155185119Y-63483332D01*
X155185119Y-63721427D01*
X155232738Y-63816666D01*
X155280357Y-63864285D01*
X156185119Y-63007142D02*
X155185119Y-62673808D01*
X156185119Y-62340475D01*
X146660119Y-64814285D02*
X147660119Y-64814285D01*
X147660119Y-64576190D01*
X147612500Y-64433333D01*
X147517261Y-64338095D01*
X147422023Y-64290476D01*
X147231547Y-64242857D01*
X147088690Y-64242857D01*
X146898214Y-64290476D01*
X146802976Y-64338095D01*
X146707738Y-64433333D01*
X146660119Y-64576190D01*
X146660119Y-64814285D01*
X146660119Y-63290476D02*
X146660119Y-63861904D01*
X146660119Y-63576190D02*
X147660119Y-63576190D01*
X147517261Y-63671428D01*
X147422023Y-63766666D01*
X147374404Y-63861904D01*
X146660119Y-62338095D02*
X146660119Y-62909523D01*
X146660119Y-62623809D02*
X147660119Y-62623809D01*
X147517261Y-62719047D01*
X147422023Y-62814285D01*
X147374404Y-62909523D01*
X140000000Y-64433332D02*
X140047619Y-64528570D01*
X140047619Y-64671428D01*
X140000000Y-64814285D01*
X139904761Y-64909523D01*
X139809523Y-64957142D01*
X139619047Y-65004761D01*
X139476190Y-65004761D01*
X139285714Y-64957142D01*
X139190476Y-64909523D01*
X139095238Y-64814285D01*
X139047619Y-64671428D01*
X139047619Y-64576189D01*
X139095238Y-64433332D01*
X139142857Y-64385713D01*
X139476190Y-64385713D01*
X139476190Y-64576189D01*
X139047619Y-63957142D02*
X140047619Y-63957142D01*
X139047619Y-63385713D01*
X140047619Y-63385713D01*
X139047619Y-62909523D02*
X140047619Y-62909523D01*
X140047619Y-62671428D01*
X140000000Y-62528570D01*
X139904761Y-62433332D01*
X139809523Y-62385713D01*
X139619047Y-62338094D01*
X139476190Y-62338094D01*
X139285714Y-62385713D01*
X139190476Y-62433332D01*
X139095238Y-62528570D01*
X139047619Y-62671428D01*
X139047619Y-62909523D01*
X144122619Y-64814285D02*
X145122619Y-64814285D01*
X145122619Y-64576190D01*
X145075000Y-64433333D01*
X144979761Y-64338095D01*
X144884523Y-64290476D01*
X144694047Y-64242857D01*
X144551190Y-64242857D01*
X144360714Y-64290476D01*
X144265476Y-64338095D01*
X144170238Y-64433333D01*
X144122619Y-64576190D01*
X144122619Y-64814285D01*
X144122619Y-63290476D02*
X144122619Y-63861904D01*
X144122619Y-63576190D02*
X145122619Y-63576190D01*
X144979761Y-63671428D01*
X144884523Y-63766666D01*
X144836904Y-63861904D01*
X145027380Y-62909523D02*
X145075000Y-62861904D01*
X145122619Y-62766666D01*
X145122619Y-62528571D01*
X145075000Y-62433333D01*
X145027380Y-62385714D01*
X144932142Y-62338095D01*
X144836904Y-62338095D01*
X144694047Y-62385714D01*
X144122619Y-62957142D01*
X144122619Y-62338095D01*
X141585119Y-64814285D02*
X142585119Y-64814285D01*
X142585119Y-64576190D01*
X142537500Y-64433333D01*
X142442261Y-64338095D01*
X142347023Y-64290476D01*
X142156547Y-64242857D01*
X142013690Y-64242857D01*
X141823214Y-64290476D01*
X141727976Y-64338095D01*
X141632738Y-64433333D01*
X141585119Y-64576190D01*
X141585119Y-64814285D01*
X141585119Y-63290476D02*
X141585119Y-63861904D01*
X141585119Y-63576190D02*
X142585119Y-63576190D01*
X142442261Y-63671428D01*
X142347023Y-63766666D01*
X142299404Y-63861904D01*
X142585119Y-62957142D02*
X142585119Y-62338095D01*
X142204166Y-62671428D01*
X142204166Y-62528571D01*
X142156547Y-62433333D01*
X142108928Y-62385714D01*
X142013690Y-62338095D01*
X141775595Y-62338095D01*
X141680357Y-62385714D01*
X141632738Y-62433333D01*
X141585119Y-62528571D01*
X141585119Y-62814285D01*
X141632738Y-62909523D01*
X141680357Y-62957142D01*
X149197619Y-64814285D02*
X150197619Y-64814285D01*
X150197619Y-64576190D01*
X150150000Y-64433333D01*
X150054761Y-64338095D01*
X149959523Y-64290476D01*
X149769047Y-64242857D01*
X149626190Y-64242857D01*
X149435714Y-64290476D01*
X149340476Y-64338095D01*
X149245238Y-64433333D01*
X149197619Y-64576190D01*
X149197619Y-64814285D01*
X149197619Y-63290476D02*
X149197619Y-63861904D01*
X149197619Y-63576190D02*
X150197619Y-63576190D01*
X150054761Y-63671428D01*
X149959523Y-63766666D01*
X149911904Y-63861904D01*
X150197619Y-62671428D02*
X150197619Y-62576190D01*
X150150000Y-62480952D01*
X150102380Y-62433333D01*
X150007142Y-62385714D01*
X149816666Y-62338095D01*
X149578571Y-62338095D01*
X149388095Y-62385714D01*
X149292857Y-62433333D01*
X149245238Y-62480952D01*
X149197619Y-62576190D01*
X149197619Y-62671428D01*
X149245238Y-62766666D01*
X149292857Y-62814285D01*
X149388095Y-62861904D01*
X149578571Y-62909523D01*
X149816666Y-62909523D01*
X150007142Y-62861904D01*
X150102380Y-62814285D01*
X150150000Y-62766666D01*
X150197619Y-62671428D01*
X119500000Y-64480951D02*
X119547619Y-64576189D01*
X119547619Y-64719047D01*
X119500000Y-64861904D01*
X119404761Y-64957142D01*
X119309523Y-65004761D01*
X119119047Y-65052380D01*
X118976190Y-65052380D01*
X118785714Y-65004761D01*
X118690476Y-64957142D01*
X118595238Y-64861904D01*
X118547619Y-64719047D01*
X118547619Y-64623808D01*
X118595238Y-64480951D01*
X118642857Y-64433332D01*
X118976190Y-64433332D01*
X118976190Y-64623808D01*
X118547619Y-64004761D02*
X119547619Y-64004761D01*
X118547619Y-63433332D01*
X119547619Y-63433332D01*
X118547619Y-62957142D02*
X119547619Y-62957142D01*
X119547619Y-62719047D01*
X119500000Y-62576189D01*
X119404761Y-62480951D01*
X119309523Y-62433332D01*
X119119047Y-62385713D01*
X118976190Y-62385713D01*
X118785714Y-62433332D01*
X118690476Y-62480951D01*
X118595238Y-62576189D01*
X118547619Y-62719047D01*
X118547619Y-62957142D01*
X121370833Y-63814285D02*
X121370833Y-63338095D01*
X121085119Y-63909523D02*
X122085119Y-63576190D01*
X121085119Y-63242857D01*
X122085119Y-63004761D02*
X122085119Y-62385714D01*
X121704166Y-62719047D01*
X121704166Y-62576190D01*
X121656547Y-62480952D01*
X121608928Y-62433333D01*
X121513690Y-62385714D01*
X121275595Y-62385714D01*
X121180357Y-62433333D01*
X121132738Y-62480952D01*
X121085119Y-62576190D01*
X121085119Y-62861904D01*
X121132738Y-62957142D01*
X121180357Y-63004761D01*
X123908333Y-63814285D02*
X123908333Y-63338095D01*
X123622619Y-63909523D02*
X124622619Y-63576190D01*
X123622619Y-63242857D01*
X124527380Y-62957142D02*
X124575000Y-62909523D01*
X124622619Y-62814285D01*
X124622619Y-62576190D01*
X124575000Y-62480952D01*
X124527380Y-62433333D01*
X124432142Y-62385714D01*
X124336904Y-62385714D01*
X124194047Y-62433333D01*
X123622619Y-63004761D01*
X123622619Y-62385714D01*
X126445833Y-63814285D02*
X126445833Y-63338095D01*
X126160119Y-63909523D02*
X127160119Y-63576190D01*
X126160119Y-63242857D01*
X126160119Y-62385714D02*
X126160119Y-62957142D01*
X126160119Y-62671428D02*
X127160119Y-62671428D01*
X127017261Y-62766666D01*
X126922023Y-62861904D01*
X126874404Y-62957142D01*
X128983333Y-63814285D02*
X128983333Y-63338095D01*
X128697619Y-63909523D02*
X129697619Y-63576190D01*
X128697619Y-63242857D01*
X129697619Y-62719047D02*
X129697619Y-62623809D01*
X129650000Y-62528571D01*
X129602380Y-62480952D01*
X129507142Y-62433333D01*
X129316666Y-62385714D01*
X129078571Y-62385714D01*
X128888095Y-62433333D01*
X128792857Y-62480952D01*
X128745238Y-62528571D01*
X128697619Y-62623809D01*
X128697619Y-62719047D01*
X128745238Y-62814285D01*
X128792857Y-62861904D01*
X128888095Y-62909523D01*
X129078571Y-62957142D01*
X129316666Y-62957142D01*
X129507142Y-62909523D01*
X129602380Y-62861904D01*
X129650000Y-62814285D01*
X129697619Y-62719047D01*
X150870000Y-56900000D02*
X138170000Y-56900000D01*
X150870000Y-56300000D02*
X138170000Y-56300000D01*
X138170000Y-56300000D02*
X138170000Y-62100000D01*
X138170000Y-62100000D02*
X150870000Y-62100000D01*
X150870000Y-62100000D02*
X150870000Y-56300000D01*
X176950000Y-92300000D02*
X176950000Y-97300000D01*
X176350000Y-92260000D02*
X176350000Y-97340000D01*
X176350000Y-97340000D02*
X182150000Y-97340000D01*
X182150000Y-97340000D02*
X182150000Y-92260000D01*
X182150000Y-92260000D02*
X176350000Y-92260000D01*
X183700000Y-56928000D02*
X163253000Y-56928000D01*
X183700000Y-56328000D02*
X163253000Y-56328000D01*
X163253000Y-56328000D02*
X163253000Y-62128000D01*
X163253000Y-62128000D02*
X183700000Y-62128000D01*
X183700000Y-62128000D02*
X183700000Y-56328000D01*
X162110000Y-56928000D02*
X151950000Y-56928000D01*
X162110000Y-56328000D02*
X151950000Y-56328000D01*
X151950000Y-56328000D02*
X151950000Y-62128000D01*
X151950000Y-62128000D02*
X162110000Y-62128000D01*
X162110000Y-62128000D02*
X162110000Y-56328000D01*
X130448000Y-56928000D02*
X117748000Y-56928000D01*
X130448000Y-56328000D02*
X117748000Y-56328000D01*
X117748000Y-56328000D02*
X117748000Y-62128000D01*
X117748000Y-62128000D02*
X130448000Y-62128000D01*
X130448000Y-62128000D02*
X130448000Y-56328000D01*
D11*
X143072800Y-86861600D02*
X143072800Y-84016800D01*
X143072800Y-79038400D02*
X143072800Y-81883200D01*
X145816000Y-86861600D02*
X143072800Y-86861600D01*
X145816000Y-79038400D02*
X143072800Y-79038400D01*
X167609200Y-82950000D02*
G75*
G03*
X167609200Y-82950000I-11226800J0D01*
G01*
D10*
X157964285Y-95328571D02*
X157821428Y-95376190D01*
X157773809Y-95423809D01*
X157726190Y-95519047D01*
X157726190Y-95661904D01*
X157773809Y-95757142D01*
X157821428Y-95804761D01*
X157916666Y-95852380D01*
X158297619Y-95852380D01*
X158297619Y-94852380D01*
X157964285Y-94852380D01*
X157869047Y-94900000D01*
X157821428Y-94947619D01*
X157773809Y-95042857D01*
X157773809Y-95138095D01*
X157821428Y-95233333D01*
X157869047Y-95280952D01*
X157964285Y-95328571D01*
X158297619Y-95328571D01*
X157345238Y-95566666D02*
X156869047Y-95566666D01*
X157440476Y-95852380D02*
X157107142Y-94852380D01*
X156773809Y-95852380D01*
X156583333Y-94852380D02*
X156011904Y-94852380D01*
X156297619Y-95852380D02*
X156297619Y-94852380D01*
X155154761Y-95852380D02*
X155726190Y-95852380D01*
X155440476Y-95852380D02*
X155440476Y-94852380D01*
X155535714Y-94995238D01*
X155630952Y-95090476D01*
X155726190Y-95138095D01*
M02*
