G04 #@! TF.GenerationSoftware,KiCad,Pcbnew,(5.1.7)-1*
G04 #@! TF.CreationDate,2020-11-03T16:32:40+01:00*
G04 #@! TF.ProjectId,Timer,54696d65-722e-46b6-9963-61645f706362,rev?*
G04 #@! TF.SameCoordinates,Original*
G04 #@! TF.FileFunction,Legend,Bot*
G04 #@! TF.FilePolarity,Positive*
%FSLAX46Y46*%
G04 Gerber Fmt 4.6, Leading zero omitted, Abs format (unit mm)*
G04 Created by KiCad (PCBNEW (5.1.7)-1) date 2020-11-03 16:32:40*
%MOMM*%
%LPD*%
G01*
G04 APERTURE LIST*
%ADD10C,0.150000*%
%ADD11C,0.100000*%
G04 APERTURE END LIST*
D10*
X179527719Y-63982495D02*
X180527719Y-63982495D01*
X180527719Y-63744400D01*
X180480100Y-63601542D01*
X180384861Y-63506304D01*
X180289623Y-63458685D01*
X180099147Y-63411066D01*
X179956290Y-63411066D01*
X179765814Y-63458685D01*
X179670576Y-63506304D01*
X179575338Y-63601542D01*
X179527719Y-63744400D01*
X179527719Y-63982495D01*
X180527719Y-62553923D02*
X180527719Y-62744400D01*
X180480100Y-62839638D01*
X180432480Y-62887257D01*
X180289623Y-62982495D01*
X180099147Y-63030114D01*
X179718195Y-63030114D01*
X179622957Y-62982495D01*
X179575338Y-62934876D01*
X179527719Y-62839638D01*
X179527719Y-62649161D01*
X179575338Y-62553923D01*
X179622957Y-62506304D01*
X179718195Y-62458685D01*
X179956290Y-62458685D01*
X180051528Y-62506304D01*
X180099147Y-62553923D01*
X180146766Y-62649161D01*
X180146766Y-62839638D01*
X180099147Y-62934876D01*
X180051528Y-62982495D01*
X179956290Y-63030114D01*
X176990219Y-63982495D02*
X177990219Y-63982495D01*
X177990219Y-63744400D01*
X177942600Y-63601542D01*
X177847361Y-63506304D01*
X177752123Y-63458685D01*
X177561647Y-63411066D01*
X177418790Y-63411066D01*
X177228314Y-63458685D01*
X177133076Y-63506304D01*
X177037838Y-63601542D01*
X176990219Y-63744400D01*
X176990219Y-63982495D01*
X176990219Y-62934876D02*
X176990219Y-62744400D01*
X177037838Y-62649161D01*
X177085457Y-62601542D01*
X177228314Y-62506304D01*
X177418790Y-62458685D01*
X177799742Y-62458685D01*
X177894980Y-62506304D01*
X177942600Y-62553923D01*
X177990219Y-62649161D01*
X177990219Y-62839638D01*
X177942600Y-62934876D01*
X177894980Y-62982495D01*
X177799742Y-63030114D01*
X177561647Y-63030114D01*
X177466409Y-62982495D01*
X177418790Y-62934876D01*
X177371171Y-62839638D01*
X177371171Y-62649161D01*
X177418790Y-62553923D01*
X177466409Y-62506304D01*
X177561647Y-62458685D01*
X182065219Y-63982495D02*
X183065219Y-63982495D01*
X183065219Y-63744400D01*
X183017600Y-63601542D01*
X182922361Y-63506304D01*
X182827123Y-63458685D01*
X182636647Y-63411066D01*
X182493790Y-63411066D01*
X182303314Y-63458685D01*
X182208076Y-63506304D01*
X182112838Y-63601542D01*
X182065219Y-63744400D01*
X182065219Y-63982495D01*
X183065219Y-62506304D02*
X183065219Y-62982495D01*
X182589028Y-63030114D01*
X182636647Y-62982495D01*
X182684266Y-62887257D01*
X182684266Y-62649161D01*
X182636647Y-62553923D01*
X182589028Y-62506304D01*
X182493790Y-62458685D01*
X182255695Y-62458685D01*
X182160457Y-62506304D01*
X182112838Y-62553923D01*
X182065219Y-62649161D01*
X182065219Y-62887257D01*
X182112838Y-62982495D01*
X182160457Y-63030114D01*
X131993733Y-92541200D02*
X132088971Y-92493580D01*
X132231828Y-92493580D01*
X132374685Y-92541200D01*
X132469923Y-92636438D01*
X132517542Y-92731676D01*
X132565161Y-92922152D01*
X132565161Y-93065009D01*
X132517542Y-93255485D01*
X132469923Y-93350723D01*
X132374685Y-93445961D01*
X132231828Y-93493580D01*
X132136590Y-93493580D01*
X131993733Y-93445961D01*
X131946114Y-93398342D01*
X131946114Y-93065009D01*
X132136590Y-93065009D01*
X131136590Y-93445961D02*
X131231828Y-93493580D01*
X131422304Y-93493580D01*
X131517542Y-93445961D01*
X131565161Y-93350723D01*
X131565161Y-92969771D01*
X131517542Y-92874533D01*
X131422304Y-92826914D01*
X131231828Y-92826914D01*
X131136590Y-92874533D01*
X131088971Y-92969771D01*
X131088971Y-93065009D01*
X131565161Y-93160247D01*
X130660400Y-92826914D02*
X130660400Y-93493580D01*
X130660400Y-92922152D02*
X130612780Y-92874533D01*
X130517542Y-92826914D01*
X130374685Y-92826914D01*
X130279447Y-92874533D01*
X130231828Y-92969771D01*
X130231828Y-93493580D01*
X129374685Y-93445961D02*
X129469923Y-93493580D01*
X129660400Y-93493580D01*
X129755638Y-93445961D01*
X129803257Y-93350723D01*
X129803257Y-92969771D01*
X129755638Y-92874533D01*
X129660400Y-92826914D01*
X129469923Y-92826914D01*
X129374685Y-92874533D01*
X129327066Y-92969771D01*
X129327066Y-93065009D01*
X129803257Y-93160247D01*
X128898495Y-93493580D02*
X128898495Y-92826914D01*
X128898495Y-93017390D02*
X128850876Y-92922152D01*
X128803257Y-92874533D01*
X128708019Y-92826914D01*
X128612780Y-92826914D01*
X128279447Y-93493580D02*
X128279447Y-92826914D01*
X128279447Y-92493580D02*
X128327066Y-92541200D01*
X128279447Y-92588819D01*
X128231828Y-92541200D01*
X128279447Y-92493580D01*
X128279447Y-92588819D01*
X127374685Y-93445961D02*
X127469923Y-93493580D01*
X127660400Y-93493580D01*
X127755638Y-93445961D01*
X127803257Y-93398342D01*
X127850876Y-93303104D01*
X127850876Y-93017390D01*
X127803257Y-92922152D01*
X127755638Y-92874533D01*
X127660400Y-92826914D01*
X127469923Y-92826914D01*
X127374685Y-92874533D01*
X126327066Y-92826914D02*
X125946114Y-92826914D01*
X126184209Y-92493580D02*
X126184209Y-93350723D01*
X126136590Y-93445961D01*
X126041352Y-93493580D01*
X125946114Y-93493580D01*
X125612780Y-93493580D02*
X125612780Y-92826914D01*
X125612780Y-92493580D02*
X125660400Y-92541200D01*
X125612780Y-92588819D01*
X125565161Y-92541200D01*
X125612780Y-92493580D01*
X125612780Y-92588819D01*
X125136590Y-93493580D02*
X125136590Y-92826914D01*
X125136590Y-92922152D02*
X125088971Y-92874533D01*
X124993733Y-92826914D01*
X124850876Y-92826914D01*
X124755638Y-92874533D01*
X124708019Y-92969771D01*
X124708019Y-93493580D01*
X124708019Y-92969771D02*
X124660400Y-92874533D01*
X124565161Y-92826914D01*
X124422304Y-92826914D01*
X124327066Y-92874533D01*
X124279447Y-92969771D01*
X124279447Y-93493580D01*
X123422304Y-93445961D02*
X123517542Y-93493580D01*
X123708019Y-93493580D01*
X123803257Y-93445961D01*
X123850876Y-93350723D01*
X123850876Y-92969771D01*
X123803257Y-92874533D01*
X123708019Y-92826914D01*
X123517542Y-92826914D01*
X123422304Y-92874533D01*
X123374685Y-92969771D01*
X123374685Y-93065009D01*
X123850876Y-93160247D01*
X122946114Y-93493580D02*
X122946114Y-92826914D01*
X122946114Y-93017390D02*
X122898495Y-92922152D01*
X122850876Y-92874533D01*
X122755638Y-92826914D01*
X122660400Y-92826914D01*
X132041352Y-94238819D02*
X131993733Y-94191200D01*
X131898495Y-94143580D01*
X131660400Y-94143580D01*
X131565161Y-94191200D01*
X131517542Y-94238819D01*
X131469923Y-94334057D01*
X131469923Y-94429295D01*
X131517542Y-94572152D01*
X132088971Y-95143580D01*
X131469923Y-95143580D01*
X130850876Y-94143580D02*
X130755638Y-94143580D01*
X130660400Y-94191200D01*
X130612780Y-94238819D01*
X130565161Y-94334057D01*
X130517542Y-94524533D01*
X130517542Y-94762628D01*
X130565161Y-94953104D01*
X130612780Y-95048342D01*
X130660400Y-95095961D01*
X130755638Y-95143580D01*
X130850876Y-95143580D01*
X130946114Y-95095961D01*
X130993733Y-95048342D01*
X131041352Y-94953104D01*
X131088971Y-94762628D01*
X131088971Y-94524533D01*
X131041352Y-94334057D01*
X130993733Y-94238819D01*
X130946114Y-94191200D01*
X130850876Y-94143580D01*
X130327066Y-95238819D02*
X129565161Y-95238819D01*
X128898495Y-94476914D02*
X128898495Y-95143580D01*
X129136590Y-94095961D02*
X129374685Y-94810247D01*
X128755638Y-94810247D01*
X127898495Y-94143580D02*
X128374685Y-94143580D01*
X128422304Y-94619771D01*
X128374685Y-94572152D01*
X128279447Y-94524533D01*
X128041352Y-94524533D01*
X127946114Y-94572152D01*
X127898495Y-94619771D01*
X127850876Y-94715009D01*
X127850876Y-94953104D01*
X127898495Y-95048342D01*
X127946114Y-95095961D01*
X128041352Y-95143580D01*
X128279447Y-95143580D01*
X128374685Y-95095961D01*
X128422304Y-95048342D01*
X127660400Y-95238819D02*
X126898495Y-95238819D01*
X126469923Y-94143580D02*
X126374685Y-94143580D01*
X126279447Y-94191200D01*
X126231828Y-94238819D01*
X126184209Y-94334057D01*
X126136590Y-94524533D01*
X126136590Y-94762628D01*
X126184209Y-94953104D01*
X126231828Y-95048342D01*
X126279447Y-95095961D01*
X126374685Y-95143580D01*
X126469923Y-95143580D01*
X126565161Y-95095961D01*
X126612780Y-95048342D01*
X126660400Y-94953104D01*
X126708019Y-94762628D01*
X126708019Y-94524533D01*
X126660400Y-94334057D01*
X126612780Y-94238819D01*
X126565161Y-94191200D01*
X126469923Y-94143580D01*
X125517542Y-94143580D02*
X125422304Y-94143580D01*
X125327066Y-94191200D01*
X125279447Y-94238819D01*
X125231828Y-94334057D01*
X125184209Y-94524533D01*
X125184209Y-94762628D01*
X125231828Y-94953104D01*
X125279447Y-95048342D01*
X125327066Y-95095961D01*
X125422304Y-95143580D01*
X125517542Y-95143580D01*
X125612780Y-95095961D01*
X125660400Y-95048342D01*
X125708019Y-94953104D01*
X125755638Y-94762628D01*
X125755638Y-94524533D01*
X125708019Y-94334057D01*
X125660400Y-94238819D01*
X125612780Y-94191200D01*
X125517542Y-94143580D01*
X124327066Y-94476914D02*
X124327066Y-95143580D01*
X124565161Y-94095961D02*
X124803257Y-94810247D01*
X124184209Y-94810247D01*
X123898495Y-94143580D02*
X123279447Y-94143580D01*
X123612780Y-94524533D01*
X123469923Y-94524533D01*
X123374685Y-94572152D01*
X123327066Y-94619771D01*
X123279447Y-94715009D01*
X123279447Y-94953104D01*
X123327066Y-95048342D01*
X123374685Y-95095961D01*
X123469923Y-95143580D01*
X123755638Y-95143580D01*
X123850876Y-95095961D01*
X123898495Y-95048342D01*
X133112780Y-96269771D02*
X132969923Y-96317390D01*
X132922304Y-96365009D01*
X132874685Y-96460247D01*
X132874685Y-96603104D01*
X132922304Y-96698342D01*
X132969923Y-96745961D01*
X133065161Y-96793580D01*
X133446114Y-96793580D01*
X133446114Y-95793580D01*
X133112780Y-95793580D01*
X133017542Y-95841200D01*
X132969923Y-95888819D01*
X132922304Y-95984057D01*
X132922304Y-96079295D01*
X132969923Y-96174533D01*
X133017542Y-96222152D01*
X133112780Y-96269771D01*
X133446114Y-96269771D01*
X132446114Y-96126914D02*
X132446114Y-96984057D01*
X132493733Y-97079295D01*
X132588971Y-97126914D01*
X132636590Y-97126914D01*
X132446114Y-95793580D02*
X132493733Y-95841200D01*
X132446114Y-95888819D01*
X132398495Y-95841200D01*
X132446114Y-95793580D01*
X132446114Y-95888819D01*
X131446114Y-96126914D02*
X132065161Y-96793580D01*
X131827066Y-96793580D02*
X131922304Y-96745961D01*
X131969923Y-96698342D01*
X132017542Y-96603104D01*
X132017542Y-96317390D01*
X131969923Y-96222152D01*
X131922304Y-96174533D01*
X131827066Y-96126914D01*
X131684209Y-96126914D01*
X131588971Y-96174533D01*
X131541352Y-96222152D01*
X131493733Y-96317390D01*
X131493733Y-96603104D01*
X131541352Y-96698342D01*
X131588971Y-96745961D01*
X131684209Y-96793580D01*
X131827066Y-96793580D01*
X131065161Y-96793580D02*
X131065161Y-96126914D01*
X131065161Y-96317390D02*
X131017542Y-96222152D01*
X130969923Y-96174533D01*
X130874685Y-96126914D01*
X130779447Y-96126914D01*
X130446114Y-96126914D02*
X130446114Y-96793580D01*
X130446114Y-96222152D02*
X130398495Y-96174533D01*
X130303257Y-96126914D01*
X130160400Y-96126914D01*
X130065161Y-96174533D01*
X130017542Y-96269771D01*
X130017542Y-96793580D01*
X129160400Y-96745961D02*
X129255638Y-96793580D01*
X129446114Y-96793580D01*
X129541352Y-96745961D01*
X129588971Y-96650723D01*
X129588971Y-96269771D01*
X129541352Y-96174533D01*
X129446114Y-96126914D01*
X129255638Y-96126914D01*
X129160400Y-96174533D01*
X129112780Y-96269771D01*
X129112780Y-96365009D01*
X129588971Y-96460247D01*
X128684209Y-96793580D02*
X128684209Y-96126914D01*
X128684209Y-96317390D02*
X128636590Y-96222152D01*
X128588971Y-96174533D01*
X128493733Y-96126914D01*
X128398495Y-96126914D01*
X127350876Y-96745961D02*
X127208019Y-96793580D01*
X126969923Y-96793580D01*
X126874685Y-96745961D01*
X126827066Y-96698342D01*
X126779447Y-96603104D01*
X126779447Y-96507866D01*
X126827066Y-96412628D01*
X126874685Y-96365009D01*
X126969923Y-96317390D01*
X127160400Y-96269771D01*
X127255638Y-96222152D01*
X127303257Y-96174533D01*
X127350876Y-96079295D01*
X127350876Y-95984057D01*
X127303257Y-95888819D01*
X127255638Y-95841200D01*
X127160400Y-95793580D01*
X126922304Y-95793580D01*
X126779447Y-95841200D01*
X125922304Y-96793580D02*
X125922304Y-96269771D01*
X125969923Y-96174533D01*
X126065161Y-96126914D01*
X126255638Y-96126914D01*
X126350876Y-96174533D01*
X125922304Y-96745961D02*
X126017542Y-96793580D01*
X126255638Y-96793580D01*
X126350876Y-96745961D01*
X126398495Y-96650723D01*
X126398495Y-96555485D01*
X126350876Y-96460247D01*
X126255638Y-96412628D01*
X126017542Y-96412628D01*
X125922304Y-96365009D01*
X125446114Y-96126914D02*
X125446114Y-96793580D01*
X125446114Y-96222152D02*
X125398495Y-96174533D01*
X125303257Y-96126914D01*
X125160400Y-96126914D01*
X125065161Y-96174533D01*
X125017542Y-96269771D01*
X125017542Y-96793580D01*
X124112780Y-96793580D02*
X124112780Y-95793580D01*
X124112780Y-96745961D02*
X124208019Y-96793580D01*
X124398495Y-96793580D01*
X124493733Y-96745961D01*
X124541352Y-96698342D01*
X124588971Y-96603104D01*
X124588971Y-96317390D01*
X124541352Y-96222152D01*
X124493733Y-96174533D01*
X124398495Y-96126914D01*
X124208019Y-96126914D01*
X124112780Y-96174533D01*
X123493733Y-96793580D02*
X123588971Y-96745961D01*
X123636590Y-96698342D01*
X123684209Y-96603104D01*
X123684209Y-96317390D01*
X123636590Y-96222152D01*
X123588971Y-96174533D01*
X123493733Y-96126914D01*
X123350876Y-96126914D01*
X123255638Y-96174533D01*
X123208019Y-96222152D01*
X123160400Y-96317390D01*
X123160400Y-96603104D01*
X123208019Y-96698342D01*
X123255638Y-96745961D01*
X123350876Y-96793580D01*
X123493733Y-96793580D01*
X122731828Y-96793580D02*
X122731828Y-96126914D01*
X122731828Y-96222152D02*
X122684209Y-96174533D01*
X122588971Y-96126914D01*
X122446114Y-96126914D01*
X122350876Y-96174533D01*
X122303257Y-96269771D01*
X122303257Y-96793580D01*
X122303257Y-96269771D02*
X122255638Y-96174533D01*
X122160400Y-96126914D01*
X122017542Y-96126914D01*
X121922304Y-96174533D01*
X121874685Y-96269771D01*
X121874685Y-96793580D01*
X173177104Y-95317000D02*
X173272342Y-95269380D01*
X173415200Y-95269380D01*
X173558057Y-95317000D01*
X173653295Y-95412238D01*
X173700914Y-95507476D01*
X173748533Y-95697952D01*
X173748533Y-95840809D01*
X173700914Y-96031285D01*
X173653295Y-96126523D01*
X173558057Y-96221761D01*
X173415200Y-96269380D01*
X173319961Y-96269380D01*
X173177104Y-96221761D01*
X173129485Y-96174142D01*
X173129485Y-95840809D01*
X173319961Y-95840809D01*
X172700914Y-96269380D02*
X172700914Y-95269380D01*
X172129485Y-96269380D01*
X172129485Y-95269380D01*
X171653295Y-96269380D02*
X171653295Y-95269380D01*
X171415200Y-95269380D01*
X171272342Y-95317000D01*
X171177104Y-95412238D01*
X171129485Y-95507476D01*
X171081866Y-95697952D01*
X171081866Y-95840809D01*
X171129485Y-96031285D01*
X171177104Y-96126523D01*
X171272342Y-96221761D01*
X171415200Y-96269380D01*
X171653295Y-96269380D01*
X173916552Y-93289428D02*
X173154647Y-93289428D01*
X173535600Y-93670380D02*
X173535600Y-92908476D01*
X172773695Y-92670380D02*
X172154647Y-92670380D01*
X172487980Y-93051333D01*
X172345123Y-93051333D01*
X172249885Y-93098952D01*
X172202266Y-93146571D01*
X172154647Y-93241809D01*
X172154647Y-93479904D01*
X172202266Y-93575142D01*
X172249885Y-93622761D01*
X172345123Y-93670380D01*
X172630838Y-93670380D01*
X172726076Y-93622761D01*
X172773695Y-93575142D01*
X171726076Y-93575142D02*
X171678457Y-93622761D01*
X171726076Y-93670380D01*
X171773695Y-93622761D01*
X171726076Y-93575142D01*
X171726076Y-93670380D01*
X171345123Y-92670380D02*
X170726076Y-92670380D01*
X171059409Y-93051333D01*
X170916552Y-93051333D01*
X170821314Y-93098952D01*
X170773695Y-93146571D01*
X170726076Y-93241809D01*
X170726076Y-93479904D01*
X170773695Y-93575142D01*
X170821314Y-93622761D01*
X170916552Y-93670380D01*
X171202266Y-93670380D01*
X171297504Y-93622761D01*
X171345123Y-93575142D01*
X169583219Y-92622761D02*
X170440361Y-93908476D01*
X168773695Y-92670380D02*
X169249885Y-92670380D01*
X169297504Y-93146571D01*
X169249885Y-93098952D01*
X169154647Y-93051333D01*
X168916552Y-93051333D01*
X168821314Y-93098952D01*
X168773695Y-93146571D01*
X168726076Y-93241809D01*
X168726076Y-93479904D01*
X168773695Y-93575142D01*
X168821314Y-93622761D01*
X168916552Y-93670380D01*
X169154647Y-93670380D01*
X169249885Y-93622761D01*
X169297504Y-93575142D01*
X167678457Y-92670380D02*
X167345123Y-93670380D01*
X167011790Y-92670380D01*
X123103733Y-66125352D02*
X124103733Y-66125352D01*
X123389447Y-65792019D01*
X124103733Y-65458686D01*
X123103733Y-65458686D01*
X123198971Y-64411067D02*
X123151352Y-64458686D01*
X123103733Y-64601543D01*
X123103733Y-64696781D01*
X123151352Y-64839638D01*
X123246590Y-64934876D01*
X123341828Y-64982495D01*
X123532304Y-65030114D01*
X123675161Y-65030114D01*
X123865637Y-64982495D01*
X123960875Y-64934876D01*
X124056114Y-64839638D01*
X124103733Y-64696781D01*
X124103733Y-64601543D01*
X124056114Y-64458686D01*
X124008494Y-64411067D01*
X123103733Y-63982495D02*
X124103733Y-63982495D01*
X124103733Y-63601543D01*
X124056114Y-63506305D01*
X124008494Y-63458686D01*
X123913256Y-63411067D01*
X123770399Y-63411067D01*
X123675161Y-63458686D01*
X123627542Y-63506305D01*
X123579923Y-63601543D01*
X123579923Y-63982495D01*
X124103733Y-62506305D02*
X124103733Y-62982495D01*
X123627542Y-63030114D01*
X123675161Y-62982495D01*
X123722780Y-62887257D01*
X123722780Y-62649162D01*
X123675161Y-62553924D01*
X123627542Y-62506305D01*
X123532304Y-62458686D01*
X123294209Y-62458686D01*
X123198971Y-62506305D01*
X123151352Y-62553924D01*
X123103733Y-62649162D01*
X123103733Y-62887257D01*
X123151352Y-62982495D01*
X123198971Y-63030114D01*
X120560876Y-66125352D02*
X121560876Y-66125352D01*
X120846590Y-65792019D01*
X121560876Y-65458686D01*
X120560876Y-65458686D01*
X120656114Y-64411067D02*
X120608495Y-64458686D01*
X120560876Y-64601543D01*
X120560876Y-64696781D01*
X120608495Y-64839638D01*
X120703733Y-64934876D01*
X120798971Y-64982495D01*
X120989447Y-65030114D01*
X121132304Y-65030114D01*
X121322780Y-64982495D01*
X121418018Y-64934876D01*
X121513257Y-64839638D01*
X121560876Y-64696781D01*
X121560876Y-64601543D01*
X121513257Y-64458686D01*
X121465637Y-64411067D01*
X120560876Y-63982495D02*
X121560876Y-63982495D01*
X121560876Y-63601543D01*
X121513257Y-63506305D01*
X121465637Y-63458686D01*
X121370399Y-63411067D01*
X121227542Y-63411067D01*
X121132304Y-63458686D01*
X121084685Y-63506305D01*
X121037066Y-63601543D01*
X121037066Y-63982495D01*
X121560876Y-62553924D02*
X121560876Y-62744400D01*
X121513257Y-62839638D01*
X121465637Y-62887257D01*
X121322780Y-62982495D01*
X121132304Y-63030114D01*
X120751352Y-63030114D01*
X120656114Y-62982495D01*
X120608495Y-62934876D01*
X120560876Y-62839638D01*
X120560876Y-62649162D01*
X120608495Y-62553924D01*
X120656114Y-62506305D01*
X120751352Y-62458686D01*
X120989447Y-62458686D01*
X121084685Y-62506305D01*
X121132304Y-62553924D01*
X121179923Y-62649162D01*
X121179923Y-62839638D01*
X121132304Y-62934876D01*
X121084685Y-62982495D01*
X120989447Y-63030114D01*
X118018019Y-66125352D02*
X119018019Y-66125352D01*
X118303733Y-65792019D01*
X119018019Y-65458686D01*
X118018019Y-65458686D01*
X118113257Y-64411067D02*
X118065638Y-64458686D01*
X118018019Y-64601543D01*
X118018019Y-64696781D01*
X118065638Y-64839638D01*
X118160876Y-64934876D01*
X118256114Y-64982495D01*
X118446590Y-65030114D01*
X118589447Y-65030114D01*
X118779923Y-64982495D01*
X118875161Y-64934876D01*
X118970400Y-64839638D01*
X119018019Y-64696781D01*
X119018019Y-64601543D01*
X118970400Y-64458686D01*
X118922780Y-64411067D01*
X118018019Y-63982495D02*
X119018019Y-63982495D01*
X119018019Y-63601543D01*
X118970400Y-63506305D01*
X118922780Y-63458686D01*
X118827542Y-63411067D01*
X118684685Y-63411067D01*
X118589447Y-63458686D01*
X118541828Y-63506305D01*
X118494209Y-63601543D01*
X118494209Y-63982495D01*
X119018019Y-63077733D02*
X119018019Y-62411067D01*
X118018019Y-62839638D01*
X133275161Y-66125352D02*
X134275161Y-66125352D01*
X133560875Y-65792019D01*
X134275161Y-65458686D01*
X133275161Y-65458686D01*
X133370399Y-64411067D02*
X133322780Y-64458686D01*
X133275161Y-64601543D01*
X133275161Y-64696781D01*
X133322780Y-64839638D01*
X133418018Y-64934876D01*
X133513256Y-64982495D01*
X133703732Y-65030114D01*
X133846589Y-65030114D01*
X134037065Y-64982495D01*
X134132303Y-64934876D01*
X134227542Y-64839638D01*
X134275161Y-64696781D01*
X134275161Y-64601543D01*
X134227542Y-64458686D01*
X134179922Y-64411067D01*
X133275161Y-63982495D02*
X134275161Y-63982495D01*
X134275161Y-63601543D01*
X134227542Y-63506305D01*
X134179922Y-63458686D01*
X134084684Y-63411067D01*
X133941827Y-63411067D01*
X133846589Y-63458686D01*
X133798970Y-63506305D01*
X133751351Y-63601543D01*
X133751351Y-63982495D01*
X133275161Y-62458686D02*
X133275161Y-63030114D01*
X133275161Y-62744400D02*
X134275161Y-62744400D01*
X134132303Y-62839638D01*
X134037065Y-62934876D01*
X133989446Y-63030114D01*
X125646590Y-66125352D02*
X126646590Y-66125352D01*
X125932304Y-65792019D01*
X126646590Y-65458686D01*
X125646590Y-65458686D01*
X125741828Y-64411067D02*
X125694209Y-64458686D01*
X125646590Y-64601543D01*
X125646590Y-64696781D01*
X125694209Y-64839638D01*
X125789447Y-64934876D01*
X125884685Y-64982495D01*
X126075161Y-65030114D01*
X126218018Y-65030114D01*
X126408494Y-64982495D01*
X126503732Y-64934876D01*
X126598971Y-64839638D01*
X126646590Y-64696781D01*
X126646590Y-64601543D01*
X126598971Y-64458686D01*
X126551351Y-64411067D01*
X125646590Y-63982495D02*
X126646590Y-63982495D01*
X126646590Y-63601543D01*
X126598971Y-63506305D01*
X126551351Y-63458686D01*
X126456113Y-63411067D01*
X126313256Y-63411067D01*
X126218018Y-63458686D01*
X126170399Y-63506305D01*
X126122780Y-63601543D01*
X126122780Y-63982495D01*
X126313256Y-62553924D02*
X125646590Y-62553924D01*
X126694209Y-62792019D02*
X125979923Y-63030114D01*
X125979923Y-62411067D01*
X130732304Y-66125352D02*
X131732304Y-66125352D01*
X131018018Y-65792019D01*
X131732304Y-65458686D01*
X130732304Y-65458686D01*
X130827542Y-64411067D02*
X130779923Y-64458686D01*
X130732304Y-64601543D01*
X130732304Y-64696781D01*
X130779923Y-64839638D01*
X130875161Y-64934876D01*
X130970399Y-64982495D01*
X131160875Y-65030114D01*
X131303732Y-65030114D01*
X131494208Y-64982495D01*
X131589446Y-64934876D01*
X131684685Y-64839638D01*
X131732304Y-64696781D01*
X131732304Y-64601543D01*
X131684685Y-64458686D01*
X131637065Y-64411067D01*
X130732304Y-63982495D02*
X131732304Y-63982495D01*
X131732304Y-63601543D01*
X131684685Y-63506305D01*
X131637065Y-63458686D01*
X131541827Y-63411067D01*
X131398970Y-63411067D01*
X131303732Y-63458686D01*
X131256113Y-63506305D01*
X131208494Y-63601543D01*
X131208494Y-63982495D01*
X131637065Y-63030114D02*
X131684685Y-62982495D01*
X131732304Y-62887257D01*
X131732304Y-62649162D01*
X131684685Y-62553924D01*
X131637065Y-62506305D01*
X131541827Y-62458686D01*
X131446589Y-62458686D01*
X131303732Y-62506305D01*
X130732304Y-63077733D01*
X130732304Y-62458686D01*
X128189447Y-66125352D02*
X129189447Y-66125352D01*
X128475161Y-65792019D01*
X129189447Y-65458686D01*
X128189447Y-65458686D01*
X128284685Y-64411067D02*
X128237066Y-64458686D01*
X128189447Y-64601543D01*
X128189447Y-64696781D01*
X128237066Y-64839638D01*
X128332304Y-64934876D01*
X128427542Y-64982495D01*
X128618018Y-65030114D01*
X128760875Y-65030114D01*
X128951351Y-64982495D01*
X129046589Y-64934876D01*
X129141828Y-64839638D01*
X129189447Y-64696781D01*
X129189447Y-64601543D01*
X129141828Y-64458686D01*
X129094208Y-64411067D01*
X128189447Y-63982495D02*
X129189447Y-63982495D01*
X129189447Y-63601543D01*
X129141828Y-63506305D01*
X129094208Y-63458686D01*
X128998970Y-63411067D01*
X128856113Y-63411067D01*
X128760875Y-63458686D01*
X128713256Y-63506305D01*
X128665637Y-63601543D01*
X128665637Y-63982495D01*
X129189447Y-63077733D02*
X129189447Y-62458686D01*
X128808494Y-62792019D01*
X128808494Y-62649162D01*
X128760875Y-62553924D01*
X128713256Y-62506305D01*
X128618018Y-62458686D01*
X128379923Y-62458686D01*
X128284685Y-62506305D01*
X128237066Y-62553924D01*
X128189447Y-62649162D01*
X128189447Y-62934876D01*
X128237066Y-63030114D01*
X128284685Y-63077733D01*
X135818019Y-66125352D02*
X136818019Y-66125352D01*
X136103733Y-65792019D01*
X136818019Y-65458686D01*
X135818019Y-65458686D01*
X135913257Y-64411067D02*
X135865638Y-64458686D01*
X135818019Y-64601543D01*
X135818019Y-64696781D01*
X135865638Y-64839638D01*
X135960876Y-64934876D01*
X136056114Y-64982495D01*
X136246590Y-65030114D01*
X136389447Y-65030114D01*
X136579923Y-64982495D01*
X136675161Y-64934876D01*
X136770400Y-64839638D01*
X136818019Y-64696781D01*
X136818019Y-64601543D01*
X136770400Y-64458686D01*
X136722780Y-64411067D01*
X135818019Y-63982495D02*
X136818019Y-63982495D01*
X136818019Y-63601543D01*
X136770400Y-63506305D01*
X136722780Y-63458686D01*
X136627542Y-63411067D01*
X136484685Y-63411067D01*
X136389447Y-63458686D01*
X136341828Y-63506305D01*
X136294209Y-63601543D01*
X136294209Y-63982495D01*
X136818019Y-62792019D02*
X136818019Y-62696781D01*
X136770400Y-62601543D01*
X136722780Y-62553924D01*
X136627542Y-62506305D01*
X136437066Y-62458686D01*
X136198971Y-62458686D01*
X136008495Y-62506305D01*
X135913257Y-62553924D01*
X135865638Y-62601543D01*
X135818019Y-62696781D01*
X135818019Y-62792019D01*
X135865638Y-62887257D01*
X135913257Y-62934876D01*
X136008495Y-62982495D01*
X136198971Y-63030114D01*
X136437066Y-63030114D01*
X136627542Y-62982495D01*
X136722780Y-62934876D01*
X136770400Y-62887257D01*
X136818019Y-62792019D01*
X147353738Y-64887257D02*
X147306119Y-64744400D01*
X147306119Y-64506305D01*
X147353738Y-64411067D01*
X147401357Y-64363448D01*
X147496595Y-64315829D01*
X147591833Y-64315829D01*
X147687071Y-64363448D01*
X147734690Y-64411067D01*
X147782309Y-64506305D01*
X147829928Y-64696781D01*
X147877547Y-64792019D01*
X147925166Y-64839638D01*
X148020404Y-64887257D01*
X148115642Y-64887257D01*
X148210880Y-64839638D01*
X148258500Y-64792019D01*
X148306119Y-64696781D01*
X148306119Y-64458686D01*
X148258500Y-64315829D01*
X147306119Y-63887257D02*
X148306119Y-63887257D01*
X148306119Y-63649162D01*
X148258500Y-63506305D01*
X148163261Y-63411067D01*
X148068023Y-63363448D01*
X147877547Y-63315829D01*
X147734690Y-63315829D01*
X147544214Y-63363448D01*
X147448976Y-63411067D01*
X147353738Y-63506305D01*
X147306119Y-63649162D01*
X147306119Y-63887257D01*
X147591833Y-62934876D02*
X147591833Y-62458686D01*
X147306119Y-63030114D02*
X148306119Y-62696781D01*
X147306119Y-62363448D01*
X140646000Y-64553923D02*
X140693619Y-64649161D01*
X140693619Y-64792019D01*
X140646000Y-64934876D01*
X140550761Y-65030114D01*
X140455523Y-65077733D01*
X140265047Y-65125352D01*
X140122190Y-65125352D01*
X139931714Y-65077733D01*
X139836476Y-65030114D01*
X139741238Y-64934876D01*
X139693619Y-64792019D01*
X139693619Y-64696780D01*
X139741238Y-64553923D01*
X139788857Y-64506304D01*
X140122190Y-64506304D01*
X140122190Y-64696780D01*
X139693619Y-64077733D02*
X140693619Y-64077733D01*
X139693619Y-63506304D01*
X140693619Y-63506304D01*
X139693619Y-63030114D02*
X140693619Y-63030114D01*
X140693619Y-62792019D01*
X140646000Y-62649161D01*
X140550761Y-62553923D01*
X140455523Y-62506304D01*
X140265047Y-62458685D01*
X140122190Y-62458685D01*
X139931714Y-62506304D01*
X139836476Y-62553923D01*
X139741238Y-62649161D01*
X139693619Y-62792019D01*
X139693619Y-63030114D01*
X144816238Y-64839638D02*
X144768619Y-64696781D01*
X144768619Y-64458685D01*
X144816238Y-64363447D01*
X144863857Y-64315828D01*
X144959095Y-64268209D01*
X145054333Y-64268209D01*
X145149571Y-64315828D01*
X145197190Y-64363447D01*
X145244809Y-64458685D01*
X145292428Y-64649162D01*
X145340047Y-64744400D01*
X145387666Y-64792019D01*
X145482904Y-64839638D01*
X145578142Y-64839638D01*
X145673380Y-64792019D01*
X145721000Y-64744400D01*
X145768619Y-64649162D01*
X145768619Y-64411066D01*
X145721000Y-64268209D01*
X144863857Y-63268209D02*
X144816238Y-63315828D01*
X144768619Y-63458685D01*
X144768619Y-63553923D01*
X144816238Y-63696781D01*
X144911476Y-63792019D01*
X145006714Y-63839638D01*
X145197190Y-63887257D01*
X145340047Y-63887257D01*
X145530523Y-63839638D01*
X145625761Y-63792019D01*
X145721000Y-63696781D01*
X145768619Y-63553923D01*
X145768619Y-63458685D01*
X145721000Y-63315828D01*
X145673380Y-63268209D01*
X144768619Y-62363447D02*
X144768619Y-62839638D01*
X145768619Y-62839638D01*
X142612071Y-65077733D02*
X142612071Y-64315828D01*
X142231119Y-64696780D02*
X142993023Y-64696780D01*
X143231119Y-63363447D02*
X143231119Y-63839638D01*
X142754928Y-63887257D01*
X142802547Y-63839638D01*
X142850166Y-63744399D01*
X142850166Y-63506304D01*
X142802547Y-63411066D01*
X142754928Y-63363447D01*
X142659690Y-63315828D01*
X142421595Y-63315828D01*
X142326357Y-63363447D01*
X142278738Y-63411066D01*
X142231119Y-63506304D01*
X142231119Y-63744399D01*
X142278738Y-63839638D01*
X142326357Y-63887257D01*
X143231119Y-63030114D02*
X142231119Y-62696780D01*
X143231119Y-62363447D01*
X171755319Y-64934876D02*
X172755319Y-64934876D01*
X172755319Y-64696781D01*
X172707700Y-64553924D01*
X172612461Y-64458686D01*
X172517223Y-64411067D01*
X172326747Y-64363448D01*
X172183890Y-64363448D01*
X171993414Y-64411067D01*
X171898176Y-64458686D01*
X171802938Y-64553924D01*
X171755319Y-64696781D01*
X171755319Y-64934876D01*
X171755319Y-63411067D02*
X171755319Y-63982495D01*
X171755319Y-63696781D02*
X172755319Y-63696781D01*
X172612461Y-63792019D01*
X172517223Y-63887257D01*
X172469604Y-63982495D01*
X171755319Y-62458686D02*
X171755319Y-63030114D01*
X171755319Y-62744400D02*
X172755319Y-62744400D01*
X172612461Y-62839638D01*
X172517223Y-62934876D01*
X172469604Y-63030114D01*
X165095200Y-64553923D02*
X165142819Y-64649161D01*
X165142819Y-64792019D01*
X165095200Y-64934876D01*
X164999961Y-65030114D01*
X164904723Y-65077733D01*
X164714247Y-65125352D01*
X164571390Y-65125352D01*
X164380914Y-65077733D01*
X164285676Y-65030114D01*
X164190438Y-64934876D01*
X164142819Y-64792019D01*
X164142819Y-64696780D01*
X164190438Y-64553923D01*
X164238057Y-64506304D01*
X164571390Y-64506304D01*
X164571390Y-64696780D01*
X164142819Y-64077733D02*
X165142819Y-64077733D01*
X164142819Y-63506304D01*
X165142819Y-63506304D01*
X164142819Y-63030114D02*
X165142819Y-63030114D01*
X165142819Y-62792019D01*
X165095200Y-62649161D01*
X164999961Y-62553923D01*
X164904723Y-62506304D01*
X164714247Y-62458685D01*
X164571390Y-62458685D01*
X164380914Y-62506304D01*
X164285676Y-62553923D01*
X164190438Y-62649161D01*
X164142819Y-62792019D01*
X164142819Y-63030114D01*
X169217819Y-64934876D02*
X170217819Y-64934876D01*
X170217819Y-64696781D01*
X170170200Y-64553924D01*
X170074961Y-64458686D01*
X169979723Y-64411067D01*
X169789247Y-64363448D01*
X169646390Y-64363448D01*
X169455914Y-64411067D01*
X169360676Y-64458686D01*
X169265438Y-64553924D01*
X169217819Y-64696781D01*
X169217819Y-64934876D01*
X169217819Y-63411067D02*
X169217819Y-63982495D01*
X169217819Y-63696781D02*
X170217819Y-63696781D01*
X170074961Y-63792019D01*
X169979723Y-63887257D01*
X169932104Y-63982495D01*
X170122580Y-63030114D02*
X170170200Y-62982495D01*
X170217819Y-62887257D01*
X170217819Y-62649162D01*
X170170200Y-62553924D01*
X170122580Y-62506305D01*
X170027342Y-62458686D01*
X169932104Y-62458686D01*
X169789247Y-62506305D01*
X169217819Y-63077733D01*
X169217819Y-62458686D01*
X166680319Y-64934876D02*
X167680319Y-64934876D01*
X167680319Y-64696781D01*
X167632700Y-64553924D01*
X167537461Y-64458686D01*
X167442223Y-64411067D01*
X167251747Y-64363448D01*
X167108890Y-64363448D01*
X166918414Y-64411067D01*
X166823176Y-64458686D01*
X166727938Y-64553924D01*
X166680319Y-64696781D01*
X166680319Y-64934876D01*
X166680319Y-63411067D02*
X166680319Y-63982495D01*
X166680319Y-63696781D02*
X167680319Y-63696781D01*
X167537461Y-63792019D01*
X167442223Y-63887257D01*
X167394604Y-63982495D01*
X167680319Y-63077733D02*
X167680319Y-62458686D01*
X167299366Y-62792019D01*
X167299366Y-62649162D01*
X167251747Y-62553924D01*
X167204128Y-62506305D01*
X167108890Y-62458686D01*
X166870795Y-62458686D01*
X166775557Y-62506305D01*
X166727938Y-62553924D01*
X166680319Y-62649162D01*
X166680319Y-62934876D01*
X166727938Y-63030114D01*
X166775557Y-63077733D01*
X174292819Y-64934876D02*
X175292819Y-64934876D01*
X175292819Y-64696781D01*
X175245200Y-64553924D01*
X175149961Y-64458686D01*
X175054723Y-64411067D01*
X174864247Y-64363448D01*
X174721390Y-64363448D01*
X174530914Y-64411067D01*
X174435676Y-64458686D01*
X174340438Y-64553924D01*
X174292819Y-64696781D01*
X174292819Y-64934876D01*
X174292819Y-63411067D02*
X174292819Y-63982495D01*
X174292819Y-63696781D02*
X175292819Y-63696781D01*
X175149961Y-63792019D01*
X175054723Y-63887257D01*
X175007104Y-63982495D01*
X175292819Y-62792019D02*
X175292819Y-62696781D01*
X175245200Y-62601543D01*
X175197580Y-62553924D01*
X175102342Y-62506305D01*
X174911866Y-62458686D01*
X174673771Y-62458686D01*
X174483295Y-62506305D01*
X174388057Y-62553924D01*
X174340438Y-62601543D01*
X174292819Y-62696781D01*
X174292819Y-62792019D01*
X174340438Y-62887257D01*
X174388057Y-62934876D01*
X174483295Y-62982495D01*
X174673771Y-63030114D01*
X174911866Y-63030114D01*
X175102342Y-62982495D01*
X175197580Y-62934876D01*
X175245200Y-62887257D01*
X175292819Y-62792019D01*
X151376000Y-64553923D02*
X151423619Y-64649161D01*
X151423619Y-64792019D01*
X151376000Y-64934876D01*
X151280761Y-65030114D01*
X151185523Y-65077733D01*
X150995047Y-65125352D01*
X150852190Y-65125352D01*
X150661714Y-65077733D01*
X150566476Y-65030114D01*
X150471238Y-64934876D01*
X150423619Y-64792019D01*
X150423619Y-64696780D01*
X150471238Y-64553923D01*
X150518857Y-64506304D01*
X150852190Y-64506304D01*
X150852190Y-64696780D01*
X150423619Y-64077733D02*
X151423619Y-64077733D01*
X150423619Y-63506304D01*
X151423619Y-63506304D01*
X150423619Y-63030114D02*
X151423619Y-63030114D01*
X151423619Y-62792019D01*
X151376000Y-62649161D01*
X151280761Y-62553923D01*
X151185523Y-62506304D01*
X150995047Y-62458685D01*
X150852190Y-62458685D01*
X150661714Y-62506304D01*
X150566476Y-62553923D01*
X150471238Y-62649161D01*
X150423619Y-62792019D01*
X150423619Y-63030114D01*
X153249333Y-63887257D02*
X153249333Y-63411067D01*
X152963619Y-63982495D02*
X153963619Y-63649162D01*
X152963619Y-63315829D01*
X153963619Y-63077733D02*
X153963619Y-62458686D01*
X153582666Y-62792019D01*
X153582666Y-62649162D01*
X153535047Y-62553924D01*
X153487428Y-62506305D01*
X153392190Y-62458686D01*
X153154095Y-62458686D01*
X153058857Y-62506305D01*
X153011238Y-62553924D01*
X152963619Y-62649162D01*
X152963619Y-62934876D01*
X153011238Y-63030114D01*
X153058857Y-63077733D01*
X155658333Y-63887257D02*
X155658333Y-63411067D01*
X155372619Y-63982495D02*
X156372619Y-63649162D01*
X155372619Y-63315829D01*
X156277380Y-63030114D02*
X156325000Y-62982495D01*
X156372619Y-62887257D01*
X156372619Y-62649162D01*
X156325000Y-62553924D01*
X156277380Y-62506305D01*
X156182142Y-62458686D01*
X156086904Y-62458686D01*
X155944047Y-62506305D01*
X155372619Y-63077733D01*
X155372619Y-62458686D01*
X158195833Y-63887257D02*
X158195833Y-63411067D01*
X157910119Y-63982495D02*
X158910119Y-63649162D01*
X157910119Y-63315829D01*
X157910119Y-62458686D02*
X157910119Y-63030114D01*
X157910119Y-62744400D02*
X158910119Y-62744400D01*
X158767261Y-62839638D01*
X158672023Y-62934876D01*
X158624404Y-63030114D01*
X160733333Y-63887257D02*
X160733333Y-63411067D01*
X160447619Y-63982495D02*
X161447619Y-63649162D01*
X160447619Y-63315829D01*
X161447619Y-62792019D02*
X161447619Y-62696781D01*
X161400000Y-62601543D01*
X161352380Y-62553924D01*
X161257142Y-62506305D01*
X161066666Y-62458686D01*
X160828571Y-62458686D01*
X160638095Y-62506305D01*
X160542857Y-62553924D01*
X160495238Y-62601543D01*
X160447619Y-62696781D01*
X160447619Y-62792019D01*
X160495238Y-62887257D01*
X160542857Y-62934876D01*
X160638095Y-62982495D01*
X160828571Y-63030114D01*
X161066666Y-63030114D01*
X161257142Y-62982495D01*
X161352380Y-62934876D01*
X161400000Y-62887257D01*
X161447619Y-62792019D01*
X183705500Y-56928000D02*
X163258500Y-56928000D01*
X183705500Y-56328000D02*
X163258500Y-56328000D01*
X163258500Y-56328000D02*
X163258500Y-62128000D01*
X163258500Y-62128000D02*
X183705500Y-62128000D01*
X183705500Y-62128000D02*
X183705500Y-56328000D01*
X180315800Y-92052000D02*
X174515800Y-92052000D01*
X180315800Y-97132000D02*
X180315800Y-92052000D01*
X174515800Y-97132000D02*
X180315800Y-97132000D01*
X174515800Y-92052000D02*
X174515800Y-97132000D01*
X175115800Y-92092000D02*
X175115800Y-97092000D01*
X137668000Y-62128000D02*
X137668000Y-56328000D01*
X117221000Y-62128000D02*
X137668000Y-62128000D01*
X117221000Y-56328000D02*
X117221000Y-62128000D01*
X137668000Y-56328000D02*
X117221000Y-56328000D01*
X137668000Y-56928000D02*
X117221000Y-56928000D01*
X148742400Y-62128000D02*
X148742400Y-56328000D01*
X138582400Y-62128000D02*
X148742400Y-62128000D01*
X138582400Y-56328000D02*
X138582400Y-62128000D01*
X148742400Y-56328000D02*
X138582400Y-56328000D01*
X148742400Y-56928000D02*
X138582400Y-56928000D01*
X162356800Y-62128000D02*
X162356800Y-56328000D01*
X149656800Y-62128000D02*
X162356800Y-62128000D01*
X149656800Y-56328000D02*
X149656800Y-62128000D01*
X162356800Y-56328000D02*
X149656800Y-56328000D01*
X162356800Y-56928000D02*
X149656800Y-56928000D01*
D11*
X167451800Y-86141600D02*
G75*
G03*
X167451800Y-86141600I-11226800J0D01*
G01*
X160136600Y-75575200D02*
X160136600Y-72832000D01*
X152313400Y-75575200D02*
X152313400Y-72832000D01*
X160136600Y-72832000D02*
X157291800Y-72832000D01*
X152313400Y-72832000D02*
X155158200Y-72832000D01*
D10*
X143703571Y-85294914D02*
X143751190Y-85437771D01*
X143798809Y-85485390D01*
X143894047Y-85533009D01*
X144036904Y-85533009D01*
X144132142Y-85485390D01*
X144179761Y-85437771D01*
X144227380Y-85342533D01*
X144227380Y-84961580D01*
X143227380Y-84961580D01*
X143227380Y-85294914D01*
X143275000Y-85390152D01*
X143322619Y-85437771D01*
X143417857Y-85485390D01*
X143513095Y-85485390D01*
X143608333Y-85437771D01*
X143655952Y-85390152D01*
X143703571Y-85294914D01*
X143703571Y-84961580D01*
X143941666Y-85913961D02*
X143941666Y-86390152D01*
X144227380Y-85818723D02*
X143227380Y-86152057D01*
X144227380Y-86485390D01*
X143227380Y-86675866D02*
X143227380Y-87247295D01*
X144227380Y-86961580D02*
X143227380Y-86961580D01*
X144227380Y-88104438D02*
X144227380Y-87533009D01*
X144227380Y-87818723D02*
X143227380Y-87818723D01*
X143370238Y-87723485D01*
X143465476Y-87628247D01*
X143513095Y-87533009D01*
M02*
