G04 #@! TF.GenerationSoftware,KiCad,Pcbnew,(5.1.7)-1*
G04 #@! TF.CreationDate,2020-11-03T10:40:30+01:00*
G04 #@! TF.ProjectId,Timer,54696d65-722e-46b6-9963-61645f706362,rev?*
G04 #@! TF.SameCoordinates,Original*
G04 #@! TF.FileFunction,Legend,Top*
G04 #@! TF.FilePolarity,Positive*
%FSLAX46Y46*%
G04 Gerber Fmt 4.6, Leading zero omitted, Abs format (unit mm)*
G04 Created by KiCad (PCBNEW (5.1.7)-1) date 2020-11-03 10:40:30*
%MOMM*%
%LPD*%
G01*
G04 APERTURE LIST*
%ADD10C,0.150000*%
%ADD11C,0.120000*%
%ADD12C,0.100000*%
G04 APERTURE END LIST*
D10*
X147614285Y-64478571D02*
X147280952Y-64478571D01*
X147280952Y-65002380D02*
X147280952Y-64002380D01*
X147757142Y-64002380D01*
X148138095Y-65002380D02*
X148138095Y-64335714D01*
X148138095Y-64002380D02*
X148090476Y-64050000D01*
X148138095Y-64097619D01*
X148185714Y-64050000D01*
X148138095Y-64002380D01*
X148138095Y-64097619D01*
X148614285Y-65002380D02*
X148614285Y-64335714D01*
X148614285Y-64526190D02*
X148661904Y-64430952D01*
X148709523Y-64383333D01*
X148804761Y-64335714D01*
X148900000Y-64335714D01*
X149233333Y-65002380D02*
X149233333Y-64335714D01*
X149233333Y-64430952D02*
X149280952Y-64383333D01*
X149376190Y-64335714D01*
X149519047Y-64335714D01*
X149614285Y-64383333D01*
X149661904Y-64478571D01*
X149661904Y-65002380D01*
X149661904Y-64478571D02*
X149709523Y-64383333D01*
X149804761Y-64335714D01*
X149947619Y-64335714D01*
X150042857Y-64383333D01*
X150090476Y-64478571D01*
X150090476Y-65002380D01*
X150471428Y-64335714D02*
X150661904Y-65002380D01*
X150852380Y-64526190D01*
X151042857Y-65002380D01*
X151233333Y-64335714D01*
X152042857Y-65002380D02*
X152042857Y-64478571D01*
X151995238Y-64383333D01*
X151900000Y-64335714D01*
X151709523Y-64335714D01*
X151614285Y-64383333D01*
X152042857Y-64954761D02*
X151947619Y-65002380D01*
X151709523Y-65002380D01*
X151614285Y-64954761D01*
X151566666Y-64859523D01*
X151566666Y-64764285D01*
X151614285Y-64669047D01*
X151709523Y-64621428D01*
X151947619Y-64621428D01*
X152042857Y-64573809D01*
X152519047Y-65002380D02*
X152519047Y-64335714D01*
X152519047Y-64526190D02*
X152566666Y-64430952D01*
X152614285Y-64383333D01*
X152709523Y-64335714D01*
X152804761Y-64335714D01*
X153519047Y-64954761D02*
X153423809Y-65002380D01*
X153233333Y-65002380D01*
X153138095Y-64954761D01*
X153090476Y-64859523D01*
X153090476Y-64478571D01*
X153138095Y-64383333D01*
X153233333Y-64335714D01*
X153423809Y-64335714D01*
X153519047Y-64383333D01*
X153566666Y-64478571D01*
X153566666Y-64573809D01*
X153090476Y-64669047D01*
D11*
X124738748Y-95740000D02*
X125261252Y-95740000D01*
X124738748Y-97160000D02*
X125261252Y-97160000D01*
X119638748Y-95690000D02*
X120161252Y-95690000D01*
X119638748Y-97110000D02*
X120161252Y-97110000D01*
X124000000Y-94610000D02*
X126860000Y-94610000D01*
X126860000Y-94610000D02*
X126860000Y-92690000D01*
X126860000Y-92690000D02*
X124000000Y-92690000D01*
X118900000Y-94710000D02*
X121760000Y-94710000D01*
X121760000Y-94710000D02*
X121760000Y-92790000D01*
X121760000Y-92790000D02*
X118900000Y-92790000D01*
X137718000Y-84402000D02*
X133218000Y-84402000D01*
X138968000Y-88402000D02*
X138968000Y-86902000D01*
X133218000Y-90902000D02*
X137718000Y-90902000D01*
X131968000Y-86902000D02*
X131968000Y-88402000D01*
X127607000Y-84402000D02*
X123107000Y-84402000D01*
X128857000Y-88402000D02*
X128857000Y-86902000D01*
X123107000Y-90902000D02*
X127607000Y-90902000D01*
X121857000Y-86902000D02*
X121857000Y-88402000D01*
X117496000Y-84402000D02*
X112996000Y-84402000D01*
X118746000Y-88402000D02*
X118746000Y-86902000D01*
X112996000Y-90902000D02*
X117496000Y-90902000D01*
X111746000Y-86902000D02*
X111746000Y-88402000D01*
X137718000Y-76580000D02*
X133218000Y-76580000D01*
X138968000Y-80580000D02*
X138968000Y-79080000D01*
X133218000Y-83080000D02*
X137718000Y-83080000D01*
X131968000Y-79080000D02*
X131968000Y-80580000D01*
X127607000Y-76580000D02*
X123107000Y-76580000D01*
X128857000Y-80580000D02*
X128857000Y-79080000D01*
X123107000Y-83080000D02*
X127607000Y-83080000D01*
X121857000Y-79080000D02*
X121857000Y-80580000D01*
X117496000Y-76580000D02*
X112996000Y-76580000D01*
X118746000Y-80580000D02*
X118746000Y-79080000D01*
X112996000Y-83080000D02*
X117496000Y-83080000D01*
X111746000Y-79080000D02*
X111746000Y-80580000D01*
X137062000Y-73972000D02*
X137062000Y-61372000D01*
X137062000Y-61372000D02*
X131962000Y-61372000D01*
X131962000Y-61372000D02*
X131962000Y-73972000D01*
D12*
X122000000Y-71550000D02*
X122000000Y-71650000D01*
X122000000Y-71650000D02*
X122350000Y-72000000D01*
X122350000Y-72000000D02*
X122450000Y-72000000D01*
X122450000Y-72000000D02*
X122450000Y-73300000D01*
X122000000Y-64800000D02*
X122000000Y-65250000D01*
X122000000Y-64800000D02*
X122450000Y-64800000D01*
X129200000Y-64800000D02*
X128750000Y-64800000D01*
X129200000Y-64800000D02*
X129200000Y-65250000D01*
X129200000Y-72000000D02*
X129200000Y-71550000D01*
X129200000Y-72000000D02*
X128750000Y-72000000D01*
X172420000Y-72684000D02*
X172020000Y-72284000D01*
X172020000Y-72284000D02*
X172020000Y-72034000D01*
X190120000Y-72684000D02*
X189720000Y-72684000D01*
X190120000Y-72684000D02*
X190120000Y-72184000D01*
X190120000Y-64984000D02*
X189720000Y-64984000D01*
X190120000Y-64984000D02*
X190120000Y-65484000D01*
X172020000Y-64984000D02*
X172420000Y-64984000D01*
X172020000Y-64984000D02*
X172020000Y-65484000D01*
X172420000Y-72684000D02*
X172420000Y-74384000D01*
D11*
X114192000Y-74696000D02*
X116142000Y-74696000D01*
X114192000Y-74696000D02*
X112242000Y-74696000D01*
X114192000Y-69576000D02*
X116142000Y-69576000D01*
X114192000Y-69576000D02*
X110742000Y-69576000D01*
X142750000Y-73850000D02*
X169750000Y-73850000D01*
X169750000Y-73850000D02*
X169750000Y-92650000D01*
X142700000Y-73850000D02*
X142700000Y-92650000D01*
X142450000Y-69350000D02*
X142450000Y-97150000D01*
X142450000Y-69350000D02*
X170050000Y-69350000D01*
X170050000Y-69350000D02*
X170050000Y-97150000D01*
X142450000Y-97150000D02*
X170050000Y-97150000D01*
X142750000Y-92650000D02*
X169750000Y-92650000D01*
X180400000Y-84200000D02*
X181400000Y-84200000D01*
X180900000Y-83700000D02*
X180900000Y-84700000D01*
X187000000Y-87700000D02*
X187000000Y-90100000D01*
X187000000Y-82900000D02*
X187000000Y-85500000D01*
X187000000Y-78300000D02*
X187000000Y-80700000D01*
X173700000Y-80100000D02*
X173400000Y-80400000D01*
X173100000Y-80100000D02*
X173700000Y-80100000D01*
X173400000Y-80400000D02*
X173100000Y-80100000D01*
X174800000Y-78300000D02*
X174800000Y-90100000D01*
X178900000Y-78300000D02*
X174800000Y-78300000D01*
X178900000Y-90100000D02*
X174800000Y-90100000D01*
X187000000Y-90100000D02*
X182900000Y-90100000D01*
X182900000Y-78300000D02*
X187000000Y-78300000D01*
X183900000Y-84200000D02*
G75*
G03*
X183900000Y-84200000I-3000000J0D01*
G01*
X139861252Y-67851333D02*
X139338748Y-67851333D01*
X139861252Y-66431333D02*
X139338748Y-66431333D01*
X116978748Y-63806000D02*
X117501252Y-63806000D01*
X116978748Y-65226000D02*
X117501252Y-65226000D01*
X112152748Y-63806000D02*
X112675252Y-63806000D01*
X112152748Y-65226000D02*
X112675252Y-65226000D01*
X112675252Y-68020000D02*
X112152748Y-68020000D01*
X112675252Y-66600000D02*
X112152748Y-66600000D01*
X130388000Y-94047000D02*
X130388000Y-96707000D01*
X132988000Y-94047000D02*
X130388000Y-94047000D01*
X132988000Y-96707000D02*
X130388000Y-96707000D01*
X132988000Y-94047000D02*
X132988000Y-96707000D01*
X134258000Y-94047000D02*
X135588000Y-94047000D01*
X135588000Y-94047000D02*
X135588000Y-95377000D01*
X142670000Y-65420000D02*
X142670000Y-68080000D01*
X155430000Y-65420000D02*
X142670000Y-65420000D01*
X155430000Y-68080000D02*
X142670000Y-68080000D01*
X155430000Y-65420000D02*
X155430000Y-68080000D01*
X156700000Y-65420000D02*
X158030000Y-65420000D01*
X158030000Y-65420000D02*
X158030000Y-66750000D01*
X134773252Y-58876000D02*
X134250748Y-58876000D01*
X134773252Y-57456000D02*
X134250748Y-57456000D01*
X139861252Y-64972000D02*
X139338748Y-64972000D01*
X139861252Y-63552000D02*
X139338748Y-63552000D01*
X139861252Y-73610000D02*
X139338748Y-73610000D01*
X139861252Y-72190000D02*
X139338748Y-72190000D01*
X139861252Y-70730666D02*
X139338748Y-70730666D01*
X139861252Y-69310666D02*
X139338748Y-69310666D01*
X166661252Y-65010000D02*
X166138748Y-65010000D01*
X166661252Y-63590000D02*
X166138748Y-63590000D01*
X116969748Y-66600000D02*
X117492252Y-66600000D01*
X116969748Y-68020000D02*
X117492252Y-68020000D01*
X161463748Y-63552000D02*
X161986252Y-63552000D01*
X161463748Y-64972000D02*
X161986252Y-64972000D01*
D12*
X124816666Y-95586904D02*
X124550000Y-95205952D01*
X124359523Y-95586904D02*
X124359523Y-94786904D01*
X124664285Y-94786904D01*
X124740476Y-94825000D01*
X124778571Y-94863095D01*
X124816666Y-94939285D01*
X124816666Y-95053571D01*
X124778571Y-95129761D01*
X124740476Y-95167857D01*
X124664285Y-95205952D01*
X124359523Y-95205952D01*
X125540476Y-94786904D02*
X125159523Y-94786904D01*
X125121428Y-95167857D01*
X125159523Y-95129761D01*
X125235714Y-95091666D01*
X125426190Y-95091666D01*
X125502380Y-95129761D01*
X125540476Y-95167857D01*
X125578571Y-95244047D01*
X125578571Y-95434523D01*
X125540476Y-95510714D01*
X125502380Y-95548809D01*
X125426190Y-95586904D01*
X125235714Y-95586904D01*
X125159523Y-95548809D01*
X125121428Y-95510714D01*
X119691666Y-95561904D02*
X119425000Y-95180952D01*
X119234523Y-95561904D02*
X119234523Y-94761904D01*
X119539285Y-94761904D01*
X119615476Y-94800000D01*
X119653571Y-94838095D01*
X119691666Y-94914285D01*
X119691666Y-95028571D01*
X119653571Y-95104761D01*
X119615476Y-95142857D01*
X119539285Y-95180952D01*
X119234523Y-95180952D01*
X120377380Y-95028571D02*
X120377380Y-95561904D01*
X120186904Y-94723809D02*
X119996428Y-95295238D01*
X120491666Y-95295238D01*
X124359523Y-92536904D02*
X124359523Y-91736904D01*
X124550000Y-91736904D01*
X124664285Y-91775000D01*
X124740476Y-91851190D01*
X124778571Y-91927380D01*
X124816666Y-92079761D01*
X124816666Y-92194047D01*
X124778571Y-92346428D01*
X124740476Y-92422619D01*
X124664285Y-92498809D01*
X124550000Y-92536904D01*
X124359523Y-92536904D01*
X125121428Y-91813095D02*
X125159523Y-91775000D01*
X125235714Y-91736904D01*
X125426190Y-91736904D01*
X125502380Y-91775000D01*
X125540476Y-91813095D01*
X125578571Y-91889285D01*
X125578571Y-91965476D01*
X125540476Y-92079761D01*
X125083333Y-92536904D01*
X125578571Y-92536904D01*
X119334523Y-92711904D02*
X119334523Y-91911904D01*
X119525000Y-91911904D01*
X119639285Y-91950000D01*
X119715476Y-92026190D01*
X119753571Y-92102380D01*
X119791666Y-92254761D01*
X119791666Y-92369047D01*
X119753571Y-92521428D01*
X119715476Y-92597619D01*
X119639285Y-92673809D01*
X119525000Y-92711904D01*
X119334523Y-92711904D01*
X120553571Y-92711904D02*
X120096428Y-92711904D01*
X120325000Y-92711904D02*
X120325000Y-91911904D01*
X120248809Y-92026190D01*
X120172619Y-92102380D01*
X120096428Y-92140476D01*
X134858476Y-91873809D02*
X134972761Y-91911904D01*
X135163238Y-91911904D01*
X135239428Y-91873809D01*
X135277523Y-91835714D01*
X135315619Y-91759523D01*
X135315619Y-91683333D01*
X135277523Y-91607142D01*
X135239428Y-91569047D01*
X135163238Y-91530952D01*
X135010857Y-91492857D01*
X134934666Y-91454761D01*
X134896571Y-91416666D01*
X134858476Y-91340476D01*
X134858476Y-91264285D01*
X134896571Y-91188095D01*
X134934666Y-91150000D01*
X135010857Y-91111904D01*
X135201333Y-91111904D01*
X135315619Y-91150000D01*
X136001333Y-91111904D02*
X135848952Y-91111904D01*
X135772761Y-91150000D01*
X135734666Y-91188095D01*
X135658476Y-91302380D01*
X135620380Y-91454761D01*
X135620380Y-91759523D01*
X135658476Y-91835714D01*
X135696571Y-91873809D01*
X135772761Y-91911904D01*
X135925142Y-91911904D01*
X136001333Y-91873809D01*
X136039428Y-91835714D01*
X136077523Y-91759523D01*
X136077523Y-91569047D01*
X136039428Y-91492857D01*
X136001333Y-91454761D01*
X135925142Y-91416666D01*
X135772761Y-91416666D01*
X135696571Y-91454761D01*
X135658476Y-91492857D01*
X135620380Y-91569047D01*
X126365476Y-91798809D02*
X126479761Y-91836904D01*
X126670238Y-91836904D01*
X126746428Y-91798809D01*
X126784523Y-91760714D01*
X126822619Y-91684523D01*
X126822619Y-91608333D01*
X126784523Y-91532142D01*
X126746428Y-91494047D01*
X126670238Y-91455952D01*
X126517857Y-91417857D01*
X126441666Y-91379761D01*
X126403571Y-91341666D01*
X126365476Y-91265476D01*
X126365476Y-91189285D01*
X126403571Y-91113095D01*
X126441666Y-91075000D01*
X126517857Y-91036904D01*
X126708333Y-91036904D01*
X126822619Y-91075000D01*
X127546428Y-91036904D02*
X127165476Y-91036904D01*
X127127380Y-91417857D01*
X127165476Y-91379761D01*
X127241666Y-91341666D01*
X127432142Y-91341666D01*
X127508333Y-91379761D01*
X127546428Y-91417857D01*
X127584523Y-91494047D01*
X127584523Y-91684523D01*
X127546428Y-91760714D01*
X127508333Y-91798809D01*
X127432142Y-91836904D01*
X127241666Y-91836904D01*
X127165476Y-91798809D01*
X127127380Y-91760714D01*
X114636476Y-91923809D02*
X114750761Y-91961904D01*
X114941238Y-91961904D01*
X115017428Y-91923809D01*
X115055523Y-91885714D01*
X115093619Y-91809523D01*
X115093619Y-91733333D01*
X115055523Y-91657142D01*
X115017428Y-91619047D01*
X114941238Y-91580952D01*
X114788857Y-91542857D01*
X114712666Y-91504761D01*
X114674571Y-91466666D01*
X114636476Y-91390476D01*
X114636476Y-91314285D01*
X114674571Y-91238095D01*
X114712666Y-91200000D01*
X114788857Y-91161904D01*
X114979333Y-91161904D01*
X115093619Y-91200000D01*
X115779333Y-91428571D02*
X115779333Y-91961904D01*
X115588857Y-91123809D02*
X115398380Y-91695238D01*
X115893619Y-91695238D01*
X134858476Y-76323809D02*
X134972761Y-76361904D01*
X135163238Y-76361904D01*
X135239428Y-76323809D01*
X135277523Y-76285714D01*
X135315619Y-76209523D01*
X135315619Y-76133333D01*
X135277523Y-76057142D01*
X135239428Y-76019047D01*
X135163238Y-75980952D01*
X135010857Y-75942857D01*
X134934666Y-75904761D01*
X134896571Y-75866666D01*
X134858476Y-75790476D01*
X134858476Y-75714285D01*
X134896571Y-75638095D01*
X134934666Y-75600000D01*
X135010857Y-75561904D01*
X135201333Y-75561904D01*
X135315619Y-75600000D01*
X135582285Y-75561904D02*
X136077523Y-75561904D01*
X135810857Y-75866666D01*
X135925142Y-75866666D01*
X136001333Y-75904761D01*
X136039428Y-75942857D01*
X136077523Y-76019047D01*
X136077523Y-76209523D01*
X136039428Y-76285714D01*
X136001333Y-76323809D01*
X135925142Y-76361904D01*
X135696571Y-76361904D01*
X135620380Y-76323809D01*
X135582285Y-76285714D01*
X124690476Y-76323809D02*
X124804761Y-76361904D01*
X124995238Y-76361904D01*
X125071428Y-76323809D01*
X125109523Y-76285714D01*
X125147619Y-76209523D01*
X125147619Y-76133333D01*
X125109523Y-76057142D01*
X125071428Y-76019047D01*
X124995238Y-75980952D01*
X124842857Y-75942857D01*
X124766666Y-75904761D01*
X124728571Y-75866666D01*
X124690476Y-75790476D01*
X124690476Y-75714285D01*
X124728571Y-75638095D01*
X124766666Y-75600000D01*
X124842857Y-75561904D01*
X125033333Y-75561904D01*
X125147619Y-75600000D01*
X125452380Y-75638095D02*
X125490476Y-75600000D01*
X125566666Y-75561904D01*
X125757142Y-75561904D01*
X125833333Y-75600000D01*
X125871428Y-75638095D01*
X125909523Y-75714285D01*
X125909523Y-75790476D01*
X125871428Y-75904761D01*
X125414285Y-76361904D01*
X125909523Y-76361904D01*
X114490476Y-76323809D02*
X114604761Y-76361904D01*
X114795238Y-76361904D01*
X114871428Y-76323809D01*
X114909523Y-76285714D01*
X114947619Y-76209523D01*
X114947619Y-76133333D01*
X114909523Y-76057142D01*
X114871428Y-76019047D01*
X114795238Y-75980952D01*
X114642857Y-75942857D01*
X114566666Y-75904761D01*
X114528571Y-75866666D01*
X114490476Y-75790476D01*
X114490476Y-75714285D01*
X114528571Y-75638095D01*
X114566666Y-75600000D01*
X114642857Y-75561904D01*
X114833333Y-75561904D01*
X114947619Y-75600000D01*
X115709523Y-76361904D02*
X115252380Y-76361904D01*
X115480952Y-76361904D02*
X115480952Y-75561904D01*
X115404761Y-75676190D01*
X115328571Y-75752380D01*
X115252380Y-75790476D01*
X134219047Y-60880952D02*
X134219047Y-61261904D01*
X133952380Y-60461904D02*
X134219047Y-60880952D01*
X134485714Y-60461904D01*
X135171428Y-61261904D02*
X134714285Y-61261904D01*
X134942857Y-61261904D02*
X134942857Y-60461904D01*
X134866666Y-60576190D01*
X134790476Y-60652380D01*
X134714285Y-60690476D01*
X124990476Y-62311904D02*
X124990476Y-62959523D01*
X125028571Y-63035714D01*
X125066666Y-63073809D01*
X125142857Y-63111904D01*
X125295238Y-63111904D01*
X125371428Y-63073809D01*
X125409523Y-63035714D01*
X125447619Y-62959523D01*
X125447619Y-62311904D01*
X126171428Y-62578571D02*
X126171428Y-63111904D01*
X125980952Y-62273809D02*
X125790476Y-62845238D01*
X126285714Y-62845238D01*
X180390476Y-61936904D02*
X180390476Y-62584523D01*
X180428571Y-62660714D01*
X180466666Y-62698809D01*
X180542857Y-62736904D01*
X180695238Y-62736904D01*
X180771428Y-62698809D01*
X180809523Y-62660714D01*
X180847619Y-62584523D01*
X180847619Y-61936904D01*
X181152380Y-61936904D02*
X181647619Y-61936904D01*
X181380952Y-62241666D01*
X181495238Y-62241666D01*
X181571428Y-62279761D01*
X181609523Y-62317857D01*
X181647619Y-62394047D01*
X181647619Y-62584523D01*
X181609523Y-62660714D01*
X181571428Y-62698809D01*
X181495238Y-62736904D01*
X181266666Y-62736904D01*
X181190476Y-62698809D01*
X181152380Y-62660714D01*
X113890476Y-68561904D02*
X113890476Y-69209523D01*
X113928571Y-69285714D01*
X113966666Y-69323809D01*
X114042857Y-69361904D01*
X114195238Y-69361904D01*
X114271428Y-69323809D01*
X114309523Y-69285714D01*
X114347619Y-69209523D01*
X114347619Y-68561904D01*
X114690476Y-68638095D02*
X114728571Y-68600000D01*
X114804761Y-68561904D01*
X114995238Y-68561904D01*
X115071428Y-68600000D01*
X115109523Y-68638095D01*
X115147619Y-68714285D01*
X115147619Y-68790476D01*
X115109523Y-68904761D01*
X114652380Y-69361904D01*
X115147619Y-69361904D01*
X172233333Y-90373809D02*
X172347619Y-90411904D01*
X172538095Y-90411904D01*
X172614285Y-90373809D01*
X172652380Y-90335714D01*
X172690476Y-90259523D01*
X172690476Y-90183333D01*
X172652380Y-90107142D01*
X172614285Y-90069047D01*
X172538095Y-90030952D01*
X172385714Y-89992857D01*
X172309523Y-89954761D01*
X172271428Y-89916666D01*
X172233333Y-89840476D01*
X172233333Y-89764285D01*
X172271428Y-89688095D01*
X172309523Y-89650000D01*
X172385714Y-89611904D01*
X172576190Y-89611904D01*
X172690476Y-89650000D01*
X172957142Y-89611904D02*
X173147619Y-90411904D01*
X173300000Y-89840476D01*
X173452380Y-90411904D01*
X173642857Y-89611904D01*
X174366666Y-90411904D02*
X173909523Y-90411904D01*
X174138095Y-90411904D02*
X174138095Y-89611904D01*
X174061904Y-89726190D01*
X173985714Y-89802380D01*
X173909523Y-89840476D01*
X139466666Y-66261904D02*
X139200000Y-65880952D01*
X139009523Y-66261904D02*
X139009523Y-65461904D01*
X139314285Y-65461904D01*
X139390476Y-65500000D01*
X139428571Y-65538095D01*
X139466666Y-65614285D01*
X139466666Y-65728571D01*
X139428571Y-65804761D01*
X139390476Y-65842857D01*
X139314285Y-65880952D01*
X139009523Y-65880952D01*
X140152380Y-65461904D02*
X140000000Y-65461904D01*
X139923809Y-65500000D01*
X139885714Y-65538095D01*
X139809523Y-65652380D01*
X139771428Y-65804761D01*
X139771428Y-66109523D01*
X139809523Y-66185714D01*
X139847619Y-66223809D01*
X139923809Y-66261904D01*
X140076190Y-66261904D01*
X140152380Y-66223809D01*
X140190476Y-66185714D01*
X140228571Y-66109523D01*
X140228571Y-65919047D01*
X140190476Y-65842857D01*
X140152380Y-65804761D01*
X140076190Y-65766666D01*
X139923809Y-65766666D01*
X139847619Y-65804761D01*
X139809523Y-65842857D01*
X139771428Y-65919047D01*
X117106666Y-63461904D02*
X116840000Y-63080952D01*
X116649523Y-63461904D02*
X116649523Y-62661904D01*
X116954285Y-62661904D01*
X117030476Y-62700000D01*
X117068571Y-62738095D01*
X117106666Y-62814285D01*
X117106666Y-62928571D01*
X117068571Y-63004761D01*
X117030476Y-63042857D01*
X116954285Y-63080952D01*
X116649523Y-63080952D01*
X117373333Y-62661904D02*
X117868571Y-62661904D01*
X117601904Y-62966666D01*
X117716190Y-62966666D01*
X117792380Y-63004761D01*
X117830476Y-63042857D01*
X117868571Y-63119047D01*
X117868571Y-63309523D01*
X117830476Y-63385714D01*
X117792380Y-63423809D01*
X117716190Y-63461904D01*
X117487619Y-63461904D01*
X117411428Y-63423809D01*
X117373333Y-63385714D01*
X112266666Y-63461904D02*
X112000000Y-63080952D01*
X111809523Y-63461904D02*
X111809523Y-62661904D01*
X112114285Y-62661904D01*
X112190476Y-62700000D01*
X112228571Y-62738095D01*
X112266666Y-62814285D01*
X112266666Y-62928571D01*
X112228571Y-63004761D01*
X112190476Y-63042857D01*
X112114285Y-63080952D01*
X111809523Y-63080952D01*
X112571428Y-62738095D02*
X112609523Y-62700000D01*
X112685714Y-62661904D01*
X112876190Y-62661904D01*
X112952380Y-62700000D01*
X112990476Y-62738095D01*
X113028571Y-62814285D01*
X113028571Y-62890476D01*
X112990476Y-63004761D01*
X112533333Y-63461904D01*
X113028571Y-63461904D01*
X112280666Y-66461904D02*
X112014000Y-66080952D01*
X111823523Y-66461904D02*
X111823523Y-65661904D01*
X112128285Y-65661904D01*
X112204476Y-65700000D01*
X112242571Y-65738095D01*
X112280666Y-65814285D01*
X112280666Y-65928571D01*
X112242571Y-66004761D01*
X112204476Y-66042857D01*
X112128285Y-66080952D01*
X111823523Y-66080952D01*
X113042571Y-66461904D02*
X112585428Y-66461904D01*
X112814000Y-66461904D02*
X112814000Y-65661904D01*
X112737809Y-65776190D01*
X112661619Y-65852380D01*
X112585428Y-65890476D01*
X132483333Y-92661904D02*
X132483333Y-93233333D01*
X132445238Y-93347619D01*
X132369047Y-93423809D01*
X132254761Y-93461904D01*
X132178571Y-93461904D01*
X132864285Y-93461904D02*
X132864285Y-92661904D01*
X133169047Y-92661904D01*
X133245238Y-92700000D01*
X133283333Y-92738095D01*
X133321428Y-92814285D01*
X133321428Y-92928571D01*
X133283333Y-93004761D01*
X133245238Y-93042857D01*
X133169047Y-93080952D01*
X132864285Y-93080952D01*
X134083333Y-93461904D02*
X133626190Y-93461904D01*
X133854761Y-93461904D02*
X133854761Y-92661904D01*
X133778571Y-92776190D01*
X133702380Y-92852380D01*
X133626190Y-92890476D01*
X134366666Y-57185714D02*
X134328571Y-57223809D01*
X134214285Y-57261904D01*
X134138095Y-57261904D01*
X134023809Y-57223809D01*
X133947619Y-57147619D01*
X133909523Y-57071428D01*
X133871428Y-56919047D01*
X133871428Y-56804761D01*
X133909523Y-56652380D01*
X133947619Y-56576190D01*
X134023809Y-56500000D01*
X134138095Y-56461904D01*
X134214285Y-56461904D01*
X134328571Y-56500000D01*
X134366666Y-56538095D01*
X134633333Y-56461904D02*
X135166666Y-56461904D01*
X134823809Y-57261904D01*
X139466666Y-63285714D02*
X139428571Y-63323809D01*
X139314285Y-63361904D01*
X139238095Y-63361904D01*
X139123809Y-63323809D01*
X139047619Y-63247619D01*
X139009523Y-63171428D01*
X138971428Y-63019047D01*
X138971428Y-62904761D01*
X139009523Y-62752380D01*
X139047619Y-62676190D01*
X139123809Y-62600000D01*
X139238095Y-62561904D01*
X139314285Y-62561904D01*
X139428571Y-62600000D01*
X139466666Y-62638095D01*
X140152380Y-62561904D02*
X140000000Y-62561904D01*
X139923809Y-62600000D01*
X139885714Y-62638095D01*
X139809523Y-62752380D01*
X139771428Y-62904761D01*
X139771428Y-63209523D01*
X139809523Y-63285714D01*
X139847619Y-63323809D01*
X139923809Y-63361904D01*
X140076190Y-63361904D01*
X140152380Y-63323809D01*
X140190476Y-63285714D01*
X140228571Y-63209523D01*
X140228571Y-63019047D01*
X140190476Y-62942857D01*
X140152380Y-62904761D01*
X140076190Y-62866666D01*
X139923809Y-62866666D01*
X139847619Y-62904761D01*
X139809523Y-62942857D01*
X139771428Y-63019047D01*
X139466666Y-71885714D02*
X139428571Y-71923809D01*
X139314285Y-71961904D01*
X139238095Y-71961904D01*
X139123809Y-71923809D01*
X139047619Y-71847619D01*
X139009523Y-71771428D01*
X138971428Y-71619047D01*
X138971428Y-71504761D01*
X139009523Y-71352380D01*
X139047619Y-71276190D01*
X139123809Y-71200000D01*
X139238095Y-71161904D01*
X139314285Y-71161904D01*
X139428571Y-71200000D01*
X139466666Y-71238095D01*
X140190476Y-71161904D02*
X139809523Y-71161904D01*
X139771428Y-71542857D01*
X139809523Y-71504761D01*
X139885714Y-71466666D01*
X140076190Y-71466666D01*
X140152380Y-71504761D01*
X140190476Y-71542857D01*
X140228571Y-71619047D01*
X140228571Y-71809523D01*
X140190476Y-71885714D01*
X140152380Y-71923809D01*
X140076190Y-71961904D01*
X139885714Y-71961904D01*
X139809523Y-71923809D01*
X139771428Y-71885714D01*
X139466666Y-69085714D02*
X139428571Y-69123809D01*
X139314285Y-69161904D01*
X139238095Y-69161904D01*
X139123809Y-69123809D01*
X139047619Y-69047619D01*
X139009523Y-68971428D01*
X138971428Y-68819047D01*
X138971428Y-68704761D01*
X139009523Y-68552380D01*
X139047619Y-68476190D01*
X139123809Y-68400000D01*
X139238095Y-68361904D01*
X139314285Y-68361904D01*
X139428571Y-68400000D01*
X139466666Y-68438095D01*
X140152380Y-68628571D02*
X140152380Y-69161904D01*
X139961904Y-68323809D02*
X139771428Y-68895238D01*
X140266666Y-68895238D01*
X166116666Y-63235714D02*
X166078571Y-63273809D01*
X165964285Y-63311904D01*
X165888095Y-63311904D01*
X165773809Y-63273809D01*
X165697619Y-63197619D01*
X165659523Y-63121428D01*
X165621428Y-62969047D01*
X165621428Y-62854761D01*
X165659523Y-62702380D01*
X165697619Y-62626190D01*
X165773809Y-62550000D01*
X165888095Y-62511904D01*
X165964285Y-62511904D01*
X166078571Y-62550000D01*
X166116666Y-62588095D01*
X166383333Y-62511904D02*
X166878571Y-62511904D01*
X166611904Y-62816666D01*
X166726190Y-62816666D01*
X166802380Y-62854761D01*
X166840476Y-62892857D01*
X166878571Y-62969047D01*
X166878571Y-63159523D01*
X166840476Y-63235714D01*
X166802380Y-63273809D01*
X166726190Y-63311904D01*
X166497619Y-63311904D01*
X166421428Y-63273809D01*
X166383333Y-63235714D01*
X117097666Y-66185714D02*
X117059571Y-66223809D01*
X116945285Y-66261904D01*
X116869095Y-66261904D01*
X116754809Y-66223809D01*
X116678619Y-66147619D01*
X116640523Y-66071428D01*
X116602428Y-65919047D01*
X116602428Y-65804761D01*
X116640523Y-65652380D01*
X116678619Y-65576190D01*
X116754809Y-65500000D01*
X116869095Y-65461904D01*
X116945285Y-65461904D01*
X117059571Y-65500000D01*
X117097666Y-65538095D01*
X117402428Y-65538095D02*
X117440523Y-65500000D01*
X117516714Y-65461904D01*
X117707190Y-65461904D01*
X117783380Y-65500000D01*
X117821476Y-65538095D01*
X117859571Y-65614285D01*
X117859571Y-65690476D01*
X117821476Y-65804761D01*
X117364333Y-66261904D01*
X117859571Y-66261904D01*
X161591666Y-63135714D02*
X161553571Y-63173809D01*
X161439285Y-63211904D01*
X161363095Y-63211904D01*
X161248809Y-63173809D01*
X161172619Y-63097619D01*
X161134523Y-63021428D01*
X161096428Y-62869047D01*
X161096428Y-62754761D01*
X161134523Y-62602380D01*
X161172619Y-62526190D01*
X161248809Y-62450000D01*
X161363095Y-62411904D01*
X161439285Y-62411904D01*
X161553571Y-62450000D01*
X161591666Y-62488095D01*
X162353571Y-63211904D02*
X161896428Y-63211904D01*
X162125000Y-63211904D02*
X162125000Y-62411904D01*
X162048809Y-62526190D01*
X161972619Y-62602380D01*
X161896428Y-62640476D01*
M02*
