G04 #@! TF.GenerationSoftware,KiCad,Pcbnew,(5.1.7)-1*
G04 #@! TF.CreationDate,2020-11-03T16:32:40+01:00*
G04 #@! TF.ProjectId,Timer,54696d65-722e-46b6-9963-61645f706362,rev?*
G04 #@! TF.SameCoordinates,Original*
G04 #@! TF.FileFunction,Soldermask,Top*
G04 #@! TF.FilePolarity,Negative*
%FSLAX46Y46*%
G04 Gerber Fmt 4.6, Leading zero omitted, Abs format (unit mm)*
G04 Created by KiCad (PCBNEW (5.1.7)-1) date 2020-11-03 16:32:40*
%MOMM*%
%LPD*%
G01*
G04 APERTURE LIST*
%ADD10O,1.700000X2.200000*%
%ADD11R,1.700000X2.200000*%
%ADD12R,0.550000X1.500000*%
%ADD13R,1.500000X0.550000*%
%ADD14C,2.000000*%
%ADD15R,2.000000X4.500000*%
%ADD16R,0.600000X2.000000*%
%ADD17C,2.700000*%
%ADD18R,1.700000X1.700000*%
%ADD19C,1.700000*%
%ADD20R,2.000000X2.000000*%
%ADD21R,3.200000X2.000000*%
%ADD22O,2.200000X1.700000*%
%ADD23R,2.200000X1.700000*%
%ADD24O,1.700000X1.700000*%
%ADD25C,3.200000*%
%ADD26C,2.500000*%
%ADD27R,2.170000X2.170000*%
G04 APERTURE END LIST*
D10*
X167195500Y-58928000D03*
X164655500Y-58928000D03*
X169735500Y-58928000D03*
X172275500Y-58928000D03*
X174815500Y-58928000D03*
X177355500Y-58928000D03*
X179895500Y-58928000D03*
D11*
X182435500Y-58928000D03*
D12*
X179076000Y-73034000D03*
X178276000Y-73034000D03*
X177476000Y-73034000D03*
X176676000Y-73034000D03*
X175876000Y-73034000D03*
X175076000Y-73034000D03*
X174276000Y-73034000D03*
X173476000Y-73034000D03*
D13*
X172076000Y-71634000D03*
X172076000Y-70834000D03*
X172076000Y-70034000D03*
X172076000Y-69234000D03*
X172076000Y-68434000D03*
X172076000Y-67634000D03*
X172076000Y-66834000D03*
X172076000Y-66034000D03*
D12*
X173476000Y-64634000D03*
X174276000Y-64634000D03*
X175076000Y-64634000D03*
X175876000Y-64634000D03*
X176676000Y-64634000D03*
X177476000Y-64634000D03*
X178276000Y-64634000D03*
D13*
X180476000Y-66034000D03*
X180476000Y-66834000D03*
X180476000Y-67634000D03*
X180476000Y-68434000D03*
X180476000Y-69234000D03*
X180476000Y-70034000D03*
X180476000Y-70834000D03*
X180476000Y-71634000D03*
D12*
X179076000Y-64634000D03*
G36*
G01*
X160443600Y-82605000D02*
X160443600Y-82305000D01*
G75*
G02*
X160593600Y-82155000I150000J0D01*
G01*
X162343600Y-82155000D01*
G75*
G02*
X162493600Y-82305000I0J-150000D01*
G01*
X162493600Y-82605000D01*
G75*
G02*
X162343600Y-82755000I-150000J0D01*
G01*
X160593600Y-82755000D01*
G75*
G02*
X160443600Y-82605000I0J150000D01*
G01*
G37*
G36*
G01*
X160443600Y-83875000D02*
X160443600Y-83575000D01*
G75*
G02*
X160593600Y-83425000I150000J0D01*
G01*
X162343600Y-83425000D01*
G75*
G02*
X162493600Y-83575000I0J-150000D01*
G01*
X162493600Y-83875000D01*
G75*
G02*
X162343600Y-84025000I-150000J0D01*
G01*
X160593600Y-84025000D01*
G75*
G02*
X160443600Y-83875000I0J150000D01*
G01*
G37*
G36*
G01*
X160443600Y-85145000D02*
X160443600Y-84845000D01*
G75*
G02*
X160593600Y-84695000I150000J0D01*
G01*
X162343600Y-84695000D01*
G75*
G02*
X162493600Y-84845000I0J-150000D01*
G01*
X162493600Y-85145000D01*
G75*
G02*
X162343600Y-85295000I-150000J0D01*
G01*
X160593600Y-85295000D01*
G75*
G02*
X160443600Y-85145000I0J150000D01*
G01*
G37*
G36*
G01*
X160443600Y-86415000D02*
X160443600Y-86115000D01*
G75*
G02*
X160593600Y-85965000I150000J0D01*
G01*
X162343600Y-85965000D01*
G75*
G02*
X162493600Y-86115000I0J-150000D01*
G01*
X162493600Y-86415000D01*
G75*
G02*
X162343600Y-86565000I-150000J0D01*
G01*
X160593600Y-86565000D01*
G75*
G02*
X160443600Y-86415000I0J150000D01*
G01*
G37*
G36*
G01*
X160443600Y-87685000D02*
X160443600Y-87385000D01*
G75*
G02*
X160593600Y-87235000I150000J0D01*
G01*
X162343600Y-87235000D01*
G75*
G02*
X162493600Y-87385000I0J-150000D01*
G01*
X162493600Y-87685000D01*
G75*
G02*
X162343600Y-87835000I-150000J0D01*
G01*
X160593600Y-87835000D01*
G75*
G02*
X160443600Y-87685000I0J150000D01*
G01*
G37*
G36*
G01*
X160443600Y-88955000D02*
X160443600Y-88655000D01*
G75*
G02*
X160593600Y-88505000I150000J0D01*
G01*
X162343600Y-88505000D01*
G75*
G02*
X162493600Y-88655000I0J-150000D01*
G01*
X162493600Y-88955000D01*
G75*
G02*
X162343600Y-89105000I-150000J0D01*
G01*
X160593600Y-89105000D01*
G75*
G02*
X160443600Y-88955000I0J150000D01*
G01*
G37*
G36*
G01*
X160443600Y-90225000D02*
X160443600Y-89925000D01*
G75*
G02*
X160593600Y-89775000I150000J0D01*
G01*
X162343600Y-89775000D01*
G75*
G02*
X162493600Y-89925000I0J-150000D01*
G01*
X162493600Y-90225000D01*
G75*
G02*
X162343600Y-90375000I-150000J0D01*
G01*
X160593600Y-90375000D01*
G75*
G02*
X160443600Y-90225000I0J150000D01*
G01*
G37*
G36*
G01*
X160443600Y-91495000D02*
X160443600Y-91195000D01*
G75*
G02*
X160593600Y-91045000I150000J0D01*
G01*
X162343600Y-91045000D01*
G75*
G02*
X162493600Y-91195000I0J-150000D01*
G01*
X162493600Y-91495000D01*
G75*
G02*
X162343600Y-91645000I-150000J0D01*
G01*
X160593600Y-91645000D01*
G75*
G02*
X160443600Y-91495000I0J150000D01*
G01*
G37*
G36*
G01*
X151143600Y-91495000D02*
X151143600Y-91195000D01*
G75*
G02*
X151293600Y-91045000I150000J0D01*
G01*
X153043600Y-91045000D01*
G75*
G02*
X153193600Y-91195000I0J-150000D01*
G01*
X153193600Y-91495000D01*
G75*
G02*
X153043600Y-91645000I-150000J0D01*
G01*
X151293600Y-91645000D01*
G75*
G02*
X151143600Y-91495000I0J150000D01*
G01*
G37*
G36*
G01*
X151143600Y-90225000D02*
X151143600Y-89925000D01*
G75*
G02*
X151293600Y-89775000I150000J0D01*
G01*
X153043600Y-89775000D01*
G75*
G02*
X153193600Y-89925000I0J-150000D01*
G01*
X153193600Y-90225000D01*
G75*
G02*
X153043600Y-90375000I-150000J0D01*
G01*
X151293600Y-90375000D01*
G75*
G02*
X151143600Y-90225000I0J150000D01*
G01*
G37*
G36*
G01*
X151143600Y-88955000D02*
X151143600Y-88655000D01*
G75*
G02*
X151293600Y-88505000I150000J0D01*
G01*
X153043600Y-88505000D01*
G75*
G02*
X153193600Y-88655000I0J-150000D01*
G01*
X153193600Y-88955000D01*
G75*
G02*
X153043600Y-89105000I-150000J0D01*
G01*
X151293600Y-89105000D01*
G75*
G02*
X151143600Y-88955000I0J150000D01*
G01*
G37*
G36*
G01*
X151143600Y-87685000D02*
X151143600Y-87385000D01*
G75*
G02*
X151293600Y-87235000I150000J0D01*
G01*
X153043600Y-87235000D01*
G75*
G02*
X153193600Y-87385000I0J-150000D01*
G01*
X153193600Y-87685000D01*
G75*
G02*
X153043600Y-87835000I-150000J0D01*
G01*
X151293600Y-87835000D01*
G75*
G02*
X151143600Y-87685000I0J150000D01*
G01*
G37*
G36*
G01*
X151143600Y-86415000D02*
X151143600Y-86115000D01*
G75*
G02*
X151293600Y-85965000I150000J0D01*
G01*
X153043600Y-85965000D01*
G75*
G02*
X153193600Y-86115000I0J-150000D01*
G01*
X153193600Y-86415000D01*
G75*
G02*
X153043600Y-86565000I-150000J0D01*
G01*
X151293600Y-86565000D01*
G75*
G02*
X151143600Y-86415000I0J150000D01*
G01*
G37*
G36*
G01*
X151143600Y-85145000D02*
X151143600Y-84845000D01*
G75*
G02*
X151293600Y-84695000I150000J0D01*
G01*
X153043600Y-84695000D01*
G75*
G02*
X153193600Y-84845000I0J-150000D01*
G01*
X153193600Y-85145000D01*
G75*
G02*
X153043600Y-85295000I-150000J0D01*
G01*
X151293600Y-85295000D01*
G75*
G02*
X151143600Y-85145000I0J150000D01*
G01*
G37*
G36*
G01*
X151143600Y-83875000D02*
X151143600Y-83575000D01*
G75*
G02*
X151293600Y-83425000I150000J0D01*
G01*
X153043600Y-83425000D01*
G75*
G02*
X153193600Y-83575000I0J-150000D01*
G01*
X153193600Y-83875000D01*
G75*
G02*
X153043600Y-84025000I-150000J0D01*
G01*
X151293600Y-84025000D01*
G75*
G02*
X151143600Y-83875000I0J150000D01*
G01*
G37*
G36*
G01*
X151143600Y-82605000D02*
X151143600Y-82305000D01*
G75*
G02*
X151293600Y-82155000I150000J0D01*
G01*
X153043600Y-82155000D01*
G75*
G02*
X153193600Y-82305000I0J-150000D01*
G01*
X153193600Y-82605000D01*
G75*
G02*
X153043600Y-82755000I-150000J0D01*
G01*
X151293600Y-82755000D01*
G75*
G02*
X151143600Y-82605000I0J150000D01*
G01*
G37*
G36*
G01*
X182923601Y-94148600D02*
X182023599Y-94148600D01*
G75*
G02*
X181773600Y-93898601I0J249999D01*
G01*
X181773600Y-93248599D01*
G75*
G02*
X182023599Y-92998600I249999J0D01*
G01*
X182923601Y-92998600D01*
G75*
G02*
X183173600Y-93248599I0J-249999D01*
G01*
X183173600Y-93898601D01*
G75*
G02*
X182923601Y-94148600I-249999J0D01*
G01*
G37*
G36*
G01*
X182923601Y-96198600D02*
X182023599Y-96198600D01*
G75*
G02*
X181773600Y-95948601I0J249999D01*
G01*
X181773600Y-95298599D01*
G75*
G02*
X182023599Y-95048600I249999J0D01*
G01*
X182923601Y-95048600D01*
G75*
G02*
X183173600Y-95298599I0J-249999D01*
G01*
X183173600Y-95948601D01*
G75*
G02*
X182923601Y-96198600I-249999J0D01*
G01*
G37*
G36*
G01*
X164543599Y-86699400D02*
X165443601Y-86699400D01*
G75*
G02*
X165693600Y-86949399I0J-249999D01*
G01*
X165693600Y-87599401D01*
G75*
G02*
X165443601Y-87849400I-249999J0D01*
G01*
X164543599Y-87849400D01*
G75*
G02*
X164293600Y-87599401I0J249999D01*
G01*
X164293600Y-86949399D01*
G75*
G02*
X164543599Y-86699400I249999J0D01*
G01*
G37*
G36*
G01*
X164543599Y-84649400D02*
X165443601Y-84649400D01*
G75*
G02*
X165693600Y-84899399I0J-249999D01*
G01*
X165693600Y-85549401D01*
G75*
G02*
X165443601Y-85799400I-249999J0D01*
G01*
X164543599Y-85799400D01*
G75*
G02*
X164293600Y-85549401I0J249999D01*
G01*
X164293600Y-84899399D01*
G75*
G02*
X164543599Y-84649400I249999J0D01*
G01*
G37*
G36*
G01*
X124550000Y-95999999D02*
X124550000Y-96900001D01*
G75*
G02*
X124300001Y-97150000I-249999J0D01*
G01*
X123649999Y-97150000D01*
G75*
G02*
X123400000Y-96900001I0J249999D01*
G01*
X123400000Y-95999999D01*
G75*
G02*
X123649999Y-95750000I249999J0D01*
G01*
X124300001Y-95750000D01*
G75*
G02*
X124550000Y-95999999I0J-249999D01*
G01*
G37*
G36*
G01*
X126600000Y-95999999D02*
X126600000Y-96900001D01*
G75*
G02*
X126350001Y-97150000I-249999J0D01*
G01*
X125699999Y-97150000D01*
G75*
G02*
X125450000Y-96900001I0J249999D01*
G01*
X125450000Y-95999999D01*
G75*
G02*
X125699999Y-95750000I249999J0D01*
G01*
X126350001Y-95750000D01*
G75*
G02*
X126600000Y-95999999I0J-249999D01*
G01*
G37*
G36*
G01*
X119450000Y-95949999D02*
X119450000Y-96850001D01*
G75*
G02*
X119200001Y-97100000I-249999J0D01*
G01*
X118549999Y-97100000D01*
G75*
G02*
X118300000Y-96850001I0J249999D01*
G01*
X118300000Y-95949999D01*
G75*
G02*
X118549999Y-95700000I249999J0D01*
G01*
X119200001Y-95700000D01*
G75*
G02*
X119450000Y-95949999I0J-249999D01*
G01*
G37*
G36*
G01*
X121500000Y-95949999D02*
X121500000Y-96850001D01*
G75*
G02*
X121250001Y-97100000I-249999J0D01*
G01*
X120599999Y-97100000D01*
G75*
G02*
X120350000Y-96850001I0J249999D01*
G01*
X120350000Y-95949999D01*
G75*
G02*
X120599999Y-95700000I249999J0D01*
G01*
X121250001Y-95700000D01*
G75*
G02*
X121500000Y-95949999I0J-249999D01*
G01*
G37*
G36*
G01*
X125450000Y-94100001D02*
X125450000Y-93199999D01*
G75*
G02*
X125699999Y-92950000I249999J0D01*
G01*
X126350001Y-92950000D01*
G75*
G02*
X126600000Y-93199999I0J-249999D01*
G01*
X126600000Y-94100001D01*
G75*
G02*
X126350001Y-94350000I-249999J0D01*
G01*
X125699999Y-94350000D01*
G75*
G02*
X125450000Y-94100001I0J249999D01*
G01*
G37*
G36*
G01*
X123400000Y-94100001D02*
X123400000Y-93199999D01*
G75*
G02*
X123649999Y-92950000I249999J0D01*
G01*
X124300001Y-92950000D01*
G75*
G02*
X124550000Y-93199999I0J-249999D01*
G01*
X124550000Y-94100001D01*
G75*
G02*
X124300001Y-94350000I-249999J0D01*
G01*
X123649999Y-94350000D01*
G75*
G02*
X123400000Y-94100001I0J249999D01*
G01*
G37*
G36*
G01*
X120350000Y-94200001D02*
X120350000Y-93299999D01*
G75*
G02*
X120599999Y-93050000I249999J0D01*
G01*
X121250001Y-93050000D01*
G75*
G02*
X121500000Y-93299999I0J-249999D01*
G01*
X121500000Y-94200001D01*
G75*
G02*
X121250001Y-94450000I-249999J0D01*
G01*
X120599999Y-94450000D01*
G75*
G02*
X120350000Y-94200001I0J249999D01*
G01*
G37*
G36*
G01*
X118300000Y-94200001D02*
X118300000Y-93299999D01*
G75*
G02*
X118549999Y-93050000I249999J0D01*
G01*
X119200001Y-93050000D01*
G75*
G02*
X119450000Y-93299999I0J-249999D01*
G01*
X119450000Y-94200001D01*
G75*
G02*
X119200001Y-94450000I-249999J0D01*
G01*
X118549999Y-94450000D01*
G75*
G02*
X118300000Y-94200001I0J249999D01*
G01*
G37*
D14*
X132218000Y-89902000D03*
X132218000Y-85402000D03*
X138718000Y-89902000D03*
X138718000Y-85402000D03*
X122107000Y-89902000D03*
X122107000Y-85402000D03*
X128607000Y-89902000D03*
X128607000Y-85402000D03*
X111996000Y-89902000D03*
X111996000Y-85402000D03*
X118496000Y-89902000D03*
X118496000Y-85402000D03*
X132218000Y-82080000D03*
X132218000Y-77580000D03*
X138718000Y-82080000D03*
X138718000Y-77580000D03*
X122107000Y-82080000D03*
X122107000Y-77580000D03*
X128607000Y-82080000D03*
X128607000Y-77580000D03*
X111996000Y-82080000D03*
X111996000Y-77580000D03*
X118496000Y-82080000D03*
X118496000Y-77580000D03*
D15*
X187706000Y-74100000D03*
X187706000Y-65600000D03*
D16*
X115697000Y-64134000D03*
X116967000Y-64134000D03*
X118237000Y-64134000D03*
X119507000Y-64134000D03*
X120777000Y-64134000D03*
X122047000Y-64134000D03*
X123317000Y-64134000D03*
X124587000Y-64134000D03*
X125857000Y-64134000D03*
X127127000Y-64134000D03*
X128397000Y-64134000D03*
X129667000Y-64134000D03*
X130937000Y-64134000D03*
X132207000Y-64134000D03*
X132207000Y-73534000D03*
X130937000Y-73534000D03*
X129667000Y-73534000D03*
X128397000Y-73534000D03*
X127127000Y-73534000D03*
X125857000Y-73534000D03*
X124587000Y-73534000D03*
X123317000Y-73534000D03*
X122047000Y-73534000D03*
X120777000Y-73534000D03*
X119507000Y-73534000D03*
X118237000Y-73534000D03*
X116967000Y-73534000D03*
X115697000Y-73534000D03*
D17*
X144443600Y-71150000D03*
X167643600Y-95150000D03*
X144443600Y-95150000D03*
X167643600Y-71150000D03*
D18*
X152043600Y-70350000D03*
D19*
X154583600Y-70350000D03*
X157123600Y-70350000D03*
X159663600Y-70350000D03*
D20*
X173400000Y-81700000D03*
D14*
X173400000Y-84200000D03*
X173400000Y-86700000D03*
D21*
X180900000Y-78600000D03*
X180900000Y-89800000D03*
D14*
X187900000Y-81700000D03*
X187900000Y-86700000D03*
G36*
G01*
X138575201Y-65793200D02*
X137675199Y-65793200D01*
G75*
G02*
X137425200Y-65543201I0J249999D01*
G01*
X137425200Y-64893199D01*
G75*
G02*
X137675199Y-64643200I249999J0D01*
G01*
X138575201Y-64643200D01*
G75*
G02*
X138825200Y-64893199I0J-249999D01*
G01*
X138825200Y-65543201D01*
G75*
G02*
X138575201Y-65793200I-249999J0D01*
G01*
G37*
G36*
G01*
X138575201Y-67843200D02*
X137675199Y-67843200D01*
G75*
G02*
X137425200Y-67593201I0J249999D01*
G01*
X137425200Y-66943199D01*
G75*
G02*
X137675199Y-66693200I249999J0D01*
G01*
X138575201Y-66693200D01*
G75*
G02*
X138825200Y-66943199I0J-249999D01*
G01*
X138825200Y-67593201D01*
G75*
G02*
X138575201Y-67843200I-249999J0D01*
G01*
G37*
G36*
G01*
X137675199Y-71722400D02*
X138575201Y-71722400D01*
G75*
G02*
X138825200Y-71972399I0J-249999D01*
G01*
X138825200Y-72622401D01*
G75*
G02*
X138575201Y-72872400I-249999J0D01*
G01*
X137675199Y-72872400D01*
G75*
G02*
X137425200Y-72622401I0J249999D01*
G01*
X137425200Y-71972399D01*
G75*
G02*
X137675199Y-71722400I249999J0D01*
G01*
G37*
G36*
G01*
X137675199Y-69672400D02*
X138575201Y-69672400D01*
G75*
G02*
X138825200Y-69922399I0J-249999D01*
G01*
X138825200Y-70572401D01*
G75*
G02*
X138575201Y-70822400I-249999J0D01*
G01*
X137675199Y-70822400D01*
G75*
G02*
X137425200Y-70572401I0J249999D01*
G01*
X137425200Y-69922399D01*
G75*
G02*
X137675199Y-69672400I249999J0D01*
G01*
G37*
G36*
G01*
X134881199Y-71722400D02*
X135781201Y-71722400D01*
G75*
G02*
X136031200Y-71972399I0J-249999D01*
G01*
X136031200Y-72622401D01*
G75*
G02*
X135781201Y-72872400I-249999J0D01*
G01*
X134881199Y-72872400D01*
G75*
G02*
X134631200Y-72622401I0J249999D01*
G01*
X134631200Y-71972399D01*
G75*
G02*
X134881199Y-71722400I249999J0D01*
G01*
G37*
G36*
G01*
X134881199Y-69672400D02*
X135781201Y-69672400D01*
G75*
G02*
X136031200Y-69922399I0J-249999D01*
G01*
X136031200Y-70572401D01*
G75*
G02*
X135781201Y-70822400I-249999J0D01*
G01*
X134881199Y-70822400D01*
G75*
G02*
X134631200Y-70572401I0J249999D01*
G01*
X134631200Y-69922399D01*
G75*
G02*
X134881199Y-69672400I249999J0D01*
G01*
G37*
G36*
G01*
X148989201Y-78239200D02*
X148089199Y-78239200D01*
G75*
G02*
X147839200Y-77989201I0J249999D01*
G01*
X147839200Y-77339199D01*
G75*
G02*
X148089199Y-77089200I249999J0D01*
G01*
X148989201Y-77089200D01*
G75*
G02*
X149239200Y-77339199I0J-249999D01*
G01*
X149239200Y-77989201D01*
G75*
G02*
X148989201Y-78239200I-249999J0D01*
G01*
G37*
G36*
G01*
X148989201Y-80289200D02*
X148089199Y-80289200D01*
G75*
G02*
X147839200Y-80039201I0J249999D01*
G01*
X147839200Y-79389199D01*
G75*
G02*
X148089199Y-79139200I249999J0D01*
G01*
X148989201Y-79139200D01*
G75*
G02*
X149239200Y-79389199I0J-249999D01*
G01*
X149239200Y-80039201D01*
G75*
G02*
X148989201Y-80289200I-249999J0D01*
G01*
G37*
D22*
X177115800Y-95862000D03*
D23*
X177115800Y-93322000D03*
D10*
X121158000Y-58928000D03*
X118618000Y-58928000D03*
X123698000Y-58928000D03*
X126238000Y-58928000D03*
X128778000Y-58928000D03*
X131318000Y-58928000D03*
X133858000Y-58928000D03*
D11*
X136398000Y-58928000D03*
D10*
X139852400Y-58928000D03*
X142392400Y-58928000D03*
X144932400Y-58928000D03*
D11*
X147472400Y-58928000D03*
D10*
X150926800Y-58928000D03*
X153466800Y-58928000D03*
X156006800Y-58928000D03*
X158546800Y-58928000D03*
D11*
X161086800Y-58928000D03*
D24*
X162204400Y-65786000D03*
X159664400Y-65786000D03*
X157124400Y-65786000D03*
X154584400Y-65786000D03*
X152044400Y-65786000D03*
D18*
X149504400Y-65786000D03*
D25*
X187452000Y-94894400D03*
X187500000Y-59400000D03*
X113500000Y-94996000D03*
X113450000Y-59400000D03*
G36*
G01*
X183191999Y-75227600D02*
X184092001Y-75227600D01*
G75*
G02*
X184342000Y-75477599I0J-249999D01*
G01*
X184342000Y-76127601D01*
G75*
G02*
X184092001Y-76377600I-249999J0D01*
G01*
X183191999Y-76377600D01*
G75*
G02*
X182942000Y-76127601I0J249999D01*
G01*
X182942000Y-75477599D01*
G75*
G02*
X183191999Y-75227600I249999J0D01*
G01*
G37*
G36*
G01*
X183191999Y-73177600D02*
X184092001Y-73177600D01*
G75*
G02*
X184342000Y-73427599I0J-249999D01*
G01*
X184342000Y-74077601D01*
G75*
G02*
X184092001Y-74327600I-249999J0D01*
G01*
X183191999Y-74327600D01*
G75*
G02*
X182942000Y-74077601I0J249999D01*
G01*
X182942000Y-73427599D01*
G75*
G02*
X183191999Y-73177600I249999J0D01*
G01*
G37*
G36*
G01*
X183191999Y-65474000D02*
X184092001Y-65474000D01*
G75*
G02*
X184342000Y-65723999I0J-249999D01*
G01*
X184342000Y-66374001D01*
G75*
G02*
X184092001Y-66624000I-249999J0D01*
G01*
X183191999Y-66624000D01*
G75*
G02*
X182942000Y-66374001I0J249999D01*
G01*
X182942000Y-65723999D01*
G75*
G02*
X183191999Y-65474000I249999J0D01*
G01*
G37*
G36*
G01*
X183191999Y-63424000D02*
X184092001Y-63424000D01*
G75*
G02*
X184342000Y-63673999I0J-249999D01*
G01*
X184342000Y-64324001D01*
G75*
G02*
X184092001Y-64574000I-249999J0D01*
G01*
X183191999Y-64574000D01*
G75*
G02*
X182942000Y-64324001I0J249999D01*
G01*
X182942000Y-63673999D01*
G75*
G02*
X183191999Y-63424000I249999J0D01*
G01*
G37*
G36*
G01*
X184092001Y-69400000D02*
X183191999Y-69400000D01*
G75*
G02*
X182942000Y-69150001I0J249999D01*
G01*
X182942000Y-68499999D01*
G75*
G02*
X183191999Y-68250000I249999J0D01*
G01*
X184092001Y-68250000D01*
G75*
G02*
X184342000Y-68499999I0J-249999D01*
G01*
X184342000Y-69150001D01*
G75*
G02*
X184092001Y-69400000I-249999J0D01*
G01*
G37*
G36*
G01*
X184092001Y-71450000D02*
X183191999Y-71450000D01*
G75*
G02*
X182942000Y-71200001I0J249999D01*
G01*
X182942000Y-70549999D01*
G75*
G02*
X183191999Y-70300000I249999J0D01*
G01*
X184092001Y-70300000D01*
G75*
G02*
X184342000Y-70549999I0J-249999D01*
G01*
X184342000Y-71200001D01*
G75*
G02*
X184092001Y-71450000I-249999J0D01*
G01*
G37*
G36*
G01*
X135781201Y-65793200D02*
X134881199Y-65793200D01*
G75*
G02*
X134631200Y-65543201I0J249999D01*
G01*
X134631200Y-64893199D01*
G75*
G02*
X134881199Y-64643200I249999J0D01*
G01*
X135781201Y-64643200D01*
G75*
G02*
X136031200Y-64893199I0J-249999D01*
G01*
X136031200Y-65543201D01*
G75*
G02*
X135781201Y-65793200I-249999J0D01*
G01*
G37*
G36*
G01*
X135781201Y-67843200D02*
X134881199Y-67843200D01*
G75*
G02*
X134631200Y-67593201I0J249999D01*
G01*
X134631200Y-66943199D01*
G75*
G02*
X134881199Y-66693200I249999J0D01*
G01*
X135781201Y-66693200D01*
G75*
G02*
X136031200Y-66943199I0J-249999D01*
G01*
X136031200Y-67593201D01*
G75*
G02*
X135781201Y-67843200I-249999J0D01*
G01*
G37*
G36*
G01*
X112464001Y-68130000D02*
X111563999Y-68130000D01*
G75*
G02*
X111314000Y-67880001I0J249999D01*
G01*
X111314000Y-67229999D01*
G75*
G02*
X111563999Y-66980000I249999J0D01*
G01*
X112464001Y-66980000D01*
G75*
G02*
X112714000Y-67229999I0J-249999D01*
G01*
X112714000Y-67880001D01*
G75*
G02*
X112464001Y-68130000I-249999J0D01*
G01*
G37*
G36*
G01*
X112464001Y-70180000D02*
X111563999Y-70180000D01*
G75*
G02*
X111314000Y-69930001I0J249999D01*
G01*
X111314000Y-69279999D01*
G75*
G02*
X111563999Y-69030000I249999J0D01*
G01*
X112464001Y-69030000D01*
G75*
G02*
X112714000Y-69279999I0J-249999D01*
G01*
X112714000Y-69930001D01*
G75*
G02*
X112464001Y-70180000I-249999J0D01*
G01*
G37*
G36*
G01*
X148089199Y-86699400D02*
X148989201Y-86699400D01*
G75*
G02*
X149239200Y-86949399I0J-249999D01*
G01*
X149239200Y-87599401D01*
G75*
G02*
X148989201Y-87849400I-249999J0D01*
G01*
X148089199Y-87849400D01*
G75*
G02*
X147839200Y-87599401I0J249999D01*
G01*
X147839200Y-86949399D01*
G75*
G02*
X148089199Y-86699400I249999J0D01*
G01*
G37*
G36*
G01*
X148089199Y-84649400D02*
X148989201Y-84649400D01*
G75*
G02*
X149239200Y-84899399I0J-249999D01*
G01*
X149239200Y-85549401D01*
G75*
G02*
X148989201Y-85799400I-249999J0D01*
G01*
X148089199Y-85799400D01*
G75*
G02*
X147839200Y-85549401I0J249999D01*
G01*
X147839200Y-84899399D01*
G75*
G02*
X148089199Y-84649400I249999J0D01*
G01*
G37*
G36*
G01*
X144838000Y-65285199D02*
X144838000Y-66185201D01*
G75*
G02*
X144588001Y-66435200I-249999J0D01*
G01*
X143937999Y-66435200D01*
G75*
G02*
X143688000Y-66185201I0J249999D01*
G01*
X143688000Y-65285199D01*
G75*
G02*
X143937999Y-65035200I249999J0D01*
G01*
X144588001Y-65035200D01*
G75*
G02*
X144838000Y-65285199I0J-249999D01*
G01*
G37*
G36*
G01*
X146888000Y-65285199D02*
X146888000Y-66185201D01*
G75*
G02*
X146638001Y-66435200I-249999J0D01*
G01*
X145987999Y-66435200D01*
G75*
G02*
X145738000Y-66185201I0J249999D01*
G01*
X145738000Y-65285199D01*
G75*
G02*
X145987999Y-65035200I249999J0D01*
G01*
X146638001Y-65035200D01*
G75*
G02*
X146888000Y-65285199I0J-249999D01*
G01*
G37*
D26*
X156225000Y-73609200D03*
D27*
X156225000Y-93609200D03*
M02*
