M48
; DRILL file {KiCad (5.1.7)-1} date 11/03/20 16:32:42
; FORMAT={-:-/ absolute / inch / decimal}
; #@! TF.CreationDate,2020-11-03T16:32:42+01:00
; #@! TF.GenerationSoftware,Kicad,Pcbnew,(5.1.7)-1
; #@! TF.FileFunction,Plated,1,2,PTH
FMAT,2
INCH
T1C0.0157
T2C0.0394
T3C0.0433
T4C0.0461
T5C0.0591
%
G90
G05
T1
X4.608Y-2.43
X4.664Y-3.628
X4.79Y-2.796
X4.906Y-2.818
X4.938Y-2.69
X4.95Y-2.6
X5.044Y-2.396
X5.072Y-2.82
X5.132Y-2.41
X5.228Y-2.41
X5.264Y-2.51
X5.318Y-3.012
X5.38Y-2.61
X5.544Y-2.824
X5.9103Y-3.2963
X5.914Y-3.38
X6.25Y-3.414
X6.274Y-3.228
X6.424Y-3.388
X6.444Y-3.272
X6.488Y-2.798
X6.488Y-3.008
X6.518Y-2.586
X6.852Y-2.602
X6.9298Y-2.7442
X6.948Y-2.626
X6.964Y-3.18
X7.0Y-2.968
X7.014Y-2.76
X7.032Y-2.41
X7.04Y-2.622
X7.046Y-2.726
X7.0473Y-2.81
X7.13Y-2.402
X7.154Y-2.528
X7.286Y-2.836
X7.386Y-2.748
T2
X6.8268Y-3.2165
X6.8268Y-3.315
X6.8268Y-3.4134
X7.3976Y-3.2165
X7.3976Y-3.4134
X4.67Y-2.32
X4.77Y-2.32
X4.87Y-2.32
X4.97Y-2.32
X5.07Y-2.32
X5.17Y-2.32
X5.27Y-2.32
X5.37Y-2.32
X5.886Y-2.59
X5.986Y-2.59
X6.086Y-2.59
X6.186Y-2.59
X6.286Y-2.59
X6.386Y-2.59
X6.9731Y-3.6741
X6.9731Y-3.7741
X5.986Y-2.7697
X6.086Y-2.7697
X6.186Y-2.7697
X6.286Y-2.7697
X5.942Y-2.32
X6.042Y-2.32
X6.142Y-2.32
X6.242Y-2.32
X6.342Y-2.32
X5.506Y-2.32
X5.606Y-2.32
X5.706Y-2.32
X5.806Y-2.32
X6.4825Y-2.32
X6.5825Y-2.32
X6.6825Y-2.32
X6.7825Y-2.32
X6.8825Y-2.32
X6.9825Y-2.32
X7.0825Y-2.32
X7.1825Y-2.32
T3
X4.4093Y-3.3623
X4.4093Y-3.5394
X4.6652Y-3.3623
X4.6652Y-3.5394
X4.8074Y-3.0543
X4.8074Y-3.2315
X5.0633Y-3.0543
X5.0633Y-3.2315
X4.8074Y-3.3623
X4.8074Y-3.5394
X5.0633Y-3.3623
X5.0633Y-3.5394
X5.2054Y-3.0543
X5.2054Y-3.2315
X5.4613Y-3.0543
X5.4613Y-3.2315
X5.2054Y-3.3623
X5.2054Y-3.5394
X5.4613Y-3.3623
X5.4613Y-3.5394
X4.4093Y-3.0543
X4.4093Y-3.2315
X4.6652Y-3.0543
X4.6652Y-3.2315
T4
X6.1506Y-3.6854
T5
X6.1506Y-2.898
T5
G00X7.0965Y-3.0945
M15
G01X7.1476Y-3.0945
M16
G05
G00X7.0965Y-3.5354
M15
G01X7.1476Y-3.5354
M16
G05
T0
M30
