G04 #@! TF.GenerationSoftware,KiCad,Pcbnew,(5.1.7)-1*
G04 #@! TF.CreationDate,2020-11-03T10:40:30+01:00*
G04 #@! TF.ProjectId,Timer,54696d65-722e-46b6-9963-61645f706362,rev?*
G04 #@! TF.SameCoordinates,Original*
G04 #@! TF.FileFunction,Soldermask,Bot*
G04 #@! TF.FilePolarity,Negative*
%FSLAX46Y46*%
G04 Gerber Fmt 4.6, Leading zero omitted, Abs format (unit mm)*
G04 Created by KiCad (PCBNEW (5.1.7)-1) date 2020-11-03 10:40:30*
%MOMM*%
%LPD*%
G01*
G04 APERTURE LIST*
%ADD10O,1.700000X2.200000*%
%ADD11R,1.700000X2.200000*%
%ADD12C,2.000000*%
%ADD13C,2.700000*%
%ADD14R,1.700000X1.700000*%
%ADD15C,1.700000*%
%ADD16R,2.000000X2.000000*%
%ADD17R,3.200000X2.000000*%
%ADD18O,1.700000X1.700000*%
%ADD19O,2.200000X1.700000*%
%ADD20R,2.200000X1.700000*%
%ADD21C,3.200000*%
%ADD22C,2.500000*%
%ADD23R,2.170000X2.170000*%
G04 APERTURE END LIST*
D10*
X139440000Y-58900000D03*
X141980000Y-58900000D03*
X144520000Y-58900000D03*
X147060000Y-58900000D03*
D11*
X149600000Y-58900000D03*
D12*
X132218000Y-89902000D03*
X132218000Y-85402000D03*
X138718000Y-89902000D03*
X138718000Y-85402000D03*
X122107000Y-89902000D03*
X122107000Y-85402000D03*
X128607000Y-89902000D03*
X128607000Y-85402000D03*
X111996000Y-89902000D03*
X111996000Y-85402000D03*
X118496000Y-89902000D03*
X118496000Y-85402000D03*
X132218000Y-82080000D03*
X132218000Y-77580000D03*
X138718000Y-82080000D03*
X138718000Y-77580000D03*
X122107000Y-82080000D03*
X122107000Y-77580000D03*
X128607000Y-82080000D03*
X128607000Y-77580000D03*
X111996000Y-82080000D03*
X111996000Y-77580000D03*
X118496000Y-82080000D03*
X118496000Y-77580000D03*
D13*
X144850000Y-71150000D03*
X168050000Y-95150000D03*
X144850000Y-95150000D03*
X168050000Y-71150000D03*
D14*
X152450000Y-70350000D03*
D15*
X154990000Y-70350000D03*
X157530000Y-70350000D03*
X160070000Y-70350000D03*
D16*
X173400000Y-81700000D03*
D12*
X173400000Y-84200000D03*
X173400000Y-86700000D03*
D17*
X180900000Y-78600000D03*
X180900000Y-89800000D03*
D12*
X187900000Y-81700000D03*
X187900000Y-86700000D03*
D18*
X131718000Y-95377000D03*
D14*
X134258000Y-95377000D03*
D19*
X178950000Y-96070000D03*
D20*
X178950000Y-93530000D03*
D10*
X167190000Y-58928000D03*
X164650000Y-58928000D03*
X169730000Y-58928000D03*
X172270000Y-58928000D03*
X174810000Y-58928000D03*
X177350000Y-58928000D03*
X179890000Y-58928000D03*
D11*
X182430000Y-58928000D03*
D10*
X153220000Y-58928000D03*
X155760000Y-58928000D03*
X158300000Y-58928000D03*
D11*
X160840000Y-58928000D03*
D10*
X119018000Y-58928000D03*
X121558000Y-58928000D03*
X124098000Y-58928000D03*
X126638000Y-58928000D03*
D11*
X129178000Y-58928000D03*
D18*
X144000000Y-66750000D03*
X146540000Y-66750000D03*
X149080000Y-66750000D03*
X151620000Y-66750000D03*
X154160000Y-66750000D03*
D14*
X156700000Y-66750000D03*
D21*
X187500000Y-94900000D03*
X187500000Y-59400000D03*
X113500000Y-94996000D03*
X113500000Y-59500000D03*
D22*
X143850000Y-82950000D03*
D23*
X163850000Y-82950000D03*
M02*
