M48
; DRILL file {KiCad (5.1.7)-1} date 11/03/20 10:40:33
; FORMAT={-:-/ absolute / inch / decimal}
; #@! TF.CreationDate,2020-11-03T10:40:33+01:00
; #@! TF.GenerationSoftware,Kicad,Pcbnew,(5.1.7)-1
; #@! TF.FileFunction,Plated,1,2,PTH
FMAT,2
INCH
T1C0.0157
T2C0.0394
T3C0.0433
T4C0.0461
T5C0.0591
%
G90
G05
T1
X4.3701Y-2.4567
X4.378Y-2.7087
X4.5118Y-2.7717
X4.5197Y-2.5906
X4.5689Y-3.5492
X4.6161Y-3.6476
X4.6417Y-2.7165
X4.6752Y-2.874
X4.7618Y-2.8642
X4.7657Y-2.3976
X4.815Y-2.4409
X4.8346Y-2.9134
X4.8386Y-2.7087
X4.872Y-2.8051
X4.874Y-2.7372
X4.878Y-2.9291
X4.8819Y-2.5886
X4.9232Y-2.5886
X4.9311Y-2.7736
X4.9724Y-2.439
X5.002Y-2.6801
X5.0256Y-2.6437
X5.0492Y-2.6102
X5.1142Y-2.5197
X5.1555Y-2.2992
X5.1988Y-2.8543
X5.2441Y-2.6654
X5.3386Y-2.6614
X5.378Y-2.8898
X5.3937Y-2.2835
X5.4173Y-2.6417
X5.6122Y-2.7717
X5.6142Y-2.8819
X6.3465Y-2.6772
X6.4488Y-2.7047
X6.4528Y-2.5787
X6.5965Y-2.6516
X6.6634Y-3.1791
X6.6969Y-2.4488
X6.8091Y-2.7028
X6.8583Y-2.7736
X6.9232Y-2.7894
X6.939Y-2.6772
X6.9449Y-2.4173
X7.1181Y-3.0157
X7.2008Y-2.628
X7.2539Y-2.8248
X7.2657Y-2.6004
X7.311Y-3.0906
X7.3976Y-3.311
T2
X5.6693Y-2.628
X5.7693Y-2.628
X5.8693Y-2.628
X5.9693Y-2.628
X6.0693Y-2.628
X6.1693Y-2.628
X6.002Y-2.7697
X6.102Y-2.7697
X6.202Y-2.7697
X6.302Y-2.7697
X6.8268Y-3.2165
X6.8268Y-3.315
X6.8268Y-3.4134
X7.3976Y-3.2165
X7.3976Y-3.4134
X5.4898Y-2.3189
X5.5898Y-2.3189
X5.6898Y-2.3189
X5.7898Y-2.3189
X5.8898Y-2.3189
X7.0453Y-3.6823
X7.0453Y-3.7823
X6.4823Y-2.32
X6.5823Y-2.32
X6.6823Y-2.32
X6.7823Y-2.32
X6.8823Y-2.32
X6.9823Y-2.32
X7.0823Y-2.32
X7.1823Y-2.32
X6.0323Y-2.32
X6.1323Y-2.32
X6.2323Y-2.32
X6.3323Y-2.32
X5.1857Y-3.755
X5.2857Y-3.755
X4.6857Y-2.32
X4.7857Y-2.32
X4.8857Y-2.32
X4.9857Y-2.32
X5.0857Y-2.32
T3
X5.2054Y-3.0543
X5.2054Y-3.2315
X5.4613Y-3.0543
X5.4613Y-3.2315
X4.4093Y-3.3623
X4.4093Y-3.5394
X4.6652Y-3.3623
X4.6652Y-3.5394
X4.8074Y-3.3623
X4.8074Y-3.5394
X5.0633Y-3.3623
X5.0633Y-3.5394
X5.2054Y-3.3623
X5.2054Y-3.5394
X5.4613Y-3.3623
X5.4613Y-3.5394
X4.8074Y-3.0543
X4.8074Y-3.2315
X5.0633Y-3.0543
X5.0633Y-3.2315
X4.4093Y-3.0543
X4.4093Y-3.2315
X4.6652Y-3.0543
X4.6652Y-3.2315
T4
X6.4508Y-3.2657
T5
X5.6634Y-3.2657
T5
G00X7.0965Y-3.0945
M15
G01X7.1476Y-3.0945
M16
G05
G00X7.0965Y-3.5354
M15
G01X7.1476Y-3.5354
M16
G05
T0
M30
