G04 #@! TF.GenerationSoftware,KiCad,Pcbnew,(5.1.7)-1*
G04 #@! TF.CreationDate,2020-11-03T10:40:30+01:00*
G04 #@! TF.ProjectId,Timer,54696d65-722e-46b6-9963-61645f706362,rev?*
G04 #@! TF.SameCoordinates,Original*
G04 #@! TF.FileFunction,Soldermask,Top*
G04 #@! TF.FilePolarity,Negative*
%FSLAX46Y46*%
G04 Gerber Fmt 4.6, Leading zero omitted, Abs format (unit mm)*
G04 Created by KiCad (PCBNEW (5.1.7)-1) date 2020-11-03 10:40:30*
%MOMM*%
%LPD*%
G01*
G04 APERTURE LIST*
%ADD10O,1.700000X2.200000*%
%ADD11R,1.700000X2.200000*%
%ADD12C,2.000000*%
%ADD13R,2.000000X4.500000*%
%ADD14R,1.500000X0.550000*%
%ADD15R,0.550000X1.500000*%
%ADD16R,0.600000X2.000000*%
%ADD17C,2.700000*%
%ADD18R,1.700000X1.700000*%
%ADD19C,1.700000*%
%ADD20R,2.000000X2.000000*%
%ADD21R,3.200000X2.000000*%
%ADD22O,1.700000X1.700000*%
%ADD23O,2.200000X1.700000*%
%ADD24R,2.200000X1.700000*%
%ADD25C,3.200000*%
%ADD26C,2.500000*%
%ADD27R,2.170000X2.170000*%
G04 APERTURE END LIST*
G36*
G01*
X125450000Y-96900001D02*
X125450000Y-95999999D01*
G75*
G02*
X125699999Y-95750000I249999J0D01*
G01*
X126350001Y-95750000D01*
G75*
G02*
X126600000Y-95999999I0J-249999D01*
G01*
X126600000Y-96900001D01*
G75*
G02*
X126350001Y-97150000I-249999J0D01*
G01*
X125699999Y-97150000D01*
G75*
G02*
X125450000Y-96900001I0J249999D01*
G01*
G37*
G36*
G01*
X123400000Y-96900001D02*
X123400000Y-95999999D01*
G75*
G02*
X123649999Y-95750000I249999J0D01*
G01*
X124300001Y-95750000D01*
G75*
G02*
X124550000Y-95999999I0J-249999D01*
G01*
X124550000Y-96900001D01*
G75*
G02*
X124300001Y-97150000I-249999J0D01*
G01*
X123649999Y-97150000D01*
G75*
G02*
X123400000Y-96900001I0J249999D01*
G01*
G37*
G36*
G01*
X120350000Y-96850001D02*
X120350000Y-95949999D01*
G75*
G02*
X120599999Y-95700000I249999J0D01*
G01*
X121250001Y-95700000D01*
G75*
G02*
X121500000Y-95949999I0J-249999D01*
G01*
X121500000Y-96850001D01*
G75*
G02*
X121250001Y-97100000I-249999J0D01*
G01*
X120599999Y-97100000D01*
G75*
G02*
X120350000Y-96850001I0J249999D01*
G01*
G37*
G36*
G01*
X118300000Y-96850001D02*
X118300000Y-95949999D01*
G75*
G02*
X118549999Y-95700000I249999J0D01*
G01*
X119200001Y-95700000D01*
G75*
G02*
X119450000Y-95949999I0J-249999D01*
G01*
X119450000Y-96850001D01*
G75*
G02*
X119200001Y-97100000I-249999J0D01*
G01*
X118549999Y-97100000D01*
G75*
G02*
X118300000Y-96850001I0J249999D01*
G01*
G37*
G36*
G01*
X124550000Y-93199999D02*
X124550000Y-94100001D01*
G75*
G02*
X124300001Y-94350000I-249999J0D01*
G01*
X123649999Y-94350000D01*
G75*
G02*
X123400000Y-94100001I0J249999D01*
G01*
X123400000Y-93199999D01*
G75*
G02*
X123649999Y-92950000I249999J0D01*
G01*
X124300001Y-92950000D01*
G75*
G02*
X124550000Y-93199999I0J-249999D01*
G01*
G37*
G36*
G01*
X126600000Y-93199999D02*
X126600000Y-94100001D01*
G75*
G02*
X126350001Y-94350000I-249999J0D01*
G01*
X125699999Y-94350000D01*
G75*
G02*
X125450000Y-94100001I0J249999D01*
G01*
X125450000Y-93199999D01*
G75*
G02*
X125699999Y-92950000I249999J0D01*
G01*
X126350001Y-92950000D01*
G75*
G02*
X126600000Y-93199999I0J-249999D01*
G01*
G37*
G36*
G01*
X119450000Y-93299999D02*
X119450000Y-94200001D01*
G75*
G02*
X119200001Y-94450000I-249999J0D01*
G01*
X118549999Y-94450000D01*
G75*
G02*
X118300000Y-94200001I0J249999D01*
G01*
X118300000Y-93299999D01*
G75*
G02*
X118549999Y-93050000I249999J0D01*
G01*
X119200001Y-93050000D01*
G75*
G02*
X119450000Y-93299999I0J-249999D01*
G01*
G37*
G36*
G01*
X121500000Y-93299999D02*
X121500000Y-94200001D01*
G75*
G02*
X121250001Y-94450000I-249999J0D01*
G01*
X120599999Y-94450000D01*
G75*
G02*
X120350000Y-94200001I0J249999D01*
G01*
X120350000Y-93299999D01*
G75*
G02*
X120599999Y-93050000I249999J0D01*
G01*
X121250001Y-93050000D01*
G75*
G02*
X121500000Y-93299999I0J-249999D01*
G01*
G37*
D10*
X139440000Y-58900000D03*
X141980000Y-58900000D03*
X144520000Y-58900000D03*
X147060000Y-58900000D03*
D11*
X149600000Y-58900000D03*
D12*
X132218000Y-89902000D03*
X132218000Y-85402000D03*
X138718000Y-89902000D03*
X138718000Y-85402000D03*
X122107000Y-89902000D03*
X122107000Y-85402000D03*
X128607000Y-89902000D03*
X128607000Y-85402000D03*
X111996000Y-89902000D03*
X111996000Y-85402000D03*
X118496000Y-89902000D03*
X118496000Y-85402000D03*
X132218000Y-82080000D03*
X132218000Y-77580000D03*
X138718000Y-82080000D03*
X138718000Y-77580000D03*
X122107000Y-82080000D03*
X122107000Y-77580000D03*
X128607000Y-82080000D03*
X128607000Y-77580000D03*
X111996000Y-82080000D03*
X111996000Y-77580000D03*
X118496000Y-82080000D03*
X118496000Y-77580000D03*
D13*
X134512000Y-72322000D03*
X134512000Y-63822000D03*
D14*
X121400000Y-71200000D03*
X121400000Y-70400000D03*
X121400000Y-69600000D03*
X121400000Y-68800000D03*
X121400000Y-68000000D03*
X121400000Y-67200000D03*
X121400000Y-66400000D03*
X121400000Y-65600000D03*
D15*
X122800000Y-64200000D03*
X123600000Y-64200000D03*
X124400000Y-64200000D03*
X125200000Y-64200000D03*
X126000000Y-64200000D03*
X126800000Y-64200000D03*
X127600000Y-64200000D03*
X128400000Y-64200000D03*
D14*
X129800000Y-65600000D03*
X129800000Y-66400000D03*
X129800000Y-67200000D03*
X129800000Y-68000000D03*
X129800000Y-68800000D03*
X129800000Y-69600000D03*
X129800000Y-70400000D03*
D15*
X128400000Y-72600000D03*
X127600000Y-72600000D03*
X126800000Y-72600000D03*
X126000000Y-72600000D03*
X125200000Y-72600000D03*
X124400000Y-72600000D03*
X123600000Y-72600000D03*
X122800000Y-72600000D03*
D14*
X129800000Y-71200000D03*
D16*
X172815000Y-64134000D03*
X174085000Y-64134000D03*
X175355000Y-64134000D03*
X176625000Y-64134000D03*
X177895000Y-64134000D03*
X179165000Y-64134000D03*
X180435000Y-64134000D03*
X181705000Y-64134000D03*
X182975000Y-64134000D03*
X184245000Y-64134000D03*
X185515000Y-64134000D03*
X186785000Y-64134000D03*
X188055000Y-64134000D03*
X189325000Y-64134000D03*
X189325000Y-73534000D03*
X188055000Y-73534000D03*
X186785000Y-73534000D03*
X185515000Y-73534000D03*
X184245000Y-73534000D03*
X182975000Y-73534000D03*
X181705000Y-73534000D03*
X180435000Y-73534000D03*
X179165000Y-73534000D03*
X177895000Y-73534000D03*
X176625000Y-73534000D03*
X175355000Y-73534000D03*
X174085000Y-73534000D03*
X172815000Y-73534000D03*
G36*
G01*
X115692000Y-70381000D02*
X115692000Y-70081000D01*
G75*
G02*
X115842000Y-69931000I150000J0D01*
G01*
X117492000Y-69931000D01*
G75*
G02*
X117642000Y-70081000I0J-150000D01*
G01*
X117642000Y-70381000D01*
G75*
G02*
X117492000Y-70531000I-150000J0D01*
G01*
X115842000Y-70531000D01*
G75*
G02*
X115692000Y-70381000I0J150000D01*
G01*
G37*
G36*
G01*
X115692000Y-71651000D02*
X115692000Y-71351000D01*
G75*
G02*
X115842000Y-71201000I150000J0D01*
G01*
X117492000Y-71201000D01*
G75*
G02*
X117642000Y-71351000I0J-150000D01*
G01*
X117642000Y-71651000D01*
G75*
G02*
X117492000Y-71801000I-150000J0D01*
G01*
X115842000Y-71801000D01*
G75*
G02*
X115692000Y-71651000I0J150000D01*
G01*
G37*
G36*
G01*
X115692000Y-72921000D02*
X115692000Y-72621000D01*
G75*
G02*
X115842000Y-72471000I150000J0D01*
G01*
X117492000Y-72471000D01*
G75*
G02*
X117642000Y-72621000I0J-150000D01*
G01*
X117642000Y-72921000D01*
G75*
G02*
X117492000Y-73071000I-150000J0D01*
G01*
X115842000Y-73071000D01*
G75*
G02*
X115692000Y-72921000I0J150000D01*
G01*
G37*
G36*
G01*
X115692000Y-74191000D02*
X115692000Y-73891000D01*
G75*
G02*
X115842000Y-73741000I150000J0D01*
G01*
X117492000Y-73741000D01*
G75*
G02*
X117642000Y-73891000I0J-150000D01*
G01*
X117642000Y-74191000D01*
G75*
G02*
X117492000Y-74341000I-150000J0D01*
G01*
X115842000Y-74341000D01*
G75*
G02*
X115692000Y-74191000I0J150000D01*
G01*
G37*
G36*
G01*
X110742000Y-74191000D02*
X110742000Y-73891000D01*
G75*
G02*
X110892000Y-73741000I150000J0D01*
G01*
X112542000Y-73741000D01*
G75*
G02*
X112692000Y-73891000I0J-150000D01*
G01*
X112692000Y-74191000D01*
G75*
G02*
X112542000Y-74341000I-150000J0D01*
G01*
X110892000Y-74341000D01*
G75*
G02*
X110742000Y-74191000I0J150000D01*
G01*
G37*
G36*
G01*
X110742000Y-72921000D02*
X110742000Y-72621000D01*
G75*
G02*
X110892000Y-72471000I150000J0D01*
G01*
X112542000Y-72471000D01*
G75*
G02*
X112692000Y-72621000I0J-150000D01*
G01*
X112692000Y-72921000D01*
G75*
G02*
X112542000Y-73071000I-150000J0D01*
G01*
X110892000Y-73071000D01*
G75*
G02*
X110742000Y-72921000I0J150000D01*
G01*
G37*
G36*
G01*
X110742000Y-71651000D02*
X110742000Y-71351000D01*
G75*
G02*
X110892000Y-71201000I150000J0D01*
G01*
X112542000Y-71201000D01*
G75*
G02*
X112692000Y-71351000I0J-150000D01*
G01*
X112692000Y-71651000D01*
G75*
G02*
X112542000Y-71801000I-150000J0D01*
G01*
X110892000Y-71801000D01*
G75*
G02*
X110742000Y-71651000I0J150000D01*
G01*
G37*
G36*
G01*
X110742000Y-70381000D02*
X110742000Y-70081000D01*
G75*
G02*
X110892000Y-69931000I150000J0D01*
G01*
X112542000Y-69931000D01*
G75*
G02*
X112692000Y-70081000I0J-150000D01*
G01*
X112692000Y-70381000D01*
G75*
G02*
X112542000Y-70531000I-150000J0D01*
G01*
X110892000Y-70531000D01*
G75*
G02*
X110742000Y-70381000I0J150000D01*
G01*
G37*
D17*
X144850000Y-71150000D03*
X168050000Y-95150000D03*
X144850000Y-95150000D03*
X168050000Y-71150000D03*
D18*
X152450000Y-70350000D03*
D19*
X154990000Y-70350000D03*
X157530000Y-70350000D03*
X160070000Y-70350000D03*
D20*
X173400000Y-81700000D03*
D12*
X173400000Y-84200000D03*
X173400000Y-86700000D03*
D21*
X180900000Y-78600000D03*
X180900000Y-89800000D03*
D12*
X187900000Y-81700000D03*
X187900000Y-86700000D03*
G36*
G01*
X139150000Y-66691332D02*
X139150000Y-67591334D01*
G75*
G02*
X138900001Y-67841333I-249999J0D01*
G01*
X138249999Y-67841333D01*
G75*
G02*
X138000000Y-67591334I0J249999D01*
G01*
X138000000Y-66691332D01*
G75*
G02*
X138249999Y-66441333I249999J0D01*
G01*
X138900001Y-66441333D01*
G75*
G02*
X139150000Y-66691332I0J-249999D01*
G01*
G37*
G36*
G01*
X141200000Y-66691332D02*
X141200000Y-67591334D01*
G75*
G02*
X140950001Y-67841333I-249999J0D01*
G01*
X140299999Y-67841333D01*
G75*
G02*
X140050000Y-67591334I0J249999D01*
G01*
X140050000Y-66691332D01*
G75*
G02*
X140299999Y-66441333I249999J0D01*
G01*
X140950001Y-66441333D01*
G75*
G02*
X141200000Y-66691332I0J-249999D01*
G01*
G37*
G36*
G01*
X117690000Y-64966001D02*
X117690000Y-64065999D01*
G75*
G02*
X117939999Y-63816000I249999J0D01*
G01*
X118590001Y-63816000D01*
G75*
G02*
X118840000Y-64065999I0J-249999D01*
G01*
X118840000Y-64966001D01*
G75*
G02*
X118590001Y-65216000I-249999J0D01*
G01*
X117939999Y-65216000D01*
G75*
G02*
X117690000Y-64966001I0J249999D01*
G01*
G37*
G36*
G01*
X115640000Y-64966001D02*
X115640000Y-64065999D01*
G75*
G02*
X115889999Y-63816000I249999J0D01*
G01*
X116540001Y-63816000D01*
G75*
G02*
X116790000Y-64065999I0J-249999D01*
G01*
X116790000Y-64966001D01*
G75*
G02*
X116540001Y-65216000I-249999J0D01*
G01*
X115889999Y-65216000D01*
G75*
G02*
X115640000Y-64966001I0J249999D01*
G01*
G37*
G36*
G01*
X112864000Y-64966001D02*
X112864000Y-64065999D01*
G75*
G02*
X113113999Y-63816000I249999J0D01*
G01*
X113764001Y-63816000D01*
G75*
G02*
X114014000Y-64065999I0J-249999D01*
G01*
X114014000Y-64966001D01*
G75*
G02*
X113764001Y-65216000I-249999J0D01*
G01*
X113113999Y-65216000D01*
G75*
G02*
X112864000Y-64966001I0J249999D01*
G01*
G37*
G36*
G01*
X110814000Y-64966001D02*
X110814000Y-64065999D01*
G75*
G02*
X111063999Y-63816000I249999J0D01*
G01*
X111714001Y-63816000D01*
G75*
G02*
X111964000Y-64065999I0J-249999D01*
G01*
X111964000Y-64966001D01*
G75*
G02*
X111714001Y-65216000I-249999J0D01*
G01*
X111063999Y-65216000D01*
G75*
G02*
X110814000Y-64966001I0J249999D01*
G01*
G37*
G36*
G01*
X111964000Y-66859999D02*
X111964000Y-67760001D01*
G75*
G02*
X111714001Y-68010000I-249999J0D01*
G01*
X111063999Y-68010000D01*
G75*
G02*
X110814000Y-67760001I0J249999D01*
G01*
X110814000Y-66859999D01*
G75*
G02*
X111063999Y-66610000I249999J0D01*
G01*
X111714001Y-66610000D01*
G75*
G02*
X111964000Y-66859999I0J-249999D01*
G01*
G37*
G36*
G01*
X114014000Y-66859999D02*
X114014000Y-67760001D01*
G75*
G02*
X113764001Y-68010000I-249999J0D01*
G01*
X113113999Y-68010000D01*
G75*
G02*
X112864000Y-67760001I0J249999D01*
G01*
X112864000Y-66859999D01*
G75*
G02*
X113113999Y-66610000I249999J0D01*
G01*
X113764001Y-66610000D01*
G75*
G02*
X114014000Y-66859999I0J-249999D01*
G01*
G37*
D22*
X131718000Y-95377000D03*
D18*
X134258000Y-95377000D03*
D23*
X178950000Y-96070000D03*
D24*
X178950000Y-93530000D03*
D10*
X167190000Y-58928000D03*
X164650000Y-58928000D03*
X169730000Y-58928000D03*
X172270000Y-58928000D03*
X174810000Y-58928000D03*
X177350000Y-58928000D03*
X179890000Y-58928000D03*
D11*
X182430000Y-58928000D03*
D10*
X153220000Y-58928000D03*
X155760000Y-58928000D03*
X158300000Y-58928000D03*
D11*
X160840000Y-58928000D03*
D10*
X119018000Y-58928000D03*
X121558000Y-58928000D03*
X124098000Y-58928000D03*
X126638000Y-58928000D03*
D11*
X129178000Y-58928000D03*
D22*
X144000000Y-66750000D03*
X146540000Y-66750000D03*
X149080000Y-66750000D03*
X151620000Y-66750000D03*
X154160000Y-66750000D03*
D18*
X156700000Y-66750000D03*
D25*
X187500000Y-94900000D03*
X187500000Y-59400000D03*
X113500000Y-94996000D03*
X113500000Y-59500000D03*
G36*
G01*
X134062000Y-57715999D02*
X134062000Y-58616001D01*
G75*
G02*
X133812001Y-58866000I-249999J0D01*
G01*
X133161999Y-58866000D01*
G75*
G02*
X132912000Y-58616001I0J249999D01*
G01*
X132912000Y-57715999D01*
G75*
G02*
X133161999Y-57466000I249999J0D01*
G01*
X133812001Y-57466000D01*
G75*
G02*
X134062000Y-57715999I0J-249999D01*
G01*
G37*
G36*
G01*
X136112000Y-57715999D02*
X136112000Y-58616001D01*
G75*
G02*
X135862001Y-58866000I-249999J0D01*
G01*
X135211999Y-58866000D01*
G75*
G02*
X134962000Y-58616001I0J249999D01*
G01*
X134962000Y-57715999D01*
G75*
G02*
X135211999Y-57466000I249999J0D01*
G01*
X135862001Y-57466000D01*
G75*
G02*
X136112000Y-57715999I0J-249999D01*
G01*
G37*
G36*
G01*
X139150000Y-63811999D02*
X139150000Y-64712001D01*
G75*
G02*
X138900001Y-64962000I-249999J0D01*
G01*
X138249999Y-64962000D01*
G75*
G02*
X138000000Y-64712001I0J249999D01*
G01*
X138000000Y-63811999D01*
G75*
G02*
X138249999Y-63562000I249999J0D01*
G01*
X138900001Y-63562000D01*
G75*
G02*
X139150000Y-63811999I0J-249999D01*
G01*
G37*
G36*
G01*
X141200000Y-63811999D02*
X141200000Y-64712001D01*
G75*
G02*
X140950001Y-64962000I-249999J0D01*
G01*
X140299999Y-64962000D01*
G75*
G02*
X140050000Y-64712001I0J249999D01*
G01*
X140050000Y-63811999D01*
G75*
G02*
X140299999Y-63562000I249999J0D01*
G01*
X140950001Y-63562000D01*
G75*
G02*
X141200000Y-63811999I0J-249999D01*
G01*
G37*
G36*
G01*
X139150000Y-72449999D02*
X139150000Y-73350001D01*
G75*
G02*
X138900001Y-73600000I-249999J0D01*
G01*
X138249999Y-73600000D01*
G75*
G02*
X138000000Y-73350001I0J249999D01*
G01*
X138000000Y-72449999D01*
G75*
G02*
X138249999Y-72200000I249999J0D01*
G01*
X138900001Y-72200000D01*
G75*
G02*
X139150000Y-72449999I0J-249999D01*
G01*
G37*
G36*
G01*
X141200000Y-72449999D02*
X141200000Y-73350001D01*
G75*
G02*
X140950001Y-73600000I-249999J0D01*
G01*
X140299999Y-73600000D01*
G75*
G02*
X140050000Y-73350001I0J249999D01*
G01*
X140050000Y-72449999D01*
G75*
G02*
X140299999Y-72200000I249999J0D01*
G01*
X140950001Y-72200000D01*
G75*
G02*
X141200000Y-72449999I0J-249999D01*
G01*
G37*
G36*
G01*
X139150000Y-69570665D02*
X139150000Y-70470667D01*
G75*
G02*
X138900001Y-70720666I-249999J0D01*
G01*
X138249999Y-70720666D01*
G75*
G02*
X138000000Y-70470667I0J249999D01*
G01*
X138000000Y-69570665D01*
G75*
G02*
X138249999Y-69320666I249999J0D01*
G01*
X138900001Y-69320666D01*
G75*
G02*
X139150000Y-69570665I0J-249999D01*
G01*
G37*
G36*
G01*
X141200000Y-69570665D02*
X141200000Y-70470667D01*
G75*
G02*
X140950001Y-70720666I-249999J0D01*
G01*
X140299999Y-70720666D01*
G75*
G02*
X140050000Y-70470667I0J249999D01*
G01*
X140050000Y-69570665D01*
G75*
G02*
X140299999Y-69320666I249999J0D01*
G01*
X140950001Y-69320666D01*
G75*
G02*
X141200000Y-69570665I0J-249999D01*
G01*
G37*
G36*
G01*
X165950000Y-63849999D02*
X165950000Y-64750001D01*
G75*
G02*
X165700001Y-65000000I-249999J0D01*
G01*
X165049999Y-65000000D01*
G75*
G02*
X164800000Y-64750001I0J249999D01*
G01*
X164800000Y-63849999D01*
G75*
G02*
X165049999Y-63600000I249999J0D01*
G01*
X165700001Y-63600000D01*
G75*
G02*
X165950000Y-63849999I0J-249999D01*
G01*
G37*
G36*
G01*
X168000000Y-63849999D02*
X168000000Y-64750001D01*
G75*
G02*
X167750001Y-65000000I-249999J0D01*
G01*
X167099999Y-65000000D01*
G75*
G02*
X166850000Y-64750001I0J249999D01*
G01*
X166850000Y-63849999D01*
G75*
G02*
X167099999Y-63600000I249999J0D01*
G01*
X167750001Y-63600000D01*
G75*
G02*
X168000000Y-63849999I0J-249999D01*
G01*
G37*
G36*
G01*
X117681000Y-67760001D02*
X117681000Y-66859999D01*
G75*
G02*
X117930999Y-66610000I249999J0D01*
G01*
X118581001Y-66610000D01*
G75*
G02*
X118831000Y-66859999I0J-249999D01*
G01*
X118831000Y-67760001D01*
G75*
G02*
X118581001Y-68010000I-249999J0D01*
G01*
X117930999Y-68010000D01*
G75*
G02*
X117681000Y-67760001I0J249999D01*
G01*
G37*
G36*
G01*
X115631000Y-67760001D02*
X115631000Y-66859999D01*
G75*
G02*
X115880999Y-66610000I249999J0D01*
G01*
X116531001Y-66610000D01*
G75*
G02*
X116781000Y-66859999I0J-249999D01*
G01*
X116781000Y-67760001D01*
G75*
G02*
X116531001Y-68010000I-249999J0D01*
G01*
X115880999Y-68010000D01*
G75*
G02*
X115631000Y-67760001I0J249999D01*
G01*
G37*
G36*
G01*
X162175000Y-64712001D02*
X162175000Y-63811999D01*
G75*
G02*
X162424999Y-63562000I249999J0D01*
G01*
X163075001Y-63562000D01*
G75*
G02*
X163325000Y-63811999I0J-249999D01*
G01*
X163325000Y-64712001D01*
G75*
G02*
X163075001Y-64962000I-249999J0D01*
G01*
X162424999Y-64962000D01*
G75*
G02*
X162175000Y-64712001I0J249999D01*
G01*
G37*
G36*
G01*
X160125000Y-64712001D02*
X160125000Y-63811999D01*
G75*
G02*
X160374999Y-63562000I249999J0D01*
G01*
X161025001Y-63562000D01*
G75*
G02*
X161275000Y-63811999I0J-249999D01*
G01*
X161275000Y-64712001D01*
G75*
G02*
X161025001Y-64962000I-249999J0D01*
G01*
X160374999Y-64962000D01*
G75*
G02*
X160125000Y-64712001I0J249999D01*
G01*
G37*
D26*
X143850000Y-82950000D03*
D27*
X163850000Y-82950000D03*
M02*
