G04 #@! TF.GenerationSoftware,KiCad,Pcbnew,(5.1.7)-1*
G04 #@! TF.CreationDate,2020-11-03T16:32:40+01:00*
G04 #@! TF.ProjectId,Timer,54696d65-722e-46b6-9963-61645f706362,rev?*
G04 #@! TF.SameCoordinates,Original*
G04 #@! TF.FileFunction,Soldermask,Bot*
G04 #@! TF.FilePolarity,Negative*
%FSLAX46Y46*%
G04 Gerber Fmt 4.6, Leading zero omitted, Abs format (unit mm)*
G04 Created by KiCad (PCBNEW (5.1.7)-1) date 2020-11-03 16:32:40*
%MOMM*%
%LPD*%
G01*
G04 APERTURE LIST*
%ADD10O,1.700000X2.200000*%
%ADD11R,1.700000X2.200000*%
%ADD12C,2.000000*%
%ADD13C,2.700000*%
%ADD14R,1.700000X1.700000*%
%ADD15C,1.700000*%
%ADD16R,2.000000X2.000000*%
%ADD17R,3.200000X2.000000*%
%ADD18O,2.200000X1.700000*%
%ADD19R,2.200000X1.700000*%
%ADD20O,1.700000X1.700000*%
%ADD21C,3.200000*%
%ADD22C,2.500000*%
%ADD23R,2.170000X2.170000*%
G04 APERTURE END LIST*
D10*
X167195500Y-58928000D03*
X164655500Y-58928000D03*
X169735500Y-58928000D03*
X172275500Y-58928000D03*
X174815500Y-58928000D03*
X177355500Y-58928000D03*
X179895500Y-58928000D03*
D11*
X182435500Y-58928000D03*
D12*
X132218000Y-89902000D03*
X132218000Y-85402000D03*
X138718000Y-89902000D03*
X138718000Y-85402000D03*
X122107000Y-89902000D03*
X122107000Y-85402000D03*
X128607000Y-89902000D03*
X128607000Y-85402000D03*
X111996000Y-89902000D03*
X111996000Y-85402000D03*
X118496000Y-89902000D03*
X118496000Y-85402000D03*
X132218000Y-82080000D03*
X132218000Y-77580000D03*
X138718000Y-82080000D03*
X138718000Y-77580000D03*
X122107000Y-82080000D03*
X122107000Y-77580000D03*
X128607000Y-82080000D03*
X128607000Y-77580000D03*
X111996000Y-82080000D03*
X111996000Y-77580000D03*
X118496000Y-82080000D03*
X118496000Y-77580000D03*
D13*
X144443600Y-71150000D03*
X167643600Y-95150000D03*
X144443600Y-95150000D03*
X167643600Y-71150000D03*
D14*
X152043600Y-70350000D03*
D15*
X154583600Y-70350000D03*
X157123600Y-70350000D03*
X159663600Y-70350000D03*
D16*
X173400000Y-81700000D03*
D12*
X173400000Y-84200000D03*
X173400000Y-86700000D03*
D17*
X180900000Y-78600000D03*
X180900000Y-89800000D03*
D12*
X187900000Y-81700000D03*
X187900000Y-86700000D03*
D18*
X177115800Y-95862000D03*
D19*
X177115800Y-93322000D03*
D10*
X121158000Y-58928000D03*
X118618000Y-58928000D03*
X123698000Y-58928000D03*
X126238000Y-58928000D03*
X128778000Y-58928000D03*
X131318000Y-58928000D03*
X133858000Y-58928000D03*
D11*
X136398000Y-58928000D03*
D10*
X139852400Y-58928000D03*
X142392400Y-58928000D03*
X144932400Y-58928000D03*
D11*
X147472400Y-58928000D03*
D10*
X150926800Y-58928000D03*
X153466800Y-58928000D03*
X156006800Y-58928000D03*
X158546800Y-58928000D03*
D11*
X161086800Y-58928000D03*
D20*
X162204400Y-65786000D03*
X159664400Y-65786000D03*
X157124400Y-65786000D03*
X154584400Y-65786000D03*
X152044400Y-65786000D03*
D14*
X149504400Y-65786000D03*
D21*
X187452000Y-94894400D03*
X187500000Y-59400000D03*
X113500000Y-94996000D03*
X113450000Y-59400000D03*
D22*
X156225000Y-73609200D03*
D23*
X156225000Y-93609200D03*
M02*
