G04 #@! TF.GenerationSoftware,KiCad,Pcbnew,(5.1.7)-1*
G04 #@! TF.CreationDate,2020-11-03T16:32:40+01:00*
G04 #@! TF.ProjectId,Timer,54696d65-722e-46b6-9963-61645f706362,rev?*
G04 #@! TF.SameCoordinates,Original*
G04 #@! TF.FileFunction,Copper,L2,Bot*
G04 #@! TF.FilePolarity,Positive*
%FSLAX46Y46*%
G04 Gerber Fmt 4.6, Leading zero omitted, Abs format (unit mm)*
G04 Created by KiCad (PCBNEW (5.1.7)-1) date 2020-11-03 16:32:40*
%MOMM*%
%LPD*%
G01*
G04 APERTURE LIST*
G04 #@! TA.AperFunction,ComponentPad*
%ADD10O,1.700000X2.200000*%
G04 #@! TD*
G04 #@! TA.AperFunction,ComponentPad*
%ADD11R,1.700000X2.200000*%
G04 #@! TD*
G04 #@! TA.AperFunction,ComponentPad*
%ADD12C,2.000000*%
G04 #@! TD*
G04 #@! TA.AperFunction,ComponentPad*
%ADD13R,1.700000X1.700000*%
G04 #@! TD*
G04 #@! TA.AperFunction,ComponentPad*
%ADD14C,1.700000*%
G04 #@! TD*
G04 #@! TA.AperFunction,ComponentPad*
%ADD15R,2.000000X2.000000*%
G04 #@! TD*
G04 #@! TA.AperFunction,ComponentPad*
%ADD16R,3.200000X2.000000*%
G04 #@! TD*
G04 #@! TA.AperFunction,ComponentPad*
%ADD17O,2.200000X1.700000*%
G04 #@! TD*
G04 #@! TA.AperFunction,ComponentPad*
%ADD18R,2.200000X1.700000*%
G04 #@! TD*
G04 #@! TA.AperFunction,ComponentPad*
%ADD19O,1.700000X1.700000*%
G04 #@! TD*
G04 #@! TA.AperFunction,ComponentPad*
%ADD20C,2.500000*%
G04 #@! TD*
G04 #@! TA.AperFunction,ComponentPad*
%ADD21R,2.170000X2.170000*%
G04 #@! TD*
G04 #@! TA.AperFunction,ViaPad*
%ADD22C,0.800000*%
G04 #@! TD*
G04 #@! TA.AperFunction,Conductor*
%ADD23C,0.250000*%
G04 #@! TD*
G04 #@! TA.AperFunction,Conductor*
%ADD24C,0.500000*%
G04 #@! TD*
G04 #@! TA.AperFunction,Conductor*
%ADD25C,0.254000*%
G04 #@! TD*
G04 #@! TA.AperFunction,Conductor*
%ADD26C,0.100000*%
G04 #@! TD*
G04 APERTURE END LIST*
D10*
X167195500Y-58928000D03*
X164655500Y-58928000D03*
X169735500Y-58928000D03*
X172275500Y-58928000D03*
X174815500Y-58928000D03*
X177355500Y-58928000D03*
X179895500Y-58928000D03*
D11*
X182435500Y-58928000D03*
D12*
X132218000Y-89902000D03*
X132218000Y-85402000D03*
X138718000Y-89902000D03*
X138718000Y-85402000D03*
X122107000Y-89902000D03*
X122107000Y-85402000D03*
X128607000Y-89902000D03*
X128607000Y-85402000D03*
X111996000Y-89902000D03*
X111996000Y-85402000D03*
X118496000Y-89902000D03*
X118496000Y-85402000D03*
X132218000Y-82080000D03*
X132218000Y-77580000D03*
X138718000Y-82080000D03*
X138718000Y-77580000D03*
X122107000Y-82080000D03*
X122107000Y-77580000D03*
X128607000Y-82080000D03*
X128607000Y-77580000D03*
X111996000Y-82080000D03*
X111996000Y-77580000D03*
X118496000Y-82080000D03*
X118496000Y-77580000D03*
D13*
X152043600Y-70350000D03*
D14*
X154583600Y-70350000D03*
X157123600Y-70350000D03*
X159663600Y-70350000D03*
D15*
X173400000Y-81700000D03*
D12*
X173400000Y-84200000D03*
X173400000Y-86700000D03*
D16*
X180900000Y-78600000D03*
X180900000Y-89800000D03*
D12*
X187900000Y-81700000D03*
X187900000Y-86700000D03*
D17*
X177115800Y-95862000D03*
D18*
X177115800Y-93322000D03*
D10*
X121158000Y-58928000D03*
X118618000Y-58928000D03*
X123698000Y-58928000D03*
X126238000Y-58928000D03*
X128778000Y-58928000D03*
X131318000Y-58928000D03*
X133858000Y-58928000D03*
D11*
X136398000Y-58928000D03*
D10*
X139852400Y-58928000D03*
X142392400Y-58928000D03*
X144932400Y-58928000D03*
D11*
X147472400Y-58928000D03*
D10*
X150926800Y-58928000D03*
X153466800Y-58928000D03*
X156006800Y-58928000D03*
X158546800Y-58928000D03*
D11*
X161086800Y-58928000D03*
D19*
X162204400Y-65786000D03*
X159664400Y-65786000D03*
X157124400Y-65786000D03*
X154584400Y-65786000D03*
X152044400Y-65786000D03*
D13*
X149504400Y-65786000D03*
D20*
X156225000Y-73609200D03*
D21*
X156225000Y-93609200D03*
D22*
X185064400Y-72034400D03*
X178968400Y-69240400D03*
X133705600Y-63754000D03*
X163169600Y-86055200D03*
X158750000Y-86715600D03*
X128828800Y-71628000D03*
X181711600Y-64211200D03*
X121666000Y-71018400D03*
X125425200Y-68326000D03*
X140817600Y-71729600D03*
X164795200Y-76403200D03*
X163677600Y-83108800D03*
X164795200Y-71069200D03*
X176885600Y-80772000D03*
X177800000Y-75387200D03*
X187604400Y-69799200D03*
X178816000Y-66598800D03*
X178612800Y-61214000D03*
X181102000Y-61010800D03*
X135077200Y-76504800D03*
X150215600Y-85852000D03*
X132791200Y-61214000D03*
X130352800Y-61214000D03*
X128117600Y-60858400D03*
X117043200Y-61722000D03*
X165557200Y-65684400D03*
X174040800Y-66090800D03*
X178155600Y-70104000D03*
X176017347Y-69702253D03*
X159359600Y-81991200D03*
X124612400Y-71577200D03*
X179001000Y-71374000D03*
X125730000Y-66040000D03*
X118465600Y-92151200D03*
X176479200Y-66700400D03*
X150120600Y-83725000D03*
X136652000Y-66294000D03*
D23*
X175012601Y-66961001D02*
X178155600Y-70104000D01*
X160839401Y-66961001D02*
X175012601Y-66961001D01*
X159664400Y-65786000D02*
X160839401Y-66961001D01*
X157124400Y-65786000D02*
X158800800Y-67462400D01*
X173777494Y-67462400D02*
X176017347Y-69702253D01*
X158800800Y-67462400D02*
X173777494Y-67462400D01*
X159359600Y-72586000D02*
X157123600Y-70350000D01*
X159359600Y-81991200D02*
X159359600Y-72586000D01*
X182760001Y-77274999D02*
X186574999Y-81089997D01*
X186574999Y-85374999D02*
X187900000Y-86700000D01*
X181880681Y-77274999D02*
X182760001Y-77274999D01*
X173780681Y-69174999D02*
X181880681Y-77274999D01*
X127014601Y-69174999D02*
X173780681Y-69174999D01*
X186574999Y-81089997D02*
X186574999Y-85374999D01*
X124612400Y-71577200D02*
X127014601Y-69174999D01*
X176616092Y-71374000D02*
X179001000Y-71374000D01*
X173154502Y-67912410D02*
X176616092Y-71374000D01*
X127602410Y-67912410D02*
X173154502Y-67912410D01*
X125730000Y-66040000D02*
X127602410Y-67912410D01*
X173939789Y-64160989D02*
X176479200Y-66700400D01*
X138148601Y-64160989D02*
X173939789Y-64160989D01*
X125381999Y-65314999D02*
X136994591Y-65314999D01*
X117170999Y-73525999D02*
X125381999Y-65314999D01*
X136994591Y-65314999D02*
X138148601Y-64160989D01*
X117170999Y-90856599D02*
X117170999Y-73525999D01*
X118465600Y-92151200D02*
X117170999Y-90856599D01*
D24*
X154583600Y-70350000D02*
X150063200Y-74870400D01*
X150063200Y-74870400D02*
X150063200Y-83667600D01*
X150063200Y-83667600D02*
X150120600Y-83725000D01*
X169178398Y-93322000D02*
X177115800Y-93322000D01*
X159581398Y-83725000D02*
X169178398Y-93322000D01*
X150120600Y-83725000D02*
X159581398Y-83725000D01*
D23*
X138335001Y-64610999D02*
X136652000Y-66294000D01*
X161029399Y-64610999D02*
X138335001Y-64610999D01*
X162204400Y-65786000D02*
X161029399Y-64610999D01*
D25*
X190594001Y-97994000D02*
X110406000Y-97994000D01*
X110406000Y-94800889D01*
X111519000Y-94800889D01*
X111519000Y-95191111D01*
X111595129Y-95573836D01*
X111744461Y-95934355D01*
X111961257Y-96258814D01*
X112237186Y-96534743D01*
X112561645Y-96751539D01*
X112922164Y-96900871D01*
X113304889Y-96977000D01*
X113695111Y-96977000D01*
X114077836Y-96900871D01*
X114438355Y-96751539D01*
X114762814Y-96534743D01*
X115038743Y-96258814D01*
X115255539Y-95934355D01*
X115404871Y-95573836D01*
X115481000Y-95191111D01*
X115481000Y-94979511D01*
X142712600Y-94979511D01*
X142712600Y-95320489D01*
X142779121Y-95654914D01*
X142909607Y-95969936D01*
X143099044Y-96253448D01*
X143340152Y-96494556D01*
X143623664Y-96683993D01*
X143938686Y-96814479D01*
X144273111Y-96881000D01*
X144614089Y-96881000D01*
X144948514Y-96814479D01*
X145263536Y-96683993D01*
X145547048Y-96494556D01*
X145788156Y-96253448D01*
X145977593Y-95969936D01*
X146108079Y-95654914D01*
X146174600Y-95320489D01*
X146174600Y-94979511D01*
X146117849Y-94694200D01*
X154501928Y-94694200D01*
X154514188Y-94818682D01*
X154550498Y-94938380D01*
X154609463Y-95048694D01*
X154688815Y-95145385D01*
X154785506Y-95224737D01*
X154895820Y-95283702D01*
X155015518Y-95320012D01*
X155140000Y-95332272D01*
X155939250Y-95329200D01*
X156098000Y-95170450D01*
X156098000Y-93736200D01*
X156352000Y-93736200D01*
X156352000Y-95170450D01*
X156510750Y-95329200D01*
X157310000Y-95332272D01*
X157434482Y-95320012D01*
X157554180Y-95283702D01*
X157664494Y-95224737D01*
X157761185Y-95145385D01*
X157840537Y-95048694D01*
X157877516Y-94979511D01*
X165912600Y-94979511D01*
X165912600Y-95320489D01*
X165979121Y-95654914D01*
X166109607Y-95969936D01*
X166299044Y-96253448D01*
X166540152Y-96494556D01*
X166823664Y-96683993D01*
X167138686Y-96814479D01*
X167473111Y-96881000D01*
X167814089Y-96881000D01*
X168148514Y-96814479D01*
X168463536Y-96683993D01*
X168747048Y-96494556D01*
X168988156Y-96253448D01*
X169011246Y-96218890D01*
X175424324Y-96218890D01*
X175445443Y-96329493D01*
X175563938Y-96597608D01*
X175732463Y-96837454D01*
X175944541Y-97039814D01*
X176192023Y-97196911D01*
X176465398Y-97302708D01*
X176754160Y-97353140D01*
X176988800Y-97193496D01*
X176988800Y-95989000D01*
X177242800Y-95989000D01*
X177242800Y-97193496D01*
X177477440Y-97353140D01*
X177766202Y-97302708D01*
X178039577Y-97196911D01*
X178287059Y-97039814D01*
X178499137Y-96837454D01*
X178667662Y-96597608D01*
X178786157Y-96329493D01*
X178807276Y-96218890D01*
X178685955Y-95989000D01*
X177242800Y-95989000D01*
X176988800Y-95989000D01*
X175545645Y-95989000D01*
X175424324Y-96218890D01*
X169011246Y-96218890D01*
X169177593Y-95969936D01*
X169308079Y-95654914D01*
X169374600Y-95320489D01*
X169374600Y-94979511D01*
X169308079Y-94645086D01*
X169177593Y-94330064D01*
X168988156Y-94046552D01*
X168747048Y-93805444D01*
X168463536Y-93616007D01*
X168148514Y-93485521D01*
X167814089Y-93419000D01*
X167473111Y-93419000D01*
X167138686Y-93485521D01*
X166823664Y-93616007D01*
X166540152Y-93805444D01*
X166299044Y-94046552D01*
X166109607Y-94330064D01*
X165979121Y-94645086D01*
X165912600Y-94979511D01*
X157877516Y-94979511D01*
X157899502Y-94938380D01*
X157935812Y-94818682D01*
X157948072Y-94694200D01*
X157945000Y-93894950D01*
X157786250Y-93736200D01*
X156352000Y-93736200D01*
X156098000Y-93736200D01*
X154663750Y-93736200D01*
X154505000Y-93894950D01*
X154501928Y-94694200D01*
X146117849Y-94694200D01*
X146108079Y-94645086D01*
X145977593Y-94330064D01*
X145788156Y-94046552D01*
X145547048Y-93805444D01*
X145263536Y-93616007D01*
X144948514Y-93485521D01*
X144614089Y-93419000D01*
X144273111Y-93419000D01*
X143938686Y-93485521D01*
X143623664Y-93616007D01*
X143340152Y-93805444D01*
X143099044Y-94046552D01*
X142909607Y-94330064D01*
X142779121Y-94645086D01*
X142712600Y-94979511D01*
X115481000Y-94979511D01*
X115481000Y-94800889D01*
X115404871Y-94418164D01*
X115255539Y-94057645D01*
X115038743Y-93733186D01*
X114762814Y-93457257D01*
X114438355Y-93240461D01*
X114077836Y-93091129D01*
X113695111Y-93015000D01*
X113304889Y-93015000D01*
X112922164Y-93091129D01*
X112561645Y-93240461D01*
X112237186Y-93457257D01*
X111961257Y-93733186D01*
X111744461Y-94057645D01*
X111595129Y-94418164D01*
X111519000Y-94800889D01*
X110406000Y-94800889D01*
X110406000Y-91037413D01*
X111040192Y-91037413D01*
X111135956Y-91301814D01*
X111425571Y-91442704D01*
X111737108Y-91524384D01*
X112058595Y-91543718D01*
X112377675Y-91499961D01*
X112682088Y-91394795D01*
X112856044Y-91301814D01*
X112951808Y-91037413D01*
X111996000Y-90081605D01*
X111040192Y-91037413D01*
X110406000Y-91037413D01*
X110406000Y-90306719D01*
X110503205Y-90588088D01*
X110596186Y-90762044D01*
X110860587Y-90857808D01*
X111816395Y-89902000D01*
X112175605Y-89902000D01*
X113131413Y-90857808D01*
X113395814Y-90762044D01*
X113536704Y-90472429D01*
X113618384Y-90160892D01*
X113637718Y-89839405D01*
X113593961Y-89520325D01*
X113488795Y-89215912D01*
X113395814Y-89041956D01*
X113131413Y-88946192D01*
X112175605Y-89902000D01*
X111816395Y-89902000D01*
X110860587Y-88946192D01*
X110596186Y-89041956D01*
X110455296Y-89331571D01*
X110406000Y-89519592D01*
X110406000Y-88766587D01*
X111040192Y-88766587D01*
X111996000Y-89722395D01*
X112951808Y-88766587D01*
X112856044Y-88502186D01*
X112566429Y-88361296D01*
X112254892Y-88279616D01*
X111933405Y-88260282D01*
X111614325Y-88304039D01*
X111309912Y-88409205D01*
X111135956Y-88502186D01*
X111040192Y-88766587D01*
X110406000Y-88766587D01*
X110406000Y-85265983D01*
X110615000Y-85265983D01*
X110615000Y-85538017D01*
X110668071Y-85804823D01*
X110772174Y-86056149D01*
X110923307Y-86282336D01*
X111115664Y-86474693D01*
X111341851Y-86625826D01*
X111593177Y-86729929D01*
X111859983Y-86783000D01*
X112132017Y-86783000D01*
X112398823Y-86729929D01*
X112650149Y-86625826D01*
X112876336Y-86474693D01*
X113068693Y-86282336D01*
X113219826Y-86056149D01*
X113323929Y-85804823D01*
X113377000Y-85538017D01*
X113377000Y-85265983D01*
X113323929Y-84999177D01*
X113219826Y-84747851D01*
X113068693Y-84521664D01*
X112876336Y-84329307D01*
X112650149Y-84178174D01*
X112398823Y-84074071D01*
X112132017Y-84021000D01*
X111859983Y-84021000D01*
X111593177Y-84074071D01*
X111341851Y-84178174D01*
X111115664Y-84329307D01*
X110923307Y-84521664D01*
X110772174Y-84747851D01*
X110668071Y-84999177D01*
X110615000Y-85265983D01*
X110406000Y-85265983D01*
X110406000Y-83215413D01*
X111040192Y-83215413D01*
X111135956Y-83479814D01*
X111425571Y-83620704D01*
X111737108Y-83702384D01*
X112058595Y-83721718D01*
X112377675Y-83677961D01*
X112682088Y-83572795D01*
X112856044Y-83479814D01*
X112951808Y-83215413D01*
X111996000Y-82259605D01*
X111040192Y-83215413D01*
X110406000Y-83215413D01*
X110406000Y-82484719D01*
X110503205Y-82766088D01*
X110596186Y-82940044D01*
X110860587Y-83035808D01*
X111816395Y-82080000D01*
X112175605Y-82080000D01*
X113131413Y-83035808D01*
X113395814Y-82940044D01*
X113536704Y-82650429D01*
X113618384Y-82338892D01*
X113637718Y-82017405D01*
X113593961Y-81698325D01*
X113488795Y-81393912D01*
X113395814Y-81219956D01*
X113131413Y-81124192D01*
X112175605Y-82080000D01*
X111816395Y-82080000D01*
X110860587Y-81124192D01*
X110596186Y-81219956D01*
X110455296Y-81509571D01*
X110406000Y-81697592D01*
X110406000Y-80944587D01*
X111040192Y-80944587D01*
X111996000Y-81900395D01*
X112951808Y-80944587D01*
X112856044Y-80680186D01*
X112566429Y-80539296D01*
X112254892Y-80457616D01*
X111933405Y-80438282D01*
X111614325Y-80482039D01*
X111309912Y-80587205D01*
X111135956Y-80680186D01*
X111040192Y-80944587D01*
X110406000Y-80944587D01*
X110406000Y-77443983D01*
X110615000Y-77443983D01*
X110615000Y-77716017D01*
X110668071Y-77982823D01*
X110772174Y-78234149D01*
X110923307Y-78460336D01*
X111115664Y-78652693D01*
X111341851Y-78803826D01*
X111593177Y-78907929D01*
X111859983Y-78961000D01*
X112132017Y-78961000D01*
X112398823Y-78907929D01*
X112650149Y-78803826D01*
X112876336Y-78652693D01*
X113068693Y-78460336D01*
X113219826Y-78234149D01*
X113323929Y-77982823D01*
X113377000Y-77716017D01*
X113377000Y-77443983D01*
X113323929Y-77177177D01*
X113219826Y-76925851D01*
X113068693Y-76699664D01*
X112876336Y-76507307D01*
X112650149Y-76356174D01*
X112398823Y-76252071D01*
X112132017Y-76199000D01*
X111859983Y-76199000D01*
X111593177Y-76252071D01*
X111341851Y-76356174D01*
X111115664Y-76507307D01*
X110923307Y-76699664D01*
X110772174Y-76925851D01*
X110668071Y-77177177D01*
X110615000Y-77443983D01*
X110406000Y-77443983D01*
X110406000Y-73525999D01*
X116662552Y-73525999D01*
X116665000Y-73550855D01*
X116664999Y-90831753D01*
X116662552Y-90856599D01*
X116664999Y-90881445D01*
X116664999Y-90881452D01*
X116672321Y-90955791D01*
X116701254Y-91051173D01*
X116748240Y-91139078D01*
X116811472Y-91216126D01*
X116830784Y-91231975D01*
X117684600Y-92085792D01*
X117684600Y-92228122D01*
X117714613Y-92379009D01*
X117773487Y-92521142D01*
X117858958Y-92649059D01*
X117967741Y-92757842D01*
X118095658Y-92843313D01*
X118237791Y-92902187D01*
X118388678Y-92932200D01*
X118542522Y-92932200D01*
X118693409Y-92902187D01*
X118835542Y-92843313D01*
X118963459Y-92757842D01*
X119072242Y-92649059D01*
X119155669Y-92524200D01*
X154501928Y-92524200D01*
X154505000Y-93323450D01*
X154663750Y-93482200D01*
X156098000Y-93482200D01*
X156098000Y-92047950D01*
X156352000Y-92047950D01*
X156352000Y-93482200D01*
X157786250Y-93482200D01*
X157945000Y-93323450D01*
X157948072Y-92524200D01*
X157935812Y-92399718D01*
X157899502Y-92280020D01*
X157840537Y-92169706D01*
X157761185Y-92073015D01*
X157664494Y-91993663D01*
X157554180Y-91934698D01*
X157434482Y-91898388D01*
X157310000Y-91886128D01*
X156510750Y-91889200D01*
X156352000Y-92047950D01*
X156098000Y-92047950D01*
X155939250Y-91889200D01*
X155140000Y-91886128D01*
X155015518Y-91898388D01*
X154895820Y-91934698D01*
X154785506Y-91993663D01*
X154688815Y-92073015D01*
X154609463Y-92169706D01*
X154550498Y-92280020D01*
X154514188Y-92399718D01*
X154501928Y-92524200D01*
X119155669Y-92524200D01*
X119157713Y-92521142D01*
X119216587Y-92379009D01*
X119246600Y-92228122D01*
X119246600Y-92074278D01*
X119216587Y-91923391D01*
X119157713Y-91781258D01*
X119072242Y-91653341D01*
X118963459Y-91544558D01*
X118890225Y-91495625D01*
X119182088Y-91394795D01*
X119356044Y-91301814D01*
X119451808Y-91037413D01*
X121151192Y-91037413D01*
X121246956Y-91301814D01*
X121536571Y-91442704D01*
X121848108Y-91524384D01*
X122169595Y-91543718D01*
X122488675Y-91499961D01*
X122793088Y-91394795D01*
X122967044Y-91301814D01*
X123062808Y-91037413D01*
X127651192Y-91037413D01*
X127746956Y-91301814D01*
X128036571Y-91442704D01*
X128348108Y-91524384D01*
X128669595Y-91543718D01*
X128988675Y-91499961D01*
X129293088Y-91394795D01*
X129467044Y-91301814D01*
X129562808Y-91037413D01*
X131262192Y-91037413D01*
X131357956Y-91301814D01*
X131647571Y-91442704D01*
X131959108Y-91524384D01*
X132280595Y-91543718D01*
X132599675Y-91499961D01*
X132904088Y-91394795D01*
X133078044Y-91301814D01*
X133173808Y-91037413D01*
X137762192Y-91037413D01*
X137857956Y-91301814D01*
X138147571Y-91442704D01*
X138459108Y-91524384D01*
X138780595Y-91543718D01*
X139099675Y-91499961D01*
X139404088Y-91394795D01*
X139578044Y-91301814D01*
X139673808Y-91037413D01*
X138718000Y-90081605D01*
X137762192Y-91037413D01*
X133173808Y-91037413D01*
X132218000Y-90081605D01*
X131262192Y-91037413D01*
X129562808Y-91037413D01*
X128607000Y-90081605D01*
X127651192Y-91037413D01*
X123062808Y-91037413D01*
X122107000Y-90081605D01*
X121151192Y-91037413D01*
X119451808Y-91037413D01*
X118496000Y-90081605D01*
X118481858Y-90095748D01*
X118302253Y-89916143D01*
X118316395Y-89902000D01*
X118675605Y-89902000D01*
X119631413Y-90857808D01*
X119895814Y-90762044D01*
X120036704Y-90472429D01*
X120118384Y-90160892D01*
X120130189Y-89964595D01*
X120465282Y-89964595D01*
X120509039Y-90283675D01*
X120614205Y-90588088D01*
X120707186Y-90762044D01*
X120971587Y-90857808D01*
X121927395Y-89902000D01*
X122286605Y-89902000D01*
X123242413Y-90857808D01*
X123506814Y-90762044D01*
X123647704Y-90472429D01*
X123729384Y-90160892D01*
X123741189Y-89964595D01*
X126965282Y-89964595D01*
X127009039Y-90283675D01*
X127114205Y-90588088D01*
X127207186Y-90762044D01*
X127471587Y-90857808D01*
X128427395Y-89902000D01*
X128786605Y-89902000D01*
X129742413Y-90857808D01*
X130006814Y-90762044D01*
X130147704Y-90472429D01*
X130229384Y-90160892D01*
X130241189Y-89964595D01*
X130576282Y-89964595D01*
X130620039Y-90283675D01*
X130725205Y-90588088D01*
X130818186Y-90762044D01*
X131082587Y-90857808D01*
X132038395Y-89902000D01*
X132397605Y-89902000D01*
X133353413Y-90857808D01*
X133617814Y-90762044D01*
X133758704Y-90472429D01*
X133840384Y-90160892D01*
X133852189Y-89964595D01*
X137076282Y-89964595D01*
X137120039Y-90283675D01*
X137225205Y-90588088D01*
X137318186Y-90762044D01*
X137582587Y-90857808D01*
X138538395Y-89902000D01*
X138897605Y-89902000D01*
X139853413Y-90857808D01*
X140117814Y-90762044D01*
X140258704Y-90472429D01*
X140340384Y-90160892D01*
X140359718Y-89839405D01*
X140315961Y-89520325D01*
X140210795Y-89215912D01*
X140117814Y-89041956D01*
X139853413Y-88946192D01*
X138897605Y-89902000D01*
X138538395Y-89902000D01*
X137582587Y-88946192D01*
X137318186Y-89041956D01*
X137177296Y-89331571D01*
X137095616Y-89643108D01*
X137076282Y-89964595D01*
X133852189Y-89964595D01*
X133859718Y-89839405D01*
X133815961Y-89520325D01*
X133710795Y-89215912D01*
X133617814Y-89041956D01*
X133353413Y-88946192D01*
X132397605Y-89902000D01*
X132038395Y-89902000D01*
X131082587Y-88946192D01*
X130818186Y-89041956D01*
X130677296Y-89331571D01*
X130595616Y-89643108D01*
X130576282Y-89964595D01*
X130241189Y-89964595D01*
X130248718Y-89839405D01*
X130204961Y-89520325D01*
X130099795Y-89215912D01*
X130006814Y-89041956D01*
X129742413Y-88946192D01*
X128786605Y-89902000D01*
X128427395Y-89902000D01*
X127471587Y-88946192D01*
X127207186Y-89041956D01*
X127066296Y-89331571D01*
X126984616Y-89643108D01*
X126965282Y-89964595D01*
X123741189Y-89964595D01*
X123748718Y-89839405D01*
X123704961Y-89520325D01*
X123599795Y-89215912D01*
X123506814Y-89041956D01*
X123242413Y-88946192D01*
X122286605Y-89902000D01*
X121927395Y-89902000D01*
X120971587Y-88946192D01*
X120707186Y-89041956D01*
X120566296Y-89331571D01*
X120484616Y-89643108D01*
X120465282Y-89964595D01*
X120130189Y-89964595D01*
X120137718Y-89839405D01*
X120093961Y-89520325D01*
X119988795Y-89215912D01*
X119895814Y-89041956D01*
X119631413Y-88946192D01*
X118675605Y-89902000D01*
X118316395Y-89902000D01*
X118302253Y-89887858D01*
X118481858Y-89708253D01*
X118496000Y-89722395D01*
X119451808Y-88766587D01*
X121151192Y-88766587D01*
X122107000Y-89722395D01*
X123062808Y-88766587D01*
X127651192Y-88766587D01*
X128607000Y-89722395D01*
X129562808Y-88766587D01*
X131262192Y-88766587D01*
X132218000Y-89722395D01*
X133173808Y-88766587D01*
X137762192Y-88766587D01*
X138718000Y-89722395D01*
X139673808Y-88766587D01*
X139578044Y-88502186D01*
X139288429Y-88361296D01*
X138976892Y-88279616D01*
X138655405Y-88260282D01*
X138336325Y-88304039D01*
X138031912Y-88409205D01*
X137857956Y-88502186D01*
X137762192Y-88766587D01*
X133173808Y-88766587D01*
X133078044Y-88502186D01*
X132788429Y-88361296D01*
X132476892Y-88279616D01*
X132155405Y-88260282D01*
X131836325Y-88304039D01*
X131531912Y-88409205D01*
X131357956Y-88502186D01*
X131262192Y-88766587D01*
X129562808Y-88766587D01*
X129467044Y-88502186D01*
X129177429Y-88361296D01*
X128865892Y-88279616D01*
X128544405Y-88260282D01*
X128225325Y-88304039D01*
X127920912Y-88409205D01*
X127746956Y-88502186D01*
X127651192Y-88766587D01*
X123062808Y-88766587D01*
X122967044Y-88502186D01*
X122677429Y-88361296D01*
X122365892Y-88279616D01*
X122044405Y-88260282D01*
X121725325Y-88304039D01*
X121420912Y-88409205D01*
X121246956Y-88502186D01*
X121151192Y-88766587D01*
X119451808Y-88766587D01*
X119356044Y-88502186D01*
X119066429Y-88361296D01*
X118754892Y-88279616D01*
X118433405Y-88260282D01*
X118114325Y-88304039D01*
X117809912Y-88409205D01*
X117676999Y-88480248D01*
X117676999Y-86515676D01*
X117841851Y-86625826D01*
X118093177Y-86729929D01*
X118359983Y-86783000D01*
X118632017Y-86783000D01*
X118898823Y-86729929D01*
X119150149Y-86625826D01*
X119376336Y-86474693D01*
X119568693Y-86282336D01*
X119719826Y-86056149D01*
X119823929Y-85804823D01*
X119877000Y-85538017D01*
X119877000Y-85265983D01*
X120726000Y-85265983D01*
X120726000Y-85538017D01*
X120779071Y-85804823D01*
X120883174Y-86056149D01*
X121034307Y-86282336D01*
X121226664Y-86474693D01*
X121452851Y-86625826D01*
X121704177Y-86729929D01*
X121970983Y-86783000D01*
X122243017Y-86783000D01*
X122509823Y-86729929D01*
X122761149Y-86625826D01*
X122987336Y-86474693D01*
X123179693Y-86282336D01*
X123330826Y-86056149D01*
X123434929Y-85804823D01*
X123488000Y-85538017D01*
X123488000Y-85265983D01*
X127226000Y-85265983D01*
X127226000Y-85538017D01*
X127279071Y-85804823D01*
X127383174Y-86056149D01*
X127534307Y-86282336D01*
X127726664Y-86474693D01*
X127952851Y-86625826D01*
X128204177Y-86729929D01*
X128470983Y-86783000D01*
X128743017Y-86783000D01*
X129009823Y-86729929D01*
X129261149Y-86625826D01*
X129487336Y-86474693D01*
X129679693Y-86282336D01*
X129830826Y-86056149D01*
X129934929Y-85804823D01*
X129988000Y-85538017D01*
X129988000Y-85265983D01*
X130837000Y-85265983D01*
X130837000Y-85538017D01*
X130890071Y-85804823D01*
X130994174Y-86056149D01*
X131145307Y-86282336D01*
X131337664Y-86474693D01*
X131563851Y-86625826D01*
X131815177Y-86729929D01*
X132081983Y-86783000D01*
X132354017Y-86783000D01*
X132620823Y-86729929D01*
X132872149Y-86625826D01*
X133098336Y-86474693D01*
X133290693Y-86282336D01*
X133441826Y-86056149D01*
X133545929Y-85804823D01*
X133599000Y-85538017D01*
X133599000Y-85265983D01*
X137337000Y-85265983D01*
X137337000Y-85538017D01*
X137390071Y-85804823D01*
X137494174Y-86056149D01*
X137645307Y-86282336D01*
X137837664Y-86474693D01*
X138063851Y-86625826D01*
X138315177Y-86729929D01*
X138581983Y-86783000D01*
X138854017Y-86783000D01*
X139120823Y-86729929D01*
X139372149Y-86625826D01*
X139598336Y-86474693D01*
X139790693Y-86282336D01*
X139941826Y-86056149D01*
X140045929Y-85804823D01*
X140099000Y-85538017D01*
X140099000Y-85265983D01*
X140045929Y-84999177D01*
X139941826Y-84747851D01*
X139790693Y-84521664D01*
X139598336Y-84329307D01*
X139372149Y-84178174D01*
X139120823Y-84074071D01*
X138854017Y-84021000D01*
X138581983Y-84021000D01*
X138315177Y-84074071D01*
X138063851Y-84178174D01*
X137837664Y-84329307D01*
X137645307Y-84521664D01*
X137494174Y-84747851D01*
X137390071Y-84999177D01*
X137337000Y-85265983D01*
X133599000Y-85265983D01*
X133545929Y-84999177D01*
X133441826Y-84747851D01*
X133290693Y-84521664D01*
X133098336Y-84329307D01*
X132872149Y-84178174D01*
X132620823Y-84074071D01*
X132354017Y-84021000D01*
X132081983Y-84021000D01*
X131815177Y-84074071D01*
X131563851Y-84178174D01*
X131337664Y-84329307D01*
X131145307Y-84521664D01*
X130994174Y-84747851D01*
X130890071Y-84999177D01*
X130837000Y-85265983D01*
X129988000Y-85265983D01*
X129934929Y-84999177D01*
X129830826Y-84747851D01*
X129679693Y-84521664D01*
X129487336Y-84329307D01*
X129261149Y-84178174D01*
X129009823Y-84074071D01*
X128743017Y-84021000D01*
X128470983Y-84021000D01*
X128204177Y-84074071D01*
X127952851Y-84178174D01*
X127726664Y-84329307D01*
X127534307Y-84521664D01*
X127383174Y-84747851D01*
X127279071Y-84999177D01*
X127226000Y-85265983D01*
X123488000Y-85265983D01*
X123434929Y-84999177D01*
X123330826Y-84747851D01*
X123179693Y-84521664D01*
X122987336Y-84329307D01*
X122761149Y-84178174D01*
X122509823Y-84074071D01*
X122243017Y-84021000D01*
X121970983Y-84021000D01*
X121704177Y-84074071D01*
X121452851Y-84178174D01*
X121226664Y-84329307D01*
X121034307Y-84521664D01*
X120883174Y-84747851D01*
X120779071Y-84999177D01*
X120726000Y-85265983D01*
X119877000Y-85265983D01*
X119823929Y-84999177D01*
X119719826Y-84747851D01*
X119568693Y-84521664D01*
X119376336Y-84329307D01*
X119150149Y-84178174D01*
X118898823Y-84074071D01*
X118632017Y-84021000D01*
X118359983Y-84021000D01*
X118093177Y-84074071D01*
X117841851Y-84178174D01*
X117676999Y-84288324D01*
X117676999Y-83499780D01*
X117925571Y-83620704D01*
X118237108Y-83702384D01*
X118558595Y-83721718D01*
X118877675Y-83677961D01*
X119182088Y-83572795D01*
X119356044Y-83479814D01*
X119451808Y-83215413D01*
X121151192Y-83215413D01*
X121246956Y-83479814D01*
X121536571Y-83620704D01*
X121848108Y-83702384D01*
X122169595Y-83721718D01*
X122488675Y-83677961D01*
X122793088Y-83572795D01*
X122967044Y-83479814D01*
X123062808Y-83215413D01*
X127651192Y-83215413D01*
X127746956Y-83479814D01*
X128036571Y-83620704D01*
X128348108Y-83702384D01*
X128669595Y-83721718D01*
X128988675Y-83677961D01*
X129293088Y-83572795D01*
X129467044Y-83479814D01*
X129562808Y-83215413D01*
X131262192Y-83215413D01*
X131357956Y-83479814D01*
X131647571Y-83620704D01*
X131959108Y-83702384D01*
X132280595Y-83721718D01*
X132599675Y-83677961D01*
X132904088Y-83572795D01*
X133078044Y-83479814D01*
X133173808Y-83215413D01*
X137762192Y-83215413D01*
X137857956Y-83479814D01*
X138147571Y-83620704D01*
X138459108Y-83702384D01*
X138780595Y-83721718D01*
X139099675Y-83677961D01*
X139404088Y-83572795D01*
X139578044Y-83479814D01*
X139673808Y-83215413D01*
X138718000Y-82259605D01*
X137762192Y-83215413D01*
X133173808Y-83215413D01*
X132218000Y-82259605D01*
X131262192Y-83215413D01*
X129562808Y-83215413D01*
X128607000Y-82259605D01*
X127651192Y-83215413D01*
X123062808Y-83215413D01*
X122107000Y-82259605D01*
X121151192Y-83215413D01*
X119451808Y-83215413D01*
X118496000Y-82259605D01*
X118481858Y-82273748D01*
X118302253Y-82094143D01*
X118316395Y-82080000D01*
X118675605Y-82080000D01*
X119631413Y-83035808D01*
X119895814Y-82940044D01*
X120036704Y-82650429D01*
X120118384Y-82338892D01*
X120130189Y-82142595D01*
X120465282Y-82142595D01*
X120509039Y-82461675D01*
X120614205Y-82766088D01*
X120707186Y-82940044D01*
X120971587Y-83035808D01*
X121927395Y-82080000D01*
X122286605Y-82080000D01*
X123242413Y-83035808D01*
X123506814Y-82940044D01*
X123647704Y-82650429D01*
X123729384Y-82338892D01*
X123741189Y-82142595D01*
X126965282Y-82142595D01*
X127009039Y-82461675D01*
X127114205Y-82766088D01*
X127207186Y-82940044D01*
X127471587Y-83035808D01*
X128427395Y-82080000D01*
X128786605Y-82080000D01*
X129742413Y-83035808D01*
X130006814Y-82940044D01*
X130147704Y-82650429D01*
X130229384Y-82338892D01*
X130241189Y-82142595D01*
X130576282Y-82142595D01*
X130620039Y-82461675D01*
X130725205Y-82766088D01*
X130818186Y-82940044D01*
X131082587Y-83035808D01*
X132038395Y-82080000D01*
X132397605Y-82080000D01*
X133353413Y-83035808D01*
X133617814Y-82940044D01*
X133758704Y-82650429D01*
X133840384Y-82338892D01*
X133852189Y-82142595D01*
X137076282Y-82142595D01*
X137120039Y-82461675D01*
X137225205Y-82766088D01*
X137318186Y-82940044D01*
X137582587Y-83035808D01*
X138538395Y-82080000D01*
X138897605Y-82080000D01*
X139853413Y-83035808D01*
X140117814Y-82940044D01*
X140258704Y-82650429D01*
X140340384Y-82338892D01*
X140359718Y-82017405D01*
X140315961Y-81698325D01*
X140210795Y-81393912D01*
X140117814Y-81219956D01*
X139853413Y-81124192D01*
X138897605Y-82080000D01*
X138538395Y-82080000D01*
X137582587Y-81124192D01*
X137318186Y-81219956D01*
X137177296Y-81509571D01*
X137095616Y-81821108D01*
X137076282Y-82142595D01*
X133852189Y-82142595D01*
X133859718Y-82017405D01*
X133815961Y-81698325D01*
X133710795Y-81393912D01*
X133617814Y-81219956D01*
X133353413Y-81124192D01*
X132397605Y-82080000D01*
X132038395Y-82080000D01*
X131082587Y-81124192D01*
X130818186Y-81219956D01*
X130677296Y-81509571D01*
X130595616Y-81821108D01*
X130576282Y-82142595D01*
X130241189Y-82142595D01*
X130248718Y-82017405D01*
X130204961Y-81698325D01*
X130099795Y-81393912D01*
X130006814Y-81219956D01*
X129742413Y-81124192D01*
X128786605Y-82080000D01*
X128427395Y-82080000D01*
X127471587Y-81124192D01*
X127207186Y-81219956D01*
X127066296Y-81509571D01*
X126984616Y-81821108D01*
X126965282Y-82142595D01*
X123741189Y-82142595D01*
X123748718Y-82017405D01*
X123704961Y-81698325D01*
X123599795Y-81393912D01*
X123506814Y-81219956D01*
X123242413Y-81124192D01*
X122286605Y-82080000D01*
X121927395Y-82080000D01*
X120971587Y-81124192D01*
X120707186Y-81219956D01*
X120566296Y-81509571D01*
X120484616Y-81821108D01*
X120465282Y-82142595D01*
X120130189Y-82142595D01*
X120137718Y-82017405D01*
X120093961Y-81698325D01*
X119988795Y-81393912D01*
X119895814Y-81219956D01*
X119631413Y-81124192D01*
X118675605Y-82080000D01*
X118316395Y-82080000D01*
X118302253Y-82065858D01*
X118481858Y-81886253D01*
X118496000Y-81900395D01*
X119451808Y-80944587D01*
X121151192Y-80944587D01*
X122107000Y-81900395D01*
X123062808Y-80944587D01*
X127651192Y-80944587D01*
X128607000Y-81900395D01*
X129562808Y-80944587D01*
X131262192Y-80944587D01*
X132218000Y-81900395D01*
X133173808Y-80944587D01*
X137762192Y-80944587D01*
X138718000Y-81900395D01*
X139673808Y-80944587D01*
X139578044Y-80680186D01*
X139288429Y-80539296D01*
X138976892Y-80457616D01*
X138655405Y-80438282D01*
X138336325Y-80482039D01*
X138031912Y-80587205D01*
X137857956Y-80680186D01*
X137762192Y-80944587D01*
X133173808Y-80944587D01*
X133078044Y-80680186D01*
X132788429Y-80539296D01*
X132476892Y-80457616D01*
X132155405Y-80438282D01*
X131836325Y-80482039D01*
X131531912Y-80587205D01*
X131357956Y-80680186D01*
X131262192Y-80944587D01*
X129562808Y-80944587D01*
X129467044Y-80680186D01*
X129177429Y-80539296D01*
X128865892Y-80457616D01*
X128544405Y-80438282D01*
X128225325Y-80482039D01*
X127920912Y-80587205D01*
X127746956Y-80680186D01*
X127651192Y-80944587D01*
X123062808Y-80944587D01*
X122967044Y-80680186D01*
X122677429Y-80539296D01*
X122365892Y-80457616D01*
X122044405Y-80438282D01*
X121725325Y-80482039D01*
X121420912Y-80587205D01*
X121246956Y-80680186D01*
X121151192Y-80944587D01*
X119451808Y-80944587D01*
X119356044Y-80680186D01*
X119066429Y-80539296D01*
X118754892Y-80457616D01*
X118433405Y-80438282D01*
X118114325Y-80482039D01*
X117809912Y-80587205D01*
X117676999Y-80658248D01*
X117676999Y-78693676D01*
X117841851Y-78803826D01*
X118093177Y-78907929D01*
X118359983Y-78961000D01*
X118632017Y-78961000D01*
X118898823Y-78907929D01*
X119150149Y-78803826D01*
X119376336Y-78652693D01*
X119568693Y-78460336D01*
X119719826Y-78234149D01*
X119823929Y-77982823D01*
X119877000Y-77716017D01*
X119877000Y-77443983D01*
X120726000Y-77443983D01*
X120726000Y-77716017D01*
X120779071Y-77982823D01*
X120883174Y-78234149D01*
X121034307Y-78460336D01*
X121226664Y-78652693D01*
X121452851Y-78803826D01*
X121704177Y-78907929D01*
X121970983Y-78961000D01*
X122243017Y-78961000D01*
X122509823Y-78907929D01*
X122761149Y-78803826D01*
X122987336Y-78652693D01*
X123179693Y-78460336D01*
X123330826Y-78234149D01*
X123434929Y-77982823D01*
X123488000Y-77716017D01*
X123488000Y-77443983D01*
X127226000Y-77443983D01*
X127226000Y-77716017D01*
X127279071Y-77982823D01*
X127383174Y-78234149D01*
X127534307Y-78460336D01*
X127726664Y-78652693D01*
X127952851Y-78803826D01*
X128204177Y-78907929D01*
X128470983Y-78961000D01*
X128743017Y-78961000D01*
X129009823Y-78907929D01*
X129261149Y-78803826D01*
X129487336Y-78652693D01*
X129679693Y-78460336D01*
X129830826Y-78234149D01*
X129934929Y-77982823D01*
X129988000Y-77716017D01*
X129988000Y-77443983D01*
X130837000Y-77443983D01*
X130837000Y-77716017D01*
X130890071Y-77982823D01*
X130994174Y-78234149D01*
X131145307Y-78460336D01*
X131337664Y-78652693D01*
X131563851Y-78803826D01*
X131815177Y-78907929D01*
X132081983Y-78961000D01*
X132354017Y-78961000D01*
X132620823Y-78907929D01*
X132872149Y-78803826D01*
X133098336Y-78652693D01*
X133290693Y-78460336D01*
X133441826Y-78234149D01*
X133545929Y-77982823D01*
X133599000Y-77716017D01*
X133599000Y-77443983D01*
X137337000Y-77443983D01*
X137337000Y-77716017D01*
X137390071Y-77982823D01*
X137494174Y-78234149D01*
X137645307Y-78460336D01*
X137837664Y-78652693D01*
X138063851Y-78803826D01*
X138315177Y-78907929D01*
X138581983Y-78961000D01*
X138854017Y-78961000D01*
X139120823Y-78907929D01*
X139372149Y-78803826D01*
X139598336Y-78652693D01*
X139790693Y-78460336D01*
X139941826Y-78234149D01*
X140045929Y-77982823D01*
X140099000Y-77716017D01*
X140099000Y-77443983D01*
X140045929Y-77177177D01*
X139941826Y-76925851D01*
X139790693Y-76699664D01*
X139598336Y-76507307D01*
X139372149Y-76356174D01*
X139120823Y-76252071D01*
X138854017Y-76199000D01*
X138581983Y-76199000D01*
X138315177Y-76252071D01*
X138063851Y-76356174D01*
X137837664Y-76507307D01*
X137645307Y-76699664D01*
X137494174Y-76925851D01*
X137390071Y-77177177D01*
X137337000Y-77443983D01*
X133599000Y-77443983D01*
X133545929Y-77177177D01*
X133441826Y-76925851D01*
X133290693Y-76699664D01*
X133098336Y-76507307D01*
X132872149Y-76356174D01*
X132620823Y-76252071D01*
X132354017Y-76199000D01*
X132081983Y-76199000D01*
X131815177Y-76252071D01*
X131563851Y-76356174D01*
X131337664Y-76507307D01*
X131145307Y-76699664D01*
X130994174Y-76925851D01*
X130890071Y-77177177D01*
X130837000Y-77443983D01*
X129988000Y-77443983D01*
X129934929Y-77177177D01*
X129830826Y-76925851D01*
X129679693Y-76699664D01*
X129487336Y-76507307D01*
X129261149Y-76356174D01*
X129009823Y-76252071D01*
X128743017Y-76199000D01*
X128470983Y-76199000D01*
X128204177Y-76252071D01*
X127952851Y-76356174D01*
X127726664Y-76507307D01*
X127534307Y-76699664D01*
X127383174Y-76925851D01*
X127279071Y-77177177D01*
X127226000Y-77443983D01*
X123488000Y-77443983D01*
X123434929Y-77177177D01*
X123330826Y-76925851D01*
X123179693Y-76699664D01*
X122987336Y-76507307D01*
X122761149Y-76356174D01*
X122509823Y-76252071D01*
X122243017Y-76199000D01*
X121970983Y-76199000D01*
X121704177Y-76252071D01*
X121452851Y-76356174D01*
X121226664Y-76507307D01*
X121034307Y-76699664D01*
X120883174Y-76925851D01*
X120779071Y-77177177D01*
X120726000Y-77443983D01*
X119877000Y-77443983D01*
X119823929Y-77177177D01*
X119719826Y-76925851D01*
X119568693Y-76699664D01*
X119376336Y-76507307D01*
X119150149Y-76356174D01*
X118898823Y-76252071D01*
X118632017Y-76199000D01*
X118359983Y-76199000D01*
X118093177Y-76252071D01*
X117841851Y-76356174D01*
X117676999Y-76466324D01*
X117676999Y-73735590D01*
X125027566Y-66385024D01*
X125037887Y-66409942D01*
X125123358Y-66537859D01*
X125232141Y-66646642D01*
X125360058Y-66732113D01*
X125502191Y-66790987D01*
X125653078Y-66821000D01*
X125795409Y-66821000D01*
X127227038Y-68252630D01*
X127242883Y-68271937D01*
X127319931Y-68335169D01*
X127407835Y-68382155D01*
X127503217Y-68411088D01*
X127602410Y-68420858D01*
X127627264Y-68418410D01*
X172944911Y-68418410D01*
X173195500Y-68668999D01*
X127039446Y-68668999D01*
X127014600Y-68666552D01*
X126989754Y-68668999D01*
X126989747Y-68668999D01*
X126925295Y-68675347D01*
X126915407Y-68676321D01*
X126820026Y-68705254D01*
X126732122Y-68752240D01*
X126655074Y-68815472D01*
X126639229Y-68834779D01*
X124677809Y-70796200D01*
X124535478Y-70796200D01*
X124384591Y-70826213D01*
X124242458Y-70885087D01*
X124114541Y-70970558D01*
X124005758Y-71079341D01*
X123920287Y-71207258D01*
X123861413Y-71349391D01*
X123831400Y-71500278D01*
X123831400Y-71654122D01*
X123861413Y-71805009D01*
X123920287Y-71947142D01*
X124005758Y-72075059D01*
X124114541Y-72183842D01*
X124242458Y-72269313D01*
X124384591Y-72328187D01*
X124535478Y-72358200D01*
X124689322Y-72358200D01*
X124840209Y-72328187D01*
X124982342Y-72269313D01*
X125110259Y-72183842D01*
X125219042Y-72075059D01*
X125304513Y-71947142D01*
X125363387Y-71805009D01*
X125393400Y-71654122D01*
X125393400Y-71511791D01*
X127224193Y-69680999D01*
X143526397Y-69680999D01*
X143340152Y-69805444D01*
X143099044Y-70046552D01*
X142909607Y-70330064D01*
X142779121Y-70645086D01*
X142712600Y-70979511D01*
X142712600Y-71320489D01*
X142779121Y-71654914D01*
X142909607Y-71969936D01*
X143099044Y-72253448D01*
X143340152Y-72494556D01*
X143623664Y-72683993D01*
X143938686Y-72814479D01*
X144273111Y-72881000D01*
X144614089Y-72881000D01*
X144948514Y-72814479D01*
X145263536Y-72683993D01*
X145547048Y-72494556D01*
X145788156Y-72253448D01*
X145977593Y-71969936D01*
X146108079Y-71654914D01*
X146174600Y-71320489D01*
X146174600Y-71200000D01*
X150555528Y-71200000D01*
X150567788Y-71324482D01*
X150604098Y-71444180D01*
X150663063Y-71554494D01*
X150742415Y-71651185D01*
X150839106Y-71730537D01*
X150949420Y-71789502D01*
X151069118Y-71825812D01*
X151193600Y-71838072D01*
X151757850Y-71835000D01*
X151916600Y-71676250D01*
X151916600Y-70477000D01*
X150717350Y-70477000D01*
X150558600Y-70635750D01*
X150555528Y-71200000D01*
X146174600Y-71200000D01*
X146174600Y-70979511D01*
X146108079Y-70645086D01*
X145977593Y-70330064D01*
X145788156Y-70046552D01*
X145547048Y-69805444D01*
X145360803Y-69680999D01*
X150556513Y-69680999D01*
X150558600Y-70064250D01*
X150717350Y-70223000D01*
X151916600Y-70223000D01*
X151916600Y-70203000D01*
X152170600Y-70203000D01*
X152170600Y-70223000D01*
X152190600Y-70223000D01*
X152190600Y-70477000D01*
X152170600Y-70477000D01*
X152170600Y-71676250D01*
X152267791Y-71773441D01*
X149638937Y-74402295D01*
X149614857Y-74422057D01*
X149536004Y-74518140D01*
X149477411Y-74627759D01*
X149441330Y-74746703D01*
X149432200Y-74839403D01*
X149432200Y-74839410D01*
X149429148Y-74870400D01*
X149432200Y-74901390D01*
X149432201Y-83349500D01*
X149428487Y-83355058D01*
X149369613Y-83497191D01*
X149339600Y-83648078D01*
X149339600Y-83801922D01*
X149369613Y-83952809D01*
X149428487Y-84094942D01*
X149513958Y-84222859D01*
X149622741Y-84331642D01*
X149750658Y-84417113D01*
X149892791Y-84475987D01*
X150043678Y-84506000D01*
X150197522Y-84506000D01*
X150348409Y-84475987D01*
X150490542Y-84417113D01*
X150582005Y-84356000D01*
X159320030Y-84356000D01*
X168710297Y-93746268D01*
X168730055Y-93770343D01*
X168754130Y-93790101D01*
X168754132Y-93790103D01*
X168826137Y-93849196D01*
X168935756Y-93907789D01*
X169054700Y-93943870D01*
X169178398Y-93956053D01*
X169209396Y-93953000D01*
X175632957Y-93953000D01*
X175632957Y-94172000D01*
X175640313Y-94246689D01*
X175662099Y-94318508D01*
X175697478Y-94384696D01*
X175745089Y-94442711D01*
X175803104Y-94490322D01*
X175869292Y-94525701D01*
X175941111Y-94547487D01*
X176015800Y-94554843D01*
X176148301Y-94554843D01*
X175944541Y-94684186D01*
X175732463Y-94886546D01*
X175563938Y-95126392D01*
X175445443Y-95394507D01*
X175424324Y-95505110D01*
X175545645Y-95735000D01*
X176988800Y-95735000D01*
X176988800Y-95715000D01*
X177242800Y-95715000D01*
X177242800Y-95735000D01*
X178685955Y-95735000D01*
X178807276Y-95505110D01*
X178786157Y-95394507D01*
X178667662Y-95126392D01*
X178499137Y-94886546D01*
X178302888Y-94699289D01*
X185471000Y-94699289D01*
X185471000Y-95089511D01*
X185547129Y-95472236D01*
X185696461Y-95832755D01*
X185913257Y-96157214D01*
X186189186Y-96433143D01*
X186513645Y-96649939D01*
X186874164Y-96799271D01*
X187256889Y-96875400D01*
X187647111Y-96875400D01*
X188029836Y-96799271D01*
X188390355Y-96649939D01*
X188714814Y-96433143D01*
X188990743Y-96157214D01*
X189207539Y-95832755D01*
X189356871Y-95472236D01*
X189433000Y-95089511D01*
X189433000Y-94699289D01*
X189356871Y-94316564D01*
X189207539Y-93956045D01*
X188990743Y-93631586D01*
X188714814Y-93355657D01*
X188390355Y-93138861D01*
X188029836Y-92989529D01*
X187647111Y-92913400D01*
X187256889Y-92913400D01*
X186874164Y-92989529D01*
X186513645Y-93138861D01*
X186189186Y-93355657D01*
X185913257Y-93631586D01*
X185696461Y-93956045D01*
X185547129Y-94316564D01*
X185471000Y-94699289D01*
X178302888Y-94699289D01*
X178287059Y-94684186D01*
X178083299Y-94554843D01*
X178215800Y-94554843D01*
X178290489Y-94547487D01*
X178362308Y-94525701D01*
X178428496Y-94490322D01*
X178486511Y-94442711D01*
X178534122Y-94384696D01*
X178569501Y-94318508D01*
X178591287Y-94246689D01*
X178598643Y-94172000D01*
X178598643Y-92472000D01*
X178591287Y-92397311D01*
X178569501Y-92325492D01*
X178534122Y-92259304D01*
X178486511Y-92201289D01*
X178428496Y-92153678D01*
X178362308Y-92118299D01*
X178290489Y-92096513D01*
X178215800Y-92089157D01*
X176015800Y-92089157D01*
X175941111Y-92096513D01*
X175869292Y-92118299D01*
X175803104Y-92153678D01*
X175745089Y-92201289D01*
X175697478Y-92259304D01*
X175662099Y-92325492D01*
X175640313Y-92397311D01*
X175632957Y-92472000D01*
X175632957Y-92691000D01*
X169439767Y-92691000D01*
X165548767Y-88800000D01*
X178917157Y-88800000D01*
X178917157Y-90800000D01*
X178924513Y-90874689D01*
X178946299Y-90946508D01*
X178981678Y-91012696D01*
X179029289Y-91070711D01*
X179087304Y-91118322D01*
X179153492Y-91153701D01*
X179225311Y-91175487D01*
X179300000Y-91182843D01*
X182500000Y-91182843D01*
X182574689Y-91175487D01*
X182646508Y-91153701D01*
X182712696Y-91118322D01*
X182770711Y-91070711D01*
X182818322Y-91012696D01*
X182853701Y-90946508D01*
X182875487Y-90874689D01*
X182882843Y-90800000D01*
X182882843Y-88800000D01*
X182875487Y-88725311D01*
X182853701Y-88653492D01*
X182818322Y-88587304D01*
X182770711Y-88529289D01*
X182712696Y-88481678D01*
X182646508Y-88446299D01*
X182574689Y-88424513D01*
X182500000Y-88417157D01*
X179300000Y-88417157D01*
X179225311Y-88424513D01*
X179153492Y-88446299D01*
X179087304Y-88481678D01*
X179029289Y-88529289D01*
X178981678Y-88587304D01*
X178946299Y-88653492D01*
X178924513Y-88725311D01*
X178917157Y-88800000D01*
X165548767Y-88800000D01*
X163312750Y-86563983D01*
X172019000Y-86563983D01*
X172019000Y-86836017D01*
X172072071Y-87102823D01*
X172176174Y-87354149D01*
X172327307Y-87580336D01*
X172519664Y-87772693D01*
X172745851Y-87923826D01*
X172997177Y-88027929D01*
X173263983Y-88081000D01*
X173536017Y-88081000D01*
X173802823Y-88027929D01*
X174054149Y-87923826D01*
X174280336Y-87772693D01*
X174472693Y-87580336D01*
X174623826Y-87354149D01*
X174727929Y-87102823D01*
X174781000Y-86836017D01*
X174781000Y-86563983D01*
X174727929Y-86297177D01*
X174623826Y-86045851D01*
X174472693Y-85819664D01*
X174280336Y-85627307D01*
X174248458Y-85606007D01*
X174260044Y-85599814D01*
X174355808Y-85335413D01*
X173400000Y-84379605D01*
X172444192Y-85335413D01*
X172539956Y-85599814D01*
X172552024Y-85605685D01*
X172519664Y-85627307D01*
X172327307Y-85819664D01*
X172176174Y-86045851D01*
X172072071Y-86297177D01*
X172019000Y-86563983D01*
X163312750Y-86563983D01*
X161011362Y-84262595D01*
X171758282Y-84262595D01*
X171802039Y-84581675D01*
X171907205Y-84886088D01*
X172000186Y-85060044D01*
X172264587Y-85155808D01*
X173220395Y-84200000D01*
X173206253Y-84185858D01*
X173385858Y-84006253D01*
X173400000Y-84020395D01*
X173414143Y-84006253D01*
X173593748Y-84185858D01*
X173579605Y-84200000D01*
X174535413Y-85155808D01*
X174799814Y-85060044D01*
X174940704Y-84770429D01*
X175022384Y-84458892D01*
X175041718Y-84137405D01*
X174997961Y-83818325D01*
X174892795Y-83513912D01*
X174799814Y-83339956D01*
X174535415Y-83244193D01*
X174651083Y-83128525D01*
X174565896Y-83043338D01*
X174612696Y-83018322D01*
X174670711Y-82970711D01*
X174718322Y-82912696D01*
X174753701Y-82846508D01*
X174775487Y-82774689D01*
X174782843Y-82700000D01*
X174782843Y-80700000D01*
X174775487Y-80625311D01*
X174753701Y-80553492D01*
X174718322Y-80487304D01*
X174670711Y-80429289D01*
X174612696Y-80381678D01*
X174546508Y-80346299D01*
X174474689Y-80324513D01*
X174400000Y-80317157D01*
X172400000Y-80317157D01*
X172325311Y-80324513D01*
X172253492Y-80346299D01*
X172187304Y-80381678D01*
X172129289Y-80429289D01*
X172081678Y-80487304D01*
X172046299Y-80553492D01*
X172024513Y-80625311D01*
X172017157Y-80700000D01*
X172017157Y-82700000D01*
X172024513Y-82774689D01*
X172046299Y-82846508D01*
X172081678Y-82912696D01*
X172129289Y-82970711D01*
X172187304Y-83018322D01*
X172234104Y-83043338D01*
X172148917Y-83128525D01*
X172264585Y-83244193D01*
X172000186Y-83339956D01*
X171859296Y-83629571D01*
X171777616Y-83941108D01*
X171758282Y-84262595D01*
X161011362Y-84262595D01*
X160049501Y-83300735D01*
X160029741Y-83276657D01*
X159933659Y-83197804D01*
X159824040Y-83139211D01*
X159705096Y-83103130D01*
X159612396Y-83094000D01*
X159612388Y-83094000D01*
X159581398Y-83090948D01*
X159550408Y-83094000D01*
X150694200Y-83094000D01*
X150694200Y-75131768D01*
X152377408Y-73448560D01*
X154594000Y-73448560D01*
X154594000Y-73769840D01*
X154656678Y-74084945D01*
X154779626Y-74381768D01*
X154958119Y-74648902D01*
X155185298Y-74876081D01*
X155452432Y-75054574D01*
X155749255Y-75177522D01*
X156064360Y-75240200D01*
X156385640Y-75240200D01*
X156700745Y-75177522D01*
X156997568Y-75054574D01*
X157264702Y-74876081D01*
X157491881Y-74648902D01*
X157670374Y-74381768D01*
X157793322Y-74084945D01*
X157856000Y-73769840D01*
X157856000Y-73448560D01*
X157793322Y-73133455D01*
X157670374Y-72836632D01*
X157491881Y-72569498D01*
X157264702Y-72342319D01*
X156997568Y-72163826D01*
X156700745Y-72040878D01*
X156385640Y-71978200D01*
X156064360Y-71978200D01*
X155749255Y-72040878D01*
X155452432Y-72163826D01*
X155185298Y-72342319D01*
X154958119Y-72569498D01*
X154779626Y-72836632D01*
X154656678Y-73133455D01*
X154594000Y-73448560D01*
X152377408Y-73448560D01*
X154281036Y-71544933D01*
X154462357Y-71581000D01*
X154704843Y-71581000D01*
X154942669Y-71533693D01*
X155166697Y-71440898D01*
X155368317Y-71306180D01*
X155539780Y-71134717D01*
X155674498Y-70933097D01*
X155767293Y-70709069D01*
X155814600Y-70471243D01*
X155814600Y-70228757D01*
X155767293Y-69990931D01*
X155674498Y-69766903D01*
X155617099Y-69680999D01*
X156090101Y-69680999D01*
X156032702Y-69766903D01*
X155939907Y-69990931D01*
X155892600Y-70228757D01*
X155892600Y-70471243D01*
X155939907Y-70709069D01*
X156032702Y-70933097D01*
X156167420Y-71134717D01*
X156338883Y-71306180D01*
X156540503Y-71440898D01*
X156764531Y-71533693D01*
X157002357Y-71581000D01*
X157244843Y-71581000D01*
X157482669Y-71533693D01*
X157559767Y-71501758D01*
X158853601Y-72795593D01*
X158853600Y-81392699D01*
X158752958Y-81493341D01*
X158667487Y-81621258D01*
X158608613Y-81763391D01*
X158578600Y-81914278D01*
X158578600Y-82068122D01*
X158608613Y-82219009D01*
X158667487Y-82361142D01*
X158752958Y-82489059D01*
X158861741Y-82597842D01*
X158989658Y-82683313D01*
X159131791Y-82742187D01*
X159282678Y-82772200D01*
X159436522Y-82772200D01*
X159587409Y-82742187D01*
X159729542Y-82683313D01*
X159857459Y-82597842D01*
X159966242Y-82489059D01*
X160051713Y-82361142D01*
X160110587Y-82219009D01*
X160140600Y-82068122D01*
X160140600Y-81914278D01*
X160110587Y-81763391D01*
X160051713Y-81621258D01*
X159966242Y-81493341D01*
X159865600Y-81392699D01*
X159865600Y-72610854D01*
X159868048Y-72586000D01*
X159858278Y-72486807D01*
X159829345Y-72391425D01*
X159782359Y-72303521D01*
X159719127Y-72226473D01*
X159699820Y-72210628D01*
X158275358Y-70786167D01*
X158307293Y-70709069D01*
X158354600Y-70471243D01*
X158354600Y-70228757D01*
X158307293Y-69990931D01*
X158214498Y-69766903D01*
X158157099Y-69680999D01*
X158630101Y-69680999D01*
X158572702Y-69766903D01*
X158479907Y-69990931D01*
X158432600Y-70228757D01*
X158432600Y-70471243D01*
X158479907Y-70709069D01*
X158572702Y-70933097D01*
X158707420Y-71134717D01*
X158878883Y-71306180D01*
X159080503Y-71440898D01*
X159304531Y-71533693D01*
X159542357Y-71581000D01*
X159784843Y-71581000D01*
X160022669Y-71533693D01*
X160246697Y-71440898D01*
X160448317Y-71306180D01*
X160619780Y-71134717D01*
X160754498Y-70933097D01*
X160847293Y-70709069D01*
X160894600Y-70471243D01*
X160894600Y-70228757D01*
X160847293Y-69990931D01*
X160754498Y-69766903D01*
X160697099Y-69680999D01*
X166726397Y-69680999D01*
X166540152Y-69805444D01*
X166299044Y-70046552D01*
X166109607Y-70330064D01*
X165979121Y-70645086D01*
X165912600Y-70979511D01*
X165912600Y-71320489D01*
X165979121Y-71654914D01*
X166109607Y-71969936D01*
X166299044Y-72253448D01*
X166540152Y-72494556D01*
X166823664Y-72683993D01*
X167138686Y-72814479D01*
X167473111Y-72881000D01*
X167814089Y-72881000D01*
X168148514Y-72814479D01*
X168463536Y-72683993D01*
X168747048Y-72494556D01*
X168988156Y-72253448D01*
X169177593Y-71969936D01*
X169308079Y-71654914D01*
X169374600Y-71320489D01*
X169374600Y-70979511D01*
X169308079Y-70645086D01*
X169177593Y-70330064D01*
X168988156Y-70046552D01*
X168747048Y-69805444D01*
X168560803Y-69680999D01*
X173571090Y-69680999D01*
X181107247Y-77217157D01*
X179300000Y-77217157D01*
X179225311Y-77224513D01*
X179153492Y-77246299D01*
X179087304Y-77281678D01*
X179029289Y-77329289D01*
X178981678Y-77387304D01*
X178946299Y-77453492D01*
X178924513Y-77525311D01*
X178917157Y-77600000D01*
X178917157Y-79600000D01*
X178924513Y-79674689D01*
X178946299Y-79746508D01*
X178981678Y-79812696D01*
X179029289Y-79870711D01*
X179087304Y-79918322D01*
X179153492Y-79953701D01*
X179225311Y-79975487D01*
X179300000Y-79982843D01*
X182500000Y-79982843D01*
X182574689Y-79975487D01*
X182646508Y-79953701D01*
X182712696Y-79918322D01*
X182770711Y-79870711D01*
X182818322Y-79812696D01*
X182853701Y-79746508D01*
X182875487Y-79674689D01*
X182882843Y-79600000D01*
X182882843Y-78113432D01*
X186068999Y-81299589D01*
X186069000Y-85350143D01*
X186066552Y-85374999D01*
X186076321Y-85474191D01*
X186105254Y-85569573D01*
X186105255Y-85569574D01*
X186152241Y-85657478D01*
X186215473Y-85734526D01*
X186234779Y-85750370D01*
X186633437Y-86149028D01*
X186572071Y-86297177D01*
X186519000Y-86563983D01*
X186519000Y-86836017D01*
X186572071Y-87102823D01*
X186676174Y-87354149D01*
X186827307Y-87580336D01*
X187019664Y-87772693D01*
X187245851Y-87923826D01*
X187497177Y-88027929D01*
X187763983Y-88081000D01*
X188036017Y-88081000D01*
X188302823Y-88027929D01*
X188554149Y-87923826D01*
X188780336Y-87772693D01*
X188972693Y-87580336D01*
X189123826Y-87354149D01*
X189227929Y-87102823D01*
X189281000Y-86836017D01*
X189281000Y-86563983D01*
X189227929Y-86297177D01*
X189123826Y-86045851D01*
X188972693Y-85819664D01*
X188780336Y-85627307D01*
X188554149Y-85476174D01*
X188302823Y-85372071D01*
X188036017Y-85319000D01*
X187763983Y-85319000D01*
X187497177Y-85372071D01*
X187349028Y-85433437D01*
X187080999Y-85165408D01*
X187080999Y-83119780D01*
X187329571Y-83240704D01*
X187641108Y-83322384D01*
X187962595Y-83341718D01*
X188281675Y-83297961D01*
X188586088Y-83192795D01*
X188760044Y-83099814D01*
X188855808Y-82835413D01*
X187900000Y-81879605D01*
X187885858Y-81893748D01*
X187706253Y-81714143D01*
X187720395Y-81700000D01*
X188079605Y-81700000D01*
X189035413Y-82655808D01*
X189299814Y-82560044D01*
X189440704Y-82270429D01*
X189522384Y-81958892D01*
X189541718Y-81637405D01*
X189497961Y-81318325D01*
X189392795Y-81013912D01*
X189299814Y-80839956D01*
X189035413Y-80744192D01*
X188079605Y-81700000D01*
X187720395Y-81700000D01*
X187706253Y-81685858D01*
X187885858Y-81506253D01*
X187900000Y-81520395D01*
X188855808Y-80564587D01*
X188760044Y-80300186D01*
X188470429Y-80159296D01*
X188158892Y-80077616D01*
X187837405Y-80058282D01*
X187518325Y-80102039D01*
X187213912Y-80207205D01*
X187039956Y-80300186D01*
X186944193Y-80564585D01*
X186828525Y-80448917D01*
X186739018Y-80538424D01*
X183135377Y-76934784D01*
X183119528Y-76915472D01*
X183042480Y-76852240D01*
X182954576Y-76805254D01*
X182859194Y-76776321D01*
X182784855Y-76768999D01*
X182784847Y-76768999D01*
X182760001Y-76766552D01*
X182735155Y-76768999D01*
X182090273Y-76768999D01*
X177201273Y-71880000D01*
X178402499Y-71880000D01*
X178503141Y-71980642D01*
X178631058Y-72066113D01*
X178773191Y-72124987D01*
X178924078Y-72155000D01*
X179077922Y-72155000D01*
X179228809Y-72124987D01*
X179370942Y-72066113D01*
X179498859Y-71980642D01*
X179607642Y-71871859D01*
X179693113Y-71743942D01*
X179751987Y-71601809D01*
X179782000Y-71450922D01*
X179782000Y-71297078D01*
X179751987Y-71146191D01*
X179693113Y-71004058D01*
X179607642Y-70876141D01*
X179498859Y-70767358D01*
X179370942Y-70681887D01*
X179228809Y-70623013D01*
X179077922Y-70593000D01*
X178924078Y-70593000D01*
X178773191Y-70623013D01*
X178718387Y-70645714D01*
X178762242Y-70601859D01*
X178847713Y-70473942D01*
X178906587Y-70331809D01*
X178936600Y-70180922D01*
X178936600Y-70027078D01*
X178906587Y-69876191D01*
X178847713Y-69734058D01*
X178762242Y-69606141D01*
X178653459Y-69497358D01*
X178525542Y-69411887D01*
X178383409Y-69353013D01*
X178232522Y-69323000D01*
X178090192Y-69323000D01*
X176195376Y-67428184D01*
X176251391Y-67451387D01*
X176402278Y-67481400D01*
X176556122Y-67481400D01*
X176707009Y-67451387D01*
X176849142Y-67392513D01*
X176977059Y-67307042D01*
X177085842Y-67198259D01*
X177171313Y-67070342D01*
X177230187Y-66928209D01*
X177260200Y-66777322D01*
X177260200Y-66623478D01*
X177230187Y-66472591D01*
X177171313Y-66330458D01*
X177085842Y-66202541D01*
X176977059Y-66093758D01*
X176849142Y-66008287D01*
X176707009Y-65949413D01*
X176556122Y-65919400D01*
X176413792Y-65919400D01*
X174315165Y-63820774D01*
X174299316Y-63801462D01*
X174222268Y-63738230D01*
X174134364Y-63691244D01*
X174038982Y-63662311D01*
X173964643Y-63654989D01*
X173964635Y-63654989D01*
X173939789Y-63652542D01*
X173914943Y-63654989D01*
X138173455Y-63654989D01*
X138148601Y-63652541D01*
X138123747Y-63654989D01*
X138049408Y-63662311D01*
X137954026Y-63691244D01*
X137866122Y-63738230D01*
X137789074Y-63801462D01*
X137773229Y-63820769D01*
X136785000Y-64808999D01*
X125406853Y-64808999D01*
X125381999Y-64806551D01*
X125357145Y-64808999D01*
X125282806Y-64816321D01*
X125187424Y-64845254D01*
X125099520Y-64892240D01*
X125022472Y-64955472D01*
X125006628Y-64974778D01*
X116830780Y-73150627D01*
X116811473Y-73166472D01*
X116748241Y-73243520D01*
X116723126Y-73290507D01*
X116701254Y-73331425D01*
X116672321Y-73426807D01*
X116662552Y-73525999D01*
X110406000Y-73525999D01*
X110406000Y-59204889D01*
X111469000Y-59204889D01*
X111469000Y-59595111D01*
X111545129Y-59977836D01*
X111694461Y-60338355D01*
X111911257Y-60662814D01*
X112187186Y-60938743D01*
X112511645Y-61155539D01*
X112872164Y-61304871D01*
X113254889Y-61381000D01*
X113645111Y-61381000D01*
X114027836Y-61304871D01*
X114388355Y-61155539D01*
X114712814Y-60938743D01*
X114988743Y-60662814D01*
X115205539Y-60338355D01*
X115354871Y-59977836D01*
X115431000Y-59595111D01*
X115431000Y-59204889D01*
X115354871Y-58822164D01*
X115270108Y-58617528D01*
X117387000Y-58617528D01*
X117387000Y-59238471D01*
X117404812Y-59419317D01*
X117475202Y-59651362D01*
X117589509Y-59865215D01*
X117743340Y-60052660D01*
X117930784Y-60206491D01*
X118144637Y-60320798D01*
X118376682Y-60391188D01*
X118618000Y-60414956D01*
X118859317Y-60391188D01*
X119091362Y-60320798D01*
X119305215Y-60206491D01*
X119492660Y-60052660D01*
X119646491Y-59865216D01*
X119760798Y-59651363D01*
X119831188Y-59419318D01*
X119849000Y-59238472D01*
X119849000Y-58617529D01*
X119849000Y-58617528D01*
X119927000Y-58617528D01*
X119927000Y-59238471D01*
X119944812Y-59419317D01*
X120015202Y-59651362D01*
X120129509Y-59865215D01*
X120283340Y-60052660D01*
X120470784Y-60206491D01*
X120684637Y-60320798D01*
X120916682Y-60391188D01*
X121158000Y-60414956D01*
X121399317Y-60391188D01*
X121631362Y-60320798D01*
X121845215Y-60206491D01*
X122032660Y-60052660D01*
X122186491Y-59865216D01*
X122300798Y-59651363D01*
X122371188Y-59419318D01*
X122389000Y-59238472D01*
X122389000Y-58617529D01*
X122389000Y-58617528D01*
X122467000Y-58617528D01*
X122467000Y-59238471D01*
X122484812Y-59419317D01*
X122555202Y-59651362D01*
X122669509Y-59865215D01*
X122823340Y-60052660D01*
X123010784Y-60206491D01*
X123224637Y-60320798D01*
X123456682Y-60391188D01*
X123698000Y-60414956D01*
X123939317Y-60391188D01*
X124171362Y-60320798D01*
X124385215Y-60206491D01*
X124572660Y-60052660D01*
X124726491Y-59865216D01*
X124840798Y-59651363D01*
X124911188Y-59419318D01*
X124929000Y-59238472D01*
X124929000Y-58617529D01*
X124929000Y-58617528D01*
X125007000Y-58617528D01*
X125007000Y-59238471D01*
X125024812Y-59419317D01*
X125095202Y-59651362D01*
X125209509Y-59865215D01*
X125363340Y-60052660D01*
X125550784Y-60206491D01*
X125764637Y-60320798D01*
X125996682Y-60391188D01*
X126238000Y-60414956D01*
X126479317Y-60391188D01*
X126711362Y-60320798D01*
X126925215Y-60206491D01*
X127112660Y-60052660D01*
X127266491Y-59865216D01*
X127380798Y-59651363D01*
X127451188Y-59419318D01*
X127469000Y-59238472D01*
X127469000Y-58617529D01*
X127469000Y-58617528D01*
X127547000Y-58617528D01*
X127547000Y-59238471D01*
X127564812Y-59419317D01*
X127635202Y-59651362D01*
X127749509Y-59865215D01*
X127903340Y-60052660D01*
X128090784Y-60206491D01*
X128304637Y-60320798D01*
X128536682Y-60391188D01*
X128778000Y-60414956D01*
X129019317Y-60391188D01*
X129251362Y-60320798D01*
X129465215Y-60206491D01*
X129652660Y-60052660D01*
X129806491Y-59865216D01*
X129920798Y-59651363D01*
X129991188Y-59419318D01*
X130009000Y-59238472D01*
X130009000Y-58617529D01*
X130009000Y-58617528D01*
X130087000Y-58617528D01*
X130087000Y-59238471D01*
X130104812Y-59419317D01*
X130175202Y-59651362D01*
X130289509Y-59865215D01*
X130443340Y-60052660D01*
X130630784Y-60206491D01*
X130844637Y-60320798D01*
X131076682Y-60391188D01*
X131318000Y-60414956D01*
X131559317Y-60391188D01*
X131791362Y-60320798D01*
X132005215Y-60206491D01*
X132192660Y-60052660D01*
X132346491Y-59865216D01*
X132460798Y-59651363D01*
X132531188Y-59419318D01*
X132549000Y-59238472D01*
X132549000Y-58617529D01*
X132549000Y-58617528D01*
X132627000Y-58617528D01*
X132627000Y-59238471D01*
X132644812Y-59419317D01*
X132715202Y-59651362D01*
X132829509Y-59865215D01*
X132983340Y-60052660D01*
X133170784Y-60206491D01*
X133384637Y-60320798D01*
X133616682Y-60391188D01*
X133858000Y-60414956D01*
X134099317Y-60391188D01*
X134331362Y-60320798D01*
X134545215Y-60206491D01*
X134732660Y-60052660D01*
X134886491Y-59865216D01*
X135000798Y-59651363D01*
X135071188Y-59419318D01*
X135089000Y-59238472D01*
X135089000Y-58617529D01*
X135071188Y-58436683D01*
X135000798Y-58204638D01*
X134886491Y-57990784D01*
X134752898Y-57828000D01*
X135165157Y-57828000D01*
X135165157Y-60028000D01*
X135172513Y-60102689D01*
X135194299Y-60174508D01*
X135229678Y-60240696D01*
X135277289Y-60298711D01*
X135335304Y-60346322D01*
X135401492Y-60381701D01*
X135473311Y-60403487D01*
X135548000Y-60410843D01*
X137248000Y-60410843D01*
X137322689Y-60403487D01*
X137394508Y-60381701D01*
X137460696Y-60346322D01*
X137518711Y-60298711D01*
X137566322Y-60240696D01*
X137601701Y-60174508D01*
X137623487Y-60102689D01*
X137630843Y-60028000D01*
X137630843Y-59289640D01*
X138361260Y-59289640D01*
X138411692Y-59578402D01*
X138517489Y-59851777D01*
X138674586Y-60099259D01*
X138876946Y-60311337D01*
X139116792Y-60479862D01*
X139384907Y-60598357D01*
X139495510Y-60619476D01*
X139725400Y-60498155D01*
X139725400Y-59055000D01*
X138520904Y-59055000D01*
X138361260Y-59289640D01*
X137630843Y-59289640D01*
X137630843Y-58566360D01*
X138361260Y-58566360D01*
X138520904Y-58801000D01*
X139725400Y-58801000D01*
X139725400Y-57357845D01*
X139979400Y-57357845D01*
X139979400Y-58801000D01*
X139999400Y-58801000D01*
X139999400Y-59055000D01*
X139979400Y-59055000D01*
X139979400Y-60498155D01*
X140209290Y-60619476D01*
X140319893Y-60598357D01*
X140588008Y-60479862D01*
X140827854Y-60311337D01*
X141030214Y-60099259D01*
X141187311Y-59851777D01*
X141258459Y-59667933D01*
X141363909Y-59865215D01*
X141517740Y-60052660D01*
X141705184Y-60206491D01*
X141919037Y-60320798D01*
X142151082Y-60391188D01*
X142392400Y-60414956D01*
X142633717Y-60391188D01*
X142865762Y-60320798D01*
X143079615Y-60206491D01*
X143267060Y-60052660D01*
X143420891Y-59865216D01*
X143535198Y-59651363D01*
X143605588Y-59419318D01*
X143623400Y-59238472D01*
X143623400Y-58617529D01*
X143623400Y-58617528D01*
X143701400Y-58617528D01*
X143701400Y-59238471D01*
X143719212Y-59419317D01*
X143789602Y-59651362D01*
X143903909Y-59865215D01*
X144057740Y-60052660D01*
X144245184Y-60206491D01*
X144459037Y-60320798D01*
X144691082Y-60391188D01*
X144932400Y-60414956D01*
X145173717Y-60391188D01*
X145405762Y-60320798D01*
X145619615Y-60206491D01*
X145807060Y-60052660D01*
X145960891Y-59865216D01*
X146075198Y-59651363D01*
X146145588Y-59419318D01*
X146163400Y-59238472D01*
X146163400Y-58617529D01*
X146145588Y-58436683D01*
X146075198Y-58204638D01*
X145960891Y-57990784D01*
X145827298Y-57828000D01*
X146239557Y-57828000D01*
X146239557Y-60028000D01*
X146246913Y-60102689D01*
X146268699Y-60174508D01*
X146304078Y-60240696D01*
X146351689Y-60298711D01*
X146409704Y-60346322D01*
X146475892Y-60381701D01*
X146547711Y-60403487D01*
X146622400Y-60410843D01*
X148322400Y-60410843D01*
X148397089Y-60403487D01*
X148468908Y-60381701D01*
X148535096Y-60346322D01*
X148593111Y-60298711D01*
X148640722Y-60240696D01*
X148676101Y-60174508D01*
X148697887Y-60102689D01*
X148705243Y-60028000D01*
X148705243Y-59289640D01*
X149435660Y-59289640D01*
X149486092Y-59578402D01*
X149591889Y-59851777D01*
X149748986Y-60099259D01*
X149951346Y-60311337D01*
X150191192Y-60479862D01*
X150459307Y-60598357D01*
X150569910Y-60619476D01*
X150799800Y-60498155D01*
X150799800Y-59055000D01*
X149595304Y-59055000D01*
X149435660Y-59289640D01*
X148705243Y-59289640D01*
X148705243Y-58566360D01*
X149435660Y-58566360D01*
X149595304Y-58801000D01*
X150799800Y-58801000D01*
X150799800Y-57357845D01*
X151053800Y-57357845D01*
X151053800Y-58801000D01*
X151073800Y-58801000D01*
X151073800Y-59055000D01*
X151053800Y-59055000D01*
X151053800Y-60498155D01*
X151283690Y-60619476D01*
X151394293Y-60598357D01*
X151662408Y-60479862D01*
X151902254Y-60311337D01*
X152104614Y-60099259D01*
X152261711Y-59851777D01*
X152332859Y-59667933D01*
X152438309Y-59865215D01*
X152592140Y-60052660D01*
X152779584Y-60206491D01*
X152993437Y-60320798D01*
X153225482Y-60391188D01*
X153466800Y-60414956D01*
X153708117Y-60391188D01*
X153940162Y-60320798D01*
X154154015Y-60206491D01*
X154341460Y-60052660D01*
X154495291Y-59865216D01*
X154609598Y-59651363D01*
X154679988Y-59419318D01*
X154697800Y-59238472D01*
X154697800Y-58617529D01*
X154697800Y-58617528D01*
X154775800Y-58617528D01*
X154775800Y-59238471D01*
X154793612Y-59419317D01*
X154864002Y-59651362D01*
X154978309Y-59865215D01*
X155132140Y-60052660D01*
X155319584Y-60206491D01*
X155533437Y-60320798D01*
X155765482Y-60391188D01*
X156006800Y-60414956D01*
X156248117Y-60391188D01*
X156480162Y-60320798D01*
X156694015Y-60206491D01*
X156881460Y-60052660D01*
X157035291Y-59865216D01*
X157149598Y-59651363D01*
X157219988Y-59419318D01*
X157237800Y-59238472D01*
X157237800Y-58617529D01*
X157237800Y-58617528D01*
X157315800Y-58617528D01*
X157315800Y-59238471D01*
X157333612Y-59419317D01*
X157404002Y-59651362D01*
X157518309Y-59865215D01*
X157672140Y-60052660D01*
X157859584Y-60206491D01*
X158073437Y-60320798D01*
X158305482Y-60391188D01*
X158546800Y-60414956D01*
X158788117Y-60391188D01*
X159020162Y-60320798D01*
X159234015Y-60206491D01*
X159421460Y-60052660D01*
X159575291Y-59865216D01*
X159689598Y-59651363D01*
X159759988Y-59419318D01*
X159777800Y-59238472D01*
X159777800Y-58617529D01*
X159759988Y-58436683D01*
X159689598Y-58204638D01*
X159575291Y-57990784D01*
X159441698Y-57828000D01*
X159853957Y-57828000D01*
X159853957Y-60028000D01*
X159861313Y-60102689D01*
X159883099Y-60174508D01*
X159918478Y-60240696D01*
X159966089Y-60298711D01*
X160024104Y-60346322D01*
X160090292Y-60381701D01*
X160162111Y-60403487D01*
X160236800Y-60410843D01*
X161936800Y-60410843D01*
X162011489Y-60403487D01*
X162083308Y-60381701D01*
X162149496Y-60346322D01*
X162207511Y-60298711D01*
X162255122Y-60240696D01*
X162290501Y-60174508D01*
X162312287Y-60102689D01*
X162319643Y-60028000D01*
X162319643Y-59289640D01*
X163164360Y-59289640D01*
X163214792Y-59578402D01*
X163320589Y-59851777D01*
X163477686Y-60099259D01*
X163680046Y-60311337D01*
X163919892Y-60479862D01*
X164188007Y-60598357D01*
X164298610Y-60619476D01*
X164528500Y-60498155D01*
X164528500Y-59055000D01*
X163324004Y-59055000D01*
X163164360Y-59289640D01*
X162319643Y-59289640D01*
X162319643Y-58566360D01*
X163164360Y-58566360D01*
X163324004Y-58801000D01*
X164528500Y-58801000D01*
X164528500Y-57357845D01*
X164782500Y-57357845D01*
X164782500Y-58801000D01*
X164802500Y-58801000D01*
X164802500Y-59055000D01*
X164782500Y-59055000D01*
X164782500Y-60498155D01*
X165012390Y-60619476D01*
X165122993Y-60598357D01*
X165391108Y-60479862D01*
X165630954Y-60311337D01*
X165833314Y-60099259D01*
X165990411Y-59851777D01*
X166061559Y-59667933D01*
X166167009Y-59865215D01*
X166320840Y-60052660D01*
X166508284Y-60206491D01*
X166722137Y-60320798D01*
X166954182Y-60391188D01*
X167195500Y-60414956D01*
X167436817Y-60391188D01*
X167668862Y-60320798D01*
X167882715Y-60206491D01*
X168070160Y-60052660D01*
X168223991Y-59865216D01*
X168338298Y-59651363D01*
X168408688Y-59419318D01*
X168426500Y-59238472D01*
X168426500Y-58617529D01*
X168426500Y-58617528D01*
X168504500Y-58617528D01*
X168504500Y-59238471D01*
X168522312Y-59419317D01*
X168592702Y-59651362D01*
X168707009Y-59865215D01*
X168860840Y-60052660D01*
X169048284Y-60206491D01*
X169262137Y-60320798D01*
X169494182Y-60391188D01*
X169735500Y-60414956D01*
X169976817Y-60391188D01*
X170208862Y-60320798D01*
X170422715Y-60206491D01*
X170610160Y-60052660D01*
X170763991Y-59865216D01*
X170878298Y-59651363D01*
X170948688Y-59419318D01*
X170966500Y-59238472D01*
X170966500Y-58617529D01*
X170966500Y-58617528D01*
X171044500Y-58617528D01*
X171044500Y-59238471D01*
X171062312Y-59419317D01*
X171132702Y-59651362D01*
X171247009Y-59865215D01*
X171400840Y-60052660D01*
X171588284Y-60206491D01*
X171802137Y-60320798D01*
X172034182Y-60391188D01*
X172275500Y-60414956D01*
X172516817Y-60391188D01*
X172748862Y-60320798D01*
X172962715Y-60206491D01*
X173150160Y-60052660D01*
X173303991Y-59865216D01*
X173418298Y-59651363D01*
X173488688Y-59419318D01*
X173506500Y-59238472D01*
X173506500Y-58617529D01*
X173506500Y-58617528D01*
X173584500Y-58617528D01*
X173584500Y-59238471D01*
X173602312Y-59419317D01*
X173672702Y-59651362D01*
X173787009Y-59865215D01*
X173940840Y-60052660D01*
X174128284Y-60206491D01*
X174342137Y-60320798D01*
X174574182Y-60391188D01*
X174815500Y-60414956D01*
X175056817Y-60391188D01*
X175288862Y-60320798D01*
X175502715Y-60206491D01*
X175690160Y-60052660D01*
X175843991Y-59865216D01*
X175958298Y-59651363D01*
X176028688Y-59419318D01*
X176046500Y-59238472D01*
X176046500Y-58617529D01*
X176046500Y-58617528D01*
X176124500Y-58617528D01*
X176124500Y-59238471D01*
X176142312Y-59419317D01*
X176212702Y-59651362D01*
X176327009Y-59865215D01*
X176480840Y-60052660D01*
X176668284Y-60206491D01*
X176882137Y-60320798D01*
X177114182Y-60391188D01*
X177355500Y-60414956D01*
X177596817Y-60391188D01*
X177828862Y-60320798D01*
X178042715Y-60206491D01*
X178230160Y-60052660D01*
X178383991Y-59865216D01*
X178498298Y-59651363D01*
X178568688Y-59419318D01*
X178586500Y-59238472D01*
X178586500Y-58617529D01*
X178586500Y-58617528D01*
X178664500Y-58617528D01*
X178664500Y-59238471D01*
X178682312Y-59419317D01*
X178752702Y-59651362D01*
X178867009Y-59865215D01*
X179020840Y-60052660D01*
X179208284Y-60206491D01*
X179422137Y-60320798D01*
X179654182Y-60391188D01*
X179895500Y-60414956D01*
X180136817Y-60391188D01*
X180368862Y-60320798D01*
X180582715Y-60206491D01*
X180770160Y-60052660D01*
X180923991Y-59865216D01*
X181038298Y-59651363D01*
X181108688Y-59419318D01*
X181126500Y-59238472D01*
X181126500Y-58617529D01*
X181108688Y-58436683D01*
X181038298Y-58204638D01*
X180923991Y-57990784D01*
X180790398Y-57828000D01*
X181202657Y-57828000D01*
X181202657Y-60028000D01*
X181210013Y-60102689D01*
X181231799Y-60174508D01*
X181267178Y-60240696D01*
X181314789Y-60298711D01*
X181372804Y-60346322D01*
X181438992Y-60381701D01*
X181510811Y-60403487D01*
X181585500Y-60410843D01*
X183285500Y-60410843D01*
X183360189Y-60403487D01*
X183432008Y-60381701D01*
X183498196Y-60346322D01*
X183556211Y-60298711D01*
X183603822Y-60240696D01*
X183639201Y-60174508D01*
X183660987Y-60102689D01*
X183668343Y-60028000D01*
X183668343Y-59204889D01*
X185519000Y-59204889D01*
X185519000Y-59595111D01*
X185595129Y-59977836D01*
X185744461Y-60338355D01*
X185961257Y-60662814D01*
X186237186Y-60938743D01*
X186561645Y-61155539D01*
X186922164Y-61304871D01*
X187304889Y-61381000D01*
X187695111Y-61381000D01*
X188077836Y-61304871D01*
X188438355Y-61155539D01*
X188762814Y-60938743D01*
X189038743Y-60662814D01*
X189255539Y-60338355D01*
X189404871Y-59977836D01*
X189481000Y-59595111D01*
X189481000Y-59204889D01*
X189404871Y-58822164D01*
X189255539Y-58461645D01*
X189038743Y-58137186D01*
X188762814Y-57861257D01*
X188438355Y-57644461D01*
X188077836Y-57495129D01*
X187695111Y-57419000D01*
X187304889Y-57419000D01*
X186922164Y-57495129D01*
X186561645Y-57644461D01*
X186237186Y-57861257D01*
X185961257Y-58137186D01*
X185744461Y-58461645D01*
X185595129Y-58822164D01*
X185519000Y-59204889D01*
X183668343Y-59204889D01*
X183668343Y-57828000D01*
X183660987Y-57753311D01*
X183639201Y-57681492D01*
X183603822Y-57615304D01*
X183556211Y-57557289D01*
X183498196Y-57509678D01*
X183432008Y-57474299D01*
X183360189Y-57452513D01*
X183285500Y-57445157D01*
X181585500Y-57445157D01*
X181510811Y-57452513D01*
X181438992Y-57474299D01*
X181372804Y-57509678D01*
X181314789Y-57557289D01*
X181267178Y-57615304D01*
X181231799Y-57681492D01*
X181210013Y-57753311D01*
X181202657Y-57828000D01*
X180790398Y-57828000D01*
X180770160Y-57803340D01*
X180582716Y-57649509D01*
X180368863Y-57535202D01*
X180136818Y-57464812D01*
X179895500Y-57441044D01*
X179654183Y-57464812D01*
X179422138Y-57535202D01*
X179208285Y-57649509D01*
X179020841Y-57803340D01*
X178867010Y-57990784D01*
X178752702Y-58204637D01*
X178682312Y-58436682D01*
X178664500Y-58617528D01*
X178586500Y-58617528D01*
X178568688Y-58436683D01*
X178498298Y-58204638D01*
X178383991Y-57990784D01*
X178230160Y-57803340D01*
X178042716Y-57649509D01*
X177828863Y-57535202D01*
X177596818Y-57464812D01*
X177355500Y-57441044D01*
X177114183Y-57464812D01*
X176882138Y-57535202D01*
X176668285Y-57649509D01*
X176480841Y-57803340D01*
X176327010Y-57990784D01*
X176212702Y-58204637D01*
X176142312Y-58436682D01*
X176124500Y-58617528D01*
X176046500Y-58617528D01*
X176028688Y-58436683D01*
X175958298Y-58204638D01*
X175843991Y-57990784D01*
X175690160Y-57803340D01*
X175502716Y-57649509D01*
X175288863Y-57535202D01*
X175056818Y-57464812D01*
X174815500Y-57441044D01*
X174574183Y-57464812D01*
X174342138Y-57535202D01*
X174128285Y-57649509D01*
X173940841Y-57803340D01*
X173787010Y-57990784D01*
X173672702Y-58204637D01*
X173602312Y-58436682D01*
X173584500Y-58617528D01*
X173506500Y-58617528D01*
X173488688Y-58436683D01*
X173418298Y-58204638D01*
X173303991Y-57990784D01*
X173150160Y-57803340D01*
X172962716Y-57649509D01*
X172748863Y-57535202D01*
X172516818Y-57464812D01*
X172275500Y-57441044D01*
X172034183Y-57464812D01*
X171802138Y-57535202D01*
X171588285Y-57649509D01*
X171400841Y-57803340D01*
X171247010Y-57990784D01*
X171132702Y-58204637D01*
X171062312Y-58436682D01*
X171044500Y-58617528D01*
X170966500Y-58617528D01*
X170948688Y-58436683D01*
X170878298Y-58204638D01*
X170763991Y-57990784D01*
X170610160Y-57803340D01*
X170422716Y-57649509D01*
X170208863Y-57535202D01*
X169976818Y-57464812D01*
X169735500Y-57441044D01*
X169494183Y-57464812D01*
X169262138Y-57535202D01*
X169048285Y-57649509D01*
X168860841Y-57803340D01*
X168707010Y-57990784D01*
X168592702Y-58204637D01*
X168522312Y-58436682D01*
X168504500Y-58617528D01*
X168426500Y-58617528D01*
X168408688Y-58436683D01*
X168338298Y-58204638D01*
X168223991Y-57990784D01*
X168070160Y-57803340D01*
X167882716Y-57649509D01*
X167668863Y-57535202D01*
X167436818Y-57464812D01*
X167195500Y-57441044D01*
X166954183Y-57464812D01*
X166722138Y-57535202D01*
X166508285Y-57649509D01*
X166320841Y-57803340D01*
X166167010Y-57990784D01*
X166061559Y-58188067D01*
X165990411Y-58004223D01*
X165833314Y-57756741D01*
X165630954Y-57544663D01*
X165391108Y-57376138D01*
X165122993Y-57257643D01*
X165012390Y-57236524D01*
X164782500Y-57357845D01*
X164528500Y-57357845D01*
X164298610Y-57236524D01*
X164188007Y-57257643D01*
X163919892Y-57376138D01*
X163680046Y-57544663D01*
X163477686Y-57756741D01*
X163320589Y-58004223D01*
X163214792Y-58277598D01*
X163164360Y-58566360D01*
X162319643Y-58566360D01*
X162319643Y-57828000D01*
X162312287Y-57753311D01*
X162290501Y-57681492D01*
X162255122Y-57615304D01*
X162207511Y-57557289D01*
X162149496Y-57509678D01*
X162083308Y-57474299D01*
X162011489Y-57452513D01*
X161936800Y-57445157D01*
X160236800Y-57445157D01*
X160162111Y-57452513D01*
X160090292Y-57474299D01*
X160024104Y-57509678D01*
X159966089Y-57557289D01*
X159918478Y-57615304D01*
X159883099Y-57681492D01*
X159861313Y-57753311D01*
X159853957Y-57828000D01*
X159441698Y-57828000D01*
X159421460Y-57803340D01*
X159234016Y-57649509D01*
X159020163Y-57535202D01*
X158788118Y-57464812D01*
X158546800Y-57441044D01*
X158305483Y-57464812D01*
X158073438Y-57535202D01*
X157859585Y-57649509D01*
X157672141Y-57803340D01*
X157518310Y-57990784D01*
X157404002Y-58204637D01*
X157333612Y-58436682D01*
X157315800Y-58617528D01*
X157237800Y-58617528D01*
X157219988Y-58436683D01*
X157149598Y-58204638D01*
X157035291Y-57990784D01*
X156881460Y-57803340D01*
X156694016Y-57649509D01*
X156480163Y-57535202D01*
X156248118Y-57464812D01*
X156006800Y-57441044D01*
X155765483Y-57464812D01*
X155533438Y-57535202D01*
X155319585Y-57649509D01*
X155132141Y-57803340D01*
X154978310Y-57990784D01*
X154864002Y-58204637D01*
X154793612Y-58436682D01*
X154775800Y-58617528D01*
X154697800Y-58617528D01*
X154679988Y-58436683D01*
X154609598Y-58204638D01*
X154495291Y-57990784D01*
X154341460Y-57803340D01*
X154154016Y-57649509D01*
X153940163Y-57535202D01*
X153708118Y-57464812D01*
X153466800Y-57441044D01*
X153225483Y-57464812D01*
X152993438Y-57535202D01*
X152779585Y-57649509D01*
X152592141Y-57803340D01*
X152438310Y-57990784D01*
X152332859Y-58188067D01*
X152261711Y-58004223D01*
X152104614Y-57756741D01*
X151902254Y-57544663D01*
X151662408Y-57376138D01*
X151394293Y-57257643D01*
X151283690Y-57236524D01*
X151053800Y-57357845D01*
X150799800Y-57357845D01*
X150569910Y-57236524D01*
X150459307Y-57257643D01*
X150191192Y-57376138D01*
X149951346Y-57544663D01*
X149748986Y-57756741D01*
X149591889Y-58004223D01*
X149486092Y-58277598D01*
X149435660Y-58566360D01*
X148705243Y-58566360D01*
X148705243Y-57828000D01*
X148697887Y-57753311D01*
X148676101Y-57681492D01*
X148640722Y-57615304D01*
X148593111Y-57557289D01*
X148535096Y-57509678D01*
X148468908Y-57474299D01*
X148397089Y-57452513D01*
X148322400Y-57445157D01*
X146622400Y-57445157D01*
X146547711Y-57452513D01*
X146475892Y-57474299D01*
X146409704Y-57509678D01*
X146351689Y-57557289D01*
X146304078Y-57615304D01*
X146268699Y-57681492D01*
X146246913Y-57753311D01*
X146239557Y-57828000D01*
X145827298Y-57828000D01*
X145807060Y-57803340D01*
X145619616Y-57649509D01*
X145405763Y-57535202D01*
X145173718Y-57464812D01*
X144932400Y-57441044D01*
X144691083Y-57464812D01*
X144459038Y-57535202D01*
X144245185Y-57649509D01*
X144057741Y-57803340D01*
X143903910Y-57990784D01*
X143789602Y-58204637D01*
X143719212Y-58436682D01*
X143701400Y-58617528D01*
X143623400Y-58617528D01*
X143605588Y-58436683D01*
X143535198Y-58204638D01*
X143420891Y-57990784D01*
X143267060Y-57803340D01*
X143079616Y-57649509D01*
X142865763Y-57535202D01*
X142633718Y-57464812D01*
X142392400Y-57441044D01*
X142151083Y-57464812D01*
X141919038Y-57535202D01*
X141705185Y-57649509D01*
X141517741Y-57803340D01*
X141363910Y-57990784D01*
X141258459Y-58188067D01*
X141187311Y-58004223D01*
X141030214Y-57756741D01*
X140827854Y-57544663D01*
X140588008Y-57376138D01*
X140319893Y-57257643D01*
X140209290Y-57236524D01*
X139979400Y-57357845D01*
X139725400Y-57357845D01*
X139495510Y-57236524D01*
X139384907Y-57257643D01*
X139116792Y-57376138D01*
X138876946Y-57544663D01*
X138674586Y-57756741D01*
X138517489Y-58004223D01*
X138411692Y-58277598D01*
X138361260Y-58566360D01*
X137630843Y-58566360D01*
X137630843Y-57828000D01*
X137623487Y-57753311D01*
X137601701Y-57681492D01*
X137566322Y-57615304D01*
X137518711Y-57557289D01*
X137460696Y-57509678D01*
X137394508Y-57474299D01*
X137322689Y-57452513D01*
X137248000Y-57445157D01*
X135548000Y-57445157D01*
X135473311Y-57452513D01*
X135401492Y-57474299D01*
X135335304Y-57509678D01*
X135277289Y-57557289D01*
X135229678Y-57615304D01*
X135194299Y-57681492D01*
X135172513Y-57753311D01*
X135165157Y-57828000D01*
X134752898Y-57828000D01*
X134732660Y-57803340D01*
X134545216Y-57649509D01*
X134331363Y-57535202D01*
X134099318Y-57464812D01*
X133858000Y-57441044D01*
X133616683Y-57464812D01*
X133384638Y-57535202D01*
X133170785Y-57649509D01*
X132983341Y-57803340D01*
X132829510Y-57990784D01*
X132715202Y-58204637D01*
X132644812Y-58436682D01*
X132627000Y-58617528D01*
X132549000Y-58617528D01*
X132531188Y-58436683D01*
X132460798Y-58204638D01*
X132346491Y-57990784D01*
X132192660Y-57803340D01*
X132005216Y-57649509D01*
X131791363Y-57535202D01*
X131559318Y-57464812D01*
X131318000Y-57441044D01*
X131076683Y-57464812D01*
X130844638Y-57535202D01*
X130630785Y-57649509D01*
X130443341Y-57803340D01*
X130289510Y-57990784D01*
X130175202Y-58204637D01*
X130104812Y-58436682D01*
X130087000Y-58617528D01*
X130009000Y-58617528D01*
X129991188Y-58436683D01*
X129920798Y-58204638D01*
X129806491Y-57990784D01*
X129652660Y-57803340D01*
X129465216Y-57649509D01*
X129251363Y-57535202D01*
X129019318Y-57464812D01*
X128778000Y-57441044D01*
X128536683Y-57464812D01*
X128304638Y-57535202D01*
X128090785Y-57649509D01*
X127903341Y-57803340D01*
X127749510Y-57990784D01*
X127635202Y-58204637D01*
X127564812Y-58436682D01*
X127547000Y-58617528D01*
X127469000Y-58617528D01*
X127451188Y-58436683D01*
X127380798Y-58204638D01*
X127266491Y-57990784D01*
X127112660Y-57803340D01*
X126925216Y-57649509D01*
X126711363Y-57535202D01*
X126479318Y-57464812D01*
X126238000Y-57441044D01*
X125996683Y-57464812D01*
X125764638Y-57535202D01*
X125550785Y-57649509D01*
X125363341Y-57803340D01*
X125209510Y-57990784D01*
X125095202Y-58204637D01*
X125024812Y-58436682D01*
X125007000Y-58617528D01*
X124929000Y-58617528D01*
X124911188Y-58436683D01*
X124840798Y-58204638D01*
X124726491Y-57990784D01*
X124572660Y-57803340D01*
X124385216Y-57649509D01*
X124171363Y-57535202D01*
X123939318Y-57464812D01*
X123698000Y-57441044D01*
X123456683Y-57464812D01*
X123224638Y-57535202D01*
X123010785Y-57649509D01*
X122823341Y-57803340D01*
X122669510Y-57990784D01*
X122555202Y-58204637D01*
X122484812Y-58436682D01*
X122467000Y-58617528D01*
X122389000Y-58617528D01*
X122371188Y-58436683D01*
X122300798Y-58204638D01*
X122186491Y-57990784D01*
X122032660Y-57803340D01*
X121845216Y-57649509D01*
X121631363Y-57535202D01*
X121399318Y-57464812D01*
X121158000Y-57441044D01*
X120916683Y-57464812D01*
X120684638Y-57535202D01*
X120470785Y-57649509D01*
X120283341Y-57803340D01*
X120129510Y-57990784D01*
X120015202Y-58204637D01*
X119944812Y-58436682D01*
X119927000Y-58617528D01*
X119849000Y-58617528D01*
X119831188Y-58436683D01*
X119760798Y-58204638D01*
X119646491Y-57990784D01*
X119492660Y-57803340D01*
X119305216Y-57649509D01*
X119091363Y-57535202D01*
X118859318Y-57464812D01*
X118618000Y-57441044D01*
X118376683Y-57464812D01*
X118144638Y-57535202D01*
X117930785Y-57649509D01*
X117743341Y-57803340D01*
X117589510Y-57990784D01*
X117475202Y-58204637D01*
X117404812Y-58436682D01*
X117387000Y-58617528D01*
X115270108Y-58617528D01*
X115205539Y-58461645D01*
X114988743Y-58137186D01*
X114712814Y-57861257D01*
X114388355Y-57644461D01*
X114027836Y-57495129D01*
X113645111Y-57419000D01*
X113254889Y-57419000D01*
X112872164Y-57495129D01*
X112511645Y-57644461D01*
X112187186Y-57861257D01*
X111911257Y-58137186D01*
X111694461Y-58461645D01*
X111545129Y-58822164D01*
X111469000Y-59204889D01*
X110406000Y-59204889D01*
X110406000Y-56406000D01*
X190594000Y-56406000D01*
X190594001Y-97994000D01*
G04 #@! TA.AperFunction,Conductor*
D26*
G36*
X190594001Y-97994000D02*
G01*
X110406000Y-97994000D01*
X110406000Y-94800889D01*
X111519000Y-94800889D01*
X111519000Y-95191111D01*
X111595129Y-95573836D01*
X111744461Y-95934355D01*
X111961257Y-96258814D01*
X112237186Y-96534743D01*
X112561645Y-96751539D01*
X112922164Y-96900871D01*
X113304889Y-96977000D01*
X113695111Y-96977000D01*
X114077836Y-96900871D01*
X114438355Y-96751539D01*
X114762814Y-96534743D01*
X115038743Y-96258814D01*
X115255539Y-95934355D01*
X115404871Y-95573836D01*
X115481000Y-95191111D01*
X115481000Y-94979511D01*
X142712600Y-94979511D01*
X142712600Y-95320489D01*
X142779121Y-95654914D01*
X142909607Y-95969936D01*
X143099044Y-96253448D01*
X143340152Y-96494556D01*
X143623664Y-96683993D01*
X143938686Y-96814479D01*
X144273111Y-96881000D01*
X144614089Y-96881000D01*
X144948514Y-96814479D01*
X145263536Y-96683993D01*
X145547048Y-96494556D01*
X145788156Y-96253448D01*
X145977593Y-95969936D01*
X146108079Y-95654914D01*
X146174600Y-95320489D01*
X146174600Y-94979511D01*
X146117849Y-94694200D01*
X154501928Y-94694200D01*
X154514188Y-94818682D01*
X154550498Y-94938380D01*
X154609463Y-95048694D01*
X154688815Y-95145385D01*
X154785506Y-95224737D01*
X154895820Y-95283702D01*
X155015518Y-95320012D01*
X155140000Y-95332272D01*
X155939250Y-95329200D01*
X156098000Y-95170450D01*
X156098000Y-93736200D01*
X156352000Y-93736200D01*
X156352000Y-95170450D01*
X156510750Y-95329200D01*
X157310000Y-95332272D01*
X157434482Y-95320012D01*
X157554180Y-95283702D01*
X157664494Y-95224737D01*
X157761185Y-95145385D01*
X157840537Y-95048694D01*
X157877516Y-94979511D01*
X165912600Y-94979511D01*
X165912600Y-95320489D01*
X165979121Y-95654914D01*
X166109607Y-95969936D01*
X166299044Y-96253448D01*
X166540152Y-96494556D01*
X166823664Y-96683993D01*
X167138686Y-96814479D01*
X167473111Y-96881000D01*
X167814089Y-96881000D01*
X168148514Y-96814479D01*
X168463536Y-96683993D01*
X168747048Y-96494556D01*
X168988156Y-96253448D01*
X169011246Y-96218890D01*
X175424324Y-96218890D01*
X175445443Y-96329493D01*
X175563938Y-96597608D01*
X175732463Y-96837454D01*
X175944541Y-97039814D01*
X176192023Y-97196911D01*
X176465398Y-97302708D01*
X176754160Y-97353140D01*
X176988800Y-97193496D01*
X176988800Y-95989000D01*
X177242800Y-95989000D01*
X177242800Y-97193496D01*
X177477440Y-97353140D01*
X177766202Y-97302708D01*
X178039577Y-97196911D01*
X178287059Y-97039814D01*
X178499137Y-96837454D01*
X178667662Y-96597608D01*
X178786157Y-96329493D01*
X178807276Y-96218890D01*
X178685955Y-95989000D01*
X177242800Y-95989000D01*
X176988800Y-95989000D01*
X175545645Y-95989000D01*
X175424324Y-96218890D01*
X169011246Y-96218890D01*
X169177593Y-95969936D01*
X169308079Y-95654914D01*
X169374600Y-95320489D01*
X169374600Y-94979511D01*
X169308079Y-94645086D01*
X169177593Y-94330064D01*
X168988156Y-94046552D01*
X168747048Y-93805444D01*
X168463536Y-93616007D01*
X168148514Y-93485521D01*
X167814089Y-93419000D01*
X167473111Y-93419000D01*
X167138686Y-93485521D01*
X166823664Y-93616007D01*
X166540152Y-93805444D01*
X166299044Y-94046552D01*
X166109607Y-94330064D01*
X165979121Y-94645086D01*
X165912600Y-94979511D01*
X157877516Y-94979511D01*
X157899502Y-94938380D01*
X157935812Y-94818682D01*
X157948072Y-94694200D01*
X157945000Y-93894950D01*
X157786250Y-93736200D01*
X156352000Y-93736200D01*
X156098000Y-93736200D01*
X154663750Y-93736200D01*
X154505000Y-93894950D01*
X154501928Y-94694200D01*
X146117849Y-94694200D01*
X146108079Y-94645086D01*
X145977593Y-94330064D01*
X145788156Y-94046552D01*
X145547048Y-93805444D01*
X145263536Y-93616007D01*
X144948514Y-93485521D01*
X144614089Y-93419000D01*
X144273111Y-93419000D01*
X143938686Y-93485521D01*
X143623664Y-93616007D01*
X143340152Y-93805444D01*
X143099044Y-94046552D01*
X142909607Y-94330064D01*
X142779121Y-94645086D01*
X142712600Y-94979511D01*
X115481000Y-94979511D01*
X115481000Y-94800889D01*
X115404871Y-94418164D01*
X115255539Y-94057645D01*
X115038743Y-93733186D01*
X114762814Y-93457257D01*
X114438355Y-93240461D01*
X114077836Y-93091129D01*
X113695111Y-93015000D01*
X113304889Y-93015000D01*
X112922164Y-93091129D01*
X112561645Y-93240461D01*
X112237186Y-93457257D01*
X111961257Y-93733186D01*
X111744461Y-94057645D01*
X111595129Y-94418164D01*
X111519000Y-94800889D01*
X110406000Y-94800889D01*
X110406000Y-91037413D01*
X111040192Y-91037413D01*
X111135956Y-91301814D01*
X111425571Y-91442704D01*
X111737108Y-91524384D01*
X112058595Y-91543718D01*
X112377675Y-91499961D01*
X112682088Y-91394795D01*
X112856044Y-91301814D01*
X112951808Y-91037413D01*
X111996000Y-90081605D01*
X111040192Y-91037413D01*
X110406000Y-91037413D01*
X110406000Y-90306719D01*
X110503205Y-90588088D01*
X110596186Y-90762044D01*
X110860587Y-90857808D01*
X111816395Y-89902000D01*
X112175605Y-89902000D01*
X113131413Y-90857808D01*
X113395814Y-90762044D01*
X113536704Y-90472429D01*
X113618384Y-90160892D01*
X113637718Y-89839405D01*
X113593961Y-89520325D01*
X113488795Y-89215912D01*
X113395814Y-89041956D01*
X113131413Y-88946192D01*
X112175605Y-89902000D01*
X111816395Y-89902000D01*
X110860587Y-88946192D01*
X110596186Y-89041956D01*
X110455296Y-89331571D01*
X110406000Y-89519592D01*
X110406000Y-88766587D01*
X111040192Y-88766587D01*
X111996000Y-89722395D01*
X112951808Y-88766587D01*
X112856044Y-88502186D01*
X112566429Y-88361296D01*
X112254892Y-88279616D01*
X111933405Y-88260282D01*
X111614325Y-88304039D01*
X111309912Y-88409205D01*
X111135956Y-88502186D01*
X111040192Y-88766587D01*
X110406000Y-88766587D01*
X110406000Y-85265983D01*
X110615000Y-85265983D01*
X110615000Y-85538017D01*
X110668071Y-85804823D01*
X110772174Y-86056149D01*
X110923307Y-86282336D01*
X111115664Y-86474693D01*
X111341851Y-86625826D01*
X111593177Y-86729929D01*
X111859983Y-86783000D01*
X112132017Y-86783000D01*
X112398823Y-86729929D01*
X112650149Y-86625826D01*
X112876336Y-86474693D01*
X113068693Y-86282336D01*
X113219826Y-86056149D01*
X113323929Y-85804823D01*
X113377000Y-85538017D01*
X113377000Y-85265983D01*
X113323929Y-84999177D01*
X113219826Y-84747851D01*
X113068693Y-84521664D01*
X112876336Y-84329307D01*
X112650149Y-84178174D01*
X112398823Y-84074071D01*
X112132017Y-84021000D01*
X111859983Y-84021000D01*
X111593177Y-84074071D01*
X111341851Y-84178174D01*
X111115664Y-84329307D01*
X110923307Y-84521664D01*
X110772174Y-84747851D01*
X110668071Y-84999177D01*
X110615000Y-85265983D01*
X110406000Y-85265983D01*
X110406000Y-83215413D01*
X111040192Y-83215413D01*
X111135956Y-83479814D01*
X111425571Y-83620704D01*
X111737108Y-83702384D01*
X112058595Y-83721718D01*
X112377675Y-83677961D01*
X112682088Y-83572795D01*
X112856044Y-83479814D01*
X112951808Y-83215413D01*
X111996000Y-82259605D01*
X111040192Y-83215413D01*
X110406000Y-83215413D01*
X110406000Y-82484719D01*
X110503205Y-82766088D01*
X110596186Y-82940044D01*
X110860587Y-83035808D01*
X111816395Y-82080000D01*
X112175605Y-82080000D01*
X113131413Y-83035808D01*
X113395814Y-82940044D01*
X113536704Y-82650429D01*
X113618384Y-82338892D01*
X113637718Y-82017405D01*
X113593961Y-81698325D01*
X113488795Y-81393912D01*
X113395814Y-81219956D01*
X113131413Y-81124192D01*
X112175605Y-82080000D01*
X111816395Y-82080000D01*
X110860587Y-81124192D01*
X110596186Y-81219956D01*
X110455296Y-81509571D01*
X110406000Y-81697592D01*
X110406000Y-80944587D01*
X111040192Y-80944587D01*
X111996000Y-81900395D01*
X112951808Y-80944587D01*
X112856044Y-80680186D01*
X112566429Y-80539296D01*
X112254892Y-80457616D01*
X111933405Y-80438282D01*
X111614325Y-80482039D01*
X111309912Y-80587205D01*
X111135956Y-80680186D01*
X111040192Y-80944587D01*
X110406000Y-80944587D01*
X110406000Y-77443983D01*
X110615000Y-77443983D01*
X110615000Y-77716017D01*
X110668071Y-77982823D01*
X110772174Y-78234149D01*
X110923307Y-78460336D01*
X111115664Y-78652693D01*
X111341851Y-78803826D01*
X111593177Y-78907929D01*
X111859983Y-78961000D01*
X112132017Y-78961000D01*
X112398823Y-78907929D01*
X112650149Y-78803826D01*
X112876336Y-78652693D01*
X113068693Y-78460336D01*
X113219826Y-78234149D01*
X113323929Y-77982823D01*
X113377000Y-77716017D01*
X113377000Y-77443983D01*
X113323929Y-77177177D01*
X113219826Y-76925851D01*
X113068693Y-76699664D01*
X112876336Y-76507307D01*
X112650149Y-76356174D01*
X112398823Y-76252071D01*
X112132017Y-76199000D01*
X111859983Y-76199000D01*
X111593177Y-76252071D01*
X111341851Y-76356174D01*
X111115664Y-76507307D01*
X110923307Y-76699664D01*
X110772174Y-76925851D01*
X110668071Y-77177177D01*
X110615000Y-77443983D01*
X110406000Y-77443983D01*
X110406000Y-73525999D01*
X116662552Y-73525999D01*
X116665000Y-73550855D01*
X116664999Y-90831753D01*
X116662552Y-90856599D01*
X116664999Y-90881445D01*
X116664999Y-90881452D01*
X116672321Y-90955791D01*
X116701254Y-91051173D01*
X116748240Y-91139078D01*
X116811472Y-91216126D01*
X116830784Y-91231975D01*
X117684600Y-92085792D01*
X117684600Y-92228122D01*
X117714613Y-92379009D01*
X117773487Y-92521142D01*
X117858958Y-92649059D01*
X117967741Y-92757842D01*
X118095658Y-92843313D01*
X118237791Y-92902187D01*
X118388678Y-92932200D01*
X118542522Y-92932200D01*
X118693409Y-92902187D01*
X118835542Y-92843313D01*
X118963459Y-92757842D01*
X119072242Y-92649059D01*
X119155669Y-92524200D01*
X154501928Y-92524200D01*
X154505000Y-93323450D01*
X154663750Y-93482200D01*
X156098000Y-93482200D01*
X156098000Y-92047950D01*
X156352000Y-92047950D01*
X156352000Y-93482200D01*
X157786250Y-93482200D01*
X157945000Y-93323450D01*
X157948072Y-92524200D01*
X157935812Y-92399718D01*
X157899502Y-92280020D01*
X157840537Y-92169706D01*
X157761185Y-92073015D01*
X157664494Y-91993663D01*
X157554180Y-91934698D01*
X157434482Y-91898388D01*
X157310000Y-91886128D01*
X156510750Y-91889200D01*
X156352000Y-92047950D01*
X156098000Y-92047950D01*
X155939250Y-91889200D01*
X155140000Y-91886128D01*
X155015518Y-91898388D01*
X154895820Y-91934698D01*
X154785506Y-91993663D01*
X154688815Y-92073015D01*
X154609463Y-92169706D01*
X154550498Y-92280020D01*
X154514188Y-92399718D01*
X154501928Y-92524200D01*
X119155669Y-92524200D01*
X119157713Y-92521142D01*
X119216587Y-92379009D01*
X119246600Y-92228122D01*
X119246600Y-92074278D01*
X119216587Y-91923391D01*
X119157713Y-91781258D01*
X119072242Y-91653341D01*
X118963459Y-91544558D01*
X118890225Y-91495625D01*
X119182088Y-91394795D01*
X119356044Y-91301814D01*
X119451808Y-91037413D01*
X121151192Y-91037413D01*
X121246956Y-91301814D01*
X121536571Y-91442704D01*
X121848108Y-91524384D01*
X122169595Y-91543718D01*
X122488675Y-91499961D01*
X122793088Y-91394795D01*
X122967044Y-91301814D01*
X123062808Y-91037413D01*
X127651192Y-91037413D01*
X127746956Y-91301814D01*
X128036571Y-91442704D01*
X128348108Y-91524384D01*
X128669595Y-91543718D01*
X128988675Y-91499961D01*
X129293088Y-91394795D01*
X129467044Y-91301814D01*
X129562808Y-91037413D01*
X131262192Y-91037413D01*
X131357956Y-91301814D01*
X131647571Y-91442704D01*
X131959108Y-91524384D01*
X132280595Y-91543718D01*
X132599675Y-91499961D01*
X132904088Y-91394795D01*
X133078044Y-91301814D01*
X133173808Y-91037413D01*
X137762192Y-91037413D01*
X137857956Y-91301814D01*
X138147571Y-91442704D01*
X138459108Y-91524384D01*
X138780595Y-91543718D01*
X139099675Y-91499961D01*
X139404088Y-91394795D01*
X139578044Y-91301814D01*
X139673808Y-91037413D01*
X138718000Y-90081605D01*
X137762192Y-91037413D01*
X133173808Y-91037413D01*
X132218000Y-90081605D01*
X131262192Y-91037413D01*
X129562808Y-91037413D01*
X128607000Y-90081605D01*
X127651192Y-91037413D01*
X123062808Y-91037413D01*
X122107000Y-90081605D01*
X121151192Y-91037413D01*
X119451808Y-91037413D01*
X118496000Y-90081605D01*
X118481858Y-90095748D01*
X118302253Y-89916143D01*
X118316395Y-89902000D01*
X118675605Y-89902000D01*
X119631413Y-90857808D01*
X119895814Y-90762044D01*
X120036704Y-90472429D01*
X120118384Y-90160892D01*
X120130189Y-89964595D01*
X120465282Y-89964595D01*
X120509039Y-90283675D01*
X120614205Y-90588088D01*
X120707186Y-90762044D01*
X120971587Y-90857808D01*
X121927395Y-89902000D01*
X122286605Y-89902000D01*
X123242413Y-90857808D01*
X123506814Y-90762044D01*
X123647704Y-90472429D01*
X123729384Y-90160892D01*
X123741189Y-89964595D01*
X126965282Y-89964595D01*
X127009039Y-90283675D01*
X127114205Y-90588088D01*
X127207186Y-90762044D01*
X127471587Y-90857808D01*
X128427395Y-89902000D01*
X128786605Y-89902000D01*
X129742413Y-90857808D01*
X130006814Y-90762044D01*
X130147704Y-90472429D01*
X130229384Y-90160892D01*
X130241189Y-89964595D01*
X130576282Y-89964595D01*
X130620039Y-90283675D01*
X130725205Y-90588088D01*
X130818186Y-90762044D01*
X131082587Y-90857808D01*
X132038395Y-89902000D01*
X132397605Y-89902000D01*
X133353413Y-90857808D01*
X133617814Y-90762044D01*
X133758704Y-90472429D01*
X133840384Y-90160892D01*
X133852189Y-89964595D01*
X137076282Y-89964595D01*
X137120039Y-90283675D01*
X137225205Y-90588088D01*
X137318186Y-90762044D01*
X137582587Y-90857808D01*
X138538395Y-89902000D01*
X138897605Y-89902000D01*
X139853413Y-90857808D01*
X140117814Y-90762044D01*
X140258704Y-90472429D01*
X140340384Y-90160892D01*
X140359718Y-89839405D01*
X140315961Y-89520325D01*
X140210795Y-89215912D01*
X140117814Y-89041956D01*
X139853413Y-88946192D01*
X138897605Y-89902000D01*
X138538395Y-89902000D01*
X137582587Y-88946192D01*
X137318186Y-89041956D01*
X137177296Y-89331571D01*
X137095616Y-89643108D01*
X137076282Y-89964595D01*
X133852189Y-89964595D01*
X133859718Y-89839405D01*
X133815961Y-89520325D01*
X133710795Y-89215912D01*
X133617814Y-89041956D01*
X133353413Y-88946192D01*
X132397605Y-89902000D01*
X132038395Y-89902000D01*
X131082587Y-88946192D01*
X130818186Y-89041956D01*
X130677296Y-89331571D01*
X130595616Y-89643108D01*
X130576282Y-89964595D01*
X130241189Y-89964595D01*
X130248718Y-89839405D01*
X130204961Y-89520325D01*
X130099795Y-89215912D01*
X130006814Y-89041956D01*
X129742413Y-88946192D01*
X128786605Y-89902000D01*
X128427395Y-89902000D01*
X127471587Y-88946192D01*
X127207186Y-89041956D01*
X127066296Y-89331571D01*
X126984616Y-89643108D01*
X126965282Y-89964595D01*
X123741189Y-89964595D01*
X123748718Y-89839405D01*
X123704961Y-89520325D01*
X123599795Y-89215912D01*
X123506814Y-89041956D01*
X123242413Y-88946192D01*
X122286605Y-89902000D01*
X121927395Y-89902000D01*
X120971587Y-88946192D01*
X120707186Y-89041956D01*
X120566296Y-89331571D01*
X120484616Y-89643108D01*
X120465282Y-89964595D01*
X120130189Y-89964595D01*
X120137718Y-89839405D01*
X120093961Y-89520325D01*
X119988795Y-89215912D01*
X119895814Y-89041956D01*
X119631413Y-88946192D01*
X118675605Y-89902000D01*
X118316395Y-89902000D01*
X118302253Y-89887858D01*
X118481858Y-89708253D01*
X118496000Y-89722395D01*
X119451808Y-88766587D01*
X121151192Y-88766587D01*
X122107000Y-89722395D01*
X123062808Y-88766587D01*
X127651192Y-88766587D01*
X128607000Y-89722395D01*
X129562808Y-88766587D01*
X131262192Y-88766587D01*
X132218000Y-89722395D01*
X133173808Y-88766587D01*
X137762192Y-88766587D01*
X138718000Y-89722395D01*
X139673808Y-88766587D01*
X139578044Y-88502186D01*
X139288429Y-88361296D01*
X138976892Y-88279616D01*
X138655405Y-88260282D01*
X138336325Y-88304039D01*
X138031912Y-88409205D01*
X137857956Y-88502186D01*
X137762192Y-88766587D01*
X133173808Y-88766587D01*
X133078044Y-88502186D01*
X132788429Y-88361296D01*
X132476892Y-88279616D01*
X132155405Y-88260282D01*
X131836325Y-88304039D01*
X131531912Y-88409205D01*
X131357956Y-88502186D01*
X131262192Y-88766587D01*
X129562808Y-88766587D01*
X129467044Y-88502186D01*
X129177429Y-88361296D01*
X128865892Y-88279616D01*
X128544405Y-88260282D01*
X128225325Y-88304039D01*
X127920912Y-88409205D01*
X127746956Y-88502186D01*
X127651192Y-88766587D01*
X123062808Y-88766587D01*
X122967044Y-88502186D01*
X122677429Y-88361296D01*
X122365892Y-88279616D01*
X122044405Y-88260282D01*
X121725325Y-88304039D01*
X121420912Y-88409205D01*
X121246956Y-88502186D01*
X121151192Y-88766587D01*
X119451808Y-88766587D01*
X119356044Y-88502186D01*
X119066429Y-88361296D01*
X118754892Y-88279616D01*
X118433405Y-88260282D01*
X118114325Y-88304039D01*
X117809912Y-88409205D01*
X117676999Y-88480248D01*
X117676999Y-86515676D01*
X117841851Y-86625826D01*
X118093177Y-86729929D01*
X118359983Y-86783000D01*
X118632017Y-86783000D01*
X118898823Y-86729929D01*
X119150149Y-86625826D01*
X119376336Y-86474693D01*
X119568693Y-86282336D01*
X119719826Y-86056149D01*
X119823929Y-85804823D01*
X119877000Y-85538017D01*
X119877000Y-85265983D01*
X120726000Y-85265983D01*
X120726000Y-85538017D01*
X120779071Y-85804823D01*
X120883174Y-86056149D01*
X121034307Y-86282336D01*
X121226664Y-86474693D01*
X121452851Y-86625826D01*
X121704177Y-86729929D01*
X121970983Y-86783000D01*
X122243017Y-86783000D01*
X122509823Y-86729929D01*
X122761149Y-86625826D01*
X122987336Y-86474693D01*
X123179693Y-86282336D01*
X123330826Y-86056149D01*
X123434929Y-85804823D01*
X123488000Y-85538017D01*
X123488000Y-85265983D01*
X127226000Y-85265983D01*
X127226000Y-85538017D01*
X127279071Y-85804823D01*
X127383174Y-86056149D01*
X127534307Y-86282336D01*
X127726664Y-86474693D01*
X127952851Y-86625826D01*
X128204177Y-86729929D01*
X128470983Y-86783000D01*
X128743017Y-86783000D01*
X129009823Y-86729929D01*
X129261149Y-86625826D01*
X129487336Y-86474693D01*
X129679693Y-86282336D01*
X129830826Y-86056149D01*
X129934929Y-85804823D01*
X129988000Y-85538017D01*
X129988000Y-85265983D01*
X130837000Y-85265983D01*
X130837000Y-85538017D01*
X130890071Y-85804823D01*
X130994174Y-86056149D01*
X131145307Y-86282336D01*
X131337664Y-86474693D01*
X131563851Y-86625826D01*
X131815177Y-86729929D01*
X132081983Y-86783000D01*
X132354017Y-86783000D01*
X132620823Y-86729929D01*
X132872149Y-86625826D01*
X133098336Y-86474693D01*
X133290693Y-86282336D01*
X133441826Y-86056149D01*
X133545929Y-85804823D01*
X133599000Y-85538017D01*
X133599000Y-85265983D01*
X137337000Y-85265983D01*
X137337000Y-85538017D01*
X137390071Y-85804823D01*
X137494174Y-86056149D01*
X137645307Y-86282336D01*
X137837664Y-86474693D01*
X138063851Y-86625826D01*
X138315177Y-86729929D01*
X138581983Y-86783000D01*
X138854017Y-86783000D01*
X139120823Y-86729929D01*
X139372149Y-86625826D01*
X139598336Y-86474693D01*
X139790693Y-86282336D01*
X139941826Y-86056149D01*
X140045929Y-85804823D01*
X140099000Y-85538017D01*
X140099000Y-85265983D01*
X140045929Y-84999177D01*
X139941826Y-84747851D01*
X139790693Y-84521664D01*
X139598336Y-84329307D01*
X139372149Y-84178174D01*
X139120823Y-84074071D01*
X138854017Y-84021000D01*
X138581983Y-84021000D01*
X138315177Y-84074071D01*
X138063851Y-84178174D01*
X137837664Y-84329307D01*
X137645307Y-84521664D01*
X137494174Y-84747851D01*
X137390071Y-84999177D01*
X137337000Y-85265983D01*
X133599000Y-85265983D01*
X133545929Y-84999177D01*
X133441826Y-84747851D01*
X133290693Y-84521664D01*
X133098336Y-84329307D01*
X132872149Y-84178174D01*
X132620823Y-84074071D01*
X132354017Y-84021000D01*
X132081983Y-84021000D01*
X131815177Y-84074071D01*
X131563851Y-84178174D01*
X131337664Y-84329307D01*
X131145307Y-84521664D01*
X130994174Y-84747851D01*
X130890071Y-84999177D01*
X130837000Y-85265983D01*
X129988000Y-85265983D01*
X129934929Y-84999177D01*
X129830826Y-84747851D01*
X129679693Y-84521664D01*
X129487336Y-84329307D01*
X129261149Y-84178174D01*
X129009823Y-84074071D01*
X128743017Y-84021000D01*
X128470983Y-84021000D01*
X128204177Y-84074071D01*
X127952851Y-84178174D01*
X127726664Y-84329307D01*
X127534307Y-84521664D01*
X127383174Y-84747851D01*
X127279071Y-84999177D01*
X127226000Y-85265983D01*
X123488000Y-85265983D01*
X123434929Y-84999177D01*
X123330826Y-84747851D01*
X123179693Y-84521664D01*
X122987336Y-84329307D01*
X122761149Y-84178174D01*
X122509823Y-84074071D01*
X122243017Y-84021000D01*
X121970983Y-84021000D01*
X121704177Y-84074071D01*
X121452851Y-84178174D01*
X121226664Y-84329307D01*
X121034307Y-84521664D01*
X120883174Y-84747851D01*
X120779071Y-84999177D01*
X120726000Y-85265983D01*
X119877000Y-85265983D01*
X119823929Y-84999177D01*
X119719826Y-84747851D01*
X119568693Y-84521664D01*
X119376336Y-84329307D01*
X119150149Y-84178174D01*
X118898823Y-84074071D01*
X118632017Y-84021000D01*
X118359983Y-84021000D01*
X118093177Y-84074071D01*
X117841851Y-84178174D01*
X117676999Y-84288324D01*
X117676999Y-83499780D01*
X117925571Y-83620704D01*
X118237108Y-83702384D01*
X118558595Y-83721718D01*
X118877675Y-83677961D01*
X119182088Y-83572795D01*
X119356044Y-83479814D01*
X119451808Y-83215413D01*
X121151192Y-83215413D01*
X121246956Y-83479814D01*
X121536571Y-83620704D01*
X121848108Y-83702384D01*
X122169595Y-83721718D01*
X122488675Y-83677961D01*
X122793088Y-83572795D01*
X122967044Y-83479814D01*
X123062808Y-83215413D01*
X127651192Y-83215413D01*
X127746956Y-83479814D01*
X128036571Y-83620704D01*
X128348108Y-83702384D01*
X128669595Y-83721718D01*
X128988675Y-83677961D01*
X129293088Y-83572795D01*
X129467044Y-83479814D01*
X129562808Y-83215413D01*
X131262192Y-83215413D01*
X131357956Y-83479814D01*
X131647571Y-83620704D01*
X131959108Y-83702384D01*
X132280595Y-83721718D01*
X132599675Y-83677961D01*
X132904088Y-83572795D01*
X133078044Y-83479814D01*
X133173808Y-83215413D01*
X137762192Y-83215413D01*
X137857956Y-83479814D01*
X138147571Y-83620704D01*
X138459108Y-83702384D01*
X138780595Y-83721718D01*
X139099675Y-83677961D01*
X139404088Y-83572795D01*
X139578044Y-83479814D01*
X139673808Y-83215413D01*
X138718000Y-82259605D01*
X137762192Y-83215413D01*
X133173808Y-83215413D01*
X132218000Y-82259605D01*
X131262192Y-83215413D01*
X129562808Y-83215413D01*
X128607000Y-82259605D01*
X127651192Y-83215413D01*
X123062808Y-83215413D01*
X122107000Y-82259605D01*
X121151192Y-83215413D01*
X119451808Y-83215413D01*
X118496000Y-82259605D01*
X118481858Y-82273748D01*
X118302253Y-82094143D01*
X118316395Y-82080000D01*
X118675605Y-82080000D01*
X119631413Y-83035808D01*
X119895814Y-82940044D01*
X120036704Y-82650429D01*
X120118384Y-82338892D01*
X120130189Y-82142595D01*
X120465282Y-82142595D01*
X120509039Y-82461675D01*
X120614205Y-82766088D01*
X120707186Y-82940044D01*
X120971587Y-83035808D01*
X121927395Y-82080000D01*
X122286605Y-82080000D01*
X123242413Y-83035808D01*
X123506814Y-82940044D01*
X123647704Y-82650429D01*
X123729384Y-82338892D01*
X123741189Y-82142595D01*
X126965282Y-82142595D01*
X127009039Y-82461675D01*
X127114205Y-82766088D01*
X127207186Y-82940044D01*
X127471587Y-83035808D01*
X128427395Y-82080000D01*
X128786605Y-82080000D01*
X129742413Y-83035808D01*
X130006814Y-82940044D01*
X130147704Y-82650429D01*
X130229384Y-82338892D01*
X130241189Y-82142595D01*
X130576282Y-82142595D01*
X130620039Y-82461675D01*
X130725205Y-82766088D01*
X130818186Y-82940044D01*
X131082587Y-83035808D01*
X132038395Y-82080000D01*
X132397605Y-82080000D01*
X133353413Y-83035808D01*
X133617814Y-82940044D01*
X133758704Y-82650429D01*
X133840384Y-82338892D01*
X133852189Y-82142595D01*
X137076282Y-82142595D01*
X137120039Y-82461675D01*
X137225205Y-82766088D01*
X137318186Y-82940044D01*
X137582587Y-83035808D01*
X138538395Y-82080000D01*
X138897605Y-82080000D01*
X139853413Y-83035808D01*
X140117814Y-82940044D01*
X140258704Y-82650429D01*
X140340384Y-82338892D01*
X140359718Y-82017405D01*
X140315961Y-81698325D01*
X140210795Y-81393912D01*
X140117814Y-81219956D01*
X139853413Y-81124192D01*
X138897605Y-82080000D01*
X138538395Y-82080000D01*
X137582587Y-81124192D01*
X137318186Y-81219956D01*
X137177296Y-81509571D01*
X137095616Y-81821108D01*
X137076282Y-82142595D01*
X133852189Y-82142595D01*
X133859718Y-82017405D01*
X133815961Y-81698325D01*
X133710795Y-81393912D01*
X133617814Y-81219956D01*
X133353413Y-81124192D01*
X132397605Y-82080000D01*
X132038395Y-82080000D01*
X131082587Y-81124192D01*
X130818186Y-81219956D01*
X130677296Y-81509571D01*
X130595616Y-81821108D01*
X130576282Y-82142595D01*
X130241189Y-82142595D01*
X130248718Y-82017405D01*
X130204961Y-81698325D01*
X130099795Y-81393912D01*
X130006814Y-81219956D01*
X129742413Y-81124192D01*
X128786605Y-82080000D01*
X128427395Y-82080000D01*
X127471587Y-81124192D01*
X127207186Y-81219956D01*
X127066296Y-81509571D01*
X126984616Y-81821108D01*
X126965282Y-82142595D01*
X123741189Y-82142595D01*
X123748718Y-82017405D01*
X123704961Y-81698325D01*
X123599795Y-81393912D01*
X123506814Y-81219956D01*
X123242413Y-81124192D01*
X122286605Y-82080000D01*
X121927395Y-82080000D01*
X120971587Y-81124192D01*
X120707186Y-81219956D01*
X120566296Y-81509571D01*
X120484616Y-81821108D01*
X120465282Y-82142595D01*
X120130189Y-82142595D01*
X120137718Y-82017405D01*
X120093961Y-81698325D01*
X119988795Y-81393912D01*
X119895814Y-81219956D01*
X119631413Y-81124192D01*
X118675605Y-82080000D01*
X118316395Y-82080000D01*
X118302253Y-82065858D01*
X118481858Y-81886253D01*
X118496000Y-81900395D01*
X119451808Y-80944587D01*
X121151192Y-80944587D01*
X122107000Y-81900395D01*
X123062808Y-80944587D01*
X127651192Y-80944587D01*
X128607000Y-81900395D01*
X129562808Y-80944587D01*
X131262192Y-80944587D01*
X132218000Y-81900395D01*
X133173808Y-80944587D01*
X137762192Y-80944587D01*
X138718000Y-81900395D01*
X139673808Y-80944587D01*
X139578044Y-80680186D01*
X139288429Y-80539296D01*
X138976892Y-80457616D01*
X138655405Y-80438282D01*
X138336325Y-80482039D01*
X138031912Y-80587205D01*
X137857956Y-80680186D01*
X137762192Y-80944587D01*
X133173808Y-80944587D01*
X133078044Y-80680186D01*
X132788429Y-80539296D01*
X132476892Y-80457616D01*
X132155405Y-80438282D01*
X131836325Y-80482039D01*
X131531912Y-80587205D01*
X131357956Y-80680186D01*
X131262192Y-80944587D01*
X129562808Y-80944587D01*
X129467044Y-80680186D01*
X129177429Y-80539296D01*
X128865892Y-80457616D01*
X128544405Y-80438282D01*
X128225325Y-80482039D01*
X127920912Y-80587205D01*
X127746956Y-80680186D01*
X127651192Y-80944587D01*
X123062808Y-80944587D01*
X122967044Y-80680186D01*
X122677429Y-80539296D01*
X122365892Y-80457616D01*
X122044405Y-80438282D01*
X121725325Y-80482039D01*
X121420912Y-80587205D01*
X121246956Y-80680186D01*
X121151192Y-80944587D01*
X119451808Y-80944587D01*
X119356044Y-80680186D01*
X119066429Y-80539296D01*
X118754892Y-80457616D01*
X118433405Y-80438282D01*
X118114325Y-80482039D01*
X117809912Y-80587205D01*
X117676999Y-80658248D01*
X117676999Y-78693676D01*
X117841851Y-78803826D01*
X118093177Y-78907929D01*
X118359983Y-78961000D01*
X118632017Y-78961000D01*
X118898823Y-78907929D01*
X119150149Y-78803826D01*
X119376336Y-78652693D01*
X119568693Y-78460336D01*
X119719826Y-78234149D01*
X119823929Y-77982823D01*
X119877000Y-77716017D01*
X119877000Y-77443983D01*
X120726000Y-77443983D01*
X120726000Y-77716017D01*
X120779071Y-77982823D01*
X120883174Y-78234149D01*
X121034307Y-78460336D01*
X121226664Y-78652693D01*
X121452851Y-78803826D01*
X121704177Y-78907929D01*
X121970983Y-78961000D01*
X122243017Y-78961000D01*
X122509823Y-78907929D01*
X122761149Y-78803826D01*
X122987336Y-78652693D01*
X123179693Y-78460336D01*
X123330826Y-78234149D01*
X123434929Y-77982823D01*
X123488000Y-77716017D01*
X123488000Y-77443983D01*
X127226000Y-77443983D01*
X127226000Y-77716017D01*
X127279071Y-77982823D01*
X127383174Y-78234149D01*
X127534307Y-78460336D01*
X127726664Y-78652693D01*
X127952851Y-78803826D01*
X128204177Y-78907929D01*
X128470983Y-78961000D01*
X128743017Y-78961000D01*
X129009823Y-78907929D01*
X129261149Y-78803826D01*
X129487336Y-78652693D01*
X129679693Y-78460336D01*
X129830826Y-78234149D01*
X129934929Y-77982823D01*
X129988000Y-77716017D01*
X129988000Y-77443983D01*
X130837000Y-77443983D01*
X130837000Y-77716017D01*
X130890071Y-77982823D01*
X130994174Y-78234149D01*
X131145307Y-78460336D01*
X131337664Y-78652693D01*
X131563851Y-78803826D01*
X131815177Y-78907929D01*
X132081983Y-78961000D01*
X132354017Y-78961000D01*
X132620823Y-78907929D01*
X132872149Y-78803826D01*
X133098336Y-78652693D01*
X133290693Y-78460336D01*
X133441826Y-78234149D01*
X133545929Y-77982823D01*
X133599000Y-77716017D01*
X133599000Y-77443983D01*
X137337000Y-77443983D01*
X137337000Y-77716017D01*
X137390071Y-77982823D01*
X137494174Y-78234149D01*
X137645307Y-78460336D01*
X137837664Y-78652693D01*
X138063851Y-78803826D01*
X138315177Y-78907929D01*
X138581983Y-78961000D01*
X138854017Y-78961000D01*
X139120823Y-78907929D01*
X139372149Y-78803826D01*
X139598336Y-78652693D01*
X139790693Y-78460336D01*
X139941826Y-78234149D01*
X140045929Y-77982823D01*
X140099000Y-77716017D01*
X140099000Y-77443983D01*
X140045929Y-77177177D01*
X139941826Y-76925851D01*
X139790693Y-76699664D01*
X139598336Y-76507307D01*
X139372149Y-76356174D01*
X139120823Y-76252071D01*
X138854017Y-76199000D01*
X138581983Y-76199000D01*
X138315177Y-76252071D01*
X138063851Y-76356174D01*
X137837664Y-76507307D01*
X137645307Y-76699664D01*
X137494174Y-76925851D01*
X137390071Y-77177177D01*
X137337000Y-77443983D01*
X133599000Y-77443983D01*
X133545929Y-77177177D01*
X133441826Y-76925851D01*
X133290693Y-76699664D01*
X133098336Y-76507307D01*
X132872149Y-76356174D01*
X132620823Y-76252071D01*
X132354017Y-76199000D01*
X132081983Y-76199000D01*
X131815177Y-76252071D01*
X131563851Y-76356174D01*
X131337664Y-76507307D01*
X131145307Y-76699664D01*
X130994174Y-76925851D01*
X130890071Y-77177177D01*
X130837000Y-77443983D01*
X129988000Y-77443983D01*
X129934929Y-77177177D01*
X129830826Y-76925851D01*
X129679693Y-76699664D01*
X129487336Y-76507307D01*
X129261149Y-76356174D01*
X129009823Y-76252071D01*
X128743017Y-76199000D01*
X128470983Y-76199000D01*
X128204177Y-76252071D01*
X127952851Y-76356174D01*
X127726664Y-76507307D01*
X127534307Y-76699664D01*
X127383174Y-76925851D01*
X127279071Y-77177177D01*
X127226000Y-77443983D01*
X123488000Y-77443983D01*
X123434929Y-77177177D01*
X123330826Y-76925851D01*
X123179693Y-76699664D01*
X122987336Y-76507307D01*
X122761149Y-76356174D01*
X122509823Y-76252071D01*
X122243017Y-76199000D01*
X121970983Y-76199000D01*
X121704177Y-76252071D01*
X121452851Y-76356174D01*
X121226664Y-76507307D01*
X121034307Y-76699664D01*
X120883174Y-76925851D01*
X120779071Y-77177177D01*
X120726000Y-77443983D01*
X119877000Y-77443983D01*
X119823929Y-77177177D01*
X119719826Y-76925851D01*
X119568693Y-76699664D01*
X119376336Y-76507307D01*
X119150149Y-76356174D01*
X118898823Y-76252071D01*
X118632017Y-76199000D01*
X118359983Y-76199000D01*
X118093177Y-76252071D01*
X117841851Y-76356174D01*
X117676999Y-76466324D01*
X117676999Y-73735590D01*
X125027566Y-66385024D01*
X125037887Y-66409942D01*
X125123358Y-66537859D01*
X125232141Y-66646642D01*
X125360058Y-66732113D01*
X125502191Y-66790987D01*
X125653078Y-66821000D01*
X125795409Y-66821000D01*
X127227038Y-68252630D01*
X127242883Y-68271937D01*
X127319931Y-68335169D01*
X127407835Y-68382155D01*
X127503217Y-68411088D01*
X127602410Y-68420858D01*
X127627264Y-68418410D01*
X172944911Y-68418410D01*
X173195500Y-68668999D01*
X127039446Y-68668999D01*
X127014600Y-68666552D01*
X126989754Y-68668999D01*
X126989747Y-68668999D01*
X126925295Y-68675347D01*
X126915407Y-68676321D01*
X126820026Y-68705254D01*
X126732122Y-68752240D01*
X126655074Y-68815472D01*
X126639229Y-68834779D01*
X124677809Y-70796200D01*
X124535478Y-70796200D01*
X124384591Y-70826213D01*
X124242458Y-70885087D01*
X124114541Y-70970558D01*
X124005758Y-71079341D01*
X123920287Y-71207258D01*
X123861413Y-71349391D01*
X123831400Y-71500278D01*
X123831400Y-71654122D01*
X123861413Y-71805009D01*
X123920287Y-71947142D01*
X124005758Y-72075059D01*
X124114541Y-72183842D01*
X124242458Y-72269313D01*
X124384591Y-72328187D01*
X124535478Y-72358200D01*
X124689322Y-72358200D01*
X124840209Y-72328187D01*
X124982342Y-72269313D01*
X125110259Y-72183842D01*
X125219042Y-72075059D01*
X125304513Y-71947142D01*
X125363387Y-71805009D01*
X125393400Y-71654122D01*
X125393400Y-71511791D01*
X127224193Y-69680999D01*
X143526397Y-69680999D01*
X143340152Y-69805444D01*
X143099044Y-70046552D01*
X142909607Y-70330064D01*
X142779121Y-70645086D01*
X142712600Y-70979511D01*
X142712600Y-71320489D01*
X142779121Y-71654914D01*
X142909607Y-71969936D01*
X143099044Y-72253448D01*
X143340152Y-72494556D01*
X143623664Y-72683993D01*
X143938686Y-72814479D01*
X144273111Y-72881000D01*
X144614089Y-72881000D01*
X144948514Y-72814479D01*
X145263536Y-72683993D01*
X145547048Y-72494556D01*
X145788156Y-72253448D01*
X145977593Y-71969936D01*
X146108079Y-71654914D01*
X146174600Y-71320489D01*
X146174600Y-71200000D01*
X150555528Y-71200000D01*
X150567788Y-71324482D01*
X150604098Y-71444180D01*
X150663063Y-71554494D01*
X150742415Y-71651185D01*
X150839106Y-71730537D01*
X150949420Y-71789502D01*
X151069118Y-71825812D01*
X151193600Y-71838072D01*
X151757850Y-71835000D01*
X151916600Y-71676250D01*
X151916600Y-70477000D01*
X150717350Y-70477000D01*
X150558600Y-70635750D01*
X150555528Y-71200000D01*
X146174600Y-71200000D01*
X146174600Y-70979511D01*
X146108079Y-70645086D01*
X145977593Y-70330064D01*
X145788156Y-70046552D01*
X145547048Y-69805444D01*
X145360803Y-69680999D01*
X150556513Y-69680999D01*
X150558600Y-70064250D01*
X150717350Y-70223000D01*
X151916600Y-70223000D01*
X151916600Y-70203000D01*
X152170600Y-70203000D01*
X152170600Y-70223000D01*
X152190600Y-70223000D01*
X152190600Y-70477000D01*
X152170600Y-70477000D01*
X152170600Y-71676250D01*
X152267791Y-71773441D01*
X149638937Y-74402295D01*
X149614857Y-74422057D01*
X149536004Y-74518140D01*
X149477411Y-74627759D01*
X149441330Y-74746703D01*
X149432200Y-74839403D01*
X149432200Y-74839410D01*
X149429148Y-74870400D01*
X149432200Y-74901390D01*
X149432201Y-83349500D01*
X149428487Y-83355058D01*
X149369613Y-83497191D01*
X149339600Y-83648078D01*
X149339600Y-83801922D01*
X149369613Y-83952809D01*
X149428487Y-84094942D01*
X149513958Y-84222859D01*
X149622741Y-84331642D01*
X149750658Y-84417113D01*
X149892791Y-84475987D01*
X150043678Y-84506000D01*
X150197522Y-84506000D01*
X150348409Y-84475987D01*
X150490542Y-84417113D01*
X150582005Y-84356000D01*
X159320030Y-84356000D01*
X168710297Y-93746268D01*
X168730055Y-93770343D01*
X168754130Y-93790101D01*
X168754132Y-93790103D01*
X168826137Y-93849196D01*
X168935756Y-93907789D01*
X169054700Y-93943870D01*
X169178398Y-93956053D01*
X169209396Y-93953000D01*
X175632957Y-93953000D01*
X175632957Y-94172000D01*
X175640313Y-94246689D01*
X175662099Y-94318508D01*
X175697478Y-94384696D01*
X175745089Y-94442711D01*
X175803104Y-94490322D01*
X175869292Y-94525701D01*
X175941111Y-94547487D01*
X176015800Y-94554843D01*
X176148301Y-94554843D01*
X175944541Y-94684186D01*
X175732463Y-94886546D01*
X175563938Y-95126392D01*
X175445443Y-95394507D01*
X175424324Y-95505110D01*
X175545645Y-95735000D01*
X176988800Y-95735000D01*
X176988800Y-95715000D01*
X177242800Y-95715000D01*
X177242800Y-95735000D01*
X178685955Y-95735000D01*
X178807276Y-95505110D01*
X178786157Y-95394507D01*
X178667662Y-95126392D01*
X178499137Y-94886546D01*
X178302888Y-94699289D01*
X185471000Y-94699289D01*
X185471000Y-95089511D01*
X185547129Y-95472236D01*
X185696461Y-95832755D01*
X185913257Y-96157214D01*
X186189186Y-96433143D01*
X186513645Y-96649939D01*
X186874164Y-96799271D01*
X187256889Y-96875400D01*
X187647111Y-96875400D01*
X188029836Y-96799271D01*
X188390355Y-96649939D01*
X188714814Y-96433143D01*
X188990743Y-96157214D01*
X189207539Y-95832755D01*
X189356871Y-95472236D01*
X189433000Y-95089511D01*
X189433000Y-94699289D01*
X189356871Y-94316564D01*
X189207539Y-93956045D01*
X188990743Y-93631586D01*
X188714814Y-93355657D01*
X188390355Y-93138861D01*
X188029836Y-92989529D01*
X187647111Y-92913400D01*
X187256889Y-92913400D01*
X186874164Y-92989529D01*
X186513645Y-93138861D01*
X186189186Y-93355657D01*
X185913257Y-93631586D01*
X185696461Y-93956045D01*
X185547129Y-94316564D01*
X185471000Y-94699289D01*
X178302888Y-94699289D01*
X178287059Y-94684186D01*
X178083299Y-94554843D01*
X178215800Y-94554843D01*
X178290489Y-94547487D01*
X178362308Y-94525701D01*
X178428496Y-94490322D01*
X178486511Y-94442711D01*
X178534122Y-94384696D01*
X178569501Y-94318508D01*
X178591287Y-94246689D01*
X178598643Y-94172000D01*
X178598643Y-92472000D01*
X178591287Y-92397311D01*
X178569501Y-92325492D01*
X178534122Y-92259304D01*
X178486511Y-92201289D01*
X178428496Y-92153678D01*
X178362308Y-92118299D01*
X178290489Y-92096513D01*
X178215800Y-92089157D01*
X176015800Y-92089157D01*
X175941111Y-92096513D01*
X175869292Y-92118299D01*
X175803104Y-92153678D01*
X175745089Y-92201289D01*
X175697478Y-92259304D01*
X175662099Y-92325492D01*
X175640313Y-92397311D01*
X175632957Y-92472000D01*
X175632957Y-92691000D01*
X169439767Y-92691000D01*
X165548767Y-88800000D01*
X178917157Y-88800000D01*
X178917157Y-90800000D01*
X178924513Y-90874689D01*
X178946299Y-90946508D01*
X178981678Y-91012696D01*
X179029289Y-91070711D01*
X179087304Y-91118322D01*
X179153492Y-91153701D01*
X179225311Y-91175487D01*
X179300000Y-91182843D01*
X182500000Y-91182843D01*
X182574689Y-91175487D01*
X182646508Y-91153701D01*
X182712696Y-91118322D01*
X182770711Y-91070711D01*
X182818322Y-91012696D01*
X182853701Y-90946508D01*
X182875487Y-90874689D01*
X182882843Y-90800000D01*
X182882843Y-88800000D01*
X182875487Y-88725311D01*
X182853701Y-88653492D01*
X182818322Y-88587304D01*
X182770711Y-88529289D01*
X182712696Y-88481678D01*
X182646508Y-88446299D01*
X182574689Y-88424513D01*
X182500000Y-88417157D01*
X179300000Y-88417157D01*
X179225311Y-88424513D01*
X179153492Y-88446299D01*
X179087304Y-88481678D01*
X179029289Y-88529289D01*
X178981678Y-88587304D01*
X178946299Y-88653492D01*
X178924513Y-88725311D01*
X178917157Y-88800000D01*
X165548767Y-88800000D01*
X163312750Y-86563983D01*
X172019000Y-86563983D01*
X172019000Y-86836017D01*
X172072071Y-87102823D01*
X172176174Y-87354149D01*
X172327307Y-87580336D01*
X172519664Y-87772693D01*
X172745851Y-87923826D01*
X172997177Y-88027929D01*
X173263983Y-88081000D01*
X173536017Y-88081000D01*
X173802823Y-88027929D01*
X174054149Y-87923826D01*
X174280336Y-87772693D01*
X174472693Y-87580336D01*
X174623826Y-87354149D01*
X174727929Y-87102823D01*
X174781000Y-86836017D01*
X174781000Y-86563983D01*
X174727929Y-86297177D01*
X174623826Y-86045851D01*
X174472693Y-85819664D01*
X174280336Y-85627307D01*
X174248458Y-85606007D01*
X174260044Y-85599814D01*
X174355808Y-85335413D01*
X173400000Y-84379605D01*
X172444192Y-85335413D01*
X172539956Y-85599814D01*
X172552024Y-85605685D01*
X172519664Y-85627307D01*
X172327307Y-85819664D01*
X172176174Y-86045851D01*
X172072071Y-86297177D01*
X172019000Y-86563983D01*
X163312750Y-86563983D01*
X161011362Y-84262595D01*
X171758282Y-84262595D01*
X171802039Y-84581675D01*
X171907205Y-84886088D01*
X172000186Y-85060044D01*
X172264587Y-85155808D01*
X173220395Y-84200000D01*
X173206253Y-84185858D01*
X173385858Y-84006253D01*
X173400000Y-84020395D01*
X173414143Y-84006253D01*
X173593748Y-84185858D01*
X173579605Y-84200000D01*
X174535413Y-85155808D01*
X174799814Y-85060044D01*
X174940704Y-84770429D01*
X175022384Y-84458892D01*
X175041718Y-84137405D01*
X174997961Y-83818325D01*
X174892795Y-83513912D01*
X174799814Y-83339956D01*
X174535415Y-83244193D01*
X174651083Y-83128525D01*
X174565896Y-83043338D01*
X174612696Y-83018322D01*
X174670711Y-82970711D01*
X174718322Y-82912696D01*
X174753701Y-82846508D01*
X174775487Y-82774689D01*
X174782843Y-82700000D01*
X174782843Y-80700000D01*
X174775487Y-80625311D01*
X174753701Y-80553492D01*
X174718322Y-80487304D01*
X174670711Y-80429289D01*
X174612696Y-80381678D01*
X174546508Y-80346299D01*
X174474689Y-80324513D01*
X174400000Y-80317157D01*
X172400000Y-80317157D01*
X172325311Y-80324513D01*
X172253492Y-80346299D01*
X172187304Y-80381678D01*
X172129289Y-80429289D01*
X172081678Y-80487304D01*
X172046299Y-80553492D01*
X172024513Y-80625311D01*
X172017157Y-80700000D01*
X172017157Y-82700000D01*
X172024513Y-82774689D01*
X172046299Y-82846508D01*
X172081678Y-82912696D01*
X172129289Y-82970711D01*
X172187304Y-83018322D01*
X172234104Y-83043338D01*
X172148917Y-83128525D01*
X172264585Y-83244193D01*
X172000186Y-83339956D01*
X171859296Y-83629571D01*
X171777616Y-83941108D01*
X171758282Y-84262595D01*
X161011362Y-84262595D01*
X160049501Y-83300735D01*
X160029741Y-83276657D01*
X159933659Y-83197804D01*
X159824040Y-83139211D01*
X159705096Y-83103130D01*
X159612396Y-83094000D01*
X159612388Y-83094000D01*
X159581398Y-83090948D01*
X159550408Y-83094000D01*
X150694200Y-83094000D01*
X150694200Y-75131768D01*
X152377408Y-73448560D01*
X154594000Y-73448560D01*
X154594000Y-73769840D01*
X154656678Y-74084945D01*
X154779626Y-74381768D01*
X154958119Y-74648902D01*
X155185298Y-74876081D01*
X155452432Y-75054574D01*
X155749255Y-75177522D01*
X156064360Y-75240200D01*
X156385640Y-75240200D01*
X156700745Y-75177522D01*
X156997568Y-75054574D01*
X157264702Y-74876081D01*
X157491881Y-74648902D01*
X157670374Y-74381768D01*
X157793322Y-74084945D01*
X157856000Y-73769840D01*
X157856000Y-73448560D01*
X157793322Y-73133455D01*
X157670374Y-72836632D01*
X157491881Y-72569498D01*
X157264702Y-72342319D01*
X156997568Y-72163826D01*
X156700745Y-72040878D01*
X156385640Y-71978200D01*
X156064360Y-71978200D01*
X155749255Y-72040878D01*
X155452432Y-72163826D01*
X155185298Y-72342319D01*
X154958119Y-72569498D01*
X154779626Y-72836632D01*
X154656678Y-73133455D01*
X154594000Y-73448560D01*
X152377408Y-73448560D01*
X154281036Y-71544933D01*
X154462357Y-71581000D01*
X154704843Y-71581000D01*
X154942669Y-71533693D01*
X155166697Y-71440898D01*
X155368317Y-71306180D01*
X155539780Y-71134717D01*
X155674498Y-70933097D01*
X155767293Y-70709069D01*
X155814600Y-70471243D01*
X155814600Y-70228757D01*
X155767293Y-69990931D01*
X155674498Y-69766903D01*
X155617099Y-69680999D01*
X156090101Y-69680999D01*
X156032702Y-69766903D01*
X155939907Y-69990931D01*
X155892600Y-70228757D01*
X155892600Y-70471243D01*
X155939907Y-70709069D01*
X156032702Y-70933097D01*
X156167420Y-71134717D01*
X156338883Y-71306180D01*
X156540503Y-71440898D01*
X156764531Y-71533693D01*
X157002357Y-71581000D01*
X157244843Y-71581000D01*
X157482669Y-71533693D01*
X157559767Y-71501758D01*
X158853601Y-72795593D01*
X158853600Y-81392699D01*
X158752958Y-81493341D01*
X158667487Y-81621258D01*
X158608613Y-81763391D01*
X158578600Y-81914278D01*
X158578600Y-82068122D01*
X158608613Y-82219009D01*
X158667487Y-82361142D01*
X158752958Y-82489059D01*
X158861741Y-82597842D01*
X158989658Y-82683313D01*
X159131791Y-82742187D01*
X159282678Y-82772200D01*
X159436522Y-82772200D01*
X159587409Y-82742187D01*
X159729542Y-82683313D01*
X159857459Y-82597842D01*
X159966242Y-82489059D01*
X160051713Y-82361142D01*
X160110587Y-82219009D01*
X160140600Y-82068122D01*
X160140600Y-81914278D01*
X160110587Y-81763391D01*
X160051713Y-81621258D01*
X159966242Y-81493341D01*
X159865600Y-81392699D01*
X159865600Y-72610854D01*
X159868048Y-72586000D01*
X159858278Y-72486807D01*
X159829345Y-72391425D01*
X159782359Y-72303521D01*
X159719127Y-72226473D01*
X159699820Y-72210628D01*
X158275358Y-70786167D01*
X158307293Y-70709069D01*
X158354600Y-70471243D01*
X158354600Y-70228757D01*
X158307293Y-69990931D01*
X158214498Y-69766903D01*
X158157099Y-69680999D01*
X158630101Y-69680999D01*
X158572702Y-69766903D01*
X158479907Y-69990931D01*
X158432600Y-70228757D01*
X158432600Y-70471243D01*
X158479907Y-70709069D01*
X158572702Y-70933097D01*
X158707420Y-71134717D01*
X158878883Y-71306180D01*
X159080503Y-71440898D01*
X159304531Y-71533693D01*
X159542357Y-71581000D01*
X159784843Y-71581000D01*
X160022669Y-71533693D01*
X160246697Y-71440898D01*
X160448317Y-71306180D01*
X160619780Y-71134717D01*
X160754498Y-70933097D01*
X160847293Y-70709069D01*
X160894600Y-70471243D01*
X160894600Y-70228757D01*
X160847293Y-69990931D01*
X160754498Y-69766903D01*
X160697099Y-69680999D01*
X166726397Y-69680999D01*
X166540152Y-69805444D01*
X166299044Y-70046552D01*
X166109607Y-70330064D01*
X165979121Y-70645086D01*
X165912600Y-70979511D01*
X165912600Y-71320489D01*
X165979121Y-71654914D01*
X166109607Y-71969936D01*
X166299044Y-72253448D01*
X166540152Y-72494556D01*
X166823664Y-72683993D01*
X167138686Y-72814479D01*
X167473111Y-72881000D01*
X167814089Y-72881000D01*
X168148514Y-72814479D01*
X168463536Y-72683993D01*
X168747048Y-72494556D01*
X168988156Y-72253448D01*
X169177593Y-71969936D01*
X169308079Y-71654914D01*
X169374600Y-71320489D01*
X169374600Y-70979511D01*
X169308079Y-70645086D01*
X169177593Y-70330064D01*
X168988156Y-70046552D01*
X168747048Y-69805444D01*
X168560803Y-69680999D01*
X173571090Y-69680999D01*
X181107247Y-77217157D01*
X179300000Y-77217157D01*
X179225311Y-77224513D01*
X179153492Y-77246299D01*
X179087304Y-77281678D01*
X179029289Y-77329289D01*
X178981678Y-77387304D01*
X178946299Y-77453492D01*
X178924513Y-77525311D01*
X178917157Y-77600000D01*
X178917157Y-79600000D01*
X178924513Y-79674689D01*
X178946299Y-79746508D01*
X178981678Y-79812696D01*
X179029289Y-79870711D01*
X179087304Y-79918322D01*
X179153492Y-79953701D01*
X179225311Y-79975487D01*
X179300000Y-79982843D01*
X182500000Y-79982843D01*
X182574689Y-79975487D01*
X182646508Y-79953701D01*
X182712696Y-79918322D01*
X182770711Y-79870711D01*
X182818322Y-79812696D01*
X182853701Y-79746508D01*
X182875487Y-79674689D01*
X182882843Y-79600000D01*
X182882843Y-78113432D01*
X186068999Y-81299589D01*
X186069000Y-85350143D01*
X186066552Y-85374999D01*
X186076321Y-85474191D01*
X186105254Y-85569573D01*
X186105255Y-85569574D01*
X186152241Y-85657478D01*
X186215473Y-85734526D01*
X186234779Y-85750370D01*
X186633437Y-86149028D01*
X186572071Y-86297177D01*
X186519000Y-86563983D01*
X186519000Y-86836017D01*
X186572071Y-87102823D01*
X186676174Y-87354149D01*
X186827307Y-87580336D01*
X187019664Y-87772693D01*
X187245851Y-87923826D01*
X187497177Y-88027929D01*
X187763983Y-88081000D01*
X188036017Y-88081000D01*
X188302823Y-88027929D01*
X188554149Y-87923826D01*
X188780336Y-87772693D01*
X188972693Y-87580336D01*
X189123826Y-87354149D01*
X189227929Y-87102823D01*
X189281000Y-86836017D01*
X189281000Y-86563983D01*
X189227929Y-86297177D01*
X189123826Y-86045851D01*
X188972693Y-85819664D01*
X188780336Y-85627307D01*
X188554149Y-85476174D01*
X188302823Y-85372071D01*
X188036017Y-85319000D01*
X187763983Y-85319000D01*
X187497177Y-85372071D01*
X187349028Y-85433437D01*
X187080999Y-85165408D01*
X187080999Y-83119780D01*
X187329571Y-83240704D01*
X187641108Y-83322384D01*
X187962595Y-83341718D01*
X188281675Y-83297961D01*
X188586088Y-83192795D01*
X188760044Y-83099814D01*
X188855808Y-82835413D01*
X187900000Y-81879605D01*
X187885858Y-81893748D01*
X187706253Y-81714143D01*
X187720395Y-81700000D01*
X188079605Y-81700000D01*
X189035413Y-82655808D01*
X189299814Y-82560044D01*
X189440704Y-82270429D01*
X189522384Y-81958892D01*
X189541718Y-81637405D01*
X189497961Y-81318325D01*
X189392795Y-81013912D01*
X189299814Y-80839956D01*
X189035413Y-80744192D01*
X188079605Y-81700000D01*
X187720395Y-81700000D01*
X187706253Y-81685858D01*
X187885858Y-81506253D01*
X187900000Y-81520395D01*
X188855808Y-80564587D01*
X188760044Y-80300186D01*
X188470429Y-80159296D01*
X188158892Y-80077616D01*
X187837405Y-80058282D01*
X187518325Y-80102039D01*
X187213912Y-80207205D01*
X187039956Y-80300186D01*
X186944193Y-80564585D01*
X186828525Y-80448917D01*
X186739018Y-80538424D01*
X183135377Y-76934784D01*
X183119528Y-76915472D01*
X183042480Y-76852240D01*
X182954576Y-76805254D01*
X182859194Y-76776321D01*
X182784855Y-76768999D01*
X182784847Y-76768999D01*
X182760001Y-76766552D01*
X182735155Y-76768999D01*
X182090273Y-76768999D01*
X177201273Y-71880000D01*
X178402499Y-71880000D01*
X178503141Y-71980642D01*
X178631058Y-72066113D01*
X178773191Y-72124987D01*
X178924078Y-72155000D01*
X179077922Y-72155000D01*
X179228809Y-72124987D01*
X179370942Y-72066113D01*
X179498859Y-71980642D01*
X179607642Y-71871859D01*
X179693113Y-71743942D01*
X179751987Y-71601809D01*
X179782000Y-71450922D01*
X179782000Y-71297078D01*
X179751987Y-71146191D01*
X179693113Y-71004058D01*
X179607642Y-70876141D01*
X179498859Y-70767358D01*
X179370942Y-70681887D01*
X179228809Y-70623013D01*
X179077922Y-70593000D01*
X178924078Y-70593000D01*
X178773191Y-70623013D01*
X178718387Y-70645714D01*
X178762242Y-70601859D01*
X178847713Y-70473942D01*
X178906587Y-70331809D01*
X178936600Y-70180922D01*
X178936600Y-70027078D01*
X178906587Y-69876191D01*
X178847713Y-69734058D01*
X178762242Y-69606141D01*
X178653459Y-69497358D01*
X178525542Y-69411887D01*
X178383409Y-69353013D01*
X178232522Y-69323000D01*
X178090192Y-69323000D01*
X176195376Y-67428184D01*
X176251391Y-67451387D01*
X176402278Y-67481400D01*
X176556122Y-67481400D01*
X176707009Y-67451387D01*
X176849142Y-67392513D01*
X176977059Y-67307042D01*
X177085842Y-67198259D01*
X177171313Y-67070342D01*
X177230187Y-66928209D01*
X177260200Y-66777322D01*
X177260200Y-66623478D01*
X177230187Y-66472591D01*
X177171313Y-66330458D01*
X177085842Y-66202541D01*
X176977059Y-66093758D01*
X176849142Y-66008287D01*
X176707009Y-65949413D01*
X176556122Y-65919400D01*
X176413792Y-65919400D01*
X174315165Y-63820774D01*
X174299316Y-63801462D01*
X174222268Y-63738230D01*
X174134364Y-63691244D01*
X174038982Y-63662311D01*
X173964643Y-63654989D01*
X173964635Y-63654989D01*
X173939789Y-63652542D01*
X173914943Y-63654989D01*
X138173455Y-63654989D01*
X138148601Y-63652541D01*
X138123747Y-63654989D01*
X138049408Y-63662311D01*
X137954026Y-63691244D01*
X137866122Y-63738230D01*
X137789074Y-63801462D01*
X137773229Y-63820769D01*
X136785000Y-64808999D01*
X125406853Y-64808999D01*
X125381999Y-64806551D01*
X125357145Y-64808999D01*
X125282806Y-64816321D01*
X125187424Y-64845254D01*
X125099520Y-64892240D01*
X125022472Y-64955472D01*
X125006628Y-64974778D01*
X116830780Y-73150627D01*
X116811473Y-73166472D01*
X116748241Y-73243520D01*
X116723126Y-73290507D01*
X116701254Y-73331425D01*
X116672321Y-73426807D01*
X116662552Y-73525999D01*
X110406000Y-73525999D01*
X110406000Y-59204889D01*
X111469000Y-59204889D01*
X111469000Y-59595111D01*
X111545129Y-59977836D01*
X111694461Y-60338355D01*
X111911257Y-60662814D01*
X112187186Y-60938743D01*
X112511645Y-61155539D01*
X112872164Y-61304871D01*
X113254889Y-61381000D01*
X113645111Y-61381000D01*
X114027836Y-61304871D01*
X114388355Y-61155539D01*
X114712814Y-60938743D01*
X114988743Y-60662814D01*
X115205539Y-60338355D01*
X115354871Y-59977836D01*
X115431000Y-59595111D01*
X115431000Y-59204889D01*
X115354871Y-58822164D01*
X115270108Y-58617528D01*
X117387000Y-58617528D01*
X117387000Y-59238471D01*
X117404812Y-59419317D01*
X117475202Y-59651362D01*
X117589509Y-59865215D01*
X117743340Y-60052660D01*
X117930784Y-60206491D01*
X118144637Y-60320798D01*
X118376682Y-60391188D01*
X118618000Y-60414956D01*
X118859317Y-60391188D01*
X119091362Y-60320798D01*
X119305215Y-60206491D01*
X119492660Y-60052660D01*
X119646491Y-59865216D01*
X119760798Y-59651363D01*
X119831188Y-59419318D01*
X119849000Y-59238472D01*
X119849000Y-58617529D01*
X119849000Y-58617528D01*
X119927000Y-58617528D01*
X119927000Y-59238471D01*
X119944812Y-59419317D01*
X120015202Y-59651362D01*
X120129509Y-59865215D01*
X120283340Y-60052660D01*
X120470784Y-60206491D01*
X120684637Y-60320798D01*
X120916682Y-60391188D01*
X121158000Y-60414956D01*
X121399317Y-60391188D01*
X121631362Y-60320798D01*
X121845215Y-60206491D01*
X122032660Y-60052660D01*
X122186491Y-59865216D01*
X122300798Y-59651363D01*
X122371188Y-59419318D01*
X122389000Y-59238472D01*
X122389000Y-58617529D01*
X122389000Y-58617528D01*
X122467000Y-58617528D01*
X122467000Y-59238471D01*
X122484812Y-59419317D01*
X122555202Y-59651362D01*
X122669509Y-59865215D01*
X122823340Y-60052660D01*
X123010784Y-60206491D01*
X123224637Y-60320798D01*
X123456682Y-60391188D01*
X123698000Y-60414956D01*
X123939317Y-60391188D01*
X124171362Y-60320798D01*
X124385215Y-60206491D01*
X124572660Y-60052660D01*
X124726491Y-59865216D01*
X124840798Y-59651363D01*
X124911188Y-59419318D01*
X124929000Y-59238472D01*
X124929000Y-58617529D01*
X124929000Y-58617528D01*
X125007000Y-58617528D01*
X125007000Y-59238471D01*
X125024812Y-59419317D01*
X125095202Y-59651362D01*
X125209509Y-59865215D01*
X125363340Y-60052660D01*
X125550784Y-60206491D01*
X125764637Y-60320798D01*
X125996682Y-60391188D01*
X126238000Y-60414956D01*
X126479317Y-60391188D01*
X126711362Y-60320798D01*
X126925215Y-60206491D01*
X127112660Y-60052660D01*
X127266491Y-59865216D01*
X127380798Y-59651363D01*
X127451188Y-59419318D01*
X127469000Y-59238472D01*
X127469000Y-58617529D01*
X127469000Y-58617528D01*
X127547000Y-58617528D01*
X127547000Y-59238471D01*
X127564812Y-59419317D01*
X127635202Y-59651362D01*
X127749509Y-59865215D01*
X127903340Y-60052660D01*
X128090784Y-60206491D01*
X128304637Y-60320798D01*
X128536682Y-60391188D01*
X128778000Y-60414956D01*
X129019317Y-60391188D01*
X129251362Y-60320798D01*
X129465215Y-60206491D01*
X129652660Y-60052660D01*
X129806491Y-59865216D01*
X129920798Y-59651363D01*
X129991188Y-59419318D01*
X130009000Y-59238472D01*
X130009000Y-58617529D01*
X130009000Y-58617528D01*
X130087000Y-58617528D01*
X130087000Y-59238471D01*
X130104812Y-59419317D01*
X130175202Y-59651362D01*
X130289509Y-59865215D01*
X130443340Y-60052660D01*
X130630784Y-60206491D01*
X130844637Y-60320798D01*
X131076682Y-60391188D01*
X131318000Y-60414956D01*
X131559317Y-60391188D01*
X131791362Y-60320798D01*
X132005215Y-60206491D01*
X132192660Y-60052660D01*
X132346491Y-59865216D01*
X132460798Y-59651363D01*
X132531188Y-59419318D01*
X132549000Y-59238472D01*
X132549000Y-58617529D01*
X132549000Y-58617528D01*
X132627000Y-58617528D01*
X132627000Y-59238471D01*
X132644812Y-59419317D01*
X132715202Y-59651362D01*
X132829509Y-59865215D01*
X132983340Y-60052660D01*
X133170784Y-60206491D01*
X133384637Y-60320798D01*
X133616682Y-60391188D01*
X133858000Y-60414956D01*
X134099317Y-60391188D01*
X134331362Y-60320798D01*
X134545215Y-60206491D01*
X134732660Y-60052660D01*
X134886491Y-59865216D01*
X135000798Y-59651363D01*
X135071188Y-59419318D01*
X135089000Y-59238472D01*
X135089000Y-58617529D01*
X135071188Y-58436683D01*
X135000798Y-58204638D01*
X134886491Y-57990784D01*
X134752898Y-57828000D01*
X135165157Y-57828000D01*
X135165157Y-60028000D01*
X135172513Y-60102689D01*
X135194299Y-60174508D01*
X135229678Y-60240696D01*
X135277289Y-60298711D01*
X135335304Y-60346322D01*
X135401492Y-60381701D01*
X135473311Y-60403487D01*
X135548000Y-60410843D01*
X137248000Y-60410843D01*
X137322689Y-60403487D01*
X137394508Y-60381701D01*
X137460696Y-60346322D01*
X137518711Y-60298711D01*
X137566322Y-60240696D01*
X137601701Y-60174508D01*
X137623487Y-60102689D01*
X137630843Y-60028000D01*
X137630843Y-59289640D01*
X138361260Y-59289640D01*
X138411692Y-59578402D01*
X138517489Y-59851777D01*
X138674586Y-60099259D01*
X138876946Y-60311337D01*
X139116792Y-60479862D01*
X139384907Y-60598357D01*
X139495510Y-60619476D01*
X139725400Y-60498155D01*
X139725400Y-59055000D01*
X138520904Y-59055000D01*
X138361260Y-59289640D01*
X137630843Y-59289640D01*
X137630843Y-58566360D01*
X138361260Y-58566360D01*
X138520904Y-58801000D01*
X139725400Y-58801000D01*
X139725400Y-57357845D01*
X139979400Y-57357845D01*
X139979400Y-58801000D01*
X139999400Y-58801000D01*
X139999400Y-59055000D01*
X139979400Y-59055000D01*
X139979400Y-60498155D01*
X140209290Y-60619476D01*
X140319893Y-60598357D01*
X140588008Y-60479862D01*
X140827854Y-60311337D01*
X141030214Y-60099259D01*
X141187311Y-59851777D01*
X141258459Y-59667933D01*
X141363909Y-59865215D01*
X141517740Y-60052660D01*
X141705184Y-60206491D01*
X141919037Y-60320798D01*
X142151082Y-60391188D01*
X142392400Y-60414956D01*
X142633717Y-60391188D01*
X142865762Y-60320798D01*
X143079615Y-60206491D01*
X143267060Y-60052660D01*
X143420891Y-59865216D01*
X143535198Y-59651363D01*
X143605588Y-59419318D01*
X143623400Y-59238472D01*
X143623400Y-58617529D01*
X143623400Y-58617528D01*
X143701400Y-58617528D01*
X143701400Y-59238471D01*
X143719212Y-59419317D01*
X143789602Y-59651362D01*
X143903909Y-59865215D01*
X144057740Y-60052660D01*
X144245184Y-60206491D01*
X144459037Y-60320798D01*
X144691082Y-60391188D01*
X144932400Y-60414956D01*
X145173717Y-60391188D01*
X145405762Y-60320798D01*
X145619615Y-60206491D01*
X145807060Y-60052660D01*
X145960891Y-59865216D01*
X146075198Y-59651363D01*
X146145588Y-59419318D01*
X146163400Y-59238472D01*
X146163400Y-58617529D01*
X146145588Y-58436683D01*
X146075198Y-58204638D01*
X145960891Y-57990784D01*
X145827298Y-57828000D01*
X146239557Y-57828000D01*
X146239557Y-60028000D01*
X146246913Y-60102689D01*
X146268699Y-60174508D01*
X146304078Y-60240696D01*
X146351689Y-60298711D01*
X146409704Y-60346322D01*
X146475892Y-60381701D01*
X146547711Y-60403487D01*
X146622400Y-60410843D01*
X148322400Y-60410843D01*
X148397089Y-60403487D01*
X148468908Y-60381701D01*
X148535096Y-60346322D01*
X148593111Y-60298711D01*
X148640722Y-60240696D01*
X148676101Y-60174508D01*
X148697887Y-60102689D01*
X148705243Y-60028000D01*
X148705243Y-59289640D01*
X149435660Y-59289640D01*
X149486092Y-59578402D01*
X149591889Y-59851777D01*
X149748986Y-60099259D01*
X149951346Y-60311337D01*
X150191192Y-60479862D01*
X150459307Y-60598357D01*
X150569910Y-60619476D01*
X150799800Y-60498155D01*
X150799800Y-59055000D01*
X149595304Y-59055000D01*
X149435660Y-59289640D01*
X148705243Y-59289640D01*
X148705243Y-58566360D01*
X149435660Y-58566360D01*
X149595304Y-58801000D01*
X150799800Y-58801000D01*
X150799800Y-57357845D01*
X151053800Y-57357845D01*
X151053800Y-58801000D01*
X151073800Y-58801000D01*
X151073800Y-59055000D01*
X151053800Y-59055000D01*
X151053800Y-60498155D01*
X151283690Y-60619476D01*
X151394293Y-60598357D01*
X151662408Y-60479862D01*
X151902254Y-60311337D01*
X152104614Y-60099259D01*
X152261711Y-59851777D01*
X152332859Y-59667933D01*
X152438309Y-59865215D01*
X152592140Y-60052660D01*
X152779584Y-60206491D01*
X152993437Y-60320798D01*
X153225482Y-60391188D01*
X153466800Y-60414956D01*
X153708117Y-60391188D01*
X153940162Y-60320798D01*
X154154015Y-60206491D01*
X154341460Y-60052660D01*
X154495291Y-59865216D01*
X154609598Y-59651363D01*
X154679988Y-59419318D01*
X154697800Y-59238472D01*
X154697800Y-58617529D01*
X154697800Y-58617528D01*
X154775800Y-58617528D01*
X154775800Y-59238471D01*
X154793612Y-59419317D01*
X154864002Y-59651362D01*
X154978309Y-59865215D01*
X155132140Y-60052660D01*
X155319584Y-60206491D01*
X155533437Y-60320798D01*
X155765482Y-60391188D01*
X156006800Y-60414956D01*
X156248117Y-60391188D01*
X156480162Y-60320798D01*
X156694015Y-60206491D01*
X156881460Y-60052660D01*
X157035291Y-59865216D01*
X157149598Y-59651363D01*
X157219988Y-59419318D01*
X157237800Y-59238472D01*
X157237800Y-58617529D01*
X157237800Y-58617528D01*
X157315800Y-58617528D01*
X157315800Y-59238471D01*
X157333612Y-59419317D01*
X157404002Y-59651362D01*
X157518309Y-59865215D01*
X157672140Y-60052660D01*
X157859584Y-60206491D01*
X158073437Y-60320798D01*
X158305482Y-60391188D01*
X158546800Y-60414956D01*
X158788117Y-60391188D01*
X159020162Y-60320798D01*
X159234015Y-60206491D01*
X159421460Y-60052660D01*
X159575291Y-59865216D01*
X159689598Y-59651363D01*
X159759988Y-59419318D01*
X159777800Y-59238472D01*
X159777800Y-58617529D01*
X159759988Y-58436683D01*
X159689598Y-58204638D01*
X159575291Y-57990784D01*
X159441698Y-57828000D01*
X159853957Y-57828000D01*
X159853957Y-60028000D01*
X159861313Y-60102689D01*
X159883099Y-60174508D01*
X159918478Y-60240696D01*
X159966089Y-60298711D01*
X160024104Y-60346322D01*
X160090292Y-60381701D01*
X160162111Y-60403487D01*
X160236800Y-60410843D01*
X161936800Y-60410843D01*
X162011489Y-60403487D01*
X162083308Y-60381701D01*
X162149496Y-60346322D01*
X162207511Y-60298711D01*
X162255122Y-60240696D01*
X162290501Y-60174508D01*
X162312287Y-60102689D01*
X162319643Y-60028000D01*
X162319643Y-59289640D01*
X163164360Y-59289640D01*
X163214792Y-59578402D01*
X163320589Y-59851777D01*
X163477686Y-60099259D01*
X163680046Y-60311337D01*
X163919892Y-60479862D01*
X164188007Y-60598357D01*
X164298610Y-60619476D01*
X164528500Y-60498155D01*
X164528500Y-59055000D01*
X163324004Y-59055000D01*
X163164360Y-59289640D01*
X162319643Y-59289640D01*
X162319643Y-58566360D01*
X163164360Y-58566360D01*
X163324004Y-58801000D01*
X164528500Y-58801000D01*
X164528500Y-57357845D01*
X164782500Y-57357845D01*
X164782500Y-58801000D01*
X164802500Y-58801000D01*
X164802500Y-59055000D01*
X164782500Y-59055000D01*
X164782500Y-60498155D01*
X165012390Y-60619476D01*
X165122993Y-60598357D01*
X165391108Y-60479862D01*
X165630954Y-60311337D01*
X165833314Y-60099259D01*
X165990411Y-59851777D01*
X166061559Y-59667933D01*
X166167009Y-59865215D01*
X166320840Y-60052660D01*
X166508284Y-60206491D01*
X166722137Y-60320798D01*
X166954182Y-60391188D01*
X167195500Y-60414956D01*
X167436817Y-60391188D01*
X167668862Y-60320798D01*
X167882715Y-60206491D01*
X168070160Y-60052660D01*
X168223991Y-59865216D01*
X168338298Y-59651363D01*
X168408688Y-59419318D01*
X168426500Y-59238472D01*
X168426500Y-58617529D01*
X168426500Y-58617528D01*
X168504500Y-58617528D01*
X168504500Y-59238471D01*
X168522312Y-59419317D01*
X168592702Y-59651362D01*
X168707009Y-59865215D01*
X168860840Y-60052660D01*
X169048284Y-60206491D01*
X169262137Y-60320798D01*
X169494182Y-60391188D01*
X169735500Y-60414956D01*
X169976817Y-60391188D01*
X170208862Y-60320798D01*
X170422715Y-60206491D01*
X170610160Y-60052660D01*
X170763991Y-59865216D01*
X170878298Y-59651363D01*
X170948688Y-59419318D01*
X170966500Y-59238472D01*
X170966500Y-58617529D01*
X170966500Y-58617528D01*
X171044500Y-58617528D01*
X171044500Y-59238471D01*
X171062312Y-59419317D01*
X171132702Y-59651362D01*
X171247009Y-59865215D01*
X171400840Y-60052660D01*
X171588284Y-60206491D01*
X171802137Y-60320798D01*
X172034182Y-60391188D01*
X172275500Y-60414956D01*
X172516817Y-60391188D01*
X172748862Y-60320798D01*
X172962715Y-60206491D01*
X173150160Y-60052660D01*
X173303991Y-59865216D01*
X173418298Y-59651363D01*
X173488688Y-59419318D01*
X173506500Y-59238472D01*
X173506500Y-58617529D01*
X173506500Y-58617528D01*
X173584500Y-58617528D01*
X173584500Y-59238471D01*
X173602312Y-59419317D01*
X173672702Y-59651362D01*
X173787009Y-59865215D01*
X173940840Y-60052660D01*
X174128284Y-60206491D01*
X174342137Y-60320798D01*
X174574182Y-60391188D01*
X174815500Y-60414956D01*
X175056817Y-60391188D01*
X175288862Y-60320798D01*
X175502715Y-60206491D01*
X175690160Y-60052660D01*
X175843991Y-59865216D01*
X175958298Y-59651363D01*
X176028688Y-59419318D01*
X176046500Y-59238472D01*
X176046500Y-58617529D01*
X176046500Y-58617528D01*
X176124500Y-58617528D01*
X176124500Y-59238471D01*
X176142312Y-59419317D01*
X176212702Y-59651362D01*
X176327009Y-59865215D01*
X176480840Y-60052660D01*
X176668284Y-60206491D01*
X176882137Y-60320798D01*
X177114182Y-60391188D01*
X177355500Y-60414956D01*
X177596817Y-60391188D01*
X177828862Y-60320798D01*
X178042715Y-60206491D01*
X178230160Y-60052660D01*
X178383991Y-59865216D01*
X178498298Y-59651363D01*
X178568688Y-59419318D01*
X178586500Y-59238472D01*
X178586500Y-58617529D01*
X178586500Y-58617528D01*
X178664500Y-58617528D01*
X178664500Y-59238471D01*
X178682312Y-59419317D01*
X178752702Y-59651362D01*
X178867009Y-59865215D01*
X179020840Y-60052660D01*
X179208284Y-60206491D01*
X179422137Y-60320798D01*
X179654182Y-60391188D01*
X179895500Y-60414956D01*
X180136817Y-60391188D01*
X180368862Y-60320798D01*
X180582715Y-60206491D01*
X180770160Y-60052660D01*
X180923991Y-59865216D01*
X181038298Y-59651363D01*
X181108688Y-59419318D01*
X181126500Y-59238472D01*
X181126500Y-58617529D01*
X181108688Y-58436683D01*
X181038298Y-58204638D01*
X180923991Y-57990784D01*
X180790398Y-57828000D01*
X181202657Y-57828000D01*
X181202657Y-60028000D01*
X181210013Y-60102689D01*
X181231799Y-60174508D01*
X181267178Y-60240696D01*
X181314789Y-60298711D01*
X181372804Y-60346322D01*
X181438992Y-60381701D01*
X181510811Y-60403487D01*
X181585500Y-60410843D01*
X183285500Y-60410843D01*
X183360189Y-60403487D01*
X183432008Y-60381701D01*
X183498196Y-60346322D01*
X183556211Y-60298711D01*
X183603822Y-60240696D01*
X183639201Y-60174508D01*
X183660987Y-60102689D01*
X183668343Y-60028000D01*
X183668343Y-59204889D01*
X185519000Y-59204889D01*
X185519000Y-59595111D01*
X185595129Y-59977836D01*
X185744461Y-60338355D01*
X185961257Y-60662814D01*
X186237186Y-60938743D01*
X186561645Y-61155539D01*
X186922164Y-61304871D01*
X187304889Y-61381000D01*
X187695111Y-61381000D01*
X188077836Y-61304871D01*
X188438355Y-61155539D01*
X188762814Y-60938743D01*
X189038743Y-60662814D01*
X189255539Y-60338355D01*
X189404871Y-59977836D01*
X189481000Y-59595111D01*
X189481000Y-59204889D01*
X189404871Y-58822164D01*
X189255539Y-58461645D01*
X189038743Y-58137186D01*
X188762814Y-57861257D01*
X188438355Y-57644461D01*
X188077836Y-57495129D01*
X187695111Y-57419000D01*
X187304889Y-57419000D01*
X186922164Y-57495129D01*
X186561645Y-57644461D01*
X186237186Y-57861257D01*
X185961257Y-58137186D01*
X185744461Y-58461645D01*
X185595129Y-58822164D01*
X185519000Y-59204889D01*
X183668343Y-59204889D01*
X183668343Y-57828000D01*
X183660987Y-57753311D01*
X183639201Y-57681492D01*
X183603822Y-57615304D01*
X183556211Y-57557289D01*
X183498196Y-57509678D01*
X183432008Y-57474299D01*
X183360189Y-57452513D01*
X183285500Y-57445157D01*
X181585500Y-57445157D01*
X181510811Y-57452513D01*
X181438992Y-57474299D01*
X181372804Y-57509678D01*
X181314789Y-57557289D01*
X181267178Y-57615304D01*
X181231799Y-57681492D01*
X181210013Y-57753311D01*
X181202657Y-57828000D01*
X180790398Y-57828000D01*
X180770160Y-57803340D01*
X180582716Y-57649509D01*
X180368863Y-57535202D01*
X180136818Y-57464812D01*
X179895500Y-57441044D01*
X179654183Y-57464812D01*
X179422138Y-57535202D01*
X179208285Y-57649509D01*
X179020841Y-57803340D01*
X178867010Y-57990784D01*
X178752702Y-58204637D01*
X178682312Y-58436682D01*
X178664500Y-58617528D01*
X178586500Y-58617528D01*
X178568688Y-58436683D01*
X178498298Y-58204638D01*
X178383991Y-57990784D01*
X178230160Y-57803340D01*
X178042716Y-57649509D01*
X177828863Y-57535202D01*
X177596818Y-57464812D01*
X177355500Y-57441044D01*
X177114183Y-57464812D01*
X176882138Y-57535202D01*
X176668285Y-57649509D01*
X176480841Y-57803340D01*
X176327010Y-57990784D01*
X176212702Y-58204637D01*
X176142312Y-58436682D01*
X176124500Y-58617528D01*
X176046500Y-58617528D01*
X176028688Y-58436683D01*
X175958298Y-58204638D01*
X175843991Y-57990784D01*
X175690160Y-57803340D01*
X175502716Y-57649509D01*
X175288863Y-57535202D01*
X175056818Y-57464812D01*
X174815500Y-57441044D01*
X174574183Y-57464812D01*
X174342138Y-57535202D01*
X174128285Y-57649509D01*
X173940841Y-57803340D01*
X173787010Y-57990784D01*
X173672702Y-58204637D01*
X173602312Y-58436682D01*
X173584500Y-58617528D01*
X173506500Y-58617528D01*
X173488688Y-58436683D01*
X173418298Y-58204638D01*
X173303991Y-57990784D01*
X173150160Y-57803340D01*
X172962716Y-57649509D01*
X172748863Y-57535202D01*
X172516818Y-57464812D01*
X172275500Y-57441044D01*
X172034183Y-57464812D01*
X171802138Y-57535202D01*
X171588285Y-57649509D01*
X171400841Y-57803340D01*
X171247010Y-57990784D01*
X171132702Y-58204637D01*
X171062312Y-58436682D01*
X171044500Y-58617528D01*
X170966500Y-58617528D01*
X170948688Y-58436683D01*
X170878298Y-58204638D01*
X170763991Y-57990784D01*
X170610160Y-57803340D01*
X170422716Y-57649509D01*
X170208863Y-57535202D01*
X169976818Y-57464812D01*
X169735500Y-57441044D01*
X169494183Y-57464812D01*
X169262138Y-57535202D01*
X169048285Y-57649509D01*
X168860841Y-57803340D01*
X168707010Y-57990784D01*
X168592702Y-58204637D01*
X168522312Y-58436682D01*
X168504500Y-58617528D01*
X168426500Y-58617528D01*
X168408688Y-58436683D01*
X168338298Y-58204638D01*
X168223991Y-57990784D01*
X168070160Y-57803340D01*
X167882716Y-57649509D01*
X167668863Y-57535202D01*
X167436818Y-57464812D01*
X167195500Y-57441044D01*
X166954183Y-57464812D01*
X166722138Y-57535202D01*
X166508285Y-57649509D01*
X166320841Y-57803340D01*
X166167010Y-57990784D01*
X166061559Y-58188067D01*
X165990411Y-58004223D01*
X165833314Y-57756741D01*
X165630954Y-57544663D01*
X165391108Y-57376138D01*
X165122993Y-57257643D01*
X165012390Y-57236524D01*
X164782500Y-57357845D01*
X164528500Y-57357845D01*
X164298610Y-57236524D01*
X164188007Y-57257643D01*
X163919892Y-57376138D01*
X163680046Y-57544663D01*
X163477686Y-57756741D01*
X163320589Y-58004223D01*
X163214792Y-58277598D01*
X163164360Y-58566360D01*
X162319643Y-58566360D01*
X162319643Y-57828000D01*
X162312287Y-57753311D01*
X162290501Y-57681492D01*
X162255122Y-57615304D01*
X162207511Y-57557289D01*
X162149496Y-57509678D01*
X162083308Y-57474299D01*
X162011489Y-57452513D01*
X161936800Y-57445157D01*
X160236800Y-57445157D01*
X160162111Y-57452513D01*
X160090292Y-57474299D01*
X160024104Y-57509678D01*
X159966089Y-57557289D01*
X159918478Y-57615304D01*
X159883099Y-57681492D01*
X159861313Y-57753311D01*
X159853957Y-57828000D01*
X159441698Y-57828000D01*
X159421460Y-57803340D01*
X159234016Y-57649509D01*
X159020163Y-57535202D01*
X158788118Y-57464812D01*
X158546800Y-57441044D01*
X158305483Y-57464812D01*
X158073438Y-57535202D01*
X157859585Y-57649509D01*
X157672141Y-57803340D01*
X157518310Y-57990784D01*
X157404002Y-58204637D01*
X157333612Y-58436682D01*
X157315800Y-58617528D01*
X157237800Y-58617528D01*
X157219988Y-58436683D01*
X157149598Y-58204638D01*
X157035291Y-57990784D01*
X156881460Y-57803340D01*
X156694016Y-57649509D01*
X156480163Y-57535202D01*
X156248118Y-57464812D01*
X156006800Y-57441044D01*
X155765483Y-57464812D01*
X155533438Y-57535202D01*
X155319585Y-57649509D01*
X155132141Y-57803340D01*
X154978310Y-57990784D01*
X154864002Y-58204637D01*
X154793612Y-58436682D01*
X154775800Y-58617528D01*
X154697800Y-58617528D01*
X154679988Y-58436683D01*
X154609598Y-58204638D01*
X154495291Y-57990784D01*
X154341460Y-57803340D01*
X154154016Y-57649509D01*
X153940163Y-57535202D01*
X153708118Y-57464812D01*
X153466800Y-57441044D01*
X153225483Y-57464812D01*
X152993438Y-57535202D01*
X152779585Y-57649509D01*
X152592141Y-57803340D01*
X152438310Y-57990784D01*
X152332859Y-58188067D01*
X152261711Y-58004223D01*
X152104614Y-57756741D01*
X151902254Y-57544663D01*
X151662408Y-57376138D01*
X151394293Y-57257643D01*
X151283690Y-57236524D01*
X151053800Y-57357845D01*
X150799800Y-57357845D01*
X150569910Y-57236524D01*
X150459307Y-57257643D01*
X150191192Y-57376138D01*
X149951346Y-57544663D01*
X149748986Y-57756741D01*
X149591889Y-58004223D01*
X149486092Y-58277598D01*
X149435660Y-58566360D01*
X148705243Y-58566360D01*
X148705243Y-57828000D01*
X148697887Y-57753311D01*
X148676101Y-57681492D01*
X148640722Y-57615304D01*
X148593111Y-57557289D01*
X148535096Y-57509678D01*
X148468908Y-57474299D01*
X148397089Y-57452513D01*
X148322400Y-57445157D01*
X146622400Y-57445157D01*
X146547711Y-57452513D01*
X146475892Y-57474299D01*
X146409704Y-57509678D01*
X146351689Y-57557289D01*
X146304078Y-57615304D01*
X146268699Y-57681492D01*
X146246913Y-57753311D01*
X146239557Y-57828000D01*
X145827298Y-57828000D01*
X145807060Y-57803340D01*
X145619616Y-57649509D01*
X145405763Y-57535202D01*
X145173718Y-57464812D01*
X144932400Y-57441044D01*
X144691083Y-57464812D01*
X144459038Y-57535202D01*
X144245185Y-57649509D01*
X144057741Y-57803340D01*
X143903910Y-57990784D01*
X143789602Y-58204637D01*
X143719212Y-58436682D01*
X143701400Y-58617528D01*
X143623400Y-58617528D01*
X143605588Y-58436683D01*
X143535198Y-58204638D01*
X143420891Y-57990784D01*
X143267060Y-57803340D01*
X143079616Y-57649509D01*
X142865763Y-57535202D01*
X142633718Y-57464812D01*
X142392400Y-57441044D01*
X142151083Y-57464812D01*
X141919038Y-57535202D01*
X141705185Y-57649509D01*
X141517741Y-57803340D01*
X141363910Y-57990784D01*
X141258459Y-58188067D01*
X141187311Y-58004223D01*
X141030214Y-57756741D01*
X140827854Y-57544663D01*
X140588008Y-57376138D01*
X140319893Y-57257643D01*
X140209290Y-57236524D01*
X139979400Y-57357845D01*
X139725400Y-57357845D01*
X139495510Y-57236524D01*
X139384907Y-57257643D01*
X139116792Y-57376138D01*
X138876946Y-57544663D01*
X138674586Y-57756741D01*
X138517489Y-58004223D01*
X138411692Y-58277598D01*
X138361260Y-58566360D01*
X137630843Y-58566360D01*
X137630843Y-57828000D01*
X137623487Y-57753311D01*
X137601701Y-57681492D01*
X137566322Y-57615304D01*
X137518711Y-57557289D01*
X137460696Y-57509678D01*
X137394508Y-57474299D01*
X137322689Y-57452513D01*
X137248000Y-57445157D01*
X135548000Y-57445157D01*
X135473311Y-57452513D01*
X135401492Y-57474299D01*
X135335304Y-57509678D01*
X135277289Y-57557289D01*
X135229678Y-57615304D01*
X135194299Y-57681492D01*
X135172513Y-57753311D01*
X135165157Y-57828000D01*
X134752898Y-57828000D01*
X134732660Y-57803340D01*
X134545216Y-57649509D01*
X134331363Y-57535202D01*
X134099318Y-57464812D01*
X133858000Y-57441044D01*
X133616683Y-57464812D01*
X133384638Y-57535202D01*
X133170785Y-57649509D01*
X132983341Y-57803340D01*
X132829510Y-57990784D01*
X132715202Y-58204637D01*
X132644812Y-58436682D01*
X132627000Y-58617528D01*
X132549000Y-58617528D01*
X132531188Y-58436683D01*
X132460798Y-58204638D01*
X132346491Y-57990784D01*
X132192660Y-57803340D01*
X132005216Y-57649509D01*
X131791363Y-57535202D01*
X131559318Y-57464812D01*
X131318000Y-57441044D01*
X131076683Y-57464812D01*
X130844638Y-57535202D01*
X130630785Y-57649509D01*
X130443341Y-57803340D01*
X130289510Y-57990784D01*
X130175202Y-58204637D01*
X130104812Y-58436682D01*
X130087000Y-58617528D01*
X130009000Y-58617528D01*
X129991188Y-58436683D01*
X129920798Y-58204638D01*
X129806491Y-57990784D01*
X129652660Y-57803340D01*
X129465216Y-57649509D01*
X129251363Y-57535202D01*
X129019318Y-57464812D01*
X128778000Y-57441044D01*
X128536683Y-57464812D01*
X128304638Y-57535202D01*
X128090785Y-57649509D01*
X127903341Y-57803340D01*
X127749510Y-57990784D01*
X127635202Y-58204637D01*
X127564812Y-58436682D01*
X127547000Y-58617528D01*
X127469000Y-58617528D01*
X127451188Y-58436683D01*
X127380798Y-58204638D01*
X127266491Y-57990784D01*
X127112660Y-57803340D01*
X126925216Y-57649509D01*
X126711363Y-57535202D01*
X126479318Y-57464812D01*
X126238000Y-57441044D01*
X125996683Y-57464812D01*
X125764638Y-57535202D01*
X125550785Y-57649509D01*
X125363341Y-57803340D01*
X125209510Y-57990784D01*
X125095202Y-58204637D01*
X125024812Y-58436682D01*
X125007000Y-58617528D01*
X124929000Y-58617528D01*
X124911188Y-58436683D01*
X124840798Y-58204638D01*
X124726491Y-57990784D01*
X124572660Y-57803340D01*
X124385216Y-57649509D01*
X124171363Y-57535202D01*
X123939318Y-57464812D01*
X123698000Y-57441044D01*
X123456683Y-57464812D01*
X123224638Y-57535202D01*
X123010785Y-57649509D01*
X122823341Y-57803340D01*
X122669510Y-57990784D01*
X122555202Y-58204637D01*
X122484812Y-58436682D01*
X122467000Y-58617528D01*
X122389000Y-58617528D01*
X122371188Y-58436683D01*
X122300798Y-58204638D01*
X122186491Y-57990784D01*
X122032660Y-57803340D01*
X121845216Y-57649509D01*
X121631363Y-57535202D01*
X121399318Y-57464812D01*
X121158000Y-57441044D01*
X120916683Y-57464812D01*
X120684638Y-57535202D01*
X120470785Y-57649509D01*
X120283341Y-57803340D01*
X120129510Y-57990784D01*
X120015202Y-58204637D01*
X119944812Y-58436682D01*
X119927000Y-58617528D01*
X119849000Y-58617528D01*
X119831188Y-58436683D01*
X119760798Y-58204638D01*
X119646491Y-57990784D01*
X119492660Y-57803340D01*
X119305216Y-57649509D01*
X119091363Y-57535202D01*
X118859318Y-57464812D01*
X118618000Y-57441044D01*
X118376683Y-57464812D01*
X118144638Y-57535202D01*
X117930785Y-57649509D01*
X117743341Y-57803340D01*
X117589510Y-57990784D01*
X117475202Y-58204637D01*
X117404812Y-58436682D01*
X117387000Y-58617528D01*
X115270108Y-58617528D01*
X115205539Y-58461645D01*
X114988743Y-58137186D01*
X114712814Y-57861257D01*
X114388355Y-57644461D01*
X114027836Y-57495129D01*
X113645111Y-57419000D01*
X113254889Y-57419000D01*
X112872164Y-57495129D01*
X112511645Y-57644461D01*
X112187186Y-57861257D01*
X111911257Y-58137186D01*
X111694461Y-58461645D01*
X111545129Y-58822164D01*
X111469000Y-59204889D01*
X110406000Y-59204889D01*
X110406000Y-56406000D01*
X190594000Y-56406000D01*
X190594001Y-97994000D01*
G37*
G04 #@! TD.AperFunction*
D25*
X148019400Y-65500250D02*
X148178150Y-65659000D01*
X149377400Y-65659000D01*
X149377400Y-65639000D01*
X149631400Y-65639000D01*
X149631400Y-65659000D01*
X149651400Y-65659000D01*
X149651400Y-65913000D01*
X149631400Y-65913000D01*
X149631400Y-67112250D01*
X149790150Y-67271000D01*
X150354400Y-67274072D01*
X150478882Y-67261812D01*
X150598580Y-67225502D01*
X150708894Y-67166537D01*
X150805585Y-67087185D01*
X150884937Y-66990494D01*
X150943902Y-66880180D01*
X150980212Y-66760482D01*
X150992472Y-66636000D01*
X150991327Y-66425706D01*
X151088220Y-66570717D01*
X151259683Y-66742180D01*
X151461303Y-66876898D01*
X151685331Y-66969693D01*
X151923157Y-67017000D01*
X152165643Y-67017000D01*
X152403469Y-66969693D01*
X152627497Y-66876898D01*
X152829117Y-66742180D01*
X153000580Y-66570717D01*
X153135298Y-66369097D01*
X153228093Y-66145069D01*
X153275400Y-65907243D01*
X153275400Y-65664757D01*
X153228093Y-65426931D01*
X153135298Y-65202903D01*
X153077899Y-65116999D01*
X153550901Y-65116999D01*
X153493502Y-65202903D01*
X153400707Y-65426931D01*
X153353400Y-65664757D01*
X153353400Y-65907243D01*
X153400707Y-66145069D01*
X153493502Y-66369097D01*
X153628220Y-66570717D01*
X153799683Y-66742180D01*
X154001303Y-66876898D01*
X154225331Y-66969693D01*
X154463157Y-67017000D01*
X154705643Y-67017000D01*
X154943469Y-66969693D01*
X155167497Y-66876898D01*
X155369117Y-66742180D01*
X155540580Y-66570717D01*
X155675298Y-66369097D01*
X155768093Y-66145069D01*
X155815400Y-65907243D01*
X155815400Y-65664757D01*
X155768093Y-65426931D01*
X155675298Y-65202903D01*
X155617899Y-65116999D01*
X156090901Y-65116999D01*
X156033502Y-65202903D01*
X155940707Y-65426931D01*
X155893400Y-65664757D01*
X155893400Y-65907243D01*
X155940707Y-66145069D01*
X156033502Y-66369097D01*
X156168220Y-66570717D01*
X156339683Y-66742180D01*
X156541303Y-66876898D01*
X156765331Y-66969693D01*
X157003157Y-67017000D01*
X157245643Y-67017000D01*
X157483469Y-66969693D01*
X157560567Y-66937758D01*
X158029218Y-67406410D01*
X127812002Y-67406410D01*
X126511000Y-66105409D01*
X126511000Y-65963078D01*
X126482739Y-65820999D01*
X136028748Y-65820999D01*
X135959887Y-65924058D01*
X135901013Y-66066191D01*
X135871000Y-66217078D01*
X135871000Y-66370922D01*
X135901013Y-66521809D01*
X135959887Y-66663942D01*
X136045358Y-66791859D01*
X136154141Y-66900642D01*
X136282058Y-66986113D01*
X136424191Y-67044987D01*
X136575078Y-67075000D01*
X136728922Y-67075000D01*
X136879809Y-67044987D01*
X137021942Y-66986113D01*
X137149859Y-66900642D01*
X137258642Y-66791859D01*
X137344113Y-66663942D01*
X137355687Y-66636000D01*
X148016328Y-66636000D01*
X148028588Y-66760482D01*
X148064898Y-66880180D01*
X148123863Y-66990494D01*
X148203215Y-67087185D01*
X148299906Y-67166537D01*
X148410220Y-67225502D01*
X148529918Y-67261812D01*
X148654400Y-67274072D01*
X149218650Y-67271000D01*
X149377400Y-67112250D01*
X149377400Y-65913000D01*
X148178150Y-65913000D01*
X148019400Y-66071750D01*
X148016328Y-66636000D01*
X137355687Y-66636000D01*
X137402987Y-66521809D01*
X137433000Y-66370922D01*
X137433000Y-66228591D01*
X138544593Y-65116999D01*
X148017313Y-65116999D01*
X148019400Y-65500250D01*
G04 #@! TA.AperFunction,Conductor*
D26*
G36*
X148019400Y-65500250D02*
G01*
X148178150Y-65659000D01*
X149377400Y-65659000D01*
X149377400Y-65639000D01*
X149631400Y-65639000D01*
X149631400Y-65659000D01*
X149651400Y-65659000D01*
X149651400Y-65913000D01*
X149631400Y-65913000D01*
X149631400Y-67112250D01*
X149790150Y-67271000D01*
X150354400Y-67274072D01*
X150478882Y-67261812D01*
X150598580Y-67225502D01*
X150708894Y-67166537D01*
X150805585Y-67087185D01*
X150884937Y-66990494D01*
X150943902Y-66880180D01*
X150980212Y-66760482D01*
X150992472Y-66636000D01*
X150991327Y-66425706D01*
X151088220Y-66570717D01*
X151259683Y-66742180D01*
X151461303Y-66876898D01*
X151685331Y-66969693D01*
X151923157Y-67017000D01*
X152165643Y-67017000D01*
X152403469Y-66969693D01*
X152627497Y-66876898D01*
X152829117Y-66742180D01*
X153000580Y-66570717D01*
X153135298Y-66369097D01*
X153228093Y-66145069D01*
X153275400Y-65907243D01*
X153275400Y-65664757D01*
X153228093Y-65426931D01*
X153135298Y-65202903D01*
X153077899Y-65116999D01*
X153550901Y-65116999D01*
X153493502Y-65202903D01*
X153400707Y-65426931D01*
X153353400Y-65664757D01*
X153353400Y-65907243D01*
X153400707Y-66145069D01*
X153493502Y-66369097D01*
X153628220Y-66570717D01*
X153799683Y-66742180D01*
X154001303Y-66876898D01*
X154225331Y-66969693D01*
X154463157Y-67017000D01*
X154705643Y-67017000D01*
X154943469Y-66969693D01*
X155167497Y-66876898D01*
X155369117Y-66742180D01*
X155540580Y-66570717D01*
X155675298Y-66369097D01*
X155768093Y-66145069D01*
X155815400Y-65907243D01*
X155815400Y-65664757D01*
X155768093Y-65426931D01*
X155675298Y-65202903D01*
X155617899Y-65116999D01*
X156090901Y-65116999D01*
X156033502Y-65202903D01*
X155940707Y-65426931D01*
X155893400Y-65664757D01*
X155893400Y-65907243D01*
X155940707Y-66145069D01*
X156033502Y-66369097D01*
X156168220Y-66570717D01*
X156339683Y-66742180D01*
X156541303Y-66876898D01*
X156765331Y-66969693D01*
X157003157Y-67017000D01*
X157245643Y-67017000D01*
X157483469Y-66969693D01*
X157560567Y-66937758D01*
X158029218Y-67406410D01*
X127812002Y-67406410D01*
X126511000Y-66105409D01*
X126511000Y-65963078D01*
X126482739Y-65820999D01*
X136028748Y-65820999D01*
X135959887Y-65924058D01*
X135901013Y-66066191D01*
X135871000Y-66217078D01*
X135871000Y-66370922D01*
X135901013Y-66521809D01*
X135959887Y-66663942D01*
X136045358Y-66791859D01*
X136154141Y-66900642D01*
X136282058Y-66986113D01*
X136424191Y-67044987D01*
X136575078Y-67075000D01*
X136728922Y-67075000D01*
X136879809Y-67044987D01*
X137021942Y-66986113D01*
X137149859Y-66900642D01*
X137258642Y-66791859D01*
X137344113Y-66663942D01*
X137355687Y-66636000D01*
X148016328Y-66636000D01*
X148028588Y-66760482D01*
X148064898Y-66880180D01*
X148123863Y-66990494D01*
X148203215Y-67087185D01*
X148299906Y-67166537D01*
X148410220Y-67225502D01*
X148529918Y-67261812D01*
X148654400Y-67274072D01*
X149218650Y-67271000D01*
X149377400Y-67112250D01*
X149377400Y-65913000D01*
X148178150Y-65913000D01*
X148019400Y-66071750D01*
X148016328Y-66636000D01*
X137355687Y-66636000D01*
X137402987Y-66521809D01*
X137433000Y-66370922D01*
X137433000Y-66228591D01*
X138544593Y-65116999D01*
X148017313Y-65116999D01*
X148019400Y-65500250D01*
G37*
G04 #@! TD.AperFunction*
D25*
X175698200Y-66634992D02*
X175698200Y-66777322D01*
X175728213Y-66928209D01*
X175751416Y-66984224D01*
X175387977Y-66620786D01*
X175372128Y-66601474D01*
X175295080Y-66538242D01*
X175207176Y-66491256D01*
X175111794Y-66462323D01*
X175037455Y-66455001D01*
X175037447Y-66455001D01*
X175012601Y-66452554D01*
X174987755Y-66455001D01*
X163237899Y-66455001D01*
X163295298Y-66369097D01*
X163388093Y-66145069D01*
X163435400Y-65907243D01*
X163435400Y-65664757D01*
X163388093Y-65426931D01*
X163295298Y-65202903D01*
X163160580Y-65001283D01*
X162989117Y-64829820D01*
X162787497Y-64695102D01*
X162719626Y-64666989D01*
X173730198Y-64666989D01*
X175698200Y-66634992D01*
G04 #@! TA.AperFunction,Conductor*
D26*
G36*
X175698200Y-66634992D02*
G01*
X175698200Y-66777322D01*
X175728213Y-66928209D01*
X175751416Y-66984224D01*
X175387977Y-66620786D01*
X175372128Y-66601474D01*
X175295080Y-66538242D01*
X175207176Y-66491256D01*
X175111794Y-66462323D01*
X175037455Y-66455001D01*
X175037447Y-66455001D01*
X175012601Y-66452554D01*
X174987755Y-66455001D01*
X163237899Y-66455001D01*
X163295298Y-66369097D01*
X163388093Y-66145069D01*
X163435400Y-65907243D01*
X163435400Y-65664757D01*
X163388093Y-65426931D01*
X163295298Y-65202903D01*
X163160580Y-65001283D01*
X162989117Y-64829820D01*
X162787497Y-64695102D01*
X162719626Y-64666989D01*
X173730198Y-64666989D01*
X175698200Y-66634992D01*
G37*
G04 #@! TD.AperFunction*
M02*
