G04 #@! TF.GenerationSoftware,KiCad,Pcbnew,(5.1.7)-1*
G04 #@! TF.CreationDate,2020-11-03T16:32:40+01:00*
G04 #@! TF.ProjectId,Timer,54696d65-722e-46b6-9963-61645f706362,rev?*
G04 #@! TF.SameCoordinates,Original*
G04 #@! TF.FileFunction,Legend,Top*
G04 #@! TF.FilePolarity,Positive*
%FSLAX46Y46*%
G04 Gerber Fmt 4.6, Leading zero omitted, Abs format (unit mm)*
G04 Created by KiCad (PCBNEW (5.1.7)-1) date 2020-11-03 16:32:40*
%MOMM*%
%LPD*%
G01*
G04 APERTURE LIST*
%ADD10C,0.150000*%
%ADD11C,0.100000*%
%ADD12C,0.120000*%
G04 APERTURE END LIST*
D10*
X153170285Y-63276171D02*
X152836952Y-63276171D01*
X152836952Y-63799980D02*
X152836952Y-62799980D01*
X153313142Y-62799980D01*
X153694095Y-63799980D02*
X153694095Y-63133314D01*
X153694095Y-62799980D02*
X153646476Y-62847600D01*
X153694095Y-62895219D01*
X153741714Y-62847600D01*
X153694095Y-62799980D01*
X153694095Y-62895219D01*
X154170285Y-63799980D02*
X154170285Y-63133314D01*
X154170285Y-63323790D02*
X154217904Y-63228552D01*
X154265523Y-63180933D01*
X154360761Y-63133314D01*
X154456000Y-63133314D01*
X154789333Y-63799980D02*
X154789333Y-63133314D01*
X154789333Y-63228552D02*
X154836952Y-63180933D01*
X154932190Y-63133314D01*
X155075047Y-63133314D01*
X155170285Y-63180933D01*
X155217904Y-63276171D01*
X155217904Y-63799980D01*
X155217904Y-63276171D02*
X155265523Y-63180933D01*
X155360761Y-63133314D01*
X155503619Y-63133314D01*
X155598857Y-63180933D01*
X155646476Y-63276171D01*
X155646476Y-63799980D01*
X156027428Y-63133314D02*
X156217904Y-63799980D01*
X156408380Y-63323790D01*
X156598857Y-63799980D01*
X156789333Y-63133314D01*
X157598857Y-63799980D02*
X157598857Y-63276171D01*
X157551238Y-63180933D01*
X157456000Y-63133314D01*
X157265523Y-63133314D01*
X157170285Y-63180933D01*
X157598857Y-63752361D02*
X157503619Y-63799980D01*
X157265523Y-63799980D01*
X157170285Y-63752361D01*
X157122666Y-63657123D01*
X157122666Y-63561885D01*
X157170285Y-63466647D01*
X157265523Y-63419028D01*
X157503619Y-63419028D01*
X157598857Y-63371409D01*
X158075047Y-63799980D02*
X158075047Y-63133314D01*
X158075047Y-63323790D02*
X158122666Y-63228552D01*
X158170285Y-63180933D01*
X158265523Y-63133314D01*
X158360761Y-63133314D01*
X159075047Y-63752361D02*
X158979809Y-63799980D01*
X158789333Y-63799980D01*
X158694095Y-63752361D01*
X158646476Y-63657123D01*
X158646476Y-63276171D01*
X158694095Y-63180933D01*
X158789333Y-63133314D01*
X158979809Y-63133314D01*
X159075047Y-63180933D01*
X159122666Y-63276171D01*
X159122666Y-63371409D01*
X158646476Y-63466647D01*
D11*
X179426000Y-72434000D02*
X179526000Y-72434000D01*
X179526000Y-72434000D02*
X179876000Y-72084000D01*
X179876000Y-72084000D02*
X179876000Y-71984000D01*
X179876000Y-71984000D02*
X181176000Y-71984000D01*
X172676000Y-72434000D02*
X173126000Y-72434000D01*
X172676000Y-72434000D02*
X172676000Y-71984000D01*
X172676000Y-65234000D02*
X172676000Y-65684000D01*
X172676000Y-65234000D02*
X173126000Y-65234000D01*
X179876000Y-65234000D02*
X179426000Y-65234000D01*
X179876000Y-65234000D02*
X179876000Y-65684000D01*
D12*
X156818600Y-92160000D02*
X160678600Y-92160000D01*
X160678600Y-92160000D02*
X160678600Y-91905000D01*
X156818600Y-92160000D02*
X152958600Y-92160000D01*
X152958600Y-92160000D02*
X152958600Y-91905000D01*
X156818600Y-81640000D02*
X160678600Y-81640000D01*
X160678600Y-81640000D02*
X160678600Y-81895000D01*
X156818600Y-81640000D02*
X152958600Y-81640000D01*
X152958600Y-81640000D02*
X152958600Y-81895000D01*
X152958600Y-81895000D02*
X151143600Y-81895000D01*
X181763600Y-94859852D02*
X181763600Y-94337348D01*
X183183600Y-94859852D02*
X183183600Y-94337348D01*
X165703600Y-85988148D02*
X165703600Y-86510652D01*
X164283600Y-85988148D02*
X164283600Y-86510652D01*
X125261252Y-95740000D02*
X124738748Y-95740000D01*
X125261252Y-97160000D02*
X124738748Y-97160000D01*
X120161252Y-95690000D02*
X119638748Y-95690000D01*
X120161252Y-97110000D02*
X119638748Y-97110000D01*
X123140000Y-94610000D02*
X126000000Y-94610000D01*
X123140000Y-92690000D02*
X123140000Y-94610000D01*
X126000000Y-92690000D02*
X123140000Y-92690000D01*
X118040000Y-94710000D02*
X120900000Y-94710000D01*
X118040000Y-92790000D02*
X118040000Y-94710000D01*
X120900000Y-92790000D02*
X118040000Y-92790000D01*
X131968000Y-86902000D02*
X131968000Y-88402000D01*
X133218000Y-90902000D02*
X137718000Y-90902000D01*
X138968000Y-88402000D02*
X138968000Y-86902000D01*
X137718000Y-84402000D02*
X133218000Y-84402000D01*
X121857000Y-86902000D02*
X121857000Y-88402000D01*
X123107000Y-90902000D02*
X127607000Y-90902000D01*
X128857000Y-88402000D02*
X128857000Y-86902000D01*
X127607000Y-84402000D02*
X123107000Y-84402000D01*
X111746000Y-86902000D02*
X111746000Y-88402000D01*
X112996000Y-90902000D02*
X117496000Y-90902000D01*
X118746000Y-88402000D02*
X118746000Y-86902000D01*
X117496000Y-84402000D02*
X112996000Y-84402000D01*
X131968000Y-79080000D02*
X131968000Y-80580000D01*
X133218000Y-83080000D02*
X137718000Y-83080000D01*
X138968000Y-80580000D02*
X138968000Y-79080000D01*
X137718000Y-76580000D02*
X133218000Y-76580000D01*
X121857000Y-79080000D02*
X121857000Y-80580000D01*
X123107000Y-83080000D02*
X127607000Y-83080000D01*
X128857000Y-80580000D02*
X128857000Y-79080000D01*
X127607000Y-76580000D02*
X123107000Y-76580000D01*
X111746000Y-79080000D02*
X111746000Y-80580000D01*
X112996000Y-83080000D02*
X117496000Y-83080000D01*
X118746000Y-80580000D02*
X118746000Y-79080000D01*
X117496000Y-76580000D02*
X112996000Y-76580000D01*
X185156000Y-63150000D02*
X185156000Y-75750000D01*
X190256000Y-63150000D02*
X185156000Y-63150000D01*
X190256000Y-75750000D02*
X190256000Y-63150000D01*
D11*
X115302000Y-72684000D02*
X115302000Y-74384000D01*
X114902000Y-64984000D02*
X114902000Y-65484000D01*
X114902000Y-64984000D02*
X115302000Y-64984000D01*
X133002000Y-64984000D02*
X133002000Y-65484000D01*
X133002000Y-64984000D02*
X132602000Y-64984000D01*
X133002000Y-72684000D02*
X133002000Y-72184000D01*
X133002000Y-72684000D02*
X132602000Y-72684000D01*
X114902000Y-72284000D02*
X114902000Y-72034000D01*
X115302000Y-72684000D02*
X114902000Y-72284000D01*
D12*
X142343600Y-92650000D02*
X169343600Y-92650000D01*
X142043600Y-97150000D02*
X169643600Y-97150000D01*
X169643600Y-69350000D02*
X169643600Y-97150000D01*
X142043600Y-69350000D02*
X169643600Y-69350000D01*
X142043600Y-69350000D02*
X142043600Y-97150000D01*
X142293600Y-73850000D02*
X142293600Y-92650000D01*
X169343600Y-73850000D02*
X169343600Y-92650000D01*
X142343600Y-73850000D02*
X169343600Y-73850000D01*
X183900000Y-84200000D02*
G75*
G03*
X183900000Y-84200000I-3000000J0D01*
G01*
X182900000Y-78300000D02*
X187000000Y-78300000D01*
X187000000Y-90100000D02*
X182900000Y-90100000D01*
X178900000Y-90100000D02*
X174800000Y-90100000D01*
X178900000Y-78300000D02*
X174800000Y-78300000D01*
X174800000Y-78300000D02*
X174800000Y-90100000D01*
X173400000Y-80400000D02*
X173100000Y-80100000D01*
X173100000Y-80100000D02*
X173700000Y-80100000D01*
X173700000Y-80100000D02*
X173400000Y-80400000D01*
X187000000Y-78300000D02*
X187000000Y-80700000D01*
X187000000Y-82900000D02*
X187000000Y-85500000D01*
X187000000Y-87700000D02*
X187000000Y-90100000D01*
X180900000Y-83700000D02*
X180900000Y-84700000D01*
X180400000Y-84200000D02*
X181400000Y-84200000D01*
X138835200Y-66504452D02*
X138835200Y-65981948D01*
X137415200Y-66504452D02*
X137415200Y-65981948D01*
X137415200Y-71011148D02*
X137415200Y-71533652D01*
X138835200Y-71011148D02*
X138835200Y-71533652D01*
X134621200Y-71011148D02*
X134621200Y-71533652D01*
X136041200Y-71011148D02*
X136041200Y-71533652D01*
X149249200Y-78950452D02*
X149249200Y-78427948D01*
X147829200Y-78950452D02*
X147829200Y-78427948D01*
X148174400Y-67116000D02*
X148174400Y-65786000D01*
X149504400Y-67116000D02*
X148174400Y-67116000D01*
X150774400Y-67116000D02*
X150774400Y-64456000D01*
X150774400Y-64456000D02*
X163534400Y-64456000D01*
X150774400Y-67116000D02*
X163534400Y-67116000D01*
X163534400Y-67116000D02*
X163534400Y-64456000D01*
X182932000Y-74516348D02*
X182932000Y-75038852D01*
X184352000Y-74516348D02*
X184352000Y-75038852D01*
X182932000Y-64762748D02*
X182932000Y-65285252D01*
X184352000Y-64762748D02*
X184352000Y-65285252D01*
X184352000Y-70111252D02*
X184352000Y-69588748D01*
X182932000Y-70111252D02*
X182932000Y-69588748D01*
X136041200Y-66504452D02*
X136041200Y-65981948D01*
X134621200Y-66504452D02*
X134621200Y-65981948D01*
X112724000Y-68841252D02*
X112724000Y-68318748D01*
X111304000Y-68841252D02*
X111304000Y-68318748D01*
X147829200Y-85988148D02*
X147829200Y-86510652D01*
X149249200Y-85988148D02*
X149249200Y-86510652D01*
X145549252Y-65025200D02*
X145026748Y-65025200D01*
X145549252Y-66445200D02*
X145026748Y-66445200D01*
D11*
X175666476Y-74645904D02*
X175666476Y-75293523D01*
X175704571Y-75369714D01*
X175742666Y-75407809D01*
X175818857Y-75445904D01*
X175971238Y-75445904D01*
X176047428Y-75407809D01*
X176085523Y-75369714D01*
X176123619Y-75293523D01*
X176123619Y-74645904D01*
X176847428Y-74912571D02*
X176847428Y-75445904D01*
X176656952Y-74607809D02*
X176466476Y-75179238D01*
X176961714Y-75179238D01*
X156184076Y-80561904D02*
X156184076Y-81209523D01*
X156222171Y-81285714D01*
X156260266Y-81323809D01*
X156336457Y-81361904D01*
X156488838Y-81361904D01*
X156565028Y-81323809D01*
X156603123Y-81285714D01*
X156641219Y-81209523D01*
X156641219Y-80561904D01*
X157441219Y-81361904D02*
X156984076Y-81361904D01*
X157212647Y-81361904D02*
X157212647Y-80561904D01*
X157136457Y-80676190D01*
X157060266Y-80752380D01*
X156984076Y-80790476D01*
X182289466Y-92335314D02*
X182251371Y-92373409D01*
X182137085Y-92411504D01*
X182060895Y-92411504D01*
X181946609Y-92373409D01*
X181870419Y-92297219D01*
X181832323Y-92221028D01*
X181794228Y-92068647D01*
X181794228Y-91954361D01*
X181832323Y-91801980D01*
X181870419Y-91725790D01*
X181946609Y-91649600D01*
X182060895Y-91611504D01*
X182137085Y-91611504D01*
X182251371Y-91649600D01*
X182289466Y-91687695D01*
X182670419Y-92411504D02*
X182822800Y-92411504D01*
X182898990Y-92373409D01*
X182937085Y-92335314D01*
X183013276Y-92221028D01*
X183051371Y-92068647D01*
X183051371Y-91763885D01*
X183013276Y-91687695D01*
X182975180Y-91649600D01*
X182898990Y-91611504D01*
X182746609Y-91611504D01*
X182670419Y-91649600D01*
X182632323Y-91687695D01*
X182594228Y-91763885D01*
X182594228Y-91954361D01*
X182632323Y-92030552D01*
X182670419Y-92068647D01*
X182746609Y-92106742D01*
X182898990Y-92106742D01*
X182975180Y-92068647D01*
X183013276Y-92030552D01*
X183051371Y-91954361D01*
X164760266Y-84035114D02*
X164722171Y-84073209D01*
X164607885Y-84111304D01*
X164531695Y-84111304D01*
X164417409Y-84073209D01*
X164341219Y-83997019D01*
X164303123Y-83920828D01*
X164265028Y-83768447D01*
X164265028Y-83654161D01*
X164303123Y-83501780D01*
X164341219Y-83425590D01*
X164417409Y-83349400D01*
X164531695Y-83311304D01*
X164607885Y-83311304D01*
X164722171Y-83349400D01*
X164760266Y-83387495D01*
X165026933Y-83311304D02*
X165522171Y-83311304D01*
X165255504Y-83616066D01*
X165369790Y-83616066D01*
X165445980Y-83654161D01*
X165484076Y-83692257D01*
X165522171Y-83768447D01*
X165522171Y-83958923D01*
X165484076Y-84035114D01*
X165445980Y-84073209D01*
X165369790Y-84111304D01*
X165141219Y-84111304D01*
X165065028Y-84073209D01*
X165026933Y-84035114D01*
X124916666Y-98240104D02*
X124650000Y-97859152D01*
X124459523Y-98240104D02*
X124459523Y-97440104D01*
X124764285Y-97440104D01*
X124840476Y-97478200D01*
X124878571Y-97516295D01*
X124916666Y-97592485D01*
X124916666Y-97706771D01*
X124878571Y-97782961D01*
X124840476Y-97821057D01*
X124764285Y-97859152D01*
X124459523Y-97859152D01*
X125640476Y-97440104D02*
X125259523Y-97440104D01*
X125221428Y-97821057D01*
X125259523Y-97782961D01*
X125335714Y-97744866D01*
X125526190Y-97744866D01*
X125602380Y-97782961D01*
X125640476Y-97821057D01*
X125678571Y-97897247D01*
X125678571Y-98087723D01*
X125640476Y-98163914D01*
X125602380Y-98202009D01*
X125526190Y-98240104D01*
X125335714Y-98240104D01*
X125259523Y-98202009D01*
X125221428Y-98163914D01*
X119754666Y-98202704D02*
X119488000Y-97821752D01*
X119297523Y-98202704D02*
X119297523Y-97402704D01*
X119602285Y-97402704D01*
X119678476Y-97440800D01*
X119716571Y-97478895D01*
X119754666Y-97555085D01*
X119754666Y-97669371D01*
X119716571Y-97745561D01*
X119678476Y-97783657D01*
X119602285Y-97821752D01*
X119297523Y-97821752D01*
X120440380Y-97669371D02*
X120440380Y-98202704D01*
X120249904Y-97364609D02*
X120059428Y-97936038D01*
X120554666Y-97936038D01*
X124459523Y-92513104D02*
X124459523Y-91713104D01*
X124650000Y-91713104D01*
X124764285Y-91751200D01*
X124840476Y-91827390D01*
X124878571Y-91903580D01*
X124916666Y-92055961D01*
X124916666Y-92170247D01*
X124878571Y-92322628D01*
X124840476Y-92398819D01*
X124764285Y-92475009D01*
X124650000Y-92513104D01*
X124459523Y-92513104D01*
X125221428Y-91789295D02*
X125259523Y-91751200D01*
X125335714Y-91713104D01*
X125526190Y-91713104D01*
X125602380Y-91751200D01*
X125640476Y-91789295D01*
X125678571Y-91865485D01*
X125678571Y-91941676D01*
X125640476Y-92055961D01*
X125183333Y-92513104D01*
X125678571Y-92513104D01*
X119348323Y-92614704D02*
X119348323Y-91814704D01*
X119538800Y-91814704D01*
X119653085Y-91852800D01*
X119729276Y-91928990D01*
X119767371Y-92005180D01*
X119805466Y-92157561D01*
X119805466Y-92271847D01*
X119767371Y-92424228D01*
X119729276Y-92500419D01*
X119653085Y-92576609D01*
X119538800Y-92614704D01*
X119348323Y-92614704D01*
X120567371Y-92614704D02*
X120110228Y-92614704D01*
X120338800Y-92614704D02*
X120338800Y-91814704D01*
X120262609Y-91928990D01*
X120186419Y-92005180D01*
X120110228Y-92043276D01*
X134858476Y-91873809D02*
X134972761Y-91911904D01*
X135163238Y-91911904D01*
X135239428Y-91873809D01*
X135277523Y-91835714D01*
X135315619Y-91759523D01*
X135315619Y-91683333D01*
X135277523Y-91607142D01*
X135239428Y-91569047D01*
X135163238Y-91530952D01*
X135010857Y-91492857D01*
X134934666Y-91454761D01*
X134896571Y-91416666D01*
X134858476Y-91340476D01*
X134858476Y-91264285D01*
X134896571Y-91188095D01*
X134934666Y-91150000D01*
X135010857Y-91111904D01*
X135201333Y-91111904D01*
X135315619Y-91150000D01*
X136039428Y-91111904D02*
X135658476Y-91111904D01*
X135620380Y-91492857D01*
X135658476Y-91454761D01*
X135734666Y-91416666D01*
X135925142Y-91416666D01*
X136001333Y-91454761D01*
X136039428Y-91492857D01*
X136077523Y-91569047D01*
X136077523Y-91759523D01*
X136039428Y-91835714D01*
X136001333Y-91873809D01*
X135925142Y-91911904D01*
X135734666Y-91911904D01*
X135658476Y-91873809D01*
X135620380Y-91835714D01*
X126365476Y-91798809D02*
X126479761Y-91836904D01*
X126670238Y-91836904D01*
X126746428Y-91798809D01*
X126784523Y-91760714D01*
X126822619Y-91684523D01*
X126822619Y-91608333D01*
X126784523Y-91532142D01*
X126746428Y-91494047D01*
X126670238Y-91455952D01*
X126517857Y-91417857D01*
X126441666Y-91379761D01*
X126403571Y-91341666D01*
X126365476Y-91265476D01*
X126365476Y-91189285D01*
X126403571Y-91113095D01*
X126441666Y-91075000D01*
X126517857Y-91036904D01*
X126708333Y-91036904D01*
X126822619Y-91075000D01*
X127089285Y-91036904D02*
X127584523Y-91036904D01*
X127317857Y-91341666D01*
X127432142Y-91341666D01*
X127508333Y-91379761D01*
X127546428Y-91417857D01*
X127584523Y-91494047D01*
X127584523Y-91684523D01*
X127546428Y-91760714D01*
X127508333Y-91798809D01*
X127432142Y-91836904D01*
X127203571Y-91836904D01*
X127127380Y-91798809D01*
X127089285Y-91760714D01*
X114636476Y-91923809D02*
X114750761Y-91961904D01*
X114941238Y-91961904D01*
X115017428Y-91923809D01*
X115055523Y-91885714D01*
X115093619Y-91809523D01*
X115093619Y-91733333D01*
X115055523Y-91657142D01*
X115017428Y-91619047D01*
X114941238Y-91580952D01*
X114788857Y-91542857D01*
X114712666Y-91504761D01*
X114674571Y-91466666D01*
X114636476Y-91390476D01*
X114636476Y-91314285D01*
X114674571Y-91238095D01*
X114712666Y-91200000D01*
X114788857Y-91161904D01*
X114979333Y-91161904D01*
X115093619Y-91200000D01*
X115855523Y-91961904D02*
X115398380Y-91961904D01*
X115626952Y-91961904D02*
X115626952Y-91161904D01*
X115550761Y-91276190D01*
X115474571Y-91352380D01*
X115398380Y-91390476D01*
X134858476Y-76323809D02*
X134972761Y-76361904D01*
X135163238Y-76361904D01*
X135239428Y-76323809D01*
X135277523Y-76285714D01*
X135315619Y-76209523D01*
X135315619Y-76133333D01*
X135277523Y-76057142D01*
X135239428Y-76019047D01*
X135163238Y-75980952D01*
X135010857Y-75942857D01*
X134934666Y-75904761D01*
X134896571Y-75866666D01*
X134858476Y-75790476D01*
X134858476Y-75714285D01*
X134896571Y-75638095D01*
X134934666Y-75600000D01*
X135010857Y-75561904D01*
X135201333Y-75561904D01*
X135315619Y-75600000D01*
X136001333Y-75828571D02*
X136001333Y-76361904D01*
X135810857Y-75523809D02*
X135620380Y-76095238D01*
X136115619Y-76095238D01*
X124690476Y-76323809D02*
X124804761Y-76361904D01*
X124995238Y-76361904D01*
X125071428Y-76323809D01*
X125109523Y-76285714D01*
X125147619Y-76209523D01*
X125147619Y-76133333D01*
X125109523Y-76057142D01*
X125071428Y-76019047D01*
X124995238Y-75980952D01*
X124842857Y-75942857D01*
X124766666Y-75904761D01*
X124728571Y-75866666D01*
X124690476Y-75790476D01*
X124690476Y-75714285D01*
X124728571Y-75638095D01*
X124766666Y-75600000D01*
X124842857Y-75561904D01*
X125033333Y-75561904D01*
X125147619Y-75600000D01*
X125452380Y-75638095D02*
X125490476Y-75600000D01*
X125566666Y-75561904D01*
X125757142Y-75561904D01*
X125833333Y-75600000D01*
X125871428Y-75638095D01*
X125909523Y-75714285D01*
X125909523Y-75790476D01*
X125871428Y-75904761D01*
X125414285Y-76361904D01*
X125909523Y-76361904D01*
X114490476Y-76323809D02*
X114604761Y-76361904D01*
X114795238Y-76361904D01*
X114871428Y-76323809D01*
X114909523Y-76285714D01*
X114947619Y-76209523D01*
X114947619Y-76133333D01*
X114909523Y-76057142D01*
X114871428Y-76019047D01*
X114795238Y-75980952D01*
X114642857Y-75942857D01*
X114566666Y-75904761D01*
X114528571Y-75866666D01*
X114490476Y-75790476D01*
X114490476Y-75714285D01*
X114528571Y-75638095D01*
X114566666Y-75600000D01*
X114642857Y-75561904D01*
X114833333Y-75561904D01*
X114947619Y-75600000D01*
X115442857Y-75561904D02*
X115519047Y-75561904D01*
X115595238Y-75600000D01*
X115633333Y-75638095D01*
X115671428Y-75714285D01*
X115709523Y-75866666D01*
X115709523Y-76057142D01*
X115671428Y-76209523D01*
X115633333Y-76285714D01*
X115595238Y-76323809D01*
X115519047Y-76361904D01*
X115442857Y-76361904D01*
X115366666Y-76323809D01*
X115328571Y-76285714D01*
X115290476Y-76209523D01*
X115252380Y-76057142D01*
X115252380Y-75866666D01*
X115290476Y-75714285D01*
X115328571Y-75638095D01*
X115366666Y-75600000D01*
X115442857Y-75561904D01*
X187413047Y-62658952D02*
X187413047Y-63039904D01*
X187146380Y-62239904D02*
X187413047Y-62658952D01*
X187679714Y-62239904D01*
X188365428Y-63039904D02*
X187908285Y-63039904D01*
X188136857Y-63039904D02*
X188136857Y-62239904D01*
X188060666Y-62354190D01*
X187984476Y-62430380D01*
X187908285Y-62468476D01*
X123272476Y-61936904D02*
X123272476Y-62584523D01*
X123310571Y-62660714D01*
X123348666Y-62698809D01*
X123424857Y-62736904D01*
X123577238Y-62736904D01*
X123653428Y-62698809D01*
X123691523Y-62660714D01*
X123729619Y-62584523D01*
X123729619Y-61936904D01*
X124034380Y-61936904D02*
X124529619Y-61936904D01*
X124262952Y-62241666D01*
X124377238Y-62241666D01*
X124453428Y-62279761D01*
X124491523Y-62317857D01*
X124529619Y-62394047D01*
X124529619Y-62584523D01*
X124491523Y-62660714D01*
X124453428Y-62698809D01*
X124377238Y-62736904D01*
X124148666Y-62736904D01*
X124072476Y-62698809D01*
X124034380Y-62660714D01*
X172233333Y-90373809D02*
X172347619Y-90411904D01*
X172538095Y-90411904D01*
X172614285Y-90373809D01*
X172652380Y-90335714D01*
X172690476Y-90259523D01*
X172690476Y-90183333D01*
X172652380Y-90107142D01*
X172614285Y-90069047D01*
X172538095Y-90030952D01*
X172385714Y-89992857D01*
X172309523Y-89954761D01*
X172271428Y-89916666D01*
X172233333Y-89840476D01*
X172233333Y-89764285D01*
X172271428Y-89688095D01*
X172309523Y-89650000D01*
X172385714Y-89611904D01*
X172576190Y-89611904D01*
X172690476Y-89650000D01*
X172957142Y-89611904D02*
X173147619Y-90411904D01*
X173300000Y-89840476D01*
X173452380Y-90411904D01*
X173642857Y-89611904D01*
X174366666Y-90411904D02*
X173909523Y-90411904D01*
X174138095Y-90411904D02*
X174138095Y-89611904D01*
X174061904Y-89726190D01*
X173985714Y-89802380D01*
X173909523Y-89840476D01*
X138042666Y-64319104D02*
X137776000Y-63938152D01*
X137585523Y-64319104D02*
X137585523Y-63519104D01*
X137890285Y-63519104D01*
X137966476Y-63557200D01*
X138004571Y-63595295D01*
X138042666Y-63671485D01*
X138042666Y-63785771D01*
X138004571Y-63861961D01*
X137966476Y-63900057D01*
X137890285Y-63938152D01*
X137585523Y-63938152D01*
X138728380Y-63519104D02*
X138576000Y-63519104D01*
X138499809Y-63557200D01*
X138461714Y-63595295D01*
X138385523Y-63709580D01*
X138347428Y-63861961D01*
X138347428Y-64166723D01*
X138385523Y-64242914D01*
X138423619Y-64281009D01*
X138499809Y-64319104D01*
X138652190Y-64319104D01*
X138728380Y-64281009D01*
X138766476Y-64242914D01*
X138804571Y-64166723D01*
X138804571Y-63976247D01*
X138766476Y-63900057D01*
X138728380Y-63861961D01*
X138652190Y-63823866D01*
X138499809Y-63823866D01*
X138423619Y-63861961D01*
X138385523Y-63900057D01*
X138347428Y-63976247D01*
X137991866Y-74009304D02*
X137725200Y-73628352D01*
X137534723Y-74009304D02*
X137534723Y-73209304D01*
X137839485Y-73209304D01*
X137915676Y-73247400D01*
X137953771Y-73285495D01*
X137991866Y-73361685D01*
X137991866Y-73475971D01*
X137953771Y-73552161D01*
X137915676Y-73590257D01*
X137839485Y-73628352D01*
X137534723Y-73628352D01*
X138753771Y-74009304D02*
X138296628Y-74009304D01*
X138525200Y-74009304D02*
X138525200Y-73209304D01*
X138449009Y-73323590D01*
X138372819Y-73399780D01*
X138296628Y-73437876D01*
X135197866Y-74009304D02*
X134931200Y-73628352D01*
X134740723Y-74009304D02*
X134740723Y-73209304D01*
X135045485Y-73209304D01*
X135121676Y-73247400D01*
X135159771Y-73285495D01*
X135197866Y-73361685D01*
X135197866Y-73475971D01*
X135159771Y-73552161D01*
X135121676Y-73590257D01*
X135045485Y-73628352D01*
X134740723Y-73628352D01*
X135502628Y-73285495D02*
X135540723Y-73247400D01*
X135616914Y-73209304D01*
X135807390Y-73209304D01*
X135883580Y-73247400D01*
X135921676Y-73285495D01*
X135959771Y-73361685D01*
X135959771Y-73437876D01*
X135921676Y-73552161D01*
X135464533Y-74009304D01*
X135959771Y-74009304D01*
X148355866Y-76726104D02*
X148089200Y-76345152D01*
X147898723Y-76726104D02*
X147898723Y-75926104D01*
X148203485Y-75926104D01*
X148279676Y-75964200D01*
X148317771Y-76002295D01*
X148355866Y-76078485D01*
X148355866Y-76192771D01*
X148317771Y-76268961D01*
X148279676Y-76307057D01*
X148203485Y-76345152D01*
X147898723Y-76345152D01*
X148622533Y-75926104D02*
X149117771Y-75926104D01*
X148851104Y-76230866D01*
X148965390Y-76230866D01*
X149041580Y-76268961D01*
X149079676Y-76307057D01*
X149117771Y-76383247D01*
X149117771Y-76573723D01*
X149079676Y-76649914D01*
X149041580Y-76688009D01*
X148965390Y-76726104D01*
X148736819Y-76726104D01*
X148660628Y-76688009D01*
X148622533Y-76649914D01*
X183457866Y-72726514D02*
X183419771Y-72764609D01*
X183305485Y-72802704D01*
X183229295Y-72802704D01*
X183115009Y-72764609D01*
X183038819Y-72688419D01*
X183000723Y-72612228D01*
X182962628Y-72459847D01*
X182962628Y-72345561D01*
X183000723Y-72193180D01*
X183038819Y-72116990D01*
X183115009Y-72040800D01*
X183229295Y-72002704D01*
X183305485Y-72002704D01*
X183419771Y-72040800D01*
X183457866Y-72078895D01*
X183915009Y-72345561D02*
X183838819Y-72307466D01*
X183800723Y-72269371D01*
X183762628Y-72193180D01*
X183762628Y-72155085D01*
X183800723Y-72078895D01*
X183838819Y-72040800D01*
X183915009Y-72002704D01*
X184067390Y-72002704D01*
X184143580Y-72040800D01*
X184181676Y-72078895D01*
X184219771Y-72155085D01*
X184219771Y-72193180D01*
X184181676Y-72269371D01*
X184143580Y-72307466D01*
X184067390Y-72345561D01*
X183915009Y-72345561D01*
X183838819Y-72383657D01*
X183800723Y-72421752D01*
X183762628Y-72497942D01*
X183762628Y-72650323D01*
X183800723Y-72726514D01*
X183838819Y-72764609D01*
X183915009Y-72802704D01*
X184067390Y-72802704D01*
X184143580Y-72764609D01*
X184181676Y-72726514D01*
X184219771Y-72650323D01*
X184219771Y-72497942D01*
X184181676Y-72421752D01*
X184143580Y-72383657D01*
X184067390Y-72345561D01*
X183508666Y-62972914D02*
X183470571Y-63011009D01*
X183356285Y-63049104D01*
X183280095Y-63049104D01*
X183165809Y-63011009D01*
X183089619Y-62934819D01*
X183051523Y-62858628D01*
X183013428Y-62706247D01*
X183013428Y-62591961D01*
X183051523Y-62439580D01*
X183089619Y-62363390D01*
X183165809Y-62287200D01*
X183280095Y-62249104D01*
X183356285Y-62249104D01*
X183470571Y-62287200D01*
X183508666Y-62325295D01*
X183775333Y-62249104D02*
X184308666Y-62249104D01*
X183965809Y-63049104D01*
X183457866Y-67798914D02*
X183419771Y-67837009D01*
X183305485Y-67875104D01*
X183229295Y-67875104D01*
X183115009Y-67837009D01*
X183038819Y-67760819D01*
X183000723Y-67684628D01*
X182962628Y-67532247D01*
X182962628Y-67417961D01*
X183000723Y-67265580D01*
X183038819Y-67189390D01*
X183115009Y-67113200D01*
X183229295Y-67075104D01*
X183305485Y-67075104D01*
X183419771Y-67113200D01*
X183457866Y-67151295D01*
X184143580Y-67075104D02*
X183991200Y-67075104D01*
X183915009Y-67113200D01*
X183876914Y-67151295D01*
X183800723Y-67265580D01*
X183762628Y-67417961D01*
X183762628Y-67722723D01*
X183800723Y-67798914D01*
X183838819Y-67837009D01*
X183915009Y-67875104D01*
X184067390Y-67875104D01*
X184143580Y-67837009D01*
X184181676Y-67798914D01*
X184219771Y-67722723D01*
X184219771Y-67532247D01*
X184181676Y-67456057D01*
X184143580Y-67417961D01*
X184067390Y-67379866D01*
X183915009Y-67379866D01*
X183838819Y-67417961D01*
X183800723Y-67456057D01*
X183762628Y-67532247D01*
X135147066Y-64293714D02*
X135108971Y-64331809D01*
X134994685Y-64369904D01*
X134918495Y-64369904D01*
X134804209Y-64331809D01*
X134728019Y-64255619D01*
X134689923Y-64179428D01*
X134651828Y-64027047D01*
X134651828Y-63912761D01*
X134689923Y-63760380D01*
X134728019Y-63684190D01*
X134804209Y-63608000D01*
X134918495Y-63569904D01*
X134994685Y-63569904D01*
X135108971Y-63608000D01*
X135147066Y-63646095D01*
X135870876Y-63569904D02*
X135489923Y-63569904D01*
X135451828Y-63950857D01*
X135489923Y-63912761D01*
X135566114Y-63874666D01*
X135756590Y-63874666D01*
X135832780Y-63912761D01*
X135870876Y-63950857D01*
X135908971Y-64027047D01*
X135908971Y-64217523D01*
X135870876Y-64293714D01*
X135832780Y-64331809D01*
X135756590Y-64369904D01*
X135566114Y-64369904D01*
X135489923Y-64331809D01*
X135451828Y-64293714D01*
X111880666Y-66325714D02*
X111842571Y-66363809D01*
X111728285Y-66401904D01*
X111652095Y-66401904D01*
X111537809Y-66363809D01*
X111461619Y-66287619D01*
X111423523Y-66211428D01*
X111385428Y-66059047D01*
X111385428Y-65944761D01*
X111423523Y-65792380D01*
X111461619Y-65716190D01*
X111537809Y-65640000D01*
X111652095Y-65601904D01*
X111728285Y-65601904D01*
X111842571Y-65640000D01*
X111880666Y-65678095D01*
X112566380Y-65868571D02*
X112566380Y-66401904D01*
X112375904Y-65563809D02*
X112185428Y-66135238D01*
X112680666Y-66135238D01*
X148505866Y-84060114D02*
X148467771Y-84098209D01*
X148353485Y-84136304D01*
X148277295Y-84136304D01*
X148163009Y-84098209D01*
X148086819Y-84022019D01*
X148048723Y-83945828D01*
X148010628Y-83793447D01*
X148010628Y-83679161D01*
X148048723Y-83526780D01*
X148086819Y-83450590D01*
X148163009Y-83374400D01*
X148277295Y-83336304D01*
X148353485Y-83336304D01*
X148467771Y-83374400D01*
X148505866Y-83412495D01*
X149267771Y-84136304D02*
X148810628Y-84136304D01*
X149039200Y-84136304D02*
X149039200Y-83336304D01*
X148963009Y-83450590D01*
X148886819Y-83526780D01*
X148810628Y-83564876D01*
X145154666Y-67432914D02*
X145116571Y-67471009D01*
X145002285Y-67509104D01*
X144926095Y-67509104D01*
X144811809Y-67471009D01*
X144735619Y-67394819D01*
X144697523Y-67318628D01*
X144659428Y-67166247D01*
X144659428Y-67051961D01*
X144697523Y-66899580D01*
X144735619Y-66823390D01*
X144811809Y-66747200D01*
X144926095Y-66709104D01*
X145002285Y-66709104D01*
X145116571Y-66747200D01*
X145154666Y-66785295D01*
X145459428Y-66785295D02*
X145497523Y-66747200D01*
X145573714Y-66709104D01*
X145764190Y-66709104D01*
X145840380Y-66747200D01*
X145878476Y-66785295D01*
X145916571Y-66861485D01*
X145916571Y-66937676D01*
X145878476Y-67051961D01*
X145421333Y-67509104D01*
X145916571Y-67509104D01*
M02*
