G04 #@! TF.GenerationSoftware,KiCad,Pcbnew,(5.1.7)-1*
G04 #@! TF.CreationDate,2020-11-04T12:53:52+01:00*
G04 #@! TF.ProjectId,PSU,5053552e-6b69-4636-9164-5f7063625858,rev?*
G04 #@! TF.SameCoordinates,Original*
G04 #@! TF.FileFunction,Copper,L2,Bot*
G04 #@! TF.FilePolarity,Positive*
%FSLAX46Y46*%
G04 Gerber Fmt 4.6, Leading zero omitted, Abs format (unit mm)*
G04 Created by KiCad (PCBNEW (5.1.7)-1) date 2020-11-04 12:53:52*
%MOMM*%
%LPD*%
G01*
G04 APERTURE LIST*
G04 #@! TA.AperFunction,ComponentPad*
%ADD10O,1.000000X1.800000*%
G04 #@! TD*
G04 #@! TA.AperFunction,ComponentPad*
%ADD11O,1.600000X1.600000*%
G04 #@! TD*
G04 #@! TA.AperFunction,ComponentPad*
%ADD12C,1.600000*%
G04 #@! TD*
G04 #@! TA.AperFunction,ComponentPad*
%ADD13R,1.000000X1.500000*%
G04 #@! TD*
G04 #@! TA.AperFunction,ComponentPad*
%ADD14O,1.000000X1.500000*%
G04 #@! TD*
G04 #@! TA.AperFunction,ComponentPad*
%ADD15O,2.200000X1.700000*%
G04 #@! TD*
G04 #@! TA.AperFunction,ComponentPad*
%ADD16R,2.200000X1.700000*%
G04 #@! TD*
G04 #@! TA.AperFunction,ComponentPad*
%ADD17C,2.000000*%
G04 #@! TD*
G04 #@! TA.AperFunction,ComponentPad*
%ADD18R,2.000000X2.000000*%
G04 #@! TD*
G04 #@! TA.AperFunction,ComponentPad*
%ADD19R,1.600000X1.600000*%
G04 #@! TD*
G04 #@! TA.AperFunction,ComponentPad*
%ADD20C,1.440000*%
G04 #@! TD*
G04 #@! TA.AperFunction,ComponentPad*
%ADD21C,1.800000*%
G04 #@! TD*
G04 #@! TA.AperFunction,ComponentPad*
%ADD22C,2.300000*%
G04 #@! TD*
G04 #@! TA.AperFunction,ComponentPad*
%ADD23R,2.300000X2.300000*%
G04 #@! TD*
G04 #@! TA.AperFunction,ComponentPad*
%ADD24C,3.000000*%
G04 #@! TD*
G04 #@! TA.AperFunction,ComponentPad*
%ADD25R,3.000000X3.000000*%
G04 #@! TD*
G04 #@! TA.AperFunction,ComponentPad*
%ADD26R,1.800000X1.800000*%
G04 #@! TD*
G04 #@! TA.AperFunction,ComponentPad*
%ADD27O,2.200000X2.200000*%
G04 #@! TD*
G04 #@! TA.AperFunction,ComponentPad*
%ADD28R,2.200000X2.200000*%
G04 #@! TD*
G04 #@! TA.AperFunction,ComponentPad*
%ADD29R,3.200000X3.200000*%
G04 #@! TD*
G04 #@! TA.AperFunction,ComponentPad*
%ADD30C,3.200000*%
G04 #@! TD*
G04 #@! TA.AperFunction,ComponentPad*
%ADD31C,4.000000*%
G04 #@! TD*
G04 #@! TA.AperFunction,ComponentPad*
%ADD32R,4.000000X4.000000*%
G04 #@! TD*
G04 #@! TA.AperFunction,ComponentPad*
%ADD33C,2.400000*%
G04 #@! TD*
G04 #@! TA.AperFunction,ViaPad*
%ADD34C,0.800000*%
G04 #@! TD*
G04 #@! TA.AperFunction,Conductor*
%ADD35C,2.000000*%
G04 #@! TD*
G04 #@! TA.AperFunction,Conductor*
%ADD36C,3.000000*%
G04 #@! TD*
G04 #@! TA.AperFunction,Conductor*
%ADD37C,1.000000*%
G04 #@! TD*
G04 #@! TA.AperFunction,Conductor*
%ADD38C,0.500000*%
G04 #@! TD*
G04 #@! TA.AperFunction,Conductor*
%ADD39C,0.254000*%
G04 #@! TD*
G04 #@! TA.AperFunction,Conductor*
%ADD40C,0.100000*%
G04 #@! TD*
G04 APERTURE END LIST*
D10*
X156710000Y-39000000D03*
X157980000Y-39000000D03*
X159250000Y-39000000D03*
D11*
X113600000Y-58780000D03*
D12*
X113600000Y-66400000D03*
D13*
X106600000Y-65000000D03*
D14*
X104060000Y-65000000D03*
X105330000Y-65000000D03*
D15*
X104000000Y-58130000D03*
D16*
X104000000Y-60670000D03*
D17*
X125580000Y-39500000D03*
X123040000Y-39500000D03*
D18*
X120500000Y-39500000D03*
D11*
X192870000Y-45500000D03*
D12*
X185250000Y-45500000D03*
D15*
X194250000Y-51770000D03*
D16*
X194250000Y-49230000D03*
D15*
X194250000Y-62810000D03*
X194250000Y-60270000D03*
X194250000Y-57730000D03*
D16*
X194250000Y-55190000D03*
D12*
X106000000Y-46000000D03*
X101000000Y-46000000D03*
X103250000Y-53750000D03*
D19*
X103250000Y-51750000D03*
D12*
X115750000Y-46000000D03*
X110750000Y-46000000D03*
X125500000Y-46000000D03*
X120500000Y-46000000D03*
X111500000Y-53750000D03*
D19*
X111500000Y-51750000D03*
D12*
X119750000Y-53750000D03*
D19*
X119750000Y-51750000D03*
D12*
X146500000Y-46000000D03*
X151500000Y-46000000D03*
D17*
X114080000Y-39500000D03*
X111540000Y-39500000D03*
D18*
X109000000Y-39500000D03*
D17*
X151500000Y-39500000D03*
X148960000Y-39500000D03*
D18*
X146420000Y-39500000D03*
D20*
X142080000Y-82000000D03*
X139540000Y-82000000D03*
X137000000Y-82000000D03*
D21*
X125500000Y-95900000D03*
X118000000Y-94100000D03*
D22*
X183000000Y-76300000D03*
X195000000Y-76300000D03*
X183000000Y-88500000D03*
X195000000Y-88500000D03*
D23*
X189000000Y-90500000D03*
D22*
X164500000Y-76300000D03*
X176500000Y-76300000D03*
X164500000Y-88500000D03*
X176500000Y-88500000D03*
D23*
X170500000Y-90500000D03*
D11*
X135380000Y-71000000D03*
D12*
X143000000Y-71000000D03*
D11*
X135380000Y-75000000D03*
D12*
X143000000Y-75000000D03*
D11*
X183000000Y-68120000D03*
D12*
X183000000Y-60500000D03*
D11*
X176500000Y-68120000D03*
D12*
X176500000Y-60500000D03*
D11*
X139870000Y-41800000D03*
D12*
X132250000Y-41800000D03*
D13*
X190500000Y-67500000D03*
D14*
X187960000Y-67500000D03*
X189230000Y-67500000D03*
D13*
X172000000Y-67500000D03*
D14*
X169460000Y-67500000D03*
X170730000Y-67500000D03*
D24*
X186580000Y-105500000D03*
D25*
X181500000Y-105500000D03*
D24*
X173507379Y-105500000D03*
D25*
X168427379Y-105500000D03*
D24*
X129902619Y-105500000D03*
D25*
X124822619Y-105500000D03*
D24*
X116830000Y-105500000D03*
D25*
X111750000Y-105500000D03*
D24*
X142975238Y-105500000D03*
D25*
X137895238Y-105500000D03*
D24*
X160434760Y-105500000D03*
D25*
X155354760Y-105500000D03*
D24*
X151000000Y-95250000D03*
X151000000Y-72750000D03*
X105000000Y-95250000D03*
X105000000Y-72750000D03*
D21*
X140540000Y-88000000D03*
D26*
X138000000Y-88000000D03*
D27*
X184340000Y-96000000D03*
D28*
X194500000Y-96000000D03*
D27*
X165340000Y-96000000D03*
D28*
X175500000Y-96000000D03*
D29*
X166600000Y-39000000D03*
D30*
X174300000Y-39000000D03*
X182000000Y-39000000D03*
X189700000Y-39000000D03*
D29*
X164060000Y-39000000D03*
D31*
X162500000Y-60500000D03*
D32*
X162500000Y-50500000D03*
D31*
X135500000Y-60500000D03*
D32*
X135500000Y-50500000D03*
D33*
X121800000Y-87700000D03*
X121800000Y-72700000D03*
D34*
X170000000Y-41500000D03*
X146500000Y-86500000D03*
X151000000Y-111000000D03*
X146000000Y-59000000D03*
X146000000Y-63500000D03*
X146000000Y-68500000D03*
X153000000Y-80000000D03*
X153500000Y-88500000D03*
X165000000Y-84000000D03*
X173000000Y-86000000D03*
X176000000Y-81000000D03*
X183000000Y-83000000D03*
X194000000Y-83500000D03*
X192000000Y-72500000D03*
X182000000Y-53500000D03*
X177000000Y-105500000D03*
X189500000Y-105500000D03*
X117500000Y-57500000D03*
X117500000Y-60500000D03*
X120000000Y-57500000D03*
X120000000Y-60500000D03*
X132500000Y-69000000D03*
X121500000Y-68000000D03*
X100500000Y-67500000D03*
X101000000Y-53500000D03*
X197500000Y-45000000D03*
X187000000Y-40000000D03*
X187000000Y-42500000D03*
X196500000Y-103500000D03*
X190500000Y-110500000D03*
X155000000Y-42500000D03*
X189750000Y-46250000D03*
D35*
X148960000Y-39700000D02*
X148960000Y-40490002D01*
D36*
X150179999Y-42250001D02*
X149170001Y-41240003D01*
X151524003Y-42250001D02*
X150179999Y-42250001D01*
X154050001Y-57600003D02*
X154050001Y-44775999D01*
X172749998Y-76300000D02*
X154050001Y-57600003D01*
X154050001Y-44775999D02*
X151524003Y-42250001D01*
X176500000Y-76300000D02*
X172749998Y-76300000D01*
D37*
X105749999Y-41250001D02*
X101000000Y-46000000D01*
X112329999Y-41250001D02*
X105749999Y-41250001D01*
X114080000Y-39500000D02*
X112329999Y-41250001D01*
X115830001Y-37749999D02*
X114080000Y-39500000D01*
X155459999Y-37749999D02*
X115830001Y-37749999D01*
X156710000Y-39000000D02*
X155459999Y-37749999D01*
X185249989Y-45499989D02*
X185250000Y-45500000D01*
X156710000Y-40900000D02*
X161309989Y-45499989D01*
X161309989Y-45499989D02*
X185249989Y-45499989D01*
X156710000Y-39000000D02*
X156710000Y-40900000D01*
X188980000Y-49230000D02*
X185250000Y-45500000D01*
X194250000Y-49230000D02*
X188980000Y-49230000D01*
X103250000Y-51750000D02*
X103350000Y-51750000D01*
X101000000Y-49500000D02*
X103250000Y-51750000D01*
X101000000Y-46000000D02*
X101000000Y-49500000D01*
X136930001Y-70255999D02*
X136930001Y-73449999D01*
X130674002Y-64000000D02*
X136930001Y-70255999D01*
X136930001Y-73449999D02*
X135380000Y-75000000D01*
X116525998Y-64000000D02*
X130674002Y-64000000D01*
X104275998Y-51750000D02*
X116525998Y-64000000D01*
X103250000Y-51750000D02*
X104275998Y-51750000D01*
X187769990Y-83730010D02*
X187769990Y-67000000D01*
X183000000Y-88500000D02*
X187769990Y-83730010D01*
X188310000Y-55190000D02*
X183000000Y-60500000D01*
X194250000Y-55190000D02*
X188310000Y-55190000D01*
X139870000Y-79130000D02*
X137000000Y-82000000D01*
X139870000Y-41800000D02*
X139870000Y-79130000D01*
D38*
X192870000Y-45500000D02*
X191370000Y-44000000D01*
X157980000Y-40400000D02*
X157980000Y-39000000D01*
X161580000Y-44000000D02*
X157980000Y-40400000D01*
X191370000Y-44000000D02*
X161580000Y-44000000D01*
D37*
X111500000Y-46750000D02*
X110750000Y-46000000D01*
X176500000Y-85561998D02*
X176500000Y-88500000D01*
X144949999Y-54011997D02*
X176500000Y-85561998D01*
X144949999Y-44659997D02*
X144949999Y-54011997D01*
X139790002Y-39500000D02*
X144949999Y-44659997D01*
X129500000Y-44294002D02*
X125494002Y-48300000D01*
X129500000Y-39500000D02*
X129500000Y-44294002D01*
X125494002Y-48300000D02*
X111500000Y-48300000D01*
X111500000Y-48300000D02*
X111500000Y-46750000D01*
X125580000Y-39500000D02*
X129500000Y-39500000D01*
X129500000Y-39500000D02*
X139790002Y-39500000D01*
D38*
X195850001Y-58669999D02*
X194250000Y-60270000D01*
X195850001Y-47348631D02*
X195850001Y-58669999D01*
X194001370Y-45500000D02*
X195850001Y-47348631D01*
X192870000Y-45500000D02*
X194001370Y-45500000D01*
D39*
X161821928Y-40600000D02*
X161834188Y-40724482D01*
X161870498Y-40844180D01*
X161929463Y-40954494D01*
X162008815Y-41051185D01*
X162105506Y-41130537D01*
X162215820Y-41189502D01*
X162335518Y-41225812D01*
X162460000Y-41238072D01*
X168200000Y-41238072D01*
X168324482Y-41225812D01*
X168444180Y-41189502D01*
X168554494Y-41130537D01*
X168651185Y-41051185D01*
X168730537Y-40954494D01*
X168789502Y-40844180D01*
X168825812Y-40724482D01*
X168838072Y-40600000D01*
X168838072Y-37660000D01*
X172507348Y-37660000D01*
X172319369Y-37941331D01*
X172150890Y-38348075D01*
X172065000Y-38779872D01*
X172065000Y-39220128D01*
X172150890Y-39651925D01*
X172319369Y-40058669D01*
X172563962Y-40424729D01*
X172875271Y-40736038D01*
X173241331Y-40980631D01*
X173648075Y-41149110D01*
X174079872Y-41235000D01*
X174520128Y-41235000D01*
X174951925Y-41149110D01*
X175358669Y-40980631D01*
X175724729Y-40736038D01*
X176036038Y-40424729D01*
X176280631Y-40058669D01*
X176449110Y-39651925D01*
X176535000Y-39220128D01*
X176535000Y-38779872D01*
X176449110Y-38348075D01*
X176280631Y-37941331D01*
X176092652Y-37660000D01*
X180207348Y-37660000D01*
X180019369Y-37941331D01*
X179850890Y-38348075D01*
X179765000Y-38779872D01*
X179765000Y-39220128D01*
X179850890Y-39651925D01*
X180019369Y-40058669D01*
X180263962Y-40424729D01*
X180575271Y-40736038D01*
X180941331Y-40980631D01*
X181348075Y-41149110D01*
X181779872Y-41235000D01*
X182220128Y-41235000D01*
X182651925Y-41149110D01*
X183058669Y-40980631D01*
X183424729Y-40736038D01*
X183597922Y-40562845D01*
X188316761Y-40562845D01*
X188484802Y-40888643D01*
X188876607Y-41089426D01*
X189300055Y-41209914D01*
X189738873Y-41245476D01*
X190176197Y-41194746D01*
X190595221Y-41059674D01*
X190915198Y-40888643D01*
X191083239Y-40562845D01*
X189700000Y-39179605D01*
X188316761Y-40562845D01*
X183597922Y-40562845D01*
X183736038Y-40424729D01*
X183980631Y-40058669D01*
X184149110Y-39651925D01*
X184235000Y-39220128D01*
X184235000Y-38779872D01*
X184149110Y-38348075D01*
X183980631Y-37941331D01*
X183792652Y-37660000D01*
X188053323Y-37660000D01*
X187811357Y-37784802D01*
X187610574Y-38176607D01*
X187490086Y-38600055D01*
X187454524Y-39038873D01*
X187505254Y-39476197D01*
X187640326Y-39895221D01*
X187811357Y-40215198D01*
X188137155Y-40383239D01*
X189520395Y-39000000D01*
X189506252Y-38985858D01*
X189685858Y-38806252D01*
X189700000Y-38820395D01*
X189714142Y-38806252D01*
X189893748Y-38985858D01*
X189879605Y-39000000D01*
X191262845Y-40383239D01*
X191463253Y-40279872D01*
X193265000Y-40279872D01*
X193265000Y-40720128D01*
X193350890Y-41151925D01*
X193519369Y-41558669D01*
X193763962Y-41924729D01*
X194075271Y-42236038D01*
X194441331Y-42480631D01*
X194848075Y-42649110D01*
X195279872Y-42735000D01*
X195720128Y-42735000D01*
X196151925Y-42649110D01*
X196558669Y-42480631D01*
X196924729Y-42236038D01*
X197236038Y-41924729D01*
X197480631Y-41558669D01*
X197649110Y-41151925D01*
X197735000Y-40720128D01*
X197735000Y-40279872D01*
X197649110Y-39848075D01*
X197480631Y-39441331D01*
X197236038Y-39075271D01*
X196924729Y-38763962D01*
X196558669Y-38519369D01*
X196151925Y-38350890D01*
X195720128Y-38265000D01*
X195279872Y-38265000D01*
X194848075Y-38350890D01*
X194441331Y-38519369D01*
X194075271Y-38763962D01*
X193763962Y-39075271D01*
X193519369Y-39441331D01*
X193350890Y-39848075D01*
X193265000Y-40279872D01*
X191463253Y-40279872D01*
X191588643Y-40215198D01*
X191789426Y-39823393D01*
X191909914Y-39399945D01*
X191945476Y-38961127D01*
X191894746Y-38523803D01*
X191759674Y-38104779D01*
X191588643Y-37784802D01*
X191346677Y-37660000D01*
X198340000Y-37660000D01*
X198340001Y-112840000D01*
X148127000Y-112840000D01*
X148127000Y-109779872D01*
X193265000Y-109779872D01*
X193265000Y-110220128D01*
X193350890Y-110651925D01*
X193519369Y-111058669D01*
X193763962Y-111424729D01*
X194075271Y-111736038D01*
X194441331Y-111980631D01*
X194848075Y-112149110D01*
X195279872Y-112235000D01*
X195720128Y-112235000D01*
X196151925Y-112149110D01*
X196558669Y-111980631D01*
X196924729Y-111736038D01*
X197236038Y-111424729D01*
X197480631Y-111058669D01*
X197649110Y-110651925D01*
X197735000Y-110220128D01*
X197735000Y-109779872D01*
X197649110Y-109348075D01*
X197480631Y-108941331D01*
X197236038Y-108575271D01*
X196924729Y-108263962D01*
X196558669Y-108019369D01*
X196151925Y-107850890D01*
X195720128Y-107765000D01*
X195279872Y-107765000D01*
X194848075Y-107850890D01*
X194441331Y-108019369D01*
X194075271Y-108263962D01*
X193763962Y-108575271D01*
X193519369Y-108941331D01*
X193350890Y-109348075D01*
X193265000Y-109779872D01*
X148127000Y-109779872D01*
X148127000Y-104000000D01*
X153216688Y-104000000D01*
X153216688Y-107000000D01*
X153228948Y-107124482D01*
X153265258Y-107244180D01*
X153324223Y-107354494D01*
X153403575Y-107451185D01*
X153500266Y-107530537D01*
X153610580Y-107589502D01*
X153730278Y-107625812D01*
X153854760Y-107638072D01*
X156854760Y-107638072D01*
X156979242Y-107625812D01*
X157098940Y-107589502D01*
X157209254Y-107530537D01*
X157305945Y-107451185D01*
X157385297Y-107354494D01*
X157444262Y-107244180D01*
X157480572Y-107124482D01*
X157492832Y-107000000D01*
X157492832Y-105289721D01*
X158299760Y-105289721D01*
X158299760Y-105710279D01*
X158381807Y-106122756D01*
X158542748Y-106511302D01*
X158776397Y-106860983D01*
X159073777Y-107158363D01*
X159423458Y-107392012D01*
X159812004Y-107552953D01*
X160224481Y-107635000D01*
X160645039Y-107635000D01*
X161057516Y-107552953D01*
X161446062Y-107392012D01*
X161795743Y-107158363D01*
X162093123Y-106860983D01*
X162326772Y-106511302D01*
X162487713Y-106122756D01*
X162569760Y-105710279D01*
X162569760Y-105289721D01*
X162487713Y-104877244D01*
X162326772Y-104488698D01*
X162093123Y-104139017D01*
X161954106Y-104000000D01*
X166289307Y-104000000D01*
X166289307Y-107000000D01*
X166301567Y-107124482D01*
X166337877Y-107244180D01*
X166396842Y-107354494D01*
X166476194Y-107451185D01*
X166572885Y-107530537D01*
X166683199Y-107589502D01*
X166802897Y-107625812D01*
X166927379Y-107638072D01*
X169927379Y-107638072D01*
X170051861Y-107625812D01*
X170171559Y-107589502D01*
X170281873Y-107530537D01*
X170378564Y-107451185D01*
X170457916Y-107354494D01*
X170516881Y-107244180D01*
X170553191Y-107124482D01*
X170565451Y-107000000D01*
X170565451Y-106991653D01*
X172195331Y-106991653D01*
X172351341Y-107307214D01*
X172726124Y-107498020D01*
X173130930Y-107612044D01*
X173550203Y-107644902D01*
X173967830Y-107595334D01*
X174367762Y-107465243D01*
X174663417Y-107307214D01*
X174819427Y-106991653D01*
X173507379Y-105679605D01*
X172195331Y-106991653D01*
X170565451Y-106991653D01*
X170565451Y-105542824D01*
X171362477Y-105542824D01*
X171412045Y-105960451D01*
X171542136Y-106360383D01*
X171700165Y-106656038D01*
X172015726Y-106812048D01*
X173327774Y-105500000D01*
X173686984Y-105500000D01*
X174999032Y-106812048D01*
X175314593Y-106656038D01*
X175505399Y-106281255D01*
X175619423Y-105876449D01*
X175652281Y-105457176D01*
X175602713Y-105039549D01*
X175472622Y-104639617D01*
X175314593Y-104343962D01*
X174999032Y-104187952D01*
X173686984Y-105500000D01*
X173327774Y-105500000D01*
X172015726Y-104187952D01*
X171700165Y-104343962D01*
X171509359Y-104718745D01*
X171395335Y-105123551D01*
X171362477Y-105542824D01*
X170565451Y-105542824D01*
X170565451Y-104008347D01*
X172195331Y-104008347D01*
X173507379Y-105320395D01*
X174819427Y-104008347D01*
X174815301Y-104000000D01*
X179361928Y-104000000D01*
X179361928Y-107000000D01*
X179374188Y-107124482D01*
X179410498Y-107244180D01*
X179469463Y-107354494D01*
X179548815Y-107451185D01*
X179645506Y-107530537D01*
X179755820Y-107589502D01*
X179875518Y-107625812D01*
X180000000Y-107638072D01*
X183000000Y-107638072D01*
X183124482Y-107625812D01*
X183244180Y-107589502D01*
X183354494Y-107530537D01*
X183451185Y-107451185D01*
X183530537Y-107354494D01*
X183589502Y-107244180D01*
X183625812Y-107124482D01*
X183638072Y-107000000D01*
X183638072Y-106991653D01*
X185267952Y-106991653D01*
X185423962Y-107307214D01*
X185798745Y-107498020D01*
X186203551Y-107612044D01*
X186622824Y-107644902D01*
X187040451Y-107595334D01*
X187440383Y-107465243D01*
X187736038Y-107307214D01*
X187892048Y-106991653D01*
X186580000Y-105679605D01*
X185267952Y-106991653D01*
X183638072Y-106991653D01*
X183638072Y-105542824D01*
X184435098Y-105542824D01*
X184484666Y-105960451D01*
X184614757Y-106360383D01*
X184772786Y-106656038D01*
X185088347Y-106812048D01*
X186400395Y-105500000D01*
X186759605Y-105500000D01*
X188071653Y-106812048D01*
X188387214Y-106656038D01*
X188578020Y-106281255D01*
X188692044Y-105876449D01*
X188724902Y-105457176D01*
X188675334Y-105039549D01*
X188545243Y-104639617D01*
X188387214Y-104343962D01*
X188071653Y-104187952D01*
X186759605Y-105500000D01*
X186400395Y-105500000D01*
X185088347Y-104187952D01*
X184772786Y-104343962D01*
X184581980Y-104718745D01*
X184467956Y-105123551D01*
X184435098Y-105542824D01*
X183638072Y-105542824D01*
X183638072Y-104008347D01*
X185267952Y-104008347D01*
X186580000Y-105320395D01*
X187892048Y-104008347D01*
X187736038Y-103692786D01*
X187361255Y-103501980D01*
X186956449Y-103387956D01*
X186537176Y-103355098D01*
X186119549Y-103404666D01*
X185719617Y-103534757D01*
X185423962Y-103692786D01*
X185267952Y-104008347D01*
X183638072Y-104008347D01*
X183638072Y-104000000D01*
X183625812Y-103875518D01*
X183589502Y-103755820D01*
X183530537Y-103645506D01*
X183451185Y-103548815D01*
X183354494Y-103469463D01*
X183244180Y-103410498D01*
X183124482Y-103374188D01*
X183000000Y-103361928D01*
X180000000Y-103361928D01*
X179875518Y-103374188D01*
X179755820Y-103410498D01*
X179645506Y-103469463D01*
X179548815Y-103548815D01*
X179469463Y-103645506D01*
X179410498Y-103755820D01*
X179374188Y-103875518D01*
X179361928Y-104000000D01*
X174815301Y-104000000D01*
X174663417Y-103692786D01*
X174288634Y-103501980D01*
X173883828Y-103387956D01*
X173464555Y-103355098D01*
X173046928Y-103404666D01*
X172646996Y-103534757D01*
X172351341Y-103692786D01*
X172195331Y-104008347D01*
X170565451Y-104008347D01*
X170565451Y-104000000D01*
X170553191Y-103875518D01*
X170516881Y-103755820D01*
X170457916Y-103645506D01*
X170378564Y-103548815D01*
X170281873Y-103469463D01*
X170171559Y-103410498D01*
X170051861Y-103374188D01*
X169927379Y-103361928D01*
X166927379Y-103361928D01*
X166802897Y-103374188D01*
X166683199Y-103410498D01*
X166572885Y-103469463D01*
X166476194Y-103548815D01*
X166396842Y-103645506D01*
X166337877Y-103755820D01*
X166301567Y-103875518D01*
X166289307Y-104000000D01*
X161954106Y-104000000D01*
X161795743Y-103841637D01*
X161446062Y-103607988D01*
X161057516Y-103447047D01*
X160645039Y-103365000D01*
X160224481Y-103365000D01*
X159812004Y-103447047D01*
X159423458Y-103607988D01*
X159073777Y-103841637D01*
X158776397Y-104139017D01*
X158542748Y-104488698D01*
X158381807Y-104877244D01*
X158299760Y-105289721D01*
X157492832Y-105289721D01*
X157492832Y-104000000D01*
X157480572Y-103875518D01*
X157444262Y-103755820D01*
X157385297Y-103645506D01*
X157305945Y-103548815D01*
X157209254Y-103469463D01*
X157098940Y-103410498D01*
X156979242Y-103374188D01*
X156854760Y-103361928D01*
X153854760Y-103361928D01*
X153730278Y-103374188D01*
X153610580Y-103410498D01*
X153500266Y-103469463D01*
X153403575Y-103548815D01*
X153324223Y-103645506D01*
X153265258Y-103755820D01*
X153228948Y-103875518D01*
X153216688Y-104000000D01*
X148127000Y-104000000D01*
X148127000Y-95039721D01*
X148865000Y-95039721D01*
X148865000Y-95460279D01*
X148947047Y-95872756D01*
X149107988Y-96261302D01*
X149341637Y-96610983D01*
X149639017Y-96908363D01*
X149988698Y-97142012D01*
X150377244Y-97302953D01*
X150789721Y-97385000D01*
X151210279Y-97385000D01*
X151622756Y-97302953D01*
X152011302Y-97142012D01*
X152360983Y-96908363D01*
X152658363Y-96610983D01*
X152892012Y-96261302D01*
X153052953Y-95872756D01*
X153061633Y-95829117D01*
X163605000Y-95829117D01*
X163605000Y-96170883D01*
X163671675Y-96506081D01*
X163802463Y-96821831D01*
X163992337Y-97105998D01*
X164234002Y-97347663D01*
X164518169Y-97537537D01*
X164833919Y-97668325D01*
X165169117Y-97735000D01*
X165510883Y-97735000D01*
X165846081Y-97668325D01*
X166161831Y-97537537D01*
X166445998Y-97347663D01*
X166687663Y-97105998D01*
X166877537Y-96821831D01*
X167008325Y-96506081D01*
X167075000Y-96170883D01*
X167075000Y-95829117D01*
X167008325Y-95493919D01*
X166877537Y-95178169D01*
X166691671Y-94900000D01*
X173761928Y-94900000D01*
X173761928Y-97100000D01*
X173774188Y-97224482D01*
X173810498Y-97344180D01*
X173869463Y-97454494D01*
X173948815Y-97551185D01*
X174045506Y-97630537D01*
X174155820Y-97689502D01*
X174275518Y-97725812D01*
X174400000Y-97738072D01*
X176600000Y-97738072D01*
X176724482Y-97725812D01*
X176844180Y-97689502D01*
X176954494Y-97630537D01*
X177051185Y-97551185D01*
X177130537Y-97454494D01*
X177189502Y-97344180D01*
X177225812Y-97224482D01*
X177238072Y-97100000D01*
X177238072Y-95829117D01*
X182605000Y-95829117D01*
X182605000Y-96170883D01*
X182671675Y-96506081D01*
X182802463Y-96821831D01*
X182992337Y-97105998D01*
X183234002Y-97347663D01*
X183518169Y-97537537D01*
X183833919Y-97668325D01*
X184169117Y-97735000D01*
X184510883Y-97735000D01*
X184846081Y-97668325D01*
X185161831Y-97537537D01*
X185445998Y-97347663D01*
X185687663Y-97105998D01*
X185877537Y-96821831D01*
X186008325Y-96506081D01*
X186075000Y-96170883D01*
X186075000Y-95829117D01*
X186008325Y-95493919D01*
X185877537Y-95178169D01*
X185691671Y-94900000D01*
X192761928Y-94900000D01*
X192761928Y-97100000D01*
X192774188Y-97224482D01*
X192810498Y-97344180D01*
X192869463Y-97454494D01*
X192948815Y-97551185D01*
X193045506Y-97630537D01*
X193155820Y-97689502D01*
X193275518Y-97725812D01*
X193400000Y-97738072D01*
X195600000Y-97738072D01*
X195724482Y-97725812D01*
X195844180Y-97689502D01*
X195954494Y-97630537D01*
X196051185Y-97551185D01*
X196130537Y-97454494D01*
X196189502Y-97344180D01*
X196225812Y-97224482D01*
X196238072Y-97100000D01*
X196238072Y-94900000D01*
X196225812Y-94775518D01*
X196189502Y-94655820D01*
X196130537Y-94545506D01*
X196051185Y-94448815D01*
X195954494Y-94369463D01*
X195844180Y-94310498D01*
X195724482Y-94274188D01*
X195600000Y-94261928D01*
X193400000Y-94261928D01*
X193275518Y-94274188D01*
X193155820Y-94310498D01*
X193045506Y-94369463D01*
X192948815Y-94448815D01*
X192869463Y-94545506D01*
X192810498Y-94655820D01*
X192774188Y-94775518D01*
X192761928Y-94900000D01*
X185691671Y-94900000D01*
X185687663Y-94894002D01*
X185445998Y-94652337D01*
X185161831Y-94462463D01*
X184846081Y-94331675D01*
X184510883Y-94265000D01*
X184169117Y-94265000D01*
X183833919Y-94331675D01*
X183518169Y-94462463D01*
X183234002Y-94652337D01*
X182992337Y-94894002D01*
X182802463Y-95178169D01*
X182671675Y-95493919D01*
X182605000Y-95829117D01*
X177238072Y-95829117D01*
X177238072Y-94900000D01*
X177225812Y-94775518D01*
X177189502Y-94655820D01*
X177130537Y-94545506D01*
X177051185Y-94448815D01*
X176954494Y-94369463D01*
X176844180Y-94310498D01*
X176724482Y-94274188D01*
X176600000Y-94261928D01*
X174400000Y-94261928D01*
X174275518Y-94274188D01*
X174155820Y-94310498D01*
X174045506Y-94369463D01*
X173948815Y-94448815D01*
X173869463Y-94545506D01*
X173810498Y-94655820D01*
X173774188Y-94775518D01*
X173761928Y-94900000D01*
X166691671Y-94900000D01*
X166687663Y-94894002D01*
X166445998Y-94652337D01*
X166161831Y-94462463D01*
X165846081Y-94331675D01*
X165510883Y-94265000D01*
X165169117Y-94265000D01*
X164833919Y-94331675D01*
X164518169Y-94462463D01*
X164234002Y-94652337D01*
X163992337Y-94894002D01*
X163802463Y-95178169D01*
X163671675Y-95493919D01*
X163605000Y-95829117D01*
X153061633Y-95829117D01*
X153135000Y-95460279D01*
X153135000Y-95039721D01*
X153052953Y-94627244D01*
X152892012Y-94238698D01*
X152658363Y-93889017D01*
X152360983Y-93591637D01*
X152011302Y-93357988D01*
X151622756Y-93197047D01*
X151210279Y-93115000D01*
X150789721Y-93115000D01*
X150377244Y-93197047D01*
X149988698Y-93357988D01*
X149639017Y-93591637D01*
X149341637Y-93889017D01*
X149107988Y-94238698D01*
X148947047Y-94627244D01*
X148865000Y-95039721D01*
X148127000Y-95039721D01*
X148127000Y-92000000D01*
X148124560Y-91975224D01*
X148117333Y-91951399D01*
X148105597Y-91929443D01*
X148089803Y-91910197D01*
X148070557Y-91894403D01*
X148048601Y-91882667D01*
X148024776Y-91875440D01*
X148000000Y-91873000D01*
X130627000Y-91873000D01*
X130627000Y-88900000D01*
X136461928Y-88900000D01*
X136474188Y-89024482D01*
X136510498Y-89144180D01*
X136569463Y-89254494D01*
X136648815Y-89351185D01*
X136745506Y-89430537D01*
X136855820Y-89489502D01*
X136975518Y-89525812D01*
X137100000Y-89538072D01*
X137714250Y-89535000D01*
X137873000Y-89376250D01*
X137873000Y-88127000D01*
X136623750Y-88127000D01*
X136465000Y-88285750D01*
X136461928Y-88900000D01*
X130627000Y-88900000D01*
X130627000Y-87100000D01*
X136461928Y-87100000D01*
X136465000Y-87714250D01*
X136623750Y-87873000D01*
X137873000Y-87873000D01*
X137873000Y-86623750D01*
X138127000Y-86623750D01*
X138127000Y-87873000D01*
X138147000Y-87873000D01*
X138147000Y-88127000D01*
X138127000Y-88127000D01*
X138127000Y-89376250D01*
X138285750Y-89535000D01*
X138900000Y-89538072D01*
X139024482Y-89525812D01*
X139144180Y-89489502D01*
X139254494Y-89430537D01*
X139351185Y-89351185D01*
X139430537Y-89254494D01*
X139489502Y-89144180D01*
X139495056Y-89125873D01*
X139561495Y-89192312D01*
X139812905Y-89360299D01*
X140092257Y-89476011D01*
X140388816Y-89535000D01*
X140691184Y-89535000D01*
X140987743Y-89476011D01*
X141267095Y-89360299D01*
X141518505Y-89192312D01*
X141732312Y-88978505D01*
X141900299Y-88727095D01*
X142016011Y-88447743D01*
X142040586Y-88324193D01*
X162715000Y-88324193D01*
X162715000Y-88675807D01*
X162783596Y-89020665D01*
X162918153Y-89345515D01*
X163113500Y-89637871D01*
X163362129Y-89886500D01*
X163654485Y-90081847D01*
X163979335Y-90216404D01*
X164324193Y-90285000D01*
X164675807Y-90285000D01*
X165020665Y-90216404D01*
X165345515Y-90081847D01*
X165637871Y-89886500D01*
X165886500Y-89637871D01*
X166078850Y-89350000D01*
X168711928Y-89350000D01*
X168711928Y-91650000D01*
X168724188Y-91774482D01*
X168760498Y-91894180D01*
X168819463Y-92004494D01*
X168898815Y-92101185D01*
X168995506Y-92180537D01*
X169105820Y-92239502D01*
X169225518Y-92275812D01*
X169350000Y-92288072D01*
X171650000Y-92288072D01*
X171774482Y-92275812D01*
X171894180Y-92239502D01*
X172004494Y-92180537D01*
X172101185Y-92101185D01*
X172180537Y-92004494D01*
X172239502Y-91894180D01*
X172275812Y-91774482D01*
X172288072Y-91650000D01*
X172288072Y-89350000D01*
X172275812Y-89225518D01*
X172239502Y-89105820D01*
X172180537Y-88995506D01*
X172101185Y-88898815D01*
X172004494Y-88819463D01*
X171894180Y-88760498D01*
X171774482Y-88724188D01*
X171650000Y-88711928D01*
X169350000Y-88711928D01*
X169225518Y-88724188D01*
X169105820Y-88760498D01*
X168995506Y-88819463D01*
X168898815Y-88898815D01*
X168819463Y-88995506D01*
X168760498Y-89105820D01*
X168724188Y-89225518D01*
X168711928Y-89350000D01*
X166078850Y-89350000D01*
X166081847Y-89345515D01*
X166216404Y-89020665D01*
X166285000Y-88675807D01*
X166285000Y-88324193D01*
X166216404Y-87979335D01*
X166081847Y-87654485D01*
X165886500Y-87362129D01*
X165637871Y-87113500D01*
X165345515Y-86918153D01*
X165020665Y-86783596D01*
X164675807Y-86715000D01*
X164324193Y-86715000D01*
X163979335Y-86783596D01*
X163654485Y-86918153D01*
X163362129Y-87113500D01*
X163113500Y-87362129D01*
X162918153Y-87654485D01*
X162783596Y-87979335D01*
X162715000Y-88324193D01*
X142040586Y-88324193D01*
X142075000Y-88151184D01*
X142075000Y-87848816D01*
X142016011Y-87552257D01*
X141900299Y-87272905D01*
X141732312Y-87021495D01*
X141518505Y-86807688D01*
X141267095Y-86639701D01*
X140987743Y-86523989D01*
X140691184Y-86465000D01*
X140388816Y-86465000D01*
X140092257Y-86523989D01*
X139812905Y-86639701D01*
X139561495Y-86807688D01*
X139495056Y-86874127D01*
X139489502Y-86855820D01*
X139430537Y-86745506D01*
X139351185Y-86648815D01*
X139254494Y-86569463D01*
X139144180Y-86510498D01*
X139024482Y-86474188D01*
X138900000Y-86461928D01*
X138285750Y-86465000D01*
X138127000Y-86623750D01*
X137873000Y-86623750D01*
X137714250Y-86465000D01*
X137100000Y-86461928D01*
X136975518Y-86474188D01*
X136855820Y-86510498D01*
X136745506Y-86569463D01*
X136648815Y-86648815D01*
X136569463Y-86745506D01*
X136510498Y-86855820D01*
X136474188Y-86975518D01*
X136461928Y-87100000D01*
X130627000Y-87100000D01*
X130627000Y-71349039D01*
X133988096Y-71349039D01*
X134028754Y-71483087D01*
X134148963Y-71737420D01*
X134316481Y-71963414D01*
X134524869Y-72152385D01*
X134766119Y-72297070D01*
X135030960Y-72391909D01*
X135253000Y-72270624D01*
X135253000Y-71127000D01*
X134110085Y-71127000D01*
X133988096Y-71349039D01*
X130627000Y-71349039D01*
X130627000Y-69000000D01*
X130624560Y-68975224D01*
X130617333Y-68951399D01*
X130605597Y-68929443D01*
X130589803Y-68910197D01*
X130570557Y-68894403D01*
X130548601Y-68882667D01*
X130524776Y-68875440D01*
X130500000Y-68873000D01*
X99660000Y-68873000D01*
X99660000Y-64694249D01*
X102925000Y-64694249D01*
X102925000Y-65305752D01*
X102941423Y-65472499D01*
X103006324Y-65686447D01*
X103111717Y-65883623D01*
X103253552Y-66056449D01*
X103426378Y-66198284D01*
X103623554Y-66303676D01*
X103837502Y-66368577D01*
X104060000Y-66390491D01*
X104282499Y-66368577D01*
X104496447Y-66303676D01*
X104693623Y-66198284D01*
X104695001Y-66197154D01*
X104696378Y-66198284D01*
X104893554Y-66303676D01*
X105107502Y-66368577D01*
X105330000Y-66390491D01*
X105552499Y-66368577D01*
X105766447Y-66303676D01*
X105777621Y-66297703D01*
X105855820Y-66339502D01*
X105975518Y-66375812D01*
X106100000Y-66388072D01*
X106314250Y-66385000D01*
X106473000Y-66226250D01*
X106473000Y-65127000D01*
X106727000Y-65127000D01*
X106727000Y-66226250D01*
X106885750Y-66385000D01*
X107100000Y-66388072D01*
X107224482Y-66375812D01*
X107344180Y-66339502D01*
X107454494Y-66280537D01*
X107481145Y-66258665D01*
X112165000Y-66258665D01*
X112165000Y-66541335D01*
X112220147Y-66818574D01*
X112328320Y-67079727D01*
X112485363Y-67314759D01*
X112685241Y-67514637D01*
X112920273Y-67671680D01*
X113181426Y-67779853D01*
X113458665Y-67835000D01*
X113741335Y-67835000D01*
X114018574Y-67779853D01*
X114279727Y-67671680D01*
X114514759Y-67514637D01*
X114714637Y-67314759D01*
X114871680Y-67079727D01*
X114979853Y-66818574D01*
X115035000Y-66541335D01*
X115035000Y-66258665D01*
X114979853Y-65981426D01*
X114871680Y-65720273D01*
X114714637Y-65485241D01*
X114514759Y-65285363D01*
X114279727Y-65128320D01*
X114018574Y-65020147D01*
X113741335Y-64965000D01*
X113458665Y-64965000D01*
X113181426Y-65020147D01*
X112920273Y-65128320D01*
X112685241Y-65285363D01*
X112485363Y-65485241D01*
X112328320Y-65720273D01*
X112220147Y-65981426D01*
X112165000Y-66258665D01*
X107481145Y-66258665D01*
X107551185Y-66201185D01*
X107630537Y-66104494D01*
X107689502Y-65994180D01*
X107725812Y-65874482D01*
X107738072Y-65750000D01*
X107735000Y-65285750D01*
X107576250Y-65127000D01*
X106727000Y-65127000D01*
X106473000Y-65127000D01*
X106465000Y-65127000D01*
X106465000Y-64873000D01*
X106473000Y-64873000D01*
X106473000Y-63773750D01*
X106727000Y-63773750D01*
X106727000Y-64873000D01*
X107576250Y-64873000D01*
X107735000Y-64714250D01*
X107738072Y-64250000D01*
X107725812Y-64125518D01*
X107689502Y-64005820D01*
X107630537Y-63895506D01*
X107551185Y-63798815D01*
X107454494Y-63719463D01*
X107344180Y-63660498D01*
X107224482Y-63624188D01*
X107100000Y-63611928D01*
X106885750Y-63615000D01*
X106727000Y-63773750D01*
X106473000Y-63773750D01*
X106314250Y-63615000D01*
X106100000Y-63611928D01*
X105975518Y-63624188D01*
X105855820Y-63660498D01*
X105777621Y-63702297D01*
X105766446Y-63696324D01*
X105552498Y-63631423D01*
X105330000Y-63609509D01*
X105107501Y-63631423D01*
X104893553Y-63696324D01*
X104696377Y-63801716D01*
X104695000Y-63802846D01*
X104693623Y-63801716D01*
X104496446Y-63696324D01*
X104282498Y-63631423D01*
X104060000Y-63609509D01*
X103837501Y-63631423D01*
X103623553Y-63696324D01*
X103426377Y-63801716D01*
X103253551Y-63943551D01*
X103111716Y-64116377D01*
X103006324Y-64313554D01*
X102941423Y-64527502D01*
X102925000Y-64694249D01*
X99660000Y-64694249D01*
X99660000Y-58130000D01*
X102257815Y-58130000D01*
X102286487Y-58421111D01*
X102371401Y-58701034D01*
X102509294Y-58959014D01*
X102694866Y-59185134D01*
X102724687Y-59209607D01*
X102655820Y-59230498D01*
X102545506Y-59289463D01*
X102448815Y-59368815D01*
X102369463Y-59465506D01*
X102310498Y-59575820D01*
X102274188Y-59695518D01*
X102261928Y-59820000D01*
X102261928Y-61520000D01*
X102274188Y-61644482D01*
X102310498Y-61764180D01*
X102369463Y-61874494D01*
X102448815Y-61971185D01*
X102545506Y-62050537D01*
X102655820Y-62109502D01*
X102775518Y-62145812D01*
X102900000Y-62158072D01*
X105100000Y-62158072D01*
X105224482Y-62145812D01*
X105344180Y-62109502D01*
X105454494Y-62050537D01*
X105551185Y-61971185D01*
X105630537Y-61874494D01*
X105689502Y-61764180D01*
X105725812Y-61644482D01*
X105738072Y-61520000D01*
X105738072Y-59820000D01*
X105725812Y-59695518D01*
X105689502Y-59575820D01*
X105630537Y-59465506D01*
X105551185Y-59368815D01*
X105454494Y-59289463D01*
X105344180Y-59230498D01*
X105275313Y-59209607D01*
X105305134Y-59185134D01*
X105490706Y-58959014D01*
X105628599Y-58701034D01*
X105713513Y-58421111D01*
X105742185Y-58130000D01*
X105713513Y-57838889D01*
X105628599Y-57558966D01*
X105490706Y-57300986D01*
X105305134Y-57074866D01*
X105079014Y-56889294D01*
X104821034Y-56751401D01*
X104541111Y-56666487D01*
X104322950Y-56645000D01*
X103677050Y-56645000D01*
X103458889Y-56666487D01*
X103178966Y-56751401D01*
X102920986Y-56889294D01*
X102694866Y-57074866D01*
X102509294Y-57300986D01*
X102371401Y-57558966D01*
X102286487Y-57838889D01*
X102257815Y-58130000D01*
X99660000Y-58130000D01*
X99660000Y-54742702D01*
X102436903Y-54742702D01*
X102508486Y-54986671D01*
X102763996Y-55107571D01*
X103038184Y-55176300D01*
X103320512Y-55190217D01*
X103600130Y-55148787D01*
X103866292Y-55053603D01*
X103991514Y-54986671D01*
X104063097Y-54742702D01*
X103250000Y-53929605D01*
X102436903Y-54742702D01*
X99660000Y-54742702D01*
X99660000Y-46514788D01*
X99728320Y-46679727D01*
X99865000Y-46884284D01*
X99865001Y-49444239D01*
X99859509Y-49500000D01*
X99881423Y-49722498D01*
X99946324Y-49936446D01*
X99946325Y-49936447D01*
X100051717Y-50133623D01*
X100193552Y-50306449D01*
X100236860Y-50341991D01*
X101811928Y-51917060D01*
X101811928Y-52550000D01*
X101824188Y-52674482D01*
X101860498Y-52794180D01*
X101919463Y-52904494D01*
X101998815Y-53001185D01*
X102011758Y-53011807D01*
X101892429Y-53263996D01*
X101823700Y-53538184D01*
X101809783Y-53820512D01*
X101851213Y-54100130D01*
X101946397Y-54366292D01*
X102013329Y-54491514D01*
X102257298Y-54563097D01*
X103070395Y-53750000D01*
X103056253Y-53735858D01*
X103235858Y-53556253D01*
X103250000Y-53570395D01*
X103264143Y-53556253D01*
X103443748Y-53735858D01*
X103429605Y-53750000D01*
X104242702Y-54563097D01*
X104486671Y-54491514D01*
X104607571Y-54236004D01*
X104676300Y-53961816D01*
X104685995Y-53765129D01*
X115684007Y-64763141D01*
X115719549Y-64806449D01*
X115892375Y-64948284D01*
X116089551Y-65053676D01*
X116253703Y-65103471D01*
X116303498Y-65118577D01*
X116525997Y-65140491D01*
X116581749Y-65135000D01*
X130203871Y-65135000D01*
X134770302Y-69701432D01*
X134766119Y-69702930D01*
X134524869Y-69847615D01*
X134316481Y-70036586D01*
X134148963Y-70262580D01*
X134028754Y-70516913D01*
X133988096Y-70650961D01*
X134110085Y-70873000D01*
X135253000Y-70873000D01*
X135253000Y-70853000D01*
X135507000Y-70853000D01*
X135507000Y-70873000D01*
X135527000Y-70873000D01*
X135527000Y-71127000D01*
X135507000Y-71127000D01*
X135507000Y-72270624D01*
X135729040Y-72391909D01*
X135795002Y-72368288D01*
X135795002Y-72979866D01*
X135202718Y-73572150D01*
X134961426Y-73620147D01*
X134700273Y-73728320D01*
X134465241Y-73885363D01*
X134265363Y-74085241D01*
X134108320Y-74320273D01*
X134000147Y-74581426D01*
X133945000Y-74858665D01*
X133945000Y-75141335D01*
X134000147Y-75418574D01*
X134108320Y-75679727D01*
X134265363Y-75914759D01*
X134465241Y-76114637D01*
X134700273Y-76271680D01*
X134961426Y-76379853D01*
X135238665Y-76435000D01*
X135521335Y-76435000D01*
X135798574Y-76379853D01*
X136059727Y-76271680D01*
X136294759Y-76114637D01*
X136494637Y-75914759D01*
X136651680Y-75679727D01*
X136759853Y-75418574D01*
X136807850Y-75177282D01*
X137693141Y-74291990D01*
X137736450Y-74256448D01*
X137878285Y-74083622D01*
X137983677Y-73886446D01*
X138048578Y-73672498D01*
X138065001Y-73505751D01*
X138065001Y-73505742D01*
X138070491Y-73450000D01*
X138065001Y-73394258D01*
X138065001Y-70311751D01*
X138070492Y-70255999D01*
X138048578Y-70033500D01*
X137983677Y-69819552D01*
X137878285Y-69622376D01*
X137771990Y-69492855D01*
X137771988Y-69492853D01*
X137736450Y-69449550D01*
X137693147Y-69414012D01*
X131515998Y-63236865D01*
X131480451Y-63193551D01*
X131307625Y-63051716D01*
X131110449Y-62946324D01*
X130896501Y-62881423D01*
X130729754Y-62865000D01*
X130729753Y-62865000D01*
X130674002Y-62859509D01*
X130618251Y-62865000D01*
X116996130Y-62865000D01*
X116478629Y-62347499D01*
X133832106Y-62347499D01*
X134048228Y-62714258D01*
X134508105Y-62954938D01*
X135006098Y-63101275D01*
X135523071Y-63147648D01*
X136039159Y-63092273D01*
X136534526Y-62937279D01*
X136951772Y-62714258D01*
X137167894Y-62347499D01*
X135500000Y-60679605D01*
X133832106Y-62347499D01*
X116478629Y-62347499D01*
X114654201Y-60523071D01*
X132852352Y-60523071D01*
X132907727Y-61039159D01*
X133062721Y-61534526D01*
X133285742Y-61951772D01*
X133652501Y-62167894D01*
X135320395Y-60500000D01*
X135679605Y-60500000D01*
X137347499Y-62167894D01*
X137714258Y-61951772D01*
X137954938Y-61491895D01*
X138101275Y-60993902D01*
X138147648Y-60476929D01*
X138092273Y-59960841D01*
X137937279Y-59465474D01*
X137714258Y-59048228D01*
X137347499Y-58832106D01*
X135679605Y-60500000D01*
X135320395Y-60500000D01*
X133652501Y-58832106D01*
X133285742Y-59048228D01*
X133045062Y-59508105D01*
X132898725Y-60006098D01*
X132852352Y-60523071D01*
X114654201Y-60523071D01*
X114204833Y-60073703D01*
X114337420Y-60011037D01*
X114563414Y-59843519D01*
X114752385Y-59635131D01*
X114897070Y-59393881D01*
X114991909Y-59129040D01*
X114870624Y-58907000D01*
X113727000Y-58907000D01*
X113727000Y-58927000D01*
X113473000Y-58927000D01*
X113473000Y-58907000D01*
X113453000Y-58907000D01*
X113453000Y-58653000D01*
X113473000Y-58653000D01*
X113473000Y-57510085D01*
X113727000Y-57510085D01*
X113727000Y-58653000D01*
X114870624Y-58653000D01*
X114870896Y-58652501D01*
X133832106Y-58652501D01*
X135500000Y-60320395D01*
X137167894Y-58652501D01*
X136951772Y-58285742D01*
X136491895Y-58045062D01*
X135993902Y-57898725D01*
X135476929Y-57852352D01*
X134960841Y-57907727D01*
X134465474Y-58062721D01*
X134048228Y-58285742D01*
X133832106Y-58652501D01*
X114870896Y-58652501D01*
X114991909Y-58430960D01*
X114897070Y-58166119D01*
X114752385Y-57924869D01*
X114563414Y-57716481D01*
X114337420Y-57548963D01*
X114083087Y-57428754D01*
X113949039Y-57388096D01*
X113727000Y-57510085D01*
X113473000Y-57510085D01*
X113250961Y-57388096D01*
X113116913Y-57428754D01*
X112862580Y-57548963D01*
X112636586Y-57716481D01*
X112447615Y-57924869D01*
X112302930Y-58166119D01*
X112301432Y-58170302D01*
X108873832Y-54742702D01*
X110686903Y-54742702D01*
X110758486Y-54986671D01*
X111013996Y-55107571D01*
X111288184Y-55176300D01*
X111570512Y-55190217D01*
X111850130Y-55148787D01*
X112116292Y-55053603D01*
X112241514Y-54986671D01*
X112313097Y-54742702D01*
X118936903Y-54742702D01*
X119008486Y-54986671D01*
X119263996Y-55107571D01*
X119538184Y-55176300D01*
X119820512Y-55190217D01*
X120100130Y-55148787D01*
X120366292Y-55053603D01*
X120491514Y-54986671D01*
X120563097Y-54742702D01*
X119750000Y-53929605D01*
X118936903Y-54742702D01*
X112313097Y-54742702D01*
X111500000Y-53929605D01*
X110686903Y-54742702D01*
X108873832Y-54742702D01*
X107951642Y-53820512D01*
X110059783Y-53820512D01*
X110101213Y-54100130D01*
X110196397Y-54366292D01*
X110263329Y-54491514D01*
X110507298Y-54563097D01*
X111320395Y-53750000D01*
X111306253Y-53735858D01*
X111485858Y-53556253D01*
X111500000Y-53570395D01*
X111514143Y-53556253D01*
X111693748Y-53735858D01*
X111679605Y-53750000D01*
X112492702Y-54563097D01*
X112736671Y-54491514D01*
X112857571Y-54236004D01*
X112926300Y-53961816D01*
X112933265Y-53820512D01*
X118309783Y-53820512D01*
X118351213Y-54100130D01*
X118446397Y-54366292D01*
X118513329Y-54491514D01*
X118757298Y-54563097D01*
X119570395Y-53750000D01*
X119556253Y-53735858D01*
X119735858Y-53556253D01*
X119750000Y-53570395D01*
X119764143Y-53556253D01*
X119943748Y-53735858D01*
X119929605Y-53750000D01*
X120742702Y-54563097D01*
X120986671Y-54491514D01*
X121107571Y-54236004D01*
X121176300Y-53961816D01*
X121190217Y-53679488D01*
X121148787Y-53399870D01*
X121053603Y-53133708D01*
X120988384Y-53011691D01*
X121001185Y-53001185D01*
X121080537Y-52904494D01*
X121139502Y-52794180D01*
X121175812Y-52674482D01*
X121188072Y-52550000D01*
X121188072Y-50950000D01*
X121175812Y-50825518D01*
X121139502Y-50705820D01*
X121080537Y-50595506D01*
X121001185Y-50498815D01*
X120904494Y-50419463D01*
X120794180Y-50360498D01*
X120674482Y-50324188D01*
X120550000Y-50311928D01*
X118950000Y-50311928D01*
X118825518Y-50324188D01*
X118705820Y-50360498D01*
X118595506Y-50419463D01*
X118498815Y-50498815D01*
X118419463Y-50595506D01*
X118360498Y-50705820D01*
X118324188Y-50825518D01*
X118311928Y-50950000D01*
X118311928Y-52550000D01*
X118324188Y-52674482D01*
X118360498Y-52794180D01*
X118419463Y-52904494D01*
X118498815Y-53001185D01*
X118511758Y-53011807D01*
X118392429Y-53263996D01*
X118323700Y-53538184D01*
X118309783Y-53820512D01*
X112933265Y-53820512D01*
X112940217Y-53679488D01*
X112898787Y-53399870D01*
X112803603Y-53133708D01*
X112738384Y-53011691D01*
X112751185Y-53001185D01*
X112830537Y-52904494D01*
X112889502Y-52794180D01*
X112925812Y-52674482D01*
X112938072Y-52550000D01*
X112938072Y-50950000D01*
X112925812Y-50825518D01*
X112889502Y-50705820D01*
X112830537Y-50595506D01*
X112751185Y-50498815D01*
X112654494Y-50419463D01*
X112544180Y-50360498D01*
X112424482Y-50324188D01*
X112300000Y-50311928D01*
X110700000Y-50311928D01*
X110575518Y-50324188D01*
X110455820Y-50360498D01*
X110345506Y-50419463D01*
X110248815Y-50498815D01*
X110169463Y-50595506D01*
X110110498Y-50705820D01*
X110074188Y-50825518D01*
X110061928Y-50950000D01*
X110061928Y-52550000D01*
X110074188Y-52674482D01*
X110110498Y-52794180D01*
X110169463Y-52904494D01*
X110248815Y-53001185D01*
X110261758Y-53011807D01*
X110142429Y-53263996D01*
X110073700Y-53538184D01*
X110059783Y-53820512D01*
X107951642Y-53820512D01*
X105117994Y-50986865D01*
X105082447Y-50943551D01*
X104909621Y-50801716D01*
X104712445Y-50696324D01*
X104619328Y-50668077D01*
X104580537Y-50595506D01*
X104501185Y-50498815D01*
X104404494Y-50419463D01*
X104294180Y-50360498D01*
X104174482Y-50324188D01*
X104050000Y-50311928D01*
X103417060Y-50311928D01*
X102135000Y-49029869D01*
X102135000Y-46992702D01*
X105186903Y-46992702D01*
X105258486Y-47236671D01*
X105513996Y-47357571D01*
X105788184Y-47426300D01*
X106070512Y-47440217D01*
X106350130Y-47398787D01*
X106616292Y-47303603D01*
X106741514Y-47236671D01*
X106813097Y-46992702D01*
X106000000Y-46179605D01*
X105186903Y-46992702D01*
X102135000Y-46992702D01*
X102135000Y-46884284D01*
X102271680Y-46679727D01*
X102379853Y-46418574D01*
X102427850Y-46177281D01*
X102534619Y-46070512D01*
X104559783Y-46070512D01*
X104601213Y-46350130D01*
X104696397Y-46616292D01*
X104763329Y-46741514D01*
X105007298Y-46813097D01*
X105820395Y-46000000D01*
X106179605Y-46000000D01*
X106992702Y-46813097D01*
X107236671Y-46741514D01*
X107357571Y-46486004D01*
X107426300Y-46211816D01*
X107440217Y-45929488D01*
X107398787Y-45649870D01*
X107303603Y-45383708D01*
X107236671Y-45258486D01*
X106992702Y-45186903D01*
X106179605Y-46000000D01*
X105820395Y-46000000D01*
X105007298Y-45186903D01*
X104763329Y-45258486D01*
X104642429Y-45513996D01*
X104573700Y-45788184D01*
X104559783Y-46070512D01*
X102534619Y-46070512D01*
X103597833Y-45007298D01*
X105186903Y-45007298D01*
X106000000Y-45820395D01*
X106813097Y-45007298D01*
X106741514Y-44763329D01*
X106486004Y-44642429D01*
X106211816Y-44573700D01*
X105929488Y-44559783D01*
X105649870Y-44601213D01*
X105383708Y-44696397D01*
X105258486Y-44763329D01*
X105186903Y-45007298D01*
X103597833Y-45007298D01*
X106220131Y-42385001D01*
X112274248Y-42385001D01*
X112329999Y-42390492D01*
X112385750Y-42385001D01*
X112385751Y-42385001D01*
X112552498Y-42368578D01*
X112766446Y-42303677D01*
X112963622Y-42198285D01*
X113136448Y-42056450D01*
X113171995Y-42013136D01*
X114050132Y-41135000D01*
X114241033Y-41135000D01*
X114556912Y-41072168D01*
X114854463Y-40948918D01*
X115122252Y-40769987D01*
X115349987Y-40542252D01*
X115528918Y-40274463D01*
X115652168Y-39976912D01*
X115715000Y-39661033D01*
X115715000Y-39470131D01*
X116300133Y-38884999D01*
X118861928Y-38884999D01*
X118861928Y-40500000D01*
X118874188Y-40624482D01*
X118910498Y-40744180D01*
X118969463Y-40854494D01*
X119048815Y-40951185D01*
X119145506Y-41030537D01*
X119255820Y-41089502D01*
X119375518Y-41125812D01*
X119500000Y-41138072D01*
X121500000Y-41138072D01*
X121624482Y-41125812D01*
X121744180Y-41089502D01*
X121854494Y-41030537D01*
X121951185Y-40951185D01*
X122030537Y-40854494D01*
X122089502Y-40744180D01*
X122105037Y-40692967D01*
X122179956Y-40899814D01*
X122469571Y-41040704D01*
X122781108Y-41122384D01*
X123102595Y-41141718D01*
X123421675Y-41097961D01*
X123726088Y-40992795D01*
X123900044Y-40899814D01*
X123995808Y-40635413D01*
X123040000Y-39679605D01*
X123025858Y-39693748D01*
X122846253Y-39514143D01*
X122860395Y-39500000D01*
X122846253Y-39485858D01*
X123025858Y-39306253D01*
X123040000Y-39320395D01*
X123054143Y-39306253D01*
X123233748Y-39485858D01*
X123219605Y-39500000D01*
X124175413Y-40455808D01*
X124237280Y-40433400D01*
X124310013Y-40542252D01*
X124537748Y-40769987D01*
X124805537Y-40948918D01*
X125103088Y-41072168D01*
X125418967Y-41135000D01*
X125741033Y-41135000D01*
X126056912Y-41072168D01*
X126354463Y-40948918D01*
X126622252Y-40769987D01*
X126757239Y-40635000D01*
X128365000Y-40635000D01*
X128365001Y-43823868D01*
X126804014Y-45384856D01*
X126803603Y-45383708D01*
X126736671Y-45258486D01*
X126492702Y-45186903D01*
X125679605Y-46000000D01*
X125693748Y-46014143D01*
X125514143Y-46193748D01*
X125500000Y-46179605D01*
X124686903Y-46992702D01*
X124737457Y-47165000D01*
X121339385Y-47165000D01*
X121414759Y-47114637D01*
X121614637Y-46914759D01*
X121771680Y-46679727D01*
X121879853Y-46418574D01*
X121935000Y-46141335D01*
X121935000Y-46070512D01*
X124059783Y-46070512D01*
X124101213Y-46350130D01*
X124196397Y-46616292D01*
X124263329Y-46741514D01*
X124507298Y-46813097D01*
X125320395Y-46000000D01*
X124507298Y-45186903D01*
X124263329Y-45258486D01*
X124142429Y-45513996D01*
X124073700Y-45788184D01*
X124059783Y-46070512D01*
X121935000Y-46070512D01*
X121935000Y-45858665D01*
X121879853Y-45581426D01*
X121771680Y-45320273D01*
X121614637Y-45085241D01*
X121536694Y-45007298D01*
X124686903Y-45007298D01*
X125500000Y-45820395D01*
X126313097Y-45007298D01*
X126241514Y-44763329D01*
X125986004Y-44642429D01*
X125711816Y-44573700D01*
X125429488Y-44559783D01*
X125149870Y-44601213D01*
X124883708Y-44696397D01*
X124758486Y-44763329D01*
X124686903Y-45007298D01*
X121536694Y-45007298D01*
X121414759Y-44885363D01*
X121179727Y-44728320D01*
X120918574Y-44620147D01*
X120641335Y-44565000D01*
X120358665Y-44565000D01*
X120081426Y-44620147D01*
X119820273Y-44728320D01*
X119585241Y-44885363D01*
X119385363Y-45085241D01*
X119228320Y-45320273D01*
X119120147Y-45581426D01*
X119065000Y-45858665D01*
X119065000Y-46141335D01*
X119120147Y-46418574D01*
X119228320Y-46679727D01*
X119385363Y-46914759D01*
X119585241Y-47114637D01*
X119660615Y-47165000D01*
X116512543Y-47165000D01*
X116563097Y-46992702D01*
X115750000Y-46179605D01*
X114936903Y-46992702D01*
X114987457Y-47165000D01*
X112635000Y-47165000D01*
X112635000Y-46805743D01*
X112640490Y-46749999D01*
X112635000Y-46694255D01*
X112635000Y-46694248D01*
X112618577Y-46527501D01*
X112553676Y-46313553D01*
X112448284Y-46116377D01*
X112410644Y-46070512D01*
X114309783Y-46070512D01*
X114351213Y-46350130D01*
X114446397Y-46616292D01*
X114513329Y-46741514D01*
X114757298Y-46813097D01*
X115570395Y-46000000D01*
X115929605Y-46000000D01*
X116742702Y-46813097D01*
X116986671Y-46741514D01*
X117107571Y-46486004D01*
X117176300Y-46211816D01*
X117190217Y-45929488D01*
X117148787Y-45649870D01*
X117053603Y-45383708D01*
X116986671Y-45258486D01*
X116742702Y-45186903D01*
X115929605Y-46000000D01*
X115570395Y-46000000D01*
X114757298Y-45186903D01*
X114513329Y-45258486D01*
X114392429Y-45513996D01*
X114323700Y-45788184D01*
X114309783Y-46070512D01*
X112410644Y-46070512D01*
X112306449Y-45943551D01*
X112263135Y-45908004D01*
X112177850Y-45822719D01*
X112129853Y-45581426D01*
X112021680Y-45320273D01*
X111864637Y-45085241D01*
X111786694Y-45007298D01*
X114936903Y-45007298D01*
X115750000Y-45820395D01*
X116563097Y-45007298D01*
X116491514Y-44763329D01*
X116236004Y-44642429D01*
X115961816Y-44573700D01*
X115679488Y-44559783D01*
X115399870Y-44601213D01*
X115133708Y-44696397D01*
X115008486Y-44763329D01*
X114936903Y-45007298D01*
X111786694Y-45007298D01*
X111664759Y-44885363D01*
X111429727Y-44728320D01*
X111168574Y-44620147D01*
X110891335Y-44565000D01*
X110608665Y-44565000D01*
X110331426Y-44620147D01*
X110070273Y-44728320D01*
X109835241Y-44885363D01*
X109635363Y-45085241D01*
X109478320Y-45320273D01*
X109370147Y-45581426D01*
X109315000Y-45858665D01*
X109315000Y-46141335D01*
X109370147Y-46418574D01*
X109478320Y-46679727D01*
X109635363Y-46914759D01*
X109835241Y-47114637D01*
X110070273Y-47271680D01*
X110331426Y-47379853D01*
X110365000Y-47386531D01*
X110365000Y-48244248D01*
X110359509Y-48300000D01*
X110381423Y-48522499D01*
X110446324Y-48736447D01*
X110476848Y-48793553D01*
X110551716Y-48933623D01*
X110693551Y-49106449D01*
X110866377Y-49248284D01*
X111063553Y-49353676D01*
X111277501Y-49418577D01*
X111500000Y-49440491D01*
X111555751Y-49435000D01*
X125438251Y-49435000D01*
X125494002Y-49440491D01*
X125549753Y-49435000D01*
X125549754Y-49435000D01*
X125716501Y-49418577D01*
X125930449Y-49353676D01*
X126127625Y-49248284D01*
X126300451Y-49106449D01*
X126335998Y-49063135D01*
X126899133Y-48500000D01*
X132861928Y-48500000D01*
X132861928Y-52500000D01*
X132874188Y-52624482D01*
X132910498Y-52744180D01*
X132969463Y-52854494D01*
X133048815Y-52951185D01*
X133145506Y-53030537D01*
X133255820Y-53089502D01*
X133375518Y-53125812D01*
X133500000Y-53138072D01*
X137500000Y-53138072D01*
X137624482Y-53125812D01*
X137744180Y-53089502D01*
X137854494Y-53030537D01*
X137951185Y-52951185D01*
X138030537Y-52854494D01*
X138089502Y-52744180D01*
X138125812Y-52624482D01*
X138138072Y-52500000D01*
X138138072Y-48500000D01*
X138125812Y-48375518D01*
X138089502Y-48255820D01*
X138030537Y-48145506D01*
X137951185Y-48048815D01*
X137854494Y-47969463D01*
X137744180Y-47910498D01*
X137624482Y-47874188D01*
X137500000Y-47861928D01*
X133500000Y-47861928D01*
X133375518Y-47874188D01*
X133255820Y-47910498D01*
X133145506Y-47969463D01*
X133048815Y-48048815D01*
X132969463Y-48145506D01*
X132910498Y-48255820D01*
X132874188Y-48375518D01*
X132861928Y-48500000D01*
X126899133Y-48500000D01*
X130263146Y-45135989D01*
X130306449Y-45100451D01*
X130384013Y-45005940D01*
X130448284Y-44927625D01*
X130553676Y-44730449D01*
X130618577Y-44516501D01*
X130631493Y-44385363D01*
X130635000Y-44349754D01*
X130640491Y-44294002D01*
X130635000Y-44238250D01*
X130635000Y-40635000D01*
X131410615Y-40635000D01*
X131335241Y-40685363D01*
X131135363Y-40885241D01*
X130978320Y-41120273D01*
X130870147Y-41381426D01*
X130815000Y-41658665D01*
X130815000Y-41941335D01*
X130870147Y-42218574D01*
X130978320Y-42479727D01*
X131135363Y-42714759D01*
X131335241Y-42914637D01*
X131570273Y-43071680D01*
X131831426Y-43179853D01*
X132108665Y-43235000D01*
X132391335Y-43235000D01*
X132668574Y-43179853D01*
X132929727Y-43071680D01*
X133164759Y-42914637D01*
X133364637Y-42714759D01*
X133521680Y-42479727D01*
X133629853Y-42218574D01*
X133685000Y-41941335D01*
X133685000Y-41658665D01*
X133629853Y-41381426D01*
X133521680Y-41120273D01*
X133364637Y-40885241D01*
X133164759Y-40685363D01*
X133089385Y-40635000D01*
X139030615Y-40635000D01*
X138955241Y-40685363D01*
X138755363Y-40885241D01*
X138598320Y-41120273D01*
X138490147Y-41381426D01*
X138435000Y-41658665D01*
X138435000Y-41941335D01*
X138490147Y-42218574D01*
X138598320Y-42479727D01*
X138735000Y-42684284D01*
X138735001Y-78659867D01*
X136720898Y-80673971D01*
X136604761Y-80697072D01*
X136358167Y-80799215D01*
X136136238Y-80947503D01*
X135947503Y-81136238D01*
X135799215Y-81358167D01*
X135697072Y-81604761D01*
X135645000Y-81866544D01*
X135645000Y-82133456D01*
X135697072Y-82395239D01*
X135799215Y-82641833D01*
X135947503Y-82863762D01*
X136136238Y-83052497D01*
X136358167Y-83200785D01*
X136604761Y-83302928D01*
X136866544Y-83355000D01*
X137133456Y-83355000D01*
X137395239Y-83302928D01*
X137641833Y-83200785D01*
X137863762Y-83052497D01*
X138052497Y-82863762D01*
X138200785Y-82641833D01*
X138270000Y-82474734D01*
X138339215Y-82641833D01*
X138487503Y-82863762D01*
X138676238Y-83052497D01*
X138898167Y-83200785D01*
X139144761Y-83302928D01*
X139406544Y-83355000D01*
X139673456Y-83355000D01*
X139935239Y-83302928D01*
X140181833Y-83200785D01*
X140403762Y-83052497D01*
X140592497Y-82863762D01*
X140740785Y-82641833D01*
X140810000Y-82474734D01*
X140879215Y-82641833D01*
X141027503Y-82863762D01*
X141216238Y-83052497D01*
X141438167Y-83200785D01*
X141684761Y-83302928D01*
X141946544Y-83355000D01*
X142213456Y-83355000D01*
X142475239Y-83302928D01*
X142721833Y-83200785D01*
X142943762Y-83052497D01*
X143132497Y-82863762D01*
X143280785Y-82641833D01*
X143382928Y-82395239D01*
X143435000Y-82133456D01*
X143435000Y-81866544D01*
X143382928Y-81604761D01*
X143280785Y-81358167D01*
X143132497Y-81136238D01*
X142943762Y-80947503D01*
X142721833Y-80799215D01*
X142475239Y-80697072D01*
X142213456Y-80645000D01*
X141946544Y-80645000D01*
X141684761Y-80697072D01*
X141438167Y-80799215D01*
X141216238Y-80947503D01*
X141027503Y-81136238D01*
X140879215Y-81358167D01*
X140810000Y-81525266D01*
X140740785Y-81358167D01*
X140592497Y-81136238D01*
X140403762Y-80947503D01*
X140181833Y-80799215D01*
X139935239Y-80697072D01*
X139912569Y-80692563D01*
X140633141Y-79971991D01*
X140676449Y-79936449D01*
X140818284Y-79763623D01*
X140923676Y-79566447D01*
X140988577Y-79352499D01*
X141005000Y-79185752D01*
X141010491Y-79130000D01*
X141005000Y-79074249D01*
X141005000Y-74858665D01*
X141565000Y-74858665D01*
X141565000Y-75141335D01*
X141620147Y-75418574D01*
X141728320Y-75679727D01*
X141885363Y-75914759D01*
X142085241Y-76114637D01*
X142320273Y-76271680D01*
X142581426Y-76379853D01*
X142858665Y-76435000D01*
X143141335Y-76435000D01*
X143418574Y-76379853D01*
X143679727Y-76271680D01*
X143914759Y-76114637D01*
X144114637Y-75914759D01*
X144271680Y-75679727D01*
X144379853Y-75418574D01*
X144435000Y-75141335D01*
X144435000Y-74858665D01*
X144379853Y-74581426D01*
X144271680Y-74320273D01*
X144114637Y-74085241D01*
X143914759Y-73885363D01*
X143679727Y-73728320D01*
X143418574Y-73620147D01*
X143141335Y-73565000D01*
X142858665Y-73565000D01*
X142581426Y-73620147D01*
X142320273Y-73728320D01*
X142085241Y-73885363D01*
X141885363Y-74085241D01*
X141728320Y-74320273D01*
X141620147Y-74581426D01*
X141565000Y-74858665D01*
X141005000Y-74858665D01*
X141005000Y-72539721D01*
X148865000Y-72539721D01*
X148865000Y-72960279D01*
X148947047Y-73372756D01*
X149107988Y-73761302D01*
X149341637Y-74110983D01*
X149639017Y-74408363D01*
X149988698Y-74642012D01*
X150377244Y-74802953D01*
X150789721Y-74885000D01*
X151210279Y-74885000D01*
X151622756Y-74802953D01*
X152011302Y-74642012D01*
X152360983Y-74408363D01*
X152658363Y-74110983D01*
X152892012Y-73761302D01*
X153052953Y-73372756D01*
X153135000Y-72960279D01*
X153135000Y-72539721D01*
X153052953Y-72127244D01*
X152892012Y-71738698D01*
X152658363Y-71389017D01*
X152360983Y-71091637D01*
X152011302Y-70857988D01*
X151622756Y-70697047D01*
X151210279Y-70615000D01*
X150789721Y-70615000D01*
X150377244Y-70697047D01*
X149988698Y-70857988D01*
X149639017Y-71091637D01*
X149341637Y-71389017D01*
X149107988Y-71738698D01*
X148947047Y-72127244D01*
X148865000Y-72539721D01*
X141005000Y-72539721D01*
X141005000Y-70858665D01*
X141565000Y-70858665D01*
X141565000Y-71141335D01*
X141620147Y-71418574D01*
X141728320Y-71679727D01*
X141885363Y-71914759D01*
X142085241Y-72114637D01*
X142320273Y-72271680D01*
X142581426Y-72379853D01*
X142858665Y-72435000D01*
X143141335Y-72435000D01*
X143418574Y-72379853D01*
X143679727Y-72271680D01*
X143914759Y-72114637D01*
X144114637Y-71914759D01*
X144271680Y-71679727D01*
X144379853Y-71418574D01*
X144435000Y-71141335D01*
X144435000Y-70858665D01*
X144379853Y-70581426D01*
X144271680Y-70320273D01*
X144114637Y-70085241D01*
X143914759Y-69885363D01*
X143679727Y-69728320D01*
X143418574Y-69620147D01*
X143141335Y-69565000D01*
X142858665Y-69565000D01*
X142581426Y-69620147D01*
X142320273Y-69728320D01*
X142085241Y-69885363D01*
X141885363Y-70085241D01*
X141728320Y-70320273D01*
X141620147Y-70581426D01*
X141565000Y-70858665D01*
X141005000Y-70858665D01*
X141005000Y-42684284D01*
X141141680Y-42479727D01*
X141148392Y-42463522D01*
X143814999Y-45130129D01*
X143815000Y-53956236D01*
X143809508Y-54011997D01*
X143831422Y-54234495D01*
X143896323Y-54448443D01*
X143896324Y-54448444D01*
X144001716Y-54645620D01*
X144143551Y-54818446D01*
X144186859Y-54853988D01*
X163934880Y-74602010D01*
X163654485Y-74718153D01*
X163362129Y-74913500D01*
X163113500Y-75162129D01*
X162918153Y-75454485D01*
X162783596Y-75779335D01*
X162715000Y-76124193D01*
X162715000Y-76475807D01*
X162783596Y-76820665D01*
X162918153Y-77145515D01*
X163113500Y-77437871D01*
X163362129Y-77686500D01*
X163654485Y-77881847D01*
X163979335Y-78016404D01*
X164324193Y-78085000D01*
X164675807Y-78085000D01*
X165020665Y-78016404D01*
X165345515Y-77881847D01*
X165637871Y-77686500D01*
X165886500Y-77437871D01*
X166081847Y-77145515D01*
X166197990Y-76865120D01*
X175365000Y-86032130D01*
X175365001Y-87111581D01*
X175362129Y-87113500D01*
X175113500Y-87362129D01*
X174918153Y-87654485D01*
X174783596Y-87979335D01*
X174715000Y-88324193D01*
X174715000Y-88675807D01*
X174783596Y-89020665D01*
X174918153Y-89345515D01*
X175113500Y-89637871D01*
X175362129Y-89886500D01*
X175654485Y-90081847D01*
X175979335Y-90216404D01*
X176324193Y-90285000D01*
X176675807Y-90285000D01*
X177020665Y-90216404D01*
X177345515Y-90081847D01*
X177637871Y-89886500D01*
X177886500Y-89637871D01*
X178081847Y-89345515D01*
X178216404Y-89020665D01*
X178285000Y-88675807D01*
X178285000Y-88324193D01*
X181215000Y-88324193D01*
X181215000Y-88675807D01*
X181283596Y-89020665D01*
X181418153Y-89345515D01*
X181613500Y-89637871D01*
X181862129Y-89886500D01*
X182154485Y-90081847D01*
X182479335Y-90216404D01*
X182824193Y-90285000D01*
X183175807Y-90285000D01*
X183520665Y-90216404D01*
X183845515Y-90081847D01*
X184137871Y-89886500D01*
X184386500Y-89637871D01*
X184578850Y-89350000D01*
X187211928Y-89350000D01*
X187211928Y-91650000D01*
X187224188Y-91774482D01*
X187260498Y-91894180D01*
X187319463Y-92004494D01*
X187398815Y-92101185D01*
X187495506Y-92180537D01*
X187605820Y-92239502D01*
X187725518Y-92275812D01*
X187850000Y-92288072D01*
X190150000Y-92288072D01*
X190274482Y-92275812D01*
X190394180Y-92239502D01*
X190504494Y-92180537D01*
X190601185Y-92101185D01*
X190680537Y-92004494D01*
X190739502Y-91894180D01*
X190775812Y-91774482D01*
X190788072Y-91650000D01*
X190788072Y-89350000D01*
X190775812Y-89225518D01*
X190739502Y-89105820D01*
X190680537Y-88995506D01*
X190601185Y-88898815D01*
X190504494Y-88819463D01*
X190394180Y-88760498D01*
X190274482Y-88724188D01*
X190150000Y-88711928D01*
X187850000Y-88711928D01*
X187725518Y-88724188D01*
X187605820Y-88760498D01*
X187495506Y-88819463D01*
X187398815Y-88898815D01*
X187319463Y-88995506D01*
X187260498Y-89105820D01*
X187224188Y-89225518D01*
X187211928Y-89350000D01*
X184578850Y-89350000D01*
X184581847Y-89345515D01*
X184716404Y-89020665D01*
X184785000Y-88675807D01*
X184785000Y-88324193D01*
X193215000Y-88324193D01*
X193215000Y-88675807D01*
X193283596Y-89020665D01*
X193418153Y-89345515D01*
X193613500Y-89637871D01*
X193862129Y-89886500D01*
X194154485Y-90081847D01*
X194479335Y-90216404D01*
X194824193Y-90285000D01*
X195175807Y-90285000D01*
X195520665Y-90216404D01*
X195845515Y-90081847D01*
X196137871Y-89886500D01*
X196386500Y-89637871D01*
X196581847Y-89345515D01*
X196716404Y-89020665D01*
X196785000Y-88675807D01*
X196785000Y-88324193D01*
X196716404Y-87979335D01*
X196581847Y-87654485D01*
X196386500Y-87362129D01*
X196137871Y-87113500D01*
X195845515Y-86918153D01*
X195520665Y-86783596D01*
X195175807Y-86715000D01*
X194824193Y-86715000D01*
X194479335Y-86783596D01*
X194154485Y-86918153D01*
X193862129Y-87113500D01*
X193613500Y-87362129D01*
X193418153Y-87654485D01*
X193283596Y-87979335D01*
X193215000Y-88324193D01*
X184785000Y-88324193D01*
X184784326Y-88320805D01*
X188533136Y-84571997D01*
X188576439Y-84536459D01*
X188718274Y-84363633D01*
X188823666Y-84166457D01*
X188888567Y-83952509D01*
X188904990Y-83785762D01*
X188904990Y-83785761D01*
X188910481Y-83730010D01*
X188904990Y-83674258D01*
X188904990Y-76124193D01*
X193215000Y-76124193D01*
X193215000Y-76475807D01*
X193283596Y-76820665D01*
X193418153Y-77145515D01*
X193613500Y-77437871D01*
X193862129Y-77686500D01*
X194154485Y-77881847D01*
X194479335Y-78016404D01*
X194824193Y-78085000D01*
X195175807Y-78085000D01*
X195520665Y-78016404D01*
X195845515Y-77881847D01*
X196137871Y-77686500D01*
X196386500Y-77437871D01*
X196581847Y-77145515D01*
X196716404Y-76820665D01*
X196785000Y-76475807D01*
X196785000Y-76124193D01*
X196716404Y-75779335D01*
X196581847Y-75454485D01*
X196386500Y-75162129D01*
X196137871Y-74913500D01*
X195845515Y-74718153D01*
X195520665Y-74583596D01*
X195175807Y-74515000D01*
X194824193Y-74515000D01*
X194479335Y-74583596D01*
X194154485Y-74718153D01*
X193862129Y-74913500D01*
X193613500Y-75162129D01*
X193418153Y-75454485D01*
X193283596Y-75779335D01*
X193215000Y-76124193D01*
X188904990Y-76124193D01*
X188904990Y-68837480D01*
X189007502Y-68868577D01*
X189230000Y-68890491D01*
X189452499Y-68868577D01*
X189666447Y-68803676D01*
X189677621Y-68797703D01*
X189755820Y-68839502D01*
X189875518Y-68875812D01*
X190000000Y-68888072D01*
X190214250Y-68885000D01*
X190373000Y-68726250D01*
X190373000Y-67627000D01*
X190627000Y-67627000D01*
X190627000Y-68726250D01*
X190785750Y-68885000D01*
X191000000Y-68888072D01*
X191124482Y-68875812D01*
X191244180Y-68839502D01*
X191354494Y-68780537D01*
X191451185Y-68701185D01*
X191530537Y-68604494D01*
X191589502Y-68494180D01*
X191625812Y-68374482D01*
X191638072Y-68250000D01*
X191635000Y-67785750D01*
X191476250Y-67627000D01*
X190627000Y-67627000D01*
X190373000Y-67627000D01*
X190365000Y-67627000D01*
X190365000Y-67373000D01*
X190373000Y-67373000D01*
X190373000Y-66273750D01*
X190627000Y-66273750D01*
X190627000Y-67373000D01*
X191476250Y-67373000D01*
X191635000Y-67214250D01*
X191638072Y-66750000D01*
X191625812Y-66625518D01*
X191589502Y-66505820D01*
X191530537Y-66395506D01*
X191451185Y-66298815D01*
X191354494Y-66219463D01*
X191244180Y-66160498D01*
X191124482Y-66124188D01*
X191000000Y-66111928D01*
X190785750Y-66115000D01*
X190627000Y-66273750D01*
X190373000Y-66273750D01*
X190214250Y-66115000D01*
X190000000Y-66111928D01*
X189875518Y-66124188D01*
X189755820Y-66160498D01*
X189677621Y-66202297D01*
X189666446Y-66196324D01*
X189452498Y-66131423D01*
X189230000Y-66109509D01*
X189007501Y-66131423D01*
X188793553Y-66196324D01*
X188644221Y-66276143D01*
X188576439Y-66193551D01*
X188403613Y-66051716D01*
X188206437Y-65946324D01*
X187992489Y-65881423D01*
X187769990Y-65859509D01*
X187547492Y-65881423D01*
X187333544Y-65946324D01*
X187136368Y-66051716D01*
X186963542Y-66193551D01*
X186821707Y-66366377D01*
X186716315Y-66563553D01*
X186651414Y-66777501D01*
X186634991Y-66944248D01*
X186634990Y-83259877D01*
X183179195Y-86715674D01*
X183175807Y-86715000D01*
X182824193Y-86715000D01*
X182479335Y-86783596D01*
X182154485Y-86918153D01*
X181862129Y-87113500D01*
X181613500Y-87362129D01*
X181418153Y-87654485D01*
X181283596Y-87979335D01*
X181215000Y-88324193D01*
X178285000Y-88324193D01*
X178216404Y-87979335D01*
X178081847Y-87654485D01*
X177886500Y-87362129D01*
X177637871Y-87113500D01*
X177635000Y-87111582D01*
X177635000Y-85617739D01*
X177640490Y-85561997D01*
X177635000Y-85506255D01*
X177635000Y-85506246D01*
X177618577Y-85339499D01*
X177553676Y-85125551D01*
X177448284Y-84928375D01*
X177306449Y-84755549D01*
X177263141Y-84720007D01*
X146084999Y-53541866D01*
X146084999Y-47375369D01*
X146288184Y-47426300D01*
X146570512Y-47440217D01*
X146850130Y-47398787D01*
X147116292Y-47303603D01*
X147241514Y-47236671D01*
X147313097Y-46992702D01*
X146500000Y-46179605D01*
X146485858Y-46193748D01*
X146306253Y-46014143D01*
X146320395Y-46000000D01*
X146679605Y-46000000D01*
X147492702Y-46813097D01*
X147736671Y-46741514D01*
X147857571Y-46486004D01*
X147926300Y-46211816D01*
X147940217Y-45929488D01*
X147898787Y-45649870D01*
X147803603Y-45383708D01*
X147736671Y-45258486D01*
X147492702Y-45186903D01*
X146679605Y-46000000D01*
X146320395Y-46000000D01*
X146306253Y-45985858D01*
X146485858Y-45806253D01*
X146500000Y-45820395D01*
X147313097Y-45007298D01*
X147241514Y-44763329D01*
X146986004Y-44642429D01*
X146711816Y-44573700D01*
X146429488Y-44559783D01*
X146149870Y-44601213D01*
X146086918Y-44623726D01*
X146068576Y-44437498D01*
X146003675Y-44223550D01*
X145898283Y-44026374D01*
X145876638Y-44000000D01*
X145756448Y-43853548D01*
X145713140Y-43818006D01*
X140780132Y-38884999D01*
X144781928Y-38884999D01*
X144781928Y-40500000D01*
X144794188Y-40624482D01*
X144830498Y-40744180D01*
X144889463Y-40854494D01*
X144968815Y-40951185D01*
X145065506Y-41030537D01*
X145175820Y-41089502D01*
X145295518Y-41125812D01*
X145420000Y-41138072D01*
X147034711Y-41138072D01*
X147024672Y-41240003D01*
X147065894Y-41658536D01*
X147187976Y-42060985D01*
X147386225Y-42431884D01*
X147586166Y-42675513D01*
X148596162Y-43685509D01*
X148663022Y-43766978D01*
X148988118Y-44033778D01*
X149352082Y-44228320D01*
X149359017Y-44232027D01*
X149761465Y-44354109D01*
X149795540Y-44357465D01*
X150075117Y-44385001D01*
X150075124Y-44385001D01*
X150179999Y-44395330D01*
X150284873Y-44385001D01*
X150639658Y-44385001D01*
X150935322Y-44680665D01*
X150820273Y-44728320D01*
X150585241Y-44885363D01*
X150385363Y-45085241D01*
X150228320Y-45320273D01*
X150120147Y-45581426D01*
X150065000Y-45858665D01*
X150065000Y-46141335D01*
X150120147Y-46418574D01*
X150228320Y-46679727D01*
X150385363Y-46914759D01*
X150585241Y-47114637D01*
X150820273Y-47271680D01*
X151081426Y-47379853D01*
X151358665Y-47435000D01*
X151641335Y-47435000D01*
X151915002Y-47380564D01*
X151915001Y-57495131D01*
X151904672Y-57600003D01*
X151915001Y-57704875D01*
X151915001Y-57704884D01*
X151945893Y-58018535D01*
X152067975Y-58420984D01*
X152266224Y-58791884D01*
X152533024Y-59116980D01*
X152614493Y-59183840D01*
X171166165Y-77735513D01*
X171233021Y-77816977D01*
X171314485Y-77883833D01*
X171314487Y-77883835D01*
X171443251Y-77989509D01*
X171558117Y-78083777D01*
X171929016Y-78282026D01*
X172331465Y-78404108D01*
X172645116Y-78435000D01*
X172645125Y-78435000D01*
X172749997Y-78445329D01*
X172854869Y-78435000D01*
X176604882Y-78435000D01*
X176918533Y-78404108D01*
X177320982Y-78282026D01*
X177691881Y-78083777D01*
X178016977Y-77816977D01*
X178283777Y-77491881D01*
X178482026Y-77120982D01*
X178604108Y-76718533D01*
X178645330Y-76300000D01*
X178628015Y-76124193D01*
X181215000Y-76124193D01*
X181215000Y-76475807D01*
X181283596Y-76820665D01*
X181418153Y-77145515D01*
X181613500Y-77437871D01*
X181862129Y-77686500D01*
X182154485Y-77881847D01*
X182479335Y-78016404D01*
X182824193Y-78085000D01*
X183175807Y-78085000D01*
X183520665Y-78016404D01*
X183845515Y-77881847D01*
X184137871Y-77686500D01*
X184386500Y-77437871D01*
X184581847Y-77145515D01*
X184716404Y-76820665D01*
X184785000Y-76475807D01*
X184785000Y-76124193D01*
X184716404Y-75779335D01*
X184581847Y-75454485D01*
X184386500Y-75162129D01*
X184137871Y-74913500D01*
X183845515Y-74718153D01*
X183520665Y-74583596D01*
X183175807Y-74515000D01*
X182824193Y-74515000D01*
X182479335Y-74583596D01*
X182154485Y-74718153D01*
X181862129Y-74913500D01*
X181613500Y-75162129D01*
X181418153Y-75454485D01*
X181283596Y-75779335D01*
X181215000Y-76124193D01*
X178628015Y-76124193D01*
X178604108Y-75881467D01*
X178482026Y-75479018D01*
X178283777Y-75108119D01*
X178016977Y-74783023D01*
X177691881Y-74516223D01*
X177320982Y-74317974D01*
X176918533Y-74195892D01*
X176604882Y-74165000D01*
X173634344Y-74165000D01*
X166663593Y-67194249D01*
X168325000Y-67194249D01*
X168325000Y-67805752D01*
X168341423Y-67972499D01*
X168406324Y-68186447D01*
X168511717Y-68383623D01*
X168653552Y-68556449D01*
X168826378Y-68698284D01*
X169023554Y-68803676D01*
X169237502Y-68868577D01*
X169460000Y-68890491D01*
X169682499Y-68868577D01*
X169896447Y-68803676D01*
X170093623Y-68698284D01*
X170095001Y-68697154D01*
X170096378Y-68698284D01*
X170293554Y-68803676D01*
X170507502Y-68868577D01*
X170730000Y-68890491D01*
X170952499Y-68868577D01*
X171166447Y-68803676D01*
X171177621Y-68797703D01*
X171255820Y-68839502D01*
X171375518Y-68875812D01*
X171500000Y-68888072D01*
X171714250Y-68885000D01*
X171873000Y-68726250D01*
X171873000Y-67627000D01*
X172127000Y-67627000D01*
X172127000Y-68726250D01*
X172285750Y-68885000D01*
X172500000Y-68888072D01*
X172624482Y-68875812D01*
X172744180Y-68839502D01*
X172854494Y-68780537D01*
X172951185Y-68701185D01*
X173030537Y-68604494D01*
X173089502Y-68494180D01*
X173097128Y-68469040D01*
X175108091Y-68469040D01*
X175202930Y-68733881D01*
X175347615Y-68975131D01*
X175536586Y-69183519D01*
X175762580Y-69351037D01*
X176016913Y-69471246D01*
X176150961Y-69511904D01*
X176373000Y-69389915D01*
X176373000Y-68247000D01*
X176627000Y-68247000D01*
X176627000Y-69389915D01*
X176849039Y-69511904D01*
X176983087Y-69471246D01*
X177237420Y-69351037D01*
X177463414Y-69183519D01*
X177652385Y-68975131D01*
X177797070Y-68733881D01*
X177891909Y-68469040D01*
X181608091Y-68469040D01*
X181702930Y-68733881D01*
X181847615Y-68975131D01*
X182036586Y-69183519D01*
X182262580Y-69351037D01*
X182516913Y-69471246D01*
X182650961Y-69511904D01*
X182873000Y-69389915D01*
X182873000Y-68247000D01*
X183127000Y-68247000D01*
X183127000Y-69389915D01*
X183349039Y-69511904D01*
X183483087Y-69471246D01*
X183737420Y-69351037D01*
X183963414Y-69183519D01*
X184152385Y-68975131D01*
X184297070Y-68733881D01*
X184391909Y-68469040D01*
X184270624Y-68247000D01*
X183127000Y-68247000D01*
X182873000Y-68247000D01*
X181729376Y-68247000D01*
X181608091Y-68469040D01*
X177891909Y-68469040D01*
X177770624Y-68247000D01*
X176627000Y-68247000D01*
X176373000Y-68247000D01*
X175229376Y-68247000D01*
X175108091Y-68469040D01*
X173097128Y-68469040D01*
X173125812Y-68374482D01*
X173138072Y-68250000D01*
X173135000Y-67785750D01*
X173120210Y-67770960D01*
X175108091Y-67770960D01*
X175229376Y-67993000D01*
X176373000Y-67993000D01*
X176373000Y-66850085D01*
X176627000Y-66850085D01*
X176627000Y-67993000D01*
X177770624Y-67993000D01*
X177891909Y-67770960D01*
X181608091Y-67770960D01*
X181729376Y-67993000D01*
X182873000Y-67993000D01*
X182873000Y-66850085D01*
X183127000Y-66850085D01*
X183127000Y-67993000D01*
X184270624Y-67993000D01*
X184391909Y-67770960D01*
X184297070Y-67506119D01*
X184152385Y-67264869D01*
X183963414Y-67056481D01*
X183737420Y-66888963D01*
X183483087Y-66768754D01*
X183349039Y-66728096D01*
X183127000Y-66850085D01*
X182873000Y-66850085D01*
X182650961Y-66728096D01*
X182516913Y-66768754D01*
X182262580Y-66888963D01*
X182036586Y-67056481D01*
X181847615Y-67264869D01*
X181702930Y-67506119D01*
X181608091Y-67770960D01*
X177891909Y-67770960D01*
X177797070Y-67506119D01*
X177652385Y-67264869D01*
X177463414Y-67056481D01*
X177237420Y-66888963D01*
X176983087Y-66768754D01*
X176849039Y-66728096D01*
X176627000Y-66850085D01*
X176373000Y-66850085D01*
X176150961Y-66728096D01*
X176016913Y-66768754D01*
X175762580Y-66888963D01*
X175536586Y-67056481D01*
X175347615Y-67264869D01*
X175202930Y-67506119D01*
X175108091Y-67770960D01*
X173120210Y-67770960D01*
X172976250Y-67627000D01*
X172127000Y-67627000D01*
X171873000Y-67627000D01*
X171865000Y-67627000D01*
X171865000Y-67373000D01*
X171873000Y-67373000D01*
X171873000Y-66273750D01*
X172127000Y-66273750D01*
X172127000Y-67373000D01*
X172976250Y-67373000D01*
X173135000Y-67214250D01*
X173138072Y-66750000D01*
X173125812Y-66625518D01*
X173089502Y-66505820D01*
X173030537Y-66395506D01*
X172951185Y-66298815D01*
X172854494Y-66219463D01*
X172744180Y-66160498D01*
X172624482Y-66124188D01*
X172500000Y-66111928D01*
X172285750Y-66115000D01*
X172127000Y-66273750D01*
X171873000Y-66273750D01*
X171714250Y-66115000D01*
X171500000Y-66111928D01*
X171375518Y-66124188D01*
X171255820Y-66160498D01*
X171177621Y-66202297D01*
X171166446Y-66196324D01*
X170952498Y-66131423D01*
X170730000Y-66109509D01*
X170507501Y-66131423D01*
X170293553Y-66196324D01*
X170096377Y-66301716D01*
X170095000Y-66302846D01*
X170093623Y-66301716D01*
X169896446Y-66196324D01*
X169682498Y-66131423D01*
X169460000Y-66109509D01*
X169237501Y-66131423D01*
X169023553Y-66196324D01*
X168826377Y-66301716D01*
X168653551Y-66443551D01*
X168511716Y-66616377D01*
X168406324Y-66813554D01*
X168341423Y-67027502D01*
X168325000Y-67194249D01*
X166663593Y-67194249D01*
X162607890Y-63138547D01*
X163039159Y-63092273D01*
X163534526Y-62937279D01*
X163951772Y-62714258D01*
X164167894Y-62347499D01*
X162500000Y-60679605D01*
X162485858Y-60693748D01*
X162306253Y-60514143D01*
X162320395Y-60500000D01*
X162679605Y-60500000D01*
X164347499Y-62167894D01*
X164714258Y-61951772D01*
X164954938Y-61491895D01*
X165101275Y-60993902D01*
X165147648Y-60476929D01*
X165134959Y-60358665D01*
X175065000Y-60358665D01*
X175065000Y-60641335D01*
X175120147Y-60918574D01*
X175228320Y-61179727D01*
X175385363Y-61414759D01*
X175585241Y-61614637D01*
X175820273Y-61771680D01*
X176081426Y-61879853D01*
X176358665Y-61935000D01*
X176641335Y-61935000D01*
X176918574Y-61879853D01*
X177179727Y-61771680D01*
X177414759Y-61614637D01*
X177614637Y-61414759D01*
X177771680Y-61179727D01*
X177879853Y-60918574D01*
X177935000Y-60641335D01*
X177935000Y-60358665D01*
X177879853Y-60081426D01*
X177771680Y-59820273D01*
X177614637Y-59585241D01*
X177414759Y-59385363D01*
X177179727Y-59228320D01*
X176918574Y-59120147D01*
X176641335Y-59065000D01*
X176358665Y-59065000D01*
X176081426Y-59120147D01*
X175820273Y-59228320D01*
X175585241Y-59385363D01*
X175385363Y-59585241D01*
X175228320Y-59820273D01*
X175120147Y-60081426D01*
X175065000Y-60358665D01*
X165134959Y-60358665D01*
X165092273Y-59960841D01*
X164937279Y-59465474D01*
X164714258Y-59048228D01*
X164347499Y-58832106D01*
X162679605Y-60500000D01*
X162320395Y-60500000D01*
X160652501Y-58832106D01*
X160285742Y-59048228D01*
X160045062Y-59508105D01*
X159898725Y-60006098D01*
X159863882Y-60394538D01*
X158121845Y-58652501D01*
X160832106Y-58652501D01*
X162500000Y-60320395D01*
X164167894Y-58652501D01*
X163951772Y-58285742D01*
X163491895Y-58045062D01*
X162993902Y-57898725D01*
X162476929Y-57852352D01*
X161960841Y-57907727D01*
X161465474Y-58062721D01*
X161048228Y-58285742D01*
X160832106Y-58652501D01*
X158121845Y-58652501D01*
X156185001Y-56715658D01*
X156185001Y-48500000D01*
X159861928Y-48500000D01*
X159861928Y-52500000D01*
X159874188Y-52624482D01*
X159910498Y-52744180D01*
X159969463Y-52854494D01*
X160048815Y-52951185D01*
X160145506Y-53030537D01*
X160255820Y-53089502D01*
X160375518Y-53125812D01*
X160500000Y-53138072D01*
X164500000Y-53138072D01*
X164624482Y-53125812D01*
X164744180Y-53089502D01*
X164854494Y-53030537D01*
X164951185Y-52951185D01*
X165030537Y-52854494D01*
X165089502Y-52744180D01*
X165125812Y-52624482D01*
X165138072Y-52500000D01*
X165138072Y-52126890D01*
X192558524Y-52126890D01*
X192579643Y-52237493D01*
X192698138Y-52505608D01*
X192866663Y-52745454D01*
X193078741Y-52947814D01*
X193326223Y-53104911D01*
X193599598Y-53210708D01*
X193888360Y-53261140D01*
X194123000Y-53101496D01*
X194123000Y-51897000D01*
X192679845Y-51897000D01*
X192558524Y-52126890D01*
X165138072Y-52126890D01*
X165138072Y-48500000D01*
X165125812Y-48375518D01*
X165089502Y-48255820D01*
X165030537Y-48145506D01*
X164951185Y-48048815D01*
X164854494Y-47969463D01*
X164744180Y-47910498D01*
X164624482Y-47874188D01*
X164500000Y-47861928D01*
X160500000Y-47861928D01*
X160375518Y-47874188D01*
X160255820Y-47910498D01*
X160145506Y-47969463D01*
X160048815Y-48048815D01*
X159969463Y-48145506D01*
X159910498Y-48255820D01*
X159874188Y-48375518D01*
X159861928Y-48500000D01*
X156185001Y-48500000D01*
X156185001Y-44880873D01*
X156195330Y-44775999D01*
X156185001Y-44671124D01*
X156185001Y-44671117D01*
X156156469Y-44381423D01*
X156154109Y-44357465D01*
X156032027Y-43955017D01*
X155977791Y-43853548D01*
X155833778Y-43584118D01*
X155686741Y-43404953D01*
X155633837Y-43340489D01*
X155633834Y-43340486D01*
X155566978Y-43259022D01*
X155485514Y-43192166D01*
X153107838Y-40814491D01*
X153040980Y-40733024D01*
X152783635Y-40521826D01*
X152948918Y-40274463D01*
X153072168Y-39976912D01*
X153135000Y-39661033D01*
X153135000Y-39338967D01*
X153072168Y-39023088D01*
X153014970Y-38884999D01*
X154989868Y-38884999D01*
X155575000Y-39470132D01*
X155575001Y-40844239D01*
X155569509Y-40900000D01*
X155591423Y-41122498D01*
X155656324Y-41336446D01*
X155705384Y-41428230D01*
X155761717Y-41533623D01*
X155903552Y-41706449D01*
X155946860Y-41741991D01*
X160467998Y-46263130D01*
X160503540Y-46306438D01*
X160676366Y-46448273D01*
X160873542Y-46553665D01*
X161087490Y-46618566D01*
X161240358Y-46633622D01*
X161309989Y-46640480D01*
X161365741Y-46634989D01*
X184365700Y-46634989D01*
X184570273Y-46771680D01*
X184831426Y-46879853D01*
X185072718Y-46927850D01*
X188138013Y-49993146D01*
X188173551Y-50036449D01*
X188216854Y-50071987D01*
X188216856Y-50071989D01*
X188346377Y-50178284D01*
X188543553Y-50283676D01*
X188757501Y-50348577D01*
X188980000Y-50370491D01*
X189035752Y-50365000D01*
X192582317Y-50365000D01*
X192619463Y-50434494D01*
X192698815Y-50531185D01*
X192795506Y-50610537D01*
X192905820Y-50669502D01*
X192975545Y-50690653D01*
X192866663Y-50794546D01*
X192698138Y-51034392D01*
X192579643Y-51302507D01*
X192558524Y-51413110D01*
X192679845Y-51643000D01*
X194123000Y-51643000D01*
X194123000Y-51623000D01*
X194377000Y-51623000D01*
X194377000Y-51643000D01*
X194397000Y-51643000D01*
X194397000Y-51897000D01*
X194377000Y-51897000D01*
X194377000Y-53101496D01*
X194611640Y-53261140D01*
X194900402Y-53210708D01*
X194965002Y-53185708D01*
X194965002Y-53701928D01*
X193150000Y-53701928D01*
X193025518Y-53714188D01*
X192905820Y-53750498D01*
X192795506Y-53809463D01*
X192698815Y-53888815D01*
X192619463Y-53985506D01*
X192582317Y-54055000D01*
X188365751Y-54055000D01*
X188309999Y-54049509D01*
X188254248Y-54055000D01*
X188087501Y-54071423D01*
X187873553Y-54136324D01*
X187676377Y-54241716D01*
X187503551Y-54383551D01*
X187468009Y-54426859D01*
X182822719Y-59072150D01*
X182581426Y-59120147D01*
X182320273Y-59228320D01*
X182085241Y-59385363D01*
X181885363Y-59585241D01*
X181728320Y-59820273D01*
X181620147Y-60081426D01*
X181565000Y-60358665D01*
X181565000Y-60641335D01*
X181620147Y-60918574D01*
X181728320Y-61179727D01*
X181885363Y-61414759D01*
X182085241Y-61614637D01*
X182320273Y-61771680D01*
X182581426Y-61879853D01*
X182858665Y-61935000D01*
X183141335Y-61935000D01*
X183418574Y-61879853D01*
X183679727Y-61771680D01*
X183914759Y-61614637D01*
X184114637Y-61414759D01*
X184271680Y-61179727D01*
X184379853Y-60918574D01*
X184427850Y-60677281D01*
X188780132Y-56325000D01*
X192582317Y-56325000D01*
X192619463Y-56394494D01*
X192698815Y-56491185D01*
X192795506Y-56570537D01*
X192905820Y-56629502D01*
X192974687Y-56650393D01*
X192944866Y-56674866D01*
X192759294Y-56900986D01*
X192621401Y-57158966D01*
X192536487Y-57438889D01*
X192507815Y-57730000D01*
X192536487Y-58021111D01*
X192621401Y-58301034D01*
X192759294Y-58559014D01*
X192944866Y-58785134D01*
X193170986Y-58970706D01*
X193225791Y-59000000D01*
X193170986Y-59029294D01*
X192944866Y-59214866D01*
X192759294Y-59440986D01*
X192621401Y-59698966D01*
X192536487Y-59978889D01*
X192507815Y-60270000D01*
X192536487Y-60561111D01*
X192621401Y-60841034D01*
X192759294Y-61099014D01*
X192944866Y-61325134D01*
X193170986Y-61510706D01*
X193225791Y-61540000D01*
X193170986Y-61569294D01*
X192944866Y-61754866D01*
X192759294Y-61980986D01*
X192621401Y-62238966D01*
X192536487Y-62518889D01*
X192507815Y-62810000D01*
X192536487Y-63101111D01*
X192621401Y-63381034D01*
X192759294Y-63639014D01*
X192944866Y-63865134D01*
X193170986Y-64050706D01*
X193428966Y-64188599D01*
X193708889Y-64273513D01*
X193927050Y-64295000D01*
X194572950Y-64295000D01*
X194791111Y-64273513D01*
X195071034Y-64188599D01*
X195329014Y-64050706D01*
X195555134Y-63865134D01*
X195740706Y-63639014D01*
X195878599Y-63381034D01*
X195963513Y-63101111D01*
X195992185Y-62810000D01*
X195963513Y-62518889D01*
X195878599Y-62238966D01*
X195740706Y-61980986D01*
X195555134Y-61754866D01*
X195329014Y-61569294D01*
X195274209Y-61540000D01*
X195329014Y-61510706D01*
X195555134Y-61325134D01*
X195740706Y-61099014D01*
X195878599Y-60841034D01*
X195963513Y-60561111D01*
X195992185Y-60270000D01*
X195963513Y-59978889D01*
X195923755Y-59847824D01*
X196445050Y-59326529D01*
X196478818Y-59298816D01*
X196589412Y-59164058D01*
X196671590Y-59010312D01*
X196722196Y-58843489D01*
X196735001Y-58713476D01*
X196735001Y-58713466D01*
X196739282Y-58670000D01*
X196735001Y-58626534D01*
X196735001Y-47392097D01*
X196739282Y-47348630D01*
X196735001Y-47305164D01*
X196735001Y-47305154D01*
X196722196Y-47175141D01*
X196671590Y-47008318D01*
X196589412Y-46854572D01*
X196514378Y-46763143D01*
X196506533Y-46753584D01*
X196506531Y-46753582D01*
X196478818Y-46719814D01*
X196445051Y-46692102D01*
X194657904Y-44904956D01*
X194630187Y-44871183D01*
X194495429Y-44760589D01*
X194341683Y-44678411D01*
X194174860Y-44627805D01*
X194044847Y-44615000D01*
X194044839Y-44615000D01*
X194001681Y-44610750D01*
X193984637Y-44585241D01*
X193784759Y-44385363D01*
X193549727Y-44228320D01*
X193288574Y-44120147D01*
X193011335Y-44065000D01*
X192728665Y-44065000D01*
X192693561Y-44071983D01*
X192026534Y-43404956D01*
X191998817Y-43371183D01*
X191864059Y-43260589D01*
X191710313Y-43178411D01*
X191543490Y-43127805D01*
X191413477Y-43115000D01*
X191413469Y-43115000D01*
X191370000Y-43110719D01*
X191326531Y-43115000D01*
X161946579Y-43115000D01*
X159366578Y-40535000D01*
X159377002Y-40535000D01*
X159377002Y-40367955D01*
X159551874Y-40494119D01*
X159774976Y-40414276D01*
X159962764Y-40292369D01*
X160123161Y-40136169D01*
X160250003Y-39951678D01*
X160338415Y-39745987D01*
X160385000Y-39527000D01*
X160385000Y-39127000D01*
X159377000Y-39127000D01*
X159377000Y-39147000D01*
X159123000Y-39147000D01*
X159123000Y-39127000D01*
X159115000Y-39127000D01*
X159115000Y-38873000D01*
X159123000Y-38873000D01*
X159123000Y-38853000D01*
X159377000Y-38853000D01*
X159377000Y-38873000D01*
X160385000Y-38873000D01*
X160385000Y-38473000D01*
X160338415Y-38254013D01*
X160250003Y-38048322D01*
X160123161Y-37863831D01*
X159962764Y-37707631D01*
X159889392Y-37660000D01*
X161821928Y-37660000D01*
X161821928Y-40600000D01*
G04 #@! TA.AperFunction,Conductor*
D40*
G36*
X161821928Y-40600000D02*
G01*
X161834188Y-40724482D01*
X161870498Y-40844180D01*
X161929463Y-40954494D01*
X162008815Y-41051185D01*
X162105506Y-41130537D01*
X162215820Y-41189502D01*
X162335518Y-41225812D01*
X162460000Y-41238072D01*
X168200000Y-41238072D01*
X168324482Y-41225812D01*
X168444180Y-41189502D01*
X168554494Y-41130537D01*
X168651185Y-41051185D01*
X168730537Y-40954494D01*
X168789502Y-40844180D01*
X168825812Y-40724482D01*
X168838072Y-40600000D01*
X168838072Y-37660000D01*
X172507348Y-37660000D01*
X172319369Y-37941331D01*
X172150890Y-38348075D01*
X172065000Y-38779872D01*
X172065000Y-39220128D01*
X172150890Y-39651925D01*
X172319369Y-40058669D01*
X172563962Y-40424729D01*
X172875271Y-40736038D01*
X173241331Y-40980631D01*
X173648075Y-41149110D01*
X174079872Y-41235000D01*
X174520128Y-41235000D01*
X174951925Y-41149110D01*
X175358669Y-40980631D01*
X175724729Y-40736038D01*
X176036038Y-40424729D01*
X176280631Y-40058669D01*
X176449110Y-39651925D01*
X176535000Y-39220128D01*
X176535000Y-38779872D01*
X176449110Y-38348075D01*
X176280631Y-37941331D01*
X176092652Y-37660000D01*
X180207348Y-37660000D01*
X180019369Y-37941331D01*
X179850890Y-38348075D01*
X179765000Y-38779872D01*
X179765000Y-39220128D01*
X179850890Y-39651925D01*
X180019369Y-40058669D01*
X180263962Y-40424729D01*
X180575271Y-40736038D01*
X180941331Y-40980631D01*
X181348075Y-41149110D01*
X181779872Y-41235000D01*
X182220128Y-41235000D01*
X182651925Y-41149110D01*
X183058669Y-40980631D01*
X183424729Y-40736038D01*
X183597922Y-40562845D01*
X188316761Y-40562845D01*
X188484802Y-40888643D01*
X188876607Y-41089426D01*
X189300055Y-41209914D01*
X189738873Y-41245476D01*
X190176197Y-41194746D01*
X190595221Y-41059674D01*
X190915198Y-40888643D01*
X191083239Y-40562845D01*
X189700000Y-39179605D01*
X188316761Y-40562845D01*
X183597922Y-40562845D01*
X183736038Y-40424729D01*
X183980631Y-40058669D01*
X184149110Y-39651925D01*
X184235000Y-39220128D01*
X184235000Y-38779872D01*
X184149110Y-38348075D01*
X183980631Y-37941331D01*
X183792652Y-37660000D01*
X188053323Y-37660000D01*
X187811357Y-37784802D01*
X187610574Y-38176607D01*
X187490086Y-38600055D01*
X187454524Y-39038873D01*
X187505254Y-39476197D01*
X187640326Y-39895221D01*
X187811357Y-40215198D01*
X188137155Y-40383239D01*
X189520395Y-39000000D01*
X189506252Y-38985858D01*
X189685858Y-38806252D01*
X189700000Y-38820395D01*
X189714142Y-38806252D01*
X189893748Y-38985858D01*
X189879605Y-39000000D01*
X191262845Y-40383239D01*
X191463253Y-40279872D01*
X193265000Y-40279872D01*
X193265000Y-40720128D01*
X193350890Y-41151925D01*
X193519369Y-41558669D01*
X193763962Y-41924729D01*
X194075271Y-42236038D01*
X194441331Y-42480631D01*
X194848075Y-42649110D01*
X195279872Y-42735000D01*
X195720128Y-42735000D01*
X196151925Y-42649110D01*
X196558669Y-42480631D01*
X196924729Y-42236038D01*
X197236038Y-41924729D01*
X197480631Y-41558669D01*
X197649110Y-41151925D01*
X197735000Y-40720128D01*
X197735000Y-40279872D01*
X197649110Y-39848075D01*
X197480631Y-39441331D01*
X197236038Y-39075271D01*
X196924729Y-38763962D01*
X196558669Y-38519369D01*
X196151925Y-38350890D01*
X195720128Y-38265000D01*
X195279872Y-38265000D01*
X194848075Y-38350890D01*
X194441331Y-38519369D01*
X194075271Y-38763962D01*
X193763962Y-39075271D01*
X193519369Y-39441331D01*
X193350890Y-39848075D01*
X193265000Y-40279872D01*
X191463253Y-40279872D01*
X191588643Y-40215198D01*
X191789426Y-39823393D01*
X191909914Y-39399945D01*
X191945476Y-38961127D01*
X191894746Y-38523803D01*
X191759674Y-38104779D01*
X191588643Y-37784802D01*
X191346677Y-37660000D01*
X198340000Y-37660000D01*
X198340001Y-112840000D01*
X148127000Y-112840000D01*
X148127000Y-109779872D01*
X193265000Y-109779872D01*
X193265000Y-110220128D01*
X193350890Y-110651925D01*
X193519369Y-111058669D01*
X193763962Y-111424729D01*
X194075271Y-111736038D01*
X194441331Y-111980631D01*
X194848075Y-112149110D01*
X195279872Y-112235000D01*
X195720128Y-112235000D01*
X196151925Y-112149110D01*
X196558669Y-111980631D01*
X196924729Y-111736038D01*
X197236038Y-111424729D01*
X197480631Y-111058669D01*
X197649110Y-110651925D01*
X197735000Y-110220128D01*
X197735000Y-109779872D01*
X197649110Y-109348075D01*
X197480631Y-108941331D01*
X197236038Y-108575271D01*
X196924729Y-108263962D01*
X196558669Y-108019369D01*
X196151925Y-107850890D01*
X195720128Y-107765000D01*
X195279872Y-107765000D01*
X194848075Y-107850890D01*
X194441331Y-108019369D01*
X194075271Y-108263962D01*
X193763962Y-108575271D01*
X193519369Y-108941331D01*
X193350890Y-109348075D01*
X193265000Y-109779872D01*
X148127000Y-109779872D01*
X148127000Y-104000000D01*
X153216688Y-104000000D01*
X153216688Y-107000000D01*
X153228948Y-107124482D01*
X153265258Y-107244180D01*
X153324223Y-107354494D01*
X153403575Y-107451185D01*
X153500266Y-107530537D01*
X153610580Y-107589502D01*
X153730278Y-107625812D01*
X153854760Y-107638072D01*
X156854760Y-107638072D01*
X156979242Y-107625812D01*
X157098940Y-107589502D01*
X157209254Y-107530537D01*
X157305945Y-107451185D01*
X157385297Y-107354494D01*
X157444262Y-107244180D01*
X157480572Y-107124482D01*
X157492832Y-107000000D01*
X157492832Y-105289721D01*
X158299760Y-105289721D01*
X158299760Y-105710279D01*
X158381807Y-106122756D01*
X158542748Y-106511302D01*
X158776397Y-106860983D01*
X159073777Y-107158363D01*
X159423458Y-107392012D01*
X159812004Y-107552953D01*
X160224481Y-107635000D01*
X160645039Y-107635000D01*
X161057516Y-107552953D01*
X161446062Y-107392012D01*
X161795743Y-107158363D01*
X162093123Y-106860983D01*
X162326772Y-106511302D01*
X162487713Y-106122756D01*
X162569760Y-105710279D01*
X162569760Y-105289721D01*
X162487713Y-104877244D01*
X162326772Y-104488698D01*
X162093123Y-104139017D01*
X161954106Y-104000000D01*
X166289307Y-104000000D01*
X166289307Y-107000000D01*
X166301567Y-107124482D01*
X166337877Y-107244180D01*
X166396842Y-107354494D01*
X166476194Y-107451185D01*
X166572885Y-107530537D01*
X166683199Y-107589502D01*
X166802897Y-107625812D01*
X166927379Y-107638072D01*
X169927379Y-107638072D01*
X170051861Y-107625812D01*
X170171559Y-107589502D01*
X170281873Y-107530537D01*
X170378564Y-107451185D01*
X170457916Y-107354494D01*
X170516881Y-107244180D01*
X170553191Y-107124482D01*
X170565451Y-107000000D01*
X170565451Y-106991653D01*
X172195331Y-106991653D01*
X172351341Y-107307214D01*
X172726124Y-107498020D01*
X173130930Y-107612044D01*
X173550203Y-107644902D01*
X173967830Y-107595334D01*
X174367762Y-107465243D01*
X174663417Y-107307214D01*
X174819427Y-106991653D01*
X173507379Y-105679605D01*
X172195331Y-106991653D01*
X170565451Y-106991653D01*
X170565451Y-105542824D01*
X171362477Y-105542824D01*
X171412045Y-105960451D01*
X171542136Y-106360383D01*
X171700165Y-106656038D01*
X172015726Y-106812048D01*
X173327774Y-105500000D01*
X173686984Y-105500000D01*
X174999032Y-106812048D01*
X175314593Y-106656038D01*
X175505399Y-106281255D01*
X175619423Y-105876449D01*
X175652281Y-105457176D01*
X175602713Y-105039549D01*
X175472622Y-104639617D01*
X175314593Y-104343962D01*
X174999032Y-104187952D01*
X173686984Y-105500000D01*
X173327774Y-105500000D01*
X172015726Y-104187952D01*
X171700165Y-104343962D01*
X171509359Y-104718745D01*
X171395335Y-105123551D01*
X171362477Y-105542824D01*
X170565451Y-105542824D01*
X170565451Y-104008347D01*
X172195331Y-104008347D01*
X173507379Y-105320395D01*
X174819427Y-104008347D01*
X174815301Y-104000000D01*
X179361928Y-104000000D01*
X179361928Y-107000000D01*
X179374188Y-107124482D01*
X179410498Y-107244180D01*
X179469463Y-107354494D01*
X179548815Y-107451185D01*
X179645506Y-107530537D01*
X179755820Y-107589502D01*
X179875518Y-107625812D01*
X180000000Y-107638072D01*
X183000000Y-107638072D01*
X183124482Y-107625812D01*
X183244180Y-107589502D01*
X183354494Y-107530537D01*
X183451185Y-107451185D01*
X183530537Y-107354494D01*
X183589502Y-107244180D01*
X183625812Y-107124482D01*
X183638072Y-107000000D01*
X183638072Y-106991653D01*
X185267952Y-106991653D01*
X185423962Y-107307214D01*
X185798745Y-107498020D01*
X186203551Y-107612044D01*
X186622824Y-107644902D01*
X187040451Y-107595334D01*
X187440383Y-107465243D01*
X187736038Y-107307214D01*
X187892048Y-106991653D01*
X186580000Y-105679605D01*
X185267952Y-106991653D01*
X183638072Y-106991653D01*
X183638072Y-105542824D01*
X184435098Y-105542824D01*
X184484666Y-105960451D01*
X184614757Y-106360383D01*
X184772786Y-106656038D01*
X185088347Y-106812048D01*
X186400395Y-105500000D01*
X186759605Y-105500000D01*
X188071653Y-106812048D01*
X188387214Y-106656038D01*
X188578020Y-106281255D01*
X188692044Y-105876449D01*
X188724902Y-105457176D01*
X188675334Y-105039549D01*
X188545243Y-104639617D01*
X188387214Y-104343962D01*
X188071653Y-104187952D01*
X186759605Y-105500000D01*
X186400395Y-105500000D01*
X185088347Y-104187952D01*
X184772786Y-104343962D01*
X184581980Y-104718745D01*
X184467956Y-105123551D01*
X184435098Y-105542824D01*
X183638072Y-105542824D01*
X183638072Y-104008347D01*
X185267952Y-104008347D01*
X186580000Y-105320395D01*
X187892048Y-104008347D01*
X187736038Y-103692786D01*
X187361255Y-103501980D01*
X186956449Y-103387956D01*
X186537176Y-103355098D01*
X186119549Y-103404666D01*
X185719617Y-103534757D01*
X185423962Y-103692786D01*
X185267952Y-104008347D01*
X183638072Y-104008347D01*
X183638072Y-104000000D01*
X183625812Y-103875518D01*
X183589502Y-103755820D01*
X183530537Y-103645506D01*
X183451185Y-103548815D01*
X183354494Y-103469463D01*
X183244180Y-103410498D01*
X183124482Y-103374188D01*
X183000000Y-103361928D01*
X180000000Y-103361928D01*
X179875518Y-103374188D01*
X179755820Y-103410498D01*
X179645506Y-103469463D01*
X179548815Y-103548815D01*
X179469463Y-103645506D01*
X179410498Y-103755820D01*
X179374188Y-103875518D01*
X179361928Y-104000000D01*
X174815301Y-104000000D01*
X174663417Y-103692786D01*
X174288634Y-103501980D01*
X173883828Y-103387956D01*
X173464555Y-103355098D01*
X173046928Y-103404666D01*
X172646996Y-103534757D01*
X172351341Y-103692786D01*
X172195331Y-104008347D01*
X170565451Y-104008347D01*
X170565451Y-104000000D01*
X170553191Y-103875518D01*
X170516881Y-103755820D01*
X170457916Y-103645506D01*
X170378564Y-103548815D01*
X170281873Y-103469463D01*
X170171559Y-103410498D01*
X170051861Y-103374188D01*
X169927379Y-103361928D01*
X166927379Y-103361928D01*
X166802897Y-103374188D01*
X166683199Y-103410498D01*
X166572885Y-103469463D01*
X166476194Y-103548815D01*
X166396842Y-103645506D01*
X166337877Y-103755820D01*
X166301567Y-103875518D01*
X166289307Y-104000000D01*
X161954106Y-104000000D01*
X161795743Y-103841637D01*
X161446062Y-103607988D01*
X161057516Y-103447047D01*
X160645039Y-103365000D01*
X160224481Y-103365000D01*
X159812004Y-103447047D01*
X159423458Y-103607988D01*
X159073777Y-103841637D01*
X158776397Y-104139017D01*
X158542748Y-104488698D01*
X158381807Y-104877244D01*
X158299760Y-105289721D01*
X157492832Y-105289721D01*
X157492832Y-104000000D01*
X157480572Y-103875518D01*
X157444262Y-103755820D01*
X157385297Y-103645506D01*
X157305945Y-103548815D01*
X157209254Y-103469463D01*
X157098940Y-103410498D01*
X156979242Y-103374188D01*
X156854760Y-103361928D01*
X153854760Y-103361928D01*
X153730278Y-103374188D01*
X153610580Y-103410498D01*
X153500266Y-103469463D01*
X153403575Y-103548815D01*
X153324223Y-103645506D01*
X153265258Y-103755820D01*
X153228948Y-103875518D01*
X153216688Y-104000000D01*
X148127000Y-104000000D01*
X148127000Y-95039721D01*
X148865000Y-95039721D01*
X148865000Y-95460279D01*
X148947047Y-95872756D01*
X149107988Y-96261302D01*
X149341637Y-96610983D01*
X149639017Y-96908363D01*
X149988698Y-97142012D01*
X150377244Y-97302953D01*
X150789721Y-97385000D01*
X151210279Y-97385000D01*
X151622756Y-97302953D01*
X152011302Y-97142012D01*
X152360983Y-96908363D01*
X152658363Y-96610983D01*
X152892012Y-96261302D01*
X153052953Y-95872756D01*
X153061633Y-95829117D01*
X163605000Y-95829117D01*
X163605000Y-96170883D01*
X163671675Y-96506081D01*
X163802463Y-96821831D01*
X163992337Y-97105998D01*
X164234002Y-97347663D01*
X164518169Y-97537537D01*
X164833919Y-97668325D01*
X165169117Y-97735000D01*
X165510883Y-97735000D01*
X165846081Y-97668325D01*
X166161831Y-97537537D01*
X166445998Y-97347663D01*
X166687663Y-97105998D01*
X166877537Y-96821831D01*
X167008325Y-96506081D01*
X167075000Y-96170883D01*
X167075000Y-95829117D01*
X167008325Y-95493919D01*
X166877537Y-95178169D01*
X166691671Y-94900000D01*
X173761928Y-94900000D01*
X173761928Y-97100000D01*
X173774188Y-97224482D01*
X173810498Y-97344180D01*
X173869463Y-97454494D01*
X173948815Y-97551185D01*
X174045506Y-97630537D01*
X174155820Y-97689502D01*
X174275518Y-97725812D01*
X174400000Y-97738072D01*
X176600000Y-97738072D01*
X176724482Y-97725812D01*
X176844180Y-97689502D01*
X176954494Y-97630537D01*
X177051185Y-97551185D01*
X177130537Y-97454494D01*
X177189502Y-97344180D01*
X177225812Y-97224482D01*
X177238072Y-97100000D01*
X177238072Y-95829117D01*
X182605000Y-95829117D01*
X182605000Y-96170883D01*
X182671675Y-96506081D01*
X182802463Y-96821831D01*
X182992337Y-97105998D01*
X183234002Y-97347663D01*
X183518169Y-97537537D01*
X183833919Y-97668325D01*
X184169117Y-97735000D01*
X184510883Y-97735000D01*
X184846081Y-97668325D01*
X185161831Y-97537537D01*
X185445998Y-97347663D01*
X185687663Y-97105998D01*
X185877537Y-96821831D01*
X186008325Y-96506081D01*
X186075000Y-96170883D01*
X186075000Y-95829117D01*
X186008325Y-95493919D01*
X185877537Y-95178169D01*
X185691671Y-94900000D01*
X192761928Y-94900000D01*
X192761928Y-97100000D01*
X192774188Y-97224482D01*
X192810498Y-97344180D01*
X192869463Y-97454494D01*
X192948815Y-97551185D01*
X193045506Y-97630537D01*
X193155820Y-97689502D01*
X193275518Y-97725812D01*
X193400000Y-97738072D01*
X195600000Y-97738072D01*
X195724482Y-97725812D01*
X195844180Y-97689502D01*
X195954494Y-97630537D01*
X196051185Y-97551185D01*
X196130537Y-97454494D01*
X196189502Y-97344180D01*
X196225812Y-97224482D01*
X196238072Y-97100000D01*
X196238072Y-94900000D01*
X196225812Y-94775518D01*
X196189502Y-94655820D01*
X196130537Y-94545506D01*
X196051185Y-94448815D01*
X195954494Y-94369463D01*
X195844180Y-94310498D01*
X195724482Y-94274188D01*
X195600000Y-94261928D01*
X193400000Y-94261928D01*
X193275518Y-94274188D01*
X193155820Y-94310498D01*
X193045506Y-94369463D01*
X192948815Y-94448815D01*
X192869463Y-94545506D01*
X192810498Y-94655820D01*
X192774188Y-94775518D01*
X192761928Y-94900000D01*
X185691671Y-94900000D01*
X185687663Y-94894002D01*
X185445998Y-94652337D01*
X185161831Y-94462463D01*
X184846081Y-94331675D01*
X184510883Y-94265000D01*
X184169117Y-94265000D01*
X183833919Y-94331675D01*
X183518169Y-94462463D01*
X183234002Y-94652337D01*
X182992337Y-94894002D01*
X182802463Y-95178169D01*
X182671675Y-95493919D01*
X182605000Y-95829117D01*
X177238072Y-95829117D01*
X177238072Y-94900000D01*
X177225812Y-94775518D01*
X177189502Y-94655820D01*
X177130537Y-94545506D01*
X177051185Y-94448815D01*
X176954494Y-94369463D01*
X176844180Y-94310498D01*
X176724482Y-94274188D01*
X176600000Y-94261928D01*
X174400000Y-94261928D01*
X174275518Y-94274188D01*
X174155820Y-94310498D01*
X174045506Y-94369463D01*
X173948815Y-94448815D01*
X173869463Y-94545506D01*
X173810498Y-94655820D01*
X173774188Y-94775518D01*
X173761928Y-94900000D01*
X166691671Y-94900000D01*
X166687663Y-94894002D01*
X166445998Y-94652337D01*
X166161831Y-94462463D01*
X165846081Y-94331675D01*
X165510883Y-94265000D01*
X165169117Y-94265000D01*
X164833919Y-94331675D01*
X164518169Y-94462463D01*
X164234002Y-94652337D01*
X163992337Y-94894002D01*
X163802463Y-95178169D01*
X163671675Y-95493919D01*
X163605000Y-95829117D01*
X153061633Y-95829117D01*
X153135000Y-95460279D01*
X153135000Y-95039721D01*
X153052953Y-94627244D01*
X152892012Y-94238698D01*
X152658363Y-93889017D01*
X152360983Y-93591637D01*
X152011302Y-93357988D01*
X151622756Y-93197047D01*
X151210279Y-93115000D01*
X150789721Y-93115000D01*
X150377244Y-93197047D01*
X149988698Y-93357988D01*
X149639017Y-93591637D01*
X149341637Y-93889017D01*
X149107988Y-94238698D01*
X148947047Y-94627244D01*
X148865000Y-95039721D01*
X148127000Y-95039721D01*
X148127000Y-92000000D01*
X148124560Y-91975224D01*
X148117333Y-91951399D01*
X148105597Y-91929443D01*
X148089803Y-91910197D01*
X148070557Y-91894403D01*
X148048601Y-91882667D01*
X148024776Y-91875440D01*
X148000000Y-91873000D01*
X130627000Y-91873000D01*
X130627000Y-88900000D01*
X136461928Y-88900000D01*
X136474188Y-89024482D01*
X136510498Y-89144180D01*
X136569463Y-89254494D01*
X136648815Y-89351185D01*
X136745506Y-89430537D01*
X136855820Y-89489502D01*
X136975518Y-89525812D01*
X137100000Y-89538072D01*
X137714250Y-89535000D01*
X137873000Y-89376250D01*
X137873000Y-88127000D01*
X136623750Y-88127000D01*
X136465000Y-88285750D01*
X136461928Y-88900000D01*
X130627000Y-88900000D01*
X130627000Y-87100000D01*
X136461928Y-87100000D01*
X136465000Y-87714250D01*
X136623750Y-87873000D01*
X137873000Y-87873000D01*
X137873000Y-86623750D01*
X138127000Y-86623750D01*
X138127000Y-87873000D01*
X138147000Y-87873000D01*
X138147000Y-88127000D01*
X138127000Y-88127000D01*
X138127000Y-89376250D01*
X138285750Y-89535000D01*
X138900000Y-89538072D01*
X139024482Y-89525812D01*
X139144180Y-89489502D01*
X139254494Y-89430537D01*
X139351185Y-89351185D01*
X139430537Y-89254494D01*
X139489502Y-89144180D01*
X139495056Y-89125873D01*
X139561495Y-89192312D01*
X139812905Y-89360299D01*
X140092257Y-89476011D01*
X140388816Y-89535000D01*
X140691184Y-89535000D01*
X140987743Y-89476011D01*
X141267095Y-89360299D01*
X141518505Y-89192312D01*
X141732312Y-88978505D01*
X141900299Y-88727095D01*
X142016011Y-88447743D01*
X142040586Y-88324193D01*
X162715000Y-88324193D01*
X162715000Y-88675807D01*
X162783596Y-89020665D01*
X162918153Y-89345515D01*
X163113500Y-89637871D01*
X163362129Y-89886500D01*
X163654485Y-90081847D01*
X163979335Y-90216404D01*
X164324193Y-90285000D01*
X164675807Y-90285000D01*
X165020665Y-90216404D01*
X165345515Y-90081847D01*
X165637871Y-89886500D01*
X165886500Y-89637871D01*
X166078850Y-89350000D01*
X168711928Y-89350000D01*
X168711928Y-91650000D01*
X168724188Y-91774482D01*
X168760498Y-91894180D01*
X168819463Y-92004494D01*
X168898815Y-92101185D01*
X168995506Y-92180537D01*
X169105820Y-92239502D01*
X169225518Y-92275812D01*
X169350000Y-92288072D01*
X171650000Y-92288072D01*
X171774482Y-92275812D01*
X171894180Y-92239502D01*
X172004494Y-92180537D01*
X172101185Y-92101185D01*
X172180537Y-92004494D01*
X172239502Y-91894180D01*
X172275812Y-91774482D01*
X172288072Y-91650000D01*
X172288072Y-89350000D01*
X172275812Y-89225518D01*
X172239502Y-89105820D01*
X172180537Y-88995506D01*
X172101185Y-88898815D01*
X172004494Y-88819463D01*
X171894180Y-88760498D01*
X171774482Y-88724188D01*
X171650000Y-88711928D01*
X169350000Y-88711928D01*
X169225518Y-88724188D01*
X169105820Y-88760498D01*
X168995506Y-88819463D01*
X168898815Y-88898815D01*
X168819463Y-88995506D01*
X168760498Y-89105820D01*
X168724188Y-89225518D01*
X168711928Y-89350000D01*
X166078850Y-89350000D01*
X166081847Y-89345515D01*
X166216404Y-89020665D01*
X166285000Y-88675807D01*
X166285000Y-88324193D01*
X166216404Y-87979335D01*
X166081847Y-87654485D01*
X165886500Y-87362129D01*
X165637871Y-87113500D01*
X165345515Y-86918153D01*
X165020665Y-86783596D01*
X164675807Y-86715000D01*
X164324193Y-86715000D01*
X163979335Y-86783596D01*
X163654485Y-86918153D01*
X163362129Y-87113500D01*
X163113500Y-87362129D01*
X162918153Y-87654485D01*
X162783596Y-87979335D01*
X162715000Y-88324193D01*
X142040586Y-88324193D01*
X142075000Y-88151184D01*
X142075000Y-87848816D01*
X142016011Y-87552257D01*
X141900299Y-87272905D01*
X141732312Y-87021495D01*
X141518505Y-86807688D01*
X141267095Y-86639701D01*
X140987743Y-86523989D01*
X140691184Y-86465000D01*
X140388816Y-86465000D01*
X140092257Y-86523989D01*
X139812905Y-86639701D01*
X139561495Y-86807688D01*
X139495056Y-86874127D01*
X139489502Y-86855820D01*
X139430537Y-86745506D01*
X139351185Y-86648815D01*
X139254494Y-86569463D01*
X139144180Y-86510498D01*
X139024482Y-86474188D01*
X138900000Y-86461928D01*
X138285750Y-86465000D01*
X138127000Y-86623750D01*
X137873000Y-86623750D01*
X137714250Y-86465000D01*
X137100000Y-86461928D01*
X136975518Y-86474188D01*
X136855820Y-86510498D01*
X136745506Y-86569463D01*
X136648815Y-86648815D01*
X136569463Y-86745506D01*
X136510498Y-86855820D01*
X136474188Y-86975518D01*
X136461928Y-87100000D01*
X130627000Y-87100000D01*
X130627000Y-71349039D01*
X133988096Y-71349039D01*
X134028754Y-71483087D01*
X134148963Y-71737420D01*
X134316481Y-71963414D01*
X134524869Y-72152385D01*
X134766119Y-72297070D01*
X135030960Y-72391909D01*
X135253000Y-72270624D01*
X135253000Y-71127000D01*
X134110085Y-71127000D01*
X133988096Y-71349039D01*
X130627000Y-71349039D01*
X130627000Y-69000000D01*
X130624560Y-68975224D01*
X130617333Y-68951399D01*
X130605597Y-68929443D01*
X130589803Y-68910197D01*
X130570557Y-68894403D01*
X130548601Y-68882667D01*
X130524776Y-68875440D01*
X130500000Y-68873000D01*
X99660000Y-68873000D01*
X99660000Y-64694249D01*
X102925000Y-64694249D01*
X102925000Y-65305752D01*
X102941423Y-65472499D01*
X103006324Y-65686447D01*
X103111717Y-65883623D01*
X103253552Y-66056449D01*
X103426378Y-66198284D01*
X103623554Y-66303676D01*
X103837502Y-66368577D01*
X104060000Y-66390491D01*
X104282499Y-66368577D01*
X104496447Y-66303676D01*
X104693623Y-66198284D01*
X104695001Y-66197154D01*
X104696378Y-66198284D01*
X104893554Y-66303676D01*
X105107502Y-66368577D01*
X105330000Y-66390491D01*
X105552499Y-66368577D01*
X105766447Y-66303676D01*
X105777621Y-66297703D01*
X105855820Y-66339502D01*
X105975518Y-66375812D01*
X106100000Y-66388072D01*
X106314250Y-66385000D01*
X106473000Y-66226250D01*
X106473000Y-65127000D01*
X106727000Y-65127000D01*
X106727000Y-66226250D01*
X106885750Y-66385000D01*
X107100000Y-66388072D01*
X107224482Y-66375812D01*
X107344180Y-66339502D01*
X107454494Y-66280537D01*
X107481145Y-66258665D01*
X112165000Y-66258665D01*
X112165000Y-66541335D01*
X112220147Y-66818574D01*
X112328320Y-67079727D01*
X112485363Y-67314759D01*
X112685241Y-67514637D01*
X112920273Y-67671680D01*
X113181426Y-67779853D01*
X113458665Y-67835000D01*
X113741335Y-67835000D01*
X114018574Y-67779853D01*
X114279727Y-67671680D01*
X114514759Y-67514637D01*
X114714637Y-67314759D01*
X114871680Y-67079727D01*
X114979853Y-66818574D01*
X115035000Y-66541335D01*
X115035000Y-66258665D01*
X114979853Y-65981426D01*
X114871680Y-65720273D01*
X114714637Y-65485241D01*
X114514759Y-65285363D01*
X114279727Y-65128320D01*
X114018574Y-65020147D01*
X113741335Y-64965000D01*
X113458665Y-64965000D01*
X113181426Y-65020147D01*
X112920273Y-65128320D01*
X112685241Y-65285363D01*
X112485363Y-65485241D01*
X112328320Y-65720273D01*
X112220147Y-65981426D01*
X112165000Y-66258665D01*
X107481145Y-66258665D01*
X107551185Y-66201185D01*
X107630537Y-66104494D01*
X107689502Y-65994180D01*
X107725812Y-65874482D01*
X107738072Y-65750000D01*
X107735000Y-65285750D01*
X107576250Y-65127000D01*
X106727000Y-65127000D01*
X106473000Y-65127000D01*
X106465000Y-65127000D01*
X106465000Y-64873000D01*
X106473000Y-64873000D01*
X106473000Y-63773750D01*
X106727000Y-63773750D01*
X106727000Y-64873000D01*
X107576250Y-64873000D01*
X107735000Y-64714250D01*
X107738072Y-64250000D01*
X107725812Y-64125518D01*
X107689502Y-64005820D01*
X107630537Y-63895506D01*
X107551185Y-63798815D01*
X107454494Y-63719463D01*
X107344180Y-63660498D01*
X107224482Y-63624188D01*
X107100000Y-63611928D01*
X106885750Y-63615000D01*
X106727000Y-63773750D01*
X106473000Y-63773750D01*
X106314250Y-63615000D01*
X106100000Y-63611928D01*
X105975518Y-63624188D01*
X105855820Y-63660498D01*
X105777621Y-63702297D01*
X105766446Y-63696324D01*
X105552498Y-63631423D01*
X105330000Y-63609509D01*
X105107501Y-63631423D01*
X104893553Y-63696324D01*
X104696377Y-63801716D01*
X104695000Y-63802846D01*
X104693623Y-63801716D01*
X104496446Y-63696324D01*
X104282498Y-63631423D01*
X104060000Y-63609509D01*
X103837501Y-63631423D01*
X103623553Y-63696324D01*
X103426377Y-63801716D01*
X103253551Y-63943551D01*
X103111716Y-64116377D01*
X103006324Y-64313554D01*
X102941423Y-64527502D01*
X102925000Y-64694249D01*
X99660000Y-64694249D01*
X99660000Y-58130000D01*
X102257815Y-58130000D01*
X102286487Y-58421111D01*
X102371401Y-58701034D01*
X102509294Y-58959014D01*
X102694866Y-59185134D01*
X102724687Y-59209607D01*
X102655820Y-59230498D01*
X102545506Y-59289463D01*
X102448815Y-59368815D01*
X102369463Y-59465506D01*
X102310498Y-59575820D01*
X102274188Y-59695518D01*
X102261928Y-59820000D01*
X102261928Y-61520000D01*
X102274188Y-61644482D01*
X102310498Y-61764180D01*
X102369463Y-61874494D01*
X102448815Y-61971185D01*
X102545506Y-62050537D01*
X102655820Y-62109502D01*
X102775518Y-62145812D01*
X102900000Y-62158072D01*
X105100000Y-62158072D01*
X105224482Y-62145812D01*
X105344180Y-62109502D01*
X105454494Y-62050537D01*
X105551185Y-61971185D01*
X105630537Y-61874494D01*
X105689502Y-61764180D01*
X105725812Y-61644482D01*
X105738072Y-61520000D01*
X105738072Y-59820000D01*
X105725812Y-59695518D01*
X105689502Y-59575820D01*
X105630537Y-59465506D01*
X105551185Y-59368815D01*
X105454494Y-59289463D01*
X105344180Y-59230498D01*
X105275313Y-59209607D01*
X105305134Y-59185134D01*
X105490706Y-58959014D01*
X105628599Y-58701034D01*
X105713513Y-58421111D01*
X105742185Y-58130000D01*
X105713513Y-57838889D01*
X105628599Y-57558966D01*
X105490706Y-57300986D01*
X105305134Y-57074866D01*
X105079014Y-56889294D01*
X104821034Y-56751401D01*
X104541111Y-56666487D01*
X104322950Y-56645000D01*
X103677050Y-56645000D01*
X103458889Y-56666487D01*
X103178966Y-56751401D01*
X102920986Y-56889294D01*
X102694866Y-57074866D01*
X102509294Y-57300986D01*
X102371401Y-57558966D01*
X102286487Y-57838889D01*
X102257815Y-58130000D01*
X99660000Y-58130000D01*
X99660000Y-54742702D01*
X102436903Y-54742702D01*
X102508486Y-54986671D01*
X102763996Y-55107571D01*
X103038184Y-55176300D01*
X103320512Y-55190217D01*
X103600130Y-55148787D01*
X103866292Y-55053603D01*
X103991514Y-54986671D01*
X104063097Y-54742702D01*
X103250000Y-53929605D01*
X102436903Y-54742702D01*
X99660000Y-54742702D01*
X99660000Y-46514788D01*
X99728320Y-46679727D01*
X99865000Y-46884284D01*
X99865001Y-49444239D01*
X99859509Y-49500000D01*
X99881423Y-49722498D01*
X99946324Y-49936446D01*
X99946325Y-49936447D01*
X100051717Y-50133623D01*
X100193552Y-50306449D01*
X100236860Y-50341991D01*
X101811928Y-51917060D01*
X101811928Y-52550000D01*
X101824188Y-52674482D01*
X101860498Y-52794180D01*
X101919463Y-52904494D01*
X101998815Y-53001185D01*
X102011758Y-53011807D01*
X101892429Y-53263996D01*
X101823700Y-53538184D01*
X101809783Y-53820512D01*
X101851213Y-54100130D01*
X101946397Y-54366292D01*
X102013329Y-54491514D01*
X102257298Y-54563097D01*
X103070395Y-53750000D01*
X103056253Y-53735858D01*
X103235858Y-53556253D01*
X103250000Y-53570395D01*
X103264143Y-53556253D01*
X103443748Y-53735858D01*
X103429605Y-53750000D01*
X104242702Y-54563097D01*
X104486671Y-54491514D01*
X104607571Y-54236004D01*
X104676300Y-53961816D01*
X104685995Y-53765129D01*
X115684007Y-64763141D01*
X115719549Y-64806449D01*
X115892375Y-64948284D01*
X116089551Y-65053676D01*
X116253703Y-65103471D01*
X116303498Y-65118577D01*
X116525997Y-65140491D01*
X116581749Y-65135000D01*
X130203871Y-65135000D01*
X134770302Y-69701432D01*
X134766119Y-69702930D01*
X134524869Y-69847615D01*
X134316481Y-70036586D01*
X134148963Y-70262580D01*
X134028754Y-70516913D01*
X133988096Y-70650961D01*
X134110085Y-70873000D01*
X135253000Y-70873000D01*
X135253000Y-70853000D01*
X135507000Y-70853000D01*
X135507000Y-70873000D01*
X135527000Y-70873000D01*
X135527000Y-71127000D01*
X135507000Y-71127000D01*
X135507000Y-72270624D01*
X135729040Y-72391909D01*
X135795002Y-72368288D01*
X135795002Y-72979866D01*
X135202718Y-73572150D01*
X134961426Y-73620147D01*
X134700273Y-73728320D01*
X134465241Y-73885363D01*
X134265363Y-74085241D01*
X134108320Y-74320273D01*
X134000147Y-74581426D01*
X133945000Y-74858665D01*
X133945000Y-75141335D01*
X134000147Y-75418574D01*
X134108320Y-75679727D01*
X134265363Y-75914759D01*
X134465241Y-76114637D01*
X134700273Y-76271680D01*
X134961426Y-76379853D01*
X135238665Y-76435000D01*
X135521335Y-76435000D01*
X135798574Y-76379853D01*
X136059727Y-76271680D01*
X136294759Y-76114637D01*
X136494637Y-75914759D01*
X136651680Y-75679727D01*
X136759853Y-75418574D01*
X136807850Y-75177282D01*
X137693141Y-74291990D01*
X137736450Y-74256448D01*
X137878285Y-74083622D01*
X137983677Y-73886446D01*
X138048578Y-73672498D01*
X138065001Y-73505751D01*
X138065001Y-73505742D01*
X138070491Y-73450000D01*
X138065001Y-73394258D01*
X138065001Y-70311751D01*
X138070492Y-70255999D01*
X138048578Y-70033500D01*
X137983677Y-69819552D01*
X137878285Y-69622376D01*
X137771990Y-69492855D01*
X137771988Y-69492853D01*
X137736450Y-69449550D01*
X137693147Y-69414012D01*
X131515998Y-63236865D01*
X131480451Y-63193551D01*
X131307625Y-63051716D01*
X131110449Y-62946324D01*
X130896501Y-62881423D01*
X130729754Y-62865000D01*
X130729753Y-62865000D01*
X130674002Y-62859509D01*
X130618251Y-62865000D01*
X116996130Y-62865000D01*
X116478629Y-62347499D01*
X133832106Y-62347499D01*
X134048228Y-62714258D01*
X134508105Y-62954938D01*
X135006098Y-63101275D01*
X135523071Y-63147648D01*
X136039159Y-63092273D01*
X136534526Y-62937279D01*
X136951772Y-62714258D01*
X137167894Y-62347499D01*
X135500000Y-60679605D01*
X133832106Y-62347499D01*
X116478629Y-62347499D01*
X114654201Y-60523071D01*
X132852352Y-60523071D01*
X132907727Y-61039159D01*
X133062721Y-61534526D01*
X133285742Y-61951772D01*
X133652501Y-62167894D01*
X135320395Y-60500000D01*
X135679605Y-60500000D01*
X137347499Y-62167894D01*
X137714258Y-61951772D01*
X137954938Y-61491895D01*
X138101275Y-60993902D01*
X138147648Y-60476929D01*
X138092273Y-59960841D01*
X137937279Y-59465474D01*
X137714258Y-59048228D01*
X137347499Y-58832106D01*
X135679605Y-60500000D01*
X135320395Y-60500000D01*
X133652501Y-58832106D01*
X133285742Y-59048228D01*
X133045062Y-59508105D01*
X132898725Y-60006098D01*
X132852352Y-60523071D01*
X114654201Y-60523071D01*
X114204833Y-60073703D01*
X114337420Y-60011037D01*
X114563414Y-59843519D01*
X114752385Y-59635131D01*
X114897070Y-59393881D01*
X114991909Y-59129040D01*
X114870624Y-58907000D01*
X113727000Y-58907000D01*
X113727000Y-58927000D01*
X113473000Y-58927000D01*
X113473000Y-58907000D01*
X113453000Y-58907000D01*
X113453000Y-58653000D01*
X113473000Y-58653000D01*
X113473000Y-57510085D01*
X113727000Y-57510085D01*
X113727000Y-58653000D01*
X114870624Y-58653000D01*
X114870896Y-58652501D01*
X133832106Y-58652501D01*
X135500000Y-60320395D01*
X137167894Y-58652501D01*
X136951772Y-58285742D01*
X136491895Y-58045062D01*
X135993902Y-57898725D01*
X135476929Y-57852352D01*
X134960841Y-57907727D01*
X134465474Y-58062721D01*
X134048228Y-58285742D01*
X133832106Y-58652501D01*
X114870896Y-58652501D01*
X114991909Y-58430960D01*
X114897070Y-58166119D01*
X114752385Y-57924869D01*
X114563414Y-57716481D01*
X114337420Y-57548963D01*
X114083087Y-57428754D01*
X113949039Y-57388096D01*
X113727000Y-57510085D01*
X113473000Y-57510085D01*
X113250961Y-57388096D01*
X113116913Y-57428754D01*
X112862580Y-57548963D01*
X112636586Y-57716481D01*
X112447615Y-57924869D01*
X112302930Y-58166119D01*
X112301432Y-58170302D01*
X108873832Y-54742702D01*
X110686903Y-54742702D01*
X110758486Y-54986671D01*
X111013996Y-55107571D01*
X111288184Y-55176300D01*
X111570512Y-55190217D01*
X111850130Y-55148787D01*
X112116292Y-55053603D01*
X112241514Y-54986671D01*
X112313097Y-54742702D01*
X118936903Y-54742702D01*
X119008486Y-54986671D01*
X119263996Y-55107571D01*
X119538184Y-55176300D01*
X119820512Y-55190217D01*
X120100130Y-55148787D01*
X120366292Y-55053603D01*
X120491514Y-54986671D01*
X120563097Y-54742702D01*
X119750000Y-53929605D01*
X118936903Y-54742702D01*
X112313097Y-54742702D01*
X111500000Y-53929605D01*
X110686903Y-54742702D01*
X108873832Y-54742702D01*
X107951642Y-53820512D01*
X110059783Y-53820512D01*
X110101213Y-54100130D01*
X110196397Y-54366292D01*
X110263329Y-54491514D01*
X110507298Y-54563097D01*
X111320395Y-53750000D01*
X111306253Y-53735858D01*
X111485858Y-53556253D01*
X111500000Y-53570395D01*
X111514143Y-53556253D01*
X111693748Y-53735858D01*
X111679605Y-53750000D01*
X112492702Y-54563097D01*
X112736671Y-54491514D01*
X112857571Y-54236004D01*
X112926300Y-53961816D01*
X112933265Y-53820512D01*
X118309783Y-53820512D01*
X118351213Y-54100130D01*
X118446397Y-54366292D01*
X118513329Y-54491514D01*
X118757298Y-54563097D01*
X119570395Y-53750000D01*
X119556253Y-53735858D01*
X119735858Y-53556253D01*
X119750000Y-53570395D01*
X119764143Y-53556253D01*
X119943748Y-53735858D01*
X119929605Y-53750000D01*
X120742702Y-54563097D01*
X120986671Y-54491514D01*
X121107571Y-54236004D01*
X121176300Y-53961816D01*
X121190217Y-53679488D01*
X121148787Y-53399870D01*
X121053603Y-53133708D01*
X120988384Y-53011691D01*
X121001185Y-53001185D01*
X121080537Y-52904494D01*
X121139502Y-52794180D01*
X121175812Y-52674482D01*
X121188072Y-52550000D01*
X121188072Y-50950000D01*
X121175812Y-50825518D01*
X121139502Y-50705820D01*
X121080537Y-50595506D01*
X121001185Y-50498815D01*
X120904494Y-50419463D01*
X120794180Y-50360498D01*
X120674482Y-50324188D01*
X120550000Y-50311928D01*
X118950000Y-50311928D01*
X118825518Y-50324188D01*
X118705820Y-50360498D01*
X118595506Y-50419463D01*
X118498815Y-50498815D01*
X118419463Y-50595506D01*
X118360498Y-50705820D01*
X118324188Y-50825518D01*
X118311928Y-50950000D01*
X118311928Y-52550000D01*
X118324188Y-52674482D01*
X118360498Y-52794180D01*
X118419463Y-52904494D01*
X118498815Y-53001185D01*
X118511758Y-53011807D01*
X118392429Y-53263996D01*
X118323700Y-53538184D01*
X118309783Y-53820512D01*
X112933265Y-53820512D01*
X112940217Y-53679488D01*
X112898787Y-53399870D01*
X112803603Y-53133708D01*
X112738384Y-53011691D01*
X112751185Y-53001185D01*
X112830537Y-52904494D01*
X112889502Y-52794180D01*
X112925812Y-52674482D01*
X112938072Y-52550000D01*
X112938072Y-50950000D01*
X112925812Y-50825518D01*
X112889502Y-50705820D01*
X112830537Y-50595506D01*
X112751185Y-50498815D01*
X112654494Y-50419463D01*
X112544180Y-50360498D01*
X112424482Y-50324188D01*
X112300000Y-50311928D01*
X110700000Y-50311928D01*
X110575518Y-50324188D01*
X110455820Y-50360498D01*
X110345506Y-50419463D01*
X110248815Y-50498815D01*
X110169463Y-50595506D01*
X110110498Y-50705820D01*
X110074188Y-50825518D01*
X110061928Y-50950000D01*
X110061928Y-52550000D01*
X110074188Y-52674482D01*
X110110498Y-52794180D01*
X110169463Y-52904494D01*
X110248815Y-53001185D01*
X110261758Y-53011807D01*
X110142429Y-53263996D01*
X110073700Y-53538184D01*
X110059783Y-53820512D01*
X107951642Y-53820512D01*
X105117994Y-50986865D01*
X105082447Y-50943551D01*
X104909621Y-50801716D01*
X104712445Y-50696324D01*
X104619328Y-50668077D01*
X104580537Y-50595506D01*
X104501185Y-50498815D01*
X104404494Y-50419463D01*
X104294180Y-50360498D01*
X104174482Y-50324188D01*
X104050000Y-50311928D01*
X103417060Y-50311928D01*
X102135000Y-49029869D01*
X102135000Y-46992702D01*
X105186903Y-46992702D01*
X105258486Y-47236671D01*
X105513996Y-47357571D01*
X105788184Y-47426300D01*
X106070512Y-47440217D01*
X106350130Y-47398787D01*
X106616292Y-47303603D01*
X106741514Y-47236671D01*
X106813097Y-46992702D01*
X106000000Y-46179605D01*
X105186903Y-46992702D01*
X102135000Y-46992702D01*
X102135000Y-46884284D01*
X102271680Y-46679727D01*
X102379853Y-46418574D01*
X102427850Y-46177281D01*
X102534619Y-46070512D01*
X104559783Y-46070512D01*
X104601213Y-46350130D01*
X104696397Y-46616292D01*
X104763329Y-46741514D01*
X105007298Y-46813097D01*
X105820395Y-46000000D01*
X106179605Y-46000000D01*
X106992702Y-46813097D01*
X107236671Y-46741514D01*
X107357571Y-46486004D01*
X107426300Y-46211816D01*
X107440217Y-45929488D01*
X107398787Y-45649870D01*
X107303603Y-45383708D01*
X107236671Y-45258486D01*
X106992702Y-45186903D01*
X106179605Y-46000000D01*
X105820395Y-46000000D01*
X105007298Y-45186903D01*
X104763329Y-45258486D01*
X104642429Y-45513996D01*
X104573700Y-45788184D01*
X104559783Y-46070512D01*
X102534619Y-46070512D01*
X103597833Y-45007298D01*
X105186903Y-45007298D01*
X106000000Y-45820395D01*
X106813097Y-45007298D01*
X106741514Y-44763329D01*
X106486004Y-44642429D01*
X106211816Y-44573700D01*
X105929488Y-44559783D01*
X105649870Y-44601213D01*
X105383708Y-44696397D01*
X105258486Y-44763329D01*
X105186903Y-45007298D01*
X103597833Y-45007298D01*
X106220131Y-42385001D01*
X112274248Y-42385001D01*
X112329999Y-42390492D01*
X112385750Y-42385001D01*
X112385751Y-42385001D01*
X112552498Y-42368578D01*
X112766446Y-42303677D01*
X112963622Y-42198285D01*
X113136448Y-42056450D01*
X113171995Y-42013136D01*
X114050132Y-41135000D01*
X114241033Y-41135000D01*
X114556912Y-41072168D01*
X114854463Y-40948918D01*
X115122252Y-40769987D01*
X115349987Y-40542252D01*
X115528918Y-40274463D01*
X115652168Y-39976912D01*
X115715000Y-39661033D01*
X115715000Y-39470131D01*
X116300133Y-38884999D01*
X118861928Y-38884999D01*
X118861928Y-40500000D01*
X118874188Y-40624482D01*
X118910498Y-40744180D01*
X118969463Y-40854494D01*
X119048815Y-40951185D01*
X119145506Y-41030537D01*
X119255820Y-41089502D01*
X119375518Y-41125812D01*
X119500000Y-41138072D01*
X121500000Y-41138072D01*
X121624482Y-41125812D01*
X121744180Y-41089502D01*
X121854494Y-41030537D01*
X121951185Y-40951185D01*
X122030537Y-40854494D01*
X122089502Y-40744180D01*
X122105037Y-40692967D01*
X122179956Y-40899814D01*
X122469571Y-41040704D01*
X122781108Y-41122384D01*
X123102595Y-41141718D01*
X123421675Y-41097961D01*
X123726088Y-40992795D01*
X123900044Y-40899814D01*
X123995808Y-40635413D01*
X123040000Y-39679605D01*
X123025858Y-39693748D01*
X122846253Y-39514143D01*
X122860395Y-39500000D01*
X122846253Y-39485858D01*
X123025858Y-39306253D01*
X123040000Y-39320395D01*
X123054143Y-39306253D01*
X123233748Y-39485858D01*
X123219605Y-39500000D01*
X124175413Y-40455808D01*
X124237280Y-40433400D01*
X124310013Y-40542252D01*
X124537748Y-40769987D01*
X124805537Y-40948918D01*
X125103088Y-41072168D01*
X125418967Y-41135000D01*
X125741033Y-41135000D01*
X126056912Y-41072168D01*
X126354463Y-40948918D01*
X126622252Y-40769987D01*
X126757239Y-40635000D01*
X128365000Y-40635000D01*
X128365001Y-43823868D01*
X126804014Y-45384856D01*
X126803603Y-45383708D01*
X126736671Y-45258486D01*
X126492702Y-45186903D01*
X125679605Y-46000000D01*
X125693748Y-46014143D01*
X125514143Y-46193748D01*
X125500000Y-46179605D01*
X124686903Y-46992702D01*
X124737457Y-47165000D01*
X121339385Y-47165000D01*
X121414759Y-47114637D01*
X121614637Y-46914759D01*
X121771680Y-46679727D01*
X121879853Y-46418574D01*
X121935000Y-46141335D01*
X121935000Y-46070512D01*
X124059783Y-46070512D01*
X124101213Y-46350130D01*
X124196397Y-46616292D01*
X124263329Y-46741514D01*
X124507298Y-46813097D01*
X125320395Y-46000000D01*
X124507298Y-45186903D01*
X124263329Y-45258486D01*
X124142429Y-45513996D01*
X124073700Y-45788184D01*
X124059783Y-46070512D01*
X121935000Y-46070512D01*
X121935000Y-45858665D01*
X121879853Y-45581426D01*
X121771680Y-45320273D01*
X121614637Y-45085241D01*
X121536694Y-45007298D01*
X124686903Y-45007298D01*
X125500000Y-45820395D01*
X126313097Y-45007298D01*
X126241514Y-44763329D01*
X125986004Y-44642429D01*
X125711816Y-44573700D01*
X125429488Y-44559783D01*
X125149870Y-44601213D01*
X124883708Y-44696397D01*
X124758486Y-44763329D01*
X124686903Y-45007298D01*
X121536694Y-45007298D01*
X121414759Y-44885363D01*
X121179727Y-44728320D01*
X120918574Y-44620147D01*
X120641335Y-44565000D01*
X120358665Y-44565000D01*
X120081426Y-44620147D01*
X119820273Y-44728320D01*
X119585241Y-44885363D01*
X119385363Y-45085241D01*
X119228320Y-45320273D01*
X119120147Y-45581426D01*
X119065000Y-45858665D01*
X119065000Y-46141335D01*
X119120147Y-46418574D01*
X119228320Y-46679727D01*
X119385363Y-46914759D01*
X119585241Y-47114637D01*
X119660615Y-47165000D01*
X116512543Y-47165000D01*
X116563097Y-46992702D01*
X115750000Y-46179605D01*
X114936903Y-46992702D01*
X114987457Y-47165000D01*
X112635000Y-47165000D01*
X112635000Y-46805743D01*
X112640490Y-46749999D01*
X112635000Y-46694255D01*
X112635000Y-46694248D01*
X112618577Y-46527501D01*
X112553676Y-46313553D01*
X112448284Y-46116377D01*
X112410644Y-46070512D01*
X114309783Y-46070512D01*
X114351213Y-46350130D01*
X114446397Y-46616292D01*
X114513329Y-46741514D01*
X114757298Y-46813097D01*
X115570395Y-46000000D01*
X115929605Y-46000000D01*
X116742702Y-46813097D01*
X116986671Y-46741514D01*
X117107571Y-46486004D01*
X117176300Y-46211816D01*
X117190217Y-45929488D01*
X117148787Y-45649870D01*
X117053603Y-45383708D01*
X116986671Y-45258486D01*
X116742702Y-45186903D01*
X115929605Y-46000000D01*
X115570395Y-46000000D01*
X114757298Y-45186903D01*
X114513329Y-45258486D01*
X114392429Y-45513996D01*
X114323700Y-45788184D01*
X114309783Y-46070512D01*
X112410644Y-46070512D01*
X112306449Y-45943551D01*
X112263135Y-45908004D01*
X112177850Y-45822719D01*
X112129853Y-45581426D01*
X112021680Y-45320273D01*
X111864637Y-45085241D01*
X111786694Y-45007298D01*
X114936903Y-45007298D01*
X115750000Y-45820395D01*
X116563097Y-45007298D01*
X116491514Y-44763329D01*
X116236004Y-44642429D01*
X115961816Y-44573700D01*
X115679488Y-44559783D01*
X115399870Y-44601213D01*
X115133708Y-44696397D01*
X115008486Y-44763329D01*
X114936903Y-45007298D01*
X111786694Y-45007298D01*
X111664759Y-44885363D01*
X111429727Y-44728320D01*
X111168574Y-44620147D01*
X110891335Y-44565000D01*
X110608665Y-44565000D01*
X110331426Y-44620147D01*
X110070273Y-44728320D01*
X109835241Y-44885363D01*
X109635363Y-45085241D01*
X109478320Y-45320273D01*
X109370147Y-45581426D01*
X109315000Y-45858665D01*
X109315000Y-46141335D01*
X109370147Y-46418574D01*
X109478320Y-46679727D01*
X109635363Y-46914759D01*
X109835241Y-47114637D01*
X110070273Y-47271680D01*
X110331426Y-47379853D01*
X110365000Y-47386531D01*
X110365000Y-48244248D01*
X110359509Y-48300000D01*
X110381423Y-48522499D01*
X110446324Y-48736447D01*
X110476848Y-48793553D01*
X110551716Y-48933623D01*
X110693551Y-49106449D01*
X110866377Y-49248284D01*
X111063553Y-49353676D01*
X111277501Y-49418577D01*
X111500000Y-49440491D01*
X111555751Y-49435000D01*
X125438251Y-49435000D01*
X125494002Y-49440491D01*
X125549753Y-49435000D01*
X125549754Y-49435000D01*
X125716501Y-49418577D01*
X125930449Y-49353676D01*
X126127625Y-49248284D01*
X126300451Y-49106449D01*
X126335998Y-49063135D01*
X126899133Y-48500000D01*
X132861928Y-48500000D01*
X132861928Y-52500000D01*
X132874188Y-52624482D01*
X132910498Y-52744180D01*
X132969463Y-52854494D01*
X133048815Y-52951185D01*
X133145506Y-53030537D01*
X133255820Y-53089502D01*
X133375518Y-53125812D01*
X133500000Y-53138072D01*
X137500000Y-53138072D01*
X137624482Y-53125812D01*
X137744180Y-53089502D01*
X137854494Y-53030537D01*
X137951185Y-52951185D01*
X138030537Y-52854494D01*
X138089502Y-52744180D01*
X138125812Y-52624482D01*
X138138072Y-52500000D01*
X138138072Y-48500000D01*
X138125812Y-48375518D01*
X138089502Y-48255820D01*
X138030537Y-48145506D01*
X137951185Y-48048815D01*
X137854494Y-47969463D01*
X137744180Y-47910498D01*
X137624482Y-47874188D01*
X137500000Y-47861928D01*
X133500000Y-47861928D01*
X133375518Y-47874188D01*
X133255820Y-47910498D01*
X133145506Y-47969463D01*
X133048815Y-48048815D01*
X132969463Y-48145506D01*
X132910498Y-48255820D01*
X132874188Y-48375518D01*
X132861928Y-48500000D01*
X126899133Y-48500000D01*
X130263146Y-45135989D01*
X130306449Y-45100451D01*
X130384013Y-45005940D01*
X130448284Y-44927625D01*
X130553676Y-44730449D01*
X130618577Y-44516501D01*
X130631493Y-44385363D01*
X130635000Y-44349754D01*
X130640491Y-44294002D01*
X130635000Y-44238250D01*
X130635000Y-40635000D01*
X131410615Y-40635000D01*
X131335241Y-40685363D01*
X131135363Y-40885241D01*
X130978320Y-41120273D01*
X130870147Y-41381426D01*
X130815000Y-41658665D01*
X130815000Y-41941335D01*
X130870147Y-42218574D01*
X130978320Y-42479727D01*
X131135363Y-42714759D01*
X131335241Y-42914637D01*
X131570273Y-43071680D01*
X131831426Y-43179853D01*
X132108665Y-43235000D01*
X132391335Y-43235000D01*
X132668574Y-43179853D01*
X132929727Y-43071680D01*
X133164759Y-42914637D01*
X133364637Y-42714759D01*
X133521680Y-42479727D01*
X133629853Y-42218574D01*
X133685000Y-41941335D01*
X133685000Y-41658665D01*
X133629853Y-41381426D01*
X133521680Y-41120273D01*
X133364637Y-40885241D01*
X133164759Y-40685363D01*
X133089385Y-40635000D01*
X139030615Y-40635000D01*
X138955241Y-40685363D01*
X138755363Y-40885241D01*
X138598320Y-41120273D01*
X138490147Y-41381426D01*
X138435000Y-41658665D01*
X138435000Y-41941335D01*
X138490147Y-42218574D01*
X138598320Y-42479727D01*
X138735000Y-42684284D01*
X138735001Y-78659867D01*
X136720898Y-80673971D01*
X136604761Y-80697072D01*
X136358167Y-80799215D01*
X136136238Y-80947503D01*
X135947503Y-81136238D01*
X135799215Y-81358167D01*
X135697072Y-81604761D01*
X135645000Y-81866544D01*
X135645000Y-82133456D01*
X135697072Y-82395239D01*
X135799215Y-82641833D01*
X135947503Y-82863762D01*
X136136238Y-83052497D01*
X136358167Y-83200785D01*
X136604761Y-83302928D01*
X136866544Y-83355000D01*
X137133456Y-83355000D01*
X137395239Y-83302928D01*
X137641833Y-83200785D01*
X137863762Y-83052497D01*
X138052497Y-82863762D01*
X138200785Y-82641833D01*
X138270000Y-82474734D01*
X138339215Y-82641833D01*
X138487503Y-82863762D01*
X138676238Y-83052497D01*
X138898167Y-83200785D01*
X139144761Y-83302928D01*
X139406544Y-83355000D01*
X139673456Y-83355000D01*
X139935239Y-83302928D01*
X140181833Y-83200785D01*
X140403762Y-83052497D01*
X140592497Y-82863762D01*
X140740785Y-82641833D01*
X140810000Y-82474734D01*
X140879215Y-82641833D01*
X141027503Y-82863762D01*
X141216238Y-83052497D01*
X141438167Y-83200785D01*
X141684761Y-83302928D01*
X141946544Y-83355000D01*
X142213456Y-83355000D01*
X142475239Y-83302928D01*
X142721833Y-83200785D01*
X142943762Y-83052497D01*
X143132497Y-82863762D01*
X143280785Y-82641833D01*
X143382928Y-82395239D01*
X143435000Y-82133456D01*
X143435000Y-81866544D01*
X143382928Y-81604761D01*
X143280785Y-81358167D01*
X143132497Y-81136238D01*
X142943762Y-80947503D01*
X142721833Y-80799215D01*
X142475239Y-80697072D01*
X142213456Y-80645000D01*
X141946544Y-80645000D01*
X141684761Y-80697072D01*
X141438167Y-80799215D01*
X141216238Y-80947503D01*
X141027503Y-81136238D01*
X140879215Y-81358167D01*
X140810000Y-81525266D01*
X140740785Y-81358167D01*
X140592497Y-81136238D01*
X140403762Y-80947503D01*
X140181833Y-80799215D01*
X139935239Y-80697072D01*
X139912569Y-80692563D01*
X140633141Y-79971991D01*
X140676449Y-79936449D01*
X140818284Y-79763623D01*
X140923676Y-79566447D01*
X140988577Y-79352499D01*
X141005000Y-79185752D01*
X141010491Y-79130000D01*
X141005000Y-79074249D01*
X141005000Y-74858665D01*
X141565000Y-74858665D01*
X141565000Y-75141335D01*
X141620147Y-75418574D01*
X141728320Y-75679727D01*
X141885363Y-75914759D01*
X142085241Y-76114637D01*
X142320273Y-76271680D01*
X142581426Y-76379853D01*
X142858665Y-76435000D01*
X143141335Y-76435000D01*
X143418574Y-76379853D01*
X143679727Y-76271680D01*
X143914759Y-76114637D01*
X144114637Y-75914759D01*
X144271680Y-75679727D01*
X144379853Y-75418574D01*
X144435000Y-75141335D01*
X144435000Y-74858665D01*
X144379853Y-74581426D01*
X144271680Y-74320273D01*
X144114637Y-74085241D01*
X143914759Y-73885363D01*
X143679727Y-73728320D01*
X143418574Y-73620147D01*
X143141335Y-73565000D01*
X142858665Y-73565000D01*
X142581426Y-73620147D01*
X142320273Y-73728320D01*
X142085241Y-73885363D01*
X141885363Y-74085241D01*
X141728320Y-74320273D01*
X141620147Y-74581426D01*
X141565000Y-74858665D01*
X141005000Y-74858665D01*
X141005000Y-72539721D01*
X148865000Y-72539721D01*
X148865000Y-72960279D01*
X148947047Y-73372756D01*
X149107988Y-73761302D01*
X149341637Y-74110983D01*
X149639017Y-74408363D01*
X149988698Y-74642012D01*
X150377244Y-74802953D01*
X150789721Y-74885000D01*
X151210279Y-74885000D01*
X151622756Y-74802953D01*
X152011302Y-74642012D01*
X152360983Y-74408363D01*
X152658363Y-74110983D01*
X152892012Y-73761302D01*
X153052953Y-73372756D01*
X153135000Y-72960279D01*
X153135000Y-72539721D01*
X153052953Y-72127244D01*
X152892012Y-71738698D01*
X152658363Y-71389017D01*
X152360983Y-71091637D01*
X152011302Y-70857988D01*
X151622756Y-70697047D01*
X151210279Y-70615000D01*
X150789721Y-70615000D01*
X150377244Y-70697047D01*
X149988698Y-70857988D01*
X149639017Y-71091637D01*
X149341637Y-71389017D01*
X149107988Y-71738698D01*
X148947047Y-72127244D01*
X148865000Y-72539721D01*
X141005000Y-72539721D01*
X141005000Y-70858665D01*
X141565000Y-70858665D01*
X141565000Y-71141335D01*
X141620147Y-71418574D01*
X141728320Y-71679727D01*
X141885363Y-71914759D01*
X142085241Y-72114637D01*
X142320273Y-72271680D01*
X142581426Y-72379853D01*
X142858665Y-72435000D01*
X143141335Y-72435000D01*
X143418574Y-72379853D01*
X143679727Y-72271680D01*
X143914759Y-72114637D01*
X144114637Y-71914759D01*
X144271680Y-71679727D01*
X144379853Y-71418574D01*
X144435000Y-71141335D01*
X144435000Y-70858665D01*
X144379853Y-70581426D01*
X144271680Y-70320273D01*
X144114637Y-70085241D01*
X143914759Y-69885363D01*
X143679727Y-69728320D01*
X143418574Y-69620147D01*
X143141335Y-69565000D01*
X142858665Y-69565000D01*
X142581426Y-69620147D01*
X142320273Y-69728320D01*
X142085241Y-69885363D01*
X141885363Y-70085241D01*
X141728320Y-70320273D01*
X141620147Y-70581426D01*
X141565000Y-70858665D01*
X141005000Y-70858665D01*
X141005000Y-42684284D01*
X141141680Y-42479727D01*
X141148392Y-42463522D01*
X143814999Y-45130129D01*
X143815000Y-53956236D01*
X143809508Y-54011997D01*
X143831422Y-54234495D01*
X143896323Y-54448443D01*
X143896324Y-54448444D01*
X144001716Y-54645620D01*
X144143551Y-54818446D01*
X144186859Y-54853988D01*
X163934880Y-74602010D01*
X163654485Y-74718153D01*
X163362129Y-74913500D01*
X163113500Y-75162129D01*
X162918153Y-75454485D01*
X162783596Y-75779335D01*
X162715000Y-76124193D01*
X162715000Y-76475807D01*
X162783596Y-76820665D01*
X162918153Y-77145515D01*
X163113500Y-77437871D01*
X163362129Y-77686500D01*
X163654485Y-77881847D01*
X163979335Y-78016404D01*
X164324193Y-78085000D01*
X164675807Y-78085000D01*
X165020665Y-78016404D01*
X165345515Y-77881847D01*
X165637871Y-77686500D01*
X165886500Y-77437871D01*
X166081847Y-77145515D01*
X166197990Y-76865120D01*
X175365000Y-86032130D01*
X175365001Y-87111581D01*
X175362129Y-87113500D01*
X175113500Y-87362129D01*
X174918153Y-87654485D01*
X174783596Y-87979335D01*
X174715000Y-88324193D01*
X174715000Y-88675807D01*
X174783596Y-89020665D01*
X174918153Y-89345515D01*
X175113500Y-89637871D01*
X175362129Y-89886500D01*
X175654485Y-90081847D01*
X175979335Y-90216404D01*
X176324193Y-90285000D01*
X176675807Y-90285000D01*
X177020665Y-90216404D01*
X177345515Y-90081847D01*
X177637871Y-89886500D01*
X177886500Y-89637871D01*
X178081847Y-89345515D01*
X178216404Y-89020665D01*
X178285000Y-88675807D01*
X178285000Y-88324193D01*
X181215000Y-88324193D01*
X181215000Y-88675807D01*
X181283596Y-89020665D01*
X181418153Y-89345515D01*
X181613500Y-89637871D01*
X181862129Y-89886500D01*
X182154485Y-90081847D01*
X182479335Y-90216404D01*
X182824193Y-90285000D01*
X183175807Y-90285000D01*
X183520665Y-90216404D01*
X183845515Y-90081847D01*
X184137871Y-89886500D01*
X184386500Y-89637871D01*
X184578850Y-89350000D01*
X187211928Y-89350000D01*
X187211928Y-91650000D01*
X187224188Y-91774482D01*
X187260498Y-91894180D01*
X187319463Y-92004494D01*
X187398815Y-92101185D01*
X187495506Y-92180537D01*
X187605820Y-92239502D01*
X187725518Y-92275812D01*
X187850000Y-92288072D01*
X190150000Y-92288072D01*
X190274482Y-92275812D01*
X190394180Y-92239502D01*
X190504494Y-92180537D01*
X190601185Y-92101185D01*
X190680537Y-92004494D01*
X190739502Y-91894180D01*
X190775812Y-91774482D01*
X190788072Y-91650000D01*
X190788072Y-89350000D01*
X190775812Y-89225518D01*
X190739502Y-89105820D01*
X190680537Y-88995506D01*
X190601185Y-88898815D01*
X190504494Y-88819463D01*
X190394180Y-88760498D01*
X190274482Y-88724188D01*
X190150000Y-88711928D01*
X187850000Y-88711928D01*
X187725518Y-88724188D01*
X187605820Y-88760498D01*
X187495506Y-88819463D01*
X187398815Y-88898815D01*
X187319463Y-88995506D01*
X187260498Y-89105820D01*
X187224188Y-89225518D01*
X187211928Y-89350000D01*
X184578850Y-89350000D01*
X184581847Y-89345515D01*
X184716404Y-89020665D01*
X184785000Y-88675807D01*
X184785000Y-88324193D01*
X193215000Y-88324193D01*
X193215000Y-88675807D01*
X193283596Y-89020665D01*
X193418153Y-89345515D01*
X193613500Y-89637871D01*
X193862129Y-89886500D01*
X194154485Y-90081847D01*
X194479335Y-90216404D01*
X194824193Y-90285000D01*
X195175807Y-90285000D01*
X195520665Y-90216404D01*
X195845515Y-90081847D01*
X196137871Y-89886500D01*
X196386500Y-89637871D01*
X196581847Y-89345515D01*
X196716404Y-89020665D01*
X196785000Y-88675807D01*
X196785000Y-88324193D01*
X196716404Y-87979335D01*
X196581847Y-87654485D01*
X196386500Y-87362129D01*
X196137871Y-87113500D01*
X195845515Y-86918153D01*
X195520665Y-86783596D01*
X195175807Y-86715000D01*
X194824193Y-86715000D01*
X194479335Y-86783596D01*
X194154485Y-86918153D01*
X193862129Y-87113500D01*
X193613500Y-87362129D01*
X193418153Y-87654485D01*
X193283596Y-87979335D01*
X193215000Y-88324193D01*
X184785000Y-88324193D01*
X184784326Y-88320805D01*
X188533136Y-84571997D01*
X188576439Y-84536459D01*
X188718274Y-84363633D01*
X188823666Y-84166457D01*
X188888567Y-83952509D01*
X188904990Y-83785762D01*
X188904990Y-83785761D01*
X188910481Y-83730010D01*
X188904990Y-83674258D01*
X188904990Y-76124193D01*
X193215000Y-76124193D01*
X193215000Y-76475807D01*
X193283596Y-76820665D01*
X193418153Y-77145515D01*
X193613500Y-77437871D01*
X193862129Y-77686500D01*
X194154485Y-77881847D01*
X194479335Y-78016404D01*
X194824193Y-78085000D01*
X195175807Y-78085000D01*
X195520665Y-78016404D01*
X195845515Y-77881847D01*
X196137871Y-77686500D01*
X196386500Y-77437871D01*
X196581847Y-77145515D01*
X196716404Y-76820665D01*
X196785000Y-76475807D01*
X196785000Y-76124193D01*
X196716404Y-75779335D01*
X196581847Y-75454485D01*
X196386500Y-75162129D01*
X196137871Y-74913500D01*
X195845515Y-74718153D01*
X195520665Y-74583596D01*
X195175807Y-74515000D01*
X194824193Y-74515000D01*
X194479335Y-74583596D01*
X194154485Y-74718153D01*
X193862129Y-74913500D01*
X193613500Y-75162129D01*
X193418153Y-75454485D01*
X193283596Y-75779335D01*
X193215000Y-76124193D01*
X188904990Y-76124193D01*
X188904990Y-68837480D01*
X189007502Y-68868577D01*
X189230000Y-68890491D01*
X189452499Y-68868577D01*
X189666447Y-68803676D01*
X189677621Y-68797703D01*
X189755820Y-68839502D01*
X189875518Y-68875812D01*
X190000000Y-68888072D01*
X190214250Y-68885000D01*
X190373000Y-68726250D01*
X190373000Y-67627000D01*
X190627000Y-67627000D01*
X190627000Y-68726250D01*
X190785750Y-68885000D01*
X191000000Y-68888072D01*
X191124482Y-68875812D01*
X191244180Y-68839502D01*
X191354494Y-68780537D01*
X191451185Y-68701185D01*
X191530537Y-68604494D01*
X191589502Y-68494180D01*
X191625812Y-68374482D01*
X191638072Y-68250000D01*
X191635000Y-67785750D01*
X191476250Y-67627000D01*
X190627000Y-67627000D01*
X190373000Y-67627000D01*
X190365000Y-67627000D01*
X190365000Y-67373000D01*
X190373000Y-67373000D01*
X190373000Y-66273750D01*
X190627000Y-66273750D01*
X190627000Y-67373000D01*
X191476250Y-67373000D01*
X191635000Y-67214250D01*
X191638072Y-66750000D01*
X191625812Y-66625518D01*
X191589502Y-66505820D01*
X191530537Y-66395506D01*
X191451185Y-66298815D01*
X191354494Y-66219463D01*
X191244180Y-66160498D01*
X191124482Y-66124188D01*
X191000000Y-66111928D01*
X190785750Y-66115000D01*
X190627000Y-66273750D01*
X190373000Y-66273750D01*
X190214250Y-66115000D01*
X190000000Y-66111928D01*
X189875518Y-66124188D01*
X189755820Y-66160498D01*
X189677621Y-66202297D01*
X189666446Y-66196324D01*
X189452498Y-66131423D01*
X189230000Y-66109509D01*
X189007501Y-66131423D01*
X188793553Y-66196324D01*
X188644221Y-66276143D01*
X188576439Y-66193551D01*
X188403613Y-66051716D01*
X188206437Y-65946324D01*
X187992489Y-65881423D01*
X187769990Y-65859509D01*
X187547492Y-65881423D01*
X187333544Y-65946324D01*
X187136368Y-66051716D01*
X186963542Y-66193551D01*
X186821707Y-66366377D01*
X186716315Y-66563553D01*
X186651414Y-66777501D01*
X186634991Y-66944248D01*
X186634990Y-83259877D01*
X183179195Y-86715674D01*
X183175807Y-86715000D01*
X182824193Y-86715000D01*
X182479335Y-86783596D01*
X182154485Y-86918153D01*
X181862129Y-87113500D01*
X181613500Y-87362129D01*
X181418153Y-87654485D01*
X181283596Y-87979335D01*
X181215000Y-88324193D01*
X178285000Y-88324193D01*
X178216404Y-87979335D01*
X178081847Y-87654485D01*
X177886500Y-87362129D01*
X177637871Y-87113500D01*
X177635000Y-87111582D01*
X177635000Y-85617739D01*
X177640490Y-85561997D01*
X177635000Y-85506255D01*
X177635000Y-85506246D01*
X177618577Y-85339499D01*
X177553676Y-85125551D01*
X177448284Y-84928375D01*
X177306449Y-84755549D01*
X177263141Y-84720007D01*
X146084999Y-53541866D01*
X146084999Y-47375369D01*
X146288184Y-47426300D01*
X146570512Y-47440217D01*
X146850130Y-47398787D01*
X147116292Y-47303603D01*
X147241514Y-47236671D01*
X147313097Y-46992702D01*
X146500000Y-46179605D01*
X146485858Y-46193748D01*
X146306253Y-46014143D01*
X146320395Y-46000000D01*
X146679605Y-46000000D01*
X147492702Y-46813097D01*
X147736671Y-46741514D01*
X147857571Y-46486004D01*
X147926300Y-46211816D01*
X147940217Y-45929488D01*
X147898787Y-45649870D01*
X147803603Y-45383708D01*
X147736671Y-45258486D01*
X147492702Y-45186903D01*
X146679605Y-46000000D01*
X146320395Y-46000000D01*
X146306253Y-45985858D01*
X146485858Y-45806253D01*
X146500000Y-45820395D01*
X147313097Y-45007298D01*
X147241514Y-44763329D01*
X146986004Y-44642429D01*
X146711816Y-44573700D01*
X146429488Y-44559783D01*
X146149870Y-44601213D01*
X146086918Y-44623726D01*
X146068576Y-44437498D01*
X146003675Y-44223550D01*
X145898283Y-44026374D01*
X145876638Y-44000000D01*
X145756448Y-43853548D01*
X145713140Y-43818006D01*
X140780132Y-38884999D01*
X144781928Y-38884999D01*
X144781928Y-40500000D01*
X144794188Y-40624482D01*
X144830498Y-40744180D01*
X144889463Y-40854494D01*
X144968815Y-40951185D01*
X145065506Y-41030537D01*
X145175820Y-41089502D01*
X145295518Y-41125812D01*
X145420000Y-41138072D01*
X147034711Y-41138072D01*
X147024672Y-41240003D01*
X147065894Y-41658536D01*
X147187976Y-42060985D01*
X147386225Y-42431884D01*
X147586166Y-42675513D01*
X148596162Y-43685509D01*
X148663022Y-43766978D01*
X148988118Y-44033778D01*
X149352082Y-44228320D01*
X149359017Y-44232027D01*
X149761465Y-44354109D01*
X149795540Y-44357465D01*
X150075117Y-44385001D01*
X150075124Y-44385001D01*
X150179999Y-44395330D01*
X150284873Y-44385001D01*
X150639658Y-44385001D01*
X150935322Y-44680665D01*
X150820273Y-44728320D01*
X150585241Y-44885363D01*
X150385363Y-45085241D01*
X150228320Y-45320273D01*
X150120147Y-45581426D01*
X150065000Y-45858665D01*
X150065000Y-46141335D01*
X150120147Y-46418574D01*
X150228320Y-46679727D01*
X150385363Y-46914759D01*
X150585241Y-47114637D01*
X150820273Y-47271680D01*
X151081426Y-47379853D01*
X151358665Y-47435000D01*
X151641335Y-47435000D01*
X151915002Y-47380564D01*
X151915001Y-57495131D01*
X151904672Y-57600003D01*
X151915001Y-57704875D01*
X151915001Y-57704884D01*
X151945893Y-58018535D01*
X152067975Y-58420984D01*
X152266224Y-58791884D01*
X152533024Y-59116980D01*
X152614493Y-59183840D01*
X171166165Y-77735513D01*
X171233021Y-77816977D01*
X171314485Y-77883833D01*
X171314487Y-77883835D01*
X171443251Y-77989509D01*
X171558117Y-78083777D01*
X171929016Y-78282026D01*
X172331465Y-78404108D01*
X172645116Y-78435000D01*
X172645125Y-78435000D01*
X172749997Y-78445329D01*
X172854869Y-78435000D01*
X176604882Y-78435000D01*
X176918533Y-78404108D01*
X177320982Y-78282026D01*
X177691881Y-78083777D01*
X178016977Y-77816977D01*
X178283777Y-77491881D01*
X178482026Y-77120982D01*
X178604108Y-76718533D01*
X178645330Y-76300000D01*
X178628015Y-76124193D01*
X181215000Y-76124193D01*
X181215000Y-76475807D01*
X181283596Y-76820665D01*
X181418153Y-77145515D01*
X181613500Y-77437871D01*
X181862129Y-77686500D01*
X182154485Y-77881847D01*
X182479335Y-78016404D01*
X182824193Y-78085000D01*
X183175807Y-78085000D01*
X183520665Y-78016404D01*
X183845515Y-77881847D01*
X184137871Y-77686500D01*
X184386500Y-77437871D01*
X184581847Y-77145515D01*
X184716404Y-76820665D01*
X184785000Y-76475807D01*
X184785000Y-76124193D01*
X184716404Y-75779335D01*
X184581847Y-75454485D01*
X184386500Y-75162129D01*
X184137871Y-74913500D01*
X183845515Y-74718153D01*
X183520665Y-74583596D01*
X183175807Y-74515000D01*
X182824193Y-74515000D01*
X182479335Y-74583596D01*
X182154485Y-74718153D01*
X181862129Y-74913500D01*
X181613500Y-75162129D01*
X181418153Y-75454485D01*
X181283596Y-75779335D01*
X181215000Y-76124193D01*
X178628015Y-76124193D01*
X178604108Y-75881467D01*
X178482026Y-75479018D01*
X178283777Y-75108119D01*
X178016977Y-74783023D01*
X177691881Y-74516223D01*
X177320982Y-74317974D01*
X176918533Y-74195892D01*
X176604882Y-74165000D01*
X173634344Y-74165000D01*
X166663593Y-67194249D01*
X168325000Y-67194249D01*
X168325000Y-67805752D01*
X168341423Y-67972499D01*
X168406324Y-68186447D01*
X168511717Y-68383623D01*
X168653552Y-68556449D01*
X168826378Y-68698284D01*
X169023554Y-68803676D01*
X169237502Y-68868577D01*
X169460000Y-68890491D01*
X169682499Y-68868577D01*
X169896447Y-68803676D01*
X170093623Y-68698284D01*
X170095001Y-68697154D01*
X170096378Y-68698284D01*
X170293554Y-68803676D01*
X170507502Y-68868577D01*
X170730000Y-68890491D01*
X170952499Y-68868577D01*
X171166447Y-68803676D01*
X171177621Y-68797703D01*
X171255820Y-68839502D01*
X171375518Y-68875812D01*
X171500000Y-68888072D01*
X171714250Y-68885000D01*
X171873000Y-68726250D01*
X171873000Y-67627000D01*
X172127000Y-67627000D01*
X172127000Y-68726250D01*
X172285750Y-68885000D01*
X172500000Y-68888072D01*
X172624482Y-68875812D01*
X172744180Y-68839502D01*
X172854494Y-68780537D01*
X172951185Y-68701185D01*
X173030537Y-68604494D01*
X173089502Y-68494180D01*
X173097128Y-68469040D01*
X175108091Y-68469040D01*
X175202930Y-68733881D01*
X175347615Y-68975131D01*
X175536586Y-69183519D01*
X175762580Y-69351037D01*
X176016913Y-69471246D01*
X176150961Y-69511904D01*
X176373000Y-69389915D01*
X176373000Y-68247000D01*
X176627000Y-68247000D01*
X176627000Y-69389915D01*
X176849039Y-69511904D01*
X176983087Y-69471246D01*
X177237420Y-69351037D01*
X177463414Y-69183519D01*
X177652385Y-68975131D01*
X177797070Y-68733881D01*
X177891909Y-68469040D01*
X181608091Y-68469040D01*
X181702930Y-68733881D01*
X181847615Y-68975131D01*
X182036586Y-69183519D01*
X182262580Y-69351037D01*
X182516913Y-69471246D01*
X182650961Y-69511904D01*
X182873000Y-69389915D01*
X182873000Y-68247000D01*
X183127000Y-68247000D01*
X183127000Y-69389915D01*
X183349039Y-69511904D01*
X183483087Y-69471246D01*
X183737420Y-69351037D01*
X183963414Y-69183519D01*
X184152385Y-68975131D01*
X184297070Y-68733881D01*
X184391909Y-68469040D01*
X184270624Y-68247000D01*
X183127000Y-68247000D01*
X182873000Y-68247000D01*
X181729376Y-68247000D01*
X181608091Y-68469040D01*
X177891909Y-68469040D01*
X177770624Y-68247000D01*
X176627000Y-68247000D01*
X176373000Y-68247000D01*
X175229376Y-68247000D01*
X175108091Y-68469040D01*
X173097128Y-68469040D01*
X173125812Y-68374482D01*
X173138072Y-68250000D01*
X173135000Y-67785750D01*
X173120210Y-67770960D01*
X175108091Y-67770960D01*
X175229376Y-67993000D01*
X176373000Y-67993000D01*
X176373000Y-66850085D01*
X176627000Y-66850085D01*
X176627000Y-67993000D01*
X177770624Y-67993000D01*
X177891909Y-67770960D01*
X181608091Y-67770960D01*
X181729376Y-67993000D01*
X182873000Y-67993000D01*
X182873000Y-66850085D01*
X183127000Y-66850085D01*
X183127000Y-67993000D01*
X184270624Y-67993000D01*
X184391909Y-67770960D01*
X184297070Y-67506119D01*
X184152385Y-67264869D01*
X183963414Y-67056481D01*
X183737420Y-66888963D01*
X183483087Y-66768754D01*
X183349039Y-66728096D01*
X183127000Y-66850085D01*
X182873000Y-66850085D01*
X182650961Y-66728096D01*
X182516913Y-66768754D01*
X182262580Y-66888963D01*
X182036586Y-67056481D01*
X181847615Y-67264869D01*
X181702930Y-67506119D01*
X181608091Y-67770960D01*
X177891909Y-67770960D01*
X177797070Y-67506119D01*
X177652385Y-67264869D01*
X177463414Y-67056481D01*
X177237420Y-66888963D01*
X176983087Y-66768754D01*
X176849039Y-66728096D01*
X176627000Y-66850085D01*
X176373000Y-66850085D01*
X176150961Y-66728096D01*
X176016913Y-66768754D01*
X175762580Y-66888963D01*
X175536586Y-67056481D01*
X175347615Y-67264869D01*
X175202930Y-67506119D01*
X175108091Y-67770960D01*
X173120210Y-67770960D01*
X172976250Y-67627000D01*
X172127000Y-67627000D01*
X171873000Y-67627000D01*
X171865000Y-67627000D01*
X171865000Y-67373000D01*
X171873000Y-67373000D01*
X171873000Y-66273750D01*
X172127000Y-66273750D01*
X172127000Y-67373000D01*
X172976250Y-67373000D01*
X173135000Y-67214250D01*
X173138072Y-66750000D01*
X173125812Y-66625518D01*
X173089502Y-66505820D01*
X173030537Y-66395506D01*
X172951185Y-66298815D01*
X172854494Y-66219463D01*
X172744180Y-66160498D01*
X172624482Y-66124188D01*
X172500000Y-66111928D01*
X172285750Y-66115000D01*
X172127000Y-66273750D01*
X171873000Y-66273750D01*
X171714250Y-66115000D01*
X171500000Y-66111928D01*
X171375518Y-66124188D01*
X171255820Y-66160498D01*
X171177621Y-66202297D01*
X171166446Y-66196324D01*
X170952498Y-66131423D01*
X170730000Y-66109509D01*
X170507501Y-66131423D01*
X170293553Y-66196324D01*
X170096377Y-66301716D01*
X170095000Y-66302846D01*
X170093623Y-66301716D01*
X169896446Y-66196324D01*
X169682498Y-66131423D01*
X169460000Y-66109509D01*
X169237501Y-66131423D01*
X169023553Y-66196324D01*
X168826377Y-66301716D01*
X168653551Y-66443551D01*
X168511716Y-66616377D01*
X168406324Y-66813554D01*
X168341423Y-67027502D01*
X168325000Y-67194249D01*
X166663593Y-67194249D01*
X162607890Y-63138547D01*
X163039159Y-63092273D01*
X163534526Y-62937279D01*
X163951772Y-62714258D01*
X164167894Y-62347499D01*
X162500000Y-60679605D01*
X162485858Y-60693748D01*
X162306253Y-60514143D01*
X162320395Y-60500000D01*
X162679605Y-60500000D01*
X164347499Y-62167894D01*
X164714258Y-61951772D01*
X164954938Y-61491895D01*
X165101275Y-60993902D01*
X165147648Y-60476929D01*
X165134959Y-60358665D01*
X175065000Y-60358665D01*
X175065000Y-60641335D01*
X175120147Y-60918574D01*
X175228320Y-61179727D01*
X175385363Y-61414759D01*
X175585241Y-61614637D01*
X175820273Y-61771680D01*
X176081426Y-61879853D01*
X176358665Y-61935000D01*
X176641335Y-61935000D01*
X176918574Y-61879853D01*
X177179727Y-61771680D01*
X177414759Y-61614637D01*
X177614637Y-61414759D01*
X177771680Y-61179727D01*
X177879853Y-60918574D01*
X177935000Y-60641335D01*
X177935000Y-60358665D01*
X177879853Y-60081426D01*
X177771680Y-59820273D01*
X177614637Y-59585241D01*
X177414759Y-59385363D01*
X177179727Y-59228320D01*
X176918574Y-59120147D01*
X176641335Y-59065000D01*
X176358665Y-59065000D01*
X176081426Y-59120147D01*
X175820273Y-59228320D01*
X175585241Y-59385363D01*
X175385363Y-59585241D01*
X175228320Y-59820273D01*
X175120147Y-60081426D01*
X175065000Y-60358665D01*
X165134959Y-60358665D01*
X165092273Y-59960841D01*
X164937279Y-59465474D01*
X164714258Y-59048228D01*
X164347499Y-58832106D01*
X162679605Y-60500000D01*
X162320395Y-60500000D01*
X160652501Y-58832106D01*
X160285742Y-59048228D01*
X160045062Y-59508105D01*
X159898725Y-60006098D01*
X159863882Y-60394538D01*
X158121845Y-58652501D01*
X160832106Y-58652501D01*
X162500000Y-60320395D01*
X164167894Y-58652501D01*
X163951772Y-58285742D01*
X163491895Y-58045062D01*
X162993902Y-57898725D01*
X162476929Y-57852352D01*
X161960841Y-57907727D01*
X161465474Y-58062721D01*
X161048228Y-58285742D01*
X160832106Y-58652501D01*
X158121845Y-58652501D01*
X156185001Y-56715658D01*
X156185001Y-48500000D01*
X159861928Y-48500000D01*
X159861928Y-52500000D01*
X159874188Y-52624482D01*
X159910498Y-52744180D01*
X159969463Y-52854494D01*
X160048815Y-52951185D01*
X160145506Y-53030537D01*
X160255820Y-53089502D01*
X160375518Y-53125812D01*
X160500000Y-53138072D01*
X164500000Y-53138072D01*
X164624482Y-53125812D01*
X164744180Y-53089502D01*
X164854494Y-53030537D01*
X164951185Y-52951185D01*
X165030537Y-52854494D01*
X165089502Y-52744180D01*
X165125812Y-52624482D01*
X165138072Y-52500000D01*
X165138072Y-52126890D01*
X192558524Y-52126890D01*
X192579643Y-52237493D01*
X192698138Y-52505608D01*
X192866663Y-52745454D01*
X193078741Y-52947814D01*
X193326223Y-53104911D01*
X193599598Y-53210708D01*
X193888360Y-53261140D01*
X194123000Y-53101496D01*
X194123000Y-51897000D01*
X192679845Y-51897000D01*
X192558524Y-52126890D01*
X165138072Y-52126890D01*
X165138072Y-48500000D01*
X165125812Y-48375518D01*
X165089502Y-48255820D01*
X165030537Y-48145506D01*
X164951185Y-48048815D01*
X164854494Y-47969463D01*
X164744180Y-47910498D01*
X164624482Y-47874188D01*
X164500000Y-47861928D01*
X160500000Y-47861928D01*
X160375518Y-47874188D01*
X160255820Y-47910498D01*
X160145506Y-47969463D01*
X160048815Y-48048815D01*
X159969463Y-48145506D01*
X159910498Y-48255820D01*
X159874188Y-48375518D01*
X159861928Y-48500000D01*
X156185001Y-48500000D01*
X156185001Y-44880873D01*
X156195330Y-44775999D01*
X156185001Y-44671124D01*
X156185001Y-44671117D01*
X156156469Y-44381423D01*
X156154109Y-44357465D01*
X156032027Y-43955017D01*
X155977791Y-43853548D01*
X155833778Y-43584118D01*
X155686741Y-43404953D01*
X155633837Y-43340489D01*
X155633834Y-43340486D01*
X155566978Y-43259022D01*
X155485514Y-43192166D01*
X153107838Y-40814491D01*
X153040980Y-40733024D01*
X152783635Y-40521826D01*
X152948918Y-40274463D01*
X153072168Y-39976912D01*
X153135000Y-39661033D01*
X153135000Y-39338967D01*
X153072168Y-39023088D01*
X153014970Y-38884999D01*
X154989868Y-38884999D01*
X155575000Y-39470132D01*
X155575001Y-40844239D01*
X155569509Y-40900000D01*
X155591423Y-41122498D01*
X155656324Y-41336446D01*
X155705384Y-41428230D01*
X155761717Y-41533623D01*
X155903552Y-41706449D01*
X155946860Y-41741991D01*
X160467998Y-46263130D01*
X160503540Y-46306438D01*
X160676366Y-46448273D01*
X160873542Y-46553665D01*
X161087490Y-46618566D01*
X161240358Y-46633622D01*
X161309989Y-46640480D01*
X161365741Y-46634989D01*
X184365700Y-46634989D01*
X184570273Y-46771680D01*
X184831426Y-46879853D01*
X185072718Y-46927850D01*
X188138013Y-49993146D01*
X188173551Y-50036449D01*
X188216854Y-50071987D01*
X188216856Y-50071989D01*
X188346377Y-50178284D01*
X188543553Y-50283676D01*
X188757501Y-50348577D01*
X188980000Y-50370491D01*
X189035752Y-50365000D01*
X192582317Y-50365000D01*
X192619463Y-50434494D01*
X192698815Y-50531185D01*
X192795506Y-50610537D01*
X192905820Y-50669502D01*
X192975545Y-50690653D01*
X192866663Y-50794546D01*
X192698138Y-51034392D01*
X192579643Y-51302507D01*
X192558524Y-51413110D01*
X192679845Y-51643000D01*
X194123000Y-51643000D01*
X194123000Y-51623000D01*
X194377000Y-51623000D01*
X194377000Y-51643000D01*
X194397000Y-51643000D01*
X194397000Y-51897000D01*
X194377000Y-51897000D01*
X194377000Y-53101496D01*
X194611640Y-53261140D01*
X194900402Y-53210708D01*
X194965002Y-53185708D01*
X194965002Y-53701928D01*
X193150000Y-53701928D01*
X193025518Y-53714188D01*
X192905820Y-53750498D01*
X192795506Y-53809463D01*
X192698815Y-53888815D01*
X192619463Y-53985506D01*
X192582317Y-54055000D01*
X188365751Y-54055000D01*
X188309999Y-54049509D01*
X188254248Y-54055000D01*
X188087501Y-54071423D01*
X187873553Y-54136324D01*
X187676377Y-54241716D01*
X187503551Y-54383551D01*
X187468009Y-54426859D01*
X182822719Y-59072150D01*
X182581426Y-59120147D01*
X182320273Y-59228320D01*
X182085241Y-59385363D01*
X181885363Y-59585241D01*
X181728320Y-59820273D01*
X181620147Y-60081426D01*
X181565000Y-60358665D01*
X181565000Y-60641335D01*
X181620147Y-60918574D01*
X181728320Y-61179727D01*
X181885363Y-61414759D01*
X182085241Y-61614637D01*
X182320273Y-61771680D01*
X182581426Y-61879853D01*
X182858665Y-61935000D01*
X183141335Y-61935000D01*
X183418574Y-61879853D01*
X183679727Y-61771680D01*
X183914759Y-61614637D01*
X184114637Y-61414759D01*
X184271680Y-61179727D01*
X184379853Y-60918574D01*
X184427850Y-60677281D01*
X188780132Y-56325000D01*
X192582317Y-56325000D01*
X192619463Y-56394494D01*
X192698815Y-56491185D01*
X192795506Y-56570537D01*
X192905820Y-56629502D01*
X192974687Y-56650393D01*
X192944866Y-56674866D01*
X192759294Y-56900986D01*
X192621401Y-57158966D01*
X192536487Y-57438889D01*
X192507815Y-57730000D01*
X192536487Y-58021111D01*
X192621401Y-58301034D01*
X192759294Y-58559014D01*
X192944866Y-58785134D01*
X193170986Y-58970706D01*
X193225791Y-59000000D01*
X193170986Y-59029294D01*
X192944866Y-59214866D01*
X192759294Y-59440986D01*
X192621401Y-59698966D01*
X192536487Y-59978889D01*
X192507815Y-60270000D01*
X192536487Y-60561111D01*
X192621401Y-60841034D01*
X192759294Y-61099014D01*
X192944866Y-61325134D01*
X193170986Y-61510706D01*
X193225791Y-61540000D01*
X193170986Y-61569294D01*
X192944866Y-61754866D01*
X192759294Y-61980986D01*
X192621401Y-62238966D01*
X192536487Y-62518889D01*
X192507815Y-62810000D01*
X192536487Y-63101111D01*
X192621401Y-63381034D01*
X192759294Y-63639014D01*
X192944866Y-63865134D01*
X193170986Y-64050706D01*
X193428966Y-64188599D01*
X193708889Y-64273513D01*
X193927050Y-64295000D01*
X194572950Y-64295000D01*
X194791111Y-64273513D01*
X195071034Y-64188599D01*
X195329014Y-64050706D01*
X195555134Y-63865134D01*
X195740706Y-63639014D01*
X195878599Y-63381034D01*
X195963513Y-63101111D01*
X195992185Y-62810000D01*
X195963513Y-62518889D01*
X195878599Y-62238966D01*
X195740706Y-61980986D01*
X195555134Y-61754866D01*
X195329014Y-61569294D01*
X195274209Y-61540000D01*
X195329014Y-61510706D01*
X195555134Y-61325134D01*
X195740706Y-61099014D01*
X195878599Y-60841034D01*
X195963513Y-60561111D01*
X195992185Y-60270000D01*
X195963513Y-59978889D01*
X195923755Y-59847824D01*
X196445050Y-59326529D01*
X196478818Y-59298816D01*
X196589412Y-59164058D01*
X196671590Y-59010312D01*
X196722196Y-58843489D01*
X196735001Y-58713476D01*
X196735001Y-58713466D01*
X196739282Y-58670000D01*
X196735001Y-58626534D01*
X196735001Y-47392097D01*
X196739282Y-47348630D01*
X196735001Y-47305164D01*
X196735001Y-47305154D01*
X196722196Y-47175141D01*
X196671590Y-47008318D01*
X196589412Y-46854572D01*
X196514378Y-46763143D01*
X196506533Y-46753584D01*
X196506531Y-46753582D01*
X196478818Y-46719814D01*
X196445051Y-46692102D01*
X194657904Y-44904956D01*
X194630187Y-44871183D01*
X194495429Y-44760589D01*
X194341683Y-44678411D01*
X194174860Y-44627805D01*
X194044847Y-44615000D01*
X194044839Y-44615000D01*
X194001681Y-44610750D01*
X193984637Y-44585241D01*
X193784759Y-44385363D01*
X193549727Y-44228320D01*
X193288574Y-44120147D01*
X193011335Y-44065000D01*
X192728665Y-44065000D01*
X192693561Y-44071983D01*
X192026534Y-43404956D01*
X191998817Y-43371183D01*
X191864059Y-43260589D01*
X191710313Y-43178411D01*
X191543490Y-43127805D01*
X191413477Y-43115000D01*
X191413469Y-43115000D01*
X191370000Y-43110719D01*
X191326531Y-43115000D01*
X161946579Y-43115000D01*
X159366578Y-40535000D01*
X159377002Y-40535000D01*
X159377002Y-40367955D01*
X159551874Y-40494119D01*
X159774976Y-40414276D01*
X159962764Y-40292369D01*
X160123161Y-40136169D01*
X160250003Y-39951678D01*
X160338415Y-39745987D01*
X160385000Y-39527000D01*
X160385000Y-39127000D01*
X159377000Y-39127000D01*
X159377000Y-39147000D01*
X159123000Y-39147000D01*
X159123000Y-39127000D01*
X159115000Y-39127000D01*
X159115000Y-38873000D01*
X159123000Y-38873000D01*
X159123000Y-38853000D01*
X159377000Y-38853000D01*
X159377000Y-38873000D01*
X160385000Y-38873000D01*
X160385000Y-38473000D01*
X160338415Y-38254013D01*
X160250003Y-38048322D01*
X160123161Y-37863831D01*
X159962764Y-37707631D01*
X159889392Y-37660000D01*
X161821928Y-37660000D01*
X161821928Y-40600000D01*
G37*
G04 #@! TD.AperFunction*
D39*
X191441983Y-45323561D02*
X191435000Y-45358665D01*
X191435000Y-45641335D01*
X191490147Y-45918574D01*
X191598320Y-46179727D01*
X191755363Y-46414759D01*
X191955241Y-46614637D01*
X192190273Y-46771680D01*
X192451426Y-46879853D01*
X192728665Y-46935000D01*
X193011335Y-46935000D01*
X193288574Y-46879853D01*
X193549727Y-46771680D01*
X193784759Y-46614637D01*
X193824594Y-46574802D01*
X194965001Y-47715210D01*
X194965001Y-47741928D01*
X193150000Y-47741928D01*
X193025518Y-47754188D01*
X192905820Y-47790498D01*
X192795506Y-47849463D01*
X192698815Y-47928815D01*
X192619463Y-48025506D01*
X192582317Y-48095000D01*
X189450133Y-48095000D01*
X186677850Y-45322718D01*
X186629853Y-45081426D01*
X186548491Y-44885000D01*
X191003422Y-44885000D01*
X191441983Y-45323561D01*
G04 #@! TA.AperFunction,Conductor*
D40*
G36*
X191441983Y-45323561D02*
G01*
X191435000Y-45358665D01*
X191435000Y-45641335D01*
X191490147Y-45918574D01*
X191598320Y-46179727D01*
X191755363Y-46414759D01*
X191955241Y-46614637D01*
X192190273Y-46771680D01*
X192451426Y-46879853D01*
X192728665Y-46935000D01*
X193011335Y-46935000D01*
X193288574Y-46879853D01*
X193549727Y-46771680D01*
X193784759Y-46614637D01*
X193824594Y-46574802D01*
X194965001Y-47715210D01*
X194965001Y-47741928D01*
X193150000Y-47741928D01*
X193025518Y-47754188D01*
X192905820Y-47790498D01*
X192795506Y-47849463D01*
X192698815Y-47928815D01*
X192619463Y-48025506D01*
X192582317Y-48095000D01*
X189450133Y-48095000D01*
X186677850Y-45322718D01*
X186629853Y-45081426D01*
X186548491Y-44885000D01*
X191003422Y-44885000D01*
X191441983Y-45323561D01*
G37*
G04 #@! TD.AperFunction*
D39*
X114109869Y-37865000D02*
X113918967Y-37865000D01*
X113603088Y-37927832D01*
X113305537Y-38051082D01*
X113037748Y-38230013D01*
X112810013Y-38457748D01*
X112737280Y-38566600D01*
X112675413Y-38544192D01*
X111719605Y-39500000D01*
X111733748Y-39514143D01*
X111554143Y-39693748D01*
X111540000Y-39679605D01*
X111525858Y-39693748D01*
X111346253Y-39514143D01*
X111360395Y-39500000D01*
X111346253Y-39485858D01*
X111525858Y-39306253D01*
X111540000Y-39320395D01*
X112495808Y-38364587D01*
X112400044Y-38100186D01*
X112110429Y-37959296D01*
X111798892Y-37877616D01*
X111477405Y-37858282D01*
X111158325Y-37902039D01*
X110853912Y-38007205D01*
X110679956Y-38100186D01*
X110605037Y-38307033D01*
X110589502Y-38255820D01*
X110530537Y-38145506D01*
X110451185Y-38048815D01*
X110354494Y-37969463D01*
X110244180Y-37910498D01*
X110124482Y-37874188D01*
X110000000Y-37861928D01*
X108000000Y-37861928D01*
X107875518Y-37874188D01*
X107755820Y-37910498D01*
X107645506Y-37969463D01*
X107548815Y-38048815D01*
X107469463Y-38145506D01*
X107410498Y-38255820D01*
X107374188Y-38375518D01*
X107361928Y-38500000D01*
X107361928Y-40115001D01*
X105805750Y-40115001D01*
X105749998Y-40109510D01*
X105694247Y-40115001D01*
X105527500Y-40131424D01*
X105313552Y-40196325D01*
X105116376Y-40301717D01*
X104943550Y-40443552D01*
X104908010Y-40486858D01*
X104725132Y-40669736D01*
X104735000Y-40620128D01*
X104735000Y-40179872D01*
X104649110Y-39748075D01*
X104480631Y-39341331D01*
X104236038Y-38975271D01*
X103924729Y-38663962D01*
X103558669Y-38419369D01*
X103151925Y-38250890D01*
X102720128Y-38165000D01*
X102279872Y-38165000D01*
X101848075Y-38250890D01*
X101441331Y-38419369D01*
X101075271Y-38663962D01*
X100763962Y-38975271D01*
X100519369Y-39341331D01*
X100350890Y-39748075D01*
X100265000Y-40179872D01*
X100265000Y-40620128D01*
X100350890Y-41051925D01*
X100519369Y-41458669D01*
X100763962Y-41824729D01*
X101075271Y-42136038D01*
X101441331Y-42380631D01*
X101848075Y-42549110D01*
X102279872Y-42635000D01*
X102720128Y-42635000D01*
X102769736Y-42625132D01*
X100822719Y-44572150D01*
X100581426Y-44620147D01*
X100320273Y-44728320D01*
X100085241Y-44885363D01*
X99885363Y-45085241D01*
X99728320Y-45320273D01*
X99660000Y-45485212D01*
X99660000Y-37660000D01*
X114314868Y-37660000D01*
X114109869Y-37865000D01*
G04 #@! TA.AperFunction,Conductor*
D40*
G36*
X114109869Y-37865000D02*
G01*
X113918967Y-37865000D01*
X113603088Y-37927832D01*
X113305537Y-38051082D01*
X113037748Y-38230013D01*
X112810013Y-38457748D01*
X112737280Y-38566600D01*
X112675413Y-38544192D01*
X111719605Y-39500000D01*
X111733748Y-39514143D01*
X111554143Y-39693748D01*
X111540000Y-39679605D01*
X111525858Y-39693748D01*
X111346253Y-39514143D01*
X111360395Y-39500000D01*
X111346253Y-39485858D01*
X111525858Y-39306253D01*
X111540000Y-39320395D01*
X112495808Y-38364587D01*
X112400044Y-38100186D01*
X112110429Y-37959296D01*
X111798892Y-37877616D01*
X111477405Y-37858282D01*
X111158325Y-37902039D01*
X110853912Y-38007205D01*
X110679956Y-38100186D01*
X110605037Y-38307033D01*
X110589502Y-38255820D01*
X110530537Y-38145506D01*
X110451185Y-38048815D01*
X110354494Y-37969463D01*
X110244180Y-37910498D01*
X110124482Y-37874188D01*
X110000000Y-37861928D01*
X108000000Y-37861928D01*
X107875518Y-37874188D01*
X107755820Y-37910498D01*
X107645506Y-37969463D01*
X107548815Y-38048815D01*
X107469463Y-38145506D01*
X107410498Y-38255820D01*
X107374188Y-38375518D01*
X107361928Y-38500000D01*
X107361928Y-40115001D01*
X105805750Y-40115001D01*
X105749998Y-40109510D01*
X105694247Y-40115001D01*
X105527500Y-40131424D01*
X105313552Y-40196325D01*
X105116376Y-40301717D01*
X104943550Y-40443552D01*
X104908010Y-40486858D01*
X104725132Y-40669736D01*
X104735000Y-40620128D01*
X104735000Y-40179872D01*
X104649110Y-39748075D01*
X104480631Y-39341331D01*
X104236038Y-38975271D01*
X103924729Y-38663962D01*
X103558669Y-38419369D01*
X103151925Y-38250890D01*
X102720128Y-38165000D01*
X102279872Y-38165000D01*
X101848075Y-38250890D01*
X101441331Y-38419369D01*
X101075271Y-38663962D01*
X100763962Y-38975271D01*
X100519369Y-39341331D01*
X100350890Y-39748075D01*
X100265000Y-40179872D01*
X100265000Y-40620128D01*
X100350890Y-41051925D01*
X100519369Y-41458669D01*
X100763962Y-41824729D01*
X101075271Y-42136038D01*
X101441331Y-42380631D01*
X101848075Y-42549110D01*
X102279872Y-42635000D01*
X102720128Y-42635000D01*
X102769736Y-42625132D01*
X100822719Y-44572150D01*
X100581426Y-44620147D01*
X100320273Y-44728320D01*
X100085241Y-44885363D01*
X99885363Y-45085241D01*
X99728320Y-45320273D01*
X99660000Y-45485212D01*
X99660000Y-37660000D01*
X114314868Y-37660000D01*
X114109869Y-37865000D01*
G37*
G04 #@! TD.AperFunction*
M02*
