M48
; DRILL file {KiCad (5.1.7)-1} date 11/03/20 19:28:53
; FORMAT={-:-/ absolute / inch / decimal}
; #@! TF.CreationDate,2020-11-03T19:28:53+01:00
; #@! TF.GenerationSoftware,Kicad,Pcbnew,(5.1.7)-1
; #@! TF.FileFunction,Plated,1,2,PTH
FMAT,2
INCH
T1C0.0157
T2C0.0217
T3C0.0315
T4C0.0354
T5C0.0394
T6C0.0433
T7C0.0472
T8C0.0512
T9C0.0598
T10C0.0630
T11C0.0787
%
G90
G05
T1
X3.9567Y-2.6575
X3.9764Y-2.1063
X4.626Y-2.2638
X4.626Y-2.3819
X4.7244Y-2.2638
X4.7244Y-2.3819
X4.7835Y-2.6772
X5.2165Y-2.7165
X5.748Y-2.3228
X5.748Y-2.5
X5.748Y-2.6969
X5.7677Y-3.4055
X5.9449Y-4.3701
X6.0236Y-3.1496
X6.0433Y-3.4843
X6.1024Y-1.6732
X6.4961Y-3.3071
X6.6929Y-1.6339
X6.811Y-3.3858
X6.9291Y-3.189
X6.9685Y-4.1535
X7.1654Y-2.1063
X7.2047Y-3.2677
X7.3622Y-1.5748
X7.3622Y-1.6732
X7.4606Y-4.1535
X7.4705Y-1.8209
X7.5Y-4.3504
X7.5591Y-2.8543
X7.6378Y-3.2874
X7.7362Y-4.0748
X7.7756Y-1.7717
T2
X7.4Y-2.6575
X7.45Y-2.6575
X7.5Y-2.6575
X4.0969Y-2.5591
X4.1469Y-2.5591
X4.1969Y-2.5591
X6.6717Y-2.6575
X6.7217Y-2.6575
X6.7717Y-2.6575
T3
X4.3898Y-2.0374
X4.3898Y-2.1161
X5.7677Y-1.811
X5.9646Y-1.811
X6.1697Y-1.5354
X6.2197Y-1.5354
X6.2697Y-1.5354
X4.4724Y-2.3142
X4.4724Y-2.6142
X6.9488Y-2.3819
X6.9488Y-2.6819
X5.3937Y-3.2283
X5.4937Y-3.2283
X5.5937Y-3.2283
X4.3602Y-1.811
X4.5571Y-1.811
X5.2067Y-1.6457
X5.5067Y-1.6457
X7.2047Y-2.3819
X7.2047Y-2.6819
X5.3299Y-2.7953
X5.6299Y-2.7953
X3.9764Y-1.811
X4.1732Y-1.811
X4.6457Y-3.7047
X4.9409Y-3.7756
X4.7146Y-2.0374
X4.7146Y-2.1161
X5.3299Y-2.9528
X5.6299Y-2.9528
X7.2933Y-1.7913
X7.5933Y-1.7913
X4.065Y-2.0374
X4.065Y-2.1161
X4.7441Y-1.811
X4.9409Y-1.811
T4
X5.4331Y-3.4646
X5.5331Y-3.4646
T5
X5.7646Y-1.5551
X5.8646Y-1.5551
X5.9646Y-1.5551
X4.2913Y-1.5551
X4.3913Y-1.5551
X4.4913Y-1.5551
X4.7441Y-1.5551
X4.8441Y-1.5551
X4.9441Y-1.5551
X7.6476Y-1.9382
X7.6476Y-2.0382
X7.6476Y-2.1728
X7.6476Y-2.2728
X7.6476Y-2.3728
X7.6476Y-2.4728
X4.0945Y-2.2886
X4.0945Y-2.3886
T6
X6.5094Y-3.7795
X6.9094Y-3.7795
X7.2575Y-3.7795
X7.6575Y-3.7795
T7
X4.7953Y-2.8622
X4.7953Y-3.4528
T8
X4.1339Y-2.8642
X4.1339Y-3.75
X6.4764Y-3.0039
X6.4764Y-3.4843
X6.7126Y-3.563
X6.9488Y-3.0039
X6.9488Y-3.4843
X7.2047Y-3.0039
X7.2047Y-3.4843
X7.4409Y-3.563
X7.6772Y-3.0039
X7.6772Y-3.4843
X5.9449Y-2.8642
X5.9449Y-3.75
T9
X6.1163Y-4.1535
X6.3163Y-4.1535
X4.9143Y-4.1535
X5.1143Y-4.1535
X5.4289Y-4.1535
X5.6289Y-4.1535
X7.1457Y-4.1535
X7.3457Y-4.1535
X4.3996Y-4.1535
X4.5996Y-4.1535
X6.631Y-4.1535
X6.831Y-4.1535
T10
X6.4591Y-1.5354
X6.5591Y-1.5354
X6.8622Y-1.5354
X7.1654Y-1.5354
X7.4685Y-1.5354
T11
X6.3976Y-1.9882
X6.3976Y-2.3819
X5.3346Y-1.9882
X5.3346Y-2.3819
T0
M30
