G04 #@! TF.GenerationSoftware,KiCad,Pcbnew,(5.1.7)-1*
G04 #@! TF.CreationDate,2020-11-04T12:53:52+01:00*
G04 #@! TF.ProjectId,PSU,5053552e-6b69-4636-9164-5f7063625858,rev?*
G04 #@! TF.SameCoordinates,Original*
G04 #@! TF.FileFunction,Legend,Top*
G04 #@! TF.FilePolarity,Positive*
%FSLAX46Y46*%
G04 Gerber Fmt 4.6, Leading zero omitted, Abs format (unit mm)*
G04 Created by KiCad (PCBNEW (5.1.7)-1) date 2020-11-04 12:53:52*
%MOMM*%
%LPD*%
G01*
G04 APERTURE LIST*
%ADD10C,0.150000*%
%ADD11C,0.120000*%
%ADD12C,0.100000*%
G04 APERTURE END LIST*
D10*
X185880952Y-62728571D02*
X185547619Y-62728571D01*
X185547619Y-63252380D02*
X185547619Y-62252380D01*
X186023809Y-62252380D01*
X186833333Y-63252380D02*
X186833333Y-62728571D01*
X186785714Y-62633333D01*
X186690476Y-62585714D01*
X186500000Y-62585714D01*
X186404761Y-62633333D01*
X186833333Y-63204761D02*
X186738095Y-63252380D01*
X186500000Y-63252380D01*
X186404761Y-63204761D01*
X186357142Y-63109523D01*
X186357142Y-63014285D01*
X186404761Y-62919047D01*
X186500000Y-62871428D01*
X186738095Y-62871428D01*
X186833333Y-62823809D01*
X187309523Y-62585714D02*
X187309523Y-63252380D01*
X187309523Y-62680952D02*
X187357142Y-62633333D01*
X187452380Y-62585714D01*
X187595238Y-62585714D01*
X187690476Y-62633333D01*
X187738095Y-62728571D01*
X187738095Y-63252380D01*
X188785714Y-63157142D02*
X188738095Y-63204761D01*
X188595238Y-63252380D01*
X188500000Y-63252380D01*
X188357142Y-63204761D01*
X188261904Y-63109523D01*
X188214285Y-63014285D01*
X188166666Y-62823809D01*
X188166666Y-62680952D01*
X188214285Y-62490476D01*
X188261904Y-62395238D01*
X188357142Y-62300000D01*
X188500000Y-62252380D01*
X188595238Y-62252380D01*
X188738095Y-62300000D01*
X188785714Y-62347619D01*
X189071428Y-62585714D02*
X189452380Y-62585714D01*
X189214285Y-62252380D02*
X189214285Y-63109523D01*
X189261904Y-63204761D01*
X189357142Y-63252380D01*
X189452380Y-63252380D01*
X189785714Y-63252380D02*
X189785714Y-62585714D01*
X189785714Y-62776190D02*
X189833333Y-62680952D01*
X189880952Y-62633333D01*
X189976190Y-62585714D01*
X190071428Y-62585714D01*
X190547619Y-63252380D02*
X190452380Y-63204761D01*
X190404761Y-63109523D01*
X190404761Y-62252380D01*
X187228571Y-60604761D02*
X187371428Y-60652380D01*
X187609523Y-60652380D01*
X187704761Y-60604761D01*
X187752380Y-60557142D01*
X187800000Y-60461904D01*
X187800000Y-60366666D01*
X187752380Y-60271428D01*
X187704761Y-60223809D01*
X187609523Y-60176190D01*
X187419047Y-60128571D01*
X187323809Y-60080952D01*
X187276190Y-60033333D01*
X187228571Y-59938095D01*
X187228571Y-59842857D01*
X187276190Y-59747619D01*
X187323809Y-59700000D01*
X187419047Y-59652380D01*
X187657142Y-59652380D01*
X187800000Y-59700000D01*
X188609523Y-60604761D02*
X188514285Y-60652380D01*
X188323809Y-60652380D01*
X188228571Y-60604761D01*
X188180952Y-60509523D01*
X188180952Y-60128571D01*
X188228571Y-60033333D01*
X188323809Y-59985714D01*
X188514285Y-59985714D01*
X188609523Y-60033333D01*
X188657142Y-60128571D01*
X188657142Y-60223809D01*
X188180952Y-60319047D01*
X189085714Y-59985714D02*
X189085714Y-60652380D01*
X189085714Y-60080952D02*
X189133333Y-60033333D01*
X189228571Y-59985714D01*
X189371428Y-59985714D01*
X189466666Y-60033333D01*
X189514285Y-60128571D01*
X189514285Y-60652380D01*
X189942857Y-60604761D02*
X190038095Y-60652380D01*
X190228571Y-60652380D01*
X190323809Y-60604761D01*
X190371428Y-60509523D01*
X190371428Y-60461904D01*
X190323809Y-60366666D01*
X190228571Y-60319047D01*
X190085714Y-60319047D01*
X189990476Y-60271428D01*
X189942857Y-60176190D01*
X189942857Y-60128571D01*
X189990476Y-60033333D01*
X190085714Y-59985714D01*
X190228571Y-59985714D01*
X190323809Y-60033333D01*
X100071428Y-60980952D02*
X100071428Y-60219047D01*
X99619047Y-58271428D02*
X100380952Y-58271428D01*
X100000000Y-58652380D02*
X100000000Y-57890476D01*
X108471428Y-56828571D02*
X108471428Y-56495238D01*
X107947619Y-56495238D02*
X108947619Y-56495238D01*
X108947619Y-56971428D01*
X108233333Y-57304761D02*
X108233333Y-57780952D01*
X107947619Y-57209523D02*
X108947619Y-57542857D01*
X107947619Y-57876190D01*
X107947619Y-58209523D02*
X108947619Y-58209523D01*
X107947619Y-58780952D01*
X108947619Y-58780952D01*
X107947619Y-60542857D02*
X107947619Y-59971428D01*
X107947619Y-60257142D02*
X108947619Y-60257142D01*
X108804761Y-60161904D01*
X108709523Y-60066666D01*
X108661904Y-59971428D01*
X108852380Y-60923809D02*
X108900000Y-60971428D01*
X108947619Y-61066666D01*
X108947619Y-61304761D01*
X108900000Y-61400000D01*
X108852380Y-61447619D01*
X108757142Y-61495238D01*
X108661904Y-61495238D01*
X108519047Y-61447619D01*
X107947619Y-60876190D01*
X107947619Y-61495238D01*
X108947619Y-61780952D02*
X107947619Y-62114285D01*
X108947619Y-62447619D01*
X152059523Y-98202380D02*
X152630952Y-98202380D01*
X152345238Y-99202380D02*
X152345238Y-98202380D01*
X153392857Y-98535714D02*
X153392857Y-99202380D01*
X153154761Y-98154761D02*
X152916666Y-98869047D01*
X153535714Y-98869047D01*
X153869047Y-98916666D02*
X154345238Y-98916666D01*
X153773809Y-99202380D02*
X154107142Y-98202380D01*
X154440476Y-99202380D01*
X103440476Y-98202380D02*
X104011904Y-98202380D01*
X103726190Y-99202380D02*
X103726190Y-98202380D01*
X104821428Y-98202380D02*
X104345238Y-98202380D01*
X104297619Y-98678571D01*
X104345238Y-98630952D01*
X104440476Y-98583333D01*
X104678571Y-98583333D01*
X104773809Y-98630952D01*
X104821428Y-98678571D01*
X104869047Y-98773809D01*
X104869047Y-99011904D01*
X104821428Y-99107142D01*
X104773809Y-99154761D01*
X104678571Y-99202380D01*
X104440476Y-99202380D01*
X104345238Y-99154761D01*
X104297619Y-99107142D01*
X105488095Y-98202380D02*
X105583333Y-98202380D01*
X105678571Y-98250000D01*
X105726190Y-98297619D01*
X105773809Y-98392857D01*
X105821428Y-98583333D01*
X105821428Y-98821428D01*
X105773809Y-99011904D01*
X105726190Y-99107142D01*
X105678571Y-99154761D01*
X105583333Y-99202380D01*
X105488095Y-99202380D01*
X105392857Y-99154761D01*
X105345238Y-99107142D01*
X105297619Y-99011904D01*
X105250000Y-98821428D01*
X105250000Y-98583333D01*
X105297619Y-98392857D01*
X105345238Y-98297619D01*
X105392857Y-98250000D01*
X105488095Y-98202380D01*
X106440476Y-98202380D02*
X106535714Y-98202380D01*
X106630952Y-98250000D01*
X106678571Y-98297619D01*
X106726190Y-98392857D01*
X106773809Y-98583333D01*
X106773809Y-98821428D01*
X106726190Y-99011904D01*
X106678571Y-99107142D01*
X106630952Y-99154761D01*
X106535714Y-99202380D01*
X106440476Y-99202380D01*
X106345238Y-99154761D01*
X106297619Y-99107142D01*
X106250000Y-99011904D01*
X106202380Y-98821428D01*
X106202380Y-98583333D01*
X106250000Y-98392857D01*
X106297619Y-98297619D01*
X106345238Y-98250000D01*
X106440476Y-98202380D01*
X107202380Y-99202380D02*
X107202380Y-98535714D01*
X107202380Y-98630952D02*
X107250000Y-98583333D01*
X107345238Y-98535714D01*
X107488095Y-98535714D01*
X107583333Y-98583333D01*
X107630952Y-98678571D01*
X107630952Y-99202380D01*
X107630952Y-98678571D02*
X107678571Y-98583333D01*
X107773809Y-98535714D01*
X107916666Y-98535714D01*
X108011904Y-98583333D01*
X108059523Y-98678571D01*
X108059523Y-99202380D01*
X108488095Y-98916666D02*
X108964285Y-98916666D01*
X108392857Y-99202380D02*
X108726190Y-98202380D01*
X109059523Y-99202380D01*
X188438095Y-51500000D02*
X188342857Y-51452380D01*
X188200000Y-51452380D01*
X188057142Y-51500000D01*
X187961904Y-51595238D01*
X187914285Y-51690476D01*
X187866666Y-51880952D01*
X187866666Y-52023809D01*
X187914285Y-52214285D01*
X187961904Y-52309523D01*
X188057142Y-52404761D01*
X188200000Y-52452380D01*
X188295238Y-52452380D01*
X188438095Y-52404761D01*
X188485714Y-52357142D01*
X188485714Y-52023809D01*
X188295238Y-52023809D01*
X188914285Y-52452380D02*
X188914285Y-51452380D01*
X189485714Y-52452380D01*
X189485714Y-51452380D01*
X189961904Y-52452380D02*
X189961904Y-51452380D01*
X190200000Y-51452380D01*
X190342857Y-51500000D01*
X190438095Y-51595238D01*
X190485714Y-51690476D01*
X190533333Y-51880952D01*
X190533333Y-52023809D01*
X190485714Y-52214285D01*
X190438095Y-52309523D01*
X190342857Y-52404761D01*
X190200000Y-52452380D01*
X189961904Y-52452380D01*
X183952380Y-55652380D02*
X183619047Y-55176190D01*
X183380952Y-55652380D02*
X183380952Y-54652380D01*
X183761904Y-54652380D01*
X183857142Y-54700000D01*
X183904761Y-54747619D01*
X183952380Y-54842857D01*
X183952380Y-54985714D01*
X183904761Y-55080952D01*
X183857142Y-55128571D01*
X183761904Y-55176190D01*
X183380952Y-55176190D01*
X184761904Y-55604761D02*
X184666666Y-55652380D01*
X184476190Y-55652380D01*
X184380952Y-55604761D01*
X184333333Y-55509523D01*
X184333333Y-55128571D01*
X184380952Y-55033333D01*
X184476190Y-54985714D01*
X184666666Y-54985714D01*
X184761904Y-55033333D01*
X184809523Y-55128571D01*
X184809523Y-55223809D01*
X184333333Y-55319047D01*
X185380952Y-55652380D02*
X185285714Y-55604761D01*
X185238095Y-55509523D01*
X185238095Y-54652380D01*
X186190476Y-55652380D02*
X186190476Y-55128571D01*
X186142857Y-55033333D01*
X186047619Y-54985714D01*
X185857142Y-54985714D01*
X185761904Y-55033333D01*
X186190476Y-55604761D02*
X186095238Y-55652380D01*
X185857142Y-55652380D01*
X185761904Y-55604761D01*
X185714285Y-55509523D01*
X185714285Y-55414285D01*
X185761904Y-55319047D01*
X185857142Y-55271428D01*
X186095238Y-55271428D01*
X186190476Y-55223809D01*
X186571428Y-54985714D02*
X186809523Y-55652380D01*
X187047619Y-54985714D02*
X186809523Y-55652380D01*
X186714285Y-55890476D01*
X186666666Y-55938095D01*
X186571428Y-55985714D01*
X188000000Y-55557142D02*
X187952380Y-55604761D01*
X187809523Y-55652380D01*
X187714285Y-55652380D01*
X187571428Y-55604761D01*
X187476190Y-55509523D01*
X187428571Y-55414285D01*
X187380952Y-55223809D01*
X187380952Y-55080952D01*
X187428571Y-54890476D01*
X187476190Y-54795238D01*
X187571428Y-54700000D01*
X187714285Y-54652380D01*
X187809523Y-54652380D01*
X187952380Y-54700000D01*
X188000000Y-54747619D01*
X188285714Y-54985714D02*
X188666666Y-54985714D01*
X188428571Y-54652380D02*
X188428571Y-55509523D01*
X188476190Y-55604761D01*
X188571428Y-55652380D01*
X188666666Y-55652380D01*
X189000000Y-55652380D02*
X189000000Y-54985714D01*
X189000000Y-55176190D02*
X189047619Y-55080952D01*
X189095238Y-55033333D01*
X189190476Y-54985714D01*
X189285714Y-54985714D01*
X189761904Y-55652380D02*
X189666666Y-55604761D01*
X189619047Y-55509523D01*
X189619047Y-54652380D01*
X190095238Y-54747619D02*
X190142857Y-54700000D01*
X190238095Y-54652380D01*
X190476190Y-54652380D01*
X190571428Y-54700000D01*
X190619047Y-54747619D01*
X190666666Y-54842857D01*
X190666666Y-54938095D01*
X190619047Y-55080952D01*
X190047619Y-55652380D01*
X190666666Y-55652380D01*
X183952380Y-58252380D02*
X183619047Y-57776190D01*
X183380952Y-58252380D02*
X183380952Y-57252380D01*
X183761904Y-57252380D01*
X183857142Y-57300000D01*
X183904761Y-57347619D01*
X183952380Y-57442857D01*
X183952380Y-57585714D01*
X183904761Y-57680952D01*
X183857142Y-57728571D01*
X183761904Y-57776190D01*
X183380952Y-57776190D01*
X184761904Y-58204761D02*
X184666666Y-58252380D01*
X184476190Y-58252380D01*
X184380952Y-58204761D01*
X184333333Y-58109523D01*
X184333333Y-57728571D01*
X184380952Y-57633333D01*
X184476190Y-57585714D01*
X184666666Y-57585714D01*
X184761904Y-57633333D01*
X184809523Y-57728571D01*
X184809523Y-57823809D01*
X184333333Y-57919047D01*
X185380952Y-58252380D02*
X185285714Y-58204761D01*
X185238095Y-58109523D01*
X185238095Y-57252380D01*
X186190476Y-58252380D02*
X186190476Y-57728571D01*
X186142857Y-57633333D01*
X186047619Y-57585714D01*
X185857142Y-57585714D01*
X185761904Y-57633333D01*
X186190476Y-58204761D02*
X186095238Y-58252380D01*
X185857142Y-58252380D01*
X185761904Y-58204761D01*
X185714285Y-58109523D01*
X185714285Y-58014285D01*
X185761904Y-57919047D01*
X185857142Y-57871428D01*
X186095238Y-57871428D01*
X186190476Y-57823809D01*
X186571428Y-57585714D02*
X186809523Y-58252380D01*
X187047619Y-57585714D02*
X186809523Y-58252380D01*
X186714285Y-58490476D01*
X186666666Y-58538095D01*
X186571428Y-58585714D01*
X188000000Y-58157142D02*
X187952380Y-58204761D01*
X187809523Y-58252380D01*
X187714285Y-58252380D01*
X187571428Y-58204761D01*
X187476190Y-58109523D01*
X187428571Y-58014285D01*
X187380952Y-57823809D01*
X187380952Y-57680952D01*
X187428571Y-57490476D01*
X187476190Y-57395238D01*
X187571428Y-57300000D01*
X187714285Y-57252380D01*
X187809523Y-57252380D01*
X187952380Y-57300000D01*
X188000000Y-57347619D01*
X188285714Y-57585714D02*
X188666666Y-57585714D01*
X188428571Y-57252380D02*
X188428571Y-58109523D01*
X188476190Y-58204761D01*
X188571428Y-58252380D01*
X188666666Y-58252380D01*
X189000000Y-58252380D02*
X189000000Y-57585714D01*
X189000000Y-57776190D02*
X189047619Y-57680952D01*
X189095238Y-57633333D01*
X189190476Y-57585714D01*
X189285714Y-57585714D01*
X189761904Y-58252380D02*
X189666666Y-58204761D01*
X189619047Y-58109523D01*
X189619047Y-57252380D01*
X190666666Y-58252380D02*
X190095238Y-58252380D01*
X190380952Y-58252380D02*
X190380952Y-57252380D01*
X190285714Y-57395238D01*
X190190476Y-57490476D01*
X190095238Y-57538095D01*
X187914285Y-49471428D02*
X188676190Y-49471428D01*
X188295238Y-49852380D02*
X188295238Y-49090476D01*
X189628571Y-48852380D02*
X189152380Y-48852380D01*
X189104761Y-49328571D01*
X189152380Y-49280952D01*
X189247619Y-49233333D01*
X189485714Y-49233333D01*
X189580952Y-49280952D01*
X189628571Y-49328571D01*
X189676190Y-49423809D01*
X189676190Y-49661904D01*
X189628571Y-49757142D01*
X189580952Y-49804761D01*
X189485714Y-49852380D01*
X189247619Y-49852380D01*
X189152380Y-49804761D01*
X189104761Y-49757142D01*
X189961904Y-48852380D02*
X190295238Y-49852380D01*
X190628571Y-48852380D01*
X180452380Y-111452380D02*
X180452380Y-112261904D01*
X180500000Y-112357142D01*
X180547619Y-112404761D01*
X180642857Y-112452380D01*
X180833333Y-112452380D01*
X180928571Y-112404761D01*
X180976190Y-112357142D01*
X181023809Y-112261904D01*
X181023809Y-111452380D01*
X181357142Y-111452380D02*
X181690476Y-112452380D01*
X182023809Y-111452380D01*
X183119047Y-112452380D02*
X183119047Y-111452380D01*
X183500000Y-111452380D01*
X183595238Y-111500000D01*
X183642857Y-111547619D01*
X183690476Y-111642857D01*
X183690476Y-111785714D01*
X183642857Y-111880952D01*
X183595238Y-111928571D01*
X183500000Y-111976190D01*
X183119047Y-111976190D01*
X184547619Y-112452380D02*
X184547619Y-111928571D01*
X184500000Y-111833333D01*
X184404761Y-111785714D01*
X184214285Y-111785714D01*
X184119047Y-111833333D01*
X184547619Y-112404761D02*
X184452380Y-112452380D01*
X184214285Y-112452380D01*
X184119047Y-112404761D01*
X184071428Y-112309523D01*
X184071428Y-112214285D01*
X184119047Y-112119047D01*
X184214285Y-112071428D01*
X184452380Y-112071428D01*
X184547619Y-112023809D01*
X185023809Y-111785714D02*
X185023809Y-112452380D01*
X185023809Y-111880952D02*
X185071428Y-111833333D01*
X185166666Y-111785714D01*
X185309523Y-111785714D01*
X185404761Y-111833333D01*
X185452380Y-111928571D01*
X185452380Y-112452380D01*
X186309523Y-112404761D02*
X186214285Y-112452380D01*
X186023809Y-112452380D01*
X185928571Y-112404761D01*
X185880952Y-112309523D01*
X185880952Y-111928571D01*
X185928571Y-111833333D01*
X186023809Y-111785714D01*
X186214285Y-111785714D01*
X186309523Y-111833333D01*
X186357142Y-111928571D01*
X186357142Y-112023809D01*
X185880952Y-112119047D01*
X186928571Y-112452380D02*
X186833333Y-112404761D01*
X186785714Y-112309523D01*
X186785714Y-111452380D01*
X188023809Y-111547619D02*
X188071428Y-111500000D01*
X188166666Y-111452380D01*
X188404761Y-111452380D01*
X188500000Y-111500000D01*
X188547619Y-111547619D01*
X188595238Y-111642857D01*
X188595238Y-111738095D01*
X188547619Y-111880952D01*
X187976190Y-112452380D01*
X188595238Y-112452380D01*
X166952380Y-111452380D02*
X166952380Y-112261904D01*
X167000000Y-112357142D01*
X167047619Y-112404761D01*
X167142857Y-112452380D01*
X167333333Y-112452380D01*
X167428571Y-112404761D01*
X167476190Y-112357142D01*
X167523809Y-112261904D01*
X167523809Y-111452380D01*
X167857142Y-111452380D02*
X168190476Y-112452380D01*
X168523809Y-111452380D01*
X169619047Y-112452380D02*
X169619047Y-111452380D01*
X170000000Y-111452380D01*
X170095238Y-111500000D01*
X170142857Y-111547619D01*
X170190476Y-111642857D01*
X170190476Y-111785714D01*
X170142857Y-111880952D01*
X170095238Y-111928571D01*
X170000000Y-111976190D01*
X169619047Y-111976190D01*
X171047619Y-112452380D02*
X171047619Y-111928571D01*
X171000000Y-111833333D01*
X170904761Y-111785714D01*
X170714285Y-111785714D01*
X170619047Y-111833333D01*
X171047619Y-112404761D02*
X170952380Y-112452380D01*
X170714285Y-112452380D01*
X170619047Y-112404761D01*
X170571428Y-112309523D01*
X170571428Y-112214285D01*
X170619047Y-112119047D01*
X170714285Y-112071428D01*
X170952380Y-112071428D01*
X171047619Y-112023809D01*
X171523809Y-111785714D02*
X171523809Y-112452380D01*
X171523809Y-111880952D02*
X171571428Y-111833333D01*
X171666666Y-111785714D01*
X171809523Y-111785714D01*
X171904761Y-111833333D01*
X171952380Y-111928571D01*
X171952380Y-112452380D01*
X172809523Y-112404761D02*
X172714285Y-112452380D01*
X172523809Y-112452380D01*
X172428571Y-112404761D01*
X172380952Y-112309523D01*
X172380952Y-111928571D01*
X172428571Y-111833333D01*
X172523809Y-111785714D01*
X172714285Y-111785714D01*
X172809523Y-111833333D01*
X172857142Y-111928571D01*
X172857142Y-112023809D01*
X172380952Y-112119047D01*
X173428571Y-112452380D02*
X173333333Y-112404761D01*
X173285714Y-112309523D01*
X173285714Y-111452380D01*
X175095238Y-112452380D02*
X174523809Y-112452380D01*
X174809523Y-112452380D02*
X174809523Y-111452380D01*
X174714285Y-111595238D01*
X174619047Y-111690476D01*
X174523809Y-111738095D01*
X152809523Y-111452380D02*
X153380952Y-111452380D01*
X153095238Y-112452380D02*
X153095238Y-111452380D01*
X153714285Y-112452380D02*
X153714285Y-111785714D01*
X153714285Y-111976190D02*
X153761904Y-111880952D01*
X153809523Y-111833333D01*
X153904761Y-111785714D01*
X154000000Y-111785714D01*
X154761904Y-112452380D02*
X154761904Y-111928571D01*
X154714285Y-111833333D01*
X154619047Y-111785714D01*
X154428571Y-111785714D01*
X154333333Y-111833333D01*
X154761904Y-112404761D02*
X154666666Y-112452380D01*
X154428571Y-112452380D01*
X154333333Y-112404761D01*
X154285714Y-112309523D01*
X154285714Y-112214285D01*
X154333333Y-112119047D01*
X154428571Y-112071428D01*
X154666666Y-112071428D01*
X154761904Y-112023809D01*
X155095238Y-111785714D02*
X155476190Y-111785714D01*
X155238095Y-112452380D02*
X155238095Y-111595238D01*
X155285714Y-111500000D01*
X155380952Y-111452380D01*
X155476190Y-111452380D01*
X155952380Y-112452380D02*
X155857142Y-112404761D01*
X155809523Y-112357142D01*
X155761904Y-112261904D01*
X155761904Y-111976190D01*
X155809523Y-111880952D01*
X155857142Y-111833333D01*
X155952380Y-111785714D01*
X156095238Y-111785714D01*
X156190476Y-111833333D01*
X156238095Y-111880952D01*
X156285714Y-111976190D01*
X156285714Y-112261904D01*
X156238095Y-112357142D01*
X156190476Y-112404761D01*
X156095238Y-112452380D01*
X155952380Y-112452380D01*
X157428571Y-112404761D02*
X157523809Y-112452380D01*
X157714285Y-112452380D01*
X157809523Y-112404761D01*
X157857142Y-112309523D01*
X157857142Y-112261904D01*
X157809523Y-112166666D01*
X157714285Y-112119047D01*
X157571428Y-112119047D01*
X157476190Y-112071428D01*
X157428571Y-111976190D01*
X157428571Y-111928571D01*
X157476190Y-111833333D01*
X157571428Y-111785714D01*
X157714285Y-111785714D01*
X157809523Y-111833333D01*
X158666666Y-112404761D02*
X158571428Y-112452380D01*
X158380952Y-112452380D01*
X158285714Y-112404761D01*
X158238095Y-112309523D01*
X158238095Y-111928571D01*
X158285714Y-111833333D01*
X158380952Y-111785714D01*
X158571428Y-111785714D01*
X158666666Y-111833333D01*
X158714285Y-111928571D01*
X158714285Y-112023809D01*
X158238095Y-112119047D01*
X159571428Y-112404761D02*
X159476190Y-112452380D01*
X159285714Y-112452380D01*
X159190476Y-112404761D01*
X159142857Y-112357142D01*
X159095238Y-112261904D01*
X159095238Y-111976190D01*
X159142857Y-111880952D01*
X159190476Y-111833333D01*
X159285714Y-111785714D01*
X159476190Y-111785714D01*
X159571428Y-111833333D01*
X160714285Y-111547619D02*
X160761904Y-111500000D01*
X160857142Y-111452380D01*
X161095238Y-111452380D01*
X161190476Y-111500000D01*
X161238095Y-111547619D01*
X161285714Y-111642857D01*
X161285714Y-111738095D01*
X161238095Y-111880952D01*
X160666666Y-112452380D01*
X161285714Y-112452380D01*
X162190476Y-111452380D02*
X161714285Y-111452380D01*
X161666666Y-111928571D01*
X161714285Y-111880952D01*
X161809523Y-111833333D01*
X162047619Y-111833333D01*
X162142857Y-111880952D01*
X162190476Y-111928571D01*
X162238095Y-112023809D01*
X162238095Y-112261904D01*
X162190476Y-112357142D01*
X162142857Y-112404761D01*
X162047619Y-112452380D01*
X161809523Y-112452380D01*
X161714285Y-112404761D01*
X161666666Y-112357142D01*
X162523809Y-111452380D02*
X162857142Y-112452380D01*
X163190476Y-111452380D01*
X135095238Y-111452380D02*
X135666666Y-111452380D01*
X135380952Y-112452380D02*
X135380952Y-111452380D01*
X136000000Y-112452380D02*
X136000000Y-111785714D01*
X136000000Y-111976190D02*
X136047619Y-111880952D01*
X136095238Y-111833333D01*
X136190476Y-111785714D01*
X136285714Y-111785714D01*
X137047619Y-112452380D02*
X137047619Y-111928571D01*
X137000000Y-111833333D01*
X136904761Y-111785714D01*
X136714285Y-111785714D01*
X136619047Y-111833333D01*
X137047619Y-112404761D02*
X136952380Y-112452380D01*
X136714285Y-112452380D01*
X136619047Y-112404761D01*
X136571428Y-112309523D01*
X136571428Y-112214285D01*
X136619047Y-112119047D01*
X136714285Y-112071428D01*
X136952380Y-112071428D01*
X137047619Y-112023809D01*
X137380952Y-111785714D02*
X137761904Y-111785714D01*
X137523809Y-112452380D02*
X137523809Y-111595238D01*
X137571428Y-111500000D01*
X137666666Y-111452380D01*
X137761904Y-111452380D01*
X138238095Y-112452380D02*
X138142857Y-112404761D01*
X138095238Y-112357142D01*
X138047619Y-112261904D01*
X138047619Y-111976190D01*
X138095238Y-111880952D01*
X138142857Y-111833333D01*
X138238095Y-111785714D01*
X138380952Y-111785714D01*
X138476190Y-111833333D01*
X138523809Y-111880952D01*
X138571428Y-111976190D01*
X138571428Y-112261904D01*
X138523809Y-112357142D01*
X138476190Y-112404761D01*
X138380952Y-112452380D01*
X138238095Y-112452380D01*
X139761904Y-111785714D02*
X139761904Y-112785714D01*
X139761904Y-111833333D02*
X139857142Y-111785714D01*
X140047619Y-111785714D01*
X140142857Y-111833333D01*
X140190476Y-111880952D01*
X140238095Y-111976190D01*
X140238095Y-112261904D01*
X140190476Y-112357142D01*
X140142857Y-112404761D01*
X140047619Y-112452380D01*
X139857142Y-112452380D01*
X139761904Y-112404761D01*
X140666666Y-112452380D02*
X140666666Y-111785714D01*
X140666666Y-111976190D02*
X140714285Y-111880952D01*
X140761904Y-111833333D01*
X140857142Y-111785714D01*
X140952380Y-111785714D01*
X141285714Y-112452380D02*
X141285714Y-111785714D01*
X141285714Y-111452380D02*
X141238095Y-111500000D01*
X141285714Y-111547619D01*
X141333333Y-111500000D01*
X141285714Y-111452380D01*
X141285714Y-111547619D01*
X142476190Y-111547619D02*
X142523809Y-111500000D01*
X142619047Y-111452380D01*
X142857142Y-111452380D01*
X142952380Y-111500000D01*
X143000000Y-111547619D01*
X143047619Y-111642857D01*
X143047619Y-111738095D01*
X143000000Y-111880952D01*
X142428571Y-112452380D01*
X143047619Y-112452380D01*
X143380952Y-111452380D02*
X144000000Y-111452380D01*
X143666666Y-111833333D01*
X143809523Y-111833333D01*
X143904761Y-111880952D01*
X143952380Y-111928571D01*
X144000000Y-112023809D01*
X144000000Y-112261904D01*
X143952380Y-112357142D01*
X143904761Y-112404761D01*
X143809523Y-112452380D01*
X143523809Y-112452380D01*
X143428571Y-112404761D01*
X143380952Y-112357142D01*
X144619047Y-111452380D02*
X144714285Y-111452380D01*
X144809523Y-111500000D01*
X144857142Y-111547619D01*
X144904761Y-111642857D01*
X144952380Y-111833333D01*
X144952380Y-112071428D01*
X144904761Y-112261904D01*
X144857142Y-112357142D01*
X144809523Y-112404761D01*
X144714285Y-112452380D01*
X144619047Y-112452380D01*
X144523809Y-112404761D01*
X144476190Y-112357142D01*
X144428571Y-112261904D01*
X144380952Y-112071428D01*
X144380952Y-111833333D01*
X144428571Y-111642857D01*
X144476190Y-111547619D01*
X144523809Y-111500000D01*
X144619047Y-111452380D01*
X145238095Y-111452380D02*
X145571428Y-112452380D01*
X145904761Y-111452380D01*
X122809523Y-112452380D02*
X122809523Y-111452380D01*
X123190476Y-111452380D01*
X123285714Y-111500000D01*
X123333333Y-111547619D01*
X123380952Y-111642857D01*
X123380952Y-111785714D01*
X123333333Y-111880952D01*
X123285714Y-111928571D01*
X123190476Y-111976190D01*
X122809523Y-111976190D01*
X123952380Y-112452380D02*
X123857142Y-112404761D01*
X123809523Y-112357142D01*
X123761904Y-112261904D01*
X123761904Y-111976190D01*
X123809523Y-111880952D01*
X123857142Y-111833333D01*
X123952380Y-111785714D01*
X124095238Y-111785714D01*
X124190476Y-111833333D01*
X124238095Y-111880952D01*
X124285714Y-111976190D01*
X124285714Y-112261904D01*
X124238095Y-112357142D01*
X124190476Y-112404761D01*
X124095238Y-112452380D01*
X123952380Y-112452380D01*
X124619047Y-111785714D02*
X124809523Y-112452380D01*
X125000000Y-111976190D01*
X125190476Y-112452380D01*
X125380952Y-111785714D01*
X126142857Y-112404761D02*
X126047619Y-112452380D01*
X125857142Y-112452380D01*
X125761904Y-112404761D01*
X125714285Y-112309523D01*
X125714285Y-111928571D01*
X125761904Y-111833333D01*
X125857142Y-111785714D01*
X126047619Y-111785714D01*
X126142857Y-111833333D01*
X126190476Y-111928571D01*
X126190476Y-112023809D01*
X125714285Y-112119047D01*
X126619047Y-112452380D02*
X126619047Y-111785714D01*
X126619047Y-111976190D02*
X126666666Y-111880952D01*
X126714285Y-111833333D01*
X126809523Y-111785714D01*
X126904761Y-111785714D01*
X127952380Y-112404761D02*
X128047619Y-112452380D01*
X128238095Y-112452380D01*
X128333333Y-112404761D01*
X128380952Y-112309523D01*
X128380952Y-112261904D01*
X128333333Y-112166666D01*
X128238095Y-112119047D01*
X128095238Y-112119047D01*
X128000000Y-112071428D01*
X127952380Y-111976190D01*
X127952380Y-111928571D01*
X128000000Y-111833333D01*
X128095238Y-111785714D01*
X128238095Y-111785714D01*
X128333333Y-111833333D01*
X128714285Y-111785714D02*
X128904761Y-112452380D01*
X129095238Y-111976190D01*
X129285714Y-112452380D01*
X129476190Y-111785714D01*
X129857142Y-112452380D02*
X129857142Y-111785714D01*
X129857142Y-111452380D02*
X129809523Y-111500000D01*
X129857142Y-111547619D01*
X129904761Y-111500000D01*
X129857142Y-111452380D01*
X129857142Y-111547619D01*
X130190476Y-111785714D02*
X130571428Y-111785714D01*
X130333333Y-111452380D02*
X130333333Y-112309523D01*
X130380952Y-112404761D01*
X130476190Y-112452380D01*
X130571428Y-112452380D01*
X131333333Y-112404761D02*
X131238095Y-112452380D01*
X131047619Y-112452380D01*
X130952380Y-112404761D01*
X130904761Y-112357142D01*
X130857142Y-112261904D01*
X130857142Y-111976190D01*
X130904761Y-111880952D01*
X130952380Y-111833333D01*
X131047619Y-111785714D01*
X131238095Y-111785714D01*
X131333333Y-111833333D01*
X131761904Y-112452380D02*
X131761904Y-111452380D01*
X132190476Y-112452380D02*
X132190476Y-111928571D01*
X132142857Y-111833333D01*
X132047619Y-111785714D01*
X131904761Y-111785714D01*
X131809523Y-111833333D01*
X131761904Y-111880952D01*
X110261904Y-111547619D02*
X110309523Y-111500000D01*
X110404761Y-111452380D01*
X110642857Y-111452380D01*
X110738095Y-111500000D01*
X110785714Y-111547619D01*
X110833333Y-111642857D01*
X110833333Y-111738095D01*
X110785714Y-111880952D01*
X110214285Y-112452380D01*
X110833333Y-112452380D01*
X111166666Y-111452380D02*
X111785714Y-111452380D01*
X111452380Y-111833333D01*
X111595238Y-111833333D01*
X111690476Y-111880952D01*
X111738095Y-111928571D01*
X111785714Y-112023809D01*
X111785714Y-112261904D01*
X111738095Y-112357142D01*
X111690476Y-112404761D01*
X111595238Y-112452380D01*
X111309523Y-112452380D01*
X111214285Y-112404761D01*
X111166666Y-112357142D01*
X112404761Y-111452380D02*
X112500000Y-111452380D01*
X112595238Y-111500000D01*
X112642857Y-111547619D01*
X112690476Y-111642857D01*
X112738095Y-111833333D01*
X112738095Y-112071428D01*
X112690476Y-112261904D01*
X112642857Y-112357142D01*
X112595238Y-112404761D01*
X112500000Y-112452380D01*
X112404761Y-112452380D01*
X112309523Y-112404761D01*
X112261904Y-112357142D01*
X112214285Y-112261904D01*
X112166666Y-112071428D01*
X112166666Y-111833333D01*
X112214285Y-111642857D01*
X112261904Y-111547619D01*
X112309523Y-111500000D01*
X112404761Y-111452380D01*
X113023809Y-111452380D02*
X113357142Y-112452380D01*
X113690476Y-111452380D01*
X113976190Y-112166666D02*
X114452380Y-112166666D01*
X113880952Y-112452380D02*
X114214285Y-111452380D01*
X114547619Y-112452380D01*
X115452380Y-112357142D02*
X115404761Y-112404761D01*
X115261904Y-112452380D01*
X115166666Y-112452380D01*
X115023809Y-112404761D01*
X114928571Y-112309523D01*
X114880952Y-112214285D01*
X114833333Y-112023809D01*
X114833333Y-111880952D01*
X114880952Y-111690476D01*
X114928571Y-111595238D01*
X115023809Y-111500000D01*
X115166666Y-111452380D01*
X115261904Y-111452380D01*
X115404761Y-111500000D01*
X115452380Y-111547619D01*
X116642857Y-112452380D02*
X116642857Y-111452380D01*
X117119047Y-112452380D02*
X117119047Y-111452380D01*
X117690476Y-112452380D01*
X117690476Y-111452380D01*
D11*
X156249255Y-37254942D02*
G75*
G03*
X159695000Y-37240000I1730745J-1808058D01*
G01*
X159690000Y-37240000D02*
X156270000Y-37240000D01*
X112560000Y-65860000D02*
X112230000Y-65860000D01*
X112230000Y-65860000D02*
X112230000Y-59320000D01*
X112230000Y-59320000D02*
X112560000Y-59320000D01*
X114640000Y-65860000D02*
X114970000Y-65860000D01*
X114970000Y-65860000D02*
X114970000Y-59320000D01*
X114970000Y-59320000D02*
X114640000Y-59320000D01*
D10*
X103380000Y-66550000D02*
G75*
G03*
X107230000Y-66600000I1950000J1900000D01*
G01*
D12*
X102980000Y-63400000D02*
X102830000Y-63700000D01*
X102980000Y-63400000D02*
X103280000Y-63400000D01*
X107380000Y-63400000D02*
X107680000Y-63400000D01*
X107680000Y-63400000D02*
X107830000Y-63700000D01*
D10*
X102000000Y-61900000D02*
X102000000Y-56900000D01*
X101400000Y-61940000D02*
X101400000Y-56860000D01*
X101400000Y-56860000D02*
X107200000Y-56860000D01*
X107200000Y-56860000D02*
X107200000Y-61940000D01*
X107200000Y-61940000D02*
X101400000Y-61940000D01*
D12*
X117940000Y-38210000D02*
X128040000Y-38210000D01*
X128140000Y-41900000D02*
X128140000Y-41500000D01*
X128140000Y-41900000D02*
X127740000Y-41900000D01*
X117940000Y-41900000D02*
X117940000Y-37500000D01*
X117940000Y-41900000D02*
X118340000Y-41900000D01*
X117940000Y-37100000D02*
X117940000Y-37500000D01*
X117940000Y-37100000D02*
X118340000Y-37100000D01*
X127740000Y-37100000D02*
X128140000Y-37100000D01*
X128140000Y-37100000D02*
X128140000Y-37500000D01*
D11*
X185790000Y-44460000D02*
X185790000Y-44130000D01*
X185790000Y-44130000D02*
X192330000Y-44130000D01*
X192330000Y-44130000D02*
X192330000Y-44460000D01*
X185790000Y-46540000D02*
X185790000Y-46870000D01*
X185790000Y-46870000D02*
X192330000Y-46870000D01*
X192330000Y-46870000D02*
X192330000Y-46540000D01*
D10*
X196250000Y-48000000D02*
X196250000Y-53000000D01*
X196850000Y-47960000D02*
X196850000Y-53040000D01*
X196850000Y-53040000D02*
X191050000Y-53040000D01*
X191050000Y-53040000D02*
X191050000Y-47960000D01*
X191050000Y-47960000D02*
X196850000Y-47960000D01*
X196250000Y-53920000D02*
X196250000Y-64080000D01*
X196850000Y-53920000D02*
X196850000Y-64080000D01*
X196850000Y-64080000D02*
X191050000Y-64080000D01*
X191050000Y-64080000D02*
X191050000Y-53920000D01*
X191050000Y-53920000D02*
X196850000Y-53920000D01*
D11*
X99780000Y-44630000D02*
X107220000Y-44630000D01*
X99780000Y-47370000D02*
X107220000Y-47370000D01*
X99780000Y-44630000D02*
X99780000Y-47370000D01*
X107220000Y-44630000D02*
X107220000Y-47370000D01*
X105870000Y-52750000D02*
G75*
G03*
X105870000Y-52750000I-2620000J0D01*
G01*
X102210000Y-52750000D02*
X100670000Y-52750000D01*
X105830000Y-52750000D02*
X104290000Y-52750000D01*
X102210000Y-52790000D02*
X100670000Y-52790000D01*
X105830000Y-52790000D02*
X104290000Y-52790000D01*
X105829000Y-52830000D02*
X104290000Y-52830000D01*
X102210000Y-52830000D02*
X100671000Y-52830000D01*
X105828000Y-52870000D02*
X104290000Y-52870000D01*
X102210000Y-52870000D02*
X100672000Y-52870000D01*
X105826000Y-52910000D02*
X104290000Y-52910000D01*
X102210000Y-52910000D02*
X100674000Y-52910000D01*
X105823000Y-52950000D02*
X104290000Y-52950000D01*
X102210000Y-52950000D02*
X100677000Y-52950000D01*
X105819000Y-52990000D02*
X104290000Y-52990000D01*
X102210000Y-52990000D02*
X100681000Y-52990000D01*
X105815000Y-53030000D02*
X104290000Y-53030000D01*
X102210000Y-53030000D02*
X100685000Y-53030000D01*
X105811000Y-53070000D02*
X104290000Y-53070000D01*
X102210000Y-53070000D02*
X100689000Y-53070000D01*
X105806000Y-53110000D02*
X104290000Y-53110000D01*
X102210000Y-53110000D02*
X100694000Y-53110000D01*
X105800000Y-53150000D02*
X104290000Y-53150000D01*
X102210000Y-53150000D02*
X100700000Y-53150000D01*
X105793000Y-53190000D02*
X104290000Y-53190000D01*
X102210000Y-53190000D02*
X100707000Y-53190000D01*
X105786000Y-53230000D02*
X104290000Y-53230000D01*
X102210000Y-53230000D02*
X100714000Y-53230000D01*
X105778000Y-53270000D02*
X104290000Y-53270000D01*
X102210000Y-53270000D02*
X100722000Y-53270000D01*
X105770000Y-53310000D02*
X104290000Y-53310000D01*
X102210000Y-53310000D02*
X100730000Y-53310000D01*
X105761000Y-53350000D02*
X104290000Y-53350000D01*
X102210000Y-53350000D02*
X100739000Y-53350000D01*
X105751000Y-53390000D02*
X104290000Y-53390000D01*
X102210000Y-53390000D02*
X100749000Y-53390000D01*
X105741000Y-53430000D02*
X104290000Y-53430000D01*
X102210000Y-53430000D02*
X100759000Y-53430000D01*
X105730000Y-53471000D02*
X104290000Y-53471000D01*
X102210000Y-53471000D02*
X100770000Y-53471000D01*
X105718000Y-53511000D02*
X104290000Y-53511000D01*
X102210000Y-53511000D02*
X100782000Y-53511000D01*
X105705000Y-53551000D02*
X104290000Y-53551000D01*
X102210000Y-53551000D02*
X100795000Y-53551000D01*
X105692000Y-53591000D02*
X104290000Y-53591000D01*
X102210000Y-53591000D02*
X100808000Y-53591000D01*
X105678000Y-53631000D02*
X104290000Y-53631000D01*
X102210000Y-53631000D02*
X100822000Y-53631000D01*
X105664000Y-53671000D02*
X104290000Y-53671000D01*
X102210000Y-53671000D02*
X100836000Y-53671000D01*
X105648000Y-53711000D02*
X104290000Y-53711000D01*
X102210000Y-53711000D02*
X100852000Y-53711000D01*
X105632000Y-53751000D02*
X104290000Y-53751000D01*
X102210000Y-53751000D02*
X100868000Y-53751000D01*
X105615000Y-53791000D02*
X104290000Y-53791000D01*
X102210000Y-53791000D02*
X100885000Y-53791000D01*
X105598000Y-53831000D02*
X104290000Y-53831000D01*
X102210000Y-53831000D02*
X100902000Y-53831000D01*
X105579000Y-53871000D02*
X104290000Y-53871000D01*
X102210000Y-53871000D02*
X100921000Y-53871000D01*
X105560000Y-53911000D02*
X104290000Y-53911000D01*
X102210000Y-53911000D02*
X100940000Y-53911000D01*
X105540000Y-53951000D02*
X104290000Y-53951000D01*
X102210000Y-53951000D02*
X100960000Y-53951000D01*
X105518000Y-53991000D02*
X104290000Y-53991000D01*
X102210000Y-53991000D02*
X100982000Y-53991000D01*
X105497000Y-54031000D02*
X104290000Y-54031000D01*
X102210000Y-54031000D02*
X101003000Y-54031000D01*
X105474000Y-54071000D02*
X104290000Y-54071000D01*
X102210000Y-54071000D02*
X101026000Y-54071000D01*
X105450000Y-54111000D02*
X104290000Y-54111000D01*
X102210000Y-54111000D02*
X101050000Y-54111000D01*
X105425000Y-54151000D02*
X104290000Y-54151000D01*
X102210000Y-54151000D02*
X101075000Y-54151000D01*
X105399000Y-54191000D02*
X104290000Y-54191000D01*
X102210000Y-54191000D02*
X101101000Y-54191000D01*
X105372000Y-54231000D02*
X104290000Y-54231000D01*
X102210000Y-54231000D02*
X101128000Y-54231000D01*
X105345000Y-54271000D02*
X104290000Y-54271000D01*
X102210000Y-54271000D02*
X101155000Y-54271000D01*
X105315000Y-54311000D02*
X104290000Y-54311000D01*
X102210000Y-54311000D02*
X101185000Y-54311000D01*
X105285000Y-54351000D02*
X104290000Y-54351000D01*
X102210000Y-54351000D02*
X101215000Y-54351000D01*
X105254000Y-54391000D02*
X104290000Y-54391000D01*
X102210000Y-54391000D02*
X101246000Y-54391000D01*
X105221000Y-54431000D02*
X104290000Y-54431000D01*
X102210000Y-54431000D02*
X101279000Y-54431000D01*
X105187000Y-54471000D02*
X104290000Y-54471000D01*
X102210000Y-54471000D02*
X101313000Y-54471000D01*
X105151000Y-54511000D02*
X104290000Y-54511000D01*
X102210000Y-54511000D02*
X101349000Y-54511000D01*
X105114000Y-54551000D02*
X104290000Y-54551000D01*
X102210000Y-54551000D02*
X101386000Y-54551000D01*
X105076000Y-54591000D02*
X104290000Y-54591000D01*
X102210000Y-54591000D02*
X101424000Y-54591000D01*
X105035000Y-54631000D02*
X104290000Y-54631000D01*
X102210000Y-54631000D02*
X101465000Y-54631000D01*
X104993000Y-54671000D02*
X104290000Y-54671000D01*
X102210000Y-54671000D02*
X101507000Y-54671000D01*
X104949000Y-54711000D02*
X104290000Y-54711000D01*
X102210000Y-54711000D02*
X101551000Y-54711000D01*
X104903000Y-54751000D02*
X104290000Y-54751000D01*
X102210000Y-54751000D02*
X101597000Y-54751000D01*
X104855000Y-54791000D02*
X101645000Y-54791000D01*
X104804000Y-54831000D02*
X101696000Y-54831000D01*
X104750000Y-54871000D02*
X101750000Y-54871000D01*
X104693000Y-54911000D02*
X101807000Y-54911000D01*
X104633000Y-54951000D02*
X101867000Y-54951000D01*
X104569000Y-54991000D02*
X101931000Y-54991000D01*
X104501000Y-55031000D02*
X101999000Y-55031000D01*
X104428000Y-55071000D02*
X102072000Y-55071000D01*
X104348000Y-55111000D02*
X102152000Y-55111000D01*
X104261000Y-55151000D02*
X102239000Y-55151000D01*
X104165000Y-55191000D02*
X102335000Y-55191000D01*
X104055000Y-55231000D02*
X102445000Y-55231000D01*
X103927000Y-55271000D02*
X102573000Y-55271000D01*
X103768000Y-55311000D02*
X102732000Y-55311000D01*
X103534000Y-55351000D02*
X102966000Y-55351000D01*
X104725000Y-49945225D02*
X104725000Y-50445225D01*
X104975000Y-50195225D02*
X104475000Y-50195225D01*
X109530000Y-44630000D02*
X116970000Y-44630000D01*
X109530000Y-47370000D02*
X116970000Y-47370000D01*
X109530000Y-44630000D02*
X109530000Y-47370000D01*
X116970000Y-44630000D02*
X116970000Y-47370000D01*
X119280000Y-44630000D02*
X126720000Y-44630000D01*
X119280000Y-47370000D02*
X126720000Y-47370000D01*
X119280000Y-44630000D02*
X119280000Y-47370000D01*
X126720000Y-44630000D02*
X126720000Y-47370000D01*
X114120000Y-52750000D02*
G75*
G03*
X114120000Y-52750000I-2620000J0D01*
G01*
X110460000Y-52750000D02*
X108920000Y-52750000D01*
X114080000Y-52750000D02*
X112540000Y-52750000D01*
X110460000Y-52790000D02*
X108920000Y-52790000D01*
X114080000Y-52790000D02*
X112540000Y-52790000D01*
X114079000Y-52830000D02*
X112540000Y-52830000D01*
X110460000Y-52830000D02*
X108921000Y-52830000D01*
X114078000Y-52870000D02*
X112540000Y-52870000D01*
X110460000Y-52870000D02*
X108922000Y-52870000D01*
X114076000Y-52910000D02*
X112540000Y-52910000D01*
X110460000Y-52910000D02*
X108924000Y-52910000D01*
X114073000Y-52950000D02*
X112540000Y-52950000D01*
X110460000Y-52950000D02*
X108927000Y-52950000D01*
X114069000Y-52990000D02*
X112540000Y-52990000D01*
X110460000Y-52990000D02*
X108931000Y-52990000D01*
X114065000Y-53030000D02*
X112540000Y-53030000D01*
X110460000Y-53030000D02*
X108935000Y-53030000D01*
X114061000Y-53070000D02*
X112540000Y-53070000D01*
X110460000Y-53070000D02*
X108939000Y-53070000D01*
X114056000Y-53110000D02*
X112540000Y-53110000D01*
X110460000Y-53110000D02*
X108944000Y-53110000D01*
X114050000Y-53150000D02*
X112540000Y-53150000D01*
X110460000Y-53150000D02*
X108950000Y-53150000D01*
X114043000Y-53190000D02*
X112540000Y-53190000D01*
X110460000Y-53190000D02*
X108957000Y-53190000D01*
X114036000Y-53230000D02*
X112540000Y-53230000D01*
X110460000Y-53230000D02*
X108964000Y-53230000D01*
X114028000Y-53270000D02*
X112540000Y-53270000D01*
X110460000Y-53270000D02*
X108972000Y-53270000D01*
X114020000Y-53310000D02*
X112540000Y-53310000D01*
X110460000Y-53310000D02*
X108980000Y-53310000D01*
X114011000Y-53350000D02*
X112540000Y-53350000D01*
X110460000Y-53350000D02*
X108989000Y-53350000D01*
X114001000Y-53390000D02*
X112540000Y-53390000D01*
X110460000Y-53390000D02*
X108999000Y-53390000D01*
X113991000Y-53430000D02*
X112540000Y-53430000D01*
X110460000Y-53430000D02*
X109009000Y-53430000D01*
X113980000Y-53471000D02*
X112540000Y-53471000D01*
X110460000Y-53471000D02*
X109020000Y-53471000D01*
X113968000Y-53511000D02*
X112540000Y-53511000D01*
X110460000Y-53511000D02*
X109032000Y-53511000D01*
X113955000Y-53551000D02*
X112540000Y-53551000D01*
X110460000Y-53551000D02*
X109045000Y-53551000D01*
X113942000Y-53591000D02*
X112540000Y-53591000D01*
X110460000Y-53591000D02*
X109058000Y-53591000D01*
X113928000Y-53631000D02*
X112540000Y-53631000D01*
X110460000Y-53631000D02*
X109072000Y-53631000D01*
X113914000Y-53671000D02*
X112540000Y-53671000D01*
X110460000Y-53671000D02*
X109086000Y-53671000D01*
X113898000Y-53711000D02*
X112540000Y-53711000D01*
X110460000Y-53711000D02*
X109102000Y-53711000D01*
X113882000Y-53751000D02*
X112540000Y-53751000D01*
X110460000Y-53751000D02*
X109118000Y-53751000D01*
X113865000Y-53791000D02*
X112540000Y-53791000D01*
X110460000Y-53791000D02*
X109135000Y-53791000D01*
X113848000Y-53831000D02*
X112540000Y-53831000D01*
X110460000Y-53831000D02*
X109152000Y-53831000D01*
X113829000Y-53871000D02*
X112540000Y-53871000D01*
X110460000Y-53871000D02*
X109171000Y-53871000D01*
X113810000Y-53911000D02*
X112540000Y-53911000D01*
X110460000Y-53911000D02*
X109190000Y-53911000D01*
X113790000Y-53951000D02*
X112540000Y-53951000D01*
X110460000Y-53951000D02*
X109210000Y-53951000D01*
X113768000Y-53991000D02*
X112540000Y-53991000D01*
X110460000Y-53991000D02*
X109232000Y-53991000D01*
X113747000Y-54031000D02*
X112540000Y-54031000D01*
X110460000Y-54031000D02*
X109253000Y-54031000D01*
X113724000Y-54071000D02*
X112540000Y-54071000D01*
X110460000Y-54071000D02*
X109276000Y-54071000D01*
X113700000Y-54111000D02*
X112540000Y-54111000D01*
X110460000Y-54111000D02*
X109300000Y-54111000D01*
X113675000Y-54151000D02*
X112540000Y-54151000D01*
X110460000Y-54151000D02*
X109325000Y-54151000D01*
X113649000Y-54191000D02*
X112540000Y-54191000D01*
X110460000Y-54191000D02*
X109351000Y-54191000D01*
X113622000Y-54231000D02*
X112540000Y-54231000D01*
X110460000Y-54231000D02*
X109378000Y-54231000D01*
X113595000Y-54271000D02*
X112540000Y-54271000D01*
X110460000Y-54271000D02*
X109405000Y-54271000D01*
X113565000Y-54311000D02*
X112540000Y-54311000D01*
X110460000Y-54311000D02*
X109435000Y-54311000D01*
X113535000Y-54351000D02*
X112540000Y-54351000D01*
X110460000Y-54351000D02*
X109465000Y-54351000D01*
X113504000Y-54391000D02*
X112540000Y-54391000D01*
X110460000Y-54391000D02*
X109496000Y-54391000D01*
X113471000Y-54431000D02*
X112540000Y-54431000D01*
X110460000Y-54431000D02*
X109529000Y-54431000D01*
X113437000Y-54471000D02*
X112540000Y-54471000D01*
X110460000Y-54471000D02*
X109563000Y-54471000D01*
X113401000Y-54511000D02*
X112540000Y-54511000D01*
X110460000Y-54511000D02*
X109599000Y-54511000D01*
X113364000Y-54551000D02*
X112540000Y-54551000D01*
X110460000Y-54551000D02*
X109636000Y-54551000D01*
X113326000Y-54591000D02*
X112540000Y-54591000D01*
X110460000Y-54591000D02*
X109674000Y-54591000D01*
X113285000Y-54631000D02*
X112540000Y-54631000D01*
X110460000Y-54631000D02*
X109715000Y-54631000D01*
X113243000Y-54671000D02*
X112540000Y-54671000D01*
X110460000Y-54671000D02*
X109757000Y-54671000D01*
X113199000Y-54711000D02*
X112540000Y-54711000D01*
X110460000Y-54711000D02*
X109801000Y-54711000D01*
X113153000Y-54751000D02*
X112540000Y-54751000D01*
X110460000Y-54751000D02*
X109847000Y-54751000D01*
X113105000Y-54791000D02*
X109895000Y-54791000D01*
X113054000Y-54831000D02*
X109946000Y-54831000D01*
X113000000Y-54871000D02*
X110000000Y-54871000D01*
X112943000Y-54911000D02*
X110057000Y-54911000D01*
X112883000Y-54951000D02*
X110117000Y-54951000D01*
X112819000Y-54991000D02*
X110181000Y-54991000D01*
X112751000Y-55031000D02*
X110249000Y-55031000D01*
X112678000Y-55071000D02*
X110322000Y-55071000D01*
X112598000Y-55111000D02*
X110402000Y-55111000D01*
X112511000Y-55151000D02*
X110489000Y-55151000D01*
X112415000Y-55191000D02*
X110585000Y-55191000D01*
X112305000Y-55231000D02*
X110695000Y-55231000D01*
X112177000Y-55271000D02*
X110823000Y-55271000D01*
X112018000Y-55311000D02*
X110982000Y-55311000D01*
X111784000Y-55351000D02*
X111216000Y-55351000D01*
X112975000Y-49945225D02*
X112975000Y-50445225D01*
X113225000Y-50195225D02*
X112725000Y-50195225D01*
X122370000Y-52750000D02*
G75*
G03*
X122370000Y-52750000I-2620000J0D01*
G01*
X118710000Y-52750000D02*
X117170000Y-52750000D01*
X122330000Y-52750000D02*
X120790000Y-52750000D01*
X118710000Y-52790000D02*
X117170000Y-52790000D01*
X122330000Y-52790000D02*
X120790000Y-52790000D01*
X122329000Y-52830000D02*
X120790000Y-52830000D01*
X118710000Y-52830000D02*
X117171000Y-52830000D01*
X122328000Y-52870000D02*
X120790000Y-52870000D01*
X118710000Y-52870000D02*
X117172000Y-52870000D01*
X122326000Y-52910000D02*
X120790000Y-52910000D01*
X118710000Y-52910000D02*
X117174000Y-52910000D01*
X122323000Y-52950000D02*
X120790000Y-52950000D01*
X118710000Y-52950000D02*
X117177000Y-52950000D01*
X122319000Y-52990000D02*
X120790000Y-52990000D01*
X118710000Y-52990000D02*
X117181000Y-52990000D01*
X122315000Y-53030000D02*
X120790000Y-53030000D01*
X118710000Y-53030000D02*
X117185000Y-53030000D01*
X122311000Y-53070000D02*
X120790000Y-53070000D01*
X118710000Y-53070000D02*
X117189000Y-53070000D01*
X122306000Y-53110000D02*
X120790000Y-53110000D01*
X118710000Y-53110000D02*
X117194000Y-53110000D01*
X122300000Y-53150000D02*
X120790000Y-53150000D01*
X118710000Y-53150000D02*
X117200000Y-53150000D01*
X122293000Y-53190000D02*
X120790000Y-53190000D01*
X118710000Y-53190000D02*
X117207000Y-53190000D01*
X122286000Y-53230000D02*
X120790000Y-53230000D01*
X118710000Y-53230000D02*
X117214000Y-53230000D01*
X122278000Y-53270000D02*
X120790000Y-53270000D01*
X118710000Y-53270000D02*
X117222000Y-53270000D01*
X122270000Y-53310000D02*
X120790000Y-53310000D01*
X118710000Y-53310000D02*
X117230000Y-53310000D01*
X122261000Y-53350000D02*
X120790000Y-53350000D01*
X118710000Y-53350000D02*
X117239000Y-53350000D01*
X122251000Y-53390000D02*
X120790000Y-53390000D01*
X118710000Y-53390000D02*
X117249000Y-53390000D01*
X122241000Y-53430000D02*
X120790000Y-53430000D01*
X118710000Y-53430000D02*
X117259000Y-53430000D01*
X122230000Y-53471000D02*
X120790000Y-53471000D01*
X118710000Y-53471000D02*
X117270000Y-53471000D01*
X122218000Y-53511000D02*
X120790000Y-53511000D01*
X118710000Y-53511000D02*
X117282000Y-53511000D01*
X122205000Y-53551000D02*
X120790000Y-53551000D01*
X118710000Y-53551000D02*
X117295000Y-53551000D01*
X122192000Y-53591000D02*
X120790000Y-53591000D01*
X118710000Y-53591000D02*
X117308000Y-53591000D01*
X122178000Y-53631000D02*
X120790000Y-53631000D01*
X118710000Y-53631000D02*
X117322000Y-53631000D01*
X122164000Y-53671000D02*
X120790000Y-53671000D01*
X118710000Y-53671000D02*
X117336000Y-53671000D01*
X122148000Y-53711000D02*
X120790000Y-53711000D01*
X118710000Y-53711000D02*
X117352000Y-53711000D01*
X122132000Y-53751000D02*
X120790000Y-53751000D01*
X118710000Y-53751000D02*
X117368000Y-53751000D01*
X122115000Y-53791000D02*
X120790000Y-53791000D01*
X118710000Y-53791000D02*
X117385000Y-53791000D01*
X122098000Y-53831000D02*
X120790000Y-53831000D01*
X118710000Y-53831000D02*
X117402000Y-53831000D01*
X122079000Y-53871000D02*
X120790000Y-53871000D01*
X118710000Y-53871000D02*
X117421000Y-53871000D01*
X122060000Y-53911000D02*
X120790000Y-53911000D01*
X118710000Y-53911000D02*
X117440000Y-53911000D01*
X122040000Y-53951000D02*
X120790000Y-53951000D01*
X118710000Y-53951000D02*
X117460000Y-53951000D01*
X122018000Y-53991000D02*
X120790000Y-53991000D01*
X118710000Y-53991000D02*
X117482000Y-53991000D01*
X121997000Y-54031000D02*
X120790000Y-54031000D01*
X118710000Y-54031000D02*
X117503000Y-54031000D01*
X121974000Y-54071000D02*
X120790000Y-54071000D01*
X118710000Y-54071000D02*
X117526000Y-54071000D01*
X121950000Y-54111000D02*
X120790000Y-54111000D01*
X118710000Y-54111000D02*
X117550000Y-54111000D01*
X121925000Y-54151000D02*
X120790000Y-54151000D01*
X118710000Y-54151000D02*
X117575000Y-54151000D01*
X121899000Y-54191000D02*
X120790000Y-54191000D01*
X118710000Y-54191000D02*
X117601000Y-54191000D01*
X121872000Y-54231000D02*
X120790000Y-54231000D01*
X118710000Y-54231000D02*
X117628000Y-54231000D01*
X121845000Y-54271000D02*
X120790000Y-54271000D01*
X118710000Y-54271000D02*
X117655000Y-54271000D01*
X121815000Y-54311000D02*
X120790000Y-54311000D01*
X118710000Y-54311000D02*
X117685000Y-54311000D01*
X121785000Y-54351000D02*
X120790000Y-54351000D01*
X118710000Y-54351000D02*
X117715000Y-54351000D01*
X121754000Y-54391000D02*
X120790000Y-54391000D01*
X118710000Y-54391000D02*
X117746000Y-54391000D01*
X121721000Y-54431000D02*
X120790000Y-54431000D01*
X118710000Y-54431000D02*
X117779000Y-54431000D01*
X121687000Y-54471000D02*
X120790000Y-54471000D01*
X118710000Y-54471000D02*
X117813000Y-54471000D01*
X121651000Y-54511000D02*
X120790000Y-54511000D01*
X118710000Y-54511000D02*
X117849000Y-54511000D01*
X121614000Y-54551000D02*
X120790000Y-54551000D01*
X118710000Y-54551000D02*
X117886000Y-54551000D01*
X121576000Y-54591000D02*
X120790000Y-54591000D01*
X118710000Y-54591000D02*
X117924000Y-54591000D01*
X121535000Y-54631000D02*
X120790000Y-54631000D01*
X118710000Y-54631000D02*
X117965000Y-54631000D01*
X121493000Y-54671000D02*
X120790000Y-54671000D01*
X118710000Y-54671000D02*
X118007000Y-54671000D01*
X121449000Y-54711000D02*
X120790000Y-54711000D01*
X118710000Y-54711000D02*
X118051000Y-54711000D01*
X121403000Y-54751000D02*
X120790000Y-54751000D01*
X118710000Y-54751000D02*
X118097000Y-54751000D01*
X121355000Y-54791000D02*
X118145000Y-54791000D01*
X121304000Y-54831000D02*
X118196000Y-54831000D01*
X121250000Y-54871000D02*
X118250000Y-54871000D01*
X121193000Y-54911000D02*
X118307000Y-54911000D01*
X121133000Y-54951000D02*
X118367000Y-54951000D01*
X121069000Y-54991000D02*
X118431000Y-54991000D01*
X121001000Y-55031000D02*
X118499000Y-55031000D01*
X120928000Y-55071000D02*
X118572000Y-55071000D01*
X120848000Y-55111000D02*
X118652000Y-55111000D01*
X120761000Y-55151000D02*
X118739000Y-55151000D01*
X120665000Y-55191000D02*
X118835000Y-55191000D01*
X120555000Y-55231000D02*
X118945000Y-55231000D01*
X120427000Y-55271000D02*
X119073000Y-55271000D01*
X120268000Y-55311000D02*
X119232000Y-55311000D01*
X120034000Y-55351000D02*
X119466000Y-55351000D01*
X121225000Y-49945225D02*
X121225000Y-50445225D01*
X121475000Y-50195225D02*
X120975000Y-50195225D01*
X152720000Y-47370000D02*
X145280000Y-47370000D01*
X152720000Y-44630000D02*
X145280000Y-44630000D01*
X152720000Y-47370000D02*
X152720000Y-44630000D01*
X145280000Y-47370000D02*
X145280000Y-44630000D01*
D12*
X116640000Y-37100000D02*
X116640000Y-37500000D01*
X116240000Y-37100000D02*
X116640000Y-37100000D01*
X106440000Y-37100000D02*
X106840000Y-37100000D01*
X106440000Y-37100000D02*
X106440000Y-37500000D01*
X106440000Y-41900000D02*
X106840000Y-41900000D01*
X106440000Y-41900000D02*
X106440000Y-37500000D01*
X116640000Y-41900000D02*
X116240000Y-41900000D01*
X116640000Y-41900000D02*
X116640000Y-41500000D01*
X106440000Y-38210000D02*
X116540000Y-38210000D01*
X143860000Y-38210000D02*
X153960000Y-38210000D01*
X154060000Y-41900000D02*
X154060000Y-41500000D01*
X154060000Y-41900000D02*
X153660000Y-41900000D01*
X143860000Y-41900000D02*
X143860000Y-37500000D01*
X143860000Y-41900000D02*
X144260000Y-41900000D01*
X143860000Y-37100000D02*
X143860000Y-37500000D01*
X143860000Y-37100000D02*
X144260000Y-37100000D01*
X153660000Y-37100000D02*
X154060000Y-37100000D01*
X154060000Y-37100000D02*
X154060000Y-37500000D01*
D11*
X144425000Y-84530000D02*
X134655000Y-84530000D01*
X144425000Y-79460000D02*
X134655000Y-79460000D01*
X144425000Y-84530000D02*
X144425000Y-79460000D01*
X134655000Y-84530000D02*
X134655000Y-79460000D01*
D10*
X115750000Y-97250000D02*
X127750000Y-97250000D01*
X115750000Y-92750000D02*
X127750000Y-92750000D01*
X127750000Y-92750000D02*
X127750000Y-97250000D01*
X115750000Y-92750000D02*
X115750000Y-97250000D01*
D12*
X180625000Y-92350000D02*
X180625000Y-92575000D01*
X180625000Y-92575000D02*
X181200000Y-93175000D01*
X181200000Y-93175000D02*
X182575000Y-93175000D01*
X197375000Y-92050000D02*
X197375000Y-93175000D01*
X197375000Y-93175000D02*
X196600000Y-93175000D01*
X196675000Y-70425000D02*
X197375000Y-70425000D01*
X197375000Y-70425000D02*
X197375000Y-71275000D01*
X180625000Y-71250000D02*
X180625000Y-70425000D01*
X180625000Y-70425000D02*
X181250000Y-70425000D01*
X162125000Y-92350000D02*
X162125000Y-92575000D01*
X162125000Y-92575000D02*
X162700000Y-93175000D01*
X162700000Y-93175000D02*
X164075000Y-93175000D01*
X178875000Y-92050000D02*
X178875000Y-93175000D01*
X178875000Y-93175000D02*
X178100000Y-93175000D01*
X178175000Y-70425000D02*
X178875000Y-70425000D01*
X178875000Y-70425000D02*
X178875000Y-71275000D01*
X162125000Y-71250000D02*
X162125000Y-70425000D01*
X162125000Y-70425000D02*
X162750000Y-70425000D01*
D11*
X142460000Y-72040000D02*
X142460000Y-72370000D01*
X142460000Y-72370000D02*
X135920000Y-72370000D01*
X135920000Y-72370000D02*
X135920000Y-72040000D01*
X142460000Y-69960000D02*
X142460000Y-69630000D01*
X142460000Y-69630000D02*
X135920000Y-69630000D01*
X135920000Y-69630000D02*
X135920000Y-69960000D01*
X142460000Y-76040000D02*
X142460000Y-76370000D01*
X142460000Y-76370000D02*
X135920000Y-76370000D01*
X135920000Y-76370000D02*
X135920000Y-76040000D01*
X142460000Y-73960000D02*
X142460000Y-73630000D01*
X142460000Y-73630000D02*
X135920000Y-73630000D01*
X135920000Y-73630000D02*
X135920000Y-73960000D01*
X184040000Y-61040000D02*
X184370000Y-61040000D01*
X184370000Y-61040000D02*
X184370000Y-67580000D01*
X184370000Y-67580000D02*
X184040000Y-67580000D01*
X181960000Y-61040000D02*
X181630000Y-61040000D01*
X181630000Y-61040000D02*
X181630000Y-67580000D01*
X181630000Y-67580000D02*
X181960000Y-67580000D01*
X177540000Y-61040000D02*
X177870000Y-61040000D01*
X177870000Y-61040000D02*
X177870000Y-67580000D01*
X177870000Y-67580000D02*
X177540000Y-67580000D01*
X175460000Y-61040000D02*
X175130000Y-61040000D01*
X175130000Y-61040000D02*
X175130000Y-67580000D01*
X175130000Y-67580000D02*
X175460000Y-67580000D01*
X132790000Y-40760000D02*
X132790000Y-40430000D01*
X132790000Y-40430000D02*
X139330000Y-40430000D01*
X139330000Y-40430000D02*
X139330000Y-40760000D01*
X132790000Y-42840000D02*
X132790000Y-43170000D01*
X132790000Y-43170000D02*
X139330000Y-43170000D01*
X139330000Y-43170000D02*
X139330000Y-42840000D01*
D12*
X186880000Y-65900000D02*
X186730000Y-66200000D01*
X186880000Y-65900000D02*
X187180000Y-65900000D01*
X191280000Y-65900000D02*
X191580000Y-65900000D01*
X191580000Y-65900000D02*
X191730000Y-66200000D01*
D10*
X187280000Y-69050000D02*
G75*
G03*
X191130000Y-69100000I1950000J1900000D01*
G01*
D12*
X168380000Y-65900000D02*
X168230000Y-66200000D01*
X168380000Y-65900000D02*
X168680000Y-65900000D01*
X172780000Y-65900000D02*
X173080000Y-65900000D01*
X173080000Y-65900000D02*
X173230000Y-66200000D01*
D10*
X168780000Y-69050000D02*
G75*
G03*
X172630000Y-69100000I1950000J1900000D01*
G01*
D11*
X178960000Y-110500000D02*
X189120000Y-110500000D01*
X178960000Y-100500000D02*
X178960000Y-110500000D01*
X189120000Y-100500000D02*
X178960000Y-100500000D01*
X189120000Y-110500000D02*
X189120000Y-100500000D01*
X189120000Y-109500000D02*
X178960000Y-109500000D01*
X165887379Y-110500000D02*
X176047379Y-110500000D01*
X165887379Y-100500000D02*
X165887379Y-110500000D01*
X176047379Y-100500000D02*
X165887379Y-100500000D01*
X176047379Y-110500000D02*
X176047379Y-100500000D01*
X176047379Y-109500000D02*
X165887379Y-109500000D01*
X122282619Y-110500000D02*
X132442619Y-110500000D01*
X122282619Y-100500000D02*
X122282619Y-110500000D01*
X132442619Y-100500000D02*
X122282619Y-100500000D01*
X132442619Y-110500000D02*
X132442619Y-100500000D01*
X132442619Y-109500000D02*
X122282619Y-109500000D01*
X109210000Y-110500000D02*
X119370000Y-110500000D01*
X109210000Y-100500000D02*
X109210000Y-110500000D01*
X119370000Y-100500000D02*
X109210000Y-100500000D01*
X119370000Y-110500000D02*
X119370000Y-100500000D01*
X119370000Y-109500000D02*
X109210000Y-109500000D01*
X135355238Y-110500000D02*
X145515238Y-110500000D01*
X135355238Y-100500000D02*
X135355238Y-110500000D01*
X145515238Y-100500000D02*
X135355238Y-100500000D01*
X145515238Y-110500000D02*
X145515238Y-100500000D01*
X145515238Y-109500000D02*
X135355238Y-109500000D01*
X152814760Y-110500000D02*
X162974760Y-110500000D01*
X152814760Y-100500000D02*
X152814760Y-110500000D01*
X162974760Y-100500000D02*
X152814760Y-100500000D01*
X162974760Y-110500000D02*
X162974760Y-100500000D01*
X162974760Y-109500000D02*
X152814760Y-109500000D01*
X146090000Y-95360000D02*
X149250000Y-95360000D01*
X152750000Y-95360000D02*
X155910000Y-95360000D01*
X152750000Y-72640000D02*
X155910000Y-72640000D01*
X155910000Y-72640000D02*
X155910000Y-95360000D01*
X146090000Y-72640000D02*
X146090000Y-95360000D01*
X146090000Y-72640000D02*
X149250000Y-72640000D01*
X100090000Y-95360000D02*
X103250000Y-95360000D01*
X106750000Y-95360000D02*
X109910000Y-95360000D01*
X106750000Y-72640000D02*
X109910000Y-72640000D01*
X109910000Y-72640000D02*
X109910000Y-95360000D01*
X100090000Y-72640000D02*
X100090000Y-95360000D01*
X100090000Y-72640000D02*
X103250000Y-72640000D01*
X137710000Y-86764000D02*
X137710000Y-86920000D01*
X137710000Y-89080000D02*
X137710000Y-89236000D01*
X140311130Y-89079837D02*
G75*
G02*
X138229039Y-89080000I-1041130J1079837D01*
G01*
X140311130Y-86920163D02*
G75*
G03*
X138229039Y-86920000I-1041130J-1079837D01*
G01*
X140942335Y-89078608D02*
G75*
G02*
X137710000Y-89235516I-1672335J1078608D01*
G01*
X140942335Y-86921392D02*
G75*
G03*
X137710000Y-86764484I-1672335J-1078608D01*
G01*
X192140000Y-97470000D02*
X192140000Y-94530000D01*
X192140000Y-94530000D02*
X186700000Y-94530000D01*
X186700000Y-94530000D02*
X186700000Y-97470000D01*
X186700000Y-97470000D02*
X192140000Y-97470000D01*
X193160000Y-96000000D02*
X192140000Y-96000000D01*
X185680000Y-96000000D02*
X186700000Y-96000000D01*
X191240000Y-97470000D02*
X191240000Y-94530000D01*
X191120000Y-97470000D02*
X191120000Y-94530000D01*
X191360000Y-97470000D02*
X191360000Y-94530000D01*
X173140000Y-97470000D02*
X173140000Y-94530000D01*
X173140000Y-94530000D02*
X167700000Y-94530000D01*
X167700000Y-94530000D02*
X167700000Y-97470000D01*
X167700000Y-97470000D02*
X173140000Y-97470000D01*
X174160000Y-96000000D02*
X173140000Y-96000000D01*
X166680000Y-96000000D02*
X167700000Y-96000000D01*
X172240000Y-97470000D02*
X172240000Y-94530000D01*
X172120000Y-97470000D02*
X172120000Y-94530000D01*
X172360000Y-97470000D02*
X172360000Y-94530000D01*
X191000000Y-37800000D02*
X191650000Y-37800000D01*
X191650000Y-41400000D02*
X162155000Y-41400000D01*
X191650000Y-37800000D02*
X191650000Y-41400000D01*
X183200000Y-37800000D02*
X188400000Y-37800000D01*
X175600000Y-37800000D02*
X180700000Y-37800000D01*
X168400000Y-37800000D02*
X173000000Y-37800000D01*
X162155000Y-41400000D02*
X162155000Y-37800000D01*
X162282000Y-37800000D02*
X162155000Y-37800000D01*
X173620000Y-55500000D02*
G75*
G03*
X173620000Y-55500000I-11120000J0D01*
G01*
X173581000Y-55500000D02*
X151419000Y-55500000D01*
X173580000Y-55540000D02*
X151420000Y-55540000D01*
X173580000Y-55580000D02*
X151420000Y-55580000D01*
X173580000Y-55620000D02*
X151420000Y-55620000D01*
X173579000Y-55660000D02*
X151421000Y-55660000D01*
X173579000Y-55700000D02*
X151421000Y-55700000D01*
X173578000Y-55740000D02*
X151422000Y-55740000D01*
X173577000Y-55780000D02*
X151423000Y-55780000D01*
X173576000Y-55820000D02*
X151424000Y-55820000D01*
X173575000Y-55860000D02*
X151425000Y-55860000D01*
X173573000Y-55900000D02*
X151427000Y-55900000D01*
X173572000Y-55940000D02*
X151428000Y-55940000D01*
X173570000Y-55980000D02*
X151430000Y-55980000D01*
X173568000Y-56020000D02*
X151432000Y-56020000D01*
X173566000Y-56060000D02*
X151434000Y-56060000D01*
X173564000Y-56100000D02*
X151436000Y-56100000D01*
X173562000Y-56140000D02*
X151438000Y-56140000D01*
X173560000Y-56180000D02*
X151440000Y-56180000D01*
X173557000Y-56221000D02*
X151443000Y-56221000D01*
X173554000Y-56261000D02*
X151446000Y-56261000D01*
X173552000Y-56301000D02*
X151448000Y-56301000D01*
X173549000Y-56341000D02*
X151451000Y-56341000D01*
X173546000Y-56381000D02*
X151454000Y-56381000D01*
X173542000Y-56421000D02*
X151458000Y-56421000D01*
X173539000Y-56461000D02*
X151461000Y-56461000D01*
X173535000Y-56501000D02*
X151465000Y-56501000D01*
X173532000Y-56541000D02*
X151468000Y-56541000D01*
X173528000Y-56581000D02*
X151472000Y-56581000D01*
X173524000Y-56621000D02*
X151476000Y-56621000D01*
X173520000Y-56661000D02*
X151480000Y-56661000D01*
X173516000Y-56701000D02*
X151484000Y-56701000D01*
X173511000Y-56741000D02*
X151489000Y-56741000D01*
X173507000Y-56781000D02*
X151493000Y-56781000D01*
X173502000Y-56821000D02*
X151498000Y-56821000D01*
X173497000Y-56861000D02*
X151503000Y-56861000D01*
X173492000Y-56901000D02*
X151508000Y-56901000D01*
X173487000Y-56941000D02*
X151513000Y-56941000D01*
X173482000Y-56981000D02*
X151518000Y-56981000D01*
X173476000Y-57021000D02*
X151524000Y-57021000D01*
X173471000Y-57061000D02*
X151529000Y-57061000D01*
X173465000Y-57101000D02*
X151535000Y-57101000D01*
X173459000Y-57141000D02*
X151541000Y-57141000D01*
X173453000Y-57181000D02*
X151547000Y-57181000D01*
X173447000Y-57221000D02*
X151553000Y-57221000D01*
X173440000Y-57261000D02*
X151560000Y-57261000D01*
X173434000Y-57301000D02*
X151566000Y-57301000D01*
X173427000Y-57341000D02*
X151573000Y-57341000D01*
X173420000Y-57381000D02*
X151580000Y-57381000D01*
X173413000Y-57421000D02*
X151587000Y-57421000D01*
X173406000Y-57461000D02*
X151594000Y-57461000D01*
X173399000Y-57501000D02*
X151601000Y-57501000D01*
X173392000Y-57541000D02*
X151608000Y-57541000D01*
X173384000Y-57581000D02*
X151616000Y-57581000D01*
X173377000Y-57621000D02*
X151623000Y-57621000D01*
X173369000Y-57661000D02*
X151631000Y-57661000D01*
X173361000Y-57701000D02*
X151639000Y-57701000D01*
X173353000Y-57741000D02*
X151647000Y-57741000D01*
X173344000Y-57781000D02*
X151656000Y-57781000D01*
X173336000Y-57821000D02*
X151664000Y-57821000D01*
X173327000Y-57861000D02*
X151673000Y-57861000D01*
X173318000Y-57901000D02*
X151682000Y-57901000D01*
X173309000Y-57941000D02*
X151691000Y-57941000D01*
X173300000Y-57981000D02*
X151700000Y-57981000D01*
X173291000Y-58021000D02*
X151709000Y-58021000D01*
X173282000Y-58061000D02*
X151718000Y-58061000D01*
X173272000Y-58101000D02*
X151728000Y-58101000D01*
X173263000Y-58141000D02*
X151737000Y-58141000D01*
X173253000Y-58181000D02*
X151747000Y-58181000D01*
X173243000Y-58221000D02*
X151757000Y-58221000D01*
X173233000Y-58261000D02*
X164740000Y-58261000D01*
X160260000Y-58261000D02*
X151767000Y-58261000D01*
X173222000Y-58301000D02*
X164740000Y-58301000D01*
X160260000Y-58301000D02*
X151778000Y-58301000D01*
X173212000Y-58341000D02*
X164740000Y-58341000D01*
X160260000Y-58341000D02*
X151788000Y-58341000D01*
X173201000Y-58381000D02*
X164740000Y-58381000D01*
X160260000Y-58381000D02*
X151799000Y-58381000D01*
X173190000Y-58421000D02*
X164740000Y-58421000D01*
X160260000Y-58421000D02*
X151810000Y-58421000D01*
X173179000Y-58461000D02*
X164740000Y-58461000D01*
X160260000Y-58461000D02*
X151821000Y-58461000D01*
X173168000Y-58501000D02*
X164740000Y-58501000D01*
X160260000Y-58501000D02*
X151832000Y-58501000D01*
X173157000Y-58541000D02*
X164740000Y-58541000D01*
X160260000Y-58541000D02*
X151843000Y-58541000D01*
X173145000Y-58581000D02*
X164740000Y-58581000D01*
X160260000Y-58581000D02*
X151855000Y-58581000D01*
X173134000Y-58621000D02*
X164740000Y-58621000D01*
X160260000Y-58621000D02*
X151866000Y-58621000D01*
X173122000Y-58661000D02*
X164740000Y-58661000D01*
X160260000Y-58661000D02*
X151878000Y-58661000D01*
X173110000Y-58701000D02*
X164740000Y-58701000D01*
X160260000Y-58701000D02*
X151890000Y-58701000D01*
X173098000Y-58741000D02*
X164740000Y-58741000D01*
X160260000Y-58741000D02*
X151902000Y-58741000D01*
X173086000Y-58781000D02*
X164740000Y-58781000D01*
X160260000Y-58781000D02*
X151914000Y-58781000D01*
X173073000Y-58821000D02*
X164740000Y-58821000D01*
X160260000Y-58821000D02*
X151927000Y-58821000D01*
X173061000Y-58861000D02*
X164740000Y-58861000D01*
X160260000Y-58861000D02*
X151939000Y-58861000D01*
X173048000Y-58901000D02*
X164740000Y-58901000D01*
X160260000Y-58901000D02*
X151952000Y-58901000D01*
X173035000Y-58941000D02*
X164740000Y-58941000D01*
X160260000Y-58941000D02*
X151965000Y-58941000D01*
X173022000Y-58981000D02*
X164740000Y-58981000D01*
X160260000Y-58981000D02*
X151978000Y-58981000D01*
X173009000Y-59021000D02*
X164740000Y-59021000D01*
X160260000Y-59021000D02*
X151991000Y-59021000D01*
X172995000Y-59061000D02*
X164740000Y-59061000D01*
X160260000Y-59061000D02*
X152005000Y-59061000D01*
X172982000Y-59101000D02*
X164740000Y-59101000D01*
X160260000Y-59101000D02*
X152018000Y-59101000D01*
X172968000Y-59141000D02*
X164740000Y-59141000D01*
X160260000Y-59141000D02*
X152032000Y-59141000D01*
X172954000Y-59181000D02*
X164740000Y-59181000D01*
X160260000Y-59181000D02*
X152046000Y-59181000D01*
X172940000Y-59221000D02*
X164740000Y-59221000D01*
X160260000Y-59221000D02*
X152060000Y-59221000D01*
X172926000Y-59261000D02*
X164740000Y-59261000D01*
X160260000Y-59261000D02*
X152074000Y-59261000D01*
X172911000Y-59301000D02*
X164740000Y-59301000D01*
X160260000Y-59301000D02*
X152089000Y-59301000D01*
X172896000Y-59341000D02*
X164740000Y-59341000D01*
X160260000Y-59341000D02*
X152104000Y-59341000D01*
X172882000Y-59381000D02*
X164740000Y-59381000D01*
X160260000Y-59381000D02*
X152118000Y-59381000D01*
X172867000Y-59421000D02*
X164740000Y-59421000D01*
X160260000Y-59421000D02*
X152133000Y-59421000D01*
X172851000Y-59461000D02*
X164740000Y-59461000D01*
X160260000Y-59461000D02*
X152149000Y-59461000D01*
X172836000Y-59501000D02*
X164740000Y-59501000D01*
X160260000Y-59501000D02*
X152164000Y-59501000D01*
X172821000Y-59541000D02*
X164740000Y-59541000D01*
X160260000Y-59541000D02*
X152179000Y-59541000D01*
X172805000Y-59581000D02*
X164740000Y-59581000D01*
X160260000Y-59581000D02*
X152195000Y-59581000D01*
X172789000Y-59621000D02*
X164740000Y-59621000D01*
X160260000Y-59621000D02*
X152211000Y-59621000D01*
X172773000Y-59661000D02*
X164740000Y-59661000D01*
X160260000Y-59661000D02*
X152227000Y-59661000D01*
X172757000Y-59701000D02*
X164740000Y-59701000D01*
X160260000Y-59701000D02*
X152243000Y-59701000D01*
X172740000Y-59741000D02*
X164740000Y-59741000D01*
X160260000Y-59741000D02*
X152260000Y-59741000D01*
X172724000Y-59781000D02*
X164740000Y-59781000D01*
X160260000Y-59781000D02*
X152276000Y-59781000D01*
X172707000Y-59821000D02*
X164740000Y-59821000D01*
X160260000Y-59821000D02*
X152293000Y-59821000D01*
X172690000Y-59861000D02*
X164740000Y-59861000D01*
X160260000Y-59861000D02*
X152310000Y-59861000D01*
X172673000Y-59901000D02*
X164740000Y-59901000D01*
X160260000Y-59901000D02*
X152327000Y-59901000D01*
X172656000Y-59941000D02*
X164740000Y-59941000D01*
X160260000Y-59941000D02*
X152344000Y-59941000D01*
X172638000Y-59981000D02*
X164740000Y-59981000D01*
X160260000Y-59981000D02*
X152362000Y-59981000D01*
X172620000Y-60021000D02*
X164740000Y-60021000D01*
X160260000Y-60021000D02*
X152380000Y-60021000D01*
X172603000Y-60061000D02*
X164740000Y-60061000D01*
X160260000Y-60061000D02*
X152397000Y-60061000D01*
X172584000Y-60101000D02*
X164740000Y-60101000D01*
X160260000Y-60101000D02*
X152416000Y-60101000D01*
X172566000Y-60141000D02*
X164740000Y-60141000D01*
X160260000Y-60141000D02*
X152434000Y-60141000D01*
X172548000Y-60181000D02*
X164740000Y-60181000D01*
X160260000Y-60181000D02*
X152452000Y-60181000D01*
X172529000Y-60221000D02*
X164740000Y-60221000D01*
X160260000Y-60221000D02*
X152471000Y-60221000D01*
X172510000Y-60261000D02*
X164740000Y-60261000D01*
X160260000Y-60261000D02*
X152490000Y-60261000D01*
X172491000Y-60301000D02*
X164740000Y-60301000D01*
X160260000Y-60301000D02*
X152509000Y-60301000D01*
X172472000Y-60341000D02*
X164740000Y-60341000D01*
X160260000Y-60341000D02*
X152528000Y-60341000D01*
X172452000Y-60381000D02*
X164740000Y-60381000D01*
X160260000Y-60381000D02*
X152548000Y-60381000D01*
X172433000Y-60421000D02*
X164740000Y-60421000D01*
X160260000Y-60421000D02*
X152567000Y-60421000D01*
X172413000Y-60461000D02*
X164740000Y-60461000D01*
X160260000Y-60461000D02*
X152587000Y-60461000D01*
X172393000Y-60501000D02*
X164740000Y-60501000D01*
X160260000Y-60501000D02*
X152607000Y-60501000D01*
X172373000Y-60541000D02*
X164740000Y-60541000D01*
X160260000Y-60541000D02*
X152627000Y-60541000D01*
X172352000Y-60581000D02*
X164740000Y-60581000D01*
X160260000Y-60581000D02*
X152648000Y-60581000D01*
X172332000Y-60621000D02*
X164740000Y-60621000D01*
X160260000Y-60621000D02*
X152668000Y-60621000D01*
X172311000Y-60661000D02*
X164740000Y-60661000D01*
X160260000Y-60661000D02*
X152689000Y-60661000D01*
X172290000Y-60701000D02*
X164740000Y-60701000D01*
X160260000Y-60701000D02*
X152710000Y-60701000D01*
X172268000Y-60741000D02*
X164740000Y-60741000D01*
X160260000Y-60741000D02*
X152732000Y-60741000D01*
X172247000Y-60781000D02*
X164740000Y-60781000D01*
X160260000Y-60781000D02*
X152753000Y-60781000D01*
X172225000Y-60821000D02*
X164740000Y-60821000D01*
X160260000Y-60821000D02*
X152775000Y-60821000D01*
X172203000Y-60861000D02*
X164740000Y-60861000D01*
X160260000Y-60861000D02*
X152797000Y-60861000D01*
X172181000Y-60901000D02*
X164740000Y-60901000D01*
X160260000Y-60901000D02*
X152819000Y-60901000D01*
X172159000Y-60941000D02*
X164740000Y-60941000D01*
X160260000Y-60941000D02*
X152841000Y-60941000D01*
X172136000Y-60981000D02*
X164740000Y-60981000D01*
X160260000Y-60981000D02*
X152864000Y-60981000D01*
X172114000Y-61021000D02*
X164740000Y-61021000D01*
X160260000Y-61021000D02*
X152886000Y-61021000D01*
X172091000Y-61061000D02*
X164740000Y-61061000D01*
X160260000Y-61061000D02*
X152909000Y-61061000D01*
X172067000Y-61101000D02*
X164740000Y-61101000D01*
X160260000Y-61101000D02*
X152933000Y-61101000D01*
X172044000Y-61141000D02*
X164740000Y-61141000D01*
X160260000Y-61141000D02*
X152956000Y-61141000D01*
X172020000Y-61181000D02*
X164740000Y-61181000D01*
X160260000Y-61181000D02*
X152980000Y-61181000D01*
X171997000Y-61221000D02*
X164740000Y-61221000D01*
X160260000Y-61221000D02*
X153003000Y-61221000D01*
X171972000Y-61261000D02*
X164740000Y-61261000D01*
X160260000Y-61261000D02*
X153028000Y-61261000D01*
X171948000Y-61301000D02*
X164740000Y-61301000D01*
X160260000Y-61301000D02*
X153052000Y-61301000D01*
X171924000Y-61341000D02*
X164740000Y-61341000D01*
X160260000Y-61341000D02*
X153076000Y-61341000D01*
X171899000Y-61381000D02*
X164740000Y-61381000D01*
X160260000Y-61381000D02*
X153101000Y-61381000D01*
X171874000Y-61421000D02*
X164740000Y-61421000D01*
X160260000Y-61421000D02*
X153126000Y-61421000D01*
X171848000Y-61461000D02*
X164740000Y-61461000D01*
X160260000Y-61461000D02*
X153152000Y-61461000D01*
X171823000Y-61501000D02*
X164740000Y-61501000D01*
X160260000Y-61501000D02*
X153177000Y-61501000D01*
X171797000Y-61541000D02*
X164740000Y-61541000D01*
X160260000Y-61541000D02*
X153203000Y-61541000D01*
X171771000Y-61581000D02*
X164740000Y-61581000D01*
X160260000Y-61581000D02*
X153229000Y-61581000D01*
X171745000Y-61621000D02*
X164740000Y-61621000D01*
X160260000Y-61621000D02*
X153255000Y-61621000D01*
X171718000Y-61661000D02*
X164740000Y-61661000D01*
X160260000Y-61661000D02*
X153282000Y-61661000D01*
X171692000Y-61701000D02*
X164740000Y-61701000D01*
X160260000Y-61701000D02*
X153308000Y-61701000D01*
X171665000Y-61741000D02*
X164740000Y-61741000D01*
X160260000Y-61741000D02*
X153335000Y-61741000D01*
X171637000Y-61781000D02*
X164740000Y-61781000D01*
X160260000Y-61781000D02*
X153363000Y-61781000D01*
X171610000Y-61821000D02*
X164740000Y-61821000D01*
X160260000Y-61821000D02*
X153390000Y-61821000D01*
X171582000Y-61861000D02*
X164740000Y-61861000D01*
X160260000Y-61861000D02*
X153418000Y-61861000D01*
X171554000Y-61901000D02*
X164740000Y-61901000D01*
X160260000Y-61901000D02*
X153446000Y-61901000D01*
X171526000Y-61941000D02*
X164740000Y-61941000D01*
X160260000Y-61941000D02*
X153474000Y-61941000D01*
X171497000Y-61981000D02*
X164740000Y-61981000D01*
X160260000Y-61981000D02*
X153503000Y-61981000D01*
X171468000Y-62021000D02*
X164740000Y-62021000D01*
X160260000Y-62021000D02*
X153532000Y-62021000D01*
X171439000Y-62061000D02*
X164740000Y-62061000D01*
X160260000Y-62061000D02*
X153561000Y-62061000D01*
X171410000Y-62101000D02*
X164740000Y-62101000D01*
X160260000Y-62101000D02*
X153590000Y-62101000D01*
X171380000Y-62141000D02*
X164740000Y-62141000D01*
X160260000Y-62141000D02*
X153620000Y-62141000D01*
X171350000Y-62181000D02*
X164740000Y-62181000D01*
X160260000Y-62181000D02*
X153650000Y-62181000D01*
X171320000Y-62221000D02*
X164740000Y-62221000D01*
X160260000Y-62221000D02*
X153680000Y-62221000D01*
X171290000Y-62261000D02*
X164740000Y-62261000D01*
X160260000Y-62261000D02*
X153710000Y-62261000D01*
X171259000Y-62301000D02*
X164740000Y-62301000D01*
X160260000Y-62301000D02*
X153741000Y-62301000D01*
X171228000Y-62341000D02*
X164740000Y-62341000D01*
X160260000Y-62341000D02*
X153772000Y-62341000D01*
X171197000Y-62381000D02*
X164740000Y-62381000D01*
X160260000Y-62381000D02*
X153803000Y-62381000D01*
X171165000Y-62421000D02*
X164740000Y-62421000D01*
X160260000Y-62421000D02*
X153835000Y-62421000D01*
X171133000Y-62461000D02*
X164740000Y-62461000D01*
X160260000Y-62461000D02*
X153867000Y-62461000D01*
X171101000Y-62501000D02*
X164740000Y-62501000D01*
X160260000Y-62501000D02*
X153899000Y-62501000D01*
X171068000Y-62541000D02*
X164740000Y-62541000D01*
X160260000Y-62541000D02*
X153932000Y-62541000D01*
X171035000Y-62581000D02*
X164740000Y-62581000D01*
X160260000Y-62581000D02*
X153965000Y-62581000D01*
X171002000Y-62621000D02*
X164740000Y-62621000D01*
X160260000Y-62621000D02*
X153998000Y-62621000D01*
X170969000Y-62661000D02*
X164740000Y-62661000D01*
X160260000Y-62661000D02*
X154031000Y-62661000D01*
X170935000Y-62701000D02*
X164740000Y-62701000D01*
X160260000Y-62701000D02*
X154065000Y-62701000D01*
X170901000Y-62741000D02*
X154099000Y-62741000D01*
X170866000Y-62781000D02*
X154134000Y-62781000D01*
X170831000Y-62821000D02*
X154169000Y-62821000D01*
X170796000Y-62861000D02*
X154204000Y-62861000D01*
X170761000Y-62901000D02*
X154239000Y-62901000D01*
X170725000Y-62941000D02*
X154275000Y-62941000D01*
X170689000Y-62981000D02*
X154311000Y-62981000D01*
X170652000Y-63021000D02*
X154348000Y-63021000D01*
X170615000Y-63061000D02*
X154385000Y-63061000D01*
X170578000Y-63101000D02*
X154422000Y-63101000D01*
X170540000Y-63141000D02*
X154460000Y-63141000D01*
X170502000Y-63181000D02*
X154498000Y-63181000D01*
X170464000Y-63221000D02*
X154536000Y-63221000D01*
X170425000Y-63261000D02*
X154575000Y-63261000D01*
X170386000Y-63301000D02*
X154614000Y-63301000D01*
X170346000Y-63341000D02*
X154654000Y-63341000D01*
X170307000Y-63381000D02*
X154693000Y-63381000D01*
X170266000Y-63421000D02*
X154734000Y-63421000D01*
X170225000Y-63461000D02*
X154775000Y-63461000D01*
X170184000Y-63501000D02*
X154816000Y-63501000D01*
X170142000Y-63541000D02*
X154858000Y-63541000D01*
X170100000Y-63581000D02*
X154900000Y-63581000D01*
X170058000Y-63621000D02*
X154942000Y-63621000D01*
X170015000Y-63661000D02*
X154985000Y-63661000D01*
X169971000Y-63700000D02*
X155029000Y-63700000D01*
X169928000Y-63740000D02*
X155072000Y-63740000D01*
X169883000Y-63780000D02*
X155117000Y-63780000D01*
X169838000Y-63820000D02*
X155162000Y-63820000D01*
X169793000Y-63860000D02*
X155207000Y-63860000D01*
X169747000Y-63900000D02*
X155253000Y-63900000D01*
X169701000Y-63940000D02*
X155299000Y-63940000D01*
X169654000Y-63980000D02*
X155346000Y-63980000D01*
X169606000Y-64020000D02*
X155394000Y-64020000D01*
X169558000Y-64060000D02*
X155442000Y-64060000D01*
X169510000Y-64100000D02*
X155490000Y-64100000D01*
X169461000Y-64140000D02*
X155539000Y-64140000D01*
X169411000Y-64180000D02*
X155589000Y-64180000D01*
X169361000Y-64220000D02*
X155639000Y-64220000D01*
X169310000Y-64260000D02*
X155690000Y-64260000D01*
X169259000Y-64300000D02*
X155741000Y-64300000D01*
X169207000Y-64340000D02*
X155793000Y-64340000D01*
X169154000Y-64380000D02*
X155846000Y-64380000D01*
X169100000Y-64420000D02*
X155900000Y-64420000D01*
X169046000Y-64460000D02*
X155954000Y-64460000D01*
X168992000Y-64500000D02*
X156008000Y-64500000D01*
X168936000Y-64540000D02*
X156064000Y-64540000D01*
X168880000Y-64580000D02*
X156120000Y-64580000D01*
X168823000Y-64620000D02*
X156177000Y-64620000D01*
X168765000Y-64660000D02*
X156235000Y-64660000D01*
X168707000Y-64700000D02*
X156293000Y-64700000D01*
X168647000Y-64740000D02*
X156353000Y-64740000D01*
X168587000Y-64780000D02*
X156413000Y-64780000D01*
X168526000Y-64820000D02*
X156474000Y-64820000D01*
X168464000Y-64860000D02*
X156536000Y-64860000D01*
X168401000Y-64900000D02*
X156599000Y-64900000D01*
X168338000Y-64940000D02*
X156662000Y-64940000D01*
X168273000Y-64980000D02*
X156727000Y-64980000D01*
X168207000Y-65020000D02*
X156793000Y-65020000D01*
X168140000Y-65060000D02*
X156860000Y-65060000D01*
X168072000Y-65100000D02*
X156928000Y-65100000D01*
X168003000Y-65140000D02*
X156997000Y-65140000D01*
X167933000Y-65180000D02*
X157067000Y-65180000D01*
X167862000Y-65220000D02*
X157138000Y-65220000D01*
X167789000Y-65260000D02*
X157211000Y-65260000D01*
X167715000Y-65300000D02*
X157285000Y-65300000D01*
X167640000Y-65340000D02*
X157360000Y-65340000D01*
X167563000Y-65380000D02*
X157437000Y-65380000D01*
X167485000Y-65420000D02*
X157515000Y-65420000D01*
X167405000Y-65460000D02*
X157595000Y-65460000D01*
X167324000Y-65500000D02*
X157676000Y-65500000D01*
X167241000Y-65540000D02*
X157759000Y-65540000D01*
X167156000Y-65580000D02*
X157844000Y-65580000D01*
X167069000Y-65620000D02*
X157931000Y-65620000D01*
X166980000Y-65660000D02*
X158020000Y-65660000D01*
X166889000Y-65700000D02*
X158111000Y-65700000D01*
X166796000Y-65740000D02*
X158204000Y-65740000D01*
X166700000Y-65780000D02*
X158300000Y-65780000D01*
X166602000Y-65820000D02*
X158398000Y-65820000D01*
X166501000Y-65860000D02*
X158499000Y-65860000D01*
X166397000Y-65900000D02*
X158603000Y-65900000D01*
X166289000Y-65940000D02*
X158711000Y-65940000D01*
X166179000Y-65980000D02*
X158821000Y-65980000D01*
X166064000Y-66020000D02*
X158936000Y-66020000D01*
X165945000Y-66060000D02*
X159055000Y-66060000D01*
X165821000Y-66100000D02*
X159179000Y-66100000D01*
X165692000Y-66140000D02*
X159308000Y-66140000D01*
X165558000Y-66180000D02*
X159442000Y-66180000D01*
X165416000Y-66220000D02*
X159584000Y-66220000D01*
X165267000Y-66260000D02*
X159733000Y-66260000D01*
X165109000Y-66300000D02*
X159891000Y-66300000D01*
X164940000Y-66340000D02*
X160060000Y-66340000D01*
X164758000Y-66380000D02*
X160242000Y-66380000D01*
X164560000Y-66420000D02*
X160440000Y-66420000D01*
X164340000Y-66460000D02*
X160660000Y-66460000D01*
X164090000Y-66500000D02*
X160910000Y-66500000D01*
X163792000Y-66540000D02*
X161208000Y-66540000D01*
X163403000Y-66580000D02*
X161597000Y-66580000D01*
X162540000Y-66620000D02*
X162460000Y-66620000D01*
X168735000Y-43600663D02*
X168735000Y-45800663D01*
X169835000Y-44700663D02*
X167635000Y-44700663D01*
X146620000Y-55500000D02*
G75*
G03*
X146620000Y-55500000I-11120000J0D01*
G01*
X146581000Y-55500000D02*
X124419000Y-55500000D01*
X146580000Y-55540000D02*
X124420000Y-55540000D01*
X146580000Y-55580000D02*
X124420000Y-55580000D01*
X146580000Y-55620000D02*
X124420000Y-55620000D01*
X146579000Y-55660000D02*
X124421000Y-55660000D01*
X146579000Y-55700000D02*
X124421000Y-55700000D01*
X146578000Y-55740000D02*
X124422000Y-55740000D01*
X146577000Y-55780000D02*
X124423000Y-55780000D01*
X146576000Y-55820000D02*
X124424000Y-55820000D01*
X146575000Y-55860000D02*
X124425000Y-55860000D01*
X146573000Y-55900000D02*
X124427000Y-55900000D01*
X146572000Y-55940000D02*
X124428000Y-55940000D01*
X146570000Y-55980000D02*
X124430000Y-55980000D01*
X146568000Y-56020000D02*
X124432000Y-56020000D01*
X146566000Y-56060000D02*
X124434000Y-56060000D01*
X146564000Y-56100000D02*
X124436000Y-56100000D01*
X146562000Y-56140000D02*
X124438000Y-56140000D01*
X146560000Y-56180000D02*
X124440000Y-56180000D01*
X146557000Y-56221000D02*
X124443000Y-56221000D01*
X146554000Y-56261000D02*
X124446000Y-56261000D01*
X146552000Y-56301000D02*
X124448000Y-56301000D01*
X146549000Y-56341000D02*
X124451000Y-56341000D01*
X146546000Y-56381000D02*
X124454000Y-56381000D01*
X146542000Y-56421000D02*
X124458000Y-56421000D01*
X146539000Y-56461000D02*
X124461000Y-56461000D01*
X146535000Y-56501000D02*
X124465000Y-56501000D01*
X146532000Y-56541000D02*
X124468000Y-56541000D01*
X146528000Y-56581000D02*
X124472000Y-56581000D01*
X146524000Y-56621000D02*
X124476000Y-56621000D01*
X146520000Y-56661000D02*
X124480000Y-56661000D01*
X146516000Y-56701000D02*
X124484000Y-56701000D01*
X146511000Y-56741000D02*
X124489000Y-56741000D01*
X146507000Y-56781000D02*
X124493000Y-56781000D01*
X146502000Y-56821000D02*
X124498000Y-56821000D01*
X146497000Y-56861000D02*
X124503000Y-56861000D01*
X146492000Y-56901000D02*
X124508000Y-56901000D01*
X146487000Y-56941000D02*
X124513000Y-56941000D01*
X146482000Y-56981000D02*
X124518000Y-56981000D01*
X146476000Y-57021000D02*
X124524000Y-57021000D01*
X146471000Y-57061000D02*
X124529000Y-57061000D01*
X146465000Y-57101000D02*
X124535000Y-57101000D01*
X146459000Y-57141000D02*
X124541000Y-57141000D01*
X146453000Y-57181000D02*
X124547000Y-57181000D01*
X146447000Y-57221000D02*
X124553000Y-57221000D01*
X146440000Y-57261000D02*
X124560000Y-57261000D01*
X146434000Y-57301000D02*
X124566000Y-57301000D01*
X146427000Y-57341000D02*
X124573000Y-57341000D01*
X146420000Y-57381000D02*
X124580000Y-57381000D01*
X146413000Y-57421000D02*
X124587000Y-57421000D01*
X146406000Y-57461000D02*
X124594000Y-57461000D01*
X146399000Y-57501000D02*
X124601000Y-57501000D01*
X146392000Y-57541000D02*
X124608000Y-57541000D01*
X146384000Y-57581000D02*
X124616000Y-57581000D01*
X146377000Y-57621000D02*
X124623000Y-57621000D01*
X146369000Y-57661000D02*
X124631000Y-57661000D01*
X146361000Y-57701000D02*
X124639000Y-57701000D01*
X146353000Y-57741000D02*
X124647000Y-57741000D01*
X146344000Y-57781000D02*
X124656000Y-57781000D01*
X146336000Y-57821000D02*
X124664000Y-57821000D01*
X146327000Y-57861000D02*
X124673000Y-57861000D01*
X146318000Y-57901000D02*
X124682000Y-57901000D01*
X146309000Y-57941000D02*
X124691000Y-57941000D01*
X146300000Y-57981000D02*
X124700000Y-57981000D01*
X146291000Y-58021000D02*
X124709000Y-58021000D01*
X146282000Y-58061000D02*
X124718000Y-58061000D01*
X146272000Y-58101000D02*
X124728000Y-58101000D01*
X146263000Y-58141000D02*
X124737000Y-58141000D01*
X146253000Y-58181000D02*
X124747000Y-58181000D01*
X146243000Y-58221000D02*
X124757000Y-58221000D01*
X146233000Y-58261000D02*
X137740000Y-58261000D01*
X133260000Y-58261000D02*
X124767000Y-58261000D01*
X146222000Y-58301000D02*
X137740000Y-58301000D01*
X133260000Y-58301000D02*
X124778000Y-58301000D01*
X146212000Y-58341000D02*
X137740000Y-58341000D01*
X133260000Y-58341000D02*
X124788000Y-58341000D01*
X146201000Y-58381000D02*
X137740000Y-58381000D01*
X133260000Y-58381000D02*
X124799000Y-58381000D01*
X146190000Y-58421000D02*
X137740000Y-58421000D01*
X133260000Y-58421000D02*
X124810000Y-58421000D01*
X146179000Y-58461000D02*
X137740000Y-58461000D01*
X133260000Y-58461000D02*
X124821000Y-58461000D01*
X146168000Y-58501000D02*
X137740000Y-58501000D01*
X133260000Y-58501000D02*
X124832000Y-58501000D01*
X146157000Y-58541000D02*
X137740000Y-58541000D01*
X133260000Y-58541000D02*
X124843000Y-58541000D01*
X146145000Y-58581000D02*
X137740000Y-58581000D01*
X133260000Y-58581000D02*
X124855000Y-58581000D01*
X146134000Y-58621000D02*
X137740000Y-58621000D01*
X133260000Y-58621000D02*
X124866000Y-58621000D01*
X146122000Y-58661000D02*
X137740000Y-58661000D01*
X133260000Y-58661000D02*
X124878000Y-58661000D01*
X146110000Y-58701000D02*
X137740000Y-58701000D01*
X133260000Y-58701000D02*
X124890000Y-58701000D01*
X146098000Y-58741000D02*
X137740000Y-58741000D01*
X133260000Y-58741000D02*
X124902000Y-58741000D01*
X146086000Y-58781000D02*
X137740000Y-58781000D01*
X133260000Y-58781000D02*
X124914000Y-58781000D01*
X146073000Y-58821000D02*
X137740000Y-58821000D01*
X133260000Y-58821000D02*
X124927000Y-58821000D01*
X146061000Y-58861000D02*
X137740000Y-58861000D01*
X133260000Y-58861000D02*
X124939000Y-58861000D01*
X146048000Y-58901000D02*
X137740000Y-58901000D01*
X133260000Y-58901000D02*
X124952000Y-58901000D01*
X146035000Y-58941000D02*
X137740000Y-58941000D01*
X133260000Y-58941000D02*
X124965000Y-58941000D01*
X146022000Y-58981000D02*
X137740000Y-58981000D01*
X133260000Y-58981000D02*
X124978000Y-58981000D01*
X146009000Y-59021000D02*
X137740000Y-59021000D01*
X133260000Y-59021000D02*
X124991000Y-59021000D01*
X145995000Y-59061000D02*
X137740000Y-59061000D01*
X133260000Y-59061000D02*
X125005000Y-59061000D01*
X145982000Y-59101000D02*
X137740000Y-59101000D01*
X133260000Y-59101000D02*
X125018000Y-59101000D01*
X145968000Y-59141000D02*
X137740000Y-59141000D01*
X133260000Y-59141000D02*
X125032000Y-59141000D01*
X145954000Y-59181000D02*
X137740000Y-59181000D01*
X133260000Y-59181000D02*
X125046000Y-59181000D01*
X145940000Y-59221000D02*
X137740000Y-59221000D01*
X133260000Y-59221000D02*
X125060000Y-59221000D01*
X145926000Y-59261000D02*
X137740000Y-59261000D01*
X133260000Y-59261000D02*
X125074000Y-59261000D01*
X145911000Y-59301000D02*
X137740000Y-59301000D01*
X133260000Y-59301000D02*
X125089000Y-59301000D01*
X145896000Y-59341000D02*
X137740000Y-59341000D01*
X133260000Y-59341000D02*
X125104000Y-59341000D01*
X145882000Y-59381000D02*
X137740000Y-59381000D01*
X133260000Y-59381000D02*
X125118000Y-59381000D01*
X145867000Y-59421000D02*
X137740000Y-59421000D01*
X133260000Y-59421000D02*
X125133000Y-59421000D01*
X145851000Y-59461000D02*
X137740000Y-59461000D01*
X133260000Y-59461000D02*
X125149000Y-59461000D01*
X145836000Y-59501000D02*
X137740000Y-59501000D01*
X133260000Y-59501000D02*
X125164000Y-59501000D01*
X145821000Y-59541000D02*
X137740000Y-59541000D01*
X133260000Y-59541000D02*
X125179000Y-59541000D01*
X145805000Y-59581000D02*
X137740000Y-59581000D01*
X133260000Y-59581000D02*
X125195000Y-59581000D01*
X145789000Y-59621000D02*
X137740000Y-59621000D01*
X133260000Y-59621000D02*
X125211000Y-59621000D01*
X145773000Y-59661000D02*
X137740000Y-59661000D01*
X133260000Y-59661000D02*
X125227000Y-59661000D01*
X145757000Y-59701000D02*
X137740000Y-59701000D01*
X133260000Y-59701000D02*
X125243000Y-59701000D01*
X145740000Y-59741000D02*
X137740000Y-59741000D01*
X133260000Y-59741000D02*
X125260000Y-59741000D01*
X145724000Y-59781000D02*
X137740000Y-59781000D01*
X133260000Y-59781000D02*
X125276000Y-59781000D01*
X145707000Y-59821000D02*
X137740000Y-59821000D01*
X133260000Y-59821000D02*
X125293000Y-59821000D01*
X145690000Y-59861000D02*
X137740000Y-59861000D01*
X133260000Y-59861000D02*
X125310000Y-59861000D01*
X145673000Y-59901000D02*
X137740000Y-59901000D01*
X133260000Y-59901000D02*
X125327000Y-59901000D01*
X145656000Y-59941000D02*
X137740000Y-59941000D01*
X133260000Y-59941000D02*
X125344000Y-59941000D01*
X145638000Y-59981000D02*
X137740000Y-59981000D01*
X133260000Y-59981000D02*
X125362000Y-59981000D01*
X145620000Y-60021000D02*
X137740000Y-60021000D01*
X133260000Y-60021000D02*
X125380000Y-60021000D01*
X145603000Y-60061000D02*
X137740000Y-60061000D01*
X133260000Y-60061000D02*
X125397000Y-60061000D01*
X145584000Y-60101000D02*
X137740000Y-60101000D01*
X133260000Y-60101000D02*
X125416000Y-60101000D01*
X145566000Y-60141000D02*
X137740000Y-60141000D01*
X133260000Y-60141000D02*
X125434000Y-60141000D01*
X145548000Y-60181000D02*
X137740000Y-60181000D01*
X133260000Y-60181000D02*
X125452000Y-60181000D01*
X145529000Y-60221000D02*
X137740000Y-60221000D01*
X133260000Y-60221000D02*
X125471000Y-60221000D01*
X145510000Y-60261000D02*
X137740000Y-60261000D01*
X133260000Y-60261000D02*
X125490000Y-60261000D01*
X145491000Y-60301000D02*
X137740000Y-60301000D01*
X133260000Y-60301000D02*
X125509000Y-60301000D01*
X145472000Y-60341000D02*
X137740000Y-60341000D01*
X133260000Y-60341000D02*
X125528000Y-60341000D01*
X145452000Y-60381000D02*
X137740000Y-60381000D01*
X133260000Y-60381000D02*
X125548000Y-60381000D01*
X145433000Y-60421000D02*
X137740000Y-60421000D01*
X133260000Y-60421000D02*
X125567000Y-60421000D01*
X145413000Y-60461000D02*
X137740000Y-60461000D01*
X133260000Y-60461000D02*
X125587000Y-60461000D01*
X145393000Y-60501000D02*
X137740000Y-60501000D01*
X133260000Y-60501000D02*
X125607000Y-60501000D01*
X145373000Y-60541000D02*
X137740000Y-60541000D01*
X133260000Y-60541000D02*
X125627000Y-60541000D01*
X145352000Y-60581000D02*
X137740000Y-60581000D01*
X133260000Y-60581000D02*
X125648000Y-60581000D01*
X145332000Y-60621000D02*
X137740000Y-60621000D01*
X133260000Y-60621000D02*
X125668000Y-60621000D01*
X145311000Y-60661000D02*
X137740000Y-60661000D01*
X133260000Y-60661000D02*
X125689000Y-60661000D01*
X145290000Y-60701000D02*
X137740000Y-60701000D01*
X133260000Y-60701000D02*
X125710000Y-60701000D01*
X145268000Y-60741000D02*
X137740000Y-60741000D01*
X133260000Y-60741000D02*
X125732000Y-60741000D01*
X145247000Y-60781000D02*
X137740000Y-60781000D01*
X133260000Y-60781000D02*
X125753000Y-60781000D01*
X145225000Y-60821000D02*
X137740000Y-60821000D01*
X133260000Y-60821000D02*
X125775000Y-60821000D01*
X145203000Y-60861000D02*
X137740000Y-60861000D01*
X133260000Y-60861000D02*
X125797000Y-60861000D01*
X145181000Y-60901000D02*
X137740000Y-60901000D01*
X133260000Y-60901000D02*
X125819000Y-60901000D01*
X145159000Y-60941000D02*
X137740000Y-60941000D01*
X133260000Y-60941000D02*
X125841000Y-60941000D01*
X145136000Y-60981000D02*
X137740000Y-60981000D01*
X133260000Y-60981000D02*
X125864000Y-60981000D01*
X145114000Y-61021000D02*
X137740000Y-61021000D01*
X133260000Y-61021000D02*
X125886000Y-61021000D01*
X145091000Y-61061000D02*
X137740000Y-61061000D01*
X133260000Y-61061000D02*
X125909000Y-61061000D01*
X145067000Y-61101000D02*
X137740000Y-61101000D01*
X133260000Y-61101000D02*
X125933000Y-61101000D01*
X145044000Y-61141000D02*
X137740000Y-61141000D01*
X133260000Y-61141000D02*
X125956000Y-61141000D01*
X145020000Y-61181000D02*
X137740000Y-61181000D01*
X133260000Y-61181000D02*
X125980000Y-61181000D01*
X144997000Y-61221000D02*
X137740000Y-61221000D01*
X133260000Y-61221000D02*
X126003000Y-61221000D01*
X144972000Y-61261000D02*
X137740000Y-61261000D01*
X133260000Y-61261000D02*
X126028000Y-61261000D01*
X144948000Y-61301000D02*
X137740000Y-61301000D01*
X133260000Y-61301000D02*
X126052000Y-61301000D01*
X144924000Y-61341000D02*
X137740000Y-61341000D01*
X133260000Y-61341000D02*
X126076000Y-61341000D01*
X144899000Y-61381000D02*
X137740000Y-61381000D01*
X133260000Y-61381000D02*
X126101000Y-61381000D01*
X144874000Y-61421000D02*
X137740000Y-61421000D01*
X133260000Y-61421000D02*
X126126000Y-61421000D01*
X144848000Y-61461000D02*
X137740000Y-61461000D01*
X133260000Y-61461000D02*
X126152000Y-61461000D01*
X144823000Y-61501000D02*
X137740000Y-61501000D01*
X133260000Y-61501000D02*
X126177000Y-61501000D01*
X144797000Y-61541000D02*
X137740000Y-61541000D01*
X133260000Y-61541000D02*
X126203000Y-61541000D01*
X144771000Y-61581000D02*
X137740000Y-61581000D01*
X133260000Y-61581000D02*
X126229000Y-61581000D01*
X144745000Y-61621000D02*
X137740000Y-61621000D01*
X133260000Y-61621000D02*
X126255000Y-61621000D01*
X144718000Y-61661000D02*
X137740000Y-61661000D01*
X133260000Y-61661000D02*
X126282000Y-61661000D01*
X144692000Y-61701000D02*
X137740000Y-61701000D01*
X133260000Y-61701000D02*
X126308000Y-61701000D01*
X144665000Y-61741000D02*
X137740000Y-61741000D01*
X133260000Y-61741000D02*
X126335000Y-61741000D01*
X144637000Y-61781000D02*
X137740000Y-61781000D01*
X133260000Y-61781000D02*
X126363000Y-61781000D01*
X144610000Y-61821000D02*
X137740000Y-61821000D01*
X133260000Y-61821000D02*
X126390000Y-61821000D01*
X144582000Y-61861000D02*
X137740000Y-61861000D01*
X133260000Y-61861000D02*
X126418000Y-61861000D01*
X144554000Y-61901000D02*
X137740000Y-61901000D01*
X133260000Y-61901000D02*
X126446000Y-61901000D01*
X144526000Y-61941000D02*
X137740000Y-61941000D01*
X133260000Y-61941000D02*
X126474000Y-61941000D01*
X144497000Y-61981000D02*
X137740000Y-61981000D01*
X133260000Y-61981000D02*
X126503000Y-61981000D01*
X144468000Y-62021000D02*
X137740000Y-62021000D01*
X133260000Y-62021000D02*
X126532000Y-62021000D01*
X144439000Y-62061000D02*
X137740000Y-62061000D01*
X133260000Y-62061000D02*
X126561000Y-62061000D01*
X144410000Y-62101000D02*
X137740000Y-62101000D01*
X133260000Y-62101000D02*
X126590000Y-62101000D01*
X144380000Y-62141000D02*
X137740000Y-62141000D01*
X133260000Y-62141000D02*
X126620000Y-62141000D01*
X144350000Y-62181000D02*
X137740000Y-62181000D01*
X133260000Y-62181000D02*
X126650000Y-62181000D01*
X144320000Y-62221000D02*
X137740000Y-62221000D01*
X133260000Y-62221000D02*
X126680000Y-62221000D01*
X144290000Y-62261000D02*
X137740000Y-62261000D01*
X133260000Y-62261000D02*
X126710000Y-62261000D01*
X144259000Y-62301000D02*
X137740000Y-62301000D01*
X133260000Y-62301000D02*
X126741000Y-62301000D01*
X144228000Y-62341000D02*
X137740000Y-62341000D01*
X133260000Y-62341000D02*
X126772000Y-62341000D01*
X144197000Y-62381000D02*
X137740000Y-62381000D01*
X133260000Y-62381000D02*
X126803000Y-62381000D01*
X144165000Y-62421000D02*
X137740000Y-62421000D01*
X133260000Y-62421000D02*
X126835000Y-62421000D01*
X144133000Y-62461000D02*
X137740000Y-62461000D01*
X133260000Y-62461000D02*
X126867000Y-62461000D01*
X144101000Y-62501000D02*
X137740000Y-62501000D01*
X133260000Y-62501000D02*
X126899000Y-62501000D01*
X144068000Y-62541000D02*
X137740000Y-62541000D01*
X133260000Y-62541000D02*
X126932000Y-62541000D01*
X144035000Y-62581000D02*
X137740000Y-62581000D01*
X133260000Y-62581000D02*
X126965000Y-62581000D01*
X144002000Y-62621000D02*
X137740000Y-62621000D01*
X133260000Y-62621000D02*
X126998000Y-62621000D01*
X143969000Y-62661000D02*
X137740000Y-62661000D01*
X133260000Y-62661000D02*
X127031000Y-62661000D01*
X143935000Y-62701000D02*
X137740000Y-62701000D01*
X133260000Y-62701000D02*
X127065000Y-62701000D01*
X143901000Y-62741000D02*
X127099000Y-62741000D01*
X143866000Y-62781000D02*
X127134000Y-62781000D01*
X143831000Y-62821000D02*
X127169000Y-62821000D01*
X143796000Y-62861000D02*
X127204000Y-62861000D01*
X143761000Y-62901000D02*
X127239000Y-62901000D01*
X143725000Y-62941000D02*
X127275000Y-62941000D01*
X143689000Y-62981000D02*
X127311000Y-62981000D01*
X143652000Y-63021000D02*
X127348000Y-63021000D01*
X143615000Y-63061000D02*
X127385000Y-63061000D01*
X143578000Y-63101000D02*
X127422000Y-63101000D01*
X143540000Y-63141000D02*
X127460000Y-63141000D01*
X143502000Y-63181000D02*
X127498000Y-63181000D01*
X143464000Y-63221000D02*
X127536000Y-63221000D01*
X143425000Y-63261000D02*
X127575000Y-63261000D01*
X143386000Y-63301000D02*
X127614000Y-63301000D01*
X143346000Y-63341000D02*
X127654000Y-63341000D01*
X143307000Y-63381000D02*
X127693000Y-63381000D01*
X143266000Y-63421000D02*
X127734000Y-63421000D01*
X143225000Y-63461000D02*
X127775000Y-63461000D01*
X143184000Y-63501000D02*
X127816000Y-63501000D01*
X143142000Y-63541000D02*
X127858000Y-63541000D01*
X143100000Y-63581000D02*
X127900000Y-63581000D01*
X143058000Y-63621000D02*
X127942000Y-63621000D01*
X143015000Y-63661000D02*
X127985000Y-63661000D01*
X142971000Y-63700000D02*
X128029000Y-63700000D01*
X142928000Y-63740000D02*
X128072000Y-63740000D01*
X142883000Y-63780000D02*
X128117000Y-63780000D01*
X142838000Y-63820000D02*
X128162000Y-63820000D01*
X142793000Y-63860000D02*
X128207000Y-63860000D01*
X142747000Y-63900000D02*
X128253000Y-63900000D01*
X142701000Y-63940000D02*
X128299000Y-63940000D01*
X142654000Y-63980000D02*
X128346000Y-63980000D01*
X142606000Y-64020000D02*
X128394000Y-64020000D01*
X142558000Y-64060000D02*
X128442000Y-64060000D01*
X142510000Y-64100000D02*
X128490000Y-64100000D01*
X142461000Y-64140000D02*
X128539000Y-64140000D01*
X142411000Y-64180000D02*
X128589000Y-64180000D01*
X142361000Y-64220000D02*
X128639000Y-64220000D01*
X142310000Y-64260000D02*
X128690000Y-64260000D01*
X142259000Y-64300000D02*
X128741000Y-64300000D01*
X142207000Y-64340000D02*
X128793000Y-64340000D01*
X142154000Y-64380000D02*
X128846000Y-64380000D01*
X142100000Y-64420000D02*
X128900000Y-64420000D01*
X142046000Y-64460000D02*
X128954000Y-64460000D01*
X141992000Y-64500000D02*
X129008000Y-64500000D01*
X141936000Y-64540000D02*
X129064000Y-64540000D01*
X141880000Y-64580000D02*
X129120000Y-64580000D01*
X141823000Y-64620000D02*
X129177000Y-64620000D01*
X141765000Y-64660000D02*
X129235000Y-64660000D01*
X141707000Y-64700000D02*
X129293000Y-64700000D01*
X141647000Y-64740000D02*
X129353000Y-64740000D01*
X141587000Y-64780000D02*
X129413000Y-64780000D01*
X141526000Y-64820000D02*
X129474000Y-64820000D01*
X141464000Y-64860000D02*
X129536000Y-64860000D01*
X141401000Y-64900000D02*
X129599000Y-64900000D01*
X141338000Y-64940000D02*
X129662000Y-64940000D01*
X141273000Y-64980000D02*
X129727000Y-64980000D01*
X141207000Y-65020000D02*
X129793000Y-65020000D01*
X141140000Y-65060000D02*
X129860000Y-65060000D01*
X141072000Y-65100000D02*
X129928000Y-65100000D01*
X141003000Y-65140000D02*
X129997000Y-65140000D01*
X140933000Y-65180000D02*
X130067000Y-65180000D01*
X140862000Y-65220000D02*
X130138000Y-65220000D01*
X140789000Y-65260000D02*
X130211000Y-65260000D01*
X140715000Y-65300000D02*
X130285000Y-65300000D01*
X140640000Y-65340000D02*
X130360000Y-65340000D01*
X140563000Y-65380000D02*
X130437000Y-65380000D01*
X140485000Y-65420000D02*
X130515000Y-65420000D01*
X140405000Y-65460000D02*
X130595000Y-65460000D01*
X140324000Y-65500000D02*
X130676000Y-65500000D01*
X140241000Y-65540000D02*
X130759000Y-65540000D01*
X140156000Y-65580000D02*
X130844000Y-65580000D01*
X140069000Y-65620000D02*
X130931000Y-65620000D01*
X139980000Y-65660000D02*
X131020000Y-65660000D01*
X139889000Y-65700000D02*
X131111000Y-65700000D01*
X139796000Y-65740000D02*
X131204000Y-65740000D01*
X139700000Y-65780000D02*
X131300000Y-65780000D01*
X139602000Y-65820000D02*
X131398000Y-65820000D01*
X139501000Y-65860000D02*
X131499000Y-65860000D01*
X139397000Y-65900000D02*
X131603000Y-65900000D01*
X139289000Y-65940000D02*
X131711000Y-65940000D01*
X139179000Y-65980000D02*
X131821000Y-65980000D01*
X139064000Y-66020000D02*
X131936000Y-66020000D01*
X138945000Y-66060000D02*
X132055000Y-66060000D01*
X138821000Y-66100000D02*
X132179000Y-66100000D01*
X138692000Y-66140000D02*
X132308000Y-66140000D01*
X138558000Y-66180000D02*
X132442000Y-66180000D01*
X138416000Y-66220000D02*
X132584000Y-66220000D01*
X138267000Y-66260000D02*
X132733000Y-66260000D01*
X138109000Y-66300000D02*
X132891000Y-66300000D01*
X137940000Y-66340000D02*
X133060000Y-66340000D01*
X137758000Y-66380000D02*
X133242000Y-66380000D01*
X137560000Y-66420000D02*
X133440000Y-66420000D01*
X137340000Y-66460000D02*
X133660000Y-66460000D01*
X137090000Y-66500000D02*
X133910000Y-66500000D01*
X136792000Y-66540000D02*
X134208000Y-66540000D01*
X136403000Y-66580000D02*
X134597000Y-66580000D01*
X135540000Y-66620000D02*
X135460000Y-66620000D01*
X141735000Y-43600663D02*
X141735000Y-45800663D01*
X142835000Y-44700663D02*
X140635000Y-44700663D01*
X124920000Y-71080000D02*
X124920000Y-89320000D01*
X118680000Y-71080000D02*
X118680000Y-89320000D01*
X124920000Y-71080000D02*
X118680000Y-71080000D01*
X124920000Y-89320000D02*
X118680000Y-89320000D01*
D12*
X157160000Y-39400000D02*
X157160000Y-38600000D01*
X156260000Y-39400000D02*
X156260000Y-38600000D01*
X157160000Y-38600000D02*
G75*
G03*
X156260000Y-38600000I-450000J0D01*
G01*
X156260000Y-39400000D02*
G75*
G03*
X157160000Y-39400000I450000J0D01*
G01*
X158430000Y-39400000D02*
X158430000Y-38600000D01*
X157530000Y-39400000D02*
X157530000Y-38600000D01*
X158430000Y-38600000D02*
G75*
G03*
X157530000Y-38600000I-450000J0D01*
G01*
X157530000Y-39400000D02*
G75*
G03*
X158430000Y-39400000I450000J0D01*
G01*
X159700000Y-39400000D02*
X159700000Y-38600000D01*
X158800000Y-39400000D02*
X158800000Y-38600000D01*
X159700000Y-38600000D02*
G75*
G03*
X158800000Y-38600000I-450000J0D01*
G01*
X158800000Y-39400000D02*
G75*
G03*
X159700000Y-39400000I450000J0D01*
G01*
D10*
X157218095Y-42262380D02*
X157218095Y-43071904D01*
X157265714Y-43167142D01*
X157313333Y-43214761D01*
X157408571Y-43262380D01*
X157599047Y-43262380D01*
X157694285Y-43214761D01*
X157741904Y-43167142D01*
X157789523Y-43071904D01*
X157789523Y-42262380D01*
X158218095Y-42357619D02*
X158265714Y-42310000D01*
X158360952Y-42262380D01*
X158599047Y-42262380D01*
X158694285Y-42310000D01*
X158741904Y-42357619D01*
X158789523Y-42452857D01*
X158789523Y-42548095D01*
X158741904Y-42690952D01*
X158170476Y-43262380D01*
X158789523Y-43262380D01*
X111682380Y-62756666D02*
X111206190Y-63090000D01*
X111682380Y-63328095D02*
X110682380Y-63328095D01*
X110682380Y-62947142D01*
X110730000Y-62851904D01*
X110777619Y-62804285D01*
X110872857Y-62756666D01*
X111015714Y-62756666D01*
X111110952Y-62804285D01*
X111158571Y-62851904D01*
X111206190Y-62947142D01*
X111206190Y-63328095D01*
X110682380Y-62423333D02*
X110682380Y-61756666D01*
X111682380Y-62185238D01*
X105234761Y-68897619D02*
X105139523Y-68850000D01*
X105044285Y-68754761D01*
X104901428Y-68611904D01*
X104806190Y-68564285D01*
X104710952Y-68564285D01*
X104758571Y-68802380D02*
X104663333Y-68754761D01*
X104568095Y-68659523D01*
X104520476Y-68469047D01*
X104520476Y-68135714D01*
X104568095Y-67945238D01*
X104663333Y-67850000D01*
X104758571Y-67802380D01*
X104949047Y-67802380D01*
X105044285Y-67850000D01*
X105139523Y-67945238D01*
X105187142Y-68135714D01*
X105187142Y-68469047D01*
X105139523Y-68659523D01*
X105044285Y-68754761D01*
X104949047Y-68802380D01*
X104758571Y-68802380D01*
X105520476Y-67802380D02*
X106139523Y-67802380D01*
X105806190Y-68183333D01*
X105949047Y-68183333D01*
X106044285Y-68230952D01*
X106091904Y-68278571D01*
X106139523Y-68373809D01*
X106139523Y-68611904D01*
X106091904Y-68707142D01*
X106044285Y-68754761D01*
X105949047Y-68802380D01*
X105663333Y-68802380D01*
X105568095Y-68754761D01*
X105520476Y-68707142D01*
X117838095Y-42252380D02*
X117838095Y-43061904D01*
X117885714Y-43157142D01*
X117933333Y-43204761D01*
X118028571Y-43252380D01*
X118219047Y-43252380D01*
X118314285Y-43204761D01*
X118361904Y-43157142D01*
X118409523Y-43061904D01*
X118409523Y-42252380D01*
X118790476Y-42252380D02*
X119409523Y-42252380D01*
X119076190Y-42633333D01*
X119219047Y-42633333D01*
X119314285Y-42680952D01*
X119361904Y-42728571D01*
X119409523Y-42823809D01*
X119409523Y-43061904D01*
X119361904Y-43157142D01*
X119314285Y-43204761D01*
X119219047Y-43252380D01*
X118933333Y-43252380D01*
X118838095Y-43204761D01*
X118790476Y-43157142D01*
X188893333Y-43582380D02*
X188560000Y-43106190D01*
X188321904Y-43582380D02*
X188321904Y-42582380D01*
X188702857Y-42582380D01*
X188798095Y-42630000D01*
X188845714Y-42677619D01*
X188893333Y-42772857D01*
X188893333Y-42915714D01*
X188845714Y-43010952D01*
X188798095Y-43058571D01*
X188702857Y-43106190D01*
X188321904Y-43106190D01*
X189750476Y-42915714D02*
X189750476Y-43582380D01*
X189512380Y-42534761D02*
X189274285Y-43249047D01*
X189893333Y-43249047D01*
X102857142Y-43857142D02*
X102809523Y-43904761D01*
X102666666Y-43952380D01*
X102571428Y-43952380D01*
X102428571Y-43904761D01*
X102333333Y-43809523D01*
X102285714Y-43714285D01*
X102238095Y-43523809D01*
X102238095Y-43380952D01*
X102285714Y-43190476D01*
X102333333Y-43095238D01*
X102428571Y-43000000D01*
X102571428Y-42952380D01*
X102666666Y-42952380D01*
X102809523Y-43000000D01*
X102857142Y-43047619D01*
X103809523Y-43952380D02*
X103238095Y-43952380D01*
X103523809Y-43952380D02*
X103523809Y-42952380D01*
X103428571Y-43095238D01*
X103333333Y-43190476D01*
X103238095Y-43238095D01*
X104428571Y-42952380D02*
X104523809Y-42952380D01*
X104619047Y-43000000D01*
X104666666Y-43047619D01*
X104714285Y-43142857D01*
X104761904Y-43333333D01*
X104761904Y-43571428D01*
X104714285Y-43761904D01*
X104666666Y-43857142D01*
X104619047Y-43904761D01*
X104523809Y-43952380D01*
X104428571Y-43952380D01*
X104333333Y-43904761D01*
X104285714Y-43857142D01*
X104238095Y-43761904D01*
X104190476Y-43571428D01*
X104190476Y-43333333D01*
X104238095Y-43142857D01*
X104285714Y-43047619D01*
X104333333Y-43000000D01*
X104428571Y-42952380D01*
X103083333Y-49857142D02*
X103035714Y-49904761D01*
X102892857Y-49952380D01*
X102797619Y-49952380D01*
X102654761Y-49904761D01*
X102559523Y-49809523D01*
X102511904Y-49714285D01*
X102464285Y-49523809D01*
X102464285Y-49380952D01*
X102511904Y-49190476D01*
X102559523Y-49095238D01*
X102654761Y-49000000D01*
X102797619Y-48952380D01*
X102892857Y-48952380D01*
X103035714Y-49000000D01*
X103083333Y-49047619D01*
X103559523Y-49952380D02*
X103750000Y-49952380D01*
X103845238Y-49904761D01*
X103892857Y-49857142D01*
X103988095Y-49714285D01*
X104035714Y-49523809D01*
X104035714Y-49142857D01*
X103988095Y-49047619D01*
X103940476Y-49000000D01*
X103845238Y-48952380D01*
X103654761Y-48952380D01*
X103559523Y-49000000D01*
X103511904Y-49047619D01*
X103464285Y-49142857D01*
X103464285Y-49380952D01*
X103511904Y-49476190D01*
X103559523Y-49523809D01*
X103654761Y-49571428D01*
X103845238Y-49571428D01*
X103940476Y-49523809D01*
X103988095Y-49476190D01*
X104035714Y-49380952D01*
X113083333Y-43857142D02*
X113035714Y-43904761D01*
X112892857Y-43952380D01*
X112797619Y-43952380D01*
X112654761Y-43904761D01*
X112559523Y-43809523D01*
X112511904Y-43714285D01*
X112464285Y-43523809D01*
X112464285Y-43380952D01*
X112511904Y-43190476D01*
X112559523Y-43095238D01*
X112654761Y-43000000D01*
X112797619Y-42952380D01*
X112892857Y-42952380D01*
X113035714Y-43000000D01*
X113083333Y-43047619D01*
X113654761Y-43380952D02*
X113559523Y-43333333D01*
X113511904Y-43285714D01*
X113464285Y-43190476D01*
X113464285Y-43142857D01*
X113511904Y-43047619D01*
X113559523Y-43000000D01*
X113654761Y-42952380D01*
X113845238Y-42952380D01*
X113940476Y-43000000D01*
X113988095Y-43047619D01*
X114035714Y-43142857D01*
X114035714Y-43190476D01*
X113988095Y-43285714D01*
X113940476Y-43333333D01*
X113845238Y-43380952D01*
X113654761Y-43380952D01*
X113559523Y-43428571D01*
X113511904Y-43476190D01*
X113464285Y-43571428D01*
X113464285Y-43761904D01*
X113511904Y-43857142D01*
X113559523Y-43904761D01*
X113654761Y-43952380D01*
X113845238Y-43952380D01*
X113940476Y-43904761D01*
X113988095Y-43857142D01*
X114035714Y-43761904D01*
X114035714Y-43571428D01*
X113988095Y-43476190D01*
X113940476Y-43428571D01*
X113845238Y-43380952D01*
X122833333Y-43857142D02*
X122785714Y-43904761D01*
X122642857Y-43952380D01*
X122547619Y-43952380D01*
X122404761Y-43904761D01*
X122309523Y-43809523D01*
X122261904Y-43714285D01*
X122214285Y-43523809D01*
X122214285Y-43380952D01*
X122261904Y-43190476D01*
X122309523Y-43095238D01*
X122404761Y-43000000D01*
X122547619Y-42952380D01*
X122642857Y-42952380D01*
X122785714Y-43000000D01*
X122833333Y-43047619D01*
X123690476Y-42952380D02*
X123500000Y-42952380D01*
X123404761Y-43000000D01*
X123357142Y-43047619D01*
X123261904Y-43190476D01*
X123214285Y-43380952D01*
X123214285Y-43761904D01*
X123261904Y-43857142D01*
X123309523Y-43904761D01*
X123404761Y-43952380D01*
X123595238Y-43952380D01*
X123690476Y-43904761D01*
X123738095Y-43857142D01*
X123785714Y-43761904D01*
X123785714Y-43523809D01*
X123738095Y-43428571D01*
X123690476Y-43380952D01*
X123595238Y-43333333D01*
X123404761Y-43333333D01*
X123309523Y-43380952D01*
X123261904Y-43428571D01*
X123214285Y-43523809D01*
X111333333Y-49857142D02*
X111285714Y-49904761D01*
X111142857Y-49952380D01*
X111047619Y-49952380D01*
X110904761Y-49904761D01*
X110809523Y-49809523D01*
X110761904Y-49714285D01*
X110714285Y-49523809D01*
X110714285Y-49380952D01*
X110761904Y-49190476D01*
X110809523Y-49095238D01*
X110904761Y-49000000D01*
X111047619Y-48952380D01*
X111142857Y-48952380D01*
X111285714Y-49000000D01*
X111333333Y-49047619D01*
X111666666Y-48952380D02*
X112333333Y-48952380D01*
X111904761Y-49952380D01*
X119583333Y-49857142D02*
X119535714Y-49904761D01*
X119392857Y-49952380D01*
X119297619Y-49952380D01*
X119154761Y-49904761D01*
X119059523Y-49809523D01*
X119011904Y-49714285D01*
X118964285Y-49523809D01*
X118964285Y-49380952D01*
X119011904Y-49190476D01*
X119059523Y-49095238D01*
X119154761Y-49000000D01*
X119297619Y-48952380D01*
X119392857Y-48952380D01*
X119535714Y-49000000D01*
X119583333Y-49047619D01*
X120488095Y-48952380D02*
X120011904Y-48952380D01*
X119964285Y-49428571D01*
X120011904Y-49380952D01*
X120107142Y-49333333D01*
X120345238Y-49333333D01*
X120440476Y-49380952D01*
X120488095Y-49428571D01*
X120535714Y-49523809D01*
X120535714Y-49761904D01*
X120488095Y-49857142D01*
X120440476Y-49904761D01*
X120345238Y-49952380D01*
X120107142Y-49952380D01*
X120011904Y-49904761D01*
X119964285Y-49857142D01*
X148833333Y-48857142D02*
X148785714Y-48904761D01*
X148642857Y-48952380D01*
X148547619Y-48952380D01*
X148404761Y-48904761D01*
X148309523Y-48809523D01*
X148261904Y-48714285D01*
X148214285Y-48523809D01*
X148214285Y-48380952D01*
X148261904Y-48190476D01*
X148309523Y-48095238D01*
X148404761Y-48000000D01*
X148547619Y-47952380D01*
X148642857Y-47952380D01*
X148785714Y-48000000D01*
X148833333Y-48047619D01*
X149690476Y-48285714D02*
X149690476Y-48952380D01*
X149452380Y-47904761D02*
X149214285Y-48619047D01*
X149833333Y-48619047D01*
X106488095Y-42202380D02*
X106488095Y-43011904D01*
X106535714Y-43107142D01*
X106583333Y-43154761D01*
X106678571Y-43202380D01*
X106869047Y-43202380D01*
X106964285Y-43154761D01*
X107011904Y-43107142D01*
X107059523Y-43011904D01*
X107059523Y-42202380D01*
X107964285Y-42535714D02*
X107964285Y-43202380D01*
X107726190Y-42154761D02*
X107488095Y-42869047D01*
X108107142Y-42869047D01*
X143838095Y-42252380D02*
X143838095Y-43061904D01*
X143885714Y-43157142D01*
X143933333Y-43204761D01*
X144028571Y-43252380D01*
X144219047Y-43252380D01*
X144314285Y-43204761D01*
X144361904Y-43157142D01*
X144409523Y-43061904D01*
X144409523Y-42252380D01*
X145409523Y-43252380D02*
X144838095Y-43252380D01*
X145123809Y-43252380D02*
X145123809Y-42252380D01*
X145028571Y-42395238D01*
X144933333Y-42490476D01*
X144838095Y-42538095D01*
X132154761Y-82452380D02*
X131821428Y-81976190D01*
X131583333Y-82452380D02*
X131583333Y-81452380D01*
X131964285Y-81452380D01*
X132059523Y-81500000D01*
X132107142Y-81547619D01*
X132154761Y-81642857D01*
X132154761Y-81785714D01*
X132107142Y-81880952D01*
X132059523Y-81928571D01*
X131964285Y-81976190D01*
X131583333Y-81976190D01*
X132440476Y-81452380D02*
X132773809Y-82452380D01*
X133107142Y-81452380D01*
X133392857Y-81547619D02*
X133440476Y-81500000D01*
X133535714Y-81452380D01*
X133773809Y-81452380D01*
X133869047Y-81500000D01*
X133916666Y-81547619D01*
X133964285Y-81642857D01*
X133964285Y-81738095D01*
X133916666Y-81880952D01*
X133345238Y-82452380D01*
X133964285Y-82452380D01*
X113404761Y-95452380D02*
X113071428Y-94976190D01*
X112833333Y-95452380D02*
X112833333Y-94452380D01*
X113214285Y-94452380D01*
X113309523Y-94500000D01*
X113357142Y-94547619D01*
X113404761Y-94642857D01*
X113404761Y-94785714D01*
X113357142Y-94880952D01*
X113309523Y-94928571D01*
X113214285Y-94976190D01*
X112833333Y-94976190D01*
X113690476Y-94452380D02*
X114023809Y-95452380D01*
X114357142Y-94452380D01*
X115214285Y-95452380D02*
X114642857Y-95452380D01*
X114928571Y-95452380D02*
X114928571Y-94452380D01*
X114833333Y-94595238D01*
X114738095Y-94690476D01*
X114642857Y-94738095D01*
X195000000Y-69702380D02*
X194666666Y-69226190D01*
X194428571Y-69702380D02*
X194428571Y-68702380D01*
X194809523Y-68702380D01*
X194904761Y-68750000D01*
X194952380Y-68797619D01*
X195000000Y-68892857D01*
X195000000Y-69035714D01*
X194952380Y-69130952D01*
X194904761Y-69178571D01*
X194809523Y-69226190D01*
X194428571Y-69226190D01*
X195904761Y-69702380D02*
X195428571Y-69702380D01*
X195428571Y-68702380D01*
X196428571Y-69226190D02*
X196428571Y-69702380D01*
X196095238Y-68702380D02*
X196428571Y-69226190D01*
X196761904Y-68702380D01*
X197047619Y-68797619D02*
X197095238Y-68750000D01*
X197190476Y-68702380D01*
X197428571Y-68702380D01*
X197523809Y-68750000D01*
X197571428Y-68797619D01*
X197619047Y-68892857D01*
X197619047Y-68988095D01*
X197571428Y-69130952D01*
X197000000Y-69702380D01*
X197619047Y-69702380D01*
X162750000Y-69702380D02*
X162416666Y-69226190D01*
X162178571Y-69702380D02*
X162178571Y-68702380D01*
X162559523Y-68702380D01*
X162654761Y-68750000D01*
X162702380Y-68797619D01*
X162750000Y-68892857D01*
X162750000Y-69035714D01*
X162702380Y-69130952D01*
X162654761Y-69178571D01*
X162559523Y-69226190D01*
X162178571Y-69226190D01*
X163654761Y-69702380D02*
X163178571Y-69702380D01*
X163178571Y-68702380D01*
X164178571Y-69226190D02*
X164178571Y-69702380D01*
X163845238Y-68702380D02*
X164178571Y-69226190D01*
X164511904Y-68702380D01*
X165369047Y-69702380D02*
X164797619Y-69702380D01*
X165083333Y-69702380D02*
X165083333Y-68702380D01*
X164988095Y-68845238D01*
X164892857Y-68940476D01*
X164797619Y-68988095D01*
X133083333Y-71452380D02*
X132750000Y-70976190D01*
X132511904Y-71452380D02*
X132511904Y-70452380D01*
X132892857Y-70452380D01*
X132988095Y-70500000D01*
X133035714Y-70547619D01*
X133083333Y-70642857D01*
X133083333Y-70785714D01*
X133035714Y-70880952D01*
X132988095Y-70928571D01*
X132892857Y-70976190D01*
X132511904Y-70976190D01*
X134035714Y-71452380D02*
X133464285Y-71452380D01*
X133750000Y-71452380D02*
X133750000Y-70452380D01*
X133654761Y-70595238D01*
X133559523Y-70690476D01*
X133464285Y-70738095D01*
X132833333Y-75452380D02*
X132500000Y-74976190D01*
X132261904Y-75452380D02*
X132261904Y-74452380D01*
X132642857Y-74452380D01*
X132738095Y-74500000D01*
X132785714Y-74547619D01*
X132833333Y-74642857D01*
X132833333Y-74785714D01*
X132785714Y-74880952D01*
X132738095Y-74928571D01*
X132642857Y-74976190D01*
X132261904Y-74976190D01*
X133690476Y-74452380D02*
X133500000Y-74452380D01*
X133404761Y-74500000D01*
X133357142Y-74547619D01*
X133261904Y-74690476D01*
X133214285Y-74880952D01*
X133214285Y-75261904D01*
X133261904Y-75357142D01*
X133309523Y-75404761D01*
X133404761Y-75452380D01*
X133595238Y-75452380D01*
X133690476Y-75404761D01*
X133738095Y-75357142D01*
X133785714Y-75261904D01*
X133785714Y-75023809D01*
X133738095Y-74928571D01*
X133690476Y-74880952D01*
X133595238Y-74833333D01*
X133404761Y-74833333D01*
X133309523Y-74880952D01*
X133261904Y-74928571D01*
X133214285Y-75023809D01*
X185822380Y-64476666D02*
X185346190Y-64810000D01*
X185822380Y-65048095D02*
X184822380Y-65048095D01*
X184822380Y-64667142D01*
X184870000Y-64571904D01*
X184917619Y-64524285D01*
X185012857Y-64476666D01*
X185155714Y-64476666D01*
X185250952Y-64524285D01*
X185298571Y-64571904D01*
X185346190Y-64667142D01*
X185346190Y-65048095D01*
X184822380Y-63571904D02*
X184822380Y-64048095D01*
X185298571Y-64095714D01*
X185250952Y-64048095D01*
X185203333Y-63952857D01*
X185203333Y-63714761D01*
X185250952Y-63619523D01*
X185298571Y-63571904D01*
X185393809Y-63524285D01*
X185631904Y-63524285D01*
X185727142Y-63571904D01*
X185774761Y-63619523D01*
X185822380Y-63714761D01*
X185822380Y-63952857D01*
X185774761Y-64048095D01*
X185727142Y-64095714D01*
X179322380Y-64476666D02*
X178846190Y-64810000D01*
X179322380Y-65048095D02*
X178322380Y-65048095D01*
X178322380Y-64667142D01*
X178370000Y-64571904D01*
X178417619Y-64524285D01*
X178512857Y-64476666D01*
X178655714Y-64476666D01*
X178750952Y-64524285D01*
X178798571Y-64571904D01*
X178846190Y-64667142D01*
X178846190Y-65048095D01*
X178322380Y-64143333D02*
X178322380Y-63524285D01*
X178703333Y-63857619D01*
X178703333Y-63714761D01*
X178750952Y-63619523D01*
X178798571Y-63571904D01*
X178893809Y-63524285D01*
X179131904Y-63524285D01*
X179227142Y-63571904D01*
X179274761Y-63619523D01*
X179322380Y-63714761D01*
X179322380Y-64000476D01*
X179274761Y-64095714D01*
X179227142Y-64143333D01*
X135833333Y-44502380D02*
X135500000Y-44026190D01*
X135261904Y-44502380D02*
X135261904Y-43502380D01*
X135642857Y-43502380D01*
X135738095Y-43550000D01*
X135785714Y-43597619D01*
X135833333Y-43692857D01*
X135833333Y-43835714D01*
X135785714Y-43930952D01*
X135738095Y-43978571D01*
X135642857Y-44026190D01*
X135261904Y-44026190D01*
X136214285Y-43597619D02*
X136261904Y-43550000D01*
X136357142Y-43502380D01*
X136595238Y-43502380D01*
X136690476Y-43550000D01*
X136738095Y-43597619D01*
X136785714Y-43692857D01*
X136785714Y-43788095D01*
X136738095Y-43930952D01*
X136166666Y-44502380D01*
X136785714Y-44502380D01*
X189114761Y-65547619D02*
X189019523Y-65500000D01*
X188924285Y-65404761D01*
X188781428Y-65261904D01*
X188686190Y-65214285D01*
X188590952Y-65214285D01*
X188638571Y-65452380D02*
X188543333Y-65404761D01*
X188448095Y-65309523D01*
X188400476Y-65119047D01*
X188400476Y-64785714D01*
X188448095Y-64595238D01*
X188543333Y-64500000D01*
X188638571Y-64452380D01*
X188829047Y-64452380D01*
X188924285Y-64500000D01*
X189019523Y-64595238D01*
X189067142Y-64785714D01*
X189067142Y-65119047D01*
X189019523Y-65309523D01*
X188924285Y-65404761D01*
X188829047Y-65452380D01*
X188638571Y-65452380D01*
X189448095Y-64547619D02*
X189495714Y-64500000D01*
X189590952Y-64452380D01*
X189829047Y-64452380D01*
X189924285Y-64500000D01*
X189971904Y-64547619D01*
X190019523Y-64642857D01*
X190019523Y-64738095D01*
X189971904Y-64880952D01*
X189400476Y-65452380D01*
X190019523Y-65452380D01*
X170904761Y-65297619D02*
X170809523Y-65250000D01*
X170714285Y-65154761D01*
X170571428Y-65011904D01*
X170476190Y-64964285D01*
X170380952Y-64964285D01*
X170428571Y-65202380D02*
X170333333Y-65154761D01*
X170238095Y-65059523D01*
X170190476Y-64869047D01*
X170190476Y-64535714D01*
X170238095Y-64345238D01*
X170333333Y-64250000D01*
X170428571Y-64202380D01*
X170619047Y-64202380D01*
X170714285Y-64250000D01*
X170809523Y-64345238D01*
X170857142Y-64535714D01*
X170857142Y-64869047D01*
X170809523Y-65059523D01*
X170714285Y-65154761D01*
X170619047Y-65202380D01*
X170428571Y-65202380D01*
X171809523Y-65202380D02*
X171238095Y-65202380D01*
X171523809Y-65202380D02*
X171523809Y-64202380D01*
X171428571Y-64345238D01*
X171333333Y-64440476D01*
X171238095Y-64488095D01*
X147916666Y-98678571D02*
X147583333Y-98678571D01*
X147583333Y-99202380D02*
X147583333Y-98202380D01*
X148059523Y-98202380D01*
X148964285Y-99202380D02*
X148392857Y-99202380D01*
X148678571Y-99202380D02*
X148678571Y-98202380D01*
X148583333Y-98345238D01*
X148488095Y-98440476D01*
X148392857Y-98488095D01*
X101416666Y-98678571D02*
X101083333Y-98678571D01*
X101083333Y-99202380D02*
X101083333Y-98202380D01*
X101559523Y-98202380D01*
X101892857Y-98297619D02*
X101940476Y-98250000D01*
X102035714Y-98202380D01*
X102273809Y-98202380D01*
X102369047Y-98250000D01*
X102416666Y-98297619D01*
X102464285Y-98392857D01*
X102464285Y-98488095D01*
X102416666Y-98630952D01*
X101845238Y-99202380D01*
X102464285Y-99202380D01*
X134801904Y-88702380D02*
X134801904Y-87702380D01*
X135040000Y-87702380D01*
X135182857Y-87750000D01*
X135278095Y-87845238D01*
X135325714Y-87940476D01*
X135373333Y-88130952D01*
X135373333Y-88273809D01*
X135325714Y-88464285D01*
X135278095Y-88559523D01*
X135182857Y-88654761D01*
X135040000Y-88702380D01*
X134801904Y-88702380D01*
X136230476Y-88035714D02*
X136230476Y-88702380D01*
X135992380Y-87654761D02*
X135754285Y-88369047D01*
X136373333Y-88369047D01*
X188681904Y-98922380D02*
X188681904Y-97922380D01*
X188920000Y-97922380D01*
X189062857Y-97970000D01*
X189158095Y-98065238D01*
X189205714Y-98160476D01*
X189253333Y-98350952D01*
X189253333Y-98493809D01*
X189205714Y-98684285D01*
X189158095Y-98779523D01*
X189062857Y-98874761D01*
X188920000Y-98922380D01*
X188681904Y-98922380D01*
X189586666Y-97922380D02*
X190205714Y-97922380D01*
X189872380Y-98303333D01*
X190015238Y-98303333D01*
X190110476Y-98350952D01*
X190158095Y-98398571D01*
X190205714Y-98493809D01*
X190205714Y-98731904D01*
X190158095Y-98827142D01*
X190110476Y-98874761D01*
X190015238Y-98922380D01*
X189729523Y-98922380D01*
X189634285Y-98874761D01*
X189586666Y-98827142D01*
X169681904Y-98922380D02*
X169681904Y-97922380D01*
X169920000Y-97922380D01*
X170062857Y-97970000D01*
X170158095Y-98065238D01*
X170205714Y-98160476D01*
X170253333Y-98350952D01*
X170253333Y-98493809D01*
X170205714Y-98684285D01*
X170158095Y-98779523D01*
X170062857Y-98874761D01*
X169920000Y-98922380D01*
X169681904Y-98922380D01*
X170634285Y-98017619D02*
X170681904Y-97970000D01*
X170777142Y-97922380D01*
X171015238Y-97922380D01*
X171110476Y-97970000D01*
X171158095Y-98017619D01*
X171205714Y-98112857D01*
X171205714Y-98208095D01*
X171158095Y-98350952D01*
X170586666Y-98922380D01*
X171205714Y-98922380D01*
X176761904Y-42952380D02*
X176761904Y-41952380D01*
X177000000Y-41952380D01*
X177142857Y-42000000D01*
X177238095Y-42095238D01*
X177285714Y-42190476D01*
X177333333Y-42380952D01*
X177333333Y-42523809D01*
X177285714Y-42714285D01*
X177238095Y-42809523D01*
X177142857Y-42904761D01*
X177000000Y-42952380D01*
X176761904Y-42952380D01*
X178285714Y-42952380D02*
X177714285Y-42952380D01*
X178000000Y-42952380D02*
X178000000Y-41952380D01*
X177904761Y-42095238D01*
X177809523Y-42190476D01*
X177714285Y-42238095D01*
X156333333Y-66857142D02*
X156285714Y-66904761D01*
X156142857Y-66952380D01*
X156047619Y-66952380D01*
X155904761Y-66904761D01*
X155809523Y-66809523D01*
X155761904Y-66714285D01*
X155714285Y-66523809D01*
X155714285Y-66380952D01*
X155761904Y-66190476D01*
X155809523Y-66095238D01*
X155904761Y-66000000D01*
X156047619Y-65952380D01*
X156142857Y-65952380D01*
X156285714Y-66000000D01*
X156333333Y-66047619D01*
X156666666Y-65952380D02*
X157285714Y-65952380D01*
X156952380Y-66333333D01*
X157095238Y-66333333D01*
X157190476Y-66380952D01*
X157238095Y-66428571D01*
X157285714Y-66523809D01*
X157285714Y-66761904D01*
X157238095Y-66857142D01*
X157190476Y-66904761D01*
X157095238Y-66952380D01*
X156809523Y-66952380D01*
X156714285Y-66904761D01*
X156666666Y-66857142D01*
X129833333Y-66857142D02*
X129785714Y-66904761D01*
X129642857Y-66952380D01*
X129547619Y-66952380D01*
X129404761Y-66904761D01*
X129309523Y-66809523D01*
X129261904Y-66714285D01*
X129214285Y-66523809D01*
X129214285Y-66380952D01*
X129261904Y-66190476D01*
X129309523Y-66095238D01*
X129404761Y-66000000D01*
X129547619Y-65952380D01*
X129642857Y-65952380D01*
X129785714Y-66000000D01*
X129833333Y-66047619D01*
X130785714Y-66952380D02*
X130214285Y-66952380D01*
X130500000Y-66952380D02*
X130500000Y-65952380D01*
X130404761Y-66095238D01*
X130309523Y-66190476D01*
X130214285Y-66238095D01*
X117333333Y-80857142D02*
X117285714Y-80904761D01*
X117142857Y-80952380D01*
X117047619Y-80952380D01*
X116904761Y-80904761D01*
X116809523Y-80809523D01*
X116761904Y-80714285D01*
X116714285Y-80523809D01*
X116714285Y-80380952D01*
X116761904Y-80190476D01*
X116809523Y-80095238D01*
X116904761Y-80000000D01*
X117047619Y-79952380D01*
X117142857Y-79952380D01*
X117285714Y-80000000D01*
X117333333Y-80047619D01*
X117714285Y-80047619D02*
X117761904Y-80000000D01*
X117857142Y-79952380D01*
X118095238Y-79952380D01*
X118190476Y-80000000D01*
X118238095Y-80047619D01*
X118285714Y-80142857D01*
X118285714Y-80238095D01*
X118238095Y-80380952D01*
X117666666Y-80952380D01*
X118285714Y-80952380D01*
M02*
