G04 #@! TF.GenerationSoftware,KiCad,Pcbnew,(5.1.7)-1*
G04 #@! TF.CreationDate,2020-10-30T11:22:59+01:00*
G04 #@! TF.ProjectId,PSU,5053552e-6b69-4636-9164-5f7063625858,rev?*
G04 #@! TF.SameCoordinates,Original*
G04 #@! TF.FileFunction,Soldermask,Top*
G04 #@! TF.FilePolarity,Negative*
%FSLAX46Y46*%
G04 Gerber Fmt 4.6, Leading zero omitted, Abs format (unit mm)*
G04 Created by KiCad (PCBNEW (5.1.7)-1) date 2020-10-30 11:22:59*
%MOMM*%
%LPD*%
G01*
G04 APERTURE LIST*
%ADD10C,2.000000*%
%ADD11R,2.000000X2.000000*%
%ADD12C,3.200000*%
%ADD13C,1.440000*%
%ADD14C,1.800000*%
%ADD15C,2.300000*%
%ADD16R,2.300000X2.300000*%
%ADD17O,1.600000X1.600000*%
%ADD18C,1.600000*%
%ADD19R,1.000000X1.500000*%
%ADD20O,1.000000X1.500000*%
%ADD21C,3.000000*%
%ADD22R,3.000000X3.000000*%
%ADD23O,1.700000X2.200000*%
%ADD24R,1.700000X2.200000*%
%ADD25R,1.800000X1.800000*%
%ADD26O,2.200000X2.200000*%
%ADD27R,2.200000X2.200000*%
%ADD28R,3.200000X3.200000*%
%ADD29C,2.400000*%
%ADD30C,4.000000*%
%ADD31R,4.000000X4.000000*%
G04 APERTURE END LIST*
D10*
X114080000Y-39500000D03*
X111540000Y-39500000D03*
D11*
X109000000Y-39500000D03*
D12*
X195500000Y-110000000D03*
X195500000Y-40500000D03*
X102500000Y-40400000D03*
X102500000Y-110000000D03*
D10*
X126580000Y-39500000D03*
X124040000Y-39500000D03*
D11*
X121500000Y-39500000D03*
D13*
X142080000Y-82000000D03*
X139540000Y-82000000D03*
X137000000Y-82000000D03*
D14*
X125500000Y-95900000D03*
X118000000Y-94100000D03*
D15*
X183000000Y-76300000D03*
X195000000Y-76300000D03*
X183000000Y-88500000D03*
X195000000Y-88500000D03*
D16*
X189000000Y-90500000D03*
D15*
X164500000Y-76300000D03*
X176500000Y-76300000D03*
X164500000Y-88500000D03*
X176500000Y-88500000D03*
D16*
X170500000Y-90500000D03*
D17*
X135380000Y-71000000D03*
D18*
X143000000Y-71000000D03*
D17*
X135380000Y-75000000D03*
D18*
X143000000Y-75000000D03*
D17*
X183000000Y-68120000D03*
D18*
X183000000Y-60500000D03*
D17*
X176500000Y-68120000D03*
D18*
X176500000Y-60500000D03*
D17*
X118620000Y-44000000D03*
D18*
X111000000Y-44000000D03*
D19*
X190500000Y-67500000D03*
D20*
X187960000Y-67500000D03*
X189230000Y-67500000D03*
D19*
X172000000Y-67500000D03*
D20*
X169460000Y-67500000D03*
X170730000Y-67500000D03*
D21*
X186580000Y-105500000D03*
D22*
X181500000Y-105500000D03*
D21*
X173507379Y-105500000D03*
D22*
X168427379Y-105500000D03*
D23*
X190310000Y-55500000D03*
X187770000Y-55500000D03*
X185230000Y-55500000D03*
D24*
X182690000Y-55500000D03*
D21*
X129902619Y-105500000D03*
D22*
X124822619Y-105500000D03*
D21*
X116830000Y-105500000D03*
D22*
X111750000Y-105500000D03*
D21*
X142975238Y-105500000D03*
D22*
X137895238Y-105500000D03*
D21*
X160434760Y-105500000D03*
D22*
X155354760Y-105500000D03*
D21*
X151000000Y-95250000D03*
X151000000Y-72750000D03*
X105000000Y-95250000D03*
X105000000Y-72750000D03*
D14*
X140540000Y-88000000D03*
D25*
X138000000Y-88000000D03*
D26*
X184340000Y-96000000D03*
D27*
X194500000Y-96000000D03*
D26*
X165340000Y-96000000D03*
D27*
X175500000Y-96000000D03*
D28*
X166600000Y-39000000D03*
D12*
X174300000Y-39000000D03*
X182000000Y-39000000D03*
X189700000Y-39000000D03*
D28*
X164060000Y-39000000D03*
D29*
X113000000Y-63000000D03*
X113000000Y-48000000D03*
X104000000Y-63000000D03*
X104000000Y-48000000D03*
X122000000Y-63000000D03*
X122000000Y-48000000D03*
D30*
X162500000Y-60500000D03*
D31*
X162500000Y-50500000D03*
D30*
X139500000Y-60500000D03*
D31*
X139500000Y-50500000D03*
D29*
X121800000Y-87700000D03*
X121800000Y-72700000D03*
M02*
