G04 #@! TF.GenerationSoftware,KiCad,Pcbnew,(5.1.7)-1*
G04 #@! TF.CreationDate,2020-10-30T11:22:59+01:00*
G04 #@! TF.ProjectId,PSU,5053552e-6b69-4636-9164-5f7063625858,rev?*
G04 #@! TF.SameCoordinates,Original*
G04 #@! TF.FileFunction,Copper,L1,Top*
G04 #@! TF.FilePolarity,Positive*
%FSLAX46Y46*%
G04 Gerber Fmt 4.6, Leading zero omitted, Abs format (unit mm)*
G04 Created by KiCad (PCBNEW (5.1.7)-1) date 2020-10-30 11:22:59*
%MOMM*%
%LPD*%
G01*
G04 APERTURE LIST*
G04 #@! TA.AperFunction,ComponentPad*
%ADD10C,2.000000*%
G04 #@! TD*
G04 #@! TA.AperFunction,ComponentPad*
%ADD11R,2.000000X2.000000*%
G04 #@! TD*
G04 #@! TA.AperFunction,ComponentPad*
%ADD12C,1.440000*%
G04 #@! TD*
G04 #@! TA.AperFunction,ComponentPad*
%ADD13C,1.800000*%
G04 #@! TD*
G04 #@! TA.AperFunction,ComponentPad*
%ADD14C,2.300000*%
G04 #@! TD*
G04 #@! TA.AperFunction,ComponentPad*
%ADD15R,2.300000X2.300000*%
G04 #@! TD*
G04 #@! TA.AperFunction,ComponentPad*
%ADD16O,1.600000X1.600000*%
G04 #@! TD*
G04 #@! TA.AperFunction,ComponentPad*
%ADD17C,1.600000*%
G04 #@! TD*
G04 #@! TA.AperFunction,ComponentPad*
%ADD18R,1.000000X1.500000*%
G04 #@! TD*
G04 #@! TA.AperFunction,ComponentPad*
%ADD19O,1.000000X1.500000*%
G04 #@! TD*
G04 #@! TA.AperFunction,ComponentPad*
%ADD20C,3.000000*%
G04 #@! TD*
G04 #@! TA.AperFunction,ComponentPad*
%ADD21R,3.000000X3.000000*%
G04 #@! TD*
G04 #@! TA.AperFunction,ComponentPad*
%ADD22O,1.700000X2.200000*%
G04 #@! TD*
G04 #@! TA.AperFunction,ComponentPad*
%ADD23R,1.700000X2.200000*%
G04 #@! TD*
G04 #@! TA.AperFunction,ComponentPad*
%ADD24R,1.800000X1.800000*%
G04 #@! TD*
G04 #@! TA.AperFunction,ComponentPad*
%ADD25O,2.200000X2.200000*%
G04 #@! TD*
G04 #@! TA.AperFunction,ComponentPad*
%ADD26R,2.200000X2.200000*%
G04 #@! TD*
G04 #@! TA.AperFunction,ComponentPad*
%ADD27R,3.200000X3.200000*%
G04 #@! TD*
G04 #@! TA.AperFunction,ComponentPad*
%ADD28C,3.200000*%
G04 #@! TD*
G04 #@! TA.AperFunction,ComponentPad*
%ADD29C,2.400000*%
G04 #@! TD*
G04 #@! TA.AperFunction,ComponentPad*
%ADD30C,4.000000*%
G04 #@! TD*
G04 #@! TA.AperFunction,ComponentPad*
%ADD31R,4.000000X4.000000*%
G04 #@! TD*
G04 #@! TA.AperFunction,Conductor*
%ADD32C,2.000000*%
G04 #@! TD*
G04 #@! TA.AperFunction,Conductor*
%ADD33C,3.000000*%
G04 #@! TD*
G04 #@! TA.AperFunction,Conductor*
%ADD34C,1.000000*%
G04 #@! TD*
G04 APERTURE END LIST*
D10*
X114080000Y-39500000D03*
X111540000Y-39500000D03*
D11*
X109000000Y-39500000D03*
D10*
X126580000Y-39500000D03*
X124040000Y-39500000D03*
D11*
X121500000Y-39500000D03*
D12*
X142080000Y-82000000D03*
X139540000Y-82000000D03*
X137000000Y-82000000D03*
D13*
X125500000Y-95900000D03*
X118000000Y-94100000D03*
D14*
X183000000Y-76300000D03*
X195000000Y-76300000D03*
X183000000Y-88500000D03*
X195000000Y-88500000D03*
D15*
X189000000Y-90500000D03*
D14*
X164500000Y-76300000D03*
X176500000Y-76300000D03*
X164500000Y-88500000D03*
X176500000Y-88500000D03*
D15*
X170500000Y-90500000D03*
D16*
X135380000Y-71000000D03*
D17*
X143000000Y-71000000D03*
D16*
X135380000Y-75000000D03*
D17*
X143000000Y-75000000D03*
D16*
X183000000Y-68120000D03*
D17*
X183000000Y-60500000D03*
D16*
X176500000Y-68120000D03*
D17*
X176500000Y-60500000D03*
D16*
X118620000Y-44000000D03*
D17*
X111000000Y-44000000D03*
D18*
X190500000Y-67500000D03*
D19*
X187960000Y-67500000D03*
X189230000Y-67500000D03*
D18*
X172000000Y-67500000D03*
D19*
X169460000Y-67500000D03*
X170730000Y-67500000D03*
D20*
X186580000Y-105500000D03*
D21*
X181500000Y-105500000D03*
D20*
X173507379Y-105500000D03*
D21*
X168427379Y-105500000D03*
D22*
X190310000Y-55500000D03*
X187770000Y-55500000D03*
X185230000Y-55500000D03*
D23*
X182690000Y-55500000D03*
D20*
X129902619Y-105500000D03*
D21*
X124822619Y-105500000D03*
D20*
X116830000Y-105500000D03*
D21*
X111750000Y-105500000D03*
D20*
X142975238Y-105500000D03*
D21*
X137895238Y-105500000D03*
D20*
X160434760Y-105500000D03*
D21*
X155354760Y-105500000D03*
D20*
X151000000Y-95250000D03*
X151000000Y-72750000D03*
X105000000Y-95250000D03*
X105000000Y-72750000D03*
D13*
X140540000Y-88000000D03*
D24*
X138000000Y-88000000D03*
D25*
X184340000Y-96000000D03*
D26*
X194500000Y-96000000D03*
D25*
X165340000Y-96000000D03*
D26*
X175500000Y-96000000D03*
D27*
X166600000Y-39000000D03*
D28*
X174300000Y-39000000D03*
X182000000Y-39000000D03*
X189700000Y-39000000D03*
D27*
X164060000Y-39000000D03*
D29*
X113000000Y-63000000D03*
X113000000Y-48000000D03*
X104000000Y-63000000D03*
X104000000Y-48000000D03*
X122000000Y-63000000D03*
X122000000Y-48000000D03*
D30*
X162500000Y-60500000D03*
D31*
X162500000Y-50500000D03*
D30*
X139500000Y-60500000D03*
D31*
X139500000Y-50500000D03*
D29*
X121800000Y-87700000D03*
X121800000Y-72700000D03*
D32*
X125500000Y-91400000D02*
X121800000Y-87700000D01*
X125500000Y-95900000D02*
X125500000Y-91400000D01*
X129902619Y-100302619D02*
X125500000Y-95900000D01*
X129902619Y-105500000D02*
X129902619Y-100302619D01*
X137895238Y-105500000D02*
X129902619Y-105500000D01*
X105050000Y-72700000D02*
X105000000Y-72750000D01*
X114050000Y-90150000D02*
X114050000Y-72700000D01*
X118000000Y-94100000D02*
X114050000Y-90150000D01*
X114050000Y-72700000D02*
X105050000Y-72700000D01*
X121800000Y-72700000D02*
X114050000Y-72700000D01*
X129500009Y-88704769D02*
X142975238Y-102179998D01*
X142975238Y-102179998D02*
X142975238Y-105500000D01*
X121800000Y-72700000D02*
X129500009Y-80400009D01*
X129500009Y-80400009D02*
X129500009Y-88704769D01*
D33*
X127040001Y-42959999D02*
X127040001Y-39500000D01*
X134580002Y-50500000D02*
X127040001Y-42959999D01*
X139500000Y-50500000D02*
X134580002Y-50500000D01*
X162500000Y-50500000D02*
X139500000Y-50500000D01*
X166600000Y-39000000D02*
X164060000Y-39000000D01*
X164060000Y-48940000D02*
X162500000Y-50500000D01*
X164060000Y-39000000D02*
X164060000Y-48940000D01*
X175500000Y-89500000D02*
X176500000Y-88500000D01*
X175500000Y-96000000D02*
X175500000Y-89500000D01*
X194500000Y-89000000D02*
X195000000Y-88500000D01*
X194500000Y-96000000D02*
X194500000Y-89000000D01*
X122000000Y-48000000D02*
X127040001Y-42959999D01*
D32*
X191999992Y-85499992D02*
X179500008Y-85499992D01*
X179500008Y-85499992D02*
X176500000Y-88500000D01*
X195000000Y-88500000D02*
X191999992Y-85499992D01*
D33*
X191849999Y-79450001D02*
X195000000Y-76300000D01*
X179650001Y-79450001D02*
X191849999Y-79450001D01*
X176500000Y-76300000D02*
X179650001Y-79450001D01*
D34*
X110000000Y-43000000D02*
X109000000Y-43000000D01*
X111000000Y-44000000D02*
X110000000Y-43000000D01*
X109000000Y-43000000D02*
X104000000Y-48000000D01*
X109000000Y-40500000D02*
X109000000Y-43000000D01*
X114080000Y-46920000D02*
X114080000Y-40500000D01*
X113000000Y-48000000D02*
X114080000Y-46920000D01*
X135380000Y-75000000D02*
X133579999Y-73199999D01*
X133579999Y-73199999D02*
X133579999Y-68579999D01*
X133579999Y-68579999D02*
X113000000Y-48000000D01*
D33*
X151000000Y-63500000D02*
X159000000Y-55500000D01*
X159000000Y-55500000D02*
X164650002Y-55500000D01*
X174300000Y-45850002D02*
X164650002Y-55500000D01*
X174300000Y-39000000D02*
X174300000Y-45850002D01*
X151000000Y-72750000D02*
X151000000Y-63500000D01*
X182000000Y-46920002D02*
X182000000Y-39025010D01*
X160434760Y-68485242D02*
X182000000Y-46920002D01*
X160434760Y-105500000D02*
X160434760Y-68485242D01*
X165340000Y-89340000D02*
X164500000Y-88500000D01*
X165340000Y-96000000D02*
X165340000Y-89340000D01*
D34*
X169229990Y-83770010D02*
X169229990Y-67500000D01*
X164500000Y-88500000D02*
X169229990Y-83770010D01*
D33*
X184340000Y-89840000D02*
X183000000Y-88500000D01*
X184340000Y-96000000D02*
X184340000Y-89840000D01*
D34*
X143799999Y-84740001D02*
X140540000Y-88000000D01*
X143799999Y-75799999D02*
X143799999Y-84740001D01*
X143000000Y-75000000D02*
X143799999Y-75799999D01*
D32*
X105000000Y-98750000D02*
X111750000Y-105500000D01*
X105000000Y-95250000D02*
X105000000Y-98750000D01*
D33*
X151000000Y-101145240D02*
X155354760Y-105500000D01*
X151000000Y-95250000D02*
X151000000Y-101145240D01*
D32*
X124822619Y-105500000D02*
X116830000Y-105500000D01*
D34*
X176500000Y-58479998D02*
X176500000Y-60500000D01*
X181279999Y-53699999D02*
X176500000Y-58479998D01*
X185969999Y-53699999D02*
X181279999Y-53699999D01*
X187770000Y-55500000D02*
X185969999Y-53699999D01*
X170730000Y-66270000D02*
X170730000Y-67500000D01*
X176500000Y-60500000D02*
X170730000Y-66270000D01*
X185230000Y-58270000D02*
X183000000Y-60500000D01*
X185230000Y-55500000D02*
X185230000Y-58270000D01*
X189230000Y-66730000D02*
X189230000Y-67500000D01*
X183000000Y-60500000D02*
X189230000Y-66730000D01*
D33*
X170500000Y-103427379D02*
X170500000Y-90500000D01*
X168427379Y-105500000D02*
X170500000Y-103427379D01*
X189000000Y-98000000D02*
X189000000Y-90500000D01*
X181500000Y-105500000D02*
X189000000Y-98000000D01*
D34*
X118620000Y-42380000D02*
X121500000Y-39500000D01*
X118620000Y-44000000D02*
X118620000Y-42380000D01*
X118620000Y-48155548D02*
X118620000Y-44000000D01*
X137719999Y-67255547D02*
X118620000Y-48155548D01*
X137719999Y-81280001D02*
X137719999Y-67255547D01*
X137000000Y-82000000D02*
X137719999Y-81280001D01*
X139540000Y-82000000D02*
X142080000Y-82000000D01*
X139540000Y-74460000D02*
X139540000Y-82000000D01*
X143000000Y-71000000D02*
X139540000Y-74460000D01*
M02*
