G04 #@! TF.GenerationSoftware,KiCad,Pcbnew,(5.1.7)-1*
G04 #@! TF.CreationDate,2020-10-30T11:22:59+01:00*
G04 #@! TF.ProjectId,PSU,5053552e-6b69-4636-9164-5f7063625858,rev?*
G04 #@! TF.SameCoordinates,Original*
G04 #@! TF.FileFunction,Legend,Top*
G04 #@! TF.FilePolarity,Positive*
%FSLAX46Y46*%
G04 Gerber Fmt 4.6, Leading zero omitted, Abs format (unit mm)*
G04 Created by KiCad (PCBNEW (5.1.7)-1) date 2020-10-30 11:22:59*
%MOMM*%
%LPD*%
G01*
G04 APERTURE LIST*
%ADD10C,0.150000*%
%ADD11C,0.100000*%
%ADD12C,0.120000*%
G04 APERTURE END LIST*
D10*
X152059523Y-98202380D02*
X152630952Y-98202380D01*
X152345238Y-99202380D02*
X152345238Y-98202380D01*
X153392857Y-98535714D02*
X153392857Y-99202380D01*
X153154761Y-98154761D02*
X152916666Y-98869047D01*
X153535714Y-98869047D01*
X153869047Y-98916666D02*
X154345238Y-98916666D01*
X153773809Y-99202380D02*
X154107142Y-98202380D01*
X154440476Y-99202380D01*
X103440476Y-98202380D02*
X104011904Y-98202380D01*
X103726190Y-99202380D02*
X103726190Y-98202380D01*
X104821428Y-98202380D02*
X104345238Y-98202380D01*
X104297619Y-98678571D01*
X104345238Y-98630952D01*
X104440476Y-98583333D01*
X104678571Y-98583333D01*
X104773809Y-98630952D01*
X104821428Y-98678571D01*
X104869047Y-98773809D01*
X104869047Y-99011904D01*
X104821428Y-99107142D01*
X104773809Y-99154761D01*
X104678571Y-99202380D01*
X104440476Y-99202380D01*
X104345238Y-99154761D01*
X104297619Y-99107142D01*
X105488095Y-98202380D02*
X105583333Y-98202380D01*
X105678571Y-98250000D01*
X105726190Y-98297619D01*
X105773809Y-98392857D01*
X105821428Y-98583333D01*
X105821428Y-98821428D01*
X105773809Y-99011904D01*
X105726190Y-99107142D01*
X105678571Y-99154761D01*
X105583333Y-99202380D01*
X105488095Y-99202380D01*
X105392857Y-99154761D01*
X105345238Y-99107142D01*
X105297619Y-99011904D01*
X105250000Y-98821428D01*
X105250000Y-98583333D01*
X105297619Y-98392857D01*
X105345238Y-98297619D01*
X105392857Y-98250000D01*
X105488095Y-98202380D01*
X106440476Y-98202380D02*
X106535714Y-98202380D01*
X106630952Y-98250000D01*
X106678571Y-98297619D01*
X106726190Y-98392857D01*
X106773809Y-98583333D01*
X106773809Y-98821428D01*
X106726190Y-99011904D01*
X106678571Y-99107142D01*
X106630952Y-99154761D01*
X106535714Y-99202380D01*
X106440476Y-99202380D01*
X106345238Y-99154761D01*
X106297619Y-99107142D01*
X106250000Y-99011904D01*
X106202380Y-98821428D01*
X106202380Y-98583333D01*
X106250000Y-98392857D01*
X106297619Y-98297619D01*
X106345238Y-98250000D01*
X106440476Y-98202380D01*
X107202380Y-99202380D02*
X107202380Y-98535714D01*
X107202380Y-98630952D02*
X107250000Y-98583333D01*
X107345238Y-98535714D01*
X107488095Y-98535714D01*
X107583333Y-98583333D01*
X107630952Y-98678571D01*
X107630952Y-99202380D01*
X107630952Y-98678571D02*
X107678571Y-98583333D01*
X107773809Y-98535714D01*
X107916666Y-98535714D01*
X108011904Y-98583333D01*
X108059523Y-98678571D01*
X108059523Y-99202380D01*
X108488095Y-98916666D02*
X108964285Y-98916666D01*
X108392857Y-99202380D02*
X108726190Y-98202380D01*
X109059523Y-99202380D01*
X189750000Y-51511904D02*
X189702380Y-51607142D01*
X189702380Y-51750000D01*
X189750000Y-51892857D01*
X189845238Y-51988095D01*
X189940476Y-52035714D01*
X190130952Y-52083333D01*
X190273809Y-52083333D01*
X190464285Y-52035714D01*
X190559523Y-51988095D01*
X190654761Y-51892857D01*
X190702380Y-51750000D01*
X190702380Y-51654761D01*
X190654761Y-51511904D01*
X190607142Y-51464285D01*
X190273809Y-51464285D01*
X190273809Y-51654761D01*
X190702380Y-51035714D02*
X189702380Y-51035714D01*
X190702380Y-50464285D01*
X189702380Y-50464285D01*
X190702380Y-49988095D02*
X189702380Y-49988095D01*
X189702380Y-49750000D01*
X189750000Y-49607142D01*
X189845238Y-49511904D01*
X189940476Y-49464285D01*
X190130952Y-49416666D01*
X190273809Y-49416666D01*
X190464285Y-49464285D01*
X190559523Y-49511904D01*
X190654761Y-49607142D01*
X190702380Y-49750000D01*
X190702380Y-49988095D01*
X188107142Y-51523809D02*
X188154761Y-51571428D01*
X188202380Y-51714285D01*
X188202380Y-51809523D01*
X188154761Y-51952380D01*
X188059523Y-52047619D01*
X187964285Y-52095238D01*
X187773809Y-52142857D01*
X187630952Y-52142857D01*
X187440476Y-52095238D01*
X187345238Y-52047619D01*
X187250000Y-51952380D01*
X187202380Y-51809523D01*
X187202380Y-51714285D01*
X187250000Y-51571428D01*
X187297619Y-51523809D01*
X187535714Y-51238095D02*
X187535714Y-50857142D01*
X187202380Y-51095238D02*
X188059523Y-51095238D01*
X188154761Y-51047619D01*
X188202380Y-50952380D01*
X188202380Y-50857142D01*
X188202380Y-50523809D02*
X187535714Y-50523809D01*
X187726190Y-50523809D02*
X187630952Y-50476190D01*
X187583333Y-50428571D01*
X187535714Y-50333333D01*
X187535714Y-50238095D01*
X188202380Y-49761904D02*
X188154761Y-49857142D01*
X188059523Y-49904761D01*
X187202380Y-49904761D01*
X188202380Y-48857142D02*
X188202380Y-49428571D01*
X188202380Y-49142857D02*
X187202380Y-49142857D01*
X187345238Y-49238095D01*
X187440476Y-49333333D01*
X187488095Y-49428571D01*
X185357142Y-51523809D02*
X185404761Y-51571428D01*
X185452380Y-51714285D01*
X185452380Y-51809523D01*
X185404761Y-51952380D01*
X185309523Y-52047619D01*
X185214285Y-52095238D01*
X185023809Y-52142857D01*
X184880952Y-52142857D01*
X184690476Y-52095238D01*
X184595238Y-52047619D01*
X184500000Y-51952380D01*
X184452380Y-51809523D01*
X184452380Y-51714285D01*
X184500000Y-51571428D01*
X184547619Y-51523809D01*
X184785714Y-51238095D02*
X184785714Y-50857142D01*
X184452380Y-51095238D02*
X185309523Y-51095238D01*
X185404761Y-51047619D01*
X185452380Y-50952380D01*
X185452380Y-50857142D01*
X185452380Y-50523809D02*
X184785714Y-50523809D01*
X184976190Y-50523809D02*
X184880952Y-50476190D01*
X184833333Y-50428571D01*
X184785714Y-50333333D01*
X184785714Y-50238095D01*
X185452380Y-49761904D02*
X185404761Y-49857142D01*
X185309523Y-49904761D01*
X184452380Y-49904761D01*
X184547619Y-49428571D02*
X184500000Y-49380952D01*
X184452380Y-49285714D01*
X184452380Y-49047619D01*
X184500000Y-48952380D01*
X184547619Y-48904761D01*
X184642857Y-48857142D01*
X184738095Y-48857142D01*
X184880952Y-48904761D01*
X185452380Y-49476190D01*
X185452380Y-48857142D01*
X182571428Y-52285714D02*
X182571428Y-51523809D01*
X182952380Y-51904761D02*
X182190476Y-51904761D01*
X181952380Y-50571428D02*
X181952380Y-51047619D01*
X182428571Y-51095238D01*
X182380952Y-51047619D01*
X182333333Y-50952380D01*
X182333333Y-50714285D01*
X182380952Y-50619047D01*
X182428571Y-50571428D01*
X182523809Y-50523809D01*
X182761904Y-50523809D01*
X182857142Y-50571428D01*
X182904761Y-50619047D01*
X182952380Y-50714285D01*
X182952380Y-50952380D01*
X182904761Y-51047619D01*
X182857142Y-51095238D01*
X181952380Y-50238095D02*
X182952380Y-49904761D01*
X181952380Y-49571428D01*
X180452380Y-111452380D02*
X180452380Y-112261904D01*
X180500000Y-112357142D01*
X180547619Y-112404761D01*
X180642857Y-112452380D01*
X180833333Y-112452380D01*
X180928571Y-112404761D01*
X180976190Y-112357142D01*
X181023809Y-112261904D01*
X181023809Y-111452380D01*
X181357142Y-111452380D02*
X181690476Y-112452380D01*
X182023809Y-111452380D01*
X183119047Y-112452380D02*
X183119047Y-111452380D01*
X183500000Y-111452380D01*
X183595238Y-111500000D01*
X183642857Y-111547619D01*
X183690476Y-111642857D01*
X183690476Y-111785714D01*
X183642857Y-111880952D01*
X183595238Y-111928571D01*
X183500000Y-111976190D01*
X183119047Y-111976190D01*
X184547619Y-112452380D02*
X184547619Y-111928571D01*
X184500000Y-111833333D01*
X184404761Y-111785714D01*
X184214285Y-111785714D01*
X184119047Y-111833333D01*
X184547619Y-112404761D02*
X184452380Y-112452380D01*
X184214285Y-112452380D01*
X184119047Y-112404761D01*
X184071428Y-112309523D01*
X184071428Y-112214285D01*
X184119047Y-112119047D01*
X184214285Y-112071428D01*
X184452380Y-112071428D01*
X184547619Y-112023809D01*
X185023809Y-111785714D02*
X185023809Y-112452380D01*
X185023809Y-111880952D02*
X185071428Y-111833333D01*
X185166666Y-111785714D01*
X185309523Y-111785714D01*
X185404761Y-111833333D01*
X185452380Y-111928571D01*
X185452380Y-112452380D01*
X186309523Y-112404761D02*
X186214285Y-112452380D01*
X186023809Y-112452380D01*
X185928571Y-112404761D01*
X185880952Y-112309523D01*
X185880952Y-111928571D01*
X185928571Y-111833333D01*
X186023809Y-111785714D01*
X186214285Y-111785714D01*
X186309523Y-111833333D01*
X186357142Y-111928571D01*
X186357142Y-112023809D01*
X185880952Y-112119047D01*
X186928571Y-112452380D02*
X186833333Y-112404761D01*
X186785714Y-112309523D01*
X186785714Y-111452380D01*
X188023809Y-111547619D02*
X188071428Y-111500000D01*
X188166666Y-111452380D01*
X188404761Y-111452380D01*
X188500000Y-111500000D01*
X188547619Y-111547619D01*
X188595238Y-111642857D01*
X188595238Y-111738095D01*
X188547619Y-111880952D01*
X187976190Y-112452380D01*
X188595238Y-112452380D01*
X166952380Y-111452380D02*
X166952380Y-112261904D01*
X167000000Y-112357142D01*
X167047619Y-112404761D01*
X167142857Y-112452380D01*
X167333333Y-112452380D01*
X167428571Y-112404761D01*
X167476190Y-112357142D01*
X167523809Y-112261904D01*
X167523809Y-111452380D01*
X167857142Y-111452380D02*
X168190476Y-112452380D01*
X168523809Y-111452380D01*
X169619047Y-112452380D02*
X169619047Y-111452380D01*
X170000000Y-111452380D01*
X170095238Y-111500000D01*
X170142857Y-111547619D01*
X170190476Y-111642857D01*
X170190476Y-111785714D01*
X170142857Y-111880952D01*
X170095238Y-111928571D01*
X170000000Y-111976190D01*
X169619047Y-111976190D01*
X171047619Y-112452380D02*
X171047619Y-111928571D01*
X171000000Y-111833333D01*
X170904761Y-111785714D01*
X170714285Y-111785714D01*
X170619047Y-111833333D01*
X171047619Y-112404761D02*
X170952380Y-112452380D01*
X170714285Y-112452380D01*
X170619047Y-112404761D01*
X170571428Y-112309523D01*
X170571428Y-112214285D01*
X170619047Y-112119047D01*
X170714285Y-112071428D01*
X170952380Y-112071428D01*
X171047619Y-112023809D01*
X171523809Y-111785714D02*
X171523809Y-112452380D01*
X171523809Y-111880952D02*
X171571428Y-111833333D01*
X171666666Y-111785714D01*
X171809523Y-111785714D01*
X171904761Y-111833333D01*
X171952380Y-111928571D01*
X171952380Y-112452380D01*
X172809523Y-112404761D02*
X172714285Y-112452380D01*
X172523809Y-112452380D01*
X172428571Y-112404761D01*
X172380952Y-112309523D01*
X172380952Y-111928571D01*
X172428571Y-111833333D01*
X172523809Y-111785714D01*
X172714285Y-111785714D01*
X172809523Y-111833333D01*
X172857142Y-111928571D01*
X172857142Y-112023809D01*
X172380952Y-112119047D01*
X173428571Y-112452380D02*
X173333333Y-112404761D01*
X173285714Y-112309523D01*
X173285714Y-111452380D01*
X175095238Y-112452380D02*
X174523809Y-112452380D01*
X174809523Y-112452380D02*
X174809523Y-111452380D01*
X174714285Y-111595238D01*
X174619047Y-111690476D01*
X174523809Y-111738095D01*
X152809523Y-111452380D02*
X153380952Y-111452380D01*
X153095238Y-112452380D02*
X153095238Y-111452380D01*
X153714285Y-112452380D02*
X153714285Y-111785714D01*
X153714285Y-111976190D02*
X153761904Y-111880952D01*
X153809523Y-111833333D01*
X153904761Y-111785714D01*
X154000000Y-111785714D01*
X154761904Y-112452380D02*
X154761904Y-111928571D01*
X154714285Y-111833333D01*
X154619047Y-111785714D01*
X154428571Y-111785714D01*
X154333333Y-111833333D01*
X154761904Y-112404761D02*
X154666666Y-112452380D01*
X154428571Y-112452380D01*
X154333333Y-112404761D01*
X154285714Y-112309523D01*
X154285714Y-112214285D01*
X154333333Y-112119047D01*
X154428571Y-112071428D01*
X154666666Y-112071428D01*
X154761904Y-112023809D01*
X155095238Y-111785714D02*
X155476190Y-111785714D01*
X155238095Y-112452380D02*
X155238095Y-111595238D01*
X155285714Y-111500000D01*
X155380952Y-111452380D01*
X155476190Y-111452380D01*
X155952380Y-112452380D02*
X155857142Y-112404761D01*
X155809523Y-112357142D01*
X155761904Y-112261904D01*
X155761904Y-111976190D01*
X155809523Y-111880952D01*
X155857142Y-111833333D01*
X155952380Y-111785714D01*
X156095238Y-111785714D01*
X156190476Y-111833333D01*
X156238095Y-111880952D01*
X156285714Y-111976190D01*
X156285714Y-112261904D01*
X156238095Y-112357142D01*
X156190476Y-112404761D01*
X156095238Y-112452380D01*
X155952380Y-112452380D01*
X157428571Y-112404761D02*
X157523809Y-112452380D01*
X157714285Y-112452380D01*
X157809523Y-112404761D01*
X157857142Y-112309523D01*
X157857142Y-112261904D01*
X157809523Y-112166666D01*
X157714285Y-112119047D01*
X157571428Y-112119047D01*
X157476190Y-112071428D01*
X157428571Y-111976190D01*
X157428571Y-111928571D01*
X157476190Y-111833333D01*
X157571428Y-111785714D01*
X157714285Y-111785714D01*
X157809523Y-111833333D01*
X158666666Y-112404761D02*
X158571428Y-112452380D01*
X158380952Y-112452380D01*
X158285714Y-112404761D01*
X158238095Y-112309523D01*
X158238095Y-111928571D01*
X158285714Y-111833333D01*
X158380952Y-111785714D01*
X158571428Y-111785714D01*
X158666666Y-111833333D01*
X158714285Y-111928571D01*
X158714285Y-112023809D01*
X158238095Y-112119047D01*
X159571428Y-112404761D02*
X159476190Y-112452380D01*
X159285714Y-112452380D01*
X159190476Y-112404761D01*
X159142857Y-112357142D01*
X159095238Y-112261904D01*
X159095238Y-111976190D01*
X159142857Y-111880952D01*
X159190476Y-111833333D01*
X159285714Y-111785714D01*
X159476190Y-111785714D01*
X159571428Y-111833333D01*
X160714285Y-111547619D02*
X160761904Y-111500000D01*
X160857142Y-111452380D01*
X161095238Y-111452380D01*
X161190476Y-111500000D01*
X161238095Y-111547619D01*
X161285714Y-111642857D01*
X161285714Y-111738095D01*
X161238095Y-111880952D01*
X160666666Y-112452380D01*
X161285714Y-112452380D01*
X162190476Y-111452380D02*
X161714285Y-111452380D01*
X161666666Y-111928571D01*
X161714285Y-111880952D01*
X161809523Y-111833333D01*
X162047619Y-111833333D01*
X162142857Y-111880952D01*
X162190476Y-111928571D01*
X162238095Y-112023809D01*
X162238095Y-112261904D01*
X162190476Y-112357142D01*
X162142857Y-112404761D01*
X162047619Y-112452380D01*
X161809523Y-112452380D01*
X161714285Y-112404761D01*
X161666666Y-112357142D01*
X162523809Y-111452380D02*
X162857142Y-112452380D01*
X163190476Y-111452380D01*
X135095238Y-111452380D02*
X135666666Y-111452380D01*
X135380952Y-112452380D02*
X135380952Y-111452380D01*
X136000000Y-112452380D02*
X136000000Y-111785714D01*
X136000000Y-111976190D02*
X136047619Y-111880952D01*
X136095238Y-111833333D01*
X136190476Y-111785714D01*
X136285714Y-111785714D01*
X137047619Y-112452380D02*
X137047619Y-111928571D01*
X137000000Y-111833333D01*
X136904761Y-111785714D01*
X136714285Y-111785714D01*
X136619047Y-111833333D01*
X137047619Y-112404761D02*
X136952380Y-112452380D01*
X136714285Y-112452380D01*
X136619047Y-112404761D01*
X136571428Y-112309523D01*
X136571428Y-112214285D01*
X136619047Y-112119047D01*
X136714285Y-112071428D01*
X136952380Y-112071428D01*
X137047619Y-112023809D01*
X137380952Y-111785714D02*
X137761904Y-111785714D01*
X137523809Y-112452380D02*
X137523809Y-111595238D01*
X137571428Y-111500000D01*
X137666666Y-111452380D01*
X137761904Y-111452380D01*
X138238095Y-112452380D02*
X138142857Y-112404761D01*
X138095238Y-112357142D01*
X138047619Y-112261904D01*
X138047619Y-111976190D01*
X138095238Y-111880952D01*
X138142857Y-111833333D01*
X138238095Y-111785714D01*
X138380952Y-111785714D01*
X138476190Y-111833333D01*
X138523809Y-111880952D01*
X138571428Y-111976190D01*
X138571428Y-112261904D01*
X138523809Y-112357142D01*
X138476190Y-112404761D01*
X138380952Y-112452380D01*
X138238095Y-112452380D01*
X139761904Y-111785714D02*
X139761904Y-112785714D01*
X139761904Y-111833333D02*
X139857142Y-111785714D01*
X140047619Y-111785714D01*
X140142857Y-111833333D01*
X140190476Y-111880952D01*
X140238095Y-111976190D01*
X140238095Y-112261904D01*
X140190476Y-112357142D01*
X140142857Y-112404761D01*
X140047619Y-112452380D01*
X139857142Y-112452380D01*
X139761904Y-112404761D01*
X140666666Y-112452380D02*
X140666666Y-111785714D01*
X140666666Y-111976190D02*
X140714285Y-111880952D01*
X140761904Y-111833333D01*
X140857142Y-111785714D01*
X140952380Y-111785714D01*
X141285714Y-112452380D02*
X141285714Y-111785714D01*
X141285714Y-111452380D02*
X141238095Y-111500000D01*
X141285714Y-111547619D01*
X141333333Y-111500000D01*
X141285714Y-111452380D01*
X141285714Y-111547619D01*
X142476190Y-111547619D02*
X142523809Y-111500000D01*
X142619047Y-111452380D01*
X142857142Y-111452380D01*
X142952380Y-111500000D01*
X143000000Y-111547619D01*
X143047619Y-111642857D01*
X143047619Y-111738095D01*
X143000000Y-111880952D01*
X142428571Y-112452380D01*
X143047619Y-112452380D01*
X143380952Y-111452380D02*
X144000000Y-111452380D01*
X143666666Y-111833333D01*
X143809523Y-111833333D01*
X143904761Y-111880952D01*
X143952380Y-111928571D01*
X144000000Y-112023809D01*
X144000000Y-112261904D01*
X143952380Y-112357142D01*
X143904761Y-112404761D01*
X143809523Y-112452380D01*
X143523809Y-112452380D01*
X143428571Y-112404761D01*
X143380952Y-112357142D01*
X144619047Y-111452380D02*
X144714285Y-111452380D01*
X144809523Y-111500000D01*
X144857142Y-111547619D01*
X144904761Y-111642857D01*
X144952380Y-111833333D01*
X144952380Y-112071428D01*
X144904761Y-112261904D01*
X144857142Y-112357142D01*
X144809523Y-112404761D01*
X144714285Y-112452380D01*
X144619047Y-112452380D01*
X144523809Y-112404761D01*
X144476190Y-112357142D01*
X144428571Y-112261904D01*
X144380952Y-112071428D01*
X144380952Y-111833333D01*
X144428571Y-111642857D01*
X144476190Y-111547619D01*
X144523809Y-111500000D01*
X144619047Y-111452380D01*
X145238095Y-111452380D02*
X145571428Y-112452380D01*
X145904761Y-111452380D01*
X122809523Y-112452380D02*
X122809523Y-111452380D01*
X123190476Y-111452380D01*
X123285714Y-111500000D01*
X123333333Y-111547619D01*
X123380952Y-111642857D01*
X123380952Y-111785714D01*
X123333333Y-111880952D01*
X123285714Y-111928571D01*
X123190476Y-111976190D01*
X122809523Y-111976190D01*
X123952380Y-112452380D02*
X123857142Y-112404761D01*
X123809523Y-112357142D01*
X123761904Y-112261904D01*
X123761904Y-111976190D01*
X123809523Y-111880952D01*
X123857142Y-111833333D01*
X123952380Y-111785714D01*
X124095238Y-111785714D01*
X124190476Y-111833333D01*
X124238095Y-111880952D01*
X124285714Y-111976190D01*
X124285714Y-112261904D01*
X124238095Y-112357142D01*
X124190476Y-112404761D01*
X124095238Y-112452380D01*
X123952380Y-112452380D01*
X124619047Y-111785714D02*
X124809523Y-112452380D01*
X125000000Y-111976190D01*
X125190476Y-112452380D01*
X125380952Y-111785714D01*
X126142857Y-112404761D02*
X126047619Y-112452380D01*
X125857142Y-112452380D01*
X125761904Y-112404761D01*
X125714285Y-112309523D01*
X125714285Y-111928571D01*
X125761904Y-111833333D01*
X125857142Y-111785714D01*
X126047619Y-111785714D01*
X126142857Y-111833333D01*
X126190476Y-111928571D01*
X126190476Y-112023809D01*
X125714285Y-112119047D01*
X126619047Y-112452380D02*
X126619047Y-111785714D01*
X126619047Y-111976190D02*
X126666666Y-111880952D01*
X126714285Y-111833333D01*
X126809523Y-111785714D01*
X126904761Y-111785714D01*
X127952380Y-112404761D02*
X128047619Y-112452380D01*
X128238095Y-112452380D01*
X128333333Y-112404761D01*
X128380952Y-112309523D01*
X128380952Y-112261904D01*
X128333333Y-112166666D01*
X128238095Y-112119047D01*
X128095238Y-112119047D01*
X128000000Y-112071428D01*
X127952380Y-111976190D01*
X127952380Y-111928571D01*
X128000000Y-111833333D01*
X128095238Y-111785714D01*
X128238095Y-111785714D01*
X128333333Y-111833333D01*
X128714285Y-111785714D02*
X128904761Y-112452380D01*
X129095238Y-111976190D01*
X129285714Y-112452380D01*
X129476190Y-111785714D01*
X129857142Y-112452380D02*
X129857142Y-111785714D01*
X129857142Y-111452380D02*
X129809523Y-111500000D01*
X129857142Y-111547619D01*
X129904761Y-111500000D01*
X129857142Y-111452380D01*
X129857142Y-111547619D01*
X130190476Y-111785714D02*
X130571428Y-111785714D01*
X130333333Y-111452380D02*
X130333333Y-112309523D01*
X130380952Y-112404761D01*
X130476190Y-112452380D01*
X130571428Y-112452380D01*
X131333333Y-112404761D02*
X131238095Y-112452380D01*
X131047619Y-112452380D01*
X130952380Y-112404761D01*
X130904761Y-112357142D01*
X130857142Y-112261904D01*
X130857142Y-111976190D01*
X130904761Y-111880952D01*
X130952380Y-111833333D01*
X131047619Y-111785714D01*
X131238095Y-111785714D01*
X131333333Y-111833333D01*
X131761904Y-112452380D02*
X131761904Y-111452380D01*
X132190476Y-112452380D02*
X132190476Y-111928571D01*
X132142857Y-111833333D01*
X132047619Y-111785714D01*
X131904761Y-111785714D01*
X131809523Y-111833333D01*
X131761904Y-111880952D01*
X110261904Y-111547619D02*
X110309523Y-111500000D01*
X110404761Y-111452380D01*
X110642857Y-111452380D01*
X110738095Y-111500000D01*
X110785714Y-111547619D01*
X110833333Y-111642857D01*
X110833333Y-111738095D01*
X110785714Y-111880952D01*
X110214285Y-112452380D01*
X110833333Y-112452380D01*
X111166666Y-111452380D02*
X111785714Y-111452380D01*
X111452380Y-111833333D01*
X111595238Y-111833333D01*
X111690476Y-111880952D01*
X111738095Y-111928571D01*
X111785714Y-112023809D01*
X111785714Y-112261904D01*
X111738095Y-112357142D01*
X111690476Y-112404761D01*
X111595238Y-112452380D01*
X111309523Y-112452380D01*
X111214285Y-112404761D01*
X111166666Y-112357142D01*
X112404761Y-111452380D02*
X112500000Y-111452380D01*
X112595238Y-111500000D01*
X112642857Y-111547619D01*
X112690476Y-111642857D01*
X112738095Y-111833333D01*
X112738095Y-112071428D01*
X112690476Y-112261904D01*
X112642857Y-112357142D01*
X112595238Y-112404761D01*
X112500000Y-112452380D01*
X112404761Y-112452380D01*
X112309523Y-112404761D01*
X112261904Y-112357142D01*
X112214285Y-112261904D01*
X112166666Y-112071428D01*
X112166666Y-111833333D01*
X112214285Y-111642857D01*
X112261904Y-111547619D01*
X112309523Y-111500000D01*
X112404761Y-111452380D01*
X113023809Y-111452380D02*
X113357142Y-112452380D01*
X113690476Y-111452380D01*
X113976190Y-112166666D02*
X114452380Y-112166666D01*
X113880952Y-112452380D02*
X114214285Y-111452380D01*
X114547619Y-112452380D01*
X115452380Y-112357142D02*
X115404761Y-112404761D01*
X115261904Y-112452380D01*
X115166666Y-112452380D01*
X115023809Y-112404761D01*
X114928571Y-112309523D01*
X114880952Y-112214285D01*
X114833333Y-112023809D01*
X114833333Y-111880952D01*
X114880952Y-111690476D01*
X114928571Y-111595238D01*
X115023809Y-111500000D01*
X115166666Y-111452380D01*
X115261904Y-111452380D01*
X115404761Y-111500000D01*
X115452380Y-111547619D01*
X116642857Y-112452380D02*
X116642857Y-111452380D01*
X117119047Y-112452380D02*
X117119047Y-111452380D01*
X117690476Y-112452380D01*
X117690476Y-111452380D01*
D11*
X106440000Y-38210000D02*
X116540000Y-38210000D01*
X116640000Y-41900000D02*
X116640000Y-41500000D01*
X116640000Y-41900000D02*
X116240000Y-41900000D01*
X106440000Y-41900000D02*
X106440000Y-37500000D01*
X106440000Y-41900000D02*
X106840000Y-41900000D01*
X106440000Y-37100000D02*
X106440000Y-37500000D01*
X106440000Y-37100000D02*
X106840000Y-37100000D01*
X116240000Y-37100000D02*
X116640000Y-37100000D01*
X116640000Y-37100000D02*
X116640000Y-37500000D01*
X129140000Y-37100000D02*
X129140000Y-37500000D01*
X128740000Y-37100000D02*
X129140000Y-37100000D01*
X118940000Y-37100000D02*
X119340000Y-37100000D01*
X118940000Y-37100000D02*
X118940000Y-37500000D01*
X118940000Y-41900000D02*
X119340000Y-41900000D01*
X118940000Y-41900000D02*
X118940000Y-37500000D01*
X129140000Y-41900000D02*
X128740000Y-41900000D01*
X129140000Y-41900000D02*
X129140000Y-41500000D01*
X118940000Y-38210000D02*
X129040000Y-38210000D01*
D12*
X134655000Y-84530000D02*
X134655000Y-79460000D01*
X144425000Y-84530000D02*
X144425000Y-79460000D01*
X144425000Y-79460000D02*
X134655000Y-79460000D01*
X144425000Y-84530000D02*
X134655000Y-84530000D01*
D10*
X115750000Y-92750000D02*
X115750000Y-97250000D01*
X127750000Y-92750000D02*
X127750000Y-97250000D01*
X115750000Y-92750000D02*
X127750000Y-92750000D01*
X115750000Y-97250000D02*
X127750000Y-97250000D01*
D11*
X180625000Y-70425000D02*
X181250000Y-70425000D01*
X180625000Y-71250000D02*
X180625000Y-70425000D01*
X197375000Y-70425000D02*
X197375000Y-71275000D01*
X196675000Y-70425000D02*
X197375000Y-70425000D01*
X197375000Y-93175000D02*
X196600000Y-93175000D01*
X197375000Y-92050000D02*
X197375000Y-93175000D01*
X181200000Y-93175000D02*
X182575000Y-93175000D01*
X180625000Y-92575000D02*
X181200000Y-93175000D01*
X180625000Y-92350000D02*
X180625000Y-92575000D01*
X162125000Y-70425000D02*
X162750000Y-70425000D01*
X162125000Y-71250000D02*
X162125000Y-70425000D01*
X178875000Y-70425000D02*
X178875000Y-71275000D01*
X178175000Y-70425000D02*
X178875000Y-70425000D01*
X178875000Y-93175000D02*
X178100000Y-93175000D01*
X178875000Y-92050000D02*
X178875000Y-93175000D01*
X162700000Y-93175000D02*
X164075000Y-93175000D01*
X162125000Y-92575000D02*
X162700000Y-93175000D01*
X162125000Y-92350000D02*
X162125000Y-92575000D01*
D12*
X135920000Y-69630000D02*
X135920000Y-69960000D01*
X142460000Y-69630000D02*
X135920000Y-69630000D01*
X142460000Y-69960000D02*
X142460000Y-69630000D01*
X135920000Y-72370000D02*
X135920000Y-72040000D01*
X142460000Y-72370000D02*
X135920000Y-72370000D01*
X142460000Y-72040000D02*
X142460000Y-72370000D01*
X135920000Y-73630000D02*
X135920000Y-73960000D01*
X142460000Y-73630000D02*
X135920000Y-73630000D01*
X142460000Y-73960000D02*
X142460000Y-73630000D01*
X135920000Y-76370000D02*
X135920000Y-76040000D01*
X142460000Y-76370000D02*
X135920000Y-76370000D01*
X142460000Y-76040000D02*
X142460000Y-76370000D01*
X181630000Y-67580000D02*
X181960000Y-67580000D01*
X181630000Y-61040000D02*
X181630000Y-67580000D01*
X181960000Y-61040000D02*
X181630000Y-61040000D01*
X184370000Y-67580000D02*
X184040000Y-67580000D01*
X184370000Y-61040000D02*
X184370000Y-67580000D01*
X184040000Y-61040000D02*
X184370000Y-61040000D01*
X175130000Y-67580000D02*
X175460000Y-67580000D01*
X175130000Y-61040000D02*
X175130000Y-67580000D01*
X175460000Y-61040000D02*
X175130000Y-61040000D01*
X177870000Y-67580000D02*
X177540000Y-67580000D01*
X177870000Y-61040000D02*
X177870000Y-67580000D01*
X177540000Y-61040000D02*
X177870000Y-61040000D01*
X118080000Y-45370000D02*
X118080000Y-45040000D01*
X111540000Y-45370000D02*
X118080000Y-45370000D01*
X111540000Y-45040000D02*
X111540000Y-45370000D01*
X118080000Y-42630000D02*
X118080000Y-42960000D01*
X111540000Y-42630000D02*
X118080000Y-42630000D01*
X111540000Y-42960000D02*
X111540000Y-42630000D01*
D11*
X191580000Y-65900000D02*
X191730000Y-66200000D01*
X191280000Y-65900000D02*
X191580000Y-65900000D01*
X186880000Y-65900000D02*
X187180000Y-65900000D01*
X186880000Y-65900000D02*
X186730000Y-66200000D01*
D10*
X187280000Y-69050000D02*
G75*
G03*
X191130000Y-69100000I1950000J1900000D01*
G01*
D11*
X173080000Y-65900000D02*
X173230000Y-66200000D01*
X172780000Y-65900000D02*
X173080000Y-65900000D01*
X168380000Y-65900000D02*
X168680000Y-65900000D01*
X168380000Y-65900000D02*
X168230000Y-66200000D01*
D10*
X168780000Y-69050000D02*
G75*
G03*
X172630000Y-69100000I1950000J1900000D01*
G01*
D12*
X189120000Y-109500000D02*
X178960000Y-109500000D01*
X189120000Y-110500000D02*
X189120000Y-100500000D01*
X189120000Y-100500000D02*
X178960000Y-100500000D01*
X178960000Y-100500000D02*
X178960000Y-110500000D01*
X178960000Y-110500000D02*
X189120000Y-110500000D01*
X176047379Y-109500000D02*
X165887379Y-109500000D01*
X176047379Y-110500000D02*
X176047379Y-100500000D01*
X176047379Y-100500000D02*
X165887379Y-100500000D01*
X165887379Y-100500000D02*
X165887379Y-110500000D01*
X165887379Y-110500000D02*
X176047379Y-110500000D01*
D10*
X181420000Y-58700000D02*
X181420000Y-52900000D01*
X191580000Y-58700000D02*
X181420000Y-58700000D01*
X191580000Y-52900000D02*
X191580000Y-58700000D01*
X181420000Y-52900000D02*
X191580000Y-52900000D01*
X181420000Y-53500000D02*
X191580000Y-53500000D01*
D12*
X132442619Y-109500000D02*
X122282619Y-109500000D01*
X132442619Y-110500000D02*
X132442619Y-100500000D01*
X132442619Y-100500000D02*
X122282619Y-100500000D01*
X122282619Y-100500000D02*
X122282619Y-110500000D01*
X122282619Y-110500000D02*
X132442619Y-110500000D01*
X119370000Y-109500000D02*
X109210000Y-109500000D01*
X119370000Y-110500000D02*
X119370000Y-100500000D01*
X119370000Y-100500000D02*
X109210000Y-100500000D01*
X109210000Y-100500000D02*
X109210000Y-110500000D01*
X109210000Y-110500000D02*
X119370000Y-110500000D01*
X145515238Y-109500000D02*
X135355238Y-109500000D01*
X145515238Y-110500000D02*
X145515238Y-100500000D01*
X145515238Y-100500000D02*
X135355238Y-100500000D01*
X135355238Y-100500000D02*
X135355238Y-110500000D01*
X135355238Y-110500000D02*
X145515238Y-110500000D01*
X162974760Y-109500000D02*
X152814760Y-109500000D01*
X162974760Y-110500000D02*
X162974760Y-100500000D01*
X162974760Y-100500000D02*
X152814760Y-100500000D01*
X152814760Y-100500000D02*
X152814760Y-110500000D01*
X152814760Y-110500000D02*
X162974760Y-110500000D01*
X146090000Y-72640000D02*
X149250000Y-72640000D01*
X146090000Y-72640000D02*
X146090000Y-95360000D01*
X155910000Y-72640000D02*
X155910000Y-95360000D01*
X152750000Y-72640000D02*
X155910000Y-72640000D01*
X152750000Y-95360000D02*
X155910000Y-95360000D01*
X146090000Y-95360000D02*
X149250000Y-95360000D01*
X100090000Y-72640000D02*
X103250000Y-72640000D01*
X100090000Y-72640000D02*
X100090000Y-95360000D01*
X109910000Y-72640000D02*
X109910000Y-95360000D01*
X106750000Y-72640000D02*
X109910000Y-72640000D01*
X106750000Y-95360000D02*
X109910000Y-95360000D01*
X100090000Y-95360000D02*
X103250000Y-95360000D01*
X137710000Y-89080000D02*
X137710000Y-89236000D01*
X137710000Y-86764000D02*
X137710000Y-86920000D01*
X140311130Y-89079837D02*
G75*
G02*
X138229039Y-89080000I-1041130J1079837D01*
G01*
X140311130Y-86920163D02*
G75*
G03*
X138229039Y-86920000I-1041130J-1079837D01*
G01*
X140942335Y-89078608D02*
G75*
G02*
X137710000Y-89235516I-1672335J1078608D01*
G01*
X140942335Y-86921392D02*
G75*
G03*
X137710000Y-86764484I-1672335J-1078608D01*
G01*
X191360000Y-97470000D02*
X191360000Y-94530000D01*
X191120000Y-97470000D02*
X191120000Y-94530000D01*
X191240000Y-97470000D02*
X191240000Y-94530000D01*
X185680000Y-96000000D02*
X186700000Y-96000000D01*
X193160000Y-96000000D02*
X192140000Y-96000000D01*
X186700000Y-97470000D02*
X192140000Y-97470000D01*
X186700000Y-94530000D02*
X186700000Y-97470000D01*
X192140000Y-94530000D02*
X186700000Y-94530000D01*
X192140000Y-97470000D02*
X192140000Y-94530000D01*
X172360000Y-97470000D02*
X172360000Y-94530000D01*
X172120000Y-97470000D02*
X172120000Y-94530000D01*
X172240000Y-97470000D02*
X172240000Y-94530000D01*
X166680000Y-96000000D02*
X167700000Y-96000000D01*
X174160000Y-96000000D02*
X173140000Y-96000000D01*
X167700000Y-97470000D02*
X173140000Y-97470000D01*
X167700000Y-94530000D02*
X167700000Y-97470000D01*
X173140000Y-94530000D02*
X167700000Y-94530000D01*
X173140000Y-97470000D02*
X173140000Y-94530000D01*
X162282000Y-37800000D02*
X162155000Y-37800000D01*
X162155000Y-41400000D02*
X162155000Y-37800000D01*
X168400000Y-37800000D02*
X173000000Y-37800000D01*
X175600000Y-37800000D02*
X180700000Y-37800000D01*
X183200000Y-37800000D02*
X188400000Y-37800000D01*
X191650000Y-37800000D02*
X191650000Y-41400000D01*
X191650000Y-41400000D02*
X162155000Y-41400000D01*
X191000000Y-37800000D02*
X191650000Y-37800000D01*
X117120000Y-64620000D02*
X108880000Y-64620000D01*
X117120000Y-46380000D02*
X108880000Y-46380000D01*
X108880000Y-46380000D02*
X108880000Y-64620000D01*
X117120000Y-46380000D02*
X117120000Y-64620000D01*
X108120000Y-64620000D02*
X99880000Y-64620000D01*
X108120000Y-46380000D02*
X99880000Y-46380000D01*
X99880000Y-46380000D02*
X99880000Y-64620000D01*
X108120000Y-46380000D02*
X108120000Y-64620000D01*
X126120000Y-64620000D02*
X117880000Y-64620000D01*
X126120000Y-46380000D02*
X117880000Y-46380000D01*
X117880000Y-46380000D02*
X117880000Y-64620000D01*
X126120000Y-46380000D02*
X126120000Y-64620000D01*
X169835000Y-44700663D02*
X167635000Y-44700663D01*
X168735000Y-43600663D02*
X168735000Y-45800663D01*
X162540000Y-66620000D02*
X162460000Y-66620000D01*
X163403000Y-66580000D02*
X161597000Y-66580000D01*
X163792000Y-66540000D02*
X161208000Y-66540000D01*
X164090000Y-66500000D02*
X160910000Y-66500000D01*
X164340000Y-66460000D02*
X160660000Y-66460000D01*
X164560000Y-66420000D02*
X160440000Y-66420000D01*
X164758000Y-66380000D02*
X160242000Y-66380000D01*
X164940000Y-66340000D02*
X160060000Y-66340000D01*
X165109000Y-66300000D02*
X159891000Y-66300000D01*
X165267000Y-66260000D02*
X159733000Y-66260000D01*
X165416000Y-66220000D02*
X159584000Y-66220000D01*
X165558000Y-66180000D02*
X159442000Y-66180000D01*
X165692000Y-66140000D02*
X159308000Y-66140000D01*
X165821000Y-66100000D02*
X159179000Y-66100000D01*
X165945000Y-66060000D02*
X159055000Y-66060000D01*
X166064000Y-66020000D02*
X158936000Y-66020000D01*
X166179000Y-65980000D02*
X158821000Y-65980000D01*
X166289000Y-65940000D02*
X158711000Y-65940000D01*
X166397000Y-65900000D02*
X158603000Y-65900000D01*
X166501000Y-65860000D02*
X158499000Y-65860000D01*
X166602000Y-65820000D02*
X158398000Y-65820000D01*
X166700000Y-65780000D02*
X158300000Y-65780000D01*
X166796000Y-65740000D02*
X158204000Y-65740000D01*
X166889000Y-65700000D02*
X158111000Y-65700000D01*
X166980000Y-65660000D02*
X158020000Y-65660000D01*
X167069000Y-65620000D02*
X157931000Y-65620000D01*
X167156000Y-65580000D02*
X157844000Y-65580000D01*
X167241000Y-65540000D02*
X157759000Y-65540000D01*
X167324000Y-65500000D02*
X157676000Y-65500000D01*
X167405000Y-65460000D02*
X157595000Y-65460000D01*
X167485000Y-65420000D02*
X157515000Y-65420000D01*
X167563000Y-65380000D02*
X157437000Y-65380000D01*
X167640000Y-65340000D02*
X157360000Y-65340000D01*
X167715000Y-65300000D02*
X157285000Y-65300000D01*
X167789000Y-65260000D02*
X157211000Y-65260000D01*
X167862000Y-65220000D02*
X157138000Y-65220000D01*
X167933000Y-65180000D02*
X157067000Y-65180000D01*
X168003000Y-65140000D02*
X156997000Y-65140000D01*
X168072000Y-65100000D02*
X156928000Y-65100000D01*
X168140000Y-65060000D02*
X156860000Y-65060000D01*
X168207000Y-65020000D02*
X156793000Y-65020000D01*
X168273000Y-64980000D02*
X156727000Y-64980000D01*
X168338000Y-64940000D02*
X156662000Y-64940000D01*
X168401000Y-64900000D02*
X156599000Y-64900000D01*
X168464000Y-64860000D02*
X156536000Y-64860000D01*
X168526000Y-64820000D02*
X156474000Y-64820000D01*
X168587000Y-64780000D02*
X156413000Y-64780000D01*
X168647000Y-64740000D02*
X156353000Y-64740000D01*
X168707000Y-64700000D02*
X156293000Y-64700000D01*
X168765000Y-64660000D02*
X156235000Y-64660000D01*
X168823000Y-64620000D02*
X156177000Y-64620000D01*
X168880000Y-64580000D02*
X156120000Y-64580000D01*
X168936000Y-64540000D02*
X156064000Y-64540000D01*
X168992000Y-64500000D02*
X156008000Y-64500000D01*
X169046000Y-64460000D02*
X155954000Y-64460000D01*
X169100000Y-64420000D02*
X155900000Y-64420000D01*
X169154000Y-64380000D02*
X155846000Y-64380000D01*
X169207000Y-64340000D02*
X155793000Y-64340000D01*
X169259000Y-64300000D02*
X155741000Y-64300000D01*
X169310000Y-64260000D02*
X155690000Y-64260000D01*
X169361000Y-64220000D02*
X155639000Y-64220000D01*
X169411000Y-64180000D02*
X155589000Y-64180000D01*
X169461000Y-64140000D02*
X155539000Y-64140000D01*
X169510000Y-64100000D02*
X155490000Y-64100000D01*
X169558000Y-64060000D02*
X155442000Y-64060000D01*
X169606000Y-64020000D02*
X155394000Y-64020000D01*
X169654000Y-63980000D02*
X155346000Y-63980000D01*
X169701000Y-63940000D02*
X155299000Y-63940000D01*
X169747000Y-63900000D02*
X155253000Y-63900000D01*
X169793000Y-63860000D02*
X155207000Y-63860000D01*
X169838000Y-63820000D02*
X155162000Y-63820000D01*
X169883000Y-63780000D02*
X155117000Y-63780000D01*
X169928000Y-63740000D02*
X155072000Y-63740000D01*
X169971000Y-63700000D02*
X155029000Y-63700000D01*
X170015000Y-63661000D02*
X154985000Y-63661000D01*
X170058000Y-63621000D02*
X154942000Y-63621000D01*
X170100000Y-63581000D02*
X154900000Y-63581000D01*
X170142000Y-63541000D02*
X154858000Y-63541000D01*
X170184000Y-63501000D02*
X154816000Y-63501000D01*
X170225000Y-63461000D02*
X154775000Y-63461000D01*
X170266000Y-63421000D02*
X154734000Y-63421000D01*
X170307000Y-63381000D02*
X154693000Y-63381000D01*
X170346000Y-63341000D02*
X154654000Y-63341000D01*
X170386000Y-63301000D02*
X154614000Y-63301000D01*
X170425000Y-63261000D02*
X154575000Y-63261000D01*
X170464000Y-63221000D02*
X154536000Y-63221000D01*
X170502000Y-63181000D02*
X154498000Y-63181000D01*
X170540000Y-63141000D02*
X154460000Y-63141000D01*
X170578000Y-63101000D02*
X154422000Y-63101000D01*
X170615000Y-63061000D02*
X154385000Y-63061000D01*
X170652000Y-63021000D02*
X154348000Y-63021000D01*
X170689000Y-62981000D02*
X154311000Y-62981000D01*
X170725000Y-62941000D02*
X154275000Y-62941000D01*
X170761000Y-62901000D02*
X154239000Y-62901000D01*
X170796000Y-62861000D02*
X154204000Y-62861000D01*
X170831000Y-62821000D02*
X154169000Y-62821000D01*
X170866000Y-62781000D02*
X154134000Y-62781000D01*
X170901000Y-62741000D02*
X154099000Y-62741000D01*
X160260000Y-62701000D02*
X154065000Y-62701000D01*
X170935000Y-62701000D02*
X164740000Y-62701000D01*
X160260000Y-62661000D02*
X154031000Y-62661000D01*
X170969000Y-62661000D02*
X164740000Y-62661000D01*
X160260000Y-62621000D02*
X153998000Y-62621000D01*
X171002000Y-62621000D02*
X164740000Y-62621000D01*
X160260000Y-62581000D02*
X153965000Y-62581000D01*
X171035000Y-62581000D02*
X164740000Y-62581000D01*
X160260000Y-62541000D02*
X153932000Y-62541000D01*
X171068000Y-62541000D02*
X164740000Y-62541000D01*
X160260000Y-62501000D02*
X153899000Y-62501000D01*
X171101000Y-62501000D02*
X164740000Y-62501000D01*
X160260000Y-62461000D02*
X153867000Y-62461000D01*
X171133000Y-62461000D02*
X164740000Y-62461000D01*
X160260000Y-62421000D02*
X153835000Y-62421000D01*
X171165000Y-62421000D02*
X164740000Y-62421000D01*
X160260000Y-62381000D02*
X153803000Y-62381000D01*
X171197000Y-62381000D02*
X164740000Y-62381000D01*
X160260000Y-62341000D02*
X153772000Y-62341000D01*
X171228000Y-62341000D02*
X164740000Y-62341000D01*
X160260000Y-62301000D02*
X153741000Y-62301000D01*
X171259000Y-62301000D02*
X164740000Y-62301000D01*
X160260000Y-62261000D02*
X153710000Y-62261000D01*
X171290000Y-62261000D02*
X164740000Y-62261000D01*
X160260000Y-62221000D02*
X153680000Y-62221000D01*
X171320000Y-62221000D02*
X164740000Y-62221000D01*
X160260000Y-62181000D02*
X153650000Y-62181000D01*
X171350000Y-62181000D02*
X164740000Y-62181000D01*
X160260000Y-62141000D02*
X153620000Y-62141000D01*
X171380000Y-62141000D02*
X164740000Y-62141000D01*
X160260000Y-62101000D02*
X153590000Y-62101000D01*
X171410000Y-62101000D02*
X164740000Y-62101000D01*
X160260000Y-62061000D02*
X153561000Y-62061000D01*
X171439000Y-62061000D02*
X164740000Y-62061000D01*
X160260000Y-62021000D02*
X153532000Y-62021000D01*
X171468000Y-62021000D02*
X164740000Y-62021000D01*
X160260000Y-61981000D02*
X153503000Y-61981000D01*
X171497000Y-61981000D02*
X164740000Y-61981000D01*
X160260000Y-61941000D02*
X153474000Y-61941000D01*
X171526000Y-61941000D02*
X164740000Y-61941000D01*
X160260000Y-61901000D02*
X153446000Y-61901000D01*
X171554000Y-61901000D02*
X164740000Y-61901000D01*
X160260000Y-61861000D02*
X153418000Y-61861000D01*
X171582000Y-61861000D02*
X164740000Y-61861000D01*
X160260000Y-61821000D02*
X153390000Y-61821000D01*
X171610000Y-61821000D02*
X164740000Y-61821000D01*
X160260000Y-61781000D02*
X153363000Y-61781000D01*
X171637000Y-61781000D02*
X164740000Y-61781000D01*
X160260000Y-61741000D02*
X153335000Y-61741000D01*
X171665000Y-61741000D02*
X164740000Y-61741000D01*
X160260000Y-61701000D02*
X153308000Y-61701000D01*
X171692000Y-61701000D02*
X164740000Y-61701000D01*
X160260000Y-61661000D02*
X153282000Y-61661000D01*
X171718000Y-61661000D02*
X164740000Y-61661000D01*
X160260000Y-61621000D02*
X153255000Y-61621000D01*
X171745000Y-61621000D02*
X164740000Y-61621000D01*
X160260000Y-61581000D02*
X153229000Y-61581000D01*
X171771000Y-61581000D02*
X164740000Y-61581000D01*
X160260000Y-61541000D02*
X153203000Y-61541000D01*
X171797000Y-61541000D02*
X164740000Y-61541000D01*
X160260000Y-61501000D02*
X153177000Y-61501000D01*
X171823000Y-61501000D02*
X164740000Y-61501000D01*
X160260000Y-61461000D02*
X153152000Y-61461000D01*
X171848000Y-61461000D02*
X164740000Y-61461000D01*
X160260000Y-61421000D02*
X153126000Y-61421000D01*
X171874000Y-61421000D02*
X164740000Y-61421000D01*
X160260000Y-61381000D02*
X153101000Y-61381000D01*
X171899000Y-61381000D02*
X164740000Y-61381000D01*
X160260000Y-61341000D02*
X153076000Y-61341000D01*
X171924000Y-61341000D02*
X164740000Y-61341000D01*
X160260000Y-61301000D02*
X153052000Y-61301000D01*
X171948000Y-61301000D02*
X164740000Y-61301000D01*
X160260000Y-61261000D02*
X153028000Y-61261000D01*
X171972000Y-61261000D02*
X164740000Y-61261000D01*
X160260000Y-61221000D02*
X153003000Y-61221000D01*
X171997000Y-61221000D02*
X164740000Y-61221000D01*
X160260000Y-61181000D02*
X152980000Y-61181000D01*
X172020000Y-61181000D02*
X164740000Y-61181000D01*
X160260000Y-61141000D02*
X152956000Y-61141000D01*
X172044000Y-61141000D02*
X164740000Y-61141000D01*
X160260000Y-61101000D02*
X152933000Y-61101000D01*
X172067000Y-61101000D02*
X164740000Y-61101000D01*
X160260000Y-61061000D02*
X152909000Y-61061000D01*
X172091000Y-61061000D02*
X164740000Y-61061000D01*
X160260000Y-61021000D02*
X152886000Y-61021000D01*
X172114000Y-61021000D02*
X164740000Y-61021000D01*
X160260000Y-60981000D02*
X152864000Y-60981000D01*
X172136000Y-60981000D02*
X164740000Y-60981000D01*
X160260000Y-60941000D02*
X152841000Y-60941000D01*
X172159000Y-60941000D02*
X164740000Y-60941000D01*
X160260000Y-60901000D02*
X152819000Y-60901000D01*
X172181000Y-60901000D02*
X164740000Y-60901000D01*
X160260000Y-60861000D02*
X152797000Y-60861000D01*
X172203000Y-60861000D02*
X164740000Y-60861000D01*
X160260000Y-60821000D02*
X152775000Y-60821000D01*
X172225000Y-60821000D02*
X164740000Y-60821000D01*
X160260000Y-60781000D02*
X152753000Y-60781000D01*
X172247000Y-60781000D02*
X164740000Y-60781000D01*
X160260000Y-60741000D02*
X152732000Y-60741000D01*
X172268000Y-60741000D02*
X164740000Y-60741000D01*
X160260000Y-60701000D02*
X152710000Y-60701000D01*
X172290000Y-60701000D02*
X164740000Y-60701000D01*
X160260000Y-60661000D02*
X152689000Y-60661000D01*
X172311000Y-60661000D02*
X164740000Y-60661000D01*
X160260000Y-60621000D02*
X152668000Y-60621000D01*
X172332000Y-60621000D02*
X164740000Y-60621000D01*
X160260000Y-60581000D02*
X152648000Y-60581000D01*
X172352000Y-60581000D02*
X164740000Y-60581000D01*
X160260000Y-60541000D02*
X152627000Y-60541000D01*
X172373000Y-60541000D02*
X164740000Y-60541000D01*
X160260000Y-60501000D02*
X152607000Y-60501000D01*
X172393000Y-60501000D02*
X164740000Y-60501000D01*
X160260000Y-60461000D02*
X152587000Y-60461000D01*
X172413000Y-60461000D02*
X164740000Y-60461000D01*
X160260000Y-60421000D02*
X152567000Y-60421000D01*
X172433000Y-60421000D02*
X164740000Y-60421000D01*
X160260000Y-60381000D02*
X152548000Y-60381000D01*
X172452000Y-60381000D02*
X164740000Y-60381000D01*
X160260000Y-60341000D02*
X152528000Y-60341000D01*
X172472000Y-60341000D02*
X164740000Y-60341000D01*
X160260000Y-60301000D02*
X152509000Y-60301000D01*
X172491000Y-60301000D02*
X164740000Y-60301000D01*
X160260000Y-60261000D02*
X152490000Y-60261000D01*
X172510000Y-60261000D02*
X164740000Y-60261000D01*
X160260000Y-60221000D02*
X152471000Y-60221000D01*
X172529000Y-60221000D02*
X164740000Y-60221000D01*
X160260000Y-60181000D02*
X152452000Y-60181000D01*
X172548000Y-60181000D02*
X164740000Y-60181000D01*
X160260000Y-60141000D02*
X152434000Y-60141000D01*
X172566000Y-60141000D02*
X164740000Y-60141000D01*
X160260000Y-60101000D02*
X152416000Y-60101000D01*
X172584000Y-60101000D02*
X164740000Y-60101000D01*
X160260000Y-60061000D02*
X152397000Y-60061000D01*
X172603000Y-60061000D02*
X164740000Y-60061000D01*
X160260000Y-60021000D02*
X152380000Y-60021000D01*
X172620000Y-60021000D02*
X164740000Y-60021000D01*
X160260000Y-59981000D02*
X152362000Y-59981000D01*
X172638000Y-59981000D02*
X164740000Y-59981000D01*
X160260000Y-59941000D02*
X152344000Y-59941000D01*
X172656000Y-59941000D02*
X164740000Y-59941000D01*
X160260000Y-59901000D02*
X152327000Y-59901000D01*
X172673000Y-59901000D02*
X164740000Y-59901000D01*
X160260000Y-59861000D02*
X152310000Y-59861000D01*
X172690000Y-59861000D02*
X164740000Y-59861000D01*
X160260000Y-59821000D02*
X152293000Y-59821000D01*
X172707000Y-59821000D02*
X164740000Y-59821000D01*
X160260000Y-59781000D02*
X152276000Y-59781000D01*
X172724000Y-59781000D02*
X164740000Y-59781000D01*
X160260000Y-59741000D02*
X152260000Y-59741000D01*
X172740000Y-59741000D02*
X164740000Y-59741000D01*
X160260000Y-59701000D02*
X152243000Y-59701000D01*
X172757000Y-59701000D02*
X164740000Y-59701000D01*
X160260000Y-59661000D02*
X152227000Y-59661000D01*
X172773000Y-59661000D02*
X164740000Y-59661000D01*
X160260000Y-59621000D02*
X152211000Y-59621000D01*
X172789000Y-59621000D02*
X164740000Y-59621000D01*
X160260000Y-59581000D02*
X152195000Y-59581000D01*
X172805000Y-59581000D02*
X164740000Y-59581000D01*
X160260000Y-59541000D02*
X152179000Y-59541000D01*
X172821000Y-59541000D02*
X164740000Y-59541000D01*
X160260000Y-59501000D02*
X152164000Y-59501000D01*
X172836000Y-59501000D02*
X164740000Y-59501000D01*
X160260000Y-59461000D02*
X152149000Y-59461000D01*
X172851000Y-59461000D02*
X164740000Y-59461000D01*
X160260000Y-59421000D02*
X152133000Y-59421000D01*
X172867000Y-59421000D02*
X164740000Y-59421000D01*
X160260000Y-59381000D02*
X152118000Y-59381000D01*
X172882000Y-59381000D02*
X164740000Y-59381000D01*
X160260000Y-59341000D02*
X152104000Y-59341000D01*
X172896000Y-59341000D02*
X164740000Y-59341000D01*
X160260000Y-59301000D02*
X152089000Y-59301000D01*
X172911000Y-59301000D02*
X164740000Y-59301000D01*
X160260000Y-59261000D02*
X152074000Y-59261000D01*
X172926000Y-59261000D02*
X164740000Y-59261000D01*
X160260000Y-59221000D02*
X152060000Y-59221000D01*
X172940000Y-59221000D02*
X164740000Y-59221000D01*
X160260000Y-59181000D02*
X152046000Y-59181000D01*
X172954000Y-59181000D02*
X164740000Y-59181000D01*
X160260000Y-59141000D02*
X152032000Y-59141000D01*
X172968000Y-59141000D02*
X164740000Y-59141000D01*
X160260000Y-59101000D02*
X152018000Y-59101000D01*
X172982000Y-59101000D02*
X164740000Y-59101000D01*
X160260000Y-59061000D02*
X152005000Y-59061000D01*
X172995000Y-59061000D02*
X164740000Y-59061000D01*
X160260000Y-59021000D02*
X151991000Y-59021000D01*
X173009000Y-59021000D02*
X164740000Y-59021000D01*
X160260000Y-58981000D02*
X151978000Y-58981000D01*
X173022000Y-58981000D02*
X164740000Y-58981000D01*
X160260000Y-58941000D02*
X151965000Y-58941000D01*
X173035000Y-58941000D02*
X164740000Y-58941000D01*
X160260000Y-58901000D02*
X151952000Y-58901000D01*
X173048000Y-58901000D02*
X164740000Y-58901000D01*
X160260000Y-58861000D02*
X151939000Y-58861000D01*
X173061000Y-58861000D02*
X164740000Y-58861000D01*
X160260000Y-58821000D02*
X151927000Y-58821000D01*
X173073000Y-58821000D02*
X164740000Y-58821000D01*
X160260000Y-58781000D02*
X151914000Y-58781000D01*
X173086000Y-58781000D02*
X164740000Y-58781000D01*
X160260000Y-58741000D02*
X151902000Y-58741000D01*
X173098000Y-58741000D02*
X164740000Y-58741000D01*
X160260000Y-58701000D02*
X151890000Y-58701000D01*
X173110000Y-58701000D02*
X164740000Y-58701000D01*
X160260000Y-58661000D02*
X151878000Y-58661000D01*
X173122000Y-58661000D02*
X164740000Y-58661000D01*
X160260000Y-58621000D02*
X151866000Y-58621000D01*
X173134000Y-58621000D02*
X164740000Y-58621000D01*
X160260000Y-58581000D02*
X151855000Y-58581000D01*
X173145000Y-58581000D02*
X164740000Y-58581000D01*
X160260000Y-58541000D02*
X151843000Y-58541000D01*
X173157000Y-58541000D02*
X164740000Y-58541000D01*
X160260000Y-58501000D02*
X151832000Y-58501000D01*
X173168000Y-58501000D02*
X164740000Y-58501000D01*
X160260000Y-58461000D02*
X151821000Y-58461000D01*
X173179000Y-58461000D02*
X164740000Y-58461000D01*
X160260000Y-58421000D02*
X151810000Y-58421000D01*
X173190000Y-58421000D02*
X164740000Y-58421000D01*
X160260000Y-58381000D02*
X151799000Y-58381000D01*
X173201000Y-58381000D02*
X164740000Y-58381000D01*
X160260000Y-58341000D02*
X151788000Y-58341000D01*
X173212000Y-58341000D02*
X164740000Y-58341000D01*
X160260000Y-58301000D02*
X151778000Y-58301000D01*
X173222000Y-58301000D02*
X164740000Y-58301000D01*
X160260000Y-58261000D02*
X151767000Y-58261000D01*
X173233000Y-58261000D02*
X164740000Y-58261000D01*
X173243000Y-58221000D02*
X151757000Y-58221000D01*
X173253000Y-58181000D02*
X151747000Y-58181000D01*
X173263000Y-58141000D02*
X151737000Y-58141000D01*
X173272000Y-58101000D02*
X151728000Y-58101000D01*
X173282000Y-58061000D02*
X151718000Y-58061000D01*
X173291000Y-58021000D02*
X151709000Y-58021000D01*
X173300000Y-57981000D02*
X151700000Y-57981000D01*
X173309000Y-57941000D02*
X151691000Y-57941000D01*
X173318000Y-57901000D02*
X151682000Y-57901000D01*
X173327000Y-57861000D02*
X151673000Y-57861000D01*
X173336000Y-57821000D02*
X151664000Y-57821000D01*
X173344000Y-57781000D02*
X151656000Y-57781000D01*
X173353000Y-57741000D02*
X151647000Y-57741000D01*
X173361000Y-57701000D02*
X151639000Y-57701000D01*
X173369000Y-57661000D02*
X151631000Y-57661000D01*
X173377000Y-57621000D02*
X151623000Y-57621000D01*
X173384000Y-57581000D02*
X151616000Y-57581000D01*
X173392000Y-57541000D02*
X151608000Y-57541000D01*
X173399000Y-57501000D02*
X151601000Y-57501000D01*
X173406000Y-57461000D02*
X151594000Y-57461000D01*
X173413000Y-57421000D02*
X151587000Y-57421000D01*
X173420000Y-57381000D02*
X151580000Y-57381000D01*
X173427000Y-57341000D02*
X151573000Y-57341000D01*
X173434000Y-57301000D02*
X151566000Y-57301000D01*
X173440000Y-57261000D02*
X151560000Y-57261000D01*
X173447000Y-57221000D02*
X151553000Y-57221000D01*
X173453000Y-57181000D02*
X151547000Y-57181000D01*
X173459000Y-57141000D02*
X151541000Y-57141000D01*
X173465000Y-57101000D02*
X151535000Y-57101000D01*
X173471000Y-57061000D02*
X151529000Y-57061000D01*
X173476000Y-57021000D02*
X151524000Y-57021000D01*
X173482000Y-56981000D02*
X151518000Y-56981000D01*
X173487000Y-56941000D02*
X151513000Y-56941000D01*
X173492000Y-56901000D02*
X151508000Y-56901000D01*
X173497000Y-56861000D02*
X151503000Y-56861000D01*
X173502000Y-56821000D02*
X151498000Y-56821000D01*
X173507000Y-56781000D02*
X151493000Y-56781000D01*
X173511000Y-56741000D02*
X151489000Y-56741000D01*
X173516000Y-56701000D02*
X151484000Y-56701000D01*
X173520000Y-56661000D02*
X151480000Y-56661000D01*
X173524000Y-56621000D02*
X151476000Y-56621000D01*
X173528000Y-56581000D02*
X151472000Y-56581000D01*
X173532000Y-56541000D02*
X151468000Y-56541000D01*
X173535000Y-56501000D02*
X151465000Y-56501000D01*
X173539000Y-56461000D02*
X151461000Y-56461000D01*
X173542000Y-56421000D02*
X151458000Y-56421000D01*
X173546000Y-56381000D02*
X151454000Y-56381000D01*
X173549000Y-56341000D02*
X151451000Y-56341000D01*
X173552000Y-56301000D02*
X151448000Y-56301000D01*
X173554000Y-56261000D02*
X151446000Y-56261000D01*
X173557000Y-56221000D02*
X151443000Y-56221000D01*
X173560000Y-56180000D02*
X151440000Y-56180000D01*
X173562000Y-56140000D02*
X151438000Y-56140000D01*
X173564000Y-56100000D02*
X151436000Y-56100000D01*
X173566000Y-56060000D02*
X151434000Y-56060000D01*
X173568000Y-56020000D02*
X151432000Y-56020000D01*
X173570000Y-55980000D02*
X151430000Y-55980000D01*
X173572000Y-55940000D02*
X151428000Y-55940000D01*
X173573000Y-55900000D02*
X151427000Y-55900000D01*
X173575000Y-55860000D02*
X151425000Y-55860000D01*
X173576000Y-55820000D02*
X151424000Y-55820000D01*
X173577000Y-55780000D02*
X151423000Y-55780000D01*
X173578000Y-55740000D02*
X151422000Y-55740000D01*
X173579000Y-55700000D02*
X151421000Y-55700000D01*
X173579000Y-55660000D02*
X151421000Y-55660000D01*
X173580000Y-55620000D02*
X151420000Y-55620000D01*
X173580000Y-55580000D02*
X151420000Y-55580000D01*
X173580000Y-55540000D02*
X151420000Y-55540000D01*
X173581000Y-55500000D02*
X151419000Y-55500000D01*
X173620000Y-55500000D02*
G75*
G03*
X173620000Y-55500000I-11120000J0D01*
G01*
X146835000Y-44700663D02*
X144635000Y-44700663D01*
X145735000Y-43600663D02*
X145735000Y-45800663D01*
X139540000Y-66620000D02*
X139460000Y-66620000D01*
X140403000Y-66580000D02*
X138597000Y-66580000D01*
X140792000Y-66540000D02*
X138208000Y-66540000D01*
X141090000Y-66500000D02*
X137910000Y-66500000D01*
X141340000Y-66460000D02*
X137660000Y-66460000D01*
X141560000Y-66420000D02*
X137440000Y-66420000D01*
X141758000Y-66380000D02*
X137242000Y-66380000D01*
X141940000Y-66340000D02*
X137060000Y-66340000D01*
X142109000Y-66300000D02*
X136891000Y-66300000D01*
X142267000Y-66260000D02*
X136733000Y-66260000D01*
X142416000Y-66220000D02*
X136584000Y-66220000D01*
X142558000Y-66180000D02*
X136442000Y-66180000D01*
X142692000Y-66140000D02*
X136308000Y-66140000D01*
X142821000Y-66100000D02*
X136179000Y-66100000D01*
X142945000Y-66060000D02*
X136055000Y-66060000D01*
X143064000Y-66020000D02*
X135936000Y-66020000D01*
X143179000Y-65980000D02*
X135821000Y-65980000D01*
X143289000Y-65940000D02*
X135711000Y-65940000D01*
X143397000Y-65900000D02*
X135603000Y-65900000D01*
X143501000Y-65860000D02*
X135499000Y-65860000D01*
X143602000Y-65820000D02*
X135398000Y-65820000D01*
X143700000Y-65780000D02*
X135300000Y-65780000D01*
X143796000Y-65740000D02*
X135204000Y-65740000D01*
X143889000Y-65700000D02*
X135111000Y-65700000D01*
X143980000Y-65660000D02*
X135020000Y-65660000D01*
X144069000Y-65620000D02*
X134931000Y-65620000D01*
X144156000Y-65580000D02*
X134844000Y-65580000D01*
X144241000Y-65540000D02*
X134759000Y-65540000D01*
X144324000Y-65500000D02*
X134676000Y-65500000D01*
X144405000Y-65460000D02*
X134595000Y-65460000D01*
X144485000Y-65420000D02*
X134515000Y-65420000D01*
X144563000Y-65380000D02*
X134437000Y-65380000D01*
X144640000Y-65340000D02*
X134360000Y-65340000D01*
X144715000Y-65300000D02*
X134285000Y-65300000D01*
X144789000Y-65260000D02*
X134211000Y-65260000D01*
X144862000Y-65220000D02*
X134138000Y-65220000D01*
X144933000Y-65180000D02*
X134067000Y-65180000D01*
X145003000Y-65140000D02*
X133997000Y-65140000D01*
X145072000Y-65100000D02*
X133928000Y-65100000D01*
X145140000Y-65060000D02*
X133860000Y-65060000D01*
X145207000Y-65020000D02*
X133793000Y-65020000D01*
X145273000Y-64980000D02*
X133727000Y-64980000D01*
X145338000Y-64940000D02*
X133662000Y-64940000D01*
X145401000Y-64900000D02*
X133599000Y-64900000D01*
X145464000Y-64860000D02*
X133536000Y-64860000D01*
X145526000Y-64820000D02*
X133474000Y-64820000D01*
X145587000Y-64780000D02*
X133413000Y-64780000D01*
X145647000Y-64740000D02*
X133353000Y-64740000D01*
X145707000Y-64700000D02*
X133293000Y-64700000D01*
X145765000Y-64660000D02*
X133235000Y-64660000D01*
X145823000Y-64620000D02*
X133177000Y-64620000D01*
X145880000Y-64580000D02*
X133120000Y-64580000D01*
X145936000Y-64540000D02*
X133064000Y-64540000D01*
X145992000Y-64500000D02*
X133008000Y-64500000D01*
X146046000Y-64460000D02*
X132954000Y-64460000D01*
X146100000Y-64420000D02*
X132900000Y-64420000D01*
X146154000Y-64380000D02*
X132846000Y-64380000D01*
X146207000Y-64340000D02*
X132793000Y-64340000D01*
X146259000Y-64300000D02*
X132741000Y-64300000D01*
X146310000Y-64260000D02*
X132690000Y-64260000D01*
X146361000Y-64220000D02*
X132639000Y-64220000D01*
X146411000Y-64180000D02*
X132589000Y-64180000D01*
X146461000Y-64140000D02*
X132539000Y-64140000D01*
X146510000Y-64100000D02*
X132490000Y-64100000D01*
X146558000Y-64060000D02*
X132442000Y-64060000D01*
X146606000Y-64020000D02*
X132394000Y-64020000D01*
X146654000Y-63980000D02*
X132346000Y-63980000D01*
X146701000Y-63940000D02*
X132299000Y-63940000D01*
X146747000Y-63900000D02*
X132253000Y-63900000D01*
X146793000Y-63860000D02*
X132207000Y-63860000D01*
X146838000Y-63820000D02*
X132162000Y-63820000D01*
X146883000Y-63780000D02*
X132117000Y-63780000D01*
X146928000Y-63740000D02*
X132072000Y-63740000D01*
X146971000Y-63700000D02*
X132029000Y-63700000D01*
X147015000Y-63661000D02*
X131985000Y-63661000D01*
X147058000Y-63621000D02*
X131942000Y-63621000D01*
X147100000Y-63581000D02*
X131900000Y-63581000D01*
X147142000Y-63541000D02*
X131858000Y-63541000D01*
X147184000Y-63501000D02*
X131816000Y-63501000D01*
X147225000Y-63461000D02*
X131775000Y-63461000D01*
X147266000Y-63421000D02*
X131734000Y-63421000D01*
X147307000Y-63381000D02*
X131693000Y-63381000D01*
X147346000Y-63341000D02*
X131654000Y-63341000D01*
X147386000Y-63301000D02*
X131614000Y-63301000D01*
X147425000Y-63261000D02*
X131575000Y-63261000D01*
X147464000Y-63221000D02*
X131536000Y-63221000D01*
X147502000Y-63181000D02*
X131498000Y-63181000D01*
X147540000Y-63141000D02*
X131460000Y-63141000D01*
X147578000Y-63101000D02*
X131422000Y-63101000D01*
X147615000Y-63061000D02*
X131385000Y-63061000D01*
X147652000Y-63021000D02*
X131348000Y-63021000D01*
X147689000Y-62981000D02*
X131311000Y-62981000D01*
X147725000Y-62941000D02*
X131275000Y-62941000D01*
X147761000Y-62901000D02*
X131239000Y-62901000D01*
X147796000Y-62861000D02*
X131204000Y-62861000D01*
X147831000Y-62821000D02*
X131169000Y-62821000D01*
X147866000Y-62781000D02*
X131134000Y-62781000D01*
X147901000Y-62741000D02*
X131099000Y-62741000D01*
X137260000Y-62701000D02*
X131065000Y-62701000D01*
X147935000Y-62701000D02*
X141740000Y-62701000D01*
X137260000Y-62661000D02*
X131031000Y-62661000D01*
X147969000Y-62661000D02*
X141740000Y-62661000D01*
X137260000Y-62621000D02*
X130998000Y-62621000D01*
X148002000Y-62621000D02*
X141740000Y-62621000D01*
X137260000Y-62581000D02*
X130965000Y-62581000D01*
X148035000Y-62581000D02*
X141740000Y-62581000D01*
X137260000Y-62541000D02*
X130932000Y-62541000D01*
X148068000Y-62541000D02*
X141740000Y-62541000D01*
X137260000Y-62501000D02*
X130899000Y-62501000D01*
X148101000Y-62501000D02*
X141740000Y-62501000D01*
X137260000Y-62461000D02*
X130867000Y-62461000D01*
X148133000Y-62461000D02*
X141740000Y-62461000D01*
X137260000Y-62421000D02*
X130835000Y-62421000D01*
X148165000Y-62421000D02*
X141740000Y-62421000D01*
X137260000Y-62381000D02*
X130803000Y-62381000D01*
X148197000Y-62381000D02*
X141740000Y-62381000D01*
X137260000Y-62341000D02*
X130772000Y-62341000D01*
X148228000Y-62341000D02*
X141740000Y-62341000D01*
X137260000Y-62301000D02*
X130741000Y-62301000D01*
X148259000Y-62301000D02*
X141740000Y-62301000D01*
X137260000Y-62261000D02*
X130710000Y-62261000D01*
X148290000Y-62261000D02*
X141740000Y-62261000D01*
X137260000Y-62221000D02*
X130680000Y-62221000D01*
X148320000Y-62221000D02*
X141740000Y-62221000D01*
X137260000Y-62181000D02*
X130650000Y-62181000D01*
X148350000Y-62181000D02*
X141740000Y-62181000D01*
X137260000Y-62141000D02*
X130620000Y-62141000D01*
X148380000Y-62141000D02*
X141740000Y-62141000D01*
X137260000Y-62101000D02*
X130590000Y-62101000D01*
X148410000Y-62101000D02*
X141740000Y-62101000D01*
X137260000Y-62061000D02*
X130561000Y-62061000D01*
X148439000Y-62061000D02*
X141740000Y-62061000D01*
X137260000Y-62021000D02*
X130532000Y-62021000D01*
X148468000Y-62021000D02*
X141740000Y-62021000D01*
X137260000Y-61981000D02*
X130503000Y-61981000D01*
X148497000Y-61981000D02*
X141740000Y-61981000D01*
X137260000Y-61941000D02*
X130474000Y-61941000D01*
X148526000Y-61941000D02*
X141740000Y-61941000D01*
X137260000Y-61901000D02*
X130446000Y-61901000D01*
X148554000Y-61901000D02*
X141740000Y-61901000D01*
X137260000Y-61861000D02*
X130418000Y-61861000D01*
X148582000Y-61861000D02*
X141740000Y-61861000D01*
X137260000Y-61821000D02*
X130390000Y-61821000D01*
X148610000Y-61821000D02*
X141740000Y-61821000D01*
X137260000Y-61781000D02*
X130363000Y-61781000D01*
X148637000Y-61781000D02*
X141740000Y-61781000D01*
X137260000Y-61741000D02*
X130335000Y-61741000D01*
X148665000Y-61741000D02*
X141740000Y-61741000D01*
X137260000Y-61701000D02*
X130308000Y-61701000D01*
X148692000Y-61701000D02*
X141740000Y-61701000D01*
X137260000Y-61661000D02*
X130282000Y-61661000D01*
X148718000Y-61661000D02*
X141740000Y-61661000D01*
X137260000Y-61621000D02*
X130255000Y-61621000D01*
X148745000Y-61621000D02*
X141740000Y-61621000D01*
X137260000Y-61581000D02*
X130229000Y-61581000D01*
X148771000Y-61581000D02*
X141740000Y-61581000D01*
X137260000Y-61541000D02*
X130203000Y-61541000D01*
X148797000Y-61541000D02*
X141740000Y-61541000D01*
X137260000Y-61501000D02*
X130177000Y-61501000D01*
X148823000Y-61501000D02*
X141740000Y-61501000D01*
X137260000Y-61461000D02*
X130152000Y-61461000D01*
X148848000Y-61461000D02*
X141740000Y-61461000D01*
X137260000Y-61421000D02*
X130126000Y-61421000D01*
X148874000Y-61421000D02*
X141740000Y-61421000D01*
X137260000Y-61381000D02*
X130101000Y-61381000D01*
X148899000Y-61381000D02*
X141740000Y-61381000D01*
X137260000Y-61341000D02*
X130076000Y-61341000D01*
X148924000Y-61341000D02*
X141740000Y-61341000D01*
X137260000Y-61301000D02*
X130052000Y-61301000D01*
X148948000Y-61301000D02*
X141740000Y-61301000D01*
X137260000Y-61261000D02*
X130028000Y-61261000D01*
X148972000Y-61261000D02*
X141740000Y-61261000D01*
X137260000Y-61221000D02*
X130003000Y-61221000D01*
X148997000Y-61221000D02*
X141740000Y-61221000D01*
X137260000Y-61181000D02*
X129980000Y-61181000D01*
X149020000Y-61181000D02*
X141740000Y-61181000D01*
X137260000Y-61141000D02*
X129956000Y-61141000D01*
X149044000Y-61141000D02*
X141740000Y-61141000D01*
X137260000Y-61101000D02*
X129933000Y-61101000D01*
X149067000Y-61101000D02*
X141740000Y-61101000D01*
X137260000Y-61061000D02*
X129909000Y-61061000D01*
X149091000Y-61061000D02*
X141740000Y-61061000D01*
X137260000Y-61021000D02*
X129886000Y-61021000D01*
X149114000Y-61021000D02*
X141740000Y-61021000D01*
X137260000Y-60981000D02*
X129864000Y-60981000D01*
X149136000Y-60981000D02*
X141740000Y-60981000D01*
X137260000Y-60941000D02*
X129841000Y-60941000D01*
X149159000Y-60941000D02*
X141740000Y-60941000D01*
X137260000Y-60901000D02*
X129819000Y-60901000D01*
X149181000Y-60901000D02*
X141740000Y-60901000D01*
X137260000Y-60861000D02*
X129797000Y-60861000D01*
X149203000Y-60861000D02*
X141740000Y-60861000D01*
X137260000Y-60821000D02*
X129775000Y-60821000D01*
X149225000Y-60821000D02*
X141740000Y-60821000D01*
X137260000Y-60781000D02*
X129753000Y-60781000D01*
X149247000Y-60781000D02*
X141740000Y-60781000D01*
X137260000Y-60741000D02*
X129732000Y-60741000D01*
X149268000Y-60741000D02*
X141740000Y-60741000D01*
X137260000Y-60701000D02*
X129710000Y-60701000D01*
X149290000Y-60701000D02*
X141740000Y-60701000D01*
X137260000Y-60661000D02*
X129689000Y-60661000D01*
X149311000Y-60661000D02*
X141740000Y-60661000D01*
X137260000Y-60621000D02*
X129668000Y-60621000D01*
X149332000Y-60621000D02*
X141740000Y-60621000D01*
X137260000Y-60581000D02*
X129648000Y-60581000D01*
X149352000Y-60581000D02*
X141740000Y-60581000D01*
X137260000Y-60541000D02*
X129627000Y-60541000D01*
X149373000Y-60541000D02*
X141740000Y-60541000D01*
X137260000Y-60501000D02*
X129607000Y-60501000D01*
X149393000Y-60501000D02*
X141740000Y-60501000D01*
X137260000Y-60461000D02*
X129587000Y-60461000D01*
X149413000Y-60461000D02*
X141740000Y-60461000D01*
X137260000Y-60421000D02*
X129567000Y-60421000D01*
X149433000Y-60421000D02*
X141740000Y-60421000D01*
X137260000Y-60381000D02*
X129548000Y-60381000D01*
X149452000Y-60381000D02*
X141740000Y-60381000D01*
X137260000Y-60341000D02*
X129528000Y-60341000D01*
X149472000Y-60341000D02*
X141740000Y-60341000D01*
X137260000Y-60301000D02*
X129509000Y-60301000D01*
X149491000Y-60301000D02*
X141740000Y-60301000D01*
X137260000Y-60261000D02*
X129490000Y-60261000D01*
X149510000Y-60261000D02*
X141740000Y-60261000D01*
X137260000Y-60221000D02*
X129471000Y-60221000D01*
X149529000Y-60221000D02*
X141740000Y-60221000D01*
X137260000Y-60181000D02*
X129452000Y-60181000D01*
X149548000Y-60181000D02*
X141740000Y-60181000D01*
X137260000Y-60141000D02*
X129434000Y-60141000D01*
X149566000Y-60141000D02*
X141740000Y-60141000D01*
X137260000Y-60101000D02*
X129416000Y-60101000D01*
X149584000Y-60101000D02*
X141740000Y-60101000D01*
X137260000Y-60061000D02*
X129397000Y-60061000D01*
X149603000Y-60061000D02*
X141740000Y-60061000D01*
X137260000Y-60021000D02*
X129380000Y-60021000D01*
X149620000Y-60021000D02*
X141740000Y-60021000D01*
X137260000Y-59981000D02*
X129362000Y-59981000D01*
X149638000Y-59981000D02*
X141740000Y-59981000D01*
X137260000Y-59941000D02*
X129344000Y-59941000D01*
X149656000Y-59941000D02*
X141740000Y-59941000D01*
X137260000Y-59901000D02*
X129327000Y-59901000D01*
X149673000Y-59901000D02*
X141740000Y-59901000D01*
X137260000Y-59861000D02*
X129310000Y-59861000D01*
X149690000Y-59861000D02*
X141740000Y-59861000D01*
X137260000Y-59821000D02*
X129293000Y-59821000D01*
X149707000Y-59821000D02*
X141740000Y-59821000D01*
X137260000Y-59781000D02*
X129276000Y-59781000D01*
X149724000Y-59781000D02*
X141740000Y-59781000D01*
X137260000Y-59741000D02*
X129260000Y-59741000D01*
X149740000Y-59741000D02*
X141740000Y-59741000D01*
X137260000Y-59701000D02*
X129243000Y-59701000D01*
X149757000Y-59701000D02*
X141740000Y-59701000D01*
X137260000Y-59661000D02*
X129227000Y-59661000D01*
X149773000Y-59661000D02*
X141740000Y-59661000D01*
X137260000Y-59621000D02*
X129211000Y-59621000D01*
X149789000Y-59621000D02*
X141740000Y-59621000D01*
X137260000Y-59581000D02*
X129195000Y-59581000D01*
X149805000Y-59581000D02*
X141740000Y-59581000D01*
X137260000Y-59541000D02*
X129179000Y-59541000D01*
X149821000Y-59541000D02*
X141740000Y-59541000D01*
X137260000Y-59501000D02*
X129164000Y-59501000D01*
X149836000Y-59501000D02*
X141740000Y-59501000D01*
X137260000Y-59461000D02*
X129149000Y-59461000D01*
X149851000Y-59461000D02*
X141740000Y-59461000D01*
X137260000Y-59421000D02*
X129133000Y-59421000D01*
X149867000Y-59421000D02*
X141740000Y-59421000D01*
X137260000Y-59381000D02*
X129118000Y-59381000D01*
X149882000Y-59381000D02*
X141740000Y-59381000D01*
X137260000Y-59341000D02*
X129104000Y-59341000D01*
X149896000Y-59341000D02*
X141740000Y-59341000D01*
X137260000Y-59301000D02*
X129089000Y-59301000D01*
X149911000Y-59301000D02*
X141740000Y-59301000D01*
X137260000Y-59261000D02*
X129074000Y-59261000D01*
X149926000Y-59261000D02*
X141740000Y-59261000D01*
X137260000Y-59221000D02*
X129060000Y-59221000D01*
X149940000Y-59221000D02*
X141740000Y-59221000D01*
X137260000Y-59181000D02*
X129046000Y-59181000D01*
X149954000Y-59181000D02*
X141740000Y-59181000D01*
X137260000Y-59141000D02*
X129032000Y-59141000D01*
X149968000Y-59141000D02*
X141740000Y-59141000D01*
X137260000Y-59101000D02*
X129018000Y-59101000D01*
X149982000Y-59101000D02*
X141740000Y-59101000D01*
X137260000Y-59061000D02*
X129005000Y-59061000D01*
X149995000Y-59061000D02*
X141740000Y-59061000D01*
X137260000Y-59021000D02*
X128991000Y-59021000D01*
X150009000Y-59021000D02*
X141740000Y-59021000D01*
X137260000Y-58981000D02*
X128978000Y-58981000D01*
X150022000Y-58981000D02*
X141740000Y-58981000D01*
X137260000Y-58941000D02*
X128965000Y-58941000D01*
X150035000Y-58941000D02*
X141740000Y-58941000D01*
X137260000Y-58901000D02*
X128952000Y-58901000D01*
X150048000Y-58901000D02*
X141740000Y-58901000D01*
X137260000Y-58861000D02*
X128939000Y-58861000D01*
X150061000Y-58861000D02*
X141740000Y-58861000D01*
X137260000Y-58821000D02*
X128927000Y-58821000D01*
X150073000Y-58821000D02*
X141740000Y-58821000D01*
X137260000Y-58781000D02*
X128914000Y-58781000D01*
X150086000Y-58781000D02*
X141740000Y-58781000D01*
X137260000Y-58741000D02*
X128902000Y-58741000D01*
X150098000Y-58741000D02*
X141740000Y-58741000D01*
X137260000Y-58701000D02*
X128890000Y-58701000D01*
X150110000Y-58701000D02*
X141740000Y-58701000D01*
X137260000Y-58661000D02*
X128878000Y-58661000D01*
X150122000Y-58661000D02*
X141740000Y-58661000D01*
X137260000Y-58621000D02*
X128866000Y-58621000D01*
X150134000Y-58621000D02*
X141740000Y-58621000D01*
X137260000Y-58581000D02*
X128855000Y-58581000D01*
X150145000Y-58581000D02*
X141740000Y-58581000D01*
X137260000Y-58541000D02*
X128843000Y-58541000D01*
X150157000Y-58541000D02*
X141740000Y-58541000D01*
X137260000Y-58501000D02*
X128832000Y-58501000D01*
X150168000Y-58501000D02*
X141740000Y-58501000D01*
X137260000Y-58461000D02*
X128821000Y-58461000D01*
X150179000Y-58461000D02*
X141740000Y-58461000D01*
X137260000Y-58421000D02*
X128810000Y-58421000D01*
X150190000Y-58421000D02*
X141740000Y-58421000D01*
X137260000Y-58381000D02*
X128799000Y-58381000D01*
X150201000Y-58381000D02*
X141740000Y-58381000D01*
X137260000Y-58341000D02*
X128788000Y-58341000D01*
X150212000Y-58341000D02*
X141740000Y-58341000D01*
X137260000Y-58301000D02*
X128778000Y-58301000D01*
X150222000Y-58301000D02*
X141740000Y-58301000D01*
X137260000Y-58261000D02*
X128767000Y-58261000D01*
X150233000Y-58261000D02*
X141740000Y-58261000D01*
X150243000Y-58221000D02*
X128757000Y-58221000D01*
X150253000Y-58181000D02*
X128747000Y-58181000D01*
X150263000Y-58141000D02*
X128737000Y-58141000D01*
X150272000Y-58101000D02*
X128728000Y-58101000D01*
X150282000Y-58061000D02*
X128718000Y-58061000D01*
X150291000Y-58021000D02*
X128709000Y-58021000D01*
X150300000Y-57981000D02*
X128700000Y-57981000D01*
X150309000Y-57941000D02*
X128691000Y-57941000D01*
X150318000Y-57901000D02*
X128682000Y-57901000D01*
X150327000Y-57861000D02*
X128673000Y-57861000D01*
X150336000Y-57821000D02*
X128664000Y-57821000D01*
X150344000Y-57781000D02*
X128656000Y-57781000D01*
X150353000Y-57741000D02*
X128647000Y-57741000D01*
X150361000Y-57701000D02*
X128639000Y-57701000D01*
X150369000Y-57661000D02*
X128631000Y-57661000D01*
X150377000Y-57621000D02*
X128623000Y-57621000D01*
X150384000Y-57581000D02*
X128616000Y-57581000D01*
X150392000Y-57541000D02*
X128608000Y-57541000D01*
X150399000Y-57501000D02*
X128601000Y-57501000D01*
X150406000Y-57461000D02*
X128594000Y-57461000D01*
X150413000Y-57421000D02*
X128587000Y-57421000D01*
X150420000Y-57381000D02*
X128580000Y-57381000D01*
X150427000Y-57341000D02*
X128573000Y-57341000D01*
X150434000Y-57301000D02*
X128566000Y-57301000D01*
X150440000Y-57261000D02*
X128560000Y-57261000D01*
X150447000Y-57221000D02*
X128553000Y-57221000D01*
X150453000Y-57181000D02*
X128547000Y-57181000D01*
X150459000Y-57141000D02*
X128541000Y-57141000D01*
X150465000Y-57101000D02*
X128535000Y-57101000D01*
X150471000Y-57061000D02*
X128529000Y-57061000D01*
X150476000Y-57021000D02*
X128524000Y-57021000D01*
X150482000Y-56981000D02*
X128518000Y-56981000D01*
X150487000Y-56941000D02*
X128513000Y-56941000D01*
X150492000Y-56901000D02*
X128508000Y-56901000D01*
X150497000Y-56861000D02*
X128503000Y-56861000D01*
X150502000Y-56821000D02*
X128498000Y-56821000D01*
X150507000Y-56781000D02*
X128493000Y-56781000D01*
X150511000Y-56741000D02*
X128489000Y-56741000D01*
X150516000Y-56701000D02*
X128484000Y-56701000D01*
X150520000Y-56661000D02*
X128480000Y-56661000D01*
X150524000Y-56621000D02*
X128476000Y-56621000D01*
X150528000Y-56581000D02*
X128472000Y-56581000D01*
X150532000Y-56541000D02*
X128468000Y-56541000D01*
X150535000Y-56501000D02*
X128465000Y-56501000D01*
X150539000Y-56461000D02*
X128461000Y-56461000D01*
X150542000Y-56421000D02*
X128458000Y-56421000D01*
X150546000Y-56381000D02*
X128454000Y-56381000D01*
X150549000Y-56341000D02*
X128451000Y-56341000D01*
X150552000Y-56301000D02*
X128448000Y-56301000D01*
X150554000Y-56261000D02*
X128446000Y-56261000D01*
X150557000Y-56221000D02*
X128443000Y-56221000D01*
X150560000Y-56180000D02*
X128440000Y-56180000D01*
X150562000Y-56140000D02*
X128438000Y-56140000D01*
X150564000Y-56100000D02*
X128436000Y-56100000D01*
X150566000Y-56060000D02*
X128434000Y-56060000D01*
X150568000Y-56020000D02*
X128432000Y-56020000D01*
X150570000Y-55980000D02*
X128430000Y-55980000D01*
X150572000Y-55940000D02*
X128428000Y-55940000D01*
X150573000Y-55900000D02*
X128427000Y-55900000D01*
X150575000Y-55860000D02*
X128425000Y-55860000D01*
X150576000Y-55820000D02*
X128424000Y-55820000D01*
X150577000Y-55780000D02*
X128423000Y-55780000D01*
X150578000Y-55740000D02*
X128422000Y-55740000D01*
X150579000Y-55700000D02*
X128421000Y-55700000D01*
X150579000Y-55660000D02*
X128421000Y-55660000D01*
X150580000Y-55620000D02*
X128420000Y-55620000D01*
X150580000Y-55580000D02*
X128420000Y-55580000D01*
X150580000Y-55540000D02*
X128420000Y-55540000D01*
X150581000Y-55500000D02*
X128419000Y-55500000D01*
X150620000Y-55500000D02*
G75*
G03*
X150620000Y-55500000I-11120000J0D01*
G01*
X124920000Y-89320000D02*
X118680000Y-89320000D01*
X124920000Y-71080000D02*
X118680000Y-71080000D01*
X118680000Y-71080000D02*
X118680000Y-89320000D01*
X124920000Y-71080000D02*
X124920000Y-89320000D01*
D10*
X106488095Y-42202380D02*
X106488095Y-43011904D01*
X106535714Y-43107142D01*
X106583333Y-43154761D01*
X106678571Y-43202380D01*
X106869047Y-43202380D01*
X106964285Y-43154761D01*
X107011904Y-43107142D01*
X107059523Y-43011904D01*
X107059523Y-42202380D01*
X107488095Y-42297619D02*
X107535714Y-42250000D01*
X107630952Y-42202380D01*
X107869047Y-42202380D01*
X107964285Y-42250000D01*
X108011904Y-42297619D01*
X108059523Y-42392857D01*
X108059523Y-42488095D01*
X108011904Y-42630952D01*
X107440476Y-43202380D01*
X108059523Y-43202380D01*
X123238095Y-42452380D02*
X123238095Y-43261904D01*
X123285714Y-43357142D01*
X123333333Y-43404761D01*
X123428571Y-43452380D01*
X123619047Y-43452380D01*
X123714285Y-43404761D01*
X123761904Y-43357142D01*
X123809523Y-43261904D01*
X123809523Y-42452380D01*
X124809523Y-43452380D02*
X124238095Y-43452380D01*
X124523809Y-43452380D02*
X124523809Y-42452380D01*
X124428571Y-42595238D01*
X124333333Y-42690476D01*
X124238095Y-42738095D01*
X132154761Y-82452380D02*
X131821428Y-81976190D01*
X131583333Y-82452380D02*
X131583333Y-81452380D01*
X131964285Y-81452380D01*
X132059523Y-81500000D01*
X132107142Y-81547619D01*
X132154761Y-81642857D01*
X132154761Y-81785714D01*
X132107142Y-81880952D01*
X132059523Y-81928571D01*
X131964285Y-81976190D01*
X131583333Y-81976190D01*
X132440476Y-81452380D02*
X132773809Y-82452380D01*
X133107142Y-81452380D01*
X133392857Y-81547619D02*
X133440476Y-81500000D01*
X133535714Y-81452380D01*
X133773809Y-81452380D01*
X133869047Y-81500000D01*
X133916666Y-81547619D01*
X133964285Y-81642857D01*
X133964285Y-81738095D01*
X133916666Y-81880952D01*
X133345238Y-82452380D01*
X133964285Y-82452380D01*
X113404761Y-95452380D02*
X113071428Y-94976190D01*
X112833333Y-95452380D02*
X112833333Y-94452380D01*
X113214285Y-94452380D01*
X113309523Y-94500000D01*
X113357142Y-94547619D01*
X113404761Y-94642857D01*
X113404761Y-94785714D01*
X113357142Y-94880952D01*
X113309523Y-94928571D01*
X113214285Y-94976190D01*
X112833333Y-94976190D01*
X113690476Y-94452380D02*
X114023809Y-95452380D01*
X114357142Y-94452380D01*
X115214285Y-95452380D02*
X114642857Y-95452380D01*
X114928571Y-95452380D02*
X114928571Y-94452380D01*
X114833333Y-94595238D01*
X114738095Y-94690476D01*
X114642857Y-94738095D01*
X195000000Y-69702380D02*
X194666666Y-69226190D01*
X194428571Y-69702380D02*
X194428571Y-68702380D01*
X194809523Y-68702380D01*
X194904761Y-68750000D01*
X194952380Y-68797619D01*
X195000000Y-68892857D01*
X195000000Y-69035714D01*
X194952380Y-69130952D01*
X194904761Y-69178571D01*
X194809523Y-69226190D01*
X194428571Y-69226190D01*
X195904761Y-69702380D02*
X195428571Y-69702380D01*
X195428571Y-68702380D01*
X196428571Y-69226190D02*
X196428571Y-69702380D01*
X196095238Y-68702380D02*
X196428571Y-69226190D01*
X196761904Y-68702380D01*
X197047619Y-68797619D02*
X197095238Y-68750000D01*
X197190476Y-68702380D01*
X197428571Y-68702380D01*
X197523809Y-68750000D01*
X197571428Y-68797619D01*
X197619047Y-68892857D01*
X197619047Y-68988095D01*
X197571428Y-69130952D01*
X197000000Y-69702380D01*
X197619047Y-69702380D01*
X162750000Y-69702380D02*
X162416666Y-69226190D01*
X162178571Y-69702380D02*
X162178571Y-68702380D01*
X162559523Y-68702380D01*
X162654761Y-68750000D01*
X162702380Y-68797619D01*
X162750000Y-68892857D01*
X162750000Y-69035714D01*
X162702380Y-69130952D01*
X162654761Y-69178571D01*
X162559523Y-69226190D01*
X162178571Y-69226190D01*
X163654761Y-69702380D02*
X163178571Y-69702380D01*
X163178571Y-68702380D01*
X164178571Y-69226190D02*
X164178571Y-69702380D01*
X163845238Y-68702380D02*
X164178571Y-69226190D01*
X164511904Y-68702380D01*
X165369047Y-69702380D02*
X164797619Y-69702380D01*
X165083333Y-69702380D02*
X165083333Y-68702380D01*
X164988095Y-68845238D01*
X164892857Y-68940476D01*
X164797619Y-68988095D01*
X133083333Y-71452380D02*
X132750000Y-70976190D01*
X132511904Y-71452380D02*
X132511904Y-70452380D01*
X132892857Y-70452380D01*
X132988095Y-70500000D01*
X133035714Y-70547619D01*
X133083333Y-70642857D01*
X133083333Y-70785714D01*
X133035714Y-70880952D01*
X132988095Y-70928571D01*
X132892857Y-70976190D01*
X132511904Y-70976190D01*
X133988095Y-70452380D02*
X133511904Y-70452380D01*
X133464285Y-70928571D01*
X133511904Y-70880952D01*
X133607142Y-70833333D01*
X133845238Y-70833333D01*
X133940476Y-70880952D01*
X133988095Y-70928571D01*
X134035714Y-71023809D01*
X134035714Y-71261904D01*
X133988095Y-71357142D01*
X133940476Y-71404761D01*
X133845238Y-71452380D01*
X133607142Y-71452380D01*
X133511904Y-71404761D01*
X133464285Y-71357142D01*
X132833333Y-75452380D02*
X132500000Y-74976190D01*
X132261904Y-75452380D02*
X132261904Y-74452380D01*
X132642857Y-74452380D01*
X132738095Y-74500000D01*
X132785714Y-74547619D01*
X132833333Y-74642857D01*
X132833333Y-74785714D01*
X132785714Y-74880952D01*
X132738095Y-74928571D01*
X132642857Y-74976190D01*
X132261904Y-74976190D01*
X133690476Y-74785714D02*
X133690476Y-75452380D01*
X133452380Y-74404761D02*
X133214285Y-75119047D01*
X133833333Y-75119047D01*
X185822380Y-64476666D02*
X185346190Y-64810000D01*
X185822380Y-65048095D02*
X184822380Y-65048095D01*
X184822380Y-64667142D01*
X184870000Y-64571904D01*
X184917619Y-64524285D01*
X185012857Y-64476666D01*
X185155714Y-64476666D01*
X185250952Y-64524285D01*
X185298571Y-64571904D01*
X185346190Y-64667142D01*
X185346190Y-65048095D01*
X184822380Y-64143333D02*
X184822380Y-63524285D01*
X185203333Y-63857619D01*
X185203333Y-63714761D01*
X185250952Y-63619523D01*
X185298571Y-63571904D01*
X185393809Y-63524285D01*
X185631904Y-63524285D01*
X185727142Y-63571904D01*
X185774761Y-63619523D01*
X185822380Y-63714761D01*
X185822380Y-64000476D01*
X185774761Y-64095714D01*
X185727142Y-64143333D01*
X179322380Y-64476666D02*
X178846190Y-64810000D01*
X179322380Y-65048095D02*
X178322380Y-65048095D01*
X178322380Y-64667142D01*
X178370000Y-64571904D01*
X178417619Y-64524285D01*
X178512857Y-64476666D01*
X178655714Y-64476666D01*
X178750952Y-64524285D01*
X178798571Y-64571904D01*
X178846190Y-64667142D01*
X178846190Y-65048095D01*
X178417619Y-64095714D02*
X178370000Y-64048095D01*
X178322380Y-63952857D01*
X178322380Y-63714761D01*
X178370000Y-63619523D01*
X178417619Y-63571904D01*
X178512857Y-63524285D01*
X178608095Y-63524285D01*
X178750952Y-63571904D01*
X179322380Y-64143333D01*
X179322380Y-63524285D01*
X108833333Y-45452380D02*
X108500000Y-44976190D01*
X108261904Y-45452380D02*
X108261904Y-44452380D01*
X108642857Y-44452380D01*
X108738095Y-44500000D01*
X108785714Y-44547619D01*
X108833333Y-44642857D01*
X108833333Y-44785714D01*
X108785714Y-44880952D01*
X108738095Y-44928571D01*
X108642857Y-44976190D01*
X108261904Y-44976190D01*
X109785714Y-45452380D02*
X109214285Y-45452380D01*
X109500000Y-45452380D02*
X109500000Y-44452380D01*
X109404761Y-44595238D01*
X109309523Y-44690476D01*
X109214285Y-44738095D01*
X189114761Y-65547619D02*
X189019523Y-65500000D01*
X188924285Y-65404761D01*
X188781428Y-65261904D01*
X188686190Y-65214285D01*
X188590952Y-65214285D01*
X188638571Y-65452380D02*
X188543333Y-65404761D01*
X188448095Y-65309523D01*
X188400476Y-65119047D01*
X188400476Y-64785714D01*
X188448095Y-64595238D01*
X188543333Y-64500000D01*
X188638571Y-64452380D01*
X188829047Y-64452380D01*
X188924285Y-64500000D01*
X189019523Y-64595238D01*
X189067142Y-64785714D01*
X189067142Y-65119047D01*
X189019523Y-65309523D01*
X188924285Y-65404761D01*
X188829047Y-65452380D01*
X188638571Y-65452380D01*
X189448095Y-64547619D02*
X189495714Y-64500000D01*
X189590952Y-64452380D01*
X189829047Y-64452380D01*
X189924285Y-64500000D01*
X189971904Y-64547619D01*
X190019523Y-64642857D01*
X190019523Y-64738095D01*
X189971904Y-64880952D01*
X189400476Y-65452380D01*
X190019523Y-65452380D01*
X170904761Y-65297619D02*
X170809523Y-65250000D01*
X170714285Y-65154761D01*
X170571428Y-65011904D01*
X170476190Y-64964285D01*
X170380952Y-64964285D01*
X170428571Y-65202380D02*
X170333333Y-65154761D01*
X170238095Y-65059523D01*
X170190476Y-64869047D01*
X170190476Y-64535714D01*
X170238095Y-64345238D01*
X170333333Y-64250000D01*
X170428571Y-64202380D01*
X170619047Y-64202380D01*
X170714285Y-64250000D01*
X170809523Y-64345238D01*
X170857142Y-64535714D01*
X170857142Y-64869047D01*
X170809523Y-65059523D01*
X170714285Y-65154761D01*
X170619047Y-65202380D01*
X170428571Y-65202380D01*
X171809523Y-65202380D02*
X171238095Y-65202380D01*
X171523809Y-65202380D02*
X171523809Y-64202380D01*
X171428571Y-64345238D01*
X171333333Y-64440476D01*
X171238095Y-64488095D01*
X147916666Y-98678571D02*
X147583333Y-98678571D01*
X147583333Y-99202380D02*
X147583333Y-98202380D01*
X148059523Y-98202380D01*
X148392857Y-98297619D02*
X148440476Y-98250000D01*
X148535714Y-98202380D01*
X148773809Y-98202380D01*
X148869047Y-98250000D01*
X148916666Y-98297619D01*
X148964285Y-98392857D01*
X148964285Y-98488095D01*
X148916666Y-98630952D01*
X148345238Y-99202380D01*
X148964285Y-99202380D01*
X101416666Y-98678571D02*
X101083333Y-98678571D01*
X101083333Y-99202380D02*
X101083333Y-98202380D01*
X101559523Y-98202380D01*
X102464285Y-99202380D02*
X101892857Y-99202380D01*
X102178571Y-99202380D02*
X102178571Y-98202380D01*
X102083333Y-98345238D01*
X101988095Y-98440476D01*
X101892857Y-98488095D01*
X134801904Y-88702380D02*
X134801904Y-87702380D01*
X135040000Y-87702380D01*
X135182857Y-87750000D01*
X135278095Y-87845238D01*
X135325714Y-87940476D01*
X135373333Y-88130952D01*
X135373333Y-88273809D01*
X135325714Y-88464285D01*
X135278095Y-88559523D01*
X135182857Y-88654761D01*
X135040000Y-88702380D01*
X134801904Y-88702380D01*
X136230476Y-88035714D02*
X136230476Y-88702380D01*
X135992380Y-87654761D02*
X135754285Y-88369047D01*
X136373333Y-88369047D01*
X188681904Y-98922380D02*
X188681904Y-97922380D01*
X188920000Y-97922380D01*
X189062857Y-97970000D01*
X189158095Y-98065238D01*
X189205714Y-98160476D01*
X189253333Y-98350952D01*
X189253333Y-98493809D01*
X189205714Y-98684285D01*
X189158095Y-98779523D01*
X189062857Y-98874761D01*
X188920000Y-98922380D01*
X188681904Y-98922380D01*
X189586666Y-97922380D02*
X190205714Y-97922380D01*
X189872380Y-98303333D01*
X190015238Y-98303333D01*
X190110476Y-98350952D01*
X190158095Y-98398571D01*
X190205714Y-98493809D01*
X190205714Y-98731904D01*
X190158095Y-98827142D01*
X190110476Y-98874761D01*
X190015238Y-98922380D01*
X189729523Y-98922380D01*
X189634285Y-98874761D01*
X189586666Y-98827142D01*
X169681904Y-98922380D02*
X169681904Y-97922380D01*
X169920000Y-97922380D01*
X170062857Y-97970000D01*
X170158095Y-98065238D01*
X170205714Y-98160476D01*
X170253333Y-98350952D01*
X170253333Y-98493809D01*
X170205714Y-98684285D01*
X170158095Y-98779523D01*
X170062857Y-98874761D01*
X169920000Y-98922380D01*
X169681904Y-98922380D01*
X170634285Y-98017619D02*
X170681904Y-97970000D01*
X170777142Y-97922380D01*
X171015238Y-97922380D01*
X171110476Y-97970000D01*
X171158095Y-98017619D01*
X171205714Y-98112857D01*
X171205714Y-98208095D01*
X171158095Y-98350952D01*
X170586666Y-98922380D01*
X171205714Y-98922380D01*
X176761904Y-42952380D02*
X176761904Y-41952380D01*
X177000000Y-41952380D01*
X177142857Y-42000000D01*
X177238095Y-42095238D01*
X177285714Y-42190476D01*
X177333333Y-42380952D01*
X177333333Y-42523809D01*
X177285714Y-42714285D01*
X177238095Y-42809523D01*
X177142857Y-42904761D01*
X177000000Y-42952380D01*
X176761904Y-42952380D01*
X178285714Y-42952380D02*
X177714285Y-42952380D01*
X178000000Y-42952380D02*
X178000000Y-41952380D01*
X177904761Y-42095238D01*
X177809523Y-42190476D01*
X177714285Y-42238095D01*
X112833333Y-65857142D02*
X112785714Y-65904761D01*
X112642857Y-65952380D01*
X112547619Y-65952380D01*
X112404761Y-65904761D01*
X112309523Y-65809523D01*
X112261904Y-65714285D01*
X112214285Y-65523809D01*
X112214285Y-65380952D01*
X112261904Y-65190476D01*
X112309523Y-65095238D01*
X112404761Y-65000000D01*
X112547619Y-64952380D01*
X112642857Y-64952380D01*
X112785714Y-65000000D01*
X112833333Y-65047619D01*
X113690476Y-64952380D02*
X113500000Y-64952380D01*
X113404761Y-65000000D01*
X113357142Y-65047619D01*
X113261904Y-65190476D01*
X113214285Y-65380952D01*
X113214285Y-65761904D01*
X113261904Y-65857142D01*
X113309523Y-65904761D01*
X113404761Y-65952380D01*
X113595238Y-65952380D01*
X113690476Y-65904761D01*
X113738095Y-65857142D01*
X113785714Y-65761904D01*
X113785714Y-65523809D01*
X113738095Y-65428571D01*
X113690476Y-65380952D01*
X113595238Y-65333333D01*
X113404761Y-65333333D01*
X113309523Y-65380952D01*
X113261904Y-65428571D01*
X113214285Y-65523809D01*
X103333333Y-65857142D02*
X103285714Y-65904761D01*
X103142857Y-65952380D01*
X103047619Y-65952380D01*
X102904761Y-65904761D01*
X102809523Y-65809523D01*
X102761904Y-65714285D01*
X102714285Y-65523809D01*
X102714285Y-65380952D01*
X102761904Y-65190476D01*
X102809523Y-65095238D01*
X102904761Y-65000000D01*
X103047619Y-64952380D01*
X103142857Y-64952380D01*
X103285714Y-65000000D01*
X103333333Y-65047619D01*
X104238095Y-64952380D02*
X103761904Y-64952380D01*
X103714285Y-65428571D01*
X103761904Y-65380952D01*
X103857142Y-65333333D01*
X104095238Y-65333333D01*
X104190476Y-65380952D01*
X104238095Y-65428571D01*
X104285714Y-65523809D01*
X104285714Y-65761904D01*
X104238095Y-65857142D01*
X104190476Y-65904761D01*
X104095238Y-65952380D01*
X103857142Y-65952380D01*
X103761904Y-65904761D01*
X103714285Y-65857142D01*
X121833333Y-65857142D02*
X121785714Y-65904761D01*
X121642857Y-65952380D01*
X121547619Y-65952380D01*
X121404761Y-65904761D01*
X121309523Y-65809523D01*
X121261904Y-65714285D01*
X121214285Y-65523809D01*
X121214285Y-65380952D01*
X121261904Y-65190476D01*
X121309523Y-65095238D01*
X121404761Y-65000000D01*
X121547619Y-64952380D01*
X121642857Y-64952380D01*
X121785714Y-65000000D01*
X121833333Y-65047619D01*
X122690476Y-65285714D02*
X122690476Y-65952380D01*
X122452380Y-64904761D02*
X122214285Y-65619047D01*
X122833333Y-65619047D01*
X156333333Y-66857142D02*
X156285714Y-66904761D01*
X156142857Y-66952380D01*
X156047619Y-66952380D01*
X155904761Y-66904761D01*
X155809523Y-66809523D01*
X155761904Y-66714285D01*
X155714285Y-66523809D01*
X155714285Y-66380952D01*
X155761904Y-66190476D01*
X155809523Y-66095238D01*
X155904761Y-66000000D01*
X156047619Y-65952380D01*
X156142857Y-65952380D01*
X156285714Y-66000000D01*
X156333333Y-66047619D01*
X156666666Y-65952380D02*
X157285714Y-65952380D01*
X156952380Y-66333333D01*
X157095238Y-66333333D01*
X157190476Y-66380952D01*
X157238095Y-66428571D01*
X157285714Y-66523809D01*
X157285714Y-66761904D01*
X157238095Y-66857142D01*
X157190476Y-66904761D01*
X157095238Y-66952380D01*
X156809523Y-66952380D01*
X156714285Y-66904761D01*
X156666666Y-66857142D01*
X144833333Y-66857142D02*
X144785714Y-66904761D01*
X144642857Y-66952380D01*
X144547619Y-66952380D01*
X144404761Y-66904761D01*
X144309523Y-66809523D01*
X144261904Y-66714285D01*
X144214285Y-66523809D01*
X144214285Y-66380952D01*
X144261904Y-66190476D01*
X144309523Y-66095238D01*
X144404761Y-66000000D01*
X144547619Y-65952380D01*
X144642857Y-65952380D01*
X144785714Y-66000000D01*
X144833333Y-66047619D01*
X145214285Y-66047619D02*
X145261904Y-66000000D01*
X145357142Y-65952380D01*
X145595238Y-65952380D01*
X145690476Y-66000000D01*
X145738095Y-66047619D01*
X145785714Y-66142857D01*
X145785714Y-66238095D01*
X145738095Y-66380952D01*
X145166666Y-66952380D01*
X145785714Y-66952380D01*
X117333333Y-80857142D02*
X117285714Y-80904761D01*
X117142857Y-80952380D01*
X117047619Y-80952380D01*
X116904761Y-80904761D01*
X116809523Y-80809523D01*
X116761904Y-80714285D01*
X116714285Y-80523809D01*
X116714285Y-80380952D01*
X116761904Y-80190476D01*
X116809523Y-80095238D01*
X116904761Y-80000000D01*
X117047619Y-79952380D01*
X117142857Y-79952380D01*
X117285714Y-80000000D01*
X117333333Y-80047619D01*
X118285714Y-80952380D02*
X117714285Y-80952380D01*
X118000000Y-80952380D02*
X118000000Y-79952380D01*
X117904761Y-80095238D01*
X117809523Y-80190476D01*
X117714285Y-80238095D01*
M02*
