M48
; DRILL file {KiCad (5.1.7)-1} date 10/30/20 11:23:00
; FORMAT={-:-/ absolute / inch / decimal}
; #@! TF.CreationDate,2020-10-30T11:23:00+01:00
; #@! TF.GenerationSoftware,Kicad,Pcbnew,(5.1.7)-1
; #@! TF.FileFunction,Plated,1,2,PTH
FMAT,2
INCH
T1C0.0217
T2C0.0315
T3C0.0354
T4C0.0394
T5C0.0433
T6C0.0472
T7C0.0512
T8C0.0598
T9C0.0630
T10C0.0787
%
G90
G05
T1
X7.4Y-2.6575
X7.45Y-2.6575
X7.5Y-2.6575
X6.6717Y-2.6575
X6.7217Y-2.6575
X6.7717Y-2.6575
T2
X6.9488Y-2.3819
X6.9488Y-2.6819
X5.3299Y-2.9528
X5.6299Y-2.9528
X5.3937Y-3.2283
X5.4937Y-3.2283
X5.5937Y-3.2283
X4.3701Y-1.7323
X4.6701Y-1.7323
X4.6457Y-3.7047
X4.9409Y-3.7756
X5.3299Y-2.7953
X5.6299Y-2.7953
X7.2047Y-2.3819
X7.2047Y-2.6819
T3
X5.4331Y-3.4646
X5.5331Y-3.4646
T4
X7.1925Y-2.185
X7.2925Y-2.185
X7.3925Y-2.185
X7.4925Y-2.185
X4.2913Y-1.5551
X4.3913Y-1.5551
X4.4913Y-1.5551
X4.7835Y-1.5551
X4.8835Y-1.5551
X4.9835Y-1.5551
T5
X7.2575Y-3.7795
X7.6575Y-3.7795
X6.5094Y-3.7795
X6.9094Y-3.7795
T6
X4.7953Y-2.8622
X4.7953Y-3.4528
X4.4488Y-1.8898
X4.4488Y-2.4803
X4.8031Y-1.8898
X4.8031Y-2.4803
X4.0945Y-1.8898
X4.0945Y-2.4803
T7
X6.4764Y-3.0039
X6.4764Y-3.4843
X6.7126Y-3.563
X6.9488Y-3.0039
X6.9488Y-3.4843
X4.1339Y-2.8642
X4.1339Y-3.75
X7.2047Y-3.0039
X7.2047Y-3.4843
X7.4409Y-3.563
X7.6772Y-3.0039
X7.6772Y-3.4843
X5.9449Y-2.8642
X5.9449Y-3.75
T8
X6.1163Y-4.1535
X6.3163Y-4.1535
X4.9143Y-4.1535
X5.1143Y-4.1535
X5.4289Y-4.1535
X5.6289Y-4.1535
X4.3996Y-4.1535
X4.5996Y-4.1535
X7.1457Y-4.1535
X7.3457Y-4.1535
X6.631Y-4.1535
X6.831Y-4.1535
T9
X6.4591Y-1.5354
X6.5591Y-1.5354
X6.8622Y-1.5354
X7.1654Y-1.5354
X7.4685Y-1.5354
T10
X5.4921Y-1.9882
X5.4921Y-2.3819
X6.3976Y-1.9882
X6.3976Y-2.3819
T0
M30
