G04 #@! TF.GenerationSoftware,KiCad,Pcbnew,(5.1.7)-1*
G04 #@! TF.CreationDate,2020-11-03T19:28:51+01:00*
G04 #@! TF.ProjectId,PSU,5053552e-6b69-4636-9164-5f7063625858,rev?*
G04 #@! TF.SameCoordinates,Original*
G04 #@! TF.FileFunction,Soldermask,Top*
G04 #@! TF.FilePolarity,Negative*
%FSLAX46Y46*%
G04 Gerber Fmt 4.6, Leading zero omitted, Abs format (unit mm)*
G04 Created by KiCad (PCBNEW (5.1.7)-1) date 2020-11-03 19:28:51*
%MOMM*%
%LPD*%
G01*
G04 APERTURE LIST*
%ADD10O,1.000000X1.800000*%
%ADD11O,1.600000X1.600000*%
%ADD12C,1.600000*%
%ADD13R,1.000000X1.500000*%
%ADD14O,1.000000X1.500000*%
%ADD15O,2.200000X1.700000*%
%ADD16R,2.200000X1.700000*%
%ADD17C,2.000000*%
%ADD18R,2.000000X2.000000*%
%ADD19R,1.600000X1.600000*%
%ADD20C,3.200000*%
%ADD21C,1.440000*%
%ADD22C,1.800000*%
%ADD23C,2.300000*%
%ADD24R,2.300000X2.300000*%
%ADD25C,3.000000*%
%ADD26R,3.000000X3.000000*%
%ADD27R,1.800000X1.800000*%
%ADD28O,2.200000X2.200000*%
%ADD29R,2.200000X2.200000*%
%ADD30R,3.200000X3.200000*%
%ADD31C,4.000000*%
%ADD32R,4.000000X4.000000*%
%ADD33C,2.400000*%
G04 APERTURE END LIST*
D10*
X156710000Y-39000000D03*
X157980000Y-39000000D03*
X159250000Y-39000000D03*
D11*
X113600000Y-58780000D03*
D12*
X113600000Y-66400000D03*
D13*
X106600000Y-65000000D03*
D14*
X104060000Y-65000000D03*
X105330000Y-65000000D03*
D15*
X104000000Y-58130000D03*
D16*
X104000000Y-60670000D03*
D17*
X125580000Y-39500000D03*
X123040000Y-39500000D03*
D18*
X120500000Y-39500000D03*
D11*
X192870000Y-45500000D03*
D12*
X185250000Y-45500000D03*
D15*
X194250000Y-51770000D03*
D16*
X194250000Y-49230000D03*
D15*
X194250000Y-62810000D03*
X194250000Y-60270000D03*
X194250000Y-57730000D03*
D16*
X194250000Y-55190000D03*
D12*
X106000000Y-46000000D03*
X101000000Y-46000000D03*
X103250000Y-53750000D03*
D19*
X103250000Y-51750000D03*
D12*
X115750000Y-46000000D03*
X110750000Y-46000000D03*
X125500000Y-46000000D03*
X120500000Y-46000000D03*
X111500000Y-53750000D03*
D19*
X111500000Y-51750000D03*
D12*
X119750000Y-53750000D03*
D19*
X119750000Y-51750000D03*
D12*
X146500000Y-46000000D03*
X151500000Y-46000000D03*
D17*
X114080000Y-39500000D03*
X111540000Y-39500000D03*
D18*
X109000000Y-39500000D03*
D20*
X195500000Y-110000000D03*
X195500000Y-40500000D03*
X102500000Y-40400000D03*
X102500000Y-110000000D03*
D17*
X151500000Y-39500000D03*
X148960000Y-39500000D03*
D18*
X146420000Y-39500000D03*
D21*
X142080000Y-82000000D03*
X139540000Y-82000000D03*
X137000000Y-82000000D03*
D22*
X125500000Y-95900000D03*
X118000000Y-94100000D03*
D23*
X183000000Y-76300000D03*
X195000000Y-76300000D03*
X183000000Y-88500000D03*
X195000000Y-88500000D03*
D24*
X189000000Y-90500000D03*
D23*
X164500000Y-76300000D03*
X176500000Y-76300000D03*
X164500000Y-88500000D03*
X176500000Y-88500000D03*
D24*
X170500000Y-90500000D03*
D11*
X135380000Y-71000000D03*
D12*
X143000000Y-71000000D03*
D11*
X135380000Y-75000000D03*
D12*
X143000000Y-75000000D03*
D11*
X183000000Y-68120000D03*
D12*
X183000000Y-60500000D03*
D11*
X176500000Y-68120000D03*
D12*
X176500000Y-60500000D03*
D11*
X139870000Y-41800000D03*
D12*
X132250000Y-41800000D03*
D13*
X190500000Y-67500000D03*
D14*
X187960000Y-67500000D03*
X189230000Y-67500000D03*
D13*
X172000000Y-67500000D03*
D14*
X169460000Y-67500000D03*
X170730000Y-67500000D03*
D25*
X186580000Y-105500000D03*
D26*
X181500000Y-105500000D03*
D25*
X173507379Y-105500000D03*
D26*
X168427379Y-105500000D03*
D25*
X129902619Y-105500000D03*
D26*
X124822619Y-105500000D03*
D25*
X116830000Y-105500000D03*
D26*
X111750000Y-105500000D03*
D25*
X142975238Y-105500000D03*
D26*
X137895238Y-105500000D03*
D25*
X160434760Y-105500000D03*
D26*
X155354760Y-105500000D03*
D25*
X151000000Y-95250000D03*
X151000000Y-72750000D03*
X105000000Y-95250000D03*
X105000000Y-72750000D03*
D22*
X140540000Y-88000000D03*
D27*
X138000000Y-88000000D03*
D28*
X184340000Y-96000000D03*
D29*
X194500000Y-96000000D03*
D28*
X165340000Y-96000000D03*
D29*
X175500000Y-96000000D03*
D30*
X166600000Y-39000000D03*
D20*
X174300000Y-39000000D03*
X182000000Y-39000000D03*
X189700000Y-39000000D03*
D30*
X164060000Y-39000000D03*
D31*
X162500000Y-60500000D03*
D32*
X162500000Y-50500000D03*
D31*
X135500000Y-60500000D03*
D32*
X135500000Y-50500000D03*
D33*
X121800000Y-87700000D03*
X121800000Y-72700000D03*
M02*
