M48
; DRILL file {KiCad (5.1.7)-1} date 10/28/20 10:47:33
; FORMAT={-:-/ absolute / inch / decimal}
; #@! TF.CreationDate,2020-10-28T10:47:33+01:00
; #@! TF.GenerationSoftware,Kicad,Pcbnew,(5.1.7)-1
; #@! TF.FileFunction,Plated,1,2,PTH
FMAT,2
INCH
T1C0.0315
T2C0.0354
T3C0.0787
%
G90
G05
T1
X2.4081Y-3.4449
X2.7081Y-3.4449
X3.8976Y-3.2579
X4.1976Y-3.2579
X4.3898Y-3.4449
X4.6898Y-3.4449
X3.399Y-3.4449
X3.699Y-3.4449
X0.9252Y-3.2579
X1.2252Y-3.2579
X2.9068Y-3.2579
X3.2068Y-3.2579
X1.916Y-3.2579
X2.216Y-3.2579
X1.4173Y-3.4449
X1.7173Y-3.4449
T2
X1.0728Y-1.9832
X1.0728Y-2.0832
X4.5177Y-5.1165
X4.5177Y-5.2165
X1.0728Y-4.9394
X1.0728Y-5.0394
X4.0256Y-3.954
X4.0256Y-4.054
X3.5335Y-2.1638
X3.5335Y-2.2638
X1.0728Y-3.954
X1.0728Y-4.054
X2.0571Y-3.4613
X2.0571Y-3.5613
X1.565Y-4.6244
X1.565Y-4.7244
X2.5492Y-4.1323
X2.5492Y-4.2323
X1.565Y-3.6402
X1.565Y-3.7402
X1.0728Y-2.9686
X1.0728Y-3.0686
X4.5177Y-4.6244
X4.5177Y-4.7244
X4.0256Y-2.9686
X4.0256Y-3.0686
X3.0413Y-4.4467
X3.0413Y-4.5467
X2.0571Y-2.9686
X2.0571Y-3.0686
X2.5492Y-1.6717
X2.5492Y-1.7717
X4.5177Y-4.1323
X4.5177Y-4.2323
X4.0256Y-2.4759
X4.0256Y-2.5759
X3.0413Y-4.9394
X3.0413Y-5.0394
X1.565Y-3.148
X1.565Y-3.248
X1.0728Y-3.4613
X1.0728Y-3.5613
X4.5177Y-2.6559
X4.5177Y-2.7559
X3.5335Y-5.1165
X3.5335Y-5.2165
X2.5492Y-2.6559
X2.5492Y-2.7559
X3.0413Y-1.4906
X3.0413Y-1.5906
X4.5177Y-3.148
X4.5177Y-3.248
X4.5177Y-3.6402
X4.5177Y-3.7402
X4.0256Y-1.9832
X4.0256Y-2.0832
X2.5492Y-3.6402
X2.5492Y-3.7402
X1.0728Y-1.4906
X1.0728Y-1.5906
X4.5177Y-2.1638
X4.5177Y-2.2638
X4.0256Y-1.4906
X4.0256Y-1.5906
X3.0413Y-3.4613
X3.0413Y-3.5613
X2.5492Y-5.1165
X2.5492Y-5.2165
X3.5335Y-3.148
X3.5335Y-3.248
X3.0413Y-2.4759
X3.0413Y-2.5759
X3.5335Y-1.6717
X3.5335Y-1.7717
X2.0571Y-4.4467
X2.0571Y-4.5467
X1.565Y-2.6559
X1.565Y-2.7559
X4.5177Y-1.6717
X4.5177Y-1.7717
X1.0728Y-2.4759
X1.0728Y-2.5759
X3.5335Y-4.6244
X3.5335Y-4.7244
X3.0413Y-2.9686
X3.0413Y-3.0686
X2.0571Y-2.4759
X2.0571Y-2.5759
X3.5335Y-2.6559
X3.5335Y-2.7559
X1.565Y-5.1165
X1.565Y-5.2165
X3.0413Y-3.954
X3.0413Y-4.054
X1.565Y-1.6717
X1.565Y-1.7717
X1.565Y-2.1638
X1.565Y-2.2638
X4.0256Y-4.9394
X4.0256Y-5.0394
X3.5335Y-4.1323
X3.5335Y-4.2323
X2.0571Y-4.9394
X2.0571Y-5.0394
X2.5492Y-2.1638
X2.5492Y-2.2638
X2.5492Y-4.6244
X2.5492Y-4.7244
X4.0256Y-3.4613
X4.0256Y-3.5613
X2.5492Y-3.148
X2.5492Y-3.248
X1.0728Y-4.4467
X1.0728Y-4.5467
X4.0256Y-4.4467
X4.0256Y-4.5467
X3.5335Y-3.6402
X3.5335Y-3.7402
X3.0413Y-1.9832
X3.0413Y-2.0832
X2.0571Y-1.9832
X2.0571Y-2.0832
X2.0571Y-3.954
X2.0571Y-4.054
X2.0571Y-1.4906
X2.0571Y-1.5906
X1.565Y-4.1323
X1.565Y-4.2323
T3
X2.7756Y-1.4764
X2.7953Y-5.2165
T0
M30
