G04 #@! TF.GenerationSoftware,KiCad,Pcbnew,(5.1.7)-1*
G04 #@! TF.CreationDate,2020-10-28T10:47:30+01:00*
G04 #@! TF.ProjectId,LED_Panel,4c45445f-5061-46e6-956c-2e6b69636164,rev?*
G04 #@! TF.SameCoordinates,Original*
G04 #@! TF.FileFunction,Legend,Top*
G04 #@! TF.FilePolarity,Positive*
%FSLAX46Y46*%
G04 Gerber Fmt 4.6, Leading zero omitted, Abs format (unit mm)*
G04 Created by KiCad (PCBNEW (5.1.7)-1) date 2020-10-28 10:47:30*
%MOMM*%
%LPD*%
G01*
G04 APERTURE LIST*
%ADD10C,0.150000*%
%ADD11C,0.120000*%
G04 APERTURE END LIST*
D10*
X74238095Y-132000000D02*
X74142857Y-131952380D01*
X74000000Y-131952380D01*
X73857142Y-132000000D01*
X73761904Y-132095238D01*
X73714285Y-132190476D01*
X73666666Y-132380952D01*
X73666666Y-132523809D01*
X73714285Y-132714285D01*
X73761904Y-132809523D01*
X73857142Y-132904761D01*
X74000000Y-132952380D01*
X74095238Y-132952380D01*
X74238095Y-132904761D01*
X74285714Y-132857142D01*
X74285714Y-132523809D01*
X74095238Y-132523809D01*
X74714285Y-132952380D02*
X74714285Y-131952380D01*
X75285714Y-132952380D01*
X75285714Y-131952380D01*
X75761904Y-132952380D02*
X75761904Y-131952380D01*
X76000000Y-131952380D01*
X76142857Y-132000000D01*
X76238095Y-132095238D01*
X76285714Y-132190476D01*
X76333333Y-132380952D01*
X76333333Y-132523809D01*
X76285714Y-132714285D01*
X76238095Y-132809523D01*
X76142857Y-132904761D01*
X76000000Y-132952380D01*
X75761904Y-132952380D01*
X61988095Y-36571428D02*
X62750000Y-36571428D01*
X62369047Y-36952380D02*
X62369047Y-36190476D01*
X63130952Y-35952380D02*
X63750000Y-35952380D01*
X63416666Y-36333333D01*
X63559523Y-36333333D01*
X63654761Y-36380952D01*
X63702380Y-36428571D01*
X63750000Y-36523809D01*
X63750000Y-36761904D01*
X63702380Y-36857142D01*
X63654761Y-36904761D01*
X63559523Y-36952380D01*
X63273809Y-36952380D01*
X63178571Y-36904761D01*
X63130952Y-36857142D01*
X64369047Y-35952380D02*
X64464285Y-35952380D01*
X64559523Y-36000000D01*
X64607142Y-36047619D01*
X64654761Y-36142857D01*
X64702380Y-36333333D01*
X64702380Y-36571428D01*
X64654761Y-36761904D01*
X64607142Y-36857142D01*
X64559523Y-36904761D01*
X64464285Y-36952380D01*
X64369047Y-36952380D01*
X64273809Y-36904761D01*
X64226190Y-36857142D01*
X64178571Y-36761904D01*
X64130952Y-36571428D01*
X64130952Y-36333333D01*
X64178571Y-36142857D01*
X64226190Y-36047619D01*
X64273809Y-36000000D01*
X64369047Y-35952380D01*
X64988095Y-35952380D02*
X65321428Y-36952380D01*
X65654761Y-35952380D01*
X65988095Y-36952380D02*
X65988095Y-35952380D01*
X66226190Y-35952380D01*
X66369047Y-36000000D01*
X66464285Y-36095238D01*
X66511904Y-36190476D01*
X66559523Y-36380952D01*
X66559523Y-36523809D01*
X66511904Y-36714285D01*
X66464285Y-36809523D01*
X66369047Y-36904761D01*
X66226190Y-36952380D01*
X65988095Y-36952380D01*
X67559523Y-36857142D02*
X67511904Y-36904761D01*
X67369047Y-36952380D01*
X67273809Y-36952380D01*
X67130952Y-36904761D01*
X67035714Y-36809523D01*
X66988095Y-36714285D01*
X66940476Y-36523809D01*
X66940476Y-36380952D01*
X66988095Y-36190476D01*
X67035714Y-36095238D01*
X67130952Y-36000000D01*
X67273809Y-35952380D01*
X67369047Y-35952380D01*
X67511904Y-36000000D01*
X67559523Y-36047619D01*
D11*
X72600000Y-37500000D02*
G75*
G03*
X72600000Y-37500000I-2100000J0D01*
G01*
X73100000Y-132500000D02*
G75*
G03*
X73100000Y-132500000I-2100000J0D01*
G01*
X112040000Y-86460000D02*
X112040000Y-86130000D01*
X112040000Y-86130000D02*
X118580000Y-86130000D01*
X118580000Y-86130000D02*
X118580000Y-86460000D01*
X112040000Y-88540000D02*
X112040000Y-88870000D01*
X112040000Y-88870000D02*
X118580000Y-88870000D01*
X118580000Y-88870000D02*
X118580000Y-88540000D01*
X99540000Y-81710000D02*
X99540000Y-81380000D01*
X99540000Y-81380000D02*
X106080000Y-81380000D01*
X106080000Y-81380000D02*
X106080000Y-81710000D01*
X99540000Y-83790000D02*
X99540000Y-84120000D01*
X99540000Y-84120000D02*
X106080000Y-84120000D01*
X106080000Y-84120000D02*
X106080000Y-83790000D01*
X86873332Y-86460000D02*
X86873332Y-86130000D01*
X86873332Y-86130000D02*
X93413332Y-86130000D01*
X93413332Y-86130000D02*
X93413332Y-86460000D01*
X86873332Y-88540000D02*
X86873332Y-88870000D01*
X86873332Y-88870000D02*
X93413332Y-88870000D01*
X93413332Y-88870000D02*
X93413332Y-88540000D01*
X74373332Y-81710000D02*
X74373332Y-81380000D01*
X74373332Y-81380000D02*
X80913332Y-81380000D01*
X80913332Y-81380000D02*
X80913332Y-81710000D01*
X74373332Y-83790000D02*
X74373332Y-84120000D01*
X74373332Y-84120000D02*
X80913332Y-84120000D01*
X80913332Y-84120000D02*
X80913332Y-83790000D01*
X61706666Y-86460000D02*
X61706666Y-86130000D01*
X61706666Y-86130000D02*
X68246666Y-86130000D01*
X68246666Y-86130000D02*
X68246666Y-86460000D01*
X61706666Y-88540000D02*
X61706666Y-88870000D01*
X61706666Y-88870000D02*
X68246666Y-88870000D01*
X68246666Y-88870000D02*
X68246666Y-88540000D01*
X49206666Y-81710000D02*
X49206666Y-81380000D01*
X49206666Y-81380000D02*
X55746666Y-81380000D01*
X55746666Y-81380000D02*
X55746666Y-81710000D01*
X49206666Y-83790000D02*
X49206666Y-84120000D01*
X49206666Y-84120000D02*
X55746666Y-84120000D01*
X55746666Y-84120000D02*
X55746666Y-83790000D01*
X36540000Y-86460000D02*
X36540000Y-86130000D01*
X36540000Y-86130000D02*
X43080000Y-86130000D01*
X43080000Y-86130000D02*
X43080000Y-86460000D01*
X36540000Y-88540000D02*
X36540000Y-88870000D01*
X36540000Y-88870000D02*
X43080000Y-88870000D01*
X43080000Y-88870000D02*
X43080000Y-88540000D01*
X24040000Y-81710000D02*
X24040000Y-81380000D01*
X24040000Y-81380000D02*
X30580000Y-81380000D01*
X30580000Y-81380000D02*
X30580000Y-81710000D01*
X24040000Y-83790000D02*
X24040000Y-84120000D01*
X24040000Y-84120000D02*
X30580000Y-84120000D01*
X30580000Y-84120000D02*
X30580000Y-83790000D01*
X114749538Y-128240000D02*
G75*
G02*
X116294830Y-133790000I462J-2990000D01*
G01*
X114750462Y-128240000D02*
G75*
G03*
X113205170Y-133790000I-462J-2990000D01*
G01*
X113205000Y-133790000D02*
X116295000Y-133790000D01*
X117250000Y-131230000D02*
G75*
G03*
X117250000Y-131230000I-2500000J0D01*
G01*
X114749538Y-115740000D02*
G75*
G02*
X116294830Y-121290000I462J-2990000D01*
G01*
X114750462Y-115740000D02*
G75*
G03*
X113205170Y-121290000I-462J-2990000D01*
G01*
X113205000Y-121290000D02*
X116295000Y-121290000D01*
X117250000Y-118730000D02*
G75*
G03*
X117250000Y-118730000I-2500000J0D01*
G01*
X114749538Y-103240000D02*
G75*
G02*
X116294830Y-108790000I462J-2990000D01*
G01*
X114750462Y-103240000D02*
G75*
G03*
X113205170Y-108790000I-462J-2990000D01*
G01*
X113205000Y-108790000D02*
X116295000Y-108790000D01*
X117250000Y-106230000D02*
G75*
G03*
X117250000Y-106230000I-2500000J0D01*
G01*
X114749538Y-90740000D02*
G75*
G02*
X116294830Y-96290000I462J-2990000D01*
G01*
X114750462Y-90740000D02*
G75*
G03*
X113205170Y-96290000I-462J-2990000D01*
G01*
X113205000Y-96290000D02*
X116295000Y-96290000D01*
X117250000Y-93730000D02*
G75*
G03*
X117250000Y-93730000I-2500000J0D01*
G01*
X114749538Y-78240000D02*
G75*
G02*
X116294830Y-83790000I462J-2990000D01*
G01*
X114750462Y-78240000D02*
G75*
G03*
X113205170Y-83790000I-462J-2990000D01*
G01*
X113205000Y-83790000D02*
X116295000Y-83790000D01*
X117250000Y-81230000D02*
G75*
G03*
X117250000Y-81230000I-2500000J0D01*
G01*
X114749538Y-65740000D02*
G75*
G02*
X116294830Y-71290000I462J-2990000D01*
G01*
X114750462Y-65740000D02*
G75*
G03*
X113205170Y-71290000I-462J-2990000D01*
G01*
X113205000Y-71290000D02*
X116295000Y-71290000D01*
X117250000Y-68730000D02*
G75*
G03*
X117250000Y-68730000I-2500000J0D01*
G01*
X114749538Y-53240000D02*
G75*
G02*
X116294830Y-58790000I462J-2990000D01*
G01*
X114750462Y-53240000D02*
G75*
G03*
X113205170Y-58790000I-462J-2990000D01*
G01*
X113205000Y-58790000D02*
X116295000Y-58790000D01*
X117250000Y-56230000D02*
G75*
G03*
X117250000Y-56230000I-2500000J0D01*
G01*
X114749538Y-40740000D02*
G75*
G02*
X116294830Y-46290000I462J-2990000D01*
G01*
X114750462Y-40740000D02*
G75*
G03*
X113205170Y-46290000I-462J-2990000D01*
G01*
X113205000Y-46290000D02*
X116295000Y-46290000D01*
X117250000Y-43730000D02*
G75*
G03*
X117250000Y-43730000I-2500000J0D01*
G01*
X102249538Y-123740000D02*
G75*
G02*
X103794830Y-129290000I462J-2990000D01*
G01*
X102250462Y-123740000D02*
G75*
G03*
X100705170Y-129290000I-462J-2990000D01*
G01*
X100705000Y-129290000D02*
X103795000Y-129290000D01*
X104750000Y-126730000D02*
G75*
G03*
X104750000Y-126730000I-2500000J0D01*
G01*
X102249538Y-111225710D02*
G75*
G02*
X103794830Y-116775710I462J-2990000D01*
G01*
X102250462Y-111225710D02*
G75*
G03*
X100705170Y-116775710I-462J-2990000D01*
G01*
X100705000Y-116775710D02*
X103795000Y-116775710D01*
X104750000Y-114215710D02*
G75*
G03*
X104750000Y-114215710I-2500000J0D01*
G01*
X102249538Y-98711425D02*
G75*
G02*
X103794830Y-104261425I462J-2990000D01*
G01*
X102250462Y-98711425D02*
G75*
G03*
X100705170Y-104261425I-462J-2990000D01*
G01*
X100705000Y-104261425D02*
X103795000Y-104261425D01*
X104750000Y-101701425D02*
G75*
G03*
X104750000Y-101701425I-2500000J0D01*
G01*
X102249538Y-86197140D02*
G75*
G02*
X103794830Y-91747140I462J-2990000D01*
G01*
X102250462Y-86197140D02*
G75*
G03*
X100705170Y-91747140I-462J-2990000D01*
G01*
X100705000Y-91747140D02*
X103795000Y-91747140D01*
X104750000Y-89187140D02*
G75*
G03*
X104750000Y-89187140I-2500000J0D01*
G01*
X102249538Y-73682855D02*
G75*
G02*
X103794830Y-79232855I462J-2990000D01*
G01*
X102250462Y-73682855D02*
G75*
G03*
X100705170Y-79232855I-462J-2990000D01*
G01*
X100705000Y-79232855D02*
X103795000Y-79232855D01*
X104750000Y-76672855D02*
G75*
G03*
X104750000Y-76672855I-2500000J0D01*
G01*
X102249538Y-61168570D02*
G75*
G02*
X103794830Y-66718570I462J-2990000D01*
G01*
X102250462Y-61168570D02*
G75*
G03*
X100705170Y-66718570I-462J-2990000D01*
G01*
X100705000Y-66718570D02*
X103795000Y-66718570D01*
X104750000Y-64158570D02*
G75*
G03*
X104750000Y-64158570I-2500000J0D01*
G01*
X102249538Y-48654285D02*
G75*
G02*
X103794830Y-54204285I462J-2990000D01*
G01*
X102250462Y-48654285D02*
G75*
G03*
X100705170Y-54204285I-462J-2990000D01*
G01*
X100705000Y-54204285D02*
X103795000Y-54204285D01*
X104750000Y-51644285D02*
G75*
G03*
X104750000Y-51644285I-2500000J0D01*
G01*
X102249538Y-36140000D02*
G75*
G02*
X103794830Y-41690000I462J-2990000D01*
G01*
X102250462Y-36140000D02*
G75*
G03*
X100705170Y-41690000I-462J-2990000D01*
G01*
X100705000Y-41690000D02*
X103795000Y-41690000D01*
X104750000Y-39130000D02*
G75*
G03*
X104750000Y-39130000I-2500000J0D01*
G01*
X89749538Y-128240000D02*
G75*
G02*
X91294830Y-133790000I462J-2990000D01*
G01*
X89750462Y-128240000D02*
G75*
G03*
X88205170Y-133790000I-462J-2990000D01*
G01*
X88205000Y-133790000D02*
X91295000Y-133790000D01*
X92250000Y-131230000D02*
G75*
G03*
X92250000Y-131230000I-2500000J0D01*
G01*
X89749538Y-115740000D02*
G75*
G02*
X91294830Y-121290000I462J-2990000D01*
G01*
X89750462Y-115740000D02*
G75*
G03*
X88205170Y-121290000I-462J-2990000D01*
G01*
X88205000Y-121290000D02*
X91295000Y-121290000D01*
X92250000Y-118730000D02*
G75*
G03*
X92250000Y-118730000I-2500000J0D01*
G01*
X89749538Y-103240000D02*
G75*
G02*
X91294830Y-108790000I462J-2990000D01*
G01*
X89750462Y-103240000D02*
G75*
G03*
X88205170Y-108790000I-462J-2990000D01*
G01*
X88205000Y-108790000D02*
X91295000Y-108790000D01*
X92250000Y-106230000D02*
G75*
G03*
X92250000Y-106230000I-2500000J0D01*
G01*
X89749538Y-90740000D02*
G75*
G02*
X91294830Y-96290000I462J-2990000D01*
G01*
X89750462Y-90740000D02*
G75*
G03*
X88205170Y-96290000I-462J-2990000D01*
G01*
X88205000Y-96290000D02*
X91295000Y-96290000D01*
X92250000Y-93730000D02*
G75*
G03*
X92250000Y-93730000I-2500000J0D01*
G01*
X89749538Y-78240000D02*
G75*
G02*
X91294830Y-83790000I462J-2990000D01*
G01*
X89750462Y-78240000D02*
G75*
G03*
X88205170Y-83790000I-462J-2990000D01*
G01*
X88205000Y-83790000D02*
X91295000Y-83790000D01*
X92250000Y-81230000D02*
G75*
G03*
X92250000Y-81230000I-2500000J0D01*
G01*
X89749538Y-65740000D02*
G75*
G02*
X91294830Y-71290000I462J-2990000D01*
G01*
X89750462Y-65740000D02*
G75*
G03*
X88205170Y-71290000I-462J-2990000D01*
G01*
X88205000Y-71290000D02*
X91295000Y-71290000D01*
X92250000Y-68730000D02*
G75*
G03*
X92250000Y-68730000I-2500000J0D01*
G01*
X89749538Y-53240000D02*
G75*
G02*
X91294830Y-58790000I462J-2990000D01*
G01*
X89750462Y-53240000D02*
G75*
G03*
X88205170Y-58790000I-462J-2990000D01*
G01*
X88205000Y-58790000D02*
X91295000Y-58790000D01*
X92250000Y-56230000D02*
G75*
G03*
X92250000Y-56230000I-2500000J0D01*
G01*
X89749538Y-40740000D02*
G75*
G02*
X91294830Y-46290000I462J-2990000D01*
G01*
X89750462Y-40740000D02*
G75*
G03*
X88205170Y-46290000I-462J-2990000D01*
G01*
X88205000Y-46290000D02*
X91295000Y-46290000D01*
X92250000Y-43730000D02*
G75*
G03*
X92250000Y-43730000I-2500000J0D01*
G01*
X77249538Y-123740000D02*
G75*
G02*
X78794830Y-129290000I462J-2990000D01*
G01*
X77250462Y-123740000D02*
G75*
G03*
X75705170Y-129290000I-462J-2990000D01*
G01*
X75705000Y-129290000D02*
X78795000Y-129290000D01*
X79750000Y-126730000D02*
G75*
G03*
X79750000Y-126730000I-2500000J0D01*
G01*
X77249538Y-111225710D02*
G75*
G02*
X78794830Y-116775710I462J-2990000D01*
G01*
X77250462Y-111225710D02*
G75*
G03*
X75705170Y-116775710I-462J-2990000D01*
G01*
X75705000Y-116775710D02*
X78795000Y-116775710D01*
X79750000Y-114215710D02*
G75*
G03*
X79750000Y-114215710I-2500000J0D01*
G01*
X77249538Y-98711425D02*
G75*
G02*
X78794830Y-104261425I462J-2990000D01*
G01*
X77250462Y-98711425D02*
G75*
G03*
X75705170Y-104261425I-462J-2990000D01*
G01*
X75705000Y-104261425D02*
X78795000Y-104261425D01*
X79750000Y-101701425D02*
G75*
G03*
X79750000Y-101701425I-2500000J0D01*
G01*
X77249538Y-86197140D02*
G75*
G02*
X78794830Y-91747140I462J-2990000D01*
G01*
X77250462Y-86197140D02*
G75*
G03*
X75705170Y-91747140I-462J-2990000D01*
G01*
X75705000Y-91747140D02*
X78795000Y-91747140D01*
X79750000Y-89187140D02*
G75*
G03*
X79750000Y-89187140I-2500000J0D01*
G01*
X77249538Y-73682855D02*
G75*
G02*
X78794830Y-79232855I462J-2990000D01*
G01*
X77250462Y-73682855D02*
G75*
G03*
X75705170Y-79232855I-462J-2990000D01*
G01*
X75705000Y-79232855D02*
X78795000Y-79232855D01*
X79750000Y-76672855D02*
G75*
G03*
X79750000Y-76672855I-2500000J0D01*
G01*
X77249538Y-61168570D02*
G75*
G02*
X78794830Y-66718570I462J-2990000D01*
G01*
X77250462Y-61168570D02*
G75*
G03*
X75705170Y-66718570I-462J-2990000D01*
G01*
X75705000Y-66718570D02*
X78795000Y-66718570D01*
X79750000Y-64158570D02*
G75*
G03*
X79750000Y-64158570I-2500000J0D01*
G01*
X77249538Y-48654285D02*
G75*
G02*
X78794830Y-54204285I462J-2990000D01*
G01*
X77250462Y-48654285D02*
G75*
G03*
X75705170Y-54204285I-462J-2990000D01*
G01*
X75705000Y-54204285D02*
X78795000Y-54204285D01*
X79750000Y-51644285D02*
G75*
G03*
X79750000Y-51644285I-2500000J0D01*
G01*
X77249538Y-36140000D02*
G75*
G02*
X78794830Y-41690000I462J-2990000D01*
G01*
X77250462Y-36140000D02*
G75*
G03*
X75705170Y-41690000I-462J-2990000D01*
G01*
X75705000Y-41690000D02*
X78795000Y-41690000D01*
X79750000Y-39130000D02*
G75*
G03*
X79750000Y-39130000I-2500000J0D01*
G01*
X64749538Y-128240000D02*
G75*
G02*
X66294830Y-133790000I462J-2990000D01*
G01*
X64750462Y-128240000D02*
G75*
G03*
X63205170Y-133790000I-462J-2990000D01*
G01*
X63205000Y-133790000D02*
X66295000Y-133790000D01*
X67250000Y-131230000D02*
G75*
G03*
X67250000Y-131230000I-2500000J0D01*
G01*
X64749538Y-115740000D02*
G75*
G02*
X66294830Y-121290000I462J-2990000D01*
G01*
X64750462Y-115740000D02*
G75*
G03*
X63205170Y-121290000I-462J-2990000D01*
G01*
X63205000Y-121290000D02*
X66295000Y-121290000D01*
X67250000Y-118730000D02*
G75*
G03*
X67250000Y-118730000I-2500000J0D01*
G01*
X64749538Y-103240000D02*
G75*
G02*
X66294830Y-108790000I462J-2990000D01*
G01*
X64750462Y-103240000D02*
G75*
G03*
X63205170Y-108790000I-462J-2990000D01*
G01*
X63205000Y-108790000D02*
X66295000Y-108790000D01*
X67250000Y-106230000D02*
G75*
G03*
X67250000Y-106230000I-2500000J0D01*
G01*
X64749538Y-90740000D02*
G75*
G02*
X66294830Y-96290000I462J-2990000D01*
G01*
X64750462Y-90740000D02*
G75*
G03*
X63205170Y-96290000I-462J-2990000D01*
G01*
X63205000Y-96290000D02*
X66295000Y-96290000D01*
X67250000Y-93730000D02*
G75*
G03*
X67250000Y-93730000I-2500000J0D01*
G01*
X64749538Y-78240000D02*
G75*
G02*
X66294830Y-83790000I462J-2990000D01*
G01*
X64750462Y-78240000D02*
G75*
G03*
X63205170Y-83790000I-462J-2990000D01*
G01*
X63205000Y-83790000D02*
X66295000Y-83790000D01*
X67250000Y-81230000D02*
G75*
G03*
X67250000Y-81230000I-2500000J0D01*
G01*
X64749538Y-65740000D02*
G75*
G02*
X66294830Y-71290000I462J-2990000D01*
G01*
X64750462Y-65740000D02*
G75*
G03*
X63205170Y-71290000I-462J-2990000D01*
G01*
X63205000Y-71290000D02*
X66295000Y-71290000D01*
X67250000Y-68730000D02*
G75*
G03*
X67250000Y-68730000I-2500000J0D01*
G01*
X64749538Y-53240000D02*
G75*
G02*
X66294830Y-58790000I462J-2990000D01*
G01*
X64750462Y-53240000D02*
G75*
G03*
X63205170Y-58790000I-462J-2990000D01*
G01*
X63205000Y-58790000D02*
X66295000Y-58790000D01*
X67250000Y-56230000D02*
G75*
G03*
X67250000Y-56230000I-2500000J0D01*
G01*
X64749538Y-40740000D02*
G75*
G02*
X66294830Y-46290000I462J-2990000D01*
G01*
X64750462Y-40740000D02*
G75*
G03*
X63205170Y-46290000I-462J-2990000D01*
G01*
X63205000Y-46290000D02*
X66295000Y-46290000D01*
X67250000Y-43730000D02*
G75*
G03*
X67250000Y-43730000I-2500000J0D01*
G01*
X52249538Y-123740000D02*
G75*
G02*
X53794830Y-129290000I462J-2990000D01*
G01*
X52250462Y-123740000D02*
G75*
G03*
X50705170Y-129290000I-462J-2990000D01*
G01*
X50705000Y-129290000D02*
X53795000Y-129290000D01*
X54750000Y-126730000D02*
G75*
G03*
X54750000Y-126730000I-2500000J0D01*
G01*
X52249538Y-111225710D02*
G75*
G02*
X53794830Y-116775710I462J-2990000D01*
G01*
X52250462Y-111225710D02*
G75*
G03*
X50705170Y-116775710I-462J-2990000D01*
G01*
X50705000Y-116775710D02*
X53795000Y-116775710D01*
X54750000Y-114215710D02*
G75*
G03*
X54750000Y-114215710I-2500000J0D01*
G01*
X52249538Y-98711425D02*
G75*
G02*
X53794830Y-104261425I462J-2990000D01*
G01*
X52250462Y-98711425D02*
G75*
G03*
X50705170Y-104261425I-462J-2990000D01*
G01*
X50705000Y-104261425D02*
X53795000Y-104261425D01*
X54750000Y-101701425D02*
G75*
G03*
X54750000Y-101701425I-2500000J0D01*
G01*
X52249538Y-86197140D02*
G75*
G02*
X53794830Y-91747140I462J-2990000D01*
G01*
X52250462Y-86197140D02*
G75*
G03*
X50705170Y-91747140I-462J-2990000D01*
G01*
X50705000Y-91747140D02*
X53795000Y-91747140D01*
X54750000Y-89187140D02*
G75*
G03*
X54750000Y-89187140I-2500000J0D01*
G01*
X52249538Y-73682855D02*
G75*
G02*
X53794830Y-79232855I462J-2990000D01*
G01*
X52250462Y-73682855D02*
G75*
G03*
X50705170Y-79232855I-462J-2990000D01*
G01*
X50705000Y-79232855D02*
X53795000Y-79232855D01*
X54750000Y-76672855D02*
G75*
G03*
X54750000Y-76672855I-2500000J0D01*
G01*
X52249538Y-61168570D02*
G75*
G02*
X53794830Y-66718570I462J-2990000D01*
G01*
X52250462Y-61168570D02*
G75*
G03*
X50705170Y-66718570I-462J-2990000D01*
G01*
X50705000Y-66718570D02*
X53795000Y-66718570D01*
X54750000Y-64158570D02*
G75*
G03*
X54750000Y-64158570I-2500000J0D01*
G01*
X52249538Y-48654285D02*
G75*
G02*
X53794830Y-54204285I462J-2990000D01*
G01*
X52250462Y-48654285D02*
G75*
G03*
X50705170Y-54204285I-462J-2990000D01*
G01*
X50705000Y-54204285D02*
X53795000Y-54204285D01*
X54750000Y-51644285D02*
G75*
G03*
X54750000Y-51644285I-2500000J0D01*
G01*
X52249538Y-36140000D02*
G75*
G02*
X53794830Y-41690000I462J-2990000D01*
G01*
X52250462Y-36140000D02*
G75*
G03*
X50705170Y-41690000I-462J-2990000D01*
G01*
X50705000Y-41690000D02*
X53795000Y-41690000D01*
X54750000Y-39130000D02*
G75*
G03*
X54750000Y-39130000I-2500000J0D01*
G01*
X39749538Y-128240000D02*
G75*
G02*
X41294830Y-133790000I462J-2990000D01*
G01*
X39750462Y-128240000D02*
G75*
G03*
X38205170Y-133790000I-462J-2990000D01*
G01*
X38205000Y-133790000D02*
X41295000Y-133790000D01*
X42250000Y-131230000D02*
G75*
G03*
X42250000Y-131230000I-2500000J0D01*
G01*
X39749538Y-115740000D02*
G75*
G02*
X41294830Y-121290000I462J-2990000D01*
G01*
X39750462Y-115740000D02*
G75*
G03*
X38205170Y-121290000I-462J-2990000D01*
G01*
X38205000Y-121290000D02*
X41295000Y-121290000D01*
X42250000Y-118730000D02*
G75*
G03*
X42250000Y-118730000I-2500000J0D01*
G01*
X39749538Y-103240000D02*
G75*
G02*
X41294830Y-108790000I462J-2990000D01*
G01*
X39750462Y-103240000D02*
G75*
G03*
X38205170Y-108790000I-462J-2990000D01*
G01*
X38205000Y-108790000D02*
X41295000Y-108790000D01*
X42250000Y-106230000D02*
G75*
G03*
X42250000Y-106230000I-2500000J0D01*
G01*
X39749538Y-90740000D02*
G75*
G02*
X41294830Y-96290000I462J-2990000D01*
G01*
X39750462Y-90740000D02*
G75*
G03*
X38205170Y-96290000I-462J-2990000D01*
G01*
X38205000Y-96290000D02*
X41295000Y-96290000D01*
X42250000Y-93730000D02*
G75*
G03*
X42250000Y-93730000I-2500000J0D01*
G01*
X39749538Y-78240000D02*
G75*
G02*
X41294830Y-83790000I462J-2990000D01*
G01*
X39750462Y-78240000D02*
G75*
G03*
X38205170Y-83790000I-462J-2990000D01*
G01*
X38205000Y-83790000D02*
X41295000Y-83790000D01*
X42250000Y-81230000D02*
G75*
G03*
X42250000Y-81230000I-2500000J0D01*
G01*
X39749538Y-65740000D02*
G75*
G02*
X41294830Y-71290000I462J-2990000D01*
G01*
X39750462Y-65740000D02*
G75*
G03*
X38205170Y-71290000I-462J-2990000D01*
G01*
X38205000Y-71290000D02*
X41295000Y-71290000D01*
X42250000Y-68730000D02*
G75*
G03*
X42250000Y-68730000I-2500000J0D01*
G01*
X39749538Y-53240000D02*
G75*
G02*
X41294830Y-58790000I462J-2990000D01*
G01*
X39750462Y-53240000D02*
G75*
G03*
X38205170Y-58790000I-462J-2990000D01*
G01*
X38205000Y-58790000D02*
X41295000Y-58790000D01*
X42250000Y-56230000D02*
G75*
G03*
X42250000Y-56230000I-2500000J0D01*
G01*
X39749538Y-40740000D02*
G75*
G02*
X41294830Y-46290000I462J-2990000D01*
G01*
X39750462Y-40740000D02*
G75*
G03*
X38205170Y-46290000I-462J-2990000D01*
G01*
X38205000Y-46290000D02*
X41295000Y-46290000D01*
X42250000Y-43730000D02*
G75*
G03*
X42250000Y-43730000I-2500000J0D01*
G01*
X27249538Y-123740000D02*
G75*
G02*
X28794830Y-129290000I462J-2990000D01*
G01*
X27250462Y-123740000D02*
G75*
G03*
X25705170Y-129290000I-462J-2990000D01*
G01*
X25705000Y-129290000D02*
X28795000Y-129290000D01*
X29750000Y-126730000D02*
G75*
G03*
X29750000Y-126730000I-2500000J0D01*
G01*
X27249538Y-111225710D02*
G75*
G02*
X28794830Y-116775710I462J-2990000D01*
G01*
X27250462Y-111225710D02*
G75*
G03*
X25705170Y-116775710I-462J-2990000D01*
G01*
X25705000Y-116775710D02*
X28795000Y-116775710D01*
X29750000Y-114215710D02*
G75*
G03*
X29750000Y-114215710I-2500000J0D01*
G01*
X27249538Y-98711425D02*
G75*
G02*
X28794830Y-104261425I462J-2990000D01*
G01*
X27250462Y-98711425D02*
G75*
G03*
X25705170Y-104261425I-462J-2990000D01*
G01*
X25705000Y-104261425D02*
X28795000Y-104261425D01*
X29750000Y-101701425D02*
G75*
G03*
X29750000Y-101701425I-2500000J0D01*
G01*
X27249538Y-86197140D02*
G75*
G02*
X28794830Y-91747140I462J-2990000D01*
G01*
X27250462Y-86197140D02*
G75*
G03*
X25705170Y-91747140I-462J-2990000D01*
G01*
X25705000Y-91747140D02*
X28795000Y-91747140D01*
X29750000Y-89187140D02*
G75*
G03*
X29750000Y-89187140I-2500000J0D01*
G01*
X27249538Y-73682855D02*
G75*
G02*
X28794830Y-79232855I462J-2990000D01*
G01*
X27250462Y-73682855D02*
G75*
G03*
X25705170Y-79232855I-462J-2990000D01*
G01*
X25705000Y-79232855D02*
X28795000Y-79232855D01*
X29750000Y-76672855D02*
G75*
G03*
X29750000Y-76672855I-2500000J0D01*
G01*
X27249538Y-61168570D02*
G75*
G02*
X28794830Y-66718570I462J-2990000D01*
G01*
X27250462Y-61168570D02*
G75*
G03*
X25705170Y-66718570I-462J-2990000D01*
G01*
X25705000Y-66718570D02*
X28795000Y-66718570D01*
X29750000Y-64158570D02*
G75*
G03*
X29750000Y-64158570I-2500000J0D01*
G01*
X27249538Y-48654285D02*
G75*
G02*
X28794830Y-54204285I462J-2990000D01*
G01*
X27250462Y-48654285D02*
G75*
G03*
X25705170Y-54204285I-462J-2990000D01*
G01*
X25705000Y-54204285D02*
X28795000Y-54204285D01*
X29750000Y-51644285D02*
G75*
G03*
X29750000Y-51644285I-2500000J0D01*
G01*
X27249538Y-36140000D02*
G75*
G02*
X28794830Y-41690000I462J-2990000D01*
G01*
X27250462Y-36140000D02*
G75*
G03*
X25705170Y-41690000I-462J-2990000D01*
G01*
X25705000Y-41690000D02*
X28795000Y-41690000D01*
X29750000Y-39130000D02*
G75*
G03*
X29750000Y-39130000I-2500000J0D01*
G01*
D10*
X115143333Y-85582380D02*
X114810000Y-85106190D01*
X114571904Y-85582380D02*
X114571904Y-84582380D01*
X114952857Y-84582380D01*
X115048095Y-84630000D01*
X115095714Y-84677619D01*
X115143333Y-84772857D01*
X115143333Y-84915714D01*
X115095714Y-85010952D01*
X115048095Y-85058571D01*
X114952857Y-85106190D01*
X114571904Y-85106190D01*
X115714761Y-85010952D02*
X115619523Y-84963333D01*
X115571904Y-84915714D01*
X115524285Y-84820476D01*
X115524285Y-84772857D01*
X115571904Y-84677619D01*
X115619523Y-84630000D01*
X115714761Y-84582380D01*
X115905238Y-84582380D01*
X116000476Y-84630000D01*
X116048095Y-84677619D01*
X116095714Y-84772857D01*
X116095714Y-84820476D01*
X116048095Y-84915714D01*
X116000476Y-84963333D01*
X115905238Y-85010952D01*
X115714761Y-85010952D01*
X115619523Y-85058571D01*
X115571904Y-85106190D01*
X115524285Y-85201428D01*
X115524285Y-85391904D01*
X115571904Y-85487142D01*
X115619523Y-85534761D01*
X115714761Y-85582380D01*
X115905238Y-85582380D01*
X116000476Y-85534761D01*
X116048095Y-85487142D01*
X116095714Y-85391904D01*
X116095714Y-85201428D01*
X116048095Y-85106190D01*
X116000476Y-85058571D01*
X115905238Y-85010952D01*
X102643333Y-80832380D02*
X102310000Y-80356190D01*
X102071904Y-80832380D02*
X102071904Y-79832380D01*
X102452857Y-79832380D01*
X102548095Y-79880000D01*
X102595714Y-79927619D01*
X102643333Y-80022857D01*
X102643333Y-80165714D01*
X102595714Y-80260952D01*
X102548095Y-80308571D01*
X102452857Y-80356190D01*
X102071904Y-80356190D01*
X102976666Y-79832380D02*
X103643333Y-79832380D01*
X103214761Y-80832380D01*
X89976665Y-85582380D02*
X89643332Y-85106190D01*
X89405236Y-85582380D02*
X89405236Y-84582380D01*
X89786189Y-84582380D01*
X89881427Y-84630000D01*
X89929046Y-84677619D01*
X89976665Y-84772857D01*
X89976665Y-84915714D01*
X89929046Y-85010952D01*
X89881427Y-85058571D01*
X89786189Y-85106190D01*
X89405236Y-85106190D01*
X90833808Y-84582380D02*
X90643332Y-84582380D01*
X90548093Y-84630000D01*
X90500474Y-84677619D01*
X90405236Y-84820476D01*
X90357617Y-85010952D01*
X90357617Y-85391904D01*
X90405236Y-85487142D01*
X90452855Y-85534761D01*
X90548093Y-85582380D01*
X90738570Y-85582380D01*
X90833808Y-85534761D01*
X90881427Y-85487142D01*
X90929046Y-85391904D01*
X90929046Y-85153809D01*
X90881427Y-85058571D01*
X90833808Y-85010952D01*
X90738570Y-84963333D01*
X90548093Y-84963333D01*
X90452855Y-85010952D01*
X90405236Y-85058571D01*
X90357617Y-85153809D01*
X77476665Y-80832380D02*
X77143332Y-80356190D01*
X76905236Y-80832380D02*
X76905236Y-79832380D01*
X77286189Y-79832380D01*
X77381427Y-79880000D01*
X77429046Y-79927619D01*
X77476665Y-80022857D01*
X77476665Y-80165714D01*
X77429046Y-80260952D01*
X77381427Y-80308571D01*
X77286189Y-80356190D01*
X76905236Y-80356190D01*
X78381427Y-79832380D02*
X77905236Y-79832380D01*
X77857617Y-80308571D01*
X77905236Y-80260952D01*
X78000474Y-80213333D01*
X78238570Y-80213333D01*
X78333808Y-80260952D01*
X78381427Y-80308571D01*
X78429046Y-80403809D01*
X78429046Y-80641904D01*
X78381427Y-80737142D01*
X78333808Y-80784761D01*
X78238570Y-80832380D01*
X78000474Y-80832380D01*
X77905236Y-80784761D01*
X77857617Y-80737142D01*
X64809999Y-85582380D02*
X64476666Y-85106190D01*
X64238570Y-85582380D02*
X64238570Y-84582380D01*
X64619523Y-84582380D01*
X64714761Y-84630000D01*
X64762380Y-84677619D01*
X64809999Y-84772857D01*
X64809999Y-84915714D01*
X64762380Y-85010952D01*
X64714761Y-85058571D01*
X64619523Y-85106190D01*
X64238570Y-85106190D01*
X65667142Y-84915714D02*
X65667142Y-85582380D01*
X65429046Y-84534761D02*
X65190951Y-85249047D01*
X65809999Y-85249047D01*
X52309999Y-80832380D02*
X51976666Y-80356190D01*
X51738570Y-80832380D02*
X51738570Y-79832380D01*
X52119523Y-79832380D01*
X52214761Y-79880000D01*
X52262380Y-79927619D01*
X52309999Y-80022857D01*
X52309999Y-80165714D01*
X52262380Y-80260952D01*
X52214761Y-80308571D01*
X52119523Y-80356190D01*
X51738570Y-80356190D01*
X52643332Y-79832380D02*
X53262380Y-79832380D01*
X52929046Y-80213333D01*
X53071904Y-80213333D01*
X53167142Y-80260952D01*
X53214761Y-80308571D01*
X53262380Y-80403809D01*
X53262380Y-80641904D01*
X53214761Y-80737142D01*
X53167142Y-80784761D01*
X53071904Y-80832380D01*
X52786189Y-80832380D01*
X52690951Y-80784761D01*
X52643332Y-80737142D01*
X39643333Y-85582380D02*
X39310000Y-85106190D01*
X39071904Y-85582380D02*
X39071904Y-84582380D01*
X39452857Y-84582380D01*
X39548095Y-84630000D01*
X39595714Y-84677619D01*
X39643333Y-84772857D01*
X39643333Y-84915714D01*
X39595714Y-85010952D01*
X39548095Y-85058571D01*
X39452857Y-85106190D01*
X39071904Y-85106190D01*
X40024285Y-84677619D02*
X40071904Y-84630000D01*
X40167142Y-84582380D01*
X40405238Y-84582380D01*
X40500476Y-84630000D01*
X40548095Y-84677619D01*
X40595714Y-84772857D01*
X40595714Y-84868095D01*
X40548095Y-85010952D01*
X39976666Y-85582380D01*
X40595714Y-85582380D01*
X27143333Y-80832380D02*
X26810000Y-80356190D01*
X26571904Y-80832380D02*
X26571904Y-79832380D01*
X26952857Y-79832380D01*
X27048095Y-79880000D01*
X27095714Y-79927619D01*
X27143333Y-80022857D01*
X27143333Y-80165714D01*
X27095714Y-80260952D01*
X27048095Y-80308571D01*
X26952857Y-80356190D01*
X26571904Y-80356190D01*
X28095714Y-80832380D02*
X27524285Y-80832380D01*
X27810000Y-80832380D02*
X27810000Y-79832380D01*
X27714761Y-79975238D01*
X27619523Y-80070476D01*
X27524285Y-80118095D01*
X111242380Y-132444285D02*
X110242380Y-132444285D01*
X110242380Y-132206190D01*
X110290000Y-132063333D01*
X110385238Y-131968095D01*
X110480476Y-131920476D01*
X110670952Y-131872857D01*
X110813809Y-131872857D01*
X111004285Y-131920476D01*
X111099523Y-131968095D01*
X111194761Y-132063333D01*
X111242380Y-132206190D01*
X111242380Y-132444285D01*
X110242380Y-131015714D02*
X110242380Y-131206190D01*
X110290000Y-131301428D01*
X110337619Y-131349047D01*
X110480476Y-131444285D01*
X110670952Y-131491904D01*
X111051904Y-131491904D01*
X111147142Y-131444285D01*
X111194761Y-131396666D01*
X111242380Y-131301428D01*
X111242380Y-131110952D01*
X111194761Y-131015714D01*
X111147142Y-130968095D01*
X111051904Y-130920476D01*
X110813809Y-130920476D01*
X110718571Y-130968095D01*
X110670952Y-131015714D01*
X110623333Y-131110952D01*
X110623333Y-131301428D01*
X110670952Y-131396666D01*
X110718571Y-131444285D01*
X110813809Y-131491904D01*
X110575714Y-130063333D02*
X111242380Y-130063333D01*
X110194761Y-130301428D02*
X110909047Y-130539523D01*
X110909047Y-129920476D01*
X111242380Y-119944285D02*
X110242380Y-119944285D01*
X110242380Y-119706190D01*
X110290000Y-119563333D01*
X110385238Y-119468095D01*
X110480476Y-119420476D01*
X110670952Y-119372857D01*
X110813809Y-119372857D01*
X111004285Y-119420476D01*
X111099523Y-119468095D01*
X111194761Y-119563333D01*
X111242380Y-119706190D01*
X111242380Y-119944285D01*
X110242380Y-118515714D02*
X110242380Y-118706190D01*
X110290000Y-118801428D01*
X110337619Y-118849047D01*
X110480476Y-118944285D01*
X110670952Y-118991904D01*
X111051904Y-118991904D01*
X111147142Y-118944285D01*
X111194761Y-118896666D01*
X111242380Y-118801428D01*
X111242380Y-118610952D01*
X111194761Y-118515714D01*
X111147142Y-118468095D01*
X111051904Y-118420476D01*
X110813809Y-118420476D01*
X110718571Y-118468095D01*
X110670952Y-118515714D01*
X110623333Y-118610952D01*
X110623333Y-118801428D01*
X110670952Y-118896666D01*
X110718571Y-118944285D01*
X110813809Y-118991904D01*
X110242380Y-118087142D02*
X110242380Y-117468095D01*
X110623333Y-117801428D01*
X110623333Y-117658571D01*
X110670952Y-117563333D01*
X110718571Y-117515714D01*
X110813809Y-117468095D01*
X111051904Y-117468095D01*
X111147142Y-117515714D01*
X111194761Y-117563333D01*
X111242380Y-117658571D01*
X111242380Y-117944285D01*
X111194761Y-118039523D01*
X111147142Y-118087142D01*
X111242380Y-107444285D02*
X110242380Y-107444285D01*
X110242380Y-107206190D01*
X110290000Y-107063333D01*
X110385238Y-106968095D01*
X110480476Y-106920476D01*
X110670952Y-106872857D01*
X110813809Y-106872857D01*
X111004285Y-106920476D01*
X111099523Y-106968095D01*
X111194761Y-107063333D01*
X111242380Y-107206190D01*
X111242380Y-107444285D01*
X110242380Y-106015714D02*
X110242380Y-106206190D01*
X110290000Y-106301428D01*
X110337619Y-106349047D01*
X110480476Y-106444285D01*
X110670952Y-106491904D01*
X111051904Y-106491904D01*
X111147142Y-106444285D01*
X111194761Y-106396666D01*
X111242380Y-106301428D01*
X111242380Y-106110952D01*
X111194761Y-106015714D01*
X111147142Y-105968095D01*
X111051904Y-105920476D01*
X110813809Y-105920476D01*
X110718571Y-105968095D01*
X110670952Y-106015714D01*
X110623333Y-106110952D01*
X110623333Y-106301428D01*
X110670952Y-106396666D01*
X110718571Y-106444285D01*
X110813809Y-106491904D01*
X110337619Y-105539523D02*
X110290000Y-105491904D01*
X110242380Y-105396666D01*
X110242380Y-105158571D01*
X110290000Y-105063333D01*
X110337619Y-105015714D01*
X110432857Y-104968095D01*
X110528095Y-104968095D01*
X110670952Y-105015714D01*
X111242380Y-105587142D01*
X111242380Y-104968095D01*
X111242380Y-94944285D02*
X110242380Y-94944285D01*
X110242380Y-94706190D01*
X110290000Y-94563333D01*
X110385238Y-94468095D01*
X110480476Y-94420476D01*
X110670952Y-94372857D01*
X110813809Y-94372857D01*
X111004285Y-94420476D01*
X111099523Y-94468095D01*
X111194761Y-94563333D01*
X111242380Y-94706190D01*
X111242380Y-94944285D01*
X110242380Y-93515714D02*
X110242380Y-93706190D01*
X110290000Y-93801428D01*
X110337619Y-93849047D01*
X110480476Y-93944285D01*
X110670952Y-93991904D01*
X111051904Y-93991904D01*
X111147142Y-93944285D01*
X111194761Y-93896666D01*
X111242380Y-93801428D01*
X111242380Y-93610952D01*
X111194761Y-93515714D01*
X111147142Y-93468095D01*
X111051904Y-93420476D01*
X110813809Y-93420476D01*
X110718571Y-93468095D01*
X110670952Y-93515714D01*
X110623333Y-93610952D01*
X110623333Y-93801428D01*
X110670952Y-93896666D01*
X110718571Y-93944285D01*
X110813809Y-93991904D01*
X111242380Y-92468095D02*
X111242380Y-93039523D01*
X111242380Y-92753809D02*
X110242380Y-92753809D01*
X110385238Y-92849047D01*
X110480476Y-92944285D01*
X110528095Y-93039523D01*
X111242380Y-82444285D02*
X110242380Y-82444285D01*
X110242380Y-82206190D01*
X110290000Y-82063333D01*
X110385238Y-81968095D01*
X110480476Y-81920476D01*
X110670952Y-81872857D01*
X110813809Y-81872857D01*
X111004285Y-81920476D01*
X111099523Y-81968095D01*
X111194761Y-82063333D01*
X111242380Y-82206190D01*
X111242380Y-82444285D01*
X110242380Y-81015714D02*
X110242380Y-81206190D01*
X110290000Y-81301428D01*
X110337619Y-81349047D01*
X110480476Y-81444285D01*
X110670952Y-81491904D01*
X111051904Y-81491904D01*
X111147142Y-81444285D01*
X111194761Y-81396666D01*
X111242380Y-81301428D01*
X111242380Y-81110952D01*
X111194761Y-81015714D01*
X111147142Y-80968095D01*
X111051904Y-80920476D01*
X110813809Y-80920476D01*
X110718571Y-80968095D01*
X110670952Y-81015714D01*
X110623333Y-81110952D01*
X110623333Y-81301428D01*
X110670952Y-81396666D01*
X110718571Y-81444285D01*
X110813809Y-81491904D01*
X110242380Y-80301428D02*
X110242380Y-80206190D01*
X110290000Y-80110952D01*
X110337619Y-80063333D01*
X110432857Y-80015714D01*
X110623333Y-79968095D01*
X110861428Y-79968095D01*
X111051904Y-80015714D01*
X111147142Y-80063333D01*
X111194761Y-80110952D01*
X111242380Y-80206190D01*
X111242380Y-80301428D01*
X111194761Y-80396666D01*
X111147142Y-80444285D01*
X111051904Y-80491904D01*
X110861428Y-80539523D01*
X110623333Y-80539523D01*
X110432857Y-80491904D01*
X110337619Y-80444285D01*
X110290000Y-80396666D01*
X110242380Y-80301428D01*
X111242380Y-69944285D02*
X110242380Y-69944285D01*
X110242380Y-69706190D01*
X110290000Y-69563333D01*
X110385238Y-69468095D01*
X110480476Y-69420476D01*
X110670952Y-69372857D01*
X110813809Y-69372857D01*
X111004285Y-69420476D01*
X111099523Y-69468095D01*
X111194761Y-69563333D01*
X111242380Y-69706190D01*
X111242380Y-69944285D01*
X110242380Y-68468095D02*
X110242380Y-68944285D01*
X110718571Y-68991904D01*
X110670952Y-68944285D01*
X110623333Y-68849047D01*
X110623333Y-68610952D01*
X110670952Y-68515714D01*
X110718571Y-68468095D01*
X110813809Y-68420476D01*
X111051904Y-68420476D01*
X111147142Y-68468095D01*
X111194761Y-68515714D01*
X111242380Y-68610952D01*
X111242380Y-68849047D01*
X111194761Y-68944285D01*
X111147142Y-68991904D01*
X111242380Y-67944285D02*
X111242380Y-67753809D01*
X111194761Y-67658571D01*
X111147142Y-67610952D01*
X111004285Y-67515714D01*
X110813809Y-67468095D01*
X110432857Y-67468095D01*
X110337619Y-67515714D01*
X110290000Y-67563333D01*
X110242380Y-67658571D01*
X110242380Y-67849047D01*
X110290000Y-67944285D01*
X110337619Y-67991904D01*
X110432857Y-68039523D01*
X110670952Y-68039523D01*
X110766190Y-67991904D01*
X110813809Y-67944285D01*
X110861428Y-67849047D01*
X110861428Y-67658571D01*
X110813809Y-67563333D01*
X110766190Y-67515714D01*
X110670952Y-67468095D01*
X111242380Y-57444285D02*
X110242380Y-57444285D01*
X110242380Y-57206190D01*
X110290000Y-57063333D01*
X110385238Y-56968095D01*
X110480476Y-56920476D01*
X110670952Y-56872857D01*
X110813809Y-56872857D01*
X111004285Y-56920476D01*
X111099523Y-56968095D01*
X111194761Y-57063333D01*
X111242380Y-57206190D01*
X111242380Y-57444285D01*
X110242380Y-55968095D02*
X110242380Y-56444285D01*
X110718571Y-56491904D01*
X110670952Y-56444285D01*
X110623333Y-56349047D01*
X110623333Y-56110952D01*
X110670952Y-56015714D01*
X110718571Y-55968095D01*
X110813809Y-55920476D01*
X111051904Y-55920476D01*
X111147142Y-55968095D01*
X111194761Y-56015714D01*
X111242380Y-56110952D01*
X111242380Y-56349047D01*
X111194761Y-56444285D01*
X111147142Y-56491904D01*
X110670952Y-55349047D02*
X110623333Y-55444285D01*
X110575714Y-55491904D01*
X110480476Y-55539523D01*
X110432857Y-55539523D01*
X110337619Y-55491904D01*
X110290000Y-55444285D01*
X110242380Y-55349047D01*
X110242380Y-55158571D01*
X110290000Y-55063333D01*
X110337619Y-55015714D01*
X110432857Y-54968095D01*
X110480476Y-54968095D01*
X110575714Y-55015714D01*
X110623333Y-55063333D01*
X110670952Y-55158571D01*
X110670952Y-55349047D01*
X110718571Y-55444285D01*
X110766190Y-55491904D01*
X110861428Y-55539523D01*
X111051904Y-55539523D01*
X111147142Y-55491904D01*
X111194761Y-55444285D01*
X111242380Y-55349047D01*
X111242380Y-55158571D01*
X111194761Y-55063333D01*
X111147142Y-55015714D01*
X111051904Y-54968095D01*
X110861428Y-54968095D01*
X110766190Y-55015714D01*
X110718571Y-55063333D01*
X110670952Y-55158571D01*
X111242380Y-44944285D02*
X110242380Y-44944285D01*
X110242380Y-44706190D01*
X110290000Y-44563333D01*
X110385238Y-44468095D01*
X110480476Y-44420476D01*
X110670952Y-44372857D01*
X110813809Y-44372857D01*
X111004285Y-44420476D01*
X111099523Y-44468095D01*
X111194761Y-44563333D01*
X111242380Y-44706190D01*
X111242380Y-44944285D01*
X110242380Y-43468095D02*
X110242380Y-43944285D01*
X110718571Y-43991904D01*
X110670952Y-43944285D01*
X110623333Y-43849047D01*
X110623333Y-43610952D01*
X110670952Y-43515714D01*
X110718571Y-43468095D01*
X110813809Y-43420476D01*
X111051904Y-43420476D01*
X111147142Y-43468095D01*
X111194761Y-43515714D01*
X111242380Y-43610952D01*
X111242380Y-43849047D01*
X111194761Y-43944285D01*
X111147142Y-43991904D01*
X110242380Y-43087142D02*
X110242380Y-42420476D01*
X111242380Y-42849047D01*
X98742380Y-127944285D02*
X97742380Y-127944285D01*
X97742380Y-127706190D01*
X97790000Y-127563333D01*
X97885238Y-127468095D01*
X97980476Y-127420476D01*
X98170952Y-127372857D01*
X98313809Y-127372857D01*
X98504285Y-127420476D01*
X98599523Y-127468095D01*
X98694761Y-127563333D01*
X98742380Y-127706190D01*
X98742380Y-127944285D01*
X97742380Y-126468095D02*
X97742380Y-126944285D01*
X98218571Y-126991904D01*
X98170952Y-126944285D01*
X98123333Y-126849047D01*
X98123333Y-126610952D01*
X98170952Y-126515714D01*
X98218571Y-126468095D01*
X98313809Y-126420476D01*
X98551904Y-126420476D01*
X98647142Y-126468095D01*
X98694761Y-126515714D01*
X98742380Y-126610952D01*
X98742380Y-126849047D01*
X98694761Y-126944285D01*
X98647142Y-126991904D01*
X97742380Y-125563333D02*
X97742380Y-125753809D01*
X97790000Y-125849047D01*
X97837619Y-125896666D01*
X97980476Y-125991904D01*
X98170952Y-126039523D01*
X98551904Y-126039523D01*
X98647142Y-125991904D01*
X98694761Y-125944285D01*
X98742380Y-125849047D01*
X98742380Y-125658571D01*
X98694761Y-125563333D01*
X98647142Y-125515714D01*
X98551904Y-125468095D01*
X98313809Y-125468095D01*
X98218571Y-125515714D01*
X98170952Y-125563333D01*
X98123333Y-125658571D01*
X98123333Y-125849047D01*
X98170952Y-125944285D01*
X98218571Y-125991904D01*
X98313809Y-126039523D01*
X98742380Y-115429995D02*
X97742380Y-115429995D01*
X97742380Y-115191900D01*
X97790000Y-115049043D01*
X97885238Y-114953805D01*
X97980476Y-114906186D01*
X98170952Y-114858567D01*
X98313809Y-114858567D01*
X98504285Y-114906186D01*
X98599523Y-114953805D01*
X98694761Y-115049043D01*
X98742380Y-115191900D01*
X98742380Y-115429995D01*
X97742380Y-113953805D02*
X97742380Y-114429995D01*
X98218571Y-114477614D01*
X98170952Y-114429995D01*
X98123333Y-114334757D01*
X98123333Y-114096662D01*
X98170952Y-114001424D01*
X98218571Y-113953805D01*
X98313809Y-113906186D01*
X98551904Y-113906186D01*
X98647142Y-113953805D01*
X98694761Y-114001424D01*
X98742380Y-114096662D01*
X98742380Y-114334757D01*
X98694761Y-114429995D01*
X98647142Y-114477614D01*
X97742380Y-113001424D02*
X97742380Y-113477614D01*
X98218571Y-113525233D01*
X98170952Y-113477614D01*
X98123333Y-113382376D01*
X98123333Y-113144281D01*
X98170952Y-113049043D01*
X98218571Y-113001424D01*
X98313809Y-112953805D01*
X98551904Y-112953805D01*
X98647142Y-113001424D01*
X98694761Y-113049043D01*
X98742380Y-113144281D01*
X98742380Y-113382376D01*
X98694761Y-113477614D01*
X98647142Y-113525233D01*
X98742380Y-102915710D02*
X97742380Y-102915710D01*
X97742380Y-102677615D01*
X97790000Y-102534758D01*
X97885238Y-102439520D01*
X97980476Y-102391901D01*
X98170952Y-102344282D01*
X98313809Y-102344282D01*
X98504285Y-102391901D01*
X98599523Y-102439520D01*
X98694761Y-102534758D01*
X98742380Y-102677615D01*
X98742380Y-102915710D01*
X97742380Y-101439520D02*
X97742380Y-101915710D01*
X98218571Y-101963329D01*
X98170952Y-101915710D01*
X98123333Y-101820472D01*
X98123333Y-101582377D01*
X98170952Y-101487139D01*
X98218571Y-101439520D01*
X98313809Y-101391901D01*
X98551904Y-101391901D01*
X98647142Y-101439520D01*
X98694761Y-101487139D01*
X98742380Y-101582377D01*
X98742380Y-101820472D01*
X98694761Y-101915710D01*
X98647142Y-101963329D01*
X98075714Y-100534758D02*
X98742380Y-100534758D01*
X97694761Y-100772853D02*
X98409047Y-101010948D01*
X98409047Y-100391901D01*
X98742380Y-90401425D02*
X97742380Y-90401425D01*
X97742380Y-90163330D01*
X97790000Y-90020473D01*
X97885238Y-89925235D01*
X97980476Y-89877616D01*
X98170952Y-89829997D01*
X98313809Y-89829997D01*
X98504285Y-89877616D01*
X98599523Y-89925235D01*
X98694761Y-90020473D01*
X98742380Y-90163330D01*
X98742380Y-90401425D01*
X97742380Y-88925235D02*
X97742380Y-89401425D01*
X98218571Y-89449044D01*
X98170952Y-89401425D01*
X98123333Y-89306187D01*
X98123333Y-89068092D01*
X98170952Y-88972854D01*
X98218571Y-88925235D01*
X98313809Y-88877616D01*
X98551904Y-88877616D01*
X98647142Y-88925235D01*
X98694761Y-88972854D01*
X98742380Y-89068092D01*
X98742380Y-89306187D01*
X98694761Y-89401425D01*
X98647142Y-89449044D01*
X97742380Y-88544282D02*
X97742380Y-87925235D01*
X98123333Y-88258568D01*
X98123333Y-88115711D01*
X98170952Y-88020473D01*
X98218571Y-87972854D01*
X98313809Y-87925235D01*
X98551904Y-87925235D01*
X98647142Y-87972854D01*
X98694761Y-88020473D01*
X98742380Y-88115711D01*
X98742380Y-88401425D01*
X98694761Y-88496663D01*
X98647142Y-88544282D01*
X98742380Y-77887140D02*
X97742380Y-77887140D01*
X97742380Y-77649045D01*
X97790000Y-77506188D01*
X97885238Y-77410950D01*
X97980476Y-77363331D01*
X98170952Y-77315712D01*
X98313809Y-77315712D01*
X98504285Y-77363331D01*
X98599523Y-77410950D01*
X98694761Y-77506188D01*
X98742380Y-77649045D01*
X98742380Y-77887140D01*
X97742380Y-76410950D02*
X97742380Y-76887140D01*
X98218571Y-76934759D01*
X98170952Y-76887140D01*
X98123333Y-76791902D01*
X98123333Y-76553807D01*
X98170952Y-76458569D01*
X98218571Y-76410950D01*
X98313809Y-76363331D01*
X98551904Y-76363331D01*
X98647142Y-76410950D01*
X98694761Y-76458569D01*
X98742380Y-76553807D01*
X98742380Y-76791902D01*
X98694761Y-76887140D01*
X98647142Y-76934759D01*
X97837619Y-75982378D02*
X97790000Y-75934759D01*
X97742380Y-75839521D01*
X97742380Y-75601426D01*
X97790000Y-75506188D01*
X97837619Y-75458569D01*
X97932857Y-75410950D01*
X98028095Y-75410950D01*
X98170952Y-75458569D01*
X98742380Y-76029997D01*
X98742380Y-75410950D01*
X98742380Y-65372855D02*
X97742380Y-65372855D01*
X97742380Y-65134760D01*
X97790000Y-64991903D01*
X97885238Y-64896665D01*
X97980476Y-64849046D01*
X98170952Y-64801427D01*
X98313809Y-64801427D01*
X98504285Y-64849046D01*
X98599523Y-64896665D01*
X98694761Y-64991903D01*
X98742380Y-65134760D01*
X98742380Y-65372855D01*
X97742380Y-63896665D02*
X97742380Y-64372855D01*
X98218571Y-64420474D01*
X98170952Y-64372855D01*
X98123333Y-64277617D01*
X98123333Y-64039522D01*
X98170952Y-63944284D01*
X98218571Y-63896665D01*
X98313809Y-63849046D01*
X98551904Y-63849046D01*
X98647142Y-63896665D01*
X98694761Y-63944284D01*
X98742380Y-64039522D01*
X98742380Y-64277617D01*
X98694761Y-64372855D01*
X98647142Y-64420474D01*
X98742380Y-62896665D02*
X98742380Y-63468093D01*
X98742380Y-63182379D02*
X97742380Y-63182379D01*
X97885238Y-63277617D01*
X97980476Y-63372855D01*
X98028095Y-63468093D01*
X98742380Y-52858570D02*
X97742380Y-52858570D01*
X97742380Y-52620475D01*
X97790000Y-52477618D01*
X97885238Y-52382380D01*
X97980476Y-52334761D01*
X98170952Y-52287142D01*
X98313809Y-52287142D01*
X98504285Y-52334761D01*
X98599523Y-52382380D01*
X98694761Y-52477618D01*
X98742380Y-52620475D01*
X98742380Y-52858570D01*
X97742380Y-51382380D02*
X97742380Y-51858570D01*
X98218571Y-51906189D01*
X98170952Y-51858570D01*
X98123333Y-51763332D01*
X98123333Y-51525237D01*
X98170952Y-51429999D01*
X98218571Y-51382380D01*
X98313809Y-51334761D01*
X98551904Y-51334761D01*
X98647142Y-51382380D01*
X98694761Y-51429999D01*
X98742380Y-51525237D01*
X98742380Y-51763332D01*
X98694761Y-51858570D01*
X98647142Y-51906189D01*
X97742380Y-50715713D02*
X97742380Y-50620475D01*
X97790000Y-50525237D01*
X97837619Y-50477618D01*
X97932857Y-50429999D01*
X98123333Y-50382380D01*
X98361428Y-50382380D01*
X98551904Y-50429999D01*
X98647142Y-50477618D01*
X98694761Y-50525237D01*
X98742380Y-50620475D01*
X98742380Y-50715713D01*
X98694761Y-50810951D01*
X98647142Y-50858570D01*
X98551904Y-50906189D01*
X98361428Y-50953808D01*
X98123333Y-50953808D01*
X97932857Y-50906189D01*
X97837619Y-50858570D01*
X97790000Y-50810951D01*
X97742380Y-50715713D01*
X98742380Y-40344285D02*
X97742380Y-40344285D01*
X97742380Y-40106190D01*
X97790000Y-39963333D01*
X97885238Y-39868095D01*
X97980476Y-39820476D01*
X98170952Y-39772857D01*
X98313809Y-39772857D01*
X98504285Y-39820476D01*
X98599523Y-39868095D01*
X98694761Y-39963333D01*
X98742380Y-40106190D01*
X98742380Y-40344285D01*
X98075714Y-38915714D02*
X98742380Y-38915714D01*
X97694761Y-39153809D02*
X98409047Y-39391904D01*
X98409047Y-38772857D01*
X98742380Y-38344285D02*
X98742380Y-38153809D01*
X98694761Y-38058571D01*
X98647142Y-38010952D01*
X98504285Y-37915714D01*
X98313809Y-37868095D01*
X97932857Y-37868095D01*
X97837619Y-37915714D01*
X97790000Y-37963333D01*
X97742380Y-38058571D01*
X97742380Y-38249047D01*
X97790000Y-38344285D01*
X97837619Y-38391904D01*
X97932857Y-38439523D01*
X98170952Y-38439523D01*
X98266190Y-38391904D01*
X98313809Y-38344285D01*
X98361428Y-38249047D01*
X98361428Y-38058571D01*
X98313809Y-37963333D01*
X98266190Y-37915714D01*
X98170952Y-37868095D01*
X86242380Y-132444285D02*
X85242380Y-132444285D01*
X85242380Y-132206190D01*
X85290000Y-132063333D01*
X85385238Y-131968095D01*
X85480476Y-131920476D01*
X85670952Y-131872857D01*
X85813809Y-131872857D01*
X86004285Y-131920476D01*
X86099523Y-131968095D01*
X86194761Y-132063333D01*
X86242380Y-132206190D01*
X86242380Y-132444285D01*
X85575714Y-131015714D02*
X86242380Y-131015714D01*
X85194761Y-131253809D02*
X85909047Y-131491904D01*
X85909047Y-130872857D01*
X85670952Y-130349047D02*
X85623333Y-130444285D01*
X85575714Y-130491904D01*
X85480476Y-130539523D01*
X85432857Y-130539523D01*
X85337619Y-130491904D01*
X85290000Y-130444285D01*
X85242380Y-130349047D01*
X85242380Y-130158571D01*
X85290000Y-130063333D01*
X85337619Y-130015714D01*
X85432857Y-129968095D01*
X85480476Y-129968095D01*
X85575714Y-130015714D01*
X85623333Y-130063333D01*
X85670952Y-130158571D01*
X85670952Y-130349047D01*
X85718571Y-130444285D01*
X85766190Y-130491904D01*
X85861428Y-130539523D01*
X86051904Y-130539523D01*
X86147142Y-130491904D01*
X86194761Y-130444285D01*
X86242380Y-130349047D01*
X86242380Y-130158571D01*
X86194761Y-130063333D01*
X86147142Y-130015714D01*
X86051904Y-129968095D01*
X85861428Y-129968095D01*
X85766190Y-130015714D01*
X85718571Y-130063333D01*
X85670952Y-130158571D01*
X86242380Y-119944285D02*
X85242380Y-119944285D01*
X85242380Y-119706190D01*
X85290000Y-119563333D01*
X85385238Y-119468095D01*
X85480476Y-119420476D01*
X85670952Y-119372857D01*
X85813809Y-119372857D01*
X86004285Y-119420476D01*
X86099523Y-119468095D01*
X86194761Y-119563333D01*
X86242380Y-119706190D01*
X86242380Y-119944285D01*
X85575714Y-118515714D02*
X86242380Y-118515714D01*
X85194761Y-118753809D02*
X85909047Y-118991904D01*
X85909047Y-118372857D01*
X85242380Y-118087142D02*
X85242380Y-117420476D01*
X86242380Y-117849047D01*
X86242380Y-107444285D02*
X85242380Y-107444285D01*
X85242380Y-107206190D01*
X85290000Y-107063333D01*
X85385238Y-106968095D01*
X85480476Y-106920476D01*
X85670952Y-106872857D01*
X85813809Y-106872857D01*
X86004285Y-106920476D01*
X86099523Y-106968095D01*
X86194761Y-107063333D01*
X86242380Y-107206190D01*
X86242380Y-107444285D01*
X85575714Y-106015714D02*
X86242380Y-106015714D01*
X85194761Y-106253809D02*
X85909047Y-106491904D01*
X85909047Y-105872857D01*
X85242380Y-105063333D02*
X85242380Y-105253809D01*
X85290000Y-105349047D01*
X85337619Y-105396666D01*
X85480476Y-105491904D01*
X85670952Y-105539523D01*
X86051904Y-105539523D01*
X86147142Y-105491904D01*
X86194761Y-105444285D01*
X86242380Y-105349047D01*
X86242380Y-105158571D01*
X86194761Y-105063333D01*
X86147142Y-105015714D01*
X86051904Y-104968095D01*
X85813809Y-104968095D01*
X85718571Y-105015714D01*
X85670952Y-105063333D01*
X85623333Y-105158571D01*
X85623333Y-105349047D01*
X85670952Y-105444285D01*
X85718571Y-105491904D01*
X85813809Y-105539523D01*
X86242380Y-94944285D02*
X85242380Y-94944285D01*
X85242380Y-94706190D01*
X85290000Y-94563333D01*
X85385238Y-94468095D01*
X85480476Y-94420476D01*
X85670952Y-94372857D01*
X85813809Y-94372857D01*
X86004285Y-94420476D01*
X86099523Y-94468095D01*
X86194761Y-94563333D01*
X86242380Y-94706190D01*
X86242380Y-94944285D01*
X85575714Y-93515714D02*
X86242380Y-93515714D01*
X85194761Y-93753809D02*
X85909047Y-93991904D01*
X85909047Y-93372857D01*
X85242380Y-92515714D02*
X85242380Y-92991904D01*
X85718571Y-93039523D01*
X85670952Y-92991904D01*
X85623333Y-92896666D01*
X85623333Y-92658571D01*
X85670952Y-92563333D01*
X85718571Y-92515714D01*
X85813809Y-92468095D01*
X86051904Y-92468095D01*
X86147142Y-92515714D01*
X86194761Y-92563333D01*
X86242380Y-92658571D01*
X86242380Y-92896666D01*
X86194761Y-92991904D01*
X86147142Y-93039523D01*
X86242380Y-82444285D02*
X85242380Y-82444285D01*
X85242380Y-82206190D01*
X85290000Y-82063333D01*
X85385238Y-81968095D01*
X85480476Y-81920476D01*
X85670952Y-81872857D01*
X85813809Y-81872857D01*
X86004285Y-81920476D01*
X86099523Y-81968095D01*
X86194761Y-82063333D01*
X86242380Y-82206190D01*
X86242380Y-82444285D01*
X85575714Y-81015714D02*
X86242380Y-81015714D01*
X85194761Y-81253809D02*
X85909047Y-81491904D01*
X85909047Y-80872857D01*
X85575714Y-80063333D02*
X86242380Y-80063333D01*
X85194761Y-80301428D02*
X85909047Y-80539523D01*
X85909047Y-79920476D01*
X86242380Y-69944285D02*
X85242380Y-69944285D01*
X85242380Y-69706190D01*
X85290000Y-69563333D01*
X85385238Y-69468095D01*
X85480476Y-69420476D01*
X85670952Y-69372857D01*
X85813809Y-69372857D01*
X86004285Y-69420476D01*
X86099523Y-69468095D01*
X86194761Y-69563333D01*
X86242380Y-69706190D01*
X86242380Y-69944285D01*
X85575714Y-68515714D02*
X86242380Y-68515714D01*
X85194761Y-68753809D02*
X85909047Y-68991904D01*
X85909047Y-68372857D01*
X85242380Y-68087142D02*
X85242380Y-67468095D01*
X85623333Y-67801428D01*
X85623333Y-67658571D01*
X85670952Y-67563333D01*
X85718571Y-67515714D01*
X85813809Y-67468095D01*
X86051904Y-67468095D01*
X86147142Y-67515714D01*
X86194761Y-67563333D01*
X86242380Y-67658571D01*
X86242380Y-67944285D01*
X86194761Y-68039523D01*
X86147142Y-68087142D01*
X86242380Y-57444285D02*
X85242380Y-57444285D01*
X85242380Y-57206190D01*
X85290000Y-57063333D01*
X85385238Y-56968095D01*
X85480476Y-56920476D01*
X85670952Y-56872857D01*
X85813809Y-56872857D01*
X86004285Y-56920476D01*
X86099523Y-56968095D01*
X86194761Y-57063333D01*
X86242380Y-57206190D01*
X86242380Y-57444285D01*
X85575714Y-56015714D02*
X86242380Y-56015714D01*
X85194761Y-56253809D02*
X85909047Y-56491904D01*
X85909047Y-55872857D01*
X85337619Y-55539523D02*
X85290000Y-55491904D01*
X85242380Y-55396666D01*
X85242380Y-55158571D01*
X85290000Y-55063333D01*
X85337619Y-55015714D01*
X85432857Y-54968095D01*
X85528095Y-54968095D01*
X85670952Y-55015714D01*
X86242380Y-55587142D01*
X86242380Y-54968095D01*
X86242380Y-44944285D02*
X85242380Y-44944285D01*
X85242380Y-44706190D01*
X85290000Y-44563333D01*
X85385238Y-44468095D01*
X85480476Y-44420476D01*
X85670952Y-44372857D01*
X85813809Y-44372857D01*
X86004285Y-44420476D01*
X86099523Y-44468095D01*
X86194761Y-44563333D01*
X86242380Y-44706190D01*
X86242380Y-44944285D01*
X85575714Y-43515714D02*
X86242380Y-43515714D01*
X85194761Y-43753809D02*
X85909047Y-43991904D01*
X85909047Y-43372857D01*
X86242380Y-42468095D02*
X86242380Y-43039523D01*
X86242380Y-42753809D02*
X85242380Y-42753809D01*
X85385238Y-42849047D01*
X85480476Y-42944285D01*
X85528095Y-43039523D01*
X73742380Y-127944285D02*
X72742380Y-127944285D01*
X72742380Y-127706190D01*
X72790000Y-127563333D01*
X72885238Y-127468095D01*
X72980476Y-127420476D01*
X73170952Y-127372857D01*
X73313809Y-127372857D01*
X73504285Y-127420476D01*
X73599523Y-127468095D01*
X73694761Y-127563333D01*
X73742380Y-127706190D01*
X73742380Y-127944285D01*
X73075714Y-126515714D02*
X73742380Y-126515714D01*
X72694761Y-126753809D02*
X73409047Y-126991904D01*
X73409047Y-126372857D01*
X72742380Y-125801428D02*
X72742380Y-125706190D01*
X72790000Y-125610952D01*
X72837619Y-125563333D01*
X72932857Y-125515714D01*
X73123333Y-125468095D01*
X73361428Y-125468095D01*
X73551904Y-125515714D01*
X73647142Y-125563333D01*
X73694761Y-125610952D01*
X73742380Y-125706190D01*
X73742380Y-125801428D01*
X73694761Y-125896666D01*
X73647142Y-125944285D01*
X73551904Y-125991904D01*
X73361428Y-126039523D01*
X73123333Y-126039523D01*
X72932857Y-125991904D01*
X72837619Y-125944285D01*
X72790000Y-125896666D01*
X72742380Y-125801428D01*
X73742380Y-115429995D02*
X72742380Y-115429995D01*
X72742380Y-115191900D01*
X72790000Y-115049043D01*
X72885238Y-114953805D01*
X72980476Y-114906186D01*
X73170952Y-114858567D01*
X73313809Y-114858567D01*
X73504285Y-114906186D01*
X73599523Y-114953805D01*
X73694761Y-115049043D01*
X73742380Y-115191900D01*
X73742380Y-115429995D01*
X72742380Y-114525233D02*
X72742380Y-113906186D01*
X73123333Y-114239519D01*
X73123333Y-114096662D01*
X73170952Y-114001424D01*
X73218571Y-113953805D01*
X73313809Y-113906186D01*
X73551904Y-113906186D01*
X73647142Y-113953805D01*
X73694761Y-114001424D01*
X73742380Y-114096662D01*
X73742380Y-114382376D01*
X73694761Y-114477614D01*
X73647142Y-114525233D01*
X73742380Y-113429995D02*
X73742380Y-113239519D01*
X73694761Y-113144281D01*
X73647142Y-113096662D01*
X73504285Y-113001424D01*
X73313809Y-112953805D01*
X72932857Y-112953805D01*
X72837619Y-113001424D01*
X72790000Y-113049043D01*
X72742380Y-113144281D01*
X72742380Y-113334757D01*
X72790000Y-113429995D01*
X72837619Y-113477614D01*
X72932857Y-113525233D01*
X73170952Y-113525233D01*
X73266190Y-113477614D01*
X73313809Y-113429995D01*
X73361428Y-113334757D01*
X73361428Y-113144281D01*
X73313809Y-113049043D01*
X73266190Y-113001424D01*
X73170952Y-112953805D01*
X73742380Y-102915710D02*
X72742380Y-102915710D01*
X72742380Y-102677615D01*
X72790000Y-102534758D01*
X72885238Y-102439520D01*
X72980476Y-102391901D01*
X73170952Y-102344282D01*
X73313809Y-102344282D01*
X73504285Y-102391901D01*
X73599523Y-102439520D01*
X73694761Y-102534758D01*
X73742380Y-102677615D01*
X73742380Y-102915710D01*
X72742380Y-102010948D02*
X72742380Y-101391901D01*
X73123333Y-101725234D01*
X73123333Y-101582377D01*
X73170952Y-101487139D01*
X73218571Y-101439520D01*
X73313809Y-101391901D01*
X73551904Y-101391901D01*
X73647142Y-101439520D01*
X73694761Y-101487139D01*
X73742380Y-101582377D01*
X73742380Y-101868091D01*
X73694761Y-101963329D01*
X73647142Y-102010948D01*
X73170952Y-100820472D02*
X73123333Y-100915710D01*
X73075714Y-100963329D01*
X72980476Y-101010948D01*
X72932857Y-101010948D01*
X72837619Y-100963329D01*
X72790000Y-100915710D01*
X72742380Y-100820472D01*
X72742380Y-100629996D01*
X72790000Y-100534758D01*
X72837619Y-100487139D01*
X72932857Y-100439520D01*
X72980476Y-100439520D01*
X73075714Y-100487139D01*
X73123333Y-100534758D01*
X73170952Y-100629996D01*
X73170952Y-100820472D01*
X73218571Y-100915710D01*
X73266190Y-100963329D01*
X73361428Y-101010948D01*
X73551904Y-101010948D01*
X73647142Y-100963329D01*
X73694761Y-100915710D01*
X73742380Y-100820472D01*
X73742380Y-100629996D01*
X73694761Y-100534758D01*
X73647142Y-100487139D01*
X73551904Y-100439520D01*
X73361428Y-100439520D01*
X73266190Y-100487139D01*
X73218571Y-100534758D01*
X73170952Y-100629996D01*
X73742380Y-90401425D02*
X72742380Y-90401425D01*
X72742380Y-90163330D01*
X72790000Y-90020473D01*
X72885238Y-89925235D01*
X72980476Y-89877616D01*
X73170952Y-89829997D01*
X73313809Y-89829997D01*
X73504285Y-89877616D01*
X73599523Y-89925235D01*
X73694761Y-90020473D01*
X73742380Y-90163330D01*
X73742380Y-90401425D01*
X72742380Y-89496663D02*
X72742380Y-88877616D01*
X73123333Y-89210949D01*
X73123333Y-89068092D01*
X73170952Y-88972854D01*
X73218571Y-88925235D01*
X73313809Y-88877616D01*
X73551904Y-88877616D01*
X73647142Y-88925235D01*
X73694761Y-88972854D01*
X73742380Y-89068092D01*
X73742380Y-89353806D01*
X73694761Y-89449044D01*
X73647142Y-89496663D01*
X72742380Y-88544282D02*
X72742380Y-87877616D01*
X73742380Y-88306187D01*
X73742380Y-77887140D02*
X72742380Y-77887140D01*
X72742380Y-77649045D01*
X72790000Y-77506188D01*
X72885238Y-77410950D01*
X72980476Y-77363331D01*
X73170952Y-77315712D01*
X73313809Y-77315712D01*
X73504285Y-77363331D01*
X73599523Y-77410950D01*
X73694761Y-77506188D01*
X73742380Y-77649045D01*
X73742380Y-77887140D01*
X72742380Y-76982378D02*
X72742380Y-76363331D01*
X73123333Y-76696664D01*
X73123333Y-76553807D01*
X73170952Y-76458569D01*
X73218571Y-76410950D01*
X73313809Y-76363331D01*
X73551904Y-76363331D01*
X73647142Y-76410950D01*
X73694761Y-76458569D01*
X73742380Y-76553807D01*
X73742380Y-76839521D01*
X73694761Y-76934759D01*
X73647142Y-76982378D01*
X72742380Y-75506188D02*
X72742380Y-75696664D01*
X72790000Y-75791902D01*
X72837619Y-75839521D01*
X72980476Y-75934759D01*
X73170952Y-75982378D01*
X73551904Y-75982378D01*
X73647142Y-75934759D01*
X73694761Y-75887140D01*
X73742380Y-75791902D01*
X73742380Y-75601426D01*
X73694761Y-75506188D01*
X73647142Y-75458569D01*
X73551904Y-75410950D01*
X73313809Y-75410950D01*
X73218571Y-75458569D01*
X73170952Y-75506188D01*
X73123333Y-75601426D01*
X73123333Y-75791902D01*
X73170952Y-75887140D01*
X73218571Y-75934759D01*
X73313809Y-75982378D01*
X73742380Y-65372855D02*
X72742380Y-65372855D01*
X72742380Y-65134760D01*
X72790000Y-64991903D01*
X72885238Y-64896665D01*
X72980476Y-64849046D01*
X73170952Y-64801427D01*
X73313809Y-64801427D01*
X73504285Y-64849046D01*
X73599523Y-64896665D01*
X73694761Y-64991903D01*
X73742380Y-65134760D01*
X73742380Y-65372855D01*
X72742380Y-64468093D02*
X72742380Y-63849046D01*
X73123333Y-64182379D01*
X73123333Y-64039522D01*
X73170952Y-63944284D01*
X73218571Y-63896665D01*
X73313809Y-63849046D01*
X73551904Y-63849046D01*
X73647142Y-63896665D01*
X73694761Y-63944284D01*
X73742380Y-64039522D01*
X73742380Y-64325236D01*
X73694761Y-64420474D01*
X73647142Y-64468093D01*
X72742380Y-62944284D02*
X72742380Y-63420474D01*
X73218571Y-63468093D01*
X73170952Y-63420474D01*
X73123333Y-63325236D01*
X73123333Y-63087141D01*
X73170952Y-62991903D01*
X73218571Y-62944284D01*
X73313809Y-62896665D01*
X73551904Y-62896665D01*
X73647142Y-62944284D01*
X73694761Y-62991903D01*
X73742380Y-63087141D01*
X73742380Y-63325236D01*
X73694761Y-63420474D01*
X73647142Y-63468093D01*
X73742380Y-52858570D02*
X72742380Y-52858570D01*
X72742380Y-52620475D01*
X72790000Y-52477618D01*
X72885238Y-52382380D01*
X72980476Y-52334761D01*
X73170952Y-52287142D01*
X73313809Y-52287142D01*
X73504285Y-52334761D01*
X73599523Y-52382380D01*
X73694761Y-52477618D01*
X73742380Y-52620475D01*
X73742380Y-52858570D01*
X72742380Y-51953808D02*
X72742380Y-51334761D01*
X73123333Y-51668094D01*
X73123333Y-51525237D01*
X73170952Y-51429999D01*
X73218571Y-51382380D01*
X73313809Y-51334761D01*
X73551904Y-51334761D01*
X73647142Y-51382380D01*
X73694761Y-51429999D01*
X73742380Y-51525237D01*
X73742380Y-51810951D01*
X73694761Y-51906189D01*
X73647142Y-51953808D01*
X73075714Y-50477618D02*
X73742380Y-50477618D01*
X72694761Y-50715713D02*
X73409047Y-50953808D01*
X73409047Y-50334761D01*
X73742380Y-40344285D02*
X72742380Y-40344285D01*
X72742380Y-40106190D01*
X72790000Y-39963333D01*
X72885238Y-39868095D01*
X72980476Y-39820476D01*
X73170952Y-39772857D01*
X73313809Y-39772857D01*
X73504285Y-39820476D01*
X73599523Y-39868095D01*
X73694761Y-39963333D01*
X73742380Y-40106190D01*
X73742380Y-40344285D01*
X72742380Y-39439523D02*
X72742380Y-38820476D01*
X73123333Y-39153809D01*
X73123333Y-39010952D01*
X73170952Y-38915714D01*
X73218571Y-38868095D01*
X73313809Y-38820476D01*
X73551904Y-38820476D01*
X73647142Y-38868095D01*
X73694761Y-38915714D01*
X73742380Y-39010952D01*
X73742380Y-39296666D01*
X73694761Y-39391904D01*
X73647142Y-39439523D01*
X72742380Y-38487142D02*
X72742380Y-37868095D01*
X73123333Y-38201428D01*
X73123333Y-38058571D01*
X73170952Y-37963333D01*
X73218571Y-37915714D01*
X73313809Y-37868095D01*
X73551904Y-37868095D01*
X73647142Y-37915714D01*
X73694761Y-37963333D01*
X73742380Y-38058571D01*
X73742380Y-38344285D01*
X73694761Y-38439523D01*
X73647142Y-38487142D01*
X61242380Y-132444285D02*
X60242380Y-132444285D01*
X60242380Y-132206190D01*
X60290000Y-132063333D01*
X60385238Y-131968095D01*
X60480476Y-131920476D01*
X60670952Y-131872857D01*
X60813809Y-131872857D01*
X61004285Y-131920476D01*
X61099523Y-131968095D01*
X61194761Y-132063333D01*
X61242380Y-132206190D01*
X61242380Y-132444285D01*
X60242380Y-131539523D02*
X60242380Y-130920476D01*
X60623333Y-131253809D01*
X60623333Y-131110952D01*
X60670952Y-131015714D01*
X60718571Y-130968095D01*
X60813809Y-130920476D01*
X61051904Y-130920476D01*
X61147142Y-130968095D01*
X61194761Y-131015714D01*
X61242380Y-131110952D01*
X61242380Y-131396666D01*
X61194761Y-131491904D01*
X61147142Y-131539523D01*
X60337619Y-130539523D02*
X60290000Y-130491904D01*
X60242380Y-130396666D01*
X60242380Y-130158571D01*
X60290000Y-130063333D01*
X60337619Y-130015714D01*
X60432857Y-129968095D01*
X60528095Y-129968095D01*
X60670952Y-130015714D01*
X61242380Y-130587142D01*
X61242380Y-129968095D01*
X61242380Y-119944285D02*
X60242380Y-119944285D01*
X60242380Y-119706190D01*
X60290000Y-119563333D01*
X60385238Y-119468095D01*
X60480476Y-119420476D01*
X60670952Y-119372857D01*
X60813809Y-119372857D01*
X61004285Y-119420476D01*
X61099523Y-119468095D01*
X61194761Y-119563333D01*
X61242380Y-119706190D01*
X61242380Y-119944285D01*
X60242380Y-119039523D02*
X60242380Y-118420476D01*
X60623333Y-118753809D01*
X60623333Y-118610952D01*
X60670952Y-118515714D01*
X60718571Y-118468095D01*
X60813809Y-118420476D01*
X61051904Y-118420476D01*
X61147142Y-118468095D01*
X61194761Y-118515714D01*
X61242380Y-118610952D01*
X61242380Y-118896666D01*
X61194761Y-118991904D01*
X61147142Y-119039523D01*
X61242380Y-117468095D02*
X61242380Y-118039523D01*
X61242380Y-117753809D02*
X60242380Y-117753809D01*
X60385238Y-117849047D01*
X60480476Y-117944285D01*
X60528095Y-118039523D01*
X61242380Y-107444285D02*
X60242380Y-107444285D01*
X60242380Y-107206190D01*
X60290000Y-107063333D01*
X60385238Y-106968095D01*
X60480476Y-106920476D01*
X60670952Y-106872857D01*
X60813809Y-106872857D01*
X61004285Y-106920476D01*
X61099523Y-106968095D01*
X61194761Y-107063333D01*
X61242380Y-107206190D01*
X61242380Y-107444285D01*
X60242380Y-106539523D02*
X60242380Y-105920476D01*
X60623333Y-106253809D01*
X60623333Y-106110952D01*
X60670952Y-106015714D01*
X60718571Y-105968095D01*
X60813809Y-105920476D01*
X61051904Y-105920476D01*
X61147142Y-105968095D01*
X61194761Y-106015714D01*
X61242380Y-106110952D01*
X61242380Y-106396666D01*
X61194761Y-106491904D01*
X61147142Y-106539523D01*
X60242380Y-105301428D02*
X60242380Y-105206190D01*
X60290000Y-105110952D01*
X60337619Y-105063333D01*
X60432857Y-105015714D01*
X60623333Y-104968095D01*
X60861428Y-104968095D01*
X61051904Y-105015714D01*
X61147142Y-105063333D01*
X61194761Y-105110952D01*
X61242380Y-105206190D01*
X61242380Y-105301428D01*
X61194761Y-105396666D01*
X61147142Y-105444285D01*
X61051904Y-105491904D01*
X60861428Y-105539523D01*
X60623333Y-105539523D01*
X60432857Y-105491904D01*
X60337619Y-105444285D01*
X60290000Y-105396666D01*
X60242380Y-105301428D01*
X61242380Y-94944285D02*
X60242380Y-94944285D01*
X60242380Y-94706190D01*
X60290000Y-94563333D01*
X60385238Y-94468095D01*
X60480476Y-94420476D01*
X60670952Y-94372857D01*
X60813809Y-94372857D01*
X61004285Y-94420476D01*
X61099523Y-94468095D01*
X61194761Y-94563333D01*
X61242380Y-94706190D01*
X61242380Y-94944285D01*
X60337619Y-93991904D02*
X60290000Y-93944285D01*
X60242380Y-93849047D01*
X60242380Y-93610952D01*
X60290000Y-93515714D01*
X60337619Y-93468095D01*
X60432857Y-93420476D01*
X60528095Y-93420476D01*
X60670952Y-93468095D01*
X61242380Y-94039523D01*
X61242380Y-93420476D01*
X61242380Y-92944285D02*
X61242380Y-92753809D01*
X61194761Y-92658571D01*
X61147142Y-92610952D01*
X61004285Y-92515714D01*
X60813809Y-92468095D01*
X60432857Y-92468095D01*
X60337619Y-92515714D01*
X60290000Y-92563333D01*
X60242380Y-92658571D01*
X60242380Y-92849047D01*
X60290000Y-92944285D01*
X60337619Y-92991904D01*
X60432857Y-93039523D01*
X60670952Y-93039523D01*
X60766190Y-92991904D01*
X60813809Y-92944285D01*
X60861428Y-92849047D01*
X60861428Y-92658571D01*
X60813809Y-92563333D01*
X60766190Y-92515714D01*
X60670952Y-92468095D01*
X61242380Y-82444285D02*
X60242380Y-82444285D01*
X60242380Y-82206190D01*
X60290000Y-82063333D01*
X60385238Y-81968095D01*
X60480476Y-81920476D01*
X60670952Y-81872857D01*
X60813809Y-81872857D01*
X61004285Y-81920476D01*
X61099523Y-81968095D01*
X61194761Y-82063333D01*
X61242380Y-82206190D01*
X61242380Y-82444285D01*
X60337619Y-81491904D02*
X60290000Y-81444285D01*
X60242380Y-81349047D01*
X60242380Y-81110952D01*
X60290000Y-81015714D01*
X60337619Y-80968095D01*
X60432857Y-80920476D01*
X60528095Y-80920476D01*
X60670952Y-80968095D01*
X61242380Y-81539523D01*
X61242380Y-80920476D01*
X60670952Y-80349047D02*
X60623333Y-80444285D01*
X60575714Y-80491904D01*
X60480476Y-80539523D01*
X60432857Y-80539523D01*
X60337619Y-80491904D01*
X60290000Y-80444285D01*
X60242380Y-80349047D01*
X60242380Y-80158571D01*
X60290000Y-80063333D01*
X60337619Y-80015714D01*
X60432857Y-79968095D01*
X60480476Y-79968095D01*
X60575714Y-80015714D01*
X60623333Y-80063333D01*
X60670952Y-80158571D01*
X60670952Y-80349047D01*
X60718571Y-80444285D01*
X60766190Y-80491904D01*
X60861428Y-80539523D01*
X61051904Y-80539523D01*
X61147142Y-80491904D01*
X61194761Y-80444285D01*
X61242380Y-80349047D01*
X61242380Y-80158571D01*
X61194761Y-80063333D01*
X61147142Y-80015714D01*
X61051904Y-79968095D01*
X60861428Y-79968095D01*
X60766190Y-80015714D01*
X60718571Y-80063333D01*
X60670952Y-80158571D01*
X61242380Y-69944285D02*
X60242380Y-69944285D01*
X60242380Y-69706190D01*
X60290000Y-69563333D01*
X60385238Y-69468095D01*
X60480476Y-69420476D01*
X60670952Y-69372857D01*
X60813809Y-69372857D01*
X61004285Y-69420476D01*
X61099523Y-69468095D01*
X61194761Y-69563333D01*
X61242380Y-69706190D01*
X61242380Y-69944285D01*
X60337619Y-68991904D02*
X60290000Y-68944285D01*
X60242380Y-68849047D01*
X60242380Y-68610952D01*
X60290000Y-68515714D01*
X60337619Y-68468095D01*
X60432857Y-68420476D01*
X60528095Y-68420476D01*
X60670952Y-68468095D01*
X61242380Y-69039523D01*
X61242380Y-68420476D01*
X60242380Y-68087142D02*
X60242380Y-67420476D01*
X61242380Y-67849047D01*
X61242380Y-57444285D02*
X60242380Y-57444285D01*
X60242380Y-57206190D01*
X60290000Y-57063333D01*
X60385238Y-56968095D01*
X60480476Y-56920476D01*
X60670952Y-56872857D01*
X60813809Y-56872857D01*
X61004285Y-56920476D01*
X61099523Y-56968095D01*
X61194761Y-57063333D01*
X61242380Y-57206190D01*
X61242380Y-57444285D01*
X60337619Y-56491904D02*
X60290000Y-56444285D01*
X60242380Y-56349047D01*
X60242380Y-56110952D01*
X60290000Y-56015714D01*
X60337619Y-55968095D01*
X60432857Y-55920476D01*
X60528095Y-55920476D01*
X60670952Y-55968095D01*
X61242380Y-56539523D01*
X61242380Y-55920476D01*
X60242380Y-55063333D02*
X60242380Y-55253809D01*
X60290000Y-55349047D01*
X60337619Y-55396666D01*
X60480476Y-55491904D01*
X60670952Y-55539523D01*
X61051904Y-55539523D01*
X61147142Y-55491904D01*
X61194761Y-55444285D01*
X61242380Y-55349047D01*
X61242380Y-55158571D01*
X61194761Y-55063333D01*
X61147142Y-55015714D01*
X61051904Y-54968095D01*
X60813809Y-54968095D01*
X60718571Y-55015714D01*
X60670952Y-55063333D01*
X60623333Y-55158571D01*
X60623333Y-55349047D01*
X60670952Y-55444285D01*
X60718571Y-55491904D01*
X60813809Y-55539523D01*
X61242380Y-44944285D02*
X60242380Y-44944285D01*
X60242380Y-44706190D01*
X60290000Y-44563333D01*
X60385238Y-44468095D01*
X60480476Y-44420476D01*
X60670952Y-44372857D01*
X60813809Y-44372857D01*
X61004285Y-44420476D01*
X61099523Y-44468095D01*
X61194761Y-44563333D01*
X61242380Y-44706190D01*
X61242380Y-44944285D01*
X60337619Y-43991904D02*
X60290000Y-43944285D01*
X60242380Y-43849047D01*
X60242380Y-43610952D01*
X60290000Y-43515714D01*
X60337619Y-43468095D01*
X60432857Y-43420476D01*
X60528095Y-43420476D01*
X60670952Y-43468095D01*
X61242380Y-44039523D01*
X61242380Y-43420476D01*
X60242380Y-42515714D02*
X60242380Y-42991904D01*
X60718571Y-43039523D01*
X60670952Y-42991904D01*
X60623333Y-42896666D01*
X60623333Y-42658571D01*
X60670952Y-42563333D01*
X60718571Y-42515714D01*
X60813809Y-42468095D01*
X61051904Y-42468095D01*
X61147142Y-42515714D01*
X61194761Y-42563333D01*
X61242380Y-42658571D01*
X61242380Y-42896666D01*
X61194761Y-42991904D01*
X61147142Y-43039523D01*
X48742380Y-127944285D02*
X47742380Y-127944285D01*
X47742380Y-127706190D01*
X47790000Y-127563333D01*
X47885238Y-127468095D01*
X47980476Y-127420476D01*
X48170952Y-127372857D01*
X48313809Y-127372857D01*
X48504285Y-127420476D01*
X48599523Y-127468095D01*
X48694761Y-127563333D01*
X48742380Y-127706190D01*
X48742380Y-127944285D01*
X47837619Y-126991904D02*
X47790000Y-126944285D01*
X47742380Y-126849047D01*
X47742380Y-126610952D01*
X47790000Y-126515714D01*
X47837619Y-126468095D01*
X47932857Y-126420476D01*
X48028095Y-126420476D01*
X48170952Y-126468095D01*
X48742380Y-127039523D01*
X48742380Y-126420476D01*
X48075714Y-125563333D02*
X48742380Y-125563333D01*
X47694761Y-125801428D02*
X48409047Y-126039523D01*
X48409047Y-125420476D01*
X48742380Y-115429995D02*
X47742380Y-115429995D01*
X47742380Y-115191900D01*
X47790000Y-115049043D01*
X47885238Y-114953805D01*
X47980476Y-114906186D01*
X48170952Y-114858567D01*
X48313809Y-114858567D01*
X48504285Y-114906186D01*
X48599523Y-114953805D01*
X48694761Y-115049043D01*
X48742380Y-115191900D01*
X48742380Y-115429995D01*
X47837619Y-114477614D02*
X47790000Y-114429995D01*
X47742380Y-114334757D01*
X47742380Y-114096662D01*
X47790000Y-114001424D01*
X47837619Y-113953805D01*
X47932857Y-113906186D01*
X48028095Y-113906186D01*
X48170952Y-113953805D01*
X48742380Y-114525233D01*
X48742380Y-113906186D01*
X47742380Y-113572852D02*
X47742380Y-112953805D01*
X48123333Y-113287138D01*
X48123333Y-113144281D01*
X48170952Y-113049043D01*
X48218571Y-113001424D01*
X48313809Y-112953805D01*
X48551904Y-112953805D01*
X48647142Y-113001424D01*
X48694761Y-113049043D01*
X48742380Y-113144281D01*
X48742380Y-113429995D01*
X48694761Y-113525233D01*
X48647142Y-113572852D01*
X48742380Y-102915710D02*
X47742380Y-102915710D01*
X47742380Y-102677615D01*
X47790000Y-102534758D01*
X47885238Y-102439520D01*
X47980476Y-102391901D01*
X48170952Y-102344282D01*
X48313809Y-102344282D01*
X48504285Y-102391901D01*
X48599523Y-102439520D01*
X48694761Y-102534758D01*
X48742380Y-102677615D01*
X48742380Y-102915710D01*
X47837619Y-101963329D02*
X47790000Y-101915710D01*
X47742380Y-101820472D01*
X47742380Y-101582377D01*
X47790000Y-101487139D01*
X47837619Y-101439520D01*
X47932857Y-101391901D01*
X48028095Y-101391901D01*
X48170952Y-101439520D01*
X48742380Y-102010948D01*
X48742380Y-101391901D01*
X47837619Y-101010948D02*
X47790000Y-100963329D01*
X47742380Y-100868091D01*
X47742380Y-100629996D01*
X47790000Y-100534758D01*
X47837619Y-100487139D01*
X47932857Y-100439520D01*
X48028095Y-100439520D01*
X48170952Y-100487139D01*
X48742380Y-101058567D01*
X48742380Y-100439520D01*
X48742380Y-90401425D02*
X47742380Y-90401425D01*
X47742380Y-90163330D01*
X47790000Y-90020473D01*
X47885238Y-89925235D01*
X47980476Y-89877616D01*
X48170952Y-89829997D01*
X48313809Y-89829997D01*
X48504285Y-89877616D01*
X48599523Y-89925235D01*
X48694761Y-90020473D01*
X48742380Y-90163330D01*
X48742380Y-90401425D01*
X47837619Y-89449044D02*
X47790000Y-89401425D01*
X47742380Y-89306187D01*
X47742380Y-89068092D01*
X47790000Y-88972854D01*
X47837619Y-88925235D01*
X47932857Y-88877616D01*
X48028095Y-88877616D01*
X48170952Y-88925235D01*
X48742380Y-89496663D01*
X48742380Y-88877616D01*
X48742380Y-87925235D02*
X48742380Y-88496663D01*
X48742380Y-88210949D02*
X47742380Y-88210949D01*
X47885238Y-88306187D01*
X47980476Y-88401425D01*
X48028095Y-88496663D01*
X48742380Y-77887140D02*
X47742380Y-77887140D01*
X47742380Y-77649045D01*
X47790000Y-77506188D01*
X47885238Y-77410950D01*
X47980476Y-77363331D01*
X48170952Y-77315712D01*
X48313809Y-77315712D01*
X48504285Y-77363331D01*
X48599523Y-77410950D01*
X48694761Y-77506188D01*
X48742380Y-77649045D01*
X48742380Y-77887140D01*
X47837619Y-76934759D02*
X47790000Y-76887140D01*
X47742380Y-76791902D01*
X47742380Y-76553807D01*
X47790000Y-76458569D01*
X47837619Y-76410950D01*
X47932857Y-76363331D01*
X48028095Y-76363331D01*
X48170952Y-76410950D01*
X48742380Y-76982378D01*
X48742380Y-76363331D01*
X47742380Y-75744283D02*
X47742380Y-75649045D01*
X47790000Y-75553807D01*
X47837619Y-75506188D01*
X47932857Y-75458569D01*
X48123333Y-75410950D01*
X48361428Y-75410950D01*
X48551904Y-75458569D01*
X48647142Y-75506188D01*
X48694761Y-75553807D01*
X48742380Y-75649045D01*
X48742380Y-75744283D01*
X48694761Y-75839521D01*
X48647142Y-75887140D01*
X48551904Y-75934759D01*
X48361428Y-75982378D01*
X48123333Y-75982378D01*
X47932857Y-75934759D01*
X47837619Y-75887140D01*
X47790000Y-75839521D01*
X47742380Y-75744283D01*
X48742380Y-65372855D02*
X47742380Y-65372855D01*
X47742380Y-65134760D01*
X47790000Y-64991903D01*
X47885238Y-64896665D01*
X47980476Y-64849046D01*
X48170952Y-64801427D01*
X48313809Y-64801427D01*
X48504285Y-64849046D01*
X48599523Y-64896665D01*
X48694761Y-64991903D01*
X48742380Y-65134760D01*
X48742380Y-65372855D01*
X48742380Y-63849046D02*
X48742380Y-64420474D01*
X48742380Y-64134760D02*
X47742380Y-64134760D01*
X47885238Y-64229998D01*
X47980476Y-64325236D01*
X48028095Y-64420474D01*
X48742380Y-63372855D02*
X48742380Y-63182379D01*
X48694761Y-63087141D01*
X48647142Y-63039522D01*
X48504285Y-62944284D01*
X48313809Y-62896665D01*
X47932857Y-62896665D01*
X47837619Y-62944284D01*
X47790000Y-62991903D01*
X47742380Y-63087141D01*
X47742380Y-63277617D01*
X47790000Y-63372855D01*
X47837619Y-63420474D01*
X47932857Y-63468093D01*
X48170952Y-63468093D01*
X48266190Y-63420474D01*
X48313809Y-63372855D01*
X48361428Y-63277617D01*
X48361428Y-63087141D01*
X48313809Y-62991903D01*
X48266190Y-62944284D01*
X48170952Y-62896665D01*
X48742380Y-52858570D02*
X47742380Y-52858570D01*
X47742380Y-52620475D01*
X47790000Y-52477618D01*
X47885238Y-52382380D01*
X47980476Y-52334761D01*
X48170952Y-52287142D01*
X48313809Y-52287142D01*
X48504285Y-52334761D01*
X48599523Y-52382380D01*
X48694761Y-52477618D01*
X48742380Y-52620475D01*
X48742380Y-52858570D01*
X48742380Y-51334761D02*
X48742380Y-51906189D01*
X48742380Y-51620475D02*
X47742380Y-51620475D01*
X47885238Y-51715713D01*
X47980476Y-51810951D01*
X48028095Y-51906189D01*
X48170952Y-50763332D02*
X48123333Y-50858570D01*
X48075714Y-50906189D01*
X47980476Y-50953808D01*
X47932857Y-50953808D01*
X47837619Y-50906189D01*
X47790000Y-50858570D01*
X47742380Y-50763332D01*
X47742380Y-50572856D01*
X47790000Y-50477618D01*
X47837619Y-50429999D01*
X47932857Y-50382380D01*
X47980476Y-50382380D01*
X48075714Y-50429999D01*
X48123333Y-50477618D01*
X48170952Y-50572856D01*
X48170952Y-50763332D01*
X48218571Y-50858570D01*
X48266190Y-50906189D01*
X48361428Y-50953808D01*
X48551904Y-50953808D01*
X48647142Y-50906189D01*
X48694761Y-50858570D01*
X48742380Y-50763332D01*
X48742380Y-50572856D01*
X48694761Y-50477618D01*
X48647142Y-50429999D01*
X48551904Y-50382380D01*
X48361428Y-50382380D01*
X48266190Y-50429999D01*
X48218571Y-50477618D01*
X48170952Y-50572856D01*
X48742380Y-40344285D02*
X47742380Y-40344285D01*
X47742380Y-40106190D01*
X47790000Y-39963333D01*
X47885238Y-39868095D01*
X47980476Y-39820476D01*
X48170952Y-39772857D01*
X48313809Y-39772857D01*
X48504285Y-39820476D01*
X48599523Y-39868095D01*
X48694761Y-39963333D01*
X48742380Y-40106190D01*
X48742380Y-40344285D01*
X48742380Y-38820476D02*
X48742380Y-39391904D01*
X48742380Y-39106190D02*
X47742380Y-39106190D01*
X47885238Y-39201428D01*
X47980476Y-39296666D01*
X48028095Y-39391904D01*
X47742380Y-38487142D02*
X47742380Y-37820476D01*
X48742380Y-38249047D01*
X36242380Y-132444285D02*
X35242380Y-132444285D01*
X35242380Y-132206190D01*
X35290000Y-132063333D01*
X35385238Y-131968095D01*
X35480476Y-131920476D01*
X35670952Y-131872857D01*
X35813809Y-131872857D01*
X36004285Y-131920476D01*
X36099523Y-131968095D01*
X36194761Y-132063333D01*
X36242380Y-132206190D01*
X36242380Y-132444285D01*
X36242380Y-130920476D02*
X36242380Y-131491904D01*
X36242380Y-131206190D02*
X35242380Y-131206190D01*
X35385238Y-131301428D01*
X35480476Y-131396666D01*
X35528095Y-131491904D01*
X35242380Y-130063333D02*
X35242380Y-130253809D01*
X35290000Y-130349047D01*
X35337619Y-130396666D01*
X35480476Y-130491904D01*
X35670952Y-130539523D01*
X36051904Y-130539523D01*
X36147142Y-130491904D01*
X36194761Y-130444285D01*
X36242380Y-130349047D01*
X36242380Y-130158571D01*
X36194761Y-130063333D01*
X36147142Y-130015714D01*
X36051904Y-129968095D01*
X35813809Y-129968095D01*
X35718571Y-130015714D01*
X35670952Y-130063333D01*
X35623333Y-130158571D01*
X35623333Y-130349047D01*
X35670952Y-130444285D01*
X35718571Y-130491904D01*
X35813809Y-130539523D01*
X36242380Y-119944285D02*
X35242380Y-119944285D01*
X35242380Y-119706190D01*
X35290000Y-119563333D01*
X35385238Y-119468095D01*
X35480476Y-119420476D01*
X35670952Y-119372857D01*
X35813809Y-119372857D01*
X36004285Y-119420476D01*
X36099523Y-119468095D01*
X36194761Y-119563333D01*
X36242380Y-119706190D01*
X36242380Y-119944285D01*
X36242380Y-118420476D02*
X36242380Y-118991904D01*
X36242380Y-118706190D02*
X35242380Y-118706190D01*
X35385238Y-118801428D01*
X35480476Y-118896666D01*
X35528095Y-118991904D01*
X35242380Y-117515714D02*
X35242380Y-117991904D01*
X35718571Y-118039523D01*
X35670952Y-117991904D01*
X35623333Y-117896666D01*
X35623333Y-117658571D01*
X35670952Y-117563333D01*
X35718571Y-117515714D01*
X35813809Y-117468095D01*
X36051904Y-117468095D01*
X36147142Y-117515714D01*
X36194761Y-117563333D01*
X36242380Y-117658571D01*
X36242380Y-117896666D01*
X36194761Y-117991904D01*
X36147142Y-118039523D01*
X36242380Y-107444285D02*
X35242380Y-107444285D01*
X35242380Y-107206190D01*
X35290000Y-107063333D01*
X35385238Y-106968095D01*
X35480476Y-106920476D01*
X35670952Y-106872857D01*
X35813809Y-106872857D01*
X36004285Y-106920476D01*
X36099523Y-106968095D01*
X36194761Y-107063333D01*
X36242380Y-107206190D01*
X36242380Y-107444285D01*
X36242380Y-105920476D02*
X36242380Y-106491904D01*
X36242380Y-106206190D02*
X35242380Y-106206190D01*
X35385238Y-106301428D01*
X35480476Y-106396666D01*
X35528095Y-106491904D01*
X35575714Y-105063333D02*
X36242380Y-105063333D01*
X35194761Y-105301428D02*
X35909047Y-105539523D01*
X35909047Y-104920476D01*
X36242380Y-94944285D02*
X35242380Y-94944285D01*
X35242380Y-94706190D01*
X35290000Y-94563333D01*
X35385238Y-94468095D01*
X35480476Y-94420476D01*
X35670952Y-94372857D01*
X35813809Y-94372857D01*
X36004285Y-94420476D01*
X36099523Y-94468095D01*
X36194761Y-94563333D01*
X36242380Y-94706190D01*
X36242380Y-94944285D01*
X36242380Y-93420476D02*
X36242380Y-93991904D01*
X36242380Y-93706190D02*
X35242380Y-93706190D01*
X35385238Y-93801428D01*
X35480476Y-93896666D01*
X35528095Y-93991904D01*
X35242380Y-93087142D02*
X35242380Y-92468095D01*
X35623333Y-92801428D01*
X35623333Y-92658571D01*
X35670952Y-92563333D01*
X35718571Y-92515714D01*
X35813809Y-92468095D01*
X36051904Y-92468095D01*
X36147142Y-92515714D01*
X36194761Y-92563333D01*
X36242380Y-92658571D01*
X36242380Y-92944285D01*
X36194761Y-93039523D01*
X36147142Y-93087142D01*
X36242380Y-82444285D02*
X35242380Y-82444285D01*
X35242380Y-82206190D01*
X35290000Y-82063333D01*
X35385238Y-81968095D01*
X35480476Y-81920476D01*
X35670952Y-81872857D01*
X35813809Y-81872857D01*
X36004285Y-81920476D01*
X36099523Y-81968095D01*
X36194761Y-82063333D01*
X36242380Y-82206190D01*
X36242380Y-82444285D01*
X36242380Y-80920476D02*
X36242380Y-81491904D01*
X36242380Y-81206190D02*
X35242380Y-81206190D01*
X35385238Y-81301428D01*
X35480476Y-81396666D01*
X35528095Y-81491904D01*
X35337619Y-80539523D02*
X35290000Y-80491904D01*
X35242380Y-80396666D01*
X35242380Y-80158571D01*
X35290000Y-80063333D01*
X35337619Y-80015714D01*
X35432857Y-79968095D01*
X35528095Y-79968095D01*
X35670952Y-80015714D01*
X36242380Y-80587142D01*
X36242380Y-79968095D01*
X36242380Y-69944285D02*
X35242380Y-69944285D01*
X35242380Y-69706190D01*
X35290000Y-69563333D01*
X35385238Y-69468095D01*
X35480476Y-69420476D01*
X35670952Y-69372857D01*
X35813809Y-69372857D01*
X36004285Y-69420476D01*
X36099523Y-69468095D01*
X36194761Y-69563333D01*
X36242380Y-69706190D01*
X36242380Y-69944285D01*
X36242380Y-68420476D02*
X36242380Y-68991904D01*
X36242380Y-68706190D02*
X35242380Y-68706190D01*
X35385238Y-68801428D01*
X35480476Y-68896666D01*
X35528095Y-68991904D01*
X36242380Y-67468095D02*
X36242380Y-68039523D01*
X36242380Y-67753809D02*
X35242380Y-67753809D01*
X35385238Y-67849047D01*
X35480476Y-67944285D01*
X35528095Y-68039523D01*
X36242380Y-57444285D02*
X35242380Y-57444285D01*
X35242380Y-57206190D01*
X35290000Y-57063333D01*
X35385238Y-56968095D01*
X35480476Y-56920476D01*
X35670952Y-56872857D01*
X35813809Y-56872857D01*
X36004285Y-56920476D01*
X36099523Y-56968095D01*
X36194761Y-57063333D01*
X36242380Y-57206190D01*
X36242380Y-57444285D01*
X36242380Y-55920476D02*
X36242380Y-56491904D01*
X36242380Y-56206190D02*
X35242380Y-56206190D01*
X35385238Y-56301428D01*
X35480476Y-56396666D01*
X35528095Y-56491904D01*
X35242380Y-55301428D02*
X35242380Y-55206190D01*
X35290000Y-55110952D01*
X35337619Y-55063333D01*
X35432857Y-55015714D01*
X35623333Y-54968095D01*
X35861428Y-54968095D01*
X36051904Y-55015714D01*
X36147142Y-55063333D01*
X36194761Y-55110952D01*
X36242380Y-55206190D01*
X36242380Y-55301428D01*
X36194761Y-55396666D01*
X36147142Y-55444285D01*
X36051904Y-55491904D01*
X35861428Y-55539523D01*
X35623333Y-55539523D01*
X35432857Y-55491904D01*
X35337619Y-55444285D01*
X35290000Y-55396666D01*
X35242380Y-55301428D01*
X36242380Y-44468095D02*
X35242380Y-44468095D01*
X35242380Y-44230000D01*
X35290000Y-44087142D01*
X35385238Y-43991904D01*
X35480476Y-43944285D01*
X35670952Y-43896666D01*
X35813809Y-43896666D01*
X36004285Y-43944285D01*
X36099523Y-43991904D01*
X36194761Y-44087142D01*
X36242380Y-44230000D01*
X36242380Y-44468095D01*
X36242380Y-43420476D02*
X36242380Y-43230000D01*
X36194761Y-43134761D01*
X36147142Y-43087142D01*
X36004285Y-42991904D01*
X35813809Y-42944285D01*
X35432857Y-42944285D01*
X35337619Y-42991904D01*
X35290000Y-43039523D01*
X35242380Y-43134761D01*
X35242380Y-43325238D01*
X35290000Y-43420476D01*
X35337619Y-43468095D01*
X35432857Y-43515714D01*
X35670952Y-43515714D01*
X35766190Y-43468095D01*
X35813809Y-43420476D01*
X35861428Y-43325238D01*
X35861428Y-43134761D01*
X35813809Y-43039523D01*
X35766190Y-42991904D01*
X35670952Y-42944285D01*
X23742380Y-127468095D02*
X22742380Y-127468095D01*
X22742380Y-127230000D01*
X22790000Y-127087142D01*
X22885238Y-126991904D01*
X22980476Y-126944285D01*
X23170952Y-126896666D01*
X23313809Y-126896666D01*
X23504285Y-126944285D01*
X23599523Y-126991904D01*
X23694761Y-127087142D01*
X23742380Y-127230000D01*
X23742380Y-127468095D01*
X23170952Y-126325238D02*
X23123333Y-126420476D01*
X23075714Y-126468095D01*
X22980476Y-126515714D01*
X22932857Y-126515714D01*
X22837619Y-126468095D01*
X22790000Y-126420476D01*
X22742380Y-126325238D01*
X22742380Y-126134761D01*
X22790000Y-126039523D01*
X22837619Y-125991904D01*
X22932857Y-125944285D01*
X22980476Y-125944285D01*
X23075714Y-125991904D01*
X23123333Y-126039523D01*
X23170952Y-126134761D01*
X23170952Y-126325238D01*
X23218571Y-126420476D01*
X23266190Y-126468095D01*
X23361428Y-126515714D01*
X23551904Y-126515714D01*
X23647142Y-126468095D01*
X23694761Y-126420476D01*
X23742380Y-126325238D01*
X23742380Y-126134761D01*
X23694761Y-126039523D01*
X23647142Y-125991904D01*
X23551904Y-125944285D01*
X23361428Y-125944285D01*
X23266190Y-125991904D01*
X23218571Y-126039523D01*
X23170952Y-126134761D01*
X23742380Y-114953805D02*
X22742380Y-114953805D01*
X22742380Y-114715710D01*
X22790000Y-114572852D01*
X22885238Y-114477614D01*
X22980476Y-114429995D01*
X23170952Y-114382376D01*
X23313809Y-114382376D01*
X23504285Y-114429995D01*
X23599523Y-114477614D01*
X23694761Y-114572852D01*
X23742380Y-114715710D01*
X23742380Y-114953805D01*
X22742380Y-114049043D02*
X22742380Y-113382376D01*
X23742380Y-113810948D01*
X23742380Y-102439520D02*
X22742380Y-102439520D01*
X22742380Y-102201425D01*
X22790000Y-102058567D01*
X22885238Y-101963329D01*
X22980476Y-101915710D01*
X23170952Y-101868091D01*
X23313809Y-101868091D01*
X23504285Y-101915710D01*
X23599523Y-101963329D01*
X23694761Y-102058567D01*
X23742380Y-102201425D01*
X23742380Y-102439520D01*
X22742380Y-101010948D02*
X22742380Y-101201425D01*
X22790000Y-101296663D01*
X22837619Y-101344282D01*
X22980476Y-101439520D01*
X23170952Y-101487139D01*
X23551904Y-101487139D01*
X23647142Y-101439520D01*
X23694761Y-101391901D01*
X23742380Y-101296663D01*
X23742380Y-101106186D01*
X23694761Y-101010948D01*
X23647142Y-100963329D01*
X23551904Y-100915710D01*
X23313809Y-100915710D01*
X23218571Y-100963329D01*
X23170952Y-101010948D01*
X23123333Y-101106186D01*
X23123333Y-101296663D01*
X23170952Y-101391901D01*
X23218571Y-101439520D01*
X23313809Y-101487139D01*
X23742380Y-89925235D02*
X22742380Y-89925235D01*
X22742380Y-89687140D01*
X22790000Y-89544282D01*
X22885238Y-89449044D01*
X22980476Y-89401425D01*
X23170952Y-89353806D01*
X23313809Y-89353806D01*
X23504285Y-89401425D01*
X23599523Y-89449044D01*
X23694761Y-89544282D01*
X23742380Y-89687140D01*
X23742380Y-89925235D01*
X22742380Y-88449044D02*
X22742380Y-88925235D01*
X23218571Y-88972854D01*
X23170952Y-88925235D01*
X23123333Y-88829997D01*
X23123333Y-88591901D01*
X23170952Y-88496663D01*
X23218571Y-88449044D01*
X23313809Y-88401425D01*
X23551904Y-88401425D01*
X23647142Y-88449044D01*
X23694761Y-88496663D01*
X23742380Y-88591901D01*
X23742380Y-88829997D01*
X23694761Y-88925235D01*
X23647142Y-88972854D01*
X23742380Y-77410950D02*
X22742380Y-77410950D01*
X22742380Y-77172855D01*
X22790000Y-77029997D01*
X22885238Y-76934759D01*
X22980476Y-76887140D01*
X23170952Y-76839521D01*
X23313809Y-76839521D01*
X23504285Y-76887140D01*
X23599523Y-76934759D01*
X23694761Y-77029997D01*
X23742380Y-77172855D01*
X23742380Y-77410950D01*
X23075714Y-75982378D02*
X23742380Y-75982378D01*
X22694761Y-76220474D02*
X23409047Y-76458569D01*
X23409047Y-75839521D01*
X23742380Y-64896665D02*
X22742380Y-64896665D01*
X22742380Y-64658570D01*
X22790000Y-64515712D01*
X22885238Y-64420474D01*
X22980476Y-64372855D01*
X23170952Y-64325236D01*
X23313809Y-64325236D01*
X23504285Y-64372855D01*
X23599523Y-64420474D01*
X23694761Y-64515712D01*
X23742380Y-64658570D01*
X23742380Y-64896665D01*
X22742380Y-63991903D02*
X22742380Y-63372855D01*
X23123333Y-63706189D01*
X23123333Y-63563331D01*
X23170952Y-63468093D01*
X23218571Y-63420474D01*
X23313809Y-63372855D01*
X23551904Y-63372855D01*
X23647142Y-63420474D01*
X23694761Y-63468093D01*
X23742380Y-63563331D01*
X23742380Y-63849046D01*
X23694761Y-63944284D01*
X23647142Y-63991903D01*
X23742380Y-52382380D02*
X22742380Y-52382380D01*
X22742380Y-52144285D01*
X22790000Y-52001427D01*
X22885238Y-51906189D01*
X22980476Y-51858570D01*
X23170952Y-51810951D01*
X23313809Y-51810951D01*
X23504285Y-51858570D01*
X23599523Y-51906189D01*
X23694761Y-52001427D01*
X23742380Y-52144285D01*
X23742380Y-52382380D01*
X22837619Y-51429999D02*
X22790000Y-51382380D01*
X22742380Y-51287142D01*
X22742380Y-51049046D01*
X22790000Y-50953808D01*
X22837619Y-50906189D01*
X22932857Y-50858570D01*
X23028095Y-50858570D01*
X23170952Y-50906189D01*
X23742380Y-51477618D01*
X23742380Y-50858570D01*
X23742380Y-39868095D02*
X22742380Y-39868095D01*
X22742380Y-39630000D01*
X22790000Y-39487142D01*
X22885238Y-39391904D01*
X22980476Y-39344285D01*
X23170952Y-39296666D01*
X23313809Y-39296666D01*
X23504285Y-39344285D01*
X23599523Y-39391904D01*
X23694761Y-39487142D01*
X23742380Y-39630000D01*
X23742380Y-39868095D01*
X23742380Y-38344285D02*
X23742380Y-38915714D01*
X23742380Y-38630000D02*
X22742380Y-38630000D01*
X22885238Y-38725238D01*
X22980476Y-38820476D01*
X23028095Y-38915714D01*
M02*
