G04 #@! TF.GenerationSoftware,KiCad,Pcbnew,(5.1.7)-1*
G04 #@! TF.CreationDate,2020-10-28T10:47:30+01:00*
G04 #@! TF.ProjectId,LED_Panel,4c45445f-5061-46e6-956c-2e6b69636164,rev?*
G04 #@! TF.SameCoordinates,Original*
G04 #@! TF.FileFunction,Legend,Bot*
G04 #@! TF.FilePolarity,Positive*
%FSLAX46Y46*%
G04 Gerber Fmt 4.6, Leading zero omitted, Abs format (unit mm)*
G04 Created by KiCad (PCBNEW (5.1.7)-1) date 2020-10-28 10:47:30*
%MOMM*%
%LPD*%
G01*
G04 APERTURE LIST*
%ADD10C,0.150000*%
G04 APERTURE END LIST*
D10*
X118928571Y-35727380D02*
X118928571Y-36536904D01*
X118880952Y-36632142D01*
X118833333Y-36679761D01*
X118738095Y-36727380D01*
X118547619Y-36727380D01*
X118452380Y-36679761D01*
X118404761Y-36632142D01*
X118357142Y-36536904D01*
X118357142Y-35727380D01*
X118023809Y-35727380D02*
X117690476Y-36727380D01*
X117357142Y-35727380D01*
X115785714Y-36727380D02*
X116261904Y-36727380D01*
X116261904Y-35727380D01*
X115452380Y-36203571D02*
X115119047Y-36203571D01*
X114976190Y-36727380D02*
X115452380Y-36727380D01*
X115452380Y-35727380D01*
X114976190Y-35727380D01*
X114547619Y-36727380D02*
X114547619Y-35727380D01*
X114309523Y-35727380D01*
X114166666Y-35775000D01*
X114071428Y-35870238D01*
X114023809Y-35965476D01*
X113976190Y-36155952D01*
X113976190Y-36298809D01*
X114023809Y-36489285D01*
X114071428Y-36584523D01*
X114166666Y-36679761D01*
X114309523Y-36727380D01*
X114547619Y-36727380D01*
X112785714Y-36727380D02*
X112785714Y-35727380D01*
X112404761Y-35727380D01*
X112309523Y-35775000D01*
X112261904Y-35822619D01*
X112214285Y-35917857D01*
X112214285Y-36060714D01*
X112261904Y-36155952D01*
X112309523Y-36203571D01*
X112404761Y-36251190D01*
X112785714Y-36251190D01*
X111357142Y-36727380D02*
X111357142Y-36203571D01*
X111404761Y-36108333D01*
X111500000Y-36060714D01*
X111690476Y-36060714D01*
X111785714Y-36108333D01*
X111357142Y-36679761D02*
X111452380Y-36727380D01*
X111690476Y-36727380D01*
X111785714Y-36679761D01*
X111833333Y-36584523D01*
X111833333Y-36489285D01*
X111785714Y-36394047D01*
X111690476Y-36346428D01*
X111452380Y-36346428D01*
X111357142Y-36298809D01*
X110880952Y-36060714D02*
X110880952Y-36727380D01*
X110880952Y-36155952D02*
X110833333Y-36108333D01*
X110738095Y-36060714D01*
X110595238Y-36060714D01*
X110500000Y-36108333D01*
X110452380Y-36203571D01*
X110452380Y-36727380D01*
X109595238Y-36679761D02*
X109690476Y-36727380D01*
X109880952Y-36727380D01*
X109976190Y-36679761D01*
X110023809Y-36584523D01*
X110023809Y-36203571D01*
X109976190Y-36108333D01*
X109880952Y-36060714D01*
X109690476Y-36060714D01*
X109595238Y-36108333D01*
X109547619Y-36203571D01*
X109547619Y-36298809D01*
X110023809Y-36394047D01*
X108976190Y-36727380D02*
X109071428Y-36679761D01*
X109119047Y-36584523D01*
X109119047Y-35727380D01*
X118380952Y-37472619D02*
X118333333Y-37425000D01*
X118238095Y-37377380D01*
X118000000Y-37377380D01*
X117904761Y-37425000D01*
X117857142Y-37472619D01*
X117809523Y-37567857D01*
X117809523Y-37663095D01*
X117857142Y-37805952D01*
X118428571Y-38377380D01*
X117809523Y-38377380D01*
X117190476Y-37377380D02*
X117095238Y-37377380D01*
X117000000Y-37425000D01*
X116952380Y-37472619D01*
X116904761Y-37567857D01*
X116857142Y-37758333D01*
X116857142Y-37996428D01*
X116904761Y-38186904D01*
X116952380Y-38282142D01*
X117000000Y-38329761D01*
X117095238Y-38377380D01*
X117190476Y-38377380D01*
X117285714Y-38329761D01*
X117333333Y-38282142D01*
X117380952Y-38186904D01*
X117428571Y-37996428D01*
X117428571Y-37758333D01*
X117380952Y-37567857D01*
X117333333Y-37472619D01*
X117285714Y-37425000D01*
X117190476Y-37377380D01*
X116666666Y-38472619D02*
X115904761Y-38472619D01*
X115238095Y-37710714D02*
X115238095Y-38377380D01*
X115476190Y-37329761D02*
X115714285Y-38044047D01*
X115095238Y-38044047D01*
X114285714Y-37710714D02*
X114285714Y-38377380D01*
X114523809Y-37329761D02*
X114761904Y-38044047D01*
X114142857Y-38044047D01*
X114000000Y-38472619D02*
X113238095Y-38472619D01*
X112809523Y-37377380D02*
X112714285Y-37377380D01*
X112619047Y-37425000D01*
X112571428Y-37472619D01*
X112523809Y-37567857D01*
X112476190Y-37758333D01*
X112476190Y-37996428D01*
X112523809Y-38186904D01*
X112571428Y-38282142D01*
X112619047Y-38329761D01*
X112714285Y-38377380D01*
X112809523Y-38377380D01*
X112904761Y-38329761D01*
X112952380Y-38282142D01*
X113000000Y-38186904D01*
X113047619Y-37996428D01*
X113047619Y-37758333D01*
X113000000Y-37567857D01*
X112952380Y-37472619D01*
X112904761Y-37425000D01*
X112809523Y-37377380D01*
X111857142Y-37377380D02*
X111761904Y-37377380D01*
X111666666Y-37425000D01*
X111619047Y-37472619D01*
X111571428Y-37567857D01*
X111523809Y-37758333D01*
X111523809Y-37996428D01*
X111571428Y-38186904D01*
X111619047Y-38282142D01*
X111666666Y-38329761D01*
X111761904Y-38377380D01*
X111857142Y-38377380D01*
X111952380Y-38329761D01*
X112000000Y-38282142D01*
X112047619Y-38186904D01*
X112095238Y-37996428D01*
X112095238Y-37758333D01*
X112047619Y-37567857D01*
X112000000Y-37472619D01*
X111952380Y-37425000D01*
X111857142Y-37377380D01*
X110666666Y-37710714D02*
X110666666Y-38377380D01*
X110904761Y-37329761D02*
X111142857Y-38044047D01*
X110523809Y-38044047D01*
X109619047Y-38377380D02*
X110190476Y-38377380D01*
X109904761Y-38377380D02*
X109904761Y-37377380D01*
X110000000Y-37520238D01*
X110095238Y-37615476D01*
X110190476Y-37663095D01*
X119452380Y-39503571D02*
X119309523Y-39551190D01*
X119261904Y-39598809D01*
X119214285Y-39694047D01*
X119214285Y-39836904D01*
X119261904Y-39932142D01*
X119309523Y-39979761D01*
X119404761Y-40027380D01*
X119785714Y-40027380D01*
X119785714Y-39027380D01*
X119452380Y-39027380D01*
X119357142Y-39075000D01*
X119309523Y-39122619D01*
X119261904Y-39217857D01*
X119261904Y-39313095D01*
X119309523Y-39408333D01*
X119357142Y-39455952D01*
X119452380Y-39503571D01*
X119785714Y-39503571D01*
X118785714Y-39360714D02*
X118785714Y-40217857D01*
X118833333Y-40313095D01*
X118928571Y-40360714D01*
X118976190Y-40360714D01*
X118785714Y-39027380D02*
X118833333Y-39075000D01*
X118785714Y-39122619D01*
X118738095Y-39075000D01*
X118785714Y-39027380D01*
X118785714Y-39122619D01*
X117785714Y-39360714D02*
X118404761Y-40027380D01*
X118166666Y-40027380D02*
X118261904Y-39979761D01*
X118309523Y-39932142D01*
X118357142Y-39836904D01*
X118357142Y-39551190D01*
X118309523Y-39455952D01*
X118261904Y-39408333D01*
X118166666Y-39360714D01*
X118023809Y-39360714D01*
X117928571Y-39408333D01*
X117880952Y-39455952D01*
X117833333Y-39551190D01*
X117833333Y-39836904D01*
X117880952Y-39932142D01*
X117928571Y-39979761D01*
X118023809Y-40027380D01*
X118166666Y-40027380D01*
X117404761Y-40027380D02*
X117404761Y-39360714D01*
X117404761Y-39551190D02*
X117357142Y-39455952D01*
X117309523Y-39408333D01*
X117214285Y-39360714D01*
X117119047Y-39360714D01*
X116785714Y-39360714D02*
X116785714Y-40027380D01*
X116785714Y-39455952D02*
X116738095Y-39408333D01*
X116642857Y-39360714D01*
X116500000Y-39360714D01*
X116404761Y-39408333D01*
X116357142Y-39503571D01*
X116357142Y-40027380D01*
X115500000Y-39979761D02*
X115595238Y-40027380D01*
X115785714Y-40027380D01*
X115880952Y-39979761D01*
X115928571Y-39884523D01*
X115928571Y-39503571D01*
X115880952Y-39408333D01*
X115785714Y-39360714D01*
X115595238Y-39360714D01*
X115500000Y-39408333D01*
X115452380Y-39503571D01*
X115452380Y-39598809D01*
X115928571Y-39694047D01*
X115023809Y-40027380D02*
X115023809Y-39360714D01*
X115023809Y-39551190D02*
X114976190Y-39455952D01*
X114928571Y-39408333D01*
X114833333Y-39360714D01*
X114738095Y-39360714D01*
X113690476Y-39979761D02*
X113547619Y-40027380D01*
X113309523Y-40027380D01*
X113214285Y-39979761D01*
X113166666Y-39932142D01*
X113119047Y-39836904D01*
X113119047Y-39741666D01*
X113166666Y-39646428D01*
X113214285Y-39598809D01*
X113309523Y-39551190D01*
X113500000Y-39503571D01*
X113595238Y-39455952D01*
X113642857Y-39408333D01*
X113690476Y-39313095D01*
X113690476Y-39217857D01*
X113642857Y-39122619D01*
X113595238Y-39075000D01*
X113500000Y-39027380D01*
X113261904Y-39027380D01*
X113119047Y-39075000D01*
X112261904Y-40027380D02*
X112261904Y-39503571D01*
X112309523Y-39408333D01*
X112404761Y-39360714D01*
X112595238Y-39360714D01*
X112690476Y-39408333D01*
X112261904Y-39979761D02*
X112357142Y-40027380D01*
X112595238Y-40027380D01*
X112690476Y-39979761D01*
X112738095Y-39884523D01*
X112738095Y-39789285D01*
X112690476Y-39694047D01*
X112595238Y-39646428D01*
X112357142Y-39646428D01*
X112261904Y-39598809D01*
X111785714Y-39360714D02*
X111785714Y-40027380D01*
X111785714Y-39455952D02*
X111738095Y-39408333D01*
X111642857Y-39360714D01*
X111500000Y-39360714D01*
X111404761Y-39408333D01*
X111357142Y-39503571D01*
X111357142Y-40027380D01*
X110452380Y-40027380D02*
X110452380Y-39027380D01*
X110452380Y-39979761D02*
X110547619Y-40027380D01*
X110738095Y-40027380D01*
X110833333Y-39979761D01*
X110880952Y-39932142D01*
X110928571Y-39836904D01*
X110928571Y-39551190D01*
X110880952Y-39455952D01*
X110833333Y-39408333D01*
X110738095Y-39360714D01*
X110547619Y-39360714D01*
X110452380Y-39408333D01*
X109833333Y-40027380D02*
X109928571Y-39979761D01*
X109976190Y-39932142D01*
X110023809Y-39836904D01*
X110023809Y-39551190D01*
X109976190Y-39455952D01*
X109928571Y-39408333D01*
X109833333Y-39360714D01*
X109690476Y-39360714D01*
X109595238Y-39408333D01*
X109547619Y-39455952D01*
X109500000Y-39551190D01*
X109500000Y-39836904D01*
X109547619Y-39932142D01*
X109595238Y-39979761D01*
X109690476Y-40027380D01*
X109833333Y-40027380D01*
X109071428Y-40027380D02*
X109071428Y-39360714D01*
X109071428Y-39455952D02*
X109023809Y-39408333D01*
X108928571Y-39360714D01*
X108785714Y-39360714D01*
X108690476Y-39408333D01*
X108642857Y-39503571D01*
X108642857Y-40027380D01*
X108642857Y-39503571D02*
X108595238Y-39408333D01*
X108500000Y-39360714D01*
X108357142Y-39360714D01*
X108261904Y-39408333D01*
X108214285Y-39503571D01*
X108214285Y-40027380D01*
M02*
