G04 #@! TF.GenerationSoftware,KiCad,Pcbnew,(5.1.7)-1*
G04 #@! TF.CreationDate,2020-10-28T10:47:30+01:00*
G04 #@! TF.ProjectId,LED_Panel,4c45445f-5061-46e6-956c-2e6b69636164,rev?*
G04 #@! TF.SameCoordinates,Original*
G04 #@! TF.FileFunction,Copper,L1,Top*
G04 #@! TF.FilePolarity,Positive*
%FSLAX46Y46*%
G04 Gerber Fmt 4.6, Leading zero omitted, Abs format (unit mm)*
G04 Created by KiCad (PCBNEW (5.1.7)-1) date 2020-10-28 10:47:30*
%MOMM*%
%LPD*%
G01*
G04 APERTURE LIST*
G04 #@! TA.AperFunction,ComponentPad*
%ADD10C,3.600000*%
G04 #@! TD*
G04 #@! TA.AperFunction,ComponentPad*
%ADD11O,1.600000X1.600000*%
G04 #@! TD*
G04 #@! TA.AperFunction,ComponentPad*
%ADD12C,1.600000*%
G04 #@! TD*
G04 #@! TA.AperFunction,ComponentPad*
%ADD13C,1.800000*%
G04 #@! TD*
G04 #@! TA.AperFunction,ComponentPad*
%ADD14R,1.800000X1.800000*%
G04 #@! TD*
G04 #@! TA.AperFunction,Conductor*
%ADD15C,2.500000*%
G04 #@! TD*
G04 APERTURE END LIST*
D10*
X70500000Y-37500000D03*
X71000000Y-132500000D03*
D11*
X119120000Y-87500000D03*
D12*
X111500000Y-87500000D03*
D11*
X106620000Y-82750000D03*
D12*
X99000000Y-82750000D03*
D11*
X93953332Y-87500000D03*
D12*
X86333332Y-87500000D03*
D11*
X81453332Y-82750000D03*
D12*
X73833332Y-82750000D03*
D11*
X68786666Y-87500000D03*
D12*
X61166666Y-87500000D03*
D11*
X56286666Y-82750000D03*
D12*
X48666666Y-82750000D03*
D11*
X43620000Y-87500000D03*
D12*
X36000000Y-87500000D03*
D11*
X31120000Y-82750000D03*
D12*
X23500000Y-82750000D03*
D13*
X114750000Y-129960000D03*
D14*
X114750000Y-132500000D03*
D13*
X114750000Y-117460000D03*
D14*
X114750000Y-120000000D03*
D13*
X114750000Y-104960000D03*
D14*
X114750000Y-107500000D03*
D13*
X114750000Y-92460000D03*
D14*
X114750000Y-95000000D03*
D13*
X114750000Y-79960000D03*
D14*
X114750000Y-82500000D03*
D13*
X114750000Y-67460000D03*
D14*
X114750000Y-70000000D03*
D13*
X114750000Y-54960000D03*
D14*
X114750000Y-57500000D03*
D13*
X114750000Y-42460000D03*
D14*
X114750000Y-45000000D03*
D13*
X102250000Y-125460000D03*
D14*
X102250000Y-128000000D03*
D13*
X102250000Y-112945710D03*
D14*
X102250000Y-115485710D03*
D13*
X102250000Y-100431425D03*
D14*
X102250000Y-102971425D03*
D13*
X102250000Y-87917140D03*
D14*
X102250000Y-90457140D03*
D13*
X102250000Y-75402855D03*
D14*
X102250000Y-77942855D03*
D13*
X102250000Y-62888570D03*
D14*
X102250000Y-65428570D03*
D13*
X102250000Y-50374285D03*
D14*
X102250000Y-52914285D03*
D13*
X102250000Y-37860000D03*
D14*
X102250000Y-40400000D03*
D13*
X89750000Y-129960000D03*
D14*
X89750000Y-132500000D03*
D13*
X89750000Y-117460000D03*
D14*
X89750000Y-120000000D03*
D13*
X89750000Y-104960000D03*
D14*
X89750000Y-107500000D03*
D13*
X89750000Y-92460000D03*
D14*
X89750000Y-95000000D03*
D13*
X89750000Y-79960000D03*
D14*
X89750000Y-82500000D03*
D13*
X89750000Y-67460000D03*
D14*
X89750000Y-70000000D03*
D13*
X89750000Y-54960000D03*
D14*
X89750000Y-57500000D03*
D13*
X89750000Y-42460000D03*
D14*
X89750000Y-45000000D03*
D13*
X77250000Y-125460000D03*
D14*
X77250000Y-128000000D03*
D13*
X77250000Y-112945710D03*
D14*
X77250000Y-115485710D03*
D13*
X77250000Y-100431425D03*
D14*
X77250000Y-102971425D03*
D13*
X77250000Y-87917140D03*
D14*
X77250000Y-90457140D03*
D13*
X77250000Y-75402855D03*
D14*
X77250000Y-77942855D03*
D13*
X77250000Y-62888570D03*
D14*
X77250000Y-65428570D03*
D13*
X77250000Y-50374285D03*
D14*
X77250000Y-52914285D03*
D13*
X77250000Y-37860000D03*
D14*
X77250000Y-40400000D03*
D13*
X64750000Y-129960000D03*
D14*
X64750000Y-132500000D03*
D13*
X64750000Y-117460000D03*
D14*
X64750000Y-120000000D03*
D13*
X64750000Y-104960000D03*
D14*
X64750000Y-107500000D03*
D13*
X64750000Y-92460000D03*
D14*
X64750000Y-95000000D03*
D13*
X64750000Y-79960000D03*
D14*
X64750000Y-82500000D03*
D13*
X64750000Y-67460000D03*
D14*
X64750000Y-70000000D03*
D13*
X64750000Y-54960000D03*
D14*
X64750000Y-57500000D03*
D13*
X64750000Y-42460000D03*
D14*
X64750000Y-45000000D03*
D13*
X52250000Y-125460000D03*
D14*
X52250000Y-128000000D03*
D13*
X52250000Y-112945710D03*
D14*
X52250000Y-115485710D03*
D13*
X52250000Y-100431425D03*
D14*
X52250000Y-102971425D03*
D13*
X52250000Y-87917140D03*
D14*
X52250000Y-90457140D03*
D13*
X52250000Y-75402855D03*
D14*
X52250000Y-77942855D03*
D13*
X52250000Y-62888570D03*
D14*
X52250000Y-65428570D03*
D13*
X52250000Y-50374285D03*
D14*
X52250000Y-52914285D03*
D13*
X52250000Y-37860000D03*
D14*
X52250000Y-40400000D03*
D13*
X39750000Y-129960000D03*
D14*
X39750000Y-132500000D03*
D13*
X39750000Y-117460000D03*
D14*
X39750000Y-120000000D03*
D13*
X39750000Y-104960000D03*
D14*
X39750000Y-107500000D03*
D13*
X39750000Y-92460000D03*
D14*
X39750000Y-95000000D03*
D13*
X39750000Y-79960000D03*
D14*
X39750000Y-82500000D03*
D13*
X39750000Y-67460000D03*
D14*
X39750000Y-70000000D03*
D13*
X39750000Y-54960000D03*
D14*
X39750000Y-57500000D03*
D13*
X39750000Y-42460000D03*
D14*
X39750000Y-45000000D03*
D13*
X27250000Y-125460000D03*
D14*
X27250000Y-128000000D03*
D13*
X27250000Y-112945710D03*
D14*
X27250000Y-115485710D03*
D13*
X27250000Y-100431425D03*
D14*
X27250000Y-102971425D03*
D13*
X27250000Y-87917140D03*
D14*
X27250000Y-90457140D03*
D13*
X27250000Y-75402855D03*
D14*
X27250000Y-77942855D03*
D13*
X27250000Y-62888570D03*
D14*
X27250000Y-65428570D03*
D13*
X27250000Y-50374285D03*
D14*
X27250000Y-52914285D03*
D13*
X27250000Y-37860000D03*
D14*
X27250000Y-40400000D03*
D15*
X35150000Y-37860000D02*
X39750000Y-42460000D01*
X27250000Y-37860000D02*
X35150000Y-37860000D01*
X44350000Y-37860000D02*
X52250000Y-37860000D01*
X39750000Y-42460000D02*
X44350000Y-37860000D01*
X60150000Y-37860000D02*
X64750000Y-42460000D01*
X52250000Y-37860000D02*
X60150000Y-37860000D01*
X69350000Y-37860000D02*
X77250000Y-37860000D01*
X64750000Y-42460000D02*
X69350000Y-37860000D01*
X85150000Y-37860000D02*
X89750000Y-42460000D01*
X77250000Y-37860000D02*
X85150000Y-37860000D01*
X94350000Y-37860000D02*
X102250000Y-37860000D01*
X89750000Y-42460000D02*
X94350000Y-37860000D01*
X110150000Y-37860000D02*
X114750000Y-42460000D01*
X102250000Y-37860000D02*
X110150000Y-37860000D01*
X31750000Y-132500000D02*
X39750000Y-132500000D01*
X27250000Y-128000000D02*
X31750000Y-132500000D01*
X47750000Y-132500000D02*
X52250000Y-128000000D01*
X39750000Y-132500000D02*
X47750000Y-132500000D01*
X56750000Y-132500000D02*
X64750000Y-132500000D01*
X52250000Y-128000000D02*
X56750000Y-132500000D01*
X72750000Y-132500000D02*
X77250000Y-128000000D01*
X64750000Y-132500000D02*
X72750000Y-132500000D01*
X81750000Y-132500000D02*
X89750000Y-132500000D01*
X77250000Y-128000000D02*
X81750000Y-132500000D01*
X97750000Y-132500000D02*
X102250000Y-128000000D01*
X89750000Y-132500000D02*
X97750000Y-132500000D01*
X106750000Y-132500000D02*
X114750000Y-132500000D01*
X102250000Y-128000000D02*
X106750000Y-132500000D01*
M02*
